<svg xmlns="http://www.w3.org/2000/svg" width="78.554" height="78.554" viewBox="0 0 78.554 78.554">
  <g id="Grupo_1071819" data-name="Grupo 1071819" transform="translate(-184 -1136.203)">
    <g id="Grupo_995637" data-name="Grupo 995637" transform="translate(184 1136.203)">
      <path id="Trazado_771736" data-name="Trazado 771736" d="M39.277,0A39.277,39.277,0,1,1,0,39.277,39.277,39.277,0,0,1,39.277,0Z" transform="translate(0 0)" fill="#ff981e"/>
    </g>
    <g id="estrategia_1_" data-name="estrategia (1)" transform="translate(188.789 1142.992)">
      <g id="Grupo_1071839" data-name="Grupo 1071839" transform="translate(1.01 1.01)">
        <path id="Trazado_771785" data-name="Trazado 771785" d="M233.306,15.253h-8.37V8.847A1.347,1.347,0,0,1,226.283,7.5h5.676a1.347,1.347,0,0,1,1.347,1.347Z" transform="translate(-195.643 -7.5)" fill="#73788c"/>
        <path id="Trazado_771786" data-name="Trazado 771786" d="M110.831,420.139h39.114v4.809H110.831Z" transform="translate(-96.91 -364.548)" fill="#5e6577"/>
        <path id="Trazado_771787" data-name="Trazado 771787" d="M355.38,420.14h6.169v4.809H355.38Z" transform="translate(-308.514 -364.549)" fill="#4d5263"/>
        <path id="Trazado_771788" data-name="Trazado 771788" d="M110.83,420.14H117v4.809H110.83Z" transform="translate(-96.909 -364.549)" fill="#4d5263"/>
        <path id="Trazado_771789" data-name="Trazado 771789" d="M102.737,333.5V356a.539.539,0,0,1-.539.539H98.467a.539.539,0,0,1-.539-.539V333.5Z" transform="translate(-85.746 -289.584)" fill="#73788c"/>
        <path id="Trazado_771790" data-name="Trazado 771790" d="M383.184,333.5V356a.539.539,0,0,1-.539.539h-3.731a.539.539,0,0,1-.539-.539V333.5Z" transform="translate(-328.411 -289.584)" fill="#73788c"/>
        <path id="Trazado_771791" data-name="Trazado 771791" d="M111.8,316.777l-6.853.524h-42.4a1.347,1.347,0,0,1-1.347-1.347v-3.462l28.309-3.271,23.517,3.271.117,2.938a1.347,1.347,0,0,1-1.347,1.347Z" transform="translate(-53.969 -268.573)" fill="#5e6577"/>
        <path id="Trazado_771792" data-name="Trazado 771792" d="M389.365,326.361v3.462a1.348,1.348,0,0,1-1.347,1.347H379.8a1.348,1.348,0,0,0,1.347-1.347V325.25Z" transform="translate(-329.644 -282.443)" fill="#4d5263"/>
        <path id="Trazado_771793" data-name="Trazado 771793" d="M72.28,81.628l-5.059.736H8.847A1.347,1.347,0,0,1,7.5,81.017V44.61a1.347,1.347,0,0,1,1.347-1.347h61.2l2.339.878a1.347,1.347,0,0,1,1.347,1.347l-.1,34.792a1.347,1.347,0,0,1-1.347,1.347Z" transform="translate(-7.5 -38.445)" fill="#f2f2f2"/>
        <path id="Trazado_771794" data-name="Trazado 771794" d="M454.374,44.607V81.014a1.347,1.347,0,0,1-1.347,1.347H446.57a3.391,3.391,0,0,0,3.391-3.391V43.26h3.066A1.348,1.348,0,0,1,454.374,44.607Z" transform="translate(-387.419 -38.442)" fill="#e2e8f5"/>
        <g id="Grupo_1071837" data-name="Grupo 1071837" transform="translate(51.899 15.631)">
          <path id="Trazado_771795" data-name="Trazado 771795" d="M398.407,123.74l1.345,2.724a.387.387,0,0,0,.245.2c.015,0,.02.075.036.078l2.5.445a.387.387,0,0,1,.214.66l-1.965,1.858a.387.387,0,0,0-.111.343l.583,2.757a.387.387,0,0,1-.562.408l-2.451-1.392a.387.387,0,0,0-.36,0l-2.444,1.372a.387.387,0,0,1-.562-.408l.242-2.4.026-.152a.387.387,0,0,0-.111-.343l-2.176-2.121a.387.387,0,0,1,.214-.66l3.007-.437a.387.387,0,0,0,.291-.212l1.345-2.724a.387.387,0,0,1,.694,0Z" transform="translate(-392.738 -123.525)" fill="#fce698"/>
          <path id="Trazado_771796" data-name="Trazado 771796" d="M413.191,150.084a.388.388,0,0,0-.111.342l.514,2.995a.387.387,0,0,1-.561.408l-2.689-1.414a.388.388,0,0,0-.361,0l-2.689,1.414a.387.387,0,0,1-.561-.408l.488-2.843a5.417,5.417,0,0,0,4.883-3.721.417.417,0,0,0,.044.009l3.006.436a.387.387,0,0,1,.214.661Z" transform="translate(-404.842 -143.714)" fill="#fbd166"/>
        </g>
        <g id="Grupo_1071838" data-name="Grupo 1071838" transform="translate(6.036 14.758)">
          <circle id="Elipse_6004" data-name="Elipse 6004" cx="2.399" cy="2.399" r="2.399" fill="#64ddfe"/>
          <circle id="Elipse_6005" data-name="Elipse 6005" cx="2.399" cy="2.399" r="2.399" transform="translate(9.167 14.341)" fill="#64ddfe"/>
          <circle id="Elipse_6006" data-name="Elipse 6006" cx="2.399" cy="2.399" r="2.399" transform="translate(36.302 12.342)" fill="#64ddfe"/>
          <circle id="Elipse_6007" data-name="Elipse 6007" cx="2.399" cy="2.399" r="2.399" transform="translate(19.821 5.464)" fill="#64ddfe"/>
        </g>
      </g>
      <g id="Grupo_1071840" data-name="Grupo 1071840" transform="translate(0 0)">
        <path id="Trazado_771797" data-name="Trazado 771797" d="M1.01,27.646a1.01,1.01,0,0,0,1.01-1.01V7.175a.337.337,0,0,1,.337-.337H45.838a1.01,1.01,0,0,0,0-2.021H39.684V2.358A2.36,2.36,0,0,0,37.326,0H31.65a2.36,2.36,0,0,0-2.358,2.358v2.46H2.358A2.36,2.36,0,0,0,0,7.175v19.46A1.01,1.01,0,0,0,1.01,27.646Zm30.3-25.288a.337.337,0,0,1,.337-.337h5.676a.337.337,0,0,1,.337.337v2.46H31.314Z" transform="translate(0 0)"/>
        <path id="Trazado_771798" data-name="Trazado 771798" d="M66.619,35.76H50.554a1.01,1.01,0,1,0,0,2.021H66.619a.337.337,0,0,1,.337.337V74.524a.337.337,0,0,1-.337.337h-13a1.01,1.01,0,1,0,0,2.021h6.1v2.452a.337.337,0,0,1-.337.337H9.593a.337.337,0,0,1-.337-.337V76.882H48.909a1.01,1.01,0,1,0,0-2.021H2.358a.337.337,0,0,1-.337-.337V62.293a1.01,1.01,0,0,0-2.021,0V74.524a2.36,2.36,0,0,0,2.358,2.358H7.235v2.452a2.36,2.36,0,0,0,2.358,2.358h2.59V98.37a1.551,1.551,0,0,0,1.549,1.549h3.731a1.551,1.551,0,0,0,1.549-1.549V93.363H49.964V98.37a1.551,1.551,0,0,0,1.549,1.549h3.731a1.551,1.551,0,0,0,1.549-1.549V81.691h2.59a2.36,2.36,0,0,0,2.358-2.358V76.882h4.877a2.36,2.36,0,0,0,2.358-2.358V38.118A2.36,2.36,0,0,0,66.619,35.76ZM14.2,97.9V81.691h2.788V97.9Zm4.809-6.556V88.554H23.16a1.01,1.01,0,0,0,0-2.021H19.012V81.691H49.964v4.842H27.875a1.01,1.01,0,1,0,0,2.021H49.964v2.788ZM54.773,97.9H51.985V81.691h2.788Z" transform="translate(0 -30.942)"/>
        <path id="Trazado_771799" data-name="Trazado 771799" d="M85.633,122.076a3.4,3.4,0,0,0-2.836.275,20.063,20.063,0,0,0-11.489-4.871,3.409,3.409,0,1,0-5.46,3.554,10.871,10.871,0,0,1-5.5,4.589,3.4,3.4,0,0,0-5.205-.9,13.332,13.332,0,0,1-5.775-8.564,3.409,3.409,0,1,0-2.04.085,15.346,15.346,0,0,0,6.749,10.2,3.409,3.409,0,1,0,6.695,1.179,12.9,12.9,0,0,0,6.966-5.807c.1.008.2.014.3.014a3.414,3.414,0,0,0,3.231-2.324,18.042,18.042,0,0,1,10.168,4.337,3.41,3.41,0,1,0,5.834-.555,15.426,15.426,0,0,1,5.787-4.023l-.27,1.575a1.278,1.278,0,0,0,1.857,1.349L97,120.947l2.358,1.24a1.28,1.28,0,0,0,1.857-1.349l-.451-2.626,1.908-1.86a1.28,1.28,0,0,0-.709-2.183l-2.637-.383L98.144,111.4a1.28,1.28,0,0,0-2.3,0l-1.179,2.389-2.637.383a1.28,1.28,0,0,0-.709,2.183l1.038,1.012a17.438,17.438,0,0,0-6.728,4.713ZM48.21,111.566a1.388,1.388,0,1,1-1.388,1.388A1.39,1.39,0,0,1,48.21,111.566Zm9.167,17.118a1.389,1.389,0,1,1,1.389-1.389A1.39,1.39,0,0,1,57.377,128.684Zm37.967-12.954a1.278,1.278,0,0,0,.965-.7L97,113.637l.687,1.392a1.277,1.277,0,0,0,.964.7l1.537.223-1.112,1.084a1.279,1.279,0,0,0-.368,1.133l.263,1.53-1.374-.722a1.28,1.28,0,0,0-1.192,0l-1.374.723.263-1.53a1.279,1.279,0,0,0-.368-1.133l-1.112-1.084Zm-27.312,4.078a1.389,1.389,0,1,1,1.388-1.389A1.39,1.39,0,0,1,68.031,119.807Zm16.481,6.877A1.388,1.388,0,1,1,85.9,125.3,1.39,1.39,0,0,1,84.513,126.684Z" transform="translate(-38.765 -94.787)"/>
        <path id="Trazado_771800" data-name="Trazado 771800" d="M39.7,240.041a1.011,1.011,0,0,0-1.429,0l-.884.884-.884-.884a1.01,1.01,0,0,0-1.429,1.429l.884.884-.884.884a1.01,1.01,0,0,0,1.429,1.429l.884-.884.884.884a1.01,1.01,0,1,0,1.429-1.429l-.884-.884.884-.884a1.01,1.01,0,0,0,0-1.429Z" transform="translate(-30.097 -207.447)"/>
        <path id="Trazado_771801" data-name="Trazado 771801" d="M124.605,138.216a1.011,1.011,0,0,0,1.429,0l.884-.884.884.884a1.01,1.01,0,1,0,1.429-1.429l-.884-.884.884-.884a1.01,1.01,0,0,0-1.429-1.429l-.884.884-.884-.884a1.01,1.01,0,1,0-1.429,1.429l.884.884-.884.884A1.01,1.01,0,0,0,124.605,138.216Z" transform="translate(-107.562 -115.338)"/>
        <path id="Trazado_771802" data-name="Trazado 771802" d="M220.6,240.041a1.011,1.011,0,0,0-1.429,0l-.884.884-.884-.884a1.01,1.01,0,0,0-1.429,1.429l.884.884-.884.884a1.01,1.01,0,0,0,1.429,1.429l.884-.884.884.884a1.01,1.01,0,1,0,1.429-1.429l-.884-.884.884-.884a1.01,1.01,0,0,0,0-1.429Z" transform="translate(-186.623 -207.447)"/>
        <path id="Trazado_771803" data-name="Trazado 771803" d="M280.829,126.438a1.011,1.011,0,0,0,1.429,0l.884-.884.884.884a1.01,1.01,0,1,0,1.429-1.429l-.884-.884.884-.884a1.01,1.01,0,1,0-1.429-1.429l-.884.884-.884-.884a1.01,1.01,0,1,0-1.429,1.429l.884.884-.884.884a1.01,1.01,0,0,0,0,1.429Z" transform="translate(-242.74 -105.146)"/>
        <path id="Trazado_771804" data-name="Trazado 771804" d="M348.332,84.466a1.011,1.011,0,0,0,1.429,0l.884-.884.884.884a1.01,1.01,0,0,0,1.429-1.429l-.884-.884.884-.884a1.01,1.01,0,1,0-1.429-1.429l-.884.884-.884-.884a1.01,1.01,0,0,0-1.429,1.429l.884.884-.884.884A1.01,1.01,0,0,0,348.332,84.466Z" transform="translate(-301.149 -68.829)"/>
        <path id="Trazado_771805" data-name="Trazado 771805" d="M401.238,248.674a1.011,1.011,0,0,0-1.429,0l-.884.884-.884-.884a1.01,1.01,0,0,0-1.429,1.429l.884.884-.884.884a1.01,1.01,0,0,0,1.429,1.429l.884-.884.884.884a1.01,1.01,0,0,0,1.429-1.429l-.884-.884.884-.884A1.01,1.01,0,0,0,401.238,248.674Z" transform="translate(-342.926 -214.917)"/>
        <path id="Trazado_771806" data-name="Trazado 771806" d="M305.258,266.766a1.01,1.01,0,1,0,0,2.021h7.5a1.01,1.01,0,1,0,0-2.021Z" transform="translate(-263.26 -230.827)"/>
        <path id="Trazado_771807" data-name="Trazado 771807" d="M190.418,122.125a1.01,1.01,0,1,0,0-2.021h-7.5a1.01,1.01,0,0,0,0,2.021Z" transform="translate(-157.403 -103.924)"/>
        <path id="Trazado_771808" data-name="Trazado 771808" d="M103.836,281.608a1.01,1.01,0,1,0,0,2.021h7.5a1.01,1.01,0,1,0,0-2.021Z" transform="translate(-88.973 -243.67)"/>
        <path id="Trazado_771809" data-name="Trazado 771809" d="M43.291,81.565a1.01,1.01,0,1,0,0-2.021h-7.5a1.01,1.01,0,1,0,0,2.021Z" transform="translate(-30.097 -68.828)"/>
      </g>
    </g>
  </g>
</svg>
