<svg xmlns="http://www.w3.org/2000/svg" width="41.067" height="104.588" viewBox="0 0 41.067 104.588">
  <g id="Design-elements" transform="translate(0)">
    <path id="dots-03" d="M35.219,101.668a2.924,2.924,0,1,1,2.925,2.921A2.922,2.922,0,0,1,35.219,101.668Zm-17.609,0a2.919,2.919,0,1,1,2.92,2.921A2.92,2.92,0,0,1,17.609,101.668ZM0,101.668a2.917,2.917,0,1,1,2.918,2.921A2.919,2.919,0,0,1,0,101.668ZM35.219,85.2a2.924,2.924,0,1,1,2.925,2.92A2.921,2.921,0,0,1,35.219,85.2Zm-17.609,0a2.919,2.919,0,1,1,2.92,2.92A2.919,2.919,0,0,1,17.609,85.2ZM0,85.2a2.917,2.917,0,1,1,2.918,2.92A2.917,2.917,0,0,1,0,85.2ZM35.219,68.741a2.924,2.924,0,1,1,2.925,2.92A2.922,2.922,0,0,1,35.219,68.741Zm-17.609,0a2.919,2.919,0,1,1,2.92,2.92A2.92,2.92,0,0,1,17.609,68.741ZM0,68.741a2.917,2.917,0,1,1,2.918,2.92A2.919,2.919,0,0,1,0,68.741ZM35.219,52.295a2.924,2.924,0,1,1,2.925,2.919A2.923,2.923,0,0,1,35.219,52.295Zm-17.609,0a2.919,2.919,0,1,1,2.92,2.919A2.92,2.92,0,0,1,17.609,52.295ZM0,52.295a2.917,2.917,0,1,1,2.918,2.919A2.919,2.919,0,0,1,0,52.295ZM35.219,35.829a2.924,2.924,0,1,1,2.925,2.92A2.921,2.921,0,0,1,35.219,35.829Zm-17.609,0a2.919,2.919,0,1,1,2.92,2.92A2.919,2.919,0,0,1,17.609,35.829ZM0,35.829a2.917,2.917,0,1,1,2.918,2.92A2.917,2.917,0,0,1,0,35.829ZM35.219,19.381a2.924,2.924,0,1,1,2.925,2.92A2.922,2.922,0,0,1,35.219,19.381Zm-17.609,0a2.919,2.919,0,1,1,2.92,2.92A2.92,2.92,0,0,1,17.609,19.381ZM0,19.381A2.917,2.917,0,1,1,2.918,22.3,2.919,2.919,0,0,1,0,19.381ZM35.219,2.925a2.924,2.924,0,1,1,2.925,2.923A2.925,2.925,0,0,1,35.219,2.925Zm-17.609,0a2.919,2.919,0,1,1,2.92,2.923A2.922,2.922,0,0,1,17.609,2.925ZM0,2.925A2.917,2.917,0,1,1,2.918,5.848,2.921,2.921,0,0,1,0,2.925Z" transform="translate(0 0)" fill="#12263f"/>
  </g>
</svg>
