<svg xmlns="http://www.w3.org/2000/svg" width="46.804" height="44.162" viewBox="0 0 46.804 44.162">
  <g id="Design-elements" transform="translate(0)">
    <path id="dots-03" d="M40.139,40.834a3.333,3.333,0,1,1,3.334,3.327A3.329,3.329,0,0,1,40.139,40.834Zm-20.069,0A3.327,3.327,0,1,1,23.4,44.162,3.326,3.326,0,0,1,20.069,40.834ZM0,40.834a3.325,3.325,0,1,1,3.325,3.327A3.325,3.325,0,0,1,0,40.834ZM40.139,22.088a3.333,3.333,0,1,1,3.334,3.328A3.331,3.331,0,0,1,40.139,22.088Zm-20.069,0A3.327,3.327,0,1,1,23.4,25.416,3.328,3.328,0,0,1,20.069,22.088ZM0,22.088a3.325,3.325,0,1,1,3.325,3.328A3.326,3.326,0,0,1,0,22.088ZM40.139,3.334a3.333,3.333,0,1,1,3.334,3.332A3.334,3.334,0,0,1,40.139,3.334Zm-20.069,0A3.327,3.327,0,1,1,23.4,6.665,3.33,3.33,0,0,1,20.069,3.334ZM0,3.334A3.325,3.325,0,1,1,3.325,6.665,3.329,3.329,0,0,1,0,3.334Z" transform="translate(0 0)" fill="#12263f"/>
  </g>
</svg>
