<svg xmlns="http://www.w3.org/2000/svg" xmlns:xlink="http://www.w3.org/1999/xlink" width="1240" height="520" viewBox="0 0 1240 520">
  <defs>
    <filter id="Trazado_838830" x="626" y="46" width="288" height="140" filterUnits="userSpaceOnUse">
      <feOffset dy="3" input="SourceAlpha"/>
      <feGaussianBlur stdDeviation="3" result="blur"/>
      <feFlood flood-opacity="0.161"/>
      <feComposite operator="in" in2="blur"/>
      <feComposite in="SourceGraphic"/>
    </filter>
    <filter id="Trazado_838831" x="326" y="46" width="288" height="140" filterUnits="userSpaceOnUse">
      <feOffset dy="3" input="SourceAlpha"/>
      <feGaussianBlur stdDeviation="3" result="blur-2"/>
      <feFlood flood-opacity="0.161"/>
      <feComposite operator="in" in2="blur-2"/>
      <feComposite in="SourceGraphic"/>
    </filter>
    <filter id="Trazado_838834" x="445" y="168" width="48" height="41" filterUnits="userSpaceOnUse">
      <feOffset dy="3" input="SourceAlpha"/>
      <feGaussianBlur stdDeviation="3" result="blur-3"/>
      <feFlood flood-opacity="0.161"/>
      <feComposite operator="in" in2="blur-3"/>
      <feComposite in="SourceGraphic"/>
    </filter>
    <filter id="Trazado_838835" x="746" y="168" width="48" height="41" filterUnits="userSpaceOnUse">
      <feOffset dy="3" input="SourceAlpha"/>
      <feGaussianBlur stdDeviation="3" result="blur-4"/>
      <feFlood flood-opacity="0.161"/>
      <feComposite operator="in" in2="blur-4"/>
      <feComposite in="SourceGraphic"/>
    </filter>
    <filter id="Trazado_838836" x="445" y="313" width="48" height="46" filterUnits="userSpaceOnUse">
      <feOffset dy="3" input="SourceAlpha"/>
      <feGaussianBlur stdDeviation="3" result="blur-5"/>
      <feFlood flood-opacity="0.161"/>
      <feComposite operator="in" in2="blur-5"/>
      <feComposite in="SourceGraphic"/>
    </filter>
    <filter id="Trazado_838837" x="746" y="313" width="48" height="46" filterUnits="userSpaceOnUse">
      <feOffset dy="3" input="SourceAlpha"/>
      <feGaussianBlur stdDeviation="3" result="blur-6"/>
      <feFlood flood-opacity="0.161"/>
      <feComposite operator="in" in2="blur-6"/>
      <feComposite in="SourceGraphic"/>
    </filter>
    <filter id="Trazado_838838" x="596" y="389" width="48" height="45" filterUnits="userSpaceOnUse">
      <feOffset dy="3" input="SourceAlpha"/>
      <feGaussianBlur stdDeviation="3" result="blur-7"/>
      <feFlood flood-opacity="0.161"/>
      <feComposite operator="in" in2="blur-7"/>
      <feComposite in="SourceGraphic"/>
    </filter>
    <filter id="Trazado_838839" x="326" y="191" width="288" height="140" filterUnits="userSpaceOnUse">
      <feOffset dy="3" input="SourceAlpha"/>
      <feGaussianBlur stdDeviation="3" result="blur-8"/>
      <feFlood flood-opacity="0.161"/>
      <feComposite operator="in" in2="blur-8"/>
      <feComposite in="SourceGraphic"/>
    </filter>
    <filter id="Trazado_838843" x="326" y="340.513" width="288" height="140" filterUnits="userSpaceOnUse">
      <feOffset dy="3" input="SourceAlpha"/>
      <feGaussianBlur stdDeviation="3" result="blur-9"/>
      <feFlood flood-opacity="0.161"/>
      <feComposite operator="in" in2="blur-9"/>
      <feComposite in="SourceGraphic"/>
    </filter>
    <filter id="Trazado_838845" x="626" y="341" width="288" height="140" filterUnits="userSpaceOnUse">
      <feOffset dy="3" input="SourceAlpha"/>
      <feGaussianBlur stdDeviation="3" result="blur-10"/>
      <feFlood flood-opacity="0.161"/>
      <feComposite operator="in" in2="blur-10"/>
      <feComposite in="SourceGraphic"/>
    </filter>
  </defs>
  <g id="Grupo_1098911" data-name="Grupo 1098911" transform="translate(-180 -2203.62)">
    <path id="Trazado_838829" data-name="Trazado 838829" d="M10,0H1230a10,10,0,0,1,10,10V510a10,10,0,0,1-10,10H10A10,10,0,0,1,0,510V10A10,10,0,0,1,10,0Z" transform="translate(180 2203.62)" fill="#fff"/>
    <g transform="matrix(1, 0, 0, 1, 180, 2203.62)" filter="url(#Trazado_838830)">
      <path id="Trazado_838830-2" data-name="Trazado 838830" d="M15,0H255a15,15,0,0,1,15,15v92a15,15,0,0,1-15,15H15A15,15,0,0,1,0,107V15A15,15,0,0,1,15,0Z" transform="translate(635 52)" fill="#6875c4"/>
    </g>
    <g transform="matrix(1, 0, 0, 1, 180, 2203.62)" filter="url(#Trazado_838831)">
      <path id="Trazado_838831-2" data-name="Trazado 838831" d="M15,0H255a15,15,0,0,1,15,15v92a15,15,0,0,1-15,15H15A15,15,0,0,1,0,107V15A15,15,0,0,1,15,0Z" transform="translate(335 52)" fill="#3dc7a5"/>
    </g>
    <path id="Trazado_838832" data-name="Trazado 838832" d="M-59.963-5.726H-62.52l-1,5.726h-3.147l2.718-15.641,5.178.011a5.9,5.9,0,0,1,4,1.225A3.873,3.873,0,0,1-53.528-11a4.914,4.914,0,0,1-3.437,4.479l2.2,6.349V0h-3.352Zm-2.105-2.61,2.342.021a3.281,3.281,0,0,0,2.057-.671,2.657,2.657,0,0,0,.972-1.767,2.025,2.025,0,0,0-.333-1.633,1.983,1.983,0,0,0-1.536-.634l-2.686-.011ZM-47.609.215a5.056,5.056,0,0,1-2.7-.747,4.526,4.526,0,0,1-1.756-2.02,5.628,5.628,0,0,1-.451-2.831l.032-.43A7.514,7.514,0,0,1-51.5-8.927a5.969,5.969,0,0,1,2.127-2.186,5.262,5.262,0,0,1,2.879-.725,4.021,4.021,0,0,1,3.4,1.651,5.661,5.661,0,0,1,.875,4.072l-.172,1.323h-7.122a2.494,2.494,0,0,0,.548,1.8,2.091,2.091,0,0,0,1.611.7,3.717,3.717,0,0,0,2.9-1.289l1.386,1.719A4.311,4.311,0,0,1-44.956-.317,6.183,6.183,0,0,1-47.609.215Zm.967-9.55a2.152,2.152,0,0,0-1.488.526,4.624,4.624,0,0,0-1.166,1.9h4.168l.064-.279A2.847,2.847,0,0,0-45.053-8a1.559,1.559,0,0,0-.526-.972A1.65,1.65,0,0,0-46.643-9.335Zm11.978,3.889h-5.887l.43-2.5h5.9Zm6.177-4.888a4.051,4.051,0,0,1,3.147-1.5A2.947,2.947,0,0,1-22.8-10.6a4.878,4.878,0,0,1,.607,3.271L-23.418,0h-3.029l1.235-7.367a3.57,3.57,0,0,0,.021-.774,1.217,1.217,0,0,0-1.354-1.194,2.617,2.617,0,0,0-2.148,1.054L-30.153,0h-3.029l2.857-16.5h3.04Zm14.083-1.5a4.662,4.662,0,0,1,2.648.79,4.446,4.446,0,0,1,1.633,2.116A6.547,6.547,0,0,1-9.754-5.94a7.072,7.072,0,0,1-1.928,4.485A5.445,5.445,0,0,1-15.834.215a4.648,4.648,0,0,1-2.621-.779,4.43,4.43,0,0,1-1.633-2.1,6.4,6.4,0,0,1-.376-2.965,7.281,7.281,0,0,1,1.955-4.576A5.332,5.332,0,0,1-14.405-11.838ZM-17.467-4.53A2.682,2.682,0,0,0-16.983-2.9a1.606,1.606,0,0,0,1.3.617A2.355,2.355,0,0,0-13.492-3.57a6.389,6.389,0,0,0,.741-3.481,2.917,2.917,0,0,0-.5-1.646,1.58,1.58,0,0,0-1.305-.638A2.358,2.358,0,0,0-16.72-8.064,6.323,6.323,0,0,0-17.467-4.53ZM-2.148-3.276q.172-.859-1.192-1.246l-.978-.247q-3.47-.956-3.373-3.373a3.338,3.338,0,0,1,1.456-2.68,5.42,5.42,0,0,1,3.378-1.015A4.862,4.862,0,0,1,.322-10.8,3.433,3.433,0,0,1,1.558-8.078L-1.45-8.089A1.325,1.325,0,0,0-2.933-9.6a2.133,2.133,0,0,0-1.23.354,1.459,1.459,0,0,0-.639.956q-.161.859,1.3,1.214l.43.1a8.642,8.642,0,0,1,2.267.811A3.421,3.421,0,0,1,.4-5.038,2.8,2.8,0,0,1,.795-3.416,3.1,3.1,0,0,1,.081-1.482,4.372,4.372,0,0,1-1.789-.2a6.511,6.511,0,0,1-2.5.419A4.907,4.907,0,0,1-7.509-.9a3.584,3.584,0,0,1-1.311-2.82l2.857.021A1.571,1.571,0,0,0-4.179-2.009,2.537,2.537,0,0,0-2.8-2.353,1.358,1.358,0,0,0-2.148-3.276Zm15.5-2.5A9.6,9.6,0,0,1,12.4-2.535,5.26,5.26,0,0,1,10.581-.43,4.2,4.2,0,0,1,8.175.226,3.355,3.355,0,0,1,5.511-1.031l-1.063,5.5H1.418L4.2-11.623l2.793-.011-.2,1.171a3.711,3.711,0,0,1,2.965-1.375A3.3,3.3,0,0,1,12.407-10.6a5.393,5.393,0,0,1,1.01,3.25A12.557,12.557,0,0,1,13.353-5.779ZM10.345-6l.064-1.033a2.873,2.873,0,0,0-.381-1.657,1.369,1.369,0,0,0-1.176-.635A2.5,2.5,0,0,0,6.671-8.205l-.87,4.8a1.7,1.7,0,0,0,1.708,1.13,2.186,2.186,0,0,0,1.826-.85A5.822,5.822,0,0,0,10.345-6ZM19.83.215a5.056,5.056,0,0,1-2.7-.747,4.526,4.526,0,0,1-1.756-2.02,5.628,5.628,0,0,1-.451-2.831l.032-.43a7.514,7.514,0,0,1,.988-3.115,5.969,5.969,0,0,1,2.127-2.186,5.262,5.262,0,0,1,2.879-.725,4.021,4.021,0,0,1,3.4,1.651,5.661,5.661,0,0,1,.875,4.072l-.172,1.323H17.929a2.494,2.494,0,0,0,.548,1.8,2.091,2.091,0,0,0,1.611.7,3.717,3.717,0,0,0,2.9-1.289l1.386,1.719A4.311,4.311,0,0,1,22.483-.317,6.183,6.183,0,0,1,19.83.215Zm.967-9.55a2.152,2.152,0,0,0-1.488.526,4.624,4.624,0,0,0-1.166,1.9h4.168l.064-.279A2.847,2.847,0,0,0,22.387-8a1.559,1.559,0,0,0-.526-.972A1.65,1.65,0,0,0,20.8-9.335Zm10.925-2.514a3.308,3.308,0,0,1,2.621,1.3L35.481-16.5h3.04L35.664,0H32.957l.172-1.246A3.762,3.762,0,0,1,30.1.226a3.346,3.346,0,0,1-1.9-.569A3.585,3.585,0,0,1,26.936-1.95a6.468,6.468,0,0,1-.489-2.336A8.8,8.8,0,0,1,26.479-5.6l.064-.483a9.3,9.3,0,0,1,.994-3.137,5.178,5.178,0,0,1,1.8-2.009A4.255,4.255,0,0,1,31.722-11.849ZM29.52-5.6a8.7,8.7,0,0,0-.054,1.375q.107,1.891,1.525,1.923a2.592,2.592,0,0,0,2.224-1.2l.827-4.619a1.716,1.716,0,0,0-1.676-1.2,2.208,2.208,0,0,0-1.842.854A5.742,5.742,0,0,0,29.52-5.6ZM44.806,0a3.136,3.136,0,0,1-.118-1.053A3.937,3.937,0,0,1,41.723.215a3.567,3.567,0,0,1-2.53-.994,3.006,3.006,0,0,1-.94-2.4,3.475,3.475,0,0,1,1.6-2.917,7.241,7.241,0,0,1,4.077-1.015l1.418.021.15-.7a2.425,2.425,0,0,0,.032-.677,1.163,1.163,0,0,0-.381-.79,1.314,1.314,0,0,0-.865-.3,1.85,1.85,0,0,0-1.2.349,1.692,1.692,0,0,0-.634,1.069l-3.04.011a3.379,3.379,0,0,1,1.531-2.7,5.928,5.928,0,0,1,3.593-1.015,4.286,4.286,0,0,1,3.094,1.176,3.441,3.441,0,0,1,.935,2.917l-.892,5.564-.054.688A3.317,3.317,0,0,0,47.792-.2l-.011.2ZM42.475-2.138a2.774,2.774,0,0,0,2.288-1.139l.376-2.009L44.086-5.3a2.941,2.941,0,0,0-2.417,1.021,1.777,1.777,0,0,0-.333.87,1.031,1.031,0,0,0,.242.918A1.225,1.225,0,0,0,42.475-2.138ZM54.86-11.623,52.776.634a4.835,4.835,0,0,1-1.4,3.029,4.1,4.1,0,0,1-2.981,1.063,9.35,9.35,0,0,1-1.611-.2l.247-2.471a5.925,5.925,0,0,0,.935.14A1.643,1.643,0,0,0,49.7.645L51.81-11.623ZM52.1-14.577a1.516,1.516,0,0,1,.451-1.176,1.729,1.729,0,0,1,1.214-.489,1.729,1.729,0,0,1,1.219.44,1.523,1.523,0,0,1,.5,1.117,1.53,1.53,0,0,1-.451,1.187,1.729,1.729,0,0,1-1.214.489,1.7,1.7,0,0,1-1.187-.408A1.5,1.5,0,0,1,52.1-14.577ZM60.8.215a5.056,5.056,0,0,1-2.7-.747,4.526,4.526,0,0,1-1.756-2.02,5.628,5.628,0,0,1-.451-2.831l.032-.43a7.514,7.514,0,0,1,.988-3.115,5.969,5.969,0,0,1,2.127-2.186,5.262,5.262,0,0,1,2.879-.725,4.021,4.021,0,0,1,3.4,1.651,5.661,5.661,0,0,1,.875,4.072l-.172,1.323H58.9a2.494,2.494,0,0,0,.548,1.8,2.091,2.091,0,0,0,1.611.7,3.717,3.717,0,0,0,2.9-1.289l1.386,1.719A4.311,4.311,0,0,1,63.454-.317,6.183,6.183,0,0,1,60.8.215Zm.967-9.55a2.152,2.152,0,0,0-1.488.526,4.624,4.624,0,0,0-1.166,1.9h4.168l.064-.279A2.847,2.847,0,0,0,63.357-8a1.559,1.559,0,0,0-.526-.972A1.65,1.65,0,0,0,61.768-9.335ZM-67.617,24.684a18.154,18.154,0,0,1,2.293-6.859,9.866,9.866,0,0,1,4.463-4.216l.516,1.729q-3.674,2.8-4.651,9.013a26.641,26.641,0,0,0-.354,3.781q-.054,4.415,2.02,6.134l-.677,1.622a7.054,7.054,0,0,1-3.244-4.458,14.946,14.946,0,0,1-.548-4.555,18.041,18.041,0,0,1,.14-1.934Zm10.968-10.549,1.439.881a14.723,14.723,0,0,0-.881,1.477,6.027,6.027,0,0,0-.559,1.627l-.279,1.622h-2.406l.215-1.418A6.571,6.571,0,0,1-56.649,14.135Zm3.566,0,1.439.881a14.723,14.723,0,0,0-.881,1.477,6.027,6.027,0,0,0-.559,1.627l-.279,1.622h-2.406l.215-1.418A6.571,6.571,0,0,1-53.083,14.135ZM-49.333,31h-3.051l2.868-16.5h3.04Zm5.769,0h-3.051l2.02-11.623h3.051Zm-.677-14.577a1.513,1.513,0,0,1,.473-1.192,1.663,1.663,0,0,1,1.192-.473,1.671,1.671,0,0,1,1.192.419,1.507,1.507,0,0,1,.526,1.139,1.556,1.556,0,0,1-.446,1.16,1.671,1.671,0,0,1-1.219.516,1.7,1.7,0,0,1-1.187-.408A1.5,1.5,0,0,1-44.242,16.423ZM-40.181,31l1.622-9.356h-1.676l.4-2.267,1.676-.011.15-1.16A4.581,4.581,0,0,1-36.5,15.29a4.584,4.584,0,0,1,3.147-1.037,10.079,10.079,0,0,1,1.644.225l-.269,2.407a3.756,3.756,0,0,0-.892-.129,2.221,2.221,0,0,0-1.38.41,1.863,1.863,0,0,0-.714,1.262l-.161.949h2.245l-.4,2.267h-2.234L-37.13,31ZM-27.1,16.52l-.5,2.857h1.934l-.4,2.277H-28l-.988,5.822a1.48,1.48,0,0,0,.086.838q.15.29.73.312.172.011.924-.054l-.215,2.374a5.1,5.1,0,0,1-1.74.247,2.73,2.73,0,0,1-2.224-.935,3.377,3.377,0,0,1-.6-2.471l1-6.134h-1.644l.4-2.277h1.644l.494-2.857ZM-13.777,31a3.136,3.136,0,0,1-.118-1.053,3.937,3.937,0,0,1-2.965,1.268,3.567,3.567,0,0,1-2.53-.994,3.006,3.006,0,0,1-.94-2.4,3.475,3.475,0,0,1,1.6-2.917,7.241,7.241,0,0,1,4.077-1.015l1.418.021.15-.7a2.425,2.425,0,0,0,.032-.677,1.163,1.163,0,0,0-.381-.79,1.314,1.314,0,0,0-.865-.3,1.85,1.85,0,0,0-1.2.349,1.692,1.692,0,0,0-.634,1.069l-3.04.011a3.379,3.379,0,0,1,1.531-2.7,5.928,5.928,0,0,1,3.593-1.015,4.286,4.286,0,0,1,3.094,1.176,3.441,3.441,0,0,1,.935,2.917l-.892,5.564-.054.688a3.317,3.317,0,0,0,.183,1.289l-.011.2Zm-2.331-2.138a2.774,2.774,0,0,0,2.288-1.139l.376-2.009L-14.5,25.7a2.941,2.941,0,0,0-2.417,1.021,1.777,1.777,0,0,0-.333.87,1.031,1.031,0,0,0,.242.918A1.225,1.225,0,0,0-16.108,28.862Zm11.945-9.5-.258,1.375a4.182,4.182,0,0,1,3.384-1.579,2.788,2.788,0,0,1,2.428,1.2,4.848,4.848,0,0,1,.569,3.244L.736,31H-2.293l1.246-7.423a3.476,3.476,0,0,0,.021-.763A1.23,1.23,0,0,0-2.4,21.687a2.607,2.607,0,0,0-2.138,1.106L-5.989,31H-9.018L-7,19.377ZM15.27,27.724q.172-.859-1.192-1.246L13.1,26.23q-3.47-.956-3.373-3.373a3.338,3.338,0,0,1,1.456-2.68,5.42,5.42,0,0,1,3.378-1.015,4.862,4.862,0,0,1,3.18,1.042,3.433,3.433,0,0,1,1.235,2.718l-3.008-.011A1.325,1.325,0,0,0,14.486,21.4a2.133,2.133,0,0,0-1.23.354,1.459,1.459,0,0,0-.639.956q-.161.859,1.3,1.214l.43.1a8.642,8.642,0,0,1,2.267.811,3.421,3.421,0,0,1,1.208,1.133,2.8,2.8,0,0,1,.392,1.622,3.1,3.1,0,0,1-.714,1.934A4.372,4.372,0,0,1,15.63,30.8a6.511,6.511,0,0,1-2.5.419A4.907,4.907,0,0,1,9.91,30.1,3.584,3.584,0,0,1,8.6,27.283l2.857.021a1.571,1.571,0,0,0,1.783,1.687,2.537,2.537,0,0,0,1.38-.344A1.358,1.358,0,0,0,15.27,27.724Zm8.959-7.058a4.051,4.051,0,0,1,3.147-1.5A2.947,2.947,0,0,1,29.917,20.4a4.878,4.878,0,0,1,.607,3.271L29.3,31H26.27l1.235-7.367a3.57,3.57,0,0,0,.021-.774,1.217,1.217,0,0,0-1.354-1.194,2.617,2.617,0,0,0-2.148,1.054L22.564,31H19.535l2.857-16.5h3.04ZM34.864,31H31.813l2.02-11.623h3.051Zm-.677-14.577a1.513,1.513,0,0,1,.473-1.192,1.819,1.819,0,0,1,2.385-.054,1.507,1.507,0,0,1,.526,1.139,1.556,1.556,0,0,1-.446,1.16,1.671,1.671,0,0,1-1.219.516,1.7,1.7,0,0,1-1.187-.408A1.5,1.5,0,0,1,34.187,16.423ZM38.248,31l1.622-9.356H38.194l.4-2.267,1.676-.011.15-1.16a4.374,4.374,0,0,1,4.662-3.953,10.079,10.079,0,0,1,1.644.225l-.269,2.407a3.756,3.756,0,0,0-.892-.129,2.221,2.221,0,0,0-1.38.41,1.863,1.863,0,0,0-.714,1.262l-.161.949h2.245l-.4,2.267H42.92L41.3,31ZM51.332,16.52l-.5,2.857H52.76l-.4,2.277H50.429l-.988,5.822a1.48,1.48,0,0,0,.086.838q.15.29.73.312.172.011.924-.054l-.215,2.374a5.1,5.1,0,0,1-1.74.247A2.73,2.73,0,0,1,47,30.259a3.377,3.377,0,0,1-.6-2.471l1-6.134H45.756l.4-2.277H47.8l.494-2.857Zm4.351,3.663-1.536-.9a8.5,8.5,0,0,0,1.386-2.793l.354-1.987H58.3l-.247,1.59A6.609,6.609,0,0,1,55.682,20.183Zm3.609,0-1.536-.9a8.5,8.5,0,0,0,1.386-2.793L59.5,14.5h2.417l-.247,1.59A6.609,6.609,0,0,1,59.292,20.183ZM60.7,35.92l-.516-1.7q3.685-2.847,4.651-9.109a26.5,26.5,0,0,0,.333-3.706q.054-4.415-2-6.145l.677-1.622a6.277,6.277,0,0,1,2.175,2,9.247,9.247,0,0,1,1.343,3.174,15.952,15.952,0,0,1,.414,3.824,19.064,19.064,0,0,1-1.031,5.806,15.178,15.178,0,0,1-2.53,4.732A9.185,9.185,0,0,1,60.7,35.92Z" transform="translate(650 2309.62)" fill="#fff"/>
    <path id="Trazado_838833" data-name="Trazado 838833" d="M-34.842-5.532h-2.041V0h-3.771V-15.641H-34.5a6.87,6.87,0,0,1,4.351,1.234,4.181,4.181,0,0,1,1.568,3.488,5.078,5.078,0,0,1-.661,2.7,4.689,4.689,0,0,1-2.068,1.738l3.266,6.315V0h-4.039Zm-2.041-2.9H-34.5A2.141,2.141,0,0,0-32.882-9a2.186,2.186,0,0,0,.542-1.578,2.211,2.211,0,0,0-.548-1.588A2.121,2.121,0,0,0-34.5-12.74h-2.385ZM-20.845.215a5.975,5.975,0,0,1-4.329-1.6,5.509,5.509,0,0,1-1.654-4.152v-.3a7.138,7.138,0,0,1,.661-3.147,4.834,4.834,0,0,1,1.928-2.111,5.821,5.821,0,0,1,3.008-.747,5.031,5.031,0,0,1,3.867,1.52A5.973,5.973,0,0,1-15.947-6.08v1.407h-7.2A2.609,2.609,0,0,0-22.3-3.137a2.525,2.525,0,0,0,1.7.559,3.254,3.254,0,0,0,2.686-1.2l1.654,1.955A4.624,4.624,0,0,1-18.176-.338,6.48,6.48,0,0,1-20.845.215Zm-.408-9.26q-1.59,0-1.891,2.105h3.652v-.279a1.793,1.793,0,0,0-.44-1.348A1.753,1.753,0,0,0-21.253-9.045Zm10.979-5.468v2.89h1.912v2.514h-1.912v5.317a1.358,1.358,0,0,0,.236.913,1.268,1.268,0,0,0,.935.258,5.311,5.311,0,0,0,.9-.064V-.1a6.681,6.681,0,0,1-2.041.312A3.792,3.792,0,0,1-13-.666,3.61,3.61,0,0,1-13.9-3.341V-9.109h-1.482v-2.514H-13.9v-2.89ZM-3.121,0H-6.751V-11.623h3.631ZM-6.966-14.62a1.616,1.616,0,0,1,.559-1.268,2.108,2.108,0,0,1,1.45-.494,2.108,2.108,0,0,1,1.45.494,1.616,1.616,0,0,1,.559,1.268,1.616,1.616,0,0,1-.559,1.268,2.108,2.108,0,0,1-1.45.494,2.108,2.108,0,0,1-1.45-.494A1.616,1.616,0,0,1-6.966-14.62ZM6.139-8.347,4.947-8.433A2.142,2.142,0,0,0,2.755-7.358V0H-.865V-11.623H2.53l.118,1.493a2.8,2.8,0,0,1,2.546-1.708,3.53,3.53,0,0,1,1.01.129ZM13.669,0a4.088,4.088,0,0,1-.344-1.042A3.366,3.366,0,0,1,10.533.215,4.124,4.124,0,0,1,7.74-.779a3.163,3.163,0,0,1-1.149-2.5,3.251,3.251,0,0,1,1.4-2.857A7.114,7.114,0,0,1,12.047-7.1h1.117v-.615q0-1.608-1.386-1.608A1.133,1.133,0,0,0,10.49-8.05H6.87A3.245,3.245,0,0,1,8.3-10.786a6.027,6.027,0,0,1,3.658-1.051,5.284,5.284,0,0,1,3.513,1.085A3.772,3.772,0,0,1,16.8-7.777v5.146A5.269,5.269,0,0,0,17.29-.183V0ZM11.4-2.363a2.019,2.019,0,0,0,1.123-.29,1.818,1.818,0,0,0,.639-.655V-5.167H12.112q-1.891,0-1.891,1.7a1.036,1.036,0,0,0,.333.8A1.205,1.205,0,0,0,11.4-2.363ZM18.342-5.9a7.1,7.1,0,0,1,1.192-4.351,3.925,3.925,0,0,1,3.33-1.59,3.338,3.338,0,0,1,2.621,1.225V-16.5h3.631V0H25.862l-.183-1.246A3.428,3.428,0,0,1,22.843.215a3.918,3.918,0,0,1-3.287-1.59A7.325,7.325,0,0,1,18.342-5.9Zm3.62.226q0,3.094,1.8,3.094a1.782,1.782,0,0,0,1.719-1.01V-8.014a1.734,1.734,0,0,0-1.7-1.031q-1.676,0-1.815,2.707ZM37.721,0a4.088,4.088,0,0,1-.344-1.042A3.366,3.366,0,0,1,34.584.215a4.124,4.124,0,0,1-2.793-.994,3.163,3.163,0,0,1-1.149-2.5,3.251,3.251,0,0,1,1.4-2.857A7.114,7.114,0,0,1,36.1-7.1h1.117v-.615q0-1.608-1.386-1.608A1.133,1.133,0,0,0,34.542-8.05h-3.62a3.245,3.245,0,0,1,1.434-2.736,6.027,6.027,0,0,1,3.658-1.051,5.284,5.284,0,0,1,3.513,1.085,3.772,3.772,0,0,1,1.321,2.976v5.146a5.269,5.269,0,0,0,.494,2.449V0ZM35.455-2.363a2.019,2.019,0,0,0,1.123-.29,1.818,1.818,0,0,0,.639-.655V-5.167H36.164q-1.891,0-1.891,1.7a1.036,1.036,0,0,0,.333.8A1.205,1.205,0,0,0,35.455-2.363Z" transform="translate(950 2324.62)" fill="#fff"/>
    <g transform="matrix(1, 0, 0, 1, 180, 2203.62)" filter="url(#Trazado_838834)">
      <path id="Trazado_838834-2" data-name="Trazado 838834" d="M0,0H30V23H0Z" transform="translate(454 174)" fill="#1d9577"/>
    </g>
    <g transform="matrix(1, 0, 0, 1, 180, 2203.62)" filter="url(#Trazado_838835)">
      <path id="Trazado_838835-2" data-name="Trazado 838835" d="M0,0H30V23H0Z" transform="translate(755 174)" fill="#2b3990"/>
    </g>
    <g transform="matrix(1, 0, 0, 1, 180, 2203.62)" filter="url(#Trazado_838836)">
      <path id="Trazado_838836-2" data-name="Trazado 838836" d="M0,0H30V28H0Z" transform="translate(454 319)" fill="#3dc7a5"/>
    </g>
    <g transform="matrix(1, 0, 0, 1, 180, 2203.62)" filter="url(#Trazado_838837)">
      <path id="Trazado_838837-2" data-name="Trazado 838837" d="M0,0H30V28H0Z" transform="translate(755 319)" fill="#6875c4"/>
    </g>
    <g transform="matrix(1, 0, 0, 1, 180, 2203.62)" filter="url(#Trazado_838838)">
      <path id="Trazado_838838-2" data-name="Trazado 838838" d="M0,0H30V27H0Z" transform="translate(605 395)" fill="#2b3990"/>
    </g>
    <g transform="matrix(1, 0, 0, 1, 180, 2203.62)" filter="url(#Trazado_838839)">
      <path id="Trazado_838839-2" data-name="Trazado 838839" d="M15,0H255a15,15,0,0,1,15,15v92a15,15,0,0,1-15,15H15A15,15,0,0,1,0,107V15A15,15,0,0,1,15,0Z" transform="translate(335 197)" fill="#29b693"/>
    </g>
    <path id="Trazado_838840" data-name="Trazado 838840" d="M-65.431-5.532h-2.041V0h-3.771V-15.641h6.155a6.87,6.87,0,0,1,4.351,1.234,4.181,4.181,0,0,1,1.568,3.488,5.078,5.078,0,0,1-.661,2.7A4.689,4.689,0,0,1-61.9-6.477l3.266,6.315V0H-62.67Zm-2.041-2.9h2.385A2.141,2.141,0,0,0-63.47-9a2.186,2.186,0,0,0,.542-1.578,2.211,2.211,0,0,0-.548-1.588,2.121,2.121,0,0,0-1.611-.576h-2.385ZM-51.434.215a5.975,5.975,0,0,1-4.329-1.6,5.509,5.509,0,0,1-1.654-4.152v-.3a7.138,7.138,0,0,1,.661-3.147,4.834,4.834,0,0,1,1.928-2.111,5.821,5.821,0,0,1,3.008-.747,5.031,5.031,0,0,1,3.867,1.52A5.973,5.973,0,0,1-46.535-6.08v1.407h-7.2a2.609,2.609,0,0,0,.849,1.536,2.525,2.525,0,0,0,1.7.559,3.254,3.254,0,0,0,2.686-1.2l1.654,1.955A4.624,4.624,0,0,1-48.764-.338,6.48,6.48,0,0,1-51.434.215Zm-.408-9.26q-1.59,0-1.891,2.105h3.652v-.279a1.793,1.793,0,0,0-.44-1.348A1.753,1.753,0,0,0-51.842-9.045Zm13.836,3.7h-6.456V-8.143h6.456Zm13.61-.376A7.009,7.009,0,0,1-25.615-1.4,3.909,3.909,0,0,1-28.907.215,3.351,3.351,0,0,1-31.539-.956V4.469h-3.62V-11.623h3.384l.107,1.074a3.351,3.351,0,0,1,2.739-1.289,3.941,3.941,0,0,1,3.341,1.584A7.1,7.1,0,0,1-24.4-5.9Zm-3.62-.226q0-3.094-1.8-3.094a1.7,1.7,0,0,0-1.719.924v4.576a1.759,1.759,0,0,0,1.74.967q1.729,0,1.783-2.986ZM-18.981,0h-3.631V-16.5h3.631Zm8.776,0a4.088,4.088,0,0,1-.344-1.042A3.366,3.366,0,0,1-13.342.215a4.124,4.124,0,0,1-2.793-.994,3.163,3.163,0,0,1-1.149-2.5,3.251,3.251,0,0,1,1.4-2.857A7.114,7.114,0,0,1-11.827-7.1h1.117v-.615q0-1.608-1.386-1.608A1.133,1.133,0,0,0-13.385-8.05H-17a3.245,3.245,0,0,1,1.434-2.736,6.027,6.027,0,0,1,3.658-1.051A5.284,5.284,0,0,1-8.4-10.753,3.772,3.772,0,0,1-7.079-7.777v5.146A5.269,5.269,0,0,0-6.585-.183V0Zm-2.267-2.363a2.019,2.019,0,0,0,1.123-.29,1.818,1.818,0,0,0,.639-.655V-5.167h-1.053q-1.891,0-1.891,1.7a1.036,1.036,0,0,0,.333.8A1.205,1.205,0,0,0-12.472-2.363ZM-.859-14.513v2.89H1.053v2.514H-.859v5.317a1.358,1.358,0,0,0,.236.913,1.268,1.268,0,0,0,.935.258,5.311,5.311,0,0,0,.9-.064V-.1A6.681,6.681,0,0,1-.827.215,3.792,3.792,0,0,1-3.588-.666a3.61,3.61,0,0,1-.892-2.675V-9.109H-5.962v-2.514h1.482v-2.89ZM9.023,0A4.088,4.088,0,0,1,8.68-1.042,3.366,3.366,0,0,1,5.887.215,4.124,4.124,0,0,1,3.094-.779a3.163,3.163,0,0,1-1.149-2.5,3.251,3.251,0,0,1,1.4-2.857A7.114,7.114,0,0,1,7.4-7.1H8.519v-.615q0-1.608-1.386-1.608A1.133,1.133,0,0,0,5.844-8.05H2.224a3.245,3.245,0,0,1,1.434-2.736,6.027,6.027,0,0,1,3.658-1.051,5.284,5.284,0,0,1,3.513,1.085,3.772,3.772,0,0,1,1.321,2.976v5.146a5.269,5.269,0,0,0,.494,2.449V0ZM6.757-2.363a2.019,2.019,0,0,0,1.123-.29,1.818,1.818,0,0,0,.639-.655V-5.167H7.466q-1.891,0-1.891,1.7a1.036,1.036,0,0,0,.333.8A1.205,1.205,0,0,0,6.757-2.363ZM14.953,0V-9.109H13.267v-2.514h1.687v-.924a4.016,4.016,0,0,1,1.171-3.083,4.626,4.626,0,0,1,3.287-1.1,7.2,7.2,0,0,1,1.7.226l.011,2.664a3.307,3.307,0,0,0-.892-.1q-1.644,0-1.644,1.418v.892h2.267v2.514H18.584V0Zm6.714-5.919a6.86,6.86,0,0,1,.677-3.1,4.84,4.84,0,0,1,1.944-2.089,5.856,5.856,0,0,1,2.976-.73,5.344,5.344,0,0,1,4.114,1.617,6.2,6.2,0,0,1,1.5,4.4v.129A6.019,6.019,0,0,1,31.373-1.38a5.359,5.359,0,0,1-4.087,1.6A5.42,5.42,0,0,1,23.3-1.273a5.819,5.819,0,0,1-1.622-4.034Zm3.62.226a4.325,4.325,0,0,0,.5,2.363,1.682,1.682,0,0,0,1.493.752q1.934,0,1.977-2.976v-.365q0-3.126-2-3.126-1.815,0-1.966,2.7ZM41.508-8.347l-1.192-.086a2.142,2.142,0,0,0-2.191,1.074V0H34.5V-11.623H37.9l.118,1.493a2.8,2.8,0,0,1,2.546-1.708,3.53,3.53,0,0,1,1.01.129Zm4.727-3.276.118,1.364a4,4,0,0,1,3.319-1.579,2.942,2.942,0,0,1,2.976,1.751,3.868,3.868,0,0,1,3.416-1.751q3.534,0,3.631,4.275V0H56.063V-7.337a2.216,2.216,0,0,0-.3-1.3,1.28,1.28,0,0,0-1.1-.408,1.715,1.715,0,0,0-1.6.956l.011.15V0H49.446V-7.315a2.329,2.329,0,0,0-.29-1.321,1.277,1.277,0,0,0-1.106-.408,1.736,1.736,0,0,0-1.59.956V0H42.84V-11.623ZM68.31,0a4.087,4.087,0,0,1-.344-1.042A3.366,3.366,0,0,1,65.173.215,4.124,4.124,0,0,1,62.38-.779a3.163,3.163,0,0,1-1.149-2.5,3.251,3.251,0,0,1,1.4-2.857A7.114,7.114,0,0,1,66.688-7.1H67.8v-.615q0-1.608-1.386-1.608A1.133,1.133,0,0,0,65.13-8.05H61.51a3.245,3.245,0,0,1,1.434-2.736A6.027,6.027,0,0,1,66.6-11.838a5.284,5.284,0,0,1,3.513,1.085,3.772,3.772,0,0,1,1.321,2.976v5.146A5.269,5.269,0,0,0,71.93-.183V0ZM66.043-2.363a2.019,2.019,0,0,0,1.123-.29,1.818,1.818,0,0,0,.639-.655V-5.167H66.752q-1.891,0-1.891,1.7a1.036,1.036,0,0,0,.333.8A1.205,1.205,0,0,0,66.043-2.363Z" transform="translate(650 2470.62)" fill="#fff"/>
    <path id="Trazado_838841" data-name="Trazado 838841" d="M15,0H255a15,15,0,0,1,15,15v92a15,15,0,0,1-15,15H15A15,15,0,0,1,0,107V15A15,15,0,0,1,15,0Z" transform="translate(815 2400.62)" fill="#4553a9"/>
    <path id="Trazado_838842" data-name="Trazado 838842" d="M-43.259-5.532H-45.3V0H-49.07V-15.641h6.155a6.87,6.87,0,0,1,4.351,1.234A4.181,4.181,0,0,1-37-10.919a5.078,5.078,0,0,1-.661,2.7,4.689,4.689,0,0,1-2.068,1.738l3.266,6.315V0H-40.5Zm-2.041-2.9h2.385A2.141,2.141,0,0,0-41.3-9a2.186,2.186,0,0,0,.542-1.578,2.211,2.211,0,0,0-.548-1.588,2.121,2.121,0,0,0-1.611-.576H-45.3ZM-29.262.215a5.975,5.975,0,0,1-4.329-1.6,5.509,5.509,0,0,1-1.654-4.152v-.3a7.138,7.138,0,0,1,.661-3.147,4.834,4.834,0,0,1,1.928-2.111,5.821,5.821,0,0,1,3.008-.747,5.031,5.031,0,0,1,3.867,1.52A5.973,5.973,0,0,1-24.363-6.08v1.407h-7.2a2.609,2.609,0,0,0,.849,1.536,2.525,2.525,0,0,0,1.7.559,3.254,3.254,0,0,0,2.686-1.2l1.654,1.955A4.624,4.624,0,0,1-26.592-.338,6.48,6.48,0,0,1-29.262.215Zm-.408-9.26q-1.59,0-1.891,2.105h3.652v-.279a1.793,1.793,0,0,0-.44-1.348A1.753,1.753,0,0,0-29.67-9.045Zm10.979-5.468v2.89h1.912v2.514h-1.912v5.317a1.358,1.358,0,0,0,.236.913,1.268,1.268,0,0,0,.935.258,5.311,5.311,0,0,0,.9-.064V-.1a6.681,6.681,0,0,1-2.041.312A3.792,3.792,0,0,1-21.42-.666a3.61,3.61,0,0,1-.892-2.675V-9.109h-1.482v-2.514h1.482v-2.89ZM-9.732.215a5.975,5.975,0,0,1-4.329-1.6,5.509,5.509,0,0,1-1.654-4.152v-.3a7.138,7.138,0,0,1,.661-3.147,4.834,4.834,0,0,1,1.928-2.111,5.821,5.821,0,0,1,3.008-.747,5.031,5.031,0,0,1,3.867,1.52A5.973,5.973,0,0,1-4.834-6.08v1.407h-7.2a2.609,2.609,0,0,0,.849,1.536,2.525,2.525,0,0,0,1.7.559A3.254,3.254,0,0,0-6.8-3.781l1.654,1.955A4.624,4.624,0,0,1-7.063-.338,6.48,6.48,0,0,1-9.732.215Zm-.408-9.26q-1.59,0-1.891,2.105h3.652v-.279a1.793,1.793,0,0,0-.44-1.348A1.753,1.753,0,0,0-10.141-9.045ZM-.054-11.623l.118,1.364a3.942,3.942,0,0,1,3.319-1.579A3.316,3.316,0,0,1,6.1-10.753a5.165,5.165,0,0,1,.929,3.266V0H3.395V-7.337A1.961,1.961,0,0,0,3.04-8.631a1.64,1.64,0,0,0-1.289-.414,1.726,1.726,0,0,0-1.579.838V0h-3.62V-11.623Zm14,9.045a1.61,1.61,0,0,0,1.182-.414,1.517,1.517,0,0,0,.408-1.155h3.395a4.018,4.018,0,0,1-1.37,3.137A5.1,5.1,0,0,1,14.029.215a5.158,5.158,0,0,1-4-1.59,6.264,6.264,0,0,1-1.461-4.4v-.15a7.08,7.08,0,0,1,.65-3.11A4.732,4.732,0,0,1,11.1-11.113a5.589,5.589,0,0,1,2.9-.725,5.03,5.03,0,0,1,3.6,1.257,4.458,4.458,0,0,1,1.332,3.405H15.533a1.987,1.987,0,0,0-.44-1.386,1.52,1.52,0,0,0-1.182-.483q-1.407,0-1.644,1.794a12.659,12.659,0,0,0-.075,1.568,4.972,4.972,0,0,0,.419,2.428A1.45,1.45,0,0,0,13.943-2.578ZM24.277,0H20.646V-11.623h3.631ZM20.432-14.62a1.616,1.616,0,0,1,.559-1.268,2.108,2.108,0,0,1,1.45-.494,2.108,2.108,0,0,1,1.45.494,1.616,1.616,0,0,1,.559,1.268,1.616,1.616,0,0,1-.559,1.268,2.108,2.108,0,0,1-1.45.494,2.108,2.108,0,0,1-1.45-.494A1.616,1.616,0,0,1,20.432-14.62Zm5.618,8.7a6.86,6.86,0,0,1,.677-3.1,4.84,4.84,0,0,1,1.944-2.089,5.856,5.856,0,0,1,2.976-.73,5.344,5.344,0,0,1,4.114,1.617,6.2,6.2,0,0,1,1.5,4.4v.129A6.019,6.019,0,0,1,35.755-1.38a5.359,5.359,0,0,1-4.087,1.6,5.42,5.42,0,0,1-3.985-1.488,5.819,5.819,0,0,1-1.622-4.034Zm3.62.226a4.325,4.325,0,0,0,.5,2.363,1.682,1.682,0,0,0,1.493.752q1.934,0,1.977-2.976v-.365q0-3.126-2-3.126-1.815,0-1.966,2.7ZM32.141-16.5h3.824l-2.986,3.373-2.954-.005Zm10.044,4.877.118,1.364a3.942,3.942,0,0,1,3.319-1.579,3.316,3.316,0,0,1,2.712,1.085,5.165,5.165,0,0,1,.929,3.266V0H45.633V-7.337a1.961,1.961,0,0,0-.354-1.294,1.64,1.64,0,0,0-1.289-.414,1.726,1.726,0,0,0-1.579.838V0H38.79V-11.623Z" transform="translate(950 2470.62)" fill="#fff"/>
    <g transform="matrix(1, 0, 0, 1, 180, 2203.62)" filter="url(#Trazado_838843)">
      <path id="Trazado_838843-2" data-name="Trazado 838843" d="M15,0H255a15,15,0,0,1,15,15v92a15,15,0,0,1-15,15H15A15,15,0,0,1,0,107V15A15,15,0,0,1,15,0Z" transform="translate(335 346.51)" fill="#1d9577"/>
    </g>
    <path id="Trazado_838844" data-name="Trazado 838844" d="M-48.522-5.532h-2.041V0h-3.771V-15.641h6.155a6.87,6.87,0,0,1,4.351,1.234,4.181,4.181,0,0,1,1.568,3.488,5.078,5.078,0,0,1-.661,2.7,4.689,4.689,0,0,1-2.068,1.738l3.266,6.315V0h-4.039Zm-2.041-2.9h2.385A2.141,2.141,0,0,0-46.562-9a2.186,2.186,0,0,0,.542-1.578,2.211,2.211,0,0,0-.548-1.588,2.121,2.121,0,0,0-1.611-.576h-2.385ZM-34.525.215a5.975,5.975,0,0,1-4.329-1.6,5.509,5.509,0,0,1-1.654-4.152v-.3a7.138,7.138,0,0,1,.661-3.147,4.834,4.834,0,0,1,1.928-2.111,5.821,5.821,0,0,1,3.008-.747,5.031,5.031,0,0,1,3.867,1.52A5.973,5.973,0,0,1-29.627-6.08v1.407h-7.2a2.609,2.609,0,0,0,.849,1.536,2.525,2.525,0,0,0,1.7.559,3.254,3.254,0,0,0,2.686-1.2l1.654,1.955A4.624,4.624,0,0,1-31.856-.338,6.48,6.48,0,0,1-34.525.215Zm-.408-9.26q-1.59,0-1.891,2.105h3.652v-.279a1.793,1.793,0,0,0-.44-1.348A1.753,1.753,0,0,0-34.934-9.045ZM-21.1-5.35h-6.456V-8.143H-21.1Zm7.734,2.771a1.61,1.61,0,0,0,1.182-.414,1.517,1.517,0,0,0,.408-1.155h3.395A4.018,4.018,0,0,1-9.749-1.01,5.1,5.1,0,0,1-13.277.215a5.158,5.158,0,0,1-4-1.59,6.264,6.264,0,0,1-1.461-4.4v-.15a7.08,7.08,0,0,1,.65-3.11,4.732,4.732,0,0,1,1.875-2.073,5.589,5.589,0,0,1,2.9-.725,5.03,5.03,0,0,1,3.6,1.257A4.458,4.458,0,0,1-8.379-7.176h-3.395a1.987,1.987,0,0,0-.44-1.386A1.52,1.52,0,0,0-13.4-9.045q-1.407,0-1.644,1.794a12.659,12.659,0,0,0-.075,1.568A4.972,4.972,0,0,0-14.7-3.255,1.45,1.45,0,0,0-13.363-2.578ZM-7.3-5.919a6.86,6.86,0,0,1,.677-3.1,4.84,4.84,0,0,1,1.944-2.089,5.856,5.856,0,0,1,2.976-.73,5.344,5.344,0,0,1,4.114,1.617,6.2,6.2,0,0,1,1.5,4.4v.129A6.019,6.019,0,0,1,2.4-1.38,5.359,5.359,0,0,1-1.687.215,5.42,5.42,0,0,1-5.672-1.273,5.819,5.819,0,0,1-7.294-5.307Zm3.62.226a4.325,4.325,0,0,0,.5,2.363,1.682,1.682,0,0,0,1.493.752Q.247-2.578.29-5.554v-.365q0-3.126-2-3.126-1.815,0-1.966,2.7Zm12.611-5.93.118,1.364a4,4,0,0,1,3.319-1.579,2.942,2.942,0,0,1,2.976,1.751,3.868,3.868,0,0,1,3.416-1.751q3.534,0,3.631,4.275V0H18.756V-7.337a2.216,2.216,0,0,0-.3-1.3,1.28,1.28,0,0,0-1.1-.408,1.715,1.715,0,0,0-1.6.956l.011.15V0H12.139V-7.315a2.329,2.329,0,0,0-.29-1.321,1.277,1.277,0,0,0-1.106-.408,1.736,1.736,0,0,0-1.59.956V0H5.532V-11.623Zm26.318,5.9A7.009,7.009,0,0,1,34.026-1.4,3.909,3.909,0,0,1,30.733.215,3.351,3.351,0,0,1,28.1-.956V4.469h-3.62V-11.623h3.384l.107,1.074a3.351,3.351,0,0,1,2.739-1.289,3.941,3.941,0,0,1,3.341,1.584A7.1,7.1,0,0,1,35.245-5.9Zm-3.62-.226q0-3.094-1.8-3.094a1.7,1.7,0,0,0-1.719.924v4.576a1.759,1.759,0,0,0,1.74.967q1.729,0,1.783-2.986Zm12.246-2.4-1.192-.086a2.142,2.142,0,0,0-2.191,1.074V0h-3.62V-11.623h3.395l.118,1.493a2.8,2.8,0,0,1,2.546-1.708,3.53,3.53,0,0,1,1.01.129ZM51.4,0a4.088,4.088,0,0,1-.344-1.042A3.366,3.366,0,0,1,48.265.215a4.124,4.124,0,0,1-2.793-.994,3.163,3.163,0,0,1-1.149-2.5,3.251,3.251,0,0,1,1.4-2.857A7.114,7.114,0,0,1,49.779-7.1H50.9v-.615q0-1.608-1.386-1.608A1.133,1.133,0,0,0,48.222-8.05H44.6a3.245,3.245,0,0,1,1.434-2.736,6.027,6.027,0,0,1,3.658-1.051,5.284,5.284,0,0,1,3.513,1.085,3.772,3.772,0,0,1,1.321,2.976v5.146a5.269,5.269,0,0,0,.494,2.449V0ZM49.135-2.363a2.019,2.019,0,0,0,1.123-.29,1.818,1.818,0,0,0,.639-.655V-5.167H49.844q-1.891,0-1.891,1.7a1.036,1.036,0,0,0,.333.8A1.205,1.205,0,0,0,49.135-2.363Z" transform="translate(650 2620.62)" fill="#fff"/>
    <g transform="matrix(1, 0, 0, 1, 180, 2203.62)" filter="url(#Trazado_838845)">
      <path id="Trazado_838845-2" data-name="Trazado 838845" d="M15,0H255a15,15,0,0,1,15,15v92a15,15,0,0,1-15,15H15A15,15,0,0,1,0,107V15A15,15,0,0,1,15,0Z" transform="translate(635 347)" fill="#2b3990"/>
    </g>
    <path id="Trazado_838846" data-name="Trazado 838846" d="M-44.333-5.532h-2.041V0h-3.771V-15.641h6.155a6.87,6.87,0,0,1,4.351,1.234,4.181,4.181,0,0,1,1.568,3.488,5.078,5.078,0,0,1-.661,2.7A4.689,4.689,0,0,1-40.8-6.477l3.266,6.315V0h-4.039Zm-2.041-2.9h2.385A2.141,2.141,0,0,0-42.373-9a2.186,2.186,0,0,0,.542-1.578,2.211,2.211,0,0,0-.548-1.588,2.121,2.121,0,0,0-1.611-.576h-2.385ZM-30.336.215a5.975,5.975,0,0,1-4.329-1.6,5.509,5.509,0,0,1-1.654-4.152v-.3a7.138,7.138,0,0,1,.661-3.147,4.834,4.834,0,0,1,1.928-2.111,5.821,5.821,0,0,1,3.008-.747,5.031,5.031,0,0,1,3.867,1.52A5.973,5.973,0,0,1-25.437-6.08v1.407h-7.2a2.609,2.609,0,0,0,.849,1.536,2.525,2.525,0,0,0,1.7.559,3.254,3.254,0,0,0,2.686-1.2l1.654,1.955A4.624,4.624,0,0,1-27.667-.338,6.48,6.48,0,0,1-30.336.215Zm-.408-9.26q-1.59,0-1.891,2.105h3.652v-.279a1.793,1.793,0,0,0-.44-1.348A1.753,1.753,0,0,0-30.744-9.045Zm13.836,3.7h-6.456V-8.143h6.456Zm2.363-.548a7.1,7.1,0,0,1,1.192-4.351,3.925,3.925,0,0,1,3.33-1.59A3.338,3.338,0,0,1-7.4-10.613V-16.5h3.631V0H-7.025l-.183-1.246A3.428,3.428,0,0,1-10.044.215a3.918,3.918,0,0,1-3.287-1.59A7.325,7.325,0,0,1-14.545-5.9Zm3.62.226q0,3.094,1.8,3.094A1.782,1.782,0,0,0-7.4-3.588V-8.014A1.734,1.734,0,0,0-9.1-9.045q-1.676,0-1.815,2.707ZM2.105,0H-1.525V-11.623H2.105ZM-1.74-14.62a1.616,1.616,0,0,1,.559-1.268,2.108,2.108,0,0,1,1.45-.494,2.108,2.108,0,0,1,1.45.494,1.616,1.616,0,0,1,.559,1.268,1.616,1.616,0,0,1-.559,1.268,2.108,2.108,0,0,1-1.45.494,2.108,2.108,0,0,1-1.45-.494A1.616,1.616,0,0,1-1.74-14.62ZM10.42-3.266a.836.836,0,0,0-.483-.741A7.353,7.353,0,0,0,8.1-4.587a8.376,8.376,0,0,1-2.234-.79A3.743,3.743,0,0,1,4.522-6.563a2.834,2.834,0,0,1-.462-1.6A3.212,3.212,0,0,1,5.382-10.8a5.443,5.443,0,0,1,3.459-1.037,6.03,6.03,0,0,1,3.7,1.042,3.258,3.258,0,0,1,1.4,2.739H10.3q0-1.4-1.472-1.4a1.459,1.459,0,0,0-.956.317.981.981,0,0,0-.387.79.9.9,0,0,0,.473.784,4.466,4.466,0,0,0,1.509.494,13.042,13.042,0,0,1,1.821.462q2.621.9,2.621,3.233A3.044,3.044,0,0,1,12.5-.784a6.2,6.2,0,0,1-3.658,1A6.322,6.322,0,0,1,6.177-.322,4.455,4.455,0,0,1,4.351-1.783,3.308,3.308,0,0,1,3.7-3.728H7.079a1.4,1.4,0,0,0,.537,1.176,2.209,2.209,0,0,0,1.321.371,1.738,1.738,0,0,0,1.112-.3A.962.962,0,0,0,10.42-3.266ZM21.227.215A5.975,5.975,0,0,1,16.9-1.38a5.509,5.509,0,0,1-1.654-4.152v-.3A7.138,7.138,0,0,1,15.9-8.98a4.834,4.834,0,0,1,1.928-2.111,5.821,5.821,0,0,1,3.008-.747,5.031,5.031,0,0,1,3.867,1.52A5.973,5.973,0,0,1,26.125-6.08v1.407h-7.2a2.609,2.609,0,0,0,.849,1.536,2.525,2.525,0,0,0,1.7.559,3.254,3.254,0,0,0,2.686-1.2l1.654,1.955A4.624,4.624,0,0,1,23.9-.338,6.48,6.48,0,0,1,21.227.215Zm-.408-9.26q-1.59,0-1.891,2.105H22.58v-.279a1.793,1.793,0,0,0-.44-1.348A1.753,1.753,0,0,0,20.818-9.045Zm10.087-2.578.118,1.364a3.942,3.942,0,0,1,3.319-1.579,3.316,3.316,0,0,1,2.712,1.085,5.165,5.165,0,0,1,.929,3.266V0H34.354V-7.337A1.961,1.961,0,0,0,34-8.631a1.64,1.64,0,0,0-1.289-.414,1.726,1.726,0,0,0-1.579.838V0h-3.62V-11.623Zm6-4.791a3.132,3.132,0,0,1-.714,2.079,2.216,2.216,0,0,1-1.767.854,3.486,3.486,0,0,1-1.579-.451,3.294,3.294,0,0,0-1.407-.451.807.807,0,0,0-.585.236.982.982,0,0,0-.242.73l-2.009-.107a3.149,3.149,0,0,1,.714-2.062,2.191,2.191,0,0,1,1.756-.87,3.626,3.626,0,0,1,1.407.4,8.642,8.642,0,0,0,1.1.451,2.127,2.127,0,0,0,.489.054.82.82,0,0,0,.591-.239.986.986,0,0,0,.247-.739Zm2.621,10.5a6.86,6.86,0,0,1,.677-3.1,4.84,4.84,0,0,1,1.944-2.089,5.856,5.856,0,0,1,2.976-.73,5.344,5.344,0,0,1,4.114,1.617,6.2,6.2,0,0,1,1.5,4.4v.129A6.019,6.019,0,0,1,49.237-1.38a5.359,5.359,0,0,1-4.087,1.6,5.42,5.42,0,0,1-3.985-1.488,5.819,5.819,0,0,1-1.622-4.034Zm3.62.226a4.325,4.325,0,0,0,.5,2.363,1.682,1.682,0,0,0,1.493.752q1.934,0,1.977-2.976v-.365q0-3.126-2-3.126-1.815,0-1.966,2.7Z" transform="translate(950 2620.62)" fill="#fff"/>
  </g>
</svg>
