<svg xmlns="http://www.w3.org/2000/svg" width="611" height="280.785" viewBox="0 0 611 280.785">
  <g id="Grupo_1098912" data-name="Grupo 1098912" transform="translate(8506 7495.68)">
    <path id="Trazado_838830" data-name="Trazado 838830" d="M0,0H611V280.785H0Z" transform="translate(-8506 -7495.68)" fill="#c2e6dd" opacity="0.997"/>
    <g id="gbVqRU.tif" transform="translate(-8403.546 -7447.941)">
      <g id="Grupo_155512" data-name="Grupo 155512">
        <path id="Trazado_197441" data-name="Trazado 197441" d="M-953.461,4764.263q-15.129,0-30.259,0c-.4,0-.8.006-1.192-.026a1.721,1.721,0,0,1-1.731-1.51,1.7,1.7,0,0,1,1.507-1.607,7,7,0,0,1,1.187-.053q30.638,0,61.277,0a5.4,5.4,0,0,1,1.491.142,1.426,1.426,0,0,1,1.156,1.687,1.555,1.555,0,0,1-1.554,1.326,11.74,11.74,0,0,1-1.3.038Q-938.169,4764.264-953.461,4764.263Z" transform="translate(986.644 -4735.351)" fill="#12263f"/>
        <path id="Trazado_197442" data-name="Trazado 197442" d="M-961.784,4800.792q-11.334,0-22.669,0a7.561,7.561,0,0,1-.893-.029,1.562,1.562,0,0,1-1.3-1.6,1.677,1.677,0,0,1,1.129-1.7,3.628,3.628,0,0,1,.889-.058q22.954,0,45.907,0a2.9,2.9,0,0,1,1.117.15,1.571,1.571,0,0,1,.867,1.79,1.4,1.4,0,0,1-1.164,1.409,6.281,6.281,0,0,1-.973.04Q-950.328,4800.793-961.784,4800.792Z" transform="translate(986.644 -4761.97)" fill="#12263f"/>
        <path id="Trazado_197443" data-name="Trazado 197443" d="M-968.6,4830.835h-16.454a4.63,4.63,0,0,1-.648-.025c-.536-.077-.923-.685-.941-1.451a1.548,1.548,0,0,1,.819-1.54,2.2,2.2,0,0,1,.646-.051q16.66,0,33.322,0a1.716,1.716,0,0,1,.811.138,1.532,1.532,0,0,1,.629,1.617c-.064.744-.358,1.177-.845,1.272a3.633,3.633,0,0,1-.706.036Q-960.283,4830.836-968.6,4830.835Z" transform="translate(986.643 -4783.402)" fill="#12263f"/>
        <path id="Trazado_197444" data-name="Trazado 197444" d="M-977.107,4680.012c-.431,0-.866.035-1.294-.007a2.339,2.339,0,0,1-2.265-2.33,2.362,2.362,0,0,1,2.1-2.5,14.55,14.55,0,0,1,2.873-.034,2.4,2.4,0,0,1,2.341,2.435,2.378,2.378,0,0,1-2.455,2.449c-.429.03-.863,0-1.295,0Z" transform="translate(982.395 -4675.086)" fill="#12263f"/>
        <path id="Trazado_197445" data-name="Trazado 197445" d="M-899.206,4677.549a2.455,2.455,0,0,1-2.368,2.535,2.422,2.422,0,0,1-2.558-2.33,2.518,2.518,0,0,1,2.354-2.563A2.514,2.514,0,0,1-899.206,4677.549Z" transform="translate(927.975 -4675.159)" fill="#12263f"/>
        <path id="Trazado_197446" data-name="Trazado 197446" d="M-933.367,4677.692a2.384,2.384,0,0,1-2.482,2.419,2.473,2.473,0,0,1-2.437-2.351,2.573,2.573,0,0,1,2.442-2.532A2.485,2.485,0,0,1-933.367,4677.692Z" transform="translate(952.259 -4675.187)" fill="#12263f"/>
      </g>
    </g>
    <path id="Trazado_197444-2" data-name="Trazado 197444" d="M-977.107,4680.012c-.431,0-.866.035-1.294-.007a2.339,2.339,0,0,1-2.265-2.33,2.362,2.362,0,0,1,2.1-2.5,14.55,14.55,0,0,1,2.873-.034,2.4,2.4,0,0,1,2.341,2.435,2.378,2.378,0,0,1-2.455,2.449c-.429.03-.863,0-1.295,0Z" transform="translate(-7157.173 -12123.027)" fill="#12263f"/>
    <path id="Trazado_197445-2" data-name="Trazado 197445" d="M-899.206,4677.549a2.455,2.455,0,0,1-2.368,2.535,2.422,2.422,0,0,1-2.558-2.33,2.518,2.518,0,0,1,2.354-2.563A2.514,2.514,0,0,1-899.206,4677.549Z" transform="translate(-7211.592 -12123.1)" fill="#12263f"/>
    <path id="Trazado_197446-2" data-name="Trazado 197446" d="M-933.367,4677.692a2.384,2.384,0,0,1-2.482,2.419,2.473,2.473,0,0,1-2.437-2.351,2.573,2.573,0,0,1,2.442-2.532A2.485,2.485,0,0,1-933.367,4677.692Z" transform="translate(-7187.308 -12123.129)" fill="#12263f"/>
    <path id="Trazado_197448" data-name="Trazado 197448" d="M-784.979,4931.383h25.924l5.051-5.052-5.147-5.146h-26.02l4.718,4.718Z" transform="translate(-7560.16 -12298.016)" fill="none" stroke="#12263f" stroke-linejoin="round" stroke-width="1.5"/>
    <path id="Trazado_197449" data-name="Trazado 197449" d="M-886.574,4931.383h25.924l5.051-5.052-5.147-5.146h-26.02l4.718,4.718Z" transform="translate(-7487.921 -12298.016)" fill="none" stroke="#12263f" stroke-linejoin="round" stroke-width="1.5"/>
    <path id="Trazado_197450" data-name="Trazado 197450" d="M-988.169,4931.383h25.925l5.051-5.052-5.147-5.146h-26.02l4.718,4.718Z" transform="translate(-7415.682 -12298.016)" fill="none" stroke="#12263f" stroke-linejoin="round" stroke-width="1.5"/>
    <g id="Grupo_1074606" data-name="Grupo 1074606" transform="translate(-8846.553 -12138.986)">
      <path id="Trazado_197441-2" data-name="Trazado 197441" d="M-953.461,4764.263q-15.129,0-30.259,0c-.4,0-.8.006-1.192-.026a1.721,1.721,0,0,1-1.731-1.51,1.7,1.7,0,0,1,1.507-1.607,7,7,0,0,1,1.187-.053q30.638,0,61.277,0a5.4,5.4,0,0,1,1.491.142,1.426,1.426,0,0,1,1.156,1.687,1.555,1.555,0,0,1-1.554,1.326,11.74,11.74,0,0,1-1.3.038Q-938.169,4764.264-953.461,4764.263Z" transform="translate(1699.011 -40.379)" fill="#12263f"/>
      <path id="Trazado_197442-2" data-name="Trazado 197442" d="M-961.784,4800.792q-11.334,0-22.669,0a7.561,7.561,0,0,1-.893-.029,1.562,1.562,0,0,1-1.3-1.6,1.677,1.677,0,0,1,1.129-1.7,3.628,3.628,0,0,1,.889-.058q22.954,0,45.907,0a2.9,2.9,0,0,1,1.117.15,1.571,1.571,0,0,1,.867,1.79,1.4,1.4,0,0,1-1.164,1.409,6.281,6.281,0,0,1-.973.04Q-950.328,4800.793-961.784,4800.792Z" transform="translate(1699.011 -59.975)" fill="#12263f"/>
      <path id="Trazado_197443-2" data-name="Trazado 197443" d="M-968.6,4830.835h-16.454a4.63,4.63,0,0,1-.648-.025c-.536-.077-.923-.685-.941-1.451a1.548,1.548,0,0,1,.819-1.54,2.2,2.2,0,0,1,.646-.051q16.66,0,33.322,0a1.716,1.716,0,0,1,.811.138,1.532,1.532,0,0,1,.629,1.617c-.064.744-.358,1.177-.845,1.272a3.633,3.633,0,0,1-.706.036Q-960.283,4830.836-968.6,4830.835Z" transform="translate(1699.011 -72.366)" fill="#12263f"/>
      <path id="Trazado_821963" data-name="Trazado 821963" d="M-784.979,4931.383h25.924l5.051-5.052-5.147-5.146h-26.02l4.718,4.718Z" transform="translate(1581.538 -186.708)" fill="none" stroke="#12263f" stroke-linejoin="round" stroke-width="1.5"/>
      <path id="Trazado_821968" data-name="Trazado 821968" d="M-886.574,4931.383h25.924l5.051-5.052-5.147-5.146h-26.02l4.718,4.718Z" transform="translate(1683.132 -205.029)" fill="none" stroke="#12263f" stroke-linejoin="round" stroke-width="1.5"/>
      <path id="Trazado_821969" data-name="Trazado 821969" d="M-988.169,4931.383h25.925l5.051-5.052-5.147-5.146h-26.02l4.718,4.718Z" transform="translate(1784.728 -168.387)" fill="none" stroke="#12263f" stroke-linejoin="round" stroke-width="1.5"/>
    </g>
    <g id="Grupo_1074611" data-name="Grupo 1074611" transform="translate(-8846.553 -12134.986)">
      <path id="Trazado_197451" data-name="Trazado 197451" d="M-634.8,4913.921v12.594a31.109,31.109,0,0,0,21.078,0l-.274-12.594" transform="translate(1179.475 -157.865)" fill="none" stroke="#12263f" stroke-linejoin="round" stroke-width="2"/>
      <ellipse id="Elipse_5993" data-name="Elipse 5993" cx="10.402" cy="3.832" rx="10.402" ry="3.832" transform="translate(544.67 4752.224)" fill="none" stroke="#12263f" stroke-linejoin="round" stroke-width="2"/>
    </g>
    <g id="Grupo_1074612" data-name="Grupo 1074612" transform="translate(-8589.65 -12097.209)">
      <path id="Trazado_197451-2" data-name="Trazado 197451" d="M-634.8,4913.921v12.594a31.109,31.109,0,0,0,21.078,0l-.274-12.594" transform="translate(1179.475 -157.865)" fill="none" stroke="#12263f" stroke-linejoin="round" stroke-width="2"/>
      <ellipse id="Elipse_5993-2" data-name="Elipse 5993" cx="10.402" cy="3.832" rx="10.402" ry="3.832" transform="translate(544.67 4752.224)" fill="none" stroke="#12263f" stroke-linejoin="round" stroke-width="2"/>
    </g>
    <g id="Grupo_1074607" data-name="Grupo 1074607" transform="translate(-8846.553 -12134.986)">
      <path id="Trazado_197452" data-name="Trazado 197452" d="M-706.488,4801.779l10.585-11.315,5.475,3.285,4.38-5.11,5.11.73,7.664-8.395" transform="translate(1230.446 -63.334)" fill="none" stroke="#12263f" stroke-linejoin="round" stroke-width="3"/>
      <g id="Rectángulo_376411" data-name="Rectángulo 376411" transform="translate(518.574 4710.017)" fill="none" stroke="#12263f" stroke-width="2">
        <rect width="47" height="33" rx="4" stroke="none"/>
        <rect x="1" y="1" width="45" height="31" rx="3" fill="none"/>
      </g>
    </g>
    <g id="Grupo_1074608" data-name="Grupo 1074608" transform="translate(-8644.865 -12056.92)">
      <path id="Trazado_197452-2" data-name="Trazado 197452" d="M-706.488,4792.976l6.106-6.527,3.158,1.895,2.526-2.947,2.948.421,4.421-4.842" transform="translate(1229.039 -67.44)" fill="none" stroke="#12263f" stroke-linejoin="round" stroke-width="2"/>
      <g id="Rectángulo_376411-2" data-name="Rectángulo 376411" transform="translate(518.574 4710.017)" fill="none" stroke="#12263f" stroke-width="1.5">
        <rect width="27.112" height="19.036" rx="4" stroke="none"/>
        <rect x="0.75" y="0.75" width="25.612" height="17.536" rx="3.25" fill="none"/>
      </g>
    </g>
    <path id="Trazado_197436" data-name="Trazado 197436" d="M-10419.125-6917.625h36.843" transform="translate(1968.125 -488.861)" fill="none" stroke="#12263f" stroke-width="3"/>
    <path id="Trazado_197437" data-name="Trazado 197437" d="M0,0H43.841" transform="translate(-8340.333 -7306.498) rotate(-90)" fill="none" stroke="#12263f" stroke-width="3"/>
    <path id="Trazado_821966" data-name="Trazado 821966" d="M0,0H51.647" transform="translate(-8076.354 -7313.338) rotate(-90)" fill="none" stroke="#12263f" stroke-width="3"/>
    <path id="Trazado_197439" data-name="Trazado 197439" d="M-10419.125-6917.625h119.053" transform="translate(2150.072 -488.861)" fill="none" stroke="#12263f" stroke-width="3"/>
    <path id="Trazado_821970" data-name="Trazado 821970" d="M-10419.125-6917.625h48.23" transform="translate(2416.125 -488.861)" fill="none" stroke="#12263f" stroke-width="3"/>
    <g id="Grupo_1074613" data-name="Grupo 1074613" transform="translate(-8846.553 -12130.215)">
      <g id="Rectángulo_46384" data-name="Rectángulo 46384" transform="translate(462.388 4823.717)" fill="none" stroke="#12263f" stroke-width="2.5">
        <rect width="87.664" height="67.064" rx="5" stroke="none"/>
        <rect x="1.25" y="1.25" width="85.164" height="64.564" rx="3.75" fill="none"/>
      </g>
      <g id="Grupo_1074588" data-name="Grupo 1074588" transform="translate(474.703 4832.822)">
        <path id="Trazado_197441-3" data-name="Trazado 197441" d="M-10088.652-6500.5h64.543" transform="translate(10088.94 6500.5)" fill="none" stroke="#12263f" stroke-width="2"/>
        <path id="Trazado_197443-3" data-name="Trazado 197443" d="M-10088.652-6500.5h64.543" transform="translate(10088.94 6513.792)" fill="none" stroke="#12263f" stroke-width="2"/>
        <path id="Trazado_197445-3" data-name="Trazado 197445" d="M-10088.652-6500.5h64.543" transform="translate(10088.652 6525.928)" fill="none" stroke="#12263f" stroke-width="2"/>
        <path id="Trazado_197447" data-name="Trazado 197447" d="M-10088.652-6500.5h64.543" transform="translate(10088.652 6536.908)" fill="none" stroke="#12263f" stroke-width="2"/>
        <path id="Trazado_197449-2" data-name="Trazado 197449" d="M-10088.652-6500.5h64.543" transform="translate(10088.94 6507.146)" fill="none" stroke="#12263f" stroke-width="2"/>
        <path id="Trazado_197451-3" data-name="Trazado 197451" d="M-10088.652-6500.5h64.543" transform="translate(10088.94 6520.438)" fill="none" stroke="#12263f" stroke-width="2"/>
        <path id="Trazado_197453" data-name="Trazado 197453" d="M-10088.652-6500.5h64.543" transform="translate(10088.94 6531.418)" fill="none" stroke="#12263f" stroke-width="2"/>
      </g>
      <g id="Grupo_1074589" data-name="Grupo 1074589" transform="translate(500.703 4873.51)">
        <g id="Elipse_5993-3" data-name="Elipse 5993" fill="none" stroke="#12263f" stroke-width="1">
          <circle cx="5.941" cy="5.941" r="5.941" stroke="none"/>
          <circle cx="5.941" cy="5.941" r="5.441" fill="none"/>
        </g>
        <g id="Elipse_5995" data-name="Elipse 5995" transform="translate(3.127 3.127)" fill="#12263f" stroke="#12263f" stroke-width="1">
          <circle cx="2.814" cy="2.814" r="2.814" stroke="none"/>
          <circle cx="2.814" cy="2.814" r="2.314" fill="none"/>
        </g>
      </g>
    </g>
    <g id="Grupo_1074614" data-name="Grupo 1074614" transform="translate(-8572.117 -12122.214)">
      <g id="Rectángulo_46384-2" data-name="Rectángulo 46384" transform="translate(462.388 4823.717)" fill="none" stroke="#12263f" stroke-width="2">
        <rect width="66.749" height="51.064" rx="5" stroke="none"/>
        <rect x="1" y="1" width="64.749" height="49.064" rx="4" fill="none"/>
      </g>
      <g id="Grupo_1074588-2" data-name="Grupo 1074588" transform="translate(471.765 4830.65)">
        <path id="Trazado_197441-4" data-name="Trazado 197441" d="M-10088.652-6500.5h49.145" transform="translate(10088.872 6500.5)" fill="none" stroke="#12263f" stroke-width="2"/>
        <path id="Trazado_197443-4" data-name="Trazado 197443" d="M-10088.652-6500.5h49.145" transform="translate(10088.872 6510.621)" fill="none" stroke="#12263f" stroke-width="2"/>
        <path id="Trazado_197445-4" data-name="Trazado 197445" d="M-10088.652-6500.5h49.145" transform="translate(10088.652 6519.861)" fill="none" stroke="#12263f" stroke-width="2"/>
        <path id="Trazado_197447-2" data-name="Trazado 197447" d="M-10088.652-6500.5h49.145" transform="translate(10088.652 6528.222)" fill="none" stroke="#12263f" stroke-width="2"/>
        <path id="Trazado_197449-3" data-name="Trazado 197449" d="M-10088.652-6500.5h49.145" transform="translate(10088.872 6505.561)" fill="none" stroke="#12263f" stroke-width="2"/>
        <path id="Trazado_197451-4" data-name="Trazado 197451" d="M-10088.652-6500.5h49.145" transform="translate(10088.872 6515.681)" fill="none" stroke="#12263f" stroke-width="2"/>
        <path id="Trazado_197453-2" data-name="Trazado 197453" d="M-10088.652-6500.5h49.145" transform="translate(10088.872 6524.042)" fill="none" stroke="#12263f" stroke-width="2"/>
      </g>
      <g id="Grupo_1074589-2" data-name="Grupo 1074589" transform="translate(492.04 4862.108)">
        <g id="Elipse_5993-4" data-name="Elipse 5993" fill="none" stroke="#12263f" stroke-width="1">
          <circle cx="4.046" cy="4.046" r="4.046" stroke="none"/>
          <circle cx="4.046" cy="4.046" r="3.546" fill="none"/>
        </g>
        <g id="Elipse_5995-2" data-name="Elipse 5995" transform="translate(2.129 2.129)" fill="#12263f" stroke="#12263f" stroke-width="1">
          <circle cx="1.917" cy="1.917" r="1.917" stroke="none"/>
          <circle cx="1.917" cy="1.917" r="1.417" fill="none"/>
        </g>
      </g>
    </g>
    <path id="Trazado_838831" data-name="Trazado 838831" d="M.825,0V-9.242H4.063A4.251,4.251,0,0,1,6.614-8.6a2.2,2.2,0,0,1,.87,1.888,2.088,2.088,0,0,1-.349,1.2,2.017,2.017,0,0,1-.971.759,1.951,1.951,0,0,1,1.12.717,2.121,2.121,0,0,1,.409,1.32A2.439,2.439,0,0,1,6.843-.7,3.829,3.829,0,0,1,4.418,0Zm1.9-4.024V-1.53H4.361A1.574,1.574,0,0,0,5.411-1.85a1.1,1.1,0,0,0,.378-.885A1.161,1.161,0,0,0,4.475-4.024Zm0-1.346H4.139Q5.58-5.4,5.58-6.519a1.062,1.062,0,0,0-.365-.9A1.92,1.92,0,0,0,4.063-7.7H2.729Zm9.433,5.5A3.372,3.372,0,0,1,9.7-.8a3.294,3.294,0,0,1-.949-2.469v-.178a4.149,4.149,0,0,1,.4-1.85,2.935,2.935,0,0,1,1.133-1.257A3.18,3.18,0,0,1,11.959-7a2.85,2.85,0,0,1,2.219.889,3.611,3.611,0,0,1,.809,2.52v.749H10.613a1.7,1.7,0,0,0,.536,1.079,1.621,1.621,0,0,0,1.133.406,1.98,1.98,0,0,0,1.657-.768l.9,1.009A2.754,2.754,0,0,1,13.724-.2,3.665,3.665,0,0,1,12.162.127Zm-.209-5.643a1.146,1.146,0,0,0-.885.37,1.915,1.915,0,0,0-.435,1.058h2.552v-.147a1.366,1.366,0,0,0-.33-.947A1.183,1.183,0,0,0,11.953-5.516ZM16.529,0V-5.522H15.507V-6.868h1.022v-.584a2.371,2.371,0,0,1,.663-1.793,2.569,2.569,0,0,1,1.857-.638,4.289,4.289,0,0,1,.933.127l-.019,1.422a2.339,2.339,0,0,0-.559-.057q-1.035,0-1.035.971v.552h1.365v1.346H18.37V0ZM20.4-3.5a4.073,4.073,0,0,1,.394-1.822,2.881,2.881,0,0,1,1.133-1.238A3.306,3.306,0,0,1,23.645-7a3.127,3.127,0,0,1,2.269.851A3.414,3.414,0,0,1,26.9-3.834l.013.47a3.59,3.59,0,0,1-.882,2.536,3.067,3.067,0,0,1-2.368.955,3.082,3.082,0,0,1-2.371-.952,3.653,3.653,0,0,1-.885-2.59Zm1.834.13a2.567,2.567,0,0,0,.368,1.5,1.215,1.215,0,0,0,1.054.518A1.217,1.217,0,0,0,24.7-1.864,2.809,2.809,0,0,0,25.073-3.5,2.542,2.542,0,0,0,24.7-4.988a1.217,1.217,0,0,0-1.054-.528,1.2,1.2,0,0,0-1.041.524A2.857,2.857,0,0,0,22.236-3.367ZM31.9-5.148a4.984,4.984,0,0,0-.66-.051,1.344,1.344,0,0,0-1.365.7V0H28.038V-6.868h1.733l.051.819A1.7,1.7,0,0,1,31.351-7a1.922,1.922,0,0,1,.571.083ZM35.82.127A3.372,3.372,0,0,1,33.36-.8a3.294,3.294,0,0,1-.949-2.469v-.178a4.149,4.149,0,0,1,.4-1.85,2.935,2.935,0,0,1,1.133-1.257A3.18,3.18,0,0,1,35.617-7a2.85,2.85,0,0,1,2.219.889,3.611,3.611,0,0,1,.809,2.52v.749H34.271a1.7,1.7,0,0,0,.536,1.079,1.621,1.621,0,0,0,1.133.406A1.98,1.98,0,0,0,37.6-2.12l.9,1.009A2.754,2.754,0,0,1,37.381-.2,3.665,3.665,0,0,1,35.82.127ZM35.61-5.516a1.146,1.146,0,0,0-.885.37,1.915,1.915,0,0,0-.435,1.058h2.552v-.147a1.366,1.366,0,0,0-.33-.947A1.183,1.183,0,0,0,35.61-5.516Z" transform="translate(-8358.333 -7463.68)" fill="#12263f"/>
    <path id="Trazado_838832" data-name="Trazado 838832" d="M6.043-1.9H2.7L2.069,0H.044l3.44-9.242H5.25L8.709,0H6.684ZM3.218-3.447H5.529L4.367-6.906ZM9.953,0V-5.522H8.931V-6.868H9.953v-.584a2.371,2.371,0,0,1,.663-1.793,2.569,2.569,0,0,1,1.857-.638,4.289,4.289,0,0,1,.933.127l-.019,1.422a2.339,2.339,0,0,0-.559-.057q-1.035,0-1.035.971v.552h1.365v1.346H11.794V0Zm6.354-8.557v1.688h1.174v1.346H16.307v3.428a.818.818,0,0,0,.146.546.733.733,0,0,0,.559.165,2.925,2.925,0,0,0,.54-.044v1.39A3.777,3.777,0,0,1,16.44.127a1.752,1.752,0,0,1-1.968-1.949v-3.7h-1V-6.868h1V-8.557ZM21.665.127A3.372,3.372,0,0,1,19.2-.8a3.294,3.294,0,0,1-.949-2.469v-.178a4.149,4.149,0,0,1,.4-1.85,2.935,2.935,0,0,1,1.133-1.257A3.18,3.18,0,0,1,21.461-7a2.85,2.85,0,0,1,2.219.889,3.611,3.611,0,0,1,.809,2.52v.749H20.116a1.7,1.7,0,0,0,.536,1.079,1.621,1.621,0,0,0,1.133.406,1.98,1.98,0,0,0,1.657-.768l.9,1.009A2.754,2.754,0,0,1,23.226-.2,3.665,3.665,0,0,1,21.665.127Zm-.209-5.643a1.146,1.146,0,0,0-.885.37,1.915,1.915,0,0,0-.435,1.058h2.552v-.147a1.366,1.366,0,0,0-.33-.947A1.183,1.183,0,0,0,21.455-5.516Zm7.935.368a4.984,4.984,0,0,0-.66-.051,1.344,1.344,0,0,0-1.365.7V0H25.53V-6.868h1.733l.051.819A1.7,1.7,0,0,1,28.844-7a1.922,1.922,0,0,1,.571.083Z" transform="translate(-8095.031 -7463.68)" fill="#12263f"/>
    <path id="Trazado_838833" data-name="Trazado 838833" d="M4.247-3.383H2.729V0H.825V-9.242H4.259a3.882,3.882,0,0,1,2.526.73,2.519,2.519,0,0,1,.889,2.063,2.843,2.843,0,0,1-.409,1.577A2.792,2.792,0,0,1,6.024-3.866l2,3.777V0H5.979ZM2.729-4.926H4.266a1.573,1.573,0,0,0,1.111-.365A1.3,1.3,0,0,0,5.77-6.3,1.4,1.4,0,0,0,5.4-7.325,1.543,1.543,0,0,0,4.259-7.7H2.729ZM12.162.127A3.372,3.372,0,0,1,9.7-.8a3.294,3.294,0,0,1-.949-2.469v-.178a4.149,4.149,0,0,1,.4-1.85,2.935,2.935,0,0,1,1.133-1.257A3.18,3.18,0,0,1,11.959-7a2.85,2.85,0,0,1,2.219.889,3.611,3.611,0,0,1,.809,2.52v.749H10.613a1.7,1.7,0,0,0,.536,1.079,1.621,1.621,0,0,0,1.133.406,1.98,1.98,0,0,0,1.657-.768l.9,1.009A2.754,2.754,0,0,1,13.724-.2,3.665,3.665,0,0,1,12.162.127Zm-.209-5.643a1.146,1.146,0,0,0-.885.37,1.915,1.915,0,0,0-.435,1.058h2.552v-.147a1.366,1.366,0,0,0-.33-.947A1.183,1.183,0,0,0,11.953-5.516ZM22.21-3.371a4.119,4.119,0,0,1-.72,2.542,2.31,2.31,0,0,1-1.946.955A2.14,2.14,0,0,1,17.862-.6V2.641H16.028V-6.868h1.7l.063.673A2.156,2.156,0,0,1,19.532-7a2.326,2.326,0,0,1,1.974.939,4.231,4.231,0,0,1,.7,2.59ZM20.376-3.5a2.7,2.7,0,0,0-.34-1.479,1.106,1.106,0,0,0-.987-.521,1.2,1.2,0,0,0-1.187.66v2.812a1.222,1.222,0,0,0,1.2.679Q20.376-1.352,20.376-3.5ZM25.283,0H23.442V-9.75h1.841Zm5.491,0a2.037,2.037,0,0,1-.184-.616,2.22,2.22,0,0,1-1.733.743,2.439,2.439,0,0,1-1.673-.584,1.878,1.878,0,0,1-.663-1.473,1.941,1.941,0,0,1,.809-1.676,3.994,3.994,0,0,1,2.339-.59h.844v-.394a1.132,1.132,0,0,0-.244-.762.961.961,0,0,0-.771-.286,1.093,1.093,0,0,0-.727.222.755.755,0,0,0-.263.609H26.673a1.843,1.843,0,0,1,.368-1.1,2.434,2.434,0,0,1,1.041-.8A3.794,3.794,0,0,1,29.593-7a3,3,0,0,1,2.015.638,2.232,2.232,0,0,1,.746,1.793v2.977a3.284,3.284,0,0,0,.273,1.479V0ZM29.256-1.276a1.58,1.58,0,0,0,.749-.181,1.188,1.188,0,0,0,.508-.486V-3.123h-.686q-1.377,0-1.466.952l-.006.108A.734.734,0,0,0,28.6-1.5.937.937,0,0,0,29.256-1.276Zm6.7-7.281v1.688h1.174v1.346H35.959v3.428a.818.818,0,0,0,.146.546.733.733,0,0,0,.559.165,2.925,2.925,0,0,0,.54-.044v1.39a3.777,3.777,0,0,1-1.111.165,1.752,1.752,0,0,1-1.968-1.949v-3.7h-1V-6.868h1V-8.557ZM38.657,0V-5.522H37.635V-6.868h1.022v-.584a2.371,2.371,0,0,1,.663-1.793,2.569,2.569,0,0,1,1.857-.638,4.289,4.289,0,0,1,.933.127l-.019,1.422a2.339,2.339,0,0,0-.559-.057q-1.035,0-1.035.971v.552h1.365v1.346H40.5V0Zm3.872-3.5a4.073,4.073,0,0,1,.394-1.822,2.881,2.881,0,0,1,1.133-1.238A3.306,3.306,0,0,1,45.773-7a3.128,3.128,0,0,1,2.269.851,3.414,3.414,0,0,1,.981,2.311l.013.47a3.59,3.59,0,0,1-.882,2.536,3.067,3.067,0,0,1-2.368.955,3.082,3.082,0,0,1-2.371-.952,3.653,3.653,0,0,1-.885-2.59Zm1.834.13a2.567,2.567,0,0,0,.368,1.5,1.215,1.215,0,0,0,1.054.518,1.217,1.217,0,0,0,1.041-.512A2.809,2.809,0,0,0,47.2-3.5a2.542,2.542,0,0,0-.375-1.488,1.217,1.217,0,0,0-1.054-.528,1.2,1.2,0,0,0-1.041.524A2.857,2.857,0,0,0,44.364-3.367Zm9.661-1.781a4.984,4.984,0,0,0-.66-.051,1.344,1.344,0,0,0-1.365.7V0H50.166V-6.868H51.9l.051.819A1.7,1.7,0,0,1,53.479-7a1.922,1.922,0,0,1,.571.083Zm2.6-1.72.057.768A2.414,2.414,0,0,1,58.659-7,1.832,1.832,0,0,1,60.48-5.948,2.358,2.358,0,0,1,62.543-7a2.049,2.049,0,0,1,1.663.651,2.991,2.991,0,0,1,.546,1.958V0H62.912V-4.38a1.308,1.308,0,0,0-.229-.854,1.013,1.013,0,0,0-.806-.27,1.145,1.145,0,0,0-1.143.787L60.741,0H58.906V-4.374a1.292,1.292,0,0,0-.235-.863,1.023,1.023,0,0,0-.8-.267,1.189,1.189,0,0,0-1.13.647V0H54.907V-6.868ZM68.1,0H66.257V-6.868H68.1ZM66.149-8.646a.9.9,0,0,1,.276-.679,1.037,1.037,0,0,1,.752-.267,1.04,1.04,0,0,1,.749.267.9.9,0,0,1,.279.679.9.9,0,0,1-.282.686,1.042,1.042,0,0,1-.746.267,1.042,1.042,0,0,1-.746-.267A.9.9,0,0,1,66.149-8.646ZM71.3-6.868l.057.793A2.4,2.4,0,0,1,73.328-7a1.993,1.993,0,0,1,1.625.641A2.991,2.991,0,0,1,75.5-4.437V0H73.665V-4.393a1.19,1.19,0,0,0-.254-.847,1.137,1.137,0,0,0-.844-.263,1.262,1.262,0,0,0-1.162.66V0H69.57V-6.868Zm5.326,3.383a4.025,4.025,0,0,1,.752-2.545A2.437,2.437,0,0,1,79.4-7a2.138,2.138,0,0,1,1.758.774l.076-.647H82.9v6.64a2.935,2.935,0,0,1-.409,1.568,2.629,2.629,0,0,1-1.152,1.016A4.05,4.05,0,0,1,79.6,2.7a3.766,3.766,0,0,1-1.473-.3,2.614,2.614,0,0,1-1.085-.778L77.854.508a2.149,2.149,0,0,0,1.663.768,1.573,1.573,0,0,0,1.136-.39A1.464,1.464,0,0,0,81.06-.222V-.59A2.122,2.122,0,0,1,79.39.127a2.431,2.431,0,0,1-2-.968,4.024,4.024,0,0,1-.765-2.568Zm1.834.137a2.506,2.506,0,0,0,.375,1.465,1.191,1.191,0,0,0,1.028.531,1.274,1.274,0,0,0,1.2-.629V-4.874A1.271,1.271,0,0,0,79.873-5.5a1.2,1.2,0,0,0-1.038.54A2.825,2.825,0,0,0,78.457-3.348Z" transform="translate(-8246.836 -7385.41)" fill="#12263f"/>
    <g id="Trazado_838834" data-name="Trazado 838834" transform="translate(-8413.979 -7457.985)" fill="none">
      <path d="M11,0H136a11,11,0,0,1,11,11V99a11,11,0,0,1-11,11H11A11,11,0,0,1,0,99V11A11,11,0,0,1,11,0Z" stroke="none"/>
      <path d="M 11 3 C 6.588790893554688 3 3 6.588790893554688 3 11 L 3 99 C 3 103.4112091064453 6.588790893554688 107 11 107 L 136 107 C 140.4112091064453 107 144 103.4112091064453 144 99 L 144 11 C 144 6.588790893554688 140.4112091064453 3 136 3 L 11 3 M 11 0 L 136 0 C 142.0751190185547 0 147 4.924850463867188 147 11 L 147 99 C 147 105.0751266479492 142.0751190185547 110 136 110 L 11 110 C 4.924850463867188 110 0 105.0751266479492 0 99 L 0 11 C 0 4.924850463867188 4.924850463867188 0 11 0 Z" stroke="none" fill="#12263f"/>
    </g>
    <g id="Trazado_838835" data-name="Trazado 838835" transform="translate(-8150 -7457.985)" fill="none">
      <path d="M11,0H136a11,11,0,0,1,11,11V82a11,11,0,0,1-11,11H11A11,11,0,0,1,0,82V11A11,11,0,0,1,11,0Z" stroke="none"/>
      <path d="M 11 3 C 6.588790893554688 3 3 6.588790893554688 3 11 L 3 82 C 3 86.41120910644531 6.588790893554688 90 11 90 L 136 90 C 140.4112091064453 90 144 86.41120910644531 144 82 L 144 11 C 144 6.588790893554688 140.4112091064453 3 136 3 L 11 3 M 11 0 L 136 0 C 142.0751190185547 0 147 4.924850463867188 147 11 L 147 82 C 147 88.07512664794922 142.0751190185547 93 136 93 L 11 93 C 4.924850463867188 93 0 88.07512664794922 0 82 L 0 11 C 0 4.924850463867188 4.924850463867188 0 11 0 Z" stroke="none" fill="#12263f"/>
    </g>
    <path id="Trazado_821950" data-name="Trazado 821950" d="M4061.071-8379.466h144.3" transform="translate(-12473.494 944.015)" fill="none" stroke="#12263f" stroke-width="3"/>
    <path id="Trazado_821967" data-name="Trazado 821967" d="M4061.071-8379.466h144.3" transform="translate(-12209.516 944.015)" fill="none" stroke="#12263f" stroke-width="3"/>
    <g id="Grupo_1074609" data-name="Grupo 1074609" transform="translate(-8144.177 -7355.225)">
      <path id="Trazado_197486" data-name="Trazado 197486" d="M-1401.3,4848.06c-.667.192-1.295.432-1.938.549a6.4,6.4,0,0,1-7.25-4.814,8.821,8.821,0,0,1,1.861-8.627,7.1,7.1,0,0,1,5.085-2.583c.081-.006.162-.02.243-.031.011,0,.021-.021.038-.037-.1-.489-.233-.977-.291-1.476a6.381,6.381,0,0,1,1.51-4.977,9.271,9.271,0,0,1,4.453-2.95,11.587,11.587,0,0,1,6.727-.146,17.041,17.041,0,0,1,2.441.991.375.375,0,0,0,.536-.1,9.371,9.371,0,0,1,4.19-2.834,10.9,10.9,0,0,1,5.871-.295,12.452,12.452,0,0,1,5.468,2.755.633.633,0,0,0,.543.116,15.371,15.371,0,0,1,5.383-1.022,7.25,7.25,0,0,1,4.43,1.4,5.9,5.9,0,0,1,2.22,4.777c.005.189,0,.378,0,.607.547-.086,1.052-.2,1.562-.24,2.039-.151,3.524,1.326,3.476,3.672-.012.6-.062,1.2-.094,1.786.649.138,1.319.224,1.961.428a6.554,6.554,0,0,1,4.523,4.535,7.191,7.191,0,0,1-.319,5.093,9.069,9.069,0,0,1-5.727,5.211,8.336,8.336,0,0,1-3.874.3c-.324-.048-.439.07-.537.444a6.768,6.768,0,0,1-4.216,4.862,9.893,9.893,0,0,1-6.292.247,15.537,15.537,0,0,1-4.643-2.155.522.522,0,0,0-.5.022,13.4,13.4,0,0,1-11.059,2.209,9.193,9.193,0,0,1-5.5-3.492c-.144-.19-.256-.218-.455-.094a6.483,6.483,0,0,1-3.965,1.029,6.568,6.568,0,0,1-5.711-4.8C-1401.2,4848.294-1401.251,4848.183-1401.3,4848.06Zm6.85-25.12a10.427,10.427,0,0,0-5.305,1.616,7.679,7.679,0,0,0-3,3.333,5.513,5.513,0,0,0-.286,4c.233.762.1,1-.571,1.083-.164.019-.326.055-.489.083-2.948.5-5.005,2.35-6.053,5.618a7.7,7.7,0,0,0,1.862,8.031,5.7,5.7,0,0,0,6.312,1.147c.782-.3.9-.234,1.214.641a6.3,6.3,0,0,0,5.58,4.344,6.548,6.548,0,0,0,3.455-.936.665.665,0,0,1,1.032.183,8.019,8.019,0,0,0,2.824,2.371,11.679,11.679,0,0,0,6.844,1.195,13.623,13.623,0,0,0,6.445-2.448.96.96,0,0,1,.844.035c.532.249,1.02.627,1.544.9a11.229,11.229,0,0,0,7.5,1.377,6.655,6.655,0,0,0,5.654-5.3c.12-.469.415-.492.75-.467a13.144,13.144,0,0,0,1.521.083,8.556,8.556,0,0,0,7.483-4.7,6.811,6.811,0,0,0-1.124-8.291,7.217,7.217,0,0,0-4.1-1.814c-.584-.075-.687-.275-.626-.939a11.011,11.011,0,0,0,.045-1.917,2.692,2.692,0,0,0-2.13-2.563,7.194,7.194,0,0,0-1.96.069c-.742.112-.9.011-.914-.85,0-.128,0-.259-.009-.385a5.5,5.5,0,0,0-2.064-4.127,6.781,6.781,0,0,0-4.069-1.346,12.7,12.7,0,0,0-5.067.9,1.315,1.315,0,0,1-1.628-.362,2.787,2.787,0,0,0-.476-.379,11.455,11.455,0,0,0-5.161-2.136,9.747,9.747,0,0,0-9.014,3.1.745.745,0,0,1-1.013.183A11.816,11.816,0,0,0-1394.453,4822.94Z" transform="translate(1410.911 -4820.458)" fill="#12263f" stroke="#12263f" stroke-width="1.8"/>
    </g>
    <g id="Grupo_1074610" data-name="Grupo 1074610" transform="translate(-8065.883 -7355.225)">
      <path id="Trazado_197486-2" data-name="Trazado 197486" d="M-1401.3,4848.06c-.667.192-1.295.432-1.938.549a6.4,6.4,0,0,1-7.25-4.814,8.821,8.821,0,0,1,1.861-8.627,7.1,7.1,0,0,1,5.085-2.583c.081-.006.162-.02.243-.031.011,0,.021-.021.038-.037-.1-.489-.233-.977-.291-1.476a6.381,6.381,0,0,1,1.51-4.977,9.271,9.271,0,0,1,4.453-2.95,11.587,11.587,0,0,1,6.727-.146,17.041,17.041,0,0,1,2.441.991.375.375,0,0,0,.536-.1,9.371,9.371,0,0,1,4.19-2.834,10.9,10.9,0,0,1,5.871-.295,12.452,12.452,0,0,1,5.468,2.755.633.633,0,0,0,.543.116,15.371,15.371,0,0,1,5.383-1.022,7.25,7.25,0,0,1,4.43,1.4,5.9,5.9,0,0,1,2.22,4.777c.005.189,0,.378,0,.607.547-.086,1.052-.2,1.562-.24,2.039-.151,3.524,1.326,3.476,3.672-.012.6-.062,1.2-.094,1.786.649.138,1.319.224,1.961.428a6.554,6.554,0,0,1,4.523,4.535,7.191,7.191,0,0,1-.319,5.093,9.069,9.069,0,0,1-5.727,5.211,8.336,8.336,0,0,1-3.874.3c-.324-.048-.439.07-.537.444a6.768,6.768,0,0,1-4.216,4.862,9.893,9.893,0,0,1-6.292.247,15.537,15.537,0,0,1-4.643-2.155.522.522,0,0,0-.5.022,13.4,13.4,0,0,1-11.059,2.209,9.193,9.193,0,0,1-5.5-3.492c-.144-.19-.256-.218-.455-.094a6.483,6.483,0,0,1-3.965,1.029,6.568,6.568,0,0,1-5.711-4.8C-1401.2,4848.294-1401.251,4848.183-1401.3,4848.06Zm6.85-25.12a10.427,10.427,0,0,0-5.305,1.616,7.679,7.679,0,0,0-3,3.333,5.513,5.513,0,0,0-.286,4c.233.762.1,1-.571,1.083-.164.019-.326.055-.489.083-2.948.5-5.005,2.35-6.053,5.618a7.7,7.7,0,0,0,1.862,8.031,5.7,5.7,0,0,0,6.312,1.147c.782-.3.9-.234,1.214.641a6.3,6.3,0,0,0,5.58,4.344,6.548,6.548,0,0,0,3.455-.936.665.665,0,0,1,1.032.183,8.019,8.019,0,0,0,2.824,2.371,11.679,11.679,0,0,0,6.844,1.195,13.623,13.623,0,0,0,6.445-2.448.96.96,0,0,1,.844.035c.532.249,1.02.627,1.544.9a11.229,11.229,0,0,0,7.5,1.377,6.655,6.655,0,0,0,5.654-5.3c.12-.469.415-.492.75-.467a13.144,13.144,0,0,0,1.521.083,8.556,8.556,0,0,0,7.483-4.7,6.811,6.811,0,0,0-1.124-8.291,7.217,7.217,0,0,0-4.1-1.814c-.584-.075-.687-.275-.626-.939a11.011,11.011,0,0,0,.045-1.917,2.692,2.692,0,0,0-2.13-2.563,7.194,7.194,0,0,0-1.96.069c-.742.112-.9.011-.914-.85,0-.128,0-.259-.009-.385a5.5,5.5,0,0,0-2.064-4.127,6.781,6.781,0,0,0-4.069-1.346,12.7,12.7,0,0,0-5.067.9,1.315,1.315,0,0,1-1.628-.362,2.787,2.787,0,0,0-.476-.379,11.455,11.455,0,0,0-5.161-2.136,9.747,9.747,0,0,0-9.014,3.1.745.745,0,0,1-1.013.183A11.816,11.816,0,0,0-1394.453,4822.94Z" transform="translate(1410.911 -4820.458)" fill="#12263f" stroke="#12263f" stroke-width="1.8"/>
    </g>
    <g id="Grupo_1074615" data-name="Grupo 1074615" transform="translate(-8147.311 -7313.338)">
      <path id="Trazado_197486-3" data-name="Trazado 197486" d="M-1389.167,4882.924c-1.51.435-2.93.979-4.387,1.243-6.951,1.249-14.024-2.825-16.408-10.9-2.212-7.489-.453-14.007,4.212-19.525a16.069,16.069,0,0,1,11.508-5.847c.183-.013.367-.044.55-.07.026-.006.047-.048.087-.083-.223-1.107-.527-2.211-.657-3.34a14.441,14.441,0,0,1,3.417-11.264,20.987,20.987,0,0,1,10.079-6.676,26.227,26.227,0,0,1,15.224-.331,38.522,38.522,0,0,1,5.525,2.242.848.848,0,0,0,1.212-.233,21.208,21.208,0,0,1,9.484-6.414,24.666,24.666,0,0,1,13.288-.668,28.191,28.191,0,0,1,12.374,6.237,1.432,1.432,0,0,0,1.229.261,34.821,34.821,0,0,1,12.183-2.312,16.408,16.408,0,0,1,10.026,3.165c3.317,2.555,4.89,6.229,5.025,10.811.012.429,0,.857,0,1.375,1.237-.194,2.382-.456,3.535-.542,4.614-.342,7.975,3,7.868,8.31-.027,1.361-.141,2.721-.212,4.041,1.47.312,2.986.508,4.438.969a14.833,14.833,0,0,1,10.237,10.263,16.274,16.274,0,0,1-.722,11.525,20.525,20.525,0,0,1-12.962,11.794,18.88,18.88,0,0,1-8.767.67c-.733-.108-.995.16-1.214,1a15.317,15.317,0,0,1-9.541,11,22.385,22.385,0,0,1-14.24.559,35.174,35.174,0,0,1-10.508-4.878,1.179,1.179,0,0,0-1.141.051,30.317,30.317,0,0,1-25.027,5,20.809,20.809,0,0,1-12.455-7.9c-.325-.431-.579-.493-1.031-.212a14.671,14.671,0,0,1-8.974,2.33c-5.566-.426-10.829-4.223-12.924-10.854C-1388.923,4883.454-1389.05,4883.2-1389.167,4882.924Zm15.5-56.85a23.6,23.6,0,0,0-12.007,3.657,17.384,17.384,0,0,0-6.8,7.544,12.476,12.476,0,0,0-.648,9.06c.528,1.725.218,2.272-1.293,2.453-.371.041-.738.125-1.107.186-6.671,1.143-11.328,5.319-13.7,12.714-2.151,6.716-.487,13.863,4.213,18.174,4.31,3.951,9.146,4.553,14.284,2.6,1.77-.671,2.031-.531,2.747,1.45,2.084,5.773,7.262,9.786,12.627,9.83a14.811,14.811,0,0,0,7.82-2.119,1.505,1.505,0,0,1,2.337.415,18.142,18.142,0,0,0,6.391,5.365,26.435,26.435,0,0,0,15.488,2.7,30.828,30.828,0,0,0,14.586-5.542,2.173,2.173,0,0,1,1.91.079c1.2.563,2.308,1.419,3.494,2.047,5.405,2.875,11.043,4.236,16.968,3.116,6.171-1.167,10.9-4.563,12.8-12,.271-1.061.939-1.112,1.7-1.058a29.727,29.727,0,0,0,3.442.189c7.118-.322,12.962-3.539,16.935-10.635,3.379-6.027,2.652-14.006-2.543-18.763a16.329,16.329,0,0,0-9.29-4.106c-1.322-.17-1.556-.624-1.416-2.126a24.9,24.9,0,0,0,.1-4.339c-.246-2.991-2.283-5.489-4.821-5.8a16.272,16.272,0,0,0-4.436.156c-1.678.253-2.04.024-2.068-1.923,0-.291,0-.586-.02-.871a12.444,12.444,0,0,0-4.671-9.341,15.353,15.353,0,0,0-9.209-3.045,28.758,28.758,0,0,0-11.468,2.029,2.977,2.977,0,0,1-3.685-.819,6.315,6.315,0,0,0-1.077-.858,25.94,25.94,0,0,0-11.681-4.834c-7.643-1.02-14.6.729-20.4,7.013a1.686,1.686,0,0,1-2.292.415A26.737,26.737,0,0,0-1373.664,4826.074Z" transform="translate(1410.911 -4820.458)" fill="#12263f" stroke="#12263f" stroke-width="1.8"/>
    </g>
    <path id="Trazado_838836" data-name="Trazado 838836" d="M9.694,0l9.694,16.261H0Z" transform="translate(-7949.826 -7416.181) rotate(90)" fill="#12263f"/>
  </g>
</svg>
