<svg xmlns="http://www.w3.org/2000/svg" width="67.27" height="67.27" viewBox="0 0 67.27 67.27">
  <g id="Grupo_1098594" data-name="Grupo 1098594" transform="translate(-210.738 -1661.583)">
    <g id="Grupo_1098306" data-name="Grupo 1098306" transform="translate(-99.262 -4077.417)">
      <path id="Trazado_769901" data-name="Trazado 769901" d="M33.635,0A33.635,33.635,0,1,1,0,33.635,33.635,33.635,0,0,1,33.635,0Z" transform="translate(310 5739)" fill="#5793ce"/>
    </g>
    <g id="dominio" transform="translate(214.477 1669.951)">
      <path id="Trazado_813318" data-name="Trazado 813318" d="M25.267,0A25.267,25.267,0,1,1,0,25.267,25.267,25.267,0,0,1,25.267,0Z" transform="translate(4.629)" fill="#8296e1"/>
      <path id="Trazado_813307" data-name="Trazado 813307" d="M108.952,160.479a25.266,25.266,0,0,0,37.621-33.568" transform="translate(-96.747 -117.174)" fill="none" stroke="#000" stroke-linecap="round" stroke-linejoin="round" stroke-miterlimit="10" stroke-width="1.5"/>
      <path id="Trazado_813308" data-name="Trazado 813308" d="M88.835,53.109A25.265,25.265,0,0,0,51.213,86.642" transform="translate(-41.35 -45.979)" fill="none" stroke="#000" stroke-linecap="round" stroke-linejoin="round" stroke-miterlimit="10" stroke-width="1.5"/>
      <ellipse id="Elipse_9018" data-name="Elipse 9018" cx="25.267" cy="11.903" rx="25.267" ry="11.903" transform="translate(4.629 13.363)" fill="#6380dc"/>
      <ellipse id="Elipse_9019" data-name="Elipse 9019" cx="25.267" cy="11.903" rx="25.267" ry="11.903" transform="translate(4.629 13.363)" fill="none" stroke="#000" stroke-linecap="round" stroke-linejoin="round" stroke-miterlimit="10" stroke-width="1.5"/>
      <ellipse id="Elipse_9020" data-name="Elipse 9020" cx="13.163" cy="25.267" rx="13.163" ry="25.267" transform="translate(16.733)" fill="none" stroke="#000" stroke-linecap="round" stroke-linejoin="round" stroke-miterlimit="10" stroke-width="1.5"/>
      <path id="Trazado_813309" data-name="Trazado 813309" d="M66.24,213.963H8.552A1.052,1.052,0,0,1,7.5,212.911V201.695a1.052,1.052,0,0,1,1.052-1.052H66.24a1.052,1.052,0,0,1,1.052,1.052v11.216A1.052,1.052,0,0,1,66.24,213.963Z" transform="translate(-7.5 -182.036)" fill="#fbf7f7"/>
      <path id="Trazado_813310" data-name="Trazado 813310" d="M471.564,200.642h-3.308a1.052,1.052,0,0,1,1.052,1.052V212.91a1.052,1.052,0,0,1-1.052,1.052h3.308a1.052,1.052,0,0,0,1.052-1.052V201.694A1.052,1.052,0,0,0,471.564,200.642Z" transform="translate(-412.825 -182.035)" fill="#f0eef0"/>
      <g id="Grupo_1067435" data-name="Grupo 1067435" transform="translate(13.213 22.07)">
        <g id="Grupo_1067432" data-name="Grupo 1067432" transform="translate(0)">
          <path id="Trazado_813311" data-name="Trazado 813311" d="M117.333,229.427l1.246,6.3a.144.144,0,0,0,.273,0l1.945-6.284" transform="translate(-117.333 -229.427)" fill="none" stroke="#000" stroke-linecap="round" stroke-linejoin="round" stroke-miterlimit="10" stroke-width="1.5"/>
          <path id="Trazado_813312" data-name="Trazado 813312" d="M146.122,229.427l1.94,6.3a.144.144,0,0,0,.273,0l1.251-6.284" transform="translate(-142.659 -229.427)" fill="none" stroke="#000" stroke-linecap="round" stroke-linejoin="round" stroke-miterlimit="10" stroke-width="1.5"/>
        </g>
        <g id="Grupo_1067433" data-name="Grupo 1067433" transform="translate(13.219)">
          <path id="Trazado_813313" data-name="Trazado 813313" d="M227.211,229.427l1.246,6.3a.144.144,0,0,0,.273,0l1.945-6.284" transform="translate(-227.211 -229.427)" fill="none" stroke="#000" stroke-linecap="round" stroke-linejoin="round" stroke-miterlimit="10" stroke-width="1.5"/>
          <path id="Trazado_813314" data-name="Trazado 813314" d="M256,229.427l1.94,6.3a.144.144,0,0,0,.273,0l1.251-6.284" transform="translate(-252.537 -229.427)" fill="none" stroke="#000" stroke-linecap="round" stroke-linejoin="round" stroke-miterlimit="10" stroke-width="1.5"/>
        </g>
        <g id="Grupo_1067434" data-name="Grupo 1067434" transform="translate(26.438)">
          <path id="Trazado_813315" data-name="Trazado 813315" d="M337.09,229.427l1.246,6.3a.144.144,0,0,0,.273,0l1.945-6.284" transform="translate(-337.09 -229.427)" fill="none" stroke="#000" stroke-linecap="round" stroke-linejoin="round" stroke-miterlimit="10" stroke-width="1.5"/>
          <path id="Trazado_813316" data-name="Trazado 813316" d="M365.878,229.427l1.94,6.3a.144.144,0,0,0,.273,0l1.251-6.284" transform="translate(-362.415 -229.427)" fill="none" stroke="#000" stroke-linecap="round" stroke-linejoin="round" stroke-miterlimit="10" stroke-width="1.5"/>
        </g>
      </g>
      <path id="Trazado_813317" data-name="Trazado 813317" d="M38.218,213.963H66.24a1.052,1.052,0,0,0,1.052-1.052V201.695a1.052,1.052,0,0,0-1.052-1.052H8.552A1.052,1.052,0,0,0,7.5,201.695v11.216a1.052,1.052,0,0,0,1.052,1.052H34.729" transform="translate(-7.5 -182.036)" fill="none" stroke="#000" stroke-linecap="round" stroke-linejoin="round" stroke-miterlimit="10" stroke-width="1.5"/>
    </g>
  </g>
</svg>
