<svg xmlns="http://www.w3.org/2000/svg" width="1240" height="266" viewBox="0 0 1240 266">
  <g id="Grupo_1098916" data-name="Grupo 1098916" transform="translate(-180 -721)">
    <path id="Trazado_838867" data-name="Trazado 838867" d="M0,0H1240V266H0Z" transform="translate(180 721)" fill="#e6eff8"/>
    <g id="Trazado_838868" data-name="Trazado 838868" transform="translate(239 763)" fill="#fff">
      <path d="M 175 181.40625 L 10 181.40625 C 4.761690616607666 181.40625 0.5 177.1445465087891 0.5 171.90625 L 0.5 10.0000057220459 C 0.5 4.761696338653564 4.761690616607666 0.5000059604644775 10 0.5000059604644775 L 175 0.5000059604644775 C 180.2383117675781 0.5000059604644775 184.5 4.761696338653564 184.5 10.0000057220459 L 184.5 171.90625 C 184.5 177.1445465087891 180.2383117675781 181.40625 175 181.40625 Z" stroke="none"/>
      <path d="M 10 1 C 5.037384033203125 1 1 5.037384033203125 1 10 L 1 171.90625 C 1 176.8688659667969 5.037384033203125 180.90625 10 180.90625 L 175 180.90625 C 179.9626159667969 180.90625 184 176.8688659667969 184 171.90625 L 184 10 C 184 5.037384033203125 179.9626159667969 1 175 1 L 10 1 M 10 0 L 175 0 C 180.5228271484375 0 185 4.477142333984375 185 10 L 185 171.90625 C 185 177.4291076660156 180.5228271484375 181.90625 175 181.90625 L 10 181.90625 C 4.477142333984375 181.90625 0 177.4291076660156 0 171.90625 L 0 10 C 0 4.477142333984375 4.477142333984375 0 10 0 Z" stroke="none" fill="#5793ce"/>
    </g>
    <g id="Trazado_838869" data-name="Trazado 838869" transform="translate(469 763)" fill="#fff">
      <path d="M 180 181.40625 L 10 181.40625 C 4.761690616607666 181.40625 0.5 177.1445465087891 0.5 171.90625 L 0.5 10.0000057220459 C 0.5 4.761696338653564 4.761690616607666 0.5000059604644775 10 0.5000059604644775 L 180 0.5000059604644775 C 185.2383117675781 0.5000059604644775 189.5 4.761696338653564 189.5 10.0000057220459 L 189.5 171.90625 C 189.5 177.1445465087891 185.2383117675781 181.40625 180 181.40625 Z" stroke="none"/>
      <path d="M 10 1 C 5.037368774414062 1 1 5.037368774414062 1 10 L 1 171.90625 C 1 176.8688812255859 5.037368774414062 180.90625 10 180.90625 L 180 180.90625 C 184.9626312255859 180.90625 189 176.8688812255859 189 171.90625 L 189 10 C 189 5.037368774414062 184.9626312255859 1 180 1 L 10 1 M 10 0 L 180 0 C 185.5228576660156 0 190 4.477157592773438 190 10 L 190 171.90625 C 190 177.4291076660156 185.5228576660156 181.90625 180 181.90625 L 10 181.90625 C 4.477157592773438 181.90625 0 177.4291076660156 0 171.90625 L 0 10 C 0 4.477157592773438 4.477157592773438 0 10 0 Z" stroke="none" fill="#5793ce"/>
    </g>
    <g id="Trazado_838870" data-name="Trazado 838870" transform="translate(702 763)" fill="#fff">
      <path d="M 180 181.40625 L 10 181.40625 C 4.761690616607666 181.40625 0.5 177.1445465087891 0.5 171.90625 L 0.5 10.0000057220459 C 0.5 4.761696338653564 4.761690616607666 0.5000059604644775 10 0.5000059604644775 L 180 0.5000059604644775 C 185.2383117675781 0.5000059604644775 189.5 4.761696338653564 189.5 10.0000057220459 L 189.5 171.90625 C 189.5 177.1445465087891 185.2383117675781 181.40625 180 181.40625 Z" stroke="none"/>
      <path d="M 10 1 C 5.037368774414062 1 1 5.037368774414062 1 10 L 1 171.90625 C 1 176.8688812255859 5.037368774414062 180.90625 10 180.90625 L 180 180.90625 C 184.9626312255859 180.90625 189 176.8688812255859 189 171.90625 L 189 10 C 189 5.037368774414062 184.9626312255859 1 180 1 L 10 1 M 10 0 L 180 0 C 185.5228576660156 0 190 4.477157592773438 190 10 L 190 171.90625 C 190 177.4291076660156 185.5228576660156 181.90625 180 181.90625 L 10 181.90625 C 4.477157592773438 181.90625 0 177.4291076660156 0 171.90625 L 0 10 C 0 4.477157592773438 4.477157592773438 0 10 0 Z" stroke="none" fill="#5793ce"/>
    </g>
    <g id="Trazado_838871" data-name="Trazado 838871" transform="translate(1171.469 763)" fill="#fff">
      <path d="M 180 181.40625 L 10 181.40625 C 4.761690616607666 181.40625 0.5 177.1445465087891 0.5 171.90625 L 0.5 10.0000057220459 C 0.5 4.761696338653564 4.761690616607666 0.5000059604644775 10 0.5000059604644775 L 180 0.5000059604644775 C 185.2383117675781 0.5000059604644775 189.5 4.761696338653564 189.5 10.0000057220459 L 189.5 171.90625 C 189.5 177.1445465087891 185.2383117675781 181.40625 180 181.40625 Z" stroke="none"/>
      <path d="M 10 1 C 5.037368774414062 1 1 5.037368774414062 1 10 L 1 171.90625 C 1 176.8688812255859 5.037368774414062 180.90625 10 180.90625 L 180 180.90625 C 184.9626312255859 180.90625 189 176.8688812255859 189 171.90625 L 189 10 C 189 5.037368774414062 184.9626312255859 1 180 1 L 10 1 M 10 0 L 180 0 C 185.5228576660156 0 190 4.477157592773438 190 10 L 190 171.90625 C 190 177.4291076660156 185.5228576660156 181.90625 180 181.90625 L 10 181.90625 C 4.477157592773438 181.90625 0 177.4291076660156 0 171.90625 L 0 10 C 0 4.477157592773438 4.477157592773438 0 10 0 Z" stroke="none" fill="#5793ce"/>
    </g>
    <g id="Trazado_838872" data-name="Trazado 838872" transform="translate(937.734 763)" fill="#fff">
      <path d="M 180 181.40625 L 10 181.40625 C 4.761690616607666 181.40625 0.5 177.1445465087891 0.5 171.90625 L 0.5 10.0000057220459 C 0.5 4.761696338653564 4.761690616607666 0.5000059604644775 10 0.5000059604644775 L 180 0.5000059604644775 C 185.2383117675781 0.5000059604644775 189.5 4.761696338653564 189.5 10.0000057220459 L 189.5 171.90625 C 189.5 177.1445465087891 185.2383117675781 181.40625 180 181.40625 Z" stroke="none"/>
      <path d="M 10 1 C 5.037368774414062 1 1 5.037368774414062 1 10 L 1 171.90625 C 1 176.8688812255859 5.037368774414062 180.90625 10 180.90625 L 180 180.90625 C 184.9626312255859 180.90625 189 176.8688812255859 189 171.90625 L 189 10 C 189 5.037368774414062 184.9626312255859 1 180 1 L 10 1 M 10 0 L 180 0 C 185.5228576660156 0 190 4.477157592773438 190 10 L 190 171.90625 C 190 177.4291076660156 185.5228576660156 181.90625 180 181.90625 L 10 181.90625 C 4.477157592773438 181.90625 0 177.4291076660156 0 171.90625 L 0 10 C 0 4.477157592773438 4.477157592773438 0 10 0 Z" stroke="none" fill="#5793ce"/>
    </g>
    <path id="Trazado_838873" data-name="Trazado 838873" d="M23.548,9.481H19.256V14H17.4V3.336h6.775V4.83H19.256V8h4.292ZM29.957,14a2.747,2.747,0,0,1-.205-.74,2.994,2.994,0,0,1-4.028.205,2.179,2.179,0,0,1-.754-1.685,2.25,2.25,0,0,1,.941-1.945A4.561,4.561,0,0,1,28.6,9.159h1.091v-.52a1.388,1.388,0,0,0-.344-.985,1.365,1.365,0,0,0-1.047-.37,1.568,1.568,0,0,0-1,.3.941.941,0,0,0-.388.773h-1.78a1.975,1.975,0,0,1,.432-1.219,2.879,2.879,0,0,1,1.176-.89A4.129,4.129,0,0,1,28.4,5.929a3.325,3.325,0,0,1,2.219.7,2.494,2.494,0,0,1,.85,1.967v3.574a4.051,4.051,0,0,0,.3,1.707V14ZM28,12.718a2.025,2.025,0,0,0,.992-.256,1.713,1.713,0,0,0,.7-.688V10.279h-.959a2.624,2.624,0,0,0-1.487.344,1.115,1.115,0,0,0-.5.974,1.04,1.04,0,0,0,.341.817A1.319,1.319,0,0,0,28,12.718Zm9.778-.872a.807.807,0,0,0-.392-.725,4.167,4.167,0,0,0-1.3-.439,6.683,6.683,0,0,1-1.516-.483,2.023,2.023,0,0,1-1.333-1.868A2.109,2.109,0,0,1,34.1,6.617a3.417,3.417,0,0,1,2.2-.688,3.555,3.555,0,0,1,2.3.7,2.231,2.231,0,0,1,.875,1.824h-1.78a1.1,1.1,0,0,0-.381-.853A1.46,1.46,0,0,0,36.3,7.262a1.577,1.577,0,0,0-.956.271.854.854,0,0,0-.37.725.721.721,0,0,0,.344.637,4.734,4.734,0,0,0,1.392.458,6.587,6.587,0,0,1,1.644.549,2.328,2.328,0,0,1,.886.765,1.952,1.952,0,0,1,.289,1.084,2.065,2.065,0,0,1-.886,1.732,3.779,3.779,0,0,1-2.322.663,4.1,4.1,0,0,1-1.736-.352,2.857,2.857,0,0,1-1.187-.967,2.288,2.288,0,0,1-.425-1.326H34.7a1.254,1.254,0,0,0,.476.97,1.85,1.85,0,0,0,1.165.341,1.8,1.8,0,0,0,1.069-.267A.827.827,0,0,0,37.779,11.847Zm6.79,2.3a3.682,3.682,0,0,1-2.743-1.066,3.866,3.866,0,0,1-1.051-2.838v-.22a4.755,4.755,0,0,1,.458-2.12,3.484,3.484,0,0,1,1.285-1.454,3.4,3.4,0,0,1,1.846-.52,3.11,3.11,0,0,1,2.5,1.033,4.367,4.367,0,0,1,.883,2.922V10.6H42.569a2.38,2.38,0,0,0,.656,1.553,1.968,1.968,0,0,0,1.447.571,2.41,2.41,0,0,0,1.992-.989l.959.916a3.2,3.2,0,0,1-1.271,1.1A3.978,3.978,0,0,1,44.569,14.146Zm-.212-6.79a1.5,1.5,0,0,0-1.183.513A2.657,2.657,0,0,0,42.6,9.3H45.99V9.166a2.163,2.163,0,0,0-.476-1.351A1.487,1.487,0,0,0,44.356,7.357Zm9.214,4.49a.807.807,0,0,0-.392-.725,4.167,4.167,0,0,0-1.3-.439,6.683,6.683,0,0,1-1.516-.483,2.023,2.023,0,0,1-1.333-1.868,2.109,2.109,0,0,1,.864-1.714,3.417,3.417,0,0,1,2.2-.688,3.555,3.555,0,0,1,2.3.7,2.231,2.231,0,0,1,.875,1.824h-1.78A1.1,1.1,0,0,0,53.1,7.6a1.46,1.46,0,0,0-1.011-.341,1.577,1.577,0,0,0-.956.271.854.854,0,0,0-.37.725.721.721,0,0,0,.344.637,4.734,4.734,0,0,0,1.392.458,6.587,6.587,0,0,1,1.644.549,2.328,2.328,0,0,1,.886.765,1.952,1.952,0,0,1,.289,1.084,2.065,2.065,0,0,1-.886,1.732,3.779,3.779,0,0,1-2.322.663,4.1,4.1,0,0,1-1.736-.352,2.857,2.857,0,0,1-1.187-.967,2.288,2.288,0,0,1-.425-1.326h1.729a1.254,1.254,0,0,0,.476.97,1.85,1.85,0,0,0,1.165.341,1.8,1.8,0,0,0,1.069-.267A.827.827,0,0,0,53.57,11.847Zm7.061-2.183a11.161,11.161,0,0,1,.454-3.212,8.815,8.815,0,0,1,1.333-2.717,5.293,5.293,0,0,1,1.86-1.681l.352,1.04a5.437,5.437,0,0,0-1.674,2.391,10.71,10.71,0,0,0-.7,3.68l-.007.63a11.643,11.643,0,0,0,.626,3.959A5.835,5.835,0,0,0,64.63,16.4l-.352.989A5.3,5.3,0,0,1,62.414,15.7a8.814,8.814,0,0,1-1.333-2.717A11.6,11.6,0,0,1,60.631,9.664Zm12.144.454a4.718,4.718,0,0,1-.835,2.933,2.9,2.9,0,0,1-4.329.238v3.757h-1.78V6.075h1.641l.073.806a2.614,2.614,0,0,1,2.131-.952,2.7,2.7,0,0,1,2.274,1.08,4.844,4.844,0,0,1,.824,3ZM71,9.964a3.305,3.305,0,0,0-.472-1.882,1.536,1.536,0,0,0-1.351-.7,1.638,1.638,0,0,0-1.567.9V11.8a1.653,1.653,0,0,0,1.582.923,1.534,1.534,0,0,0,1.329-.685A3.638,3.638,0,0,0,71,9.964ZM76.173,14h-1.78V2.75h1.78Zm6.672,0a2.747,2.747,0,0,1-.205-.74,2.994,2.994,0,0,1-4.028.205,2.179,2.179,0,0,1-.754-1.685A2.25,2.25,0,0,1,78.8,9.836a4.561,4.561,0,0,1,2.692-.677h1.091v-.52a1.388,1.388,0,0,0-.344-.985,1.365,1.365,0,0,0-1.047-.37,1.568,1.568,0,0,0-1,.3.941.941,0,0,0-.388.773h-1.78a1.975,1.975,0,0,1,.432-1.219,2.879,2.879,0,0,1,1.176-.89,4.129,4.129,0,0,1,1.659-.322,3.325,3.325,0,0,1,2.219.7,2.494,2.494,0,0,1,.85,1.967v3.574a4.051,4.051,0,0,0,.3,1.707V14ZM80.89,12.718a2.025,2.025,0,0,0,.992-.256,1.713,1.713,0,0,0,.7-.688V10.279h-.959a2.624,2.624,0,0,0-1.487.344,1.115,1.115,0,0,0-.5.974,1.04,1.04,0,0,0,.341.817A1.319,1.319,0,0,0,80.89,12.718Zm6.987-6.643.051.916a2.849,2.849,0,0,1,2.307-1.062q2.476,0,2.52,2.834V14h-1.78V8.866a1.632,1.632,0,0,0-.326-1.117,1.371,1.371,0,0,0-1.066-.363,1.715,1.715,0,0,0-1.6.974V14H86.2V6.075Zm10.181,8.071a3.682,3.682,0,0,1-2.743-1.066,3.866,3.866,0,0,1-1.051-2.838v-.22a4.755,4.755,0,0,1,.458-2.12,3.484,3.484,0,0,1,1.285-1.454,3.4,3.4,0,0,1,1.846-.52,3.11,3.11,0,0,1,2.5,1.033,4.367,4.367,0,0,1,.883,2.922V10.6H96.058a2.38,2.38,0,0,0,.656,1.553,1.968,1.968,0,0,0,1.447.571,2.41,2.41,0,0,0,1.992-.989l.959.916a3.2,3.2,0,0,1-1.271,1.1A3.978,3.978,0,0,1,98.058,14.146Zm-.212-6.79a1.5,1.5,0,0,0-1.183.513A2.657,2.657,0,0,0,96.087,9.3h3.391V9.166A2.163,2.163,0,0,0,99,7.815,1.487,1.487,0,0,0,97.845,7.357ZM107.352,14a2.747,2.747,0,0,1-.205-.74,2.994,2.994,0,0,1-4.028.205,2.179,2.179,0,0,1-.754-1.685,2.25,2.25,0,0,1,.941-1.945A4.561,4.561,0,0,1,106,9.159h1.091v-.52a1.388,1.388,0,0,0-.344-.985,1.365,1.365,0,0,0-1.047-.37,1.568,1.568,0,0,0-1,.3.941.941,0,0,0-.388.773h-1.78a1.975,1.975,0,0,1,.432-1.219,2.879,2.879,0,0,1,1.176-.89,4.129,4.129,0,0,1,1.659-.322,3.325,3.325,0,0,1,2.219.7,2.494,2.494,0,0,1,.85,1.967v3.574a4.051,4.051,0,0,0,.3,1.707V14ZM105.4,12.718a2.025,2.025,0,0,0,.992-.256,1.713,1.713,0,0,0,.7-.688V10.279h-.959a2.624,2.624,0,0,0-1.487.344,1.115,1.115,0,0,0-.5.974,1.04,1.04,0,0,0,.341.817A1.319,1.319,0,0,0,105.4,12.718Zm8.591.007a1.609,1.609,0,0,0,1.106-.388,1.326,1.326,0,0,0,.469-.959h1.677a2.614,2.614,0,0,1-.461,1.381,3.027,3.027,0,0,1-1.172,1.014,3.492,3.492,0,0,1-1.6.374,3.379,3.379,0,0,1-2.637-1.077A4.27,4.27,0,0,1,110.4,10.1V9.913a4.2,4.2,0,0,1,.967-2.9A3.348,3.348,0,0,1,114,5.929a3.256,3.256,0,0,1,2.3.824,2.952,2.952,0,0,1,.934,2.164h-1.677A1.63,1.63,0,0,0,115.1,7.8a1.5,1.5,0,0,0-1.11-.439,1.566,1.566,0,0,0-1.333.626,3.2,3.2,0,0,0-.476,1.9v.286a3.248,3.248,0,0,0,.465,1.923A1.565,1.565,0,0,0,113.988,12.726ZM120.477,14H118.7V6.075h1.78Zm-1.89-9.983a.945.945,0,0,1,.26-.681.982.982,0,0,1,.743-.271,1,1,0,0,1,.747.271.937.937,0,0,1,.264.681.916.916,0,0,1-.264.67,1,1,0,0,1-.747.267.99.99,0,0,1-.743-.267A.923.923,0,0,1,118.587,4.017Zm3.494,5.947a4.673,4.673,0,0,1,.461-2.1,3.37,3.37,0,0,1,1.3-1.436,3.653,3.653,0,0,1,1.919-.5,3.462,3.462,0,0,1,2.6,1.033,4.062,4.062,0,0,1,1.08,2.739l.007.417a4.715,4.715,0,0,1-.45,2.095,3.329,3.329,0,0,1-1.289,1.428,3.679,3.679,0,0,1-1.937.505,3.438,3.438,0,0,1-2.684-1.117,4.278,4.278,0,0,1-1.007-2.977Zm1.78.154a3.193,3.193,0,0,0,.505,1.915,1.643,1.643,0,0,0,1.406.692,1.625,1.625,0,0,0,1.4-.7,3.527,3.527,0,0,0,.5-2.058,3.152,3.152,0,0,0-.516-1.9,1.74,1.74,0,0,0-2.787-.011A3.46,3.46,0,0,0,123.861,10.118Zm2.388-7.368h2.029l-2.029,2.219-1.428,0Zm6.357,3.325.051.916a2.849,2.849,0,0,1,2.307-1.062q2.476,0,2.52,2.834V14H135.7V8.866a1.632,1.632,0,0,0-.326-1.117,1.371,1.371,0,0,0-1.066-.363,1.715,1.715,0,0,0-1.6.974V14h-1.78V6.075ZM139.549,16.4l-.959-.571a5.175,5.175,0,0,0,.582-1.161,3.464,3.464,0,0,0,.165-1.007V12.279h1.6l-.007,1.282a3.572,3.572,0,0,1-.392,1.556A3.866,3.866,0,0,1,139.549,16.4ZM8.713,37.146A3.682,3.682,0,0,1,5.97,36.081a3.866,3.866,0,0,1-1.051-2.838v-.22a4.755,4.755,0,0,1,.458-2.12,3.484,3.484,0,0,1,1.285-1.454,3.4,3.4,0,0,1,1.846-.52,3.11,3.11,0,0,1,2.5,1.033,4.367,4.367,0,0,1,.883,2.922V33.6H6.714a2.38,2.38,0,0,0,.656,1.553,1.968,1.968,0,0,0,1.447.571,2.41,2.41,0,0,0,1.992-.989l.959.916a3.2,3.2,0,0,1-1.271,1.1A3.978,3.978,0,0,1,8.713,37.146ZM8.5,30.357a1.5,1.5,0,0,0-1.183.513A2.657,2.657,0,0,0,6.743,32.3h3.391v-.132a2.163,2.163,0,0,0-.476-1.351A1.487,1.487,0,0,0,8.5,30.357Zm6.628-1.282V37.7a2.607,2.607,0,0,1-.6,1.857,2.316,2.316,0,0,1-1.769.641,3.557,3.557,0,0,1-.945-.125V38.67a2.742,2.742,0,0,0,.63.066q.886,0,.908-.967V29.075ZM13.2,27.017a.945.945,0,0,1,.26-.681.982.982,0,0,1,.743-.271,1,1,0,0,1,.747.271.937.937,0,0,1,.264.681.916.916,0,0,1-.264.67,1,1,0,0,1-.747.267.99.99,0,0,1-.743-.267A.923.923,0,0,1,13.2,27.017ZM20.52,37.146a3.682,3.682,0,0,1-2.743-1.066,3.866,3.866,0,0,1-1.051-2.838v-.22a4.755,4.755,0,0,1,.458-2.12,3.484,3.484,0,0,1,1.285-1.454,3.4,3.4,0,0,1,1.846-.52,3.11,3.11,0,0,1,2.5,1.033,4.367,4.367,0,0,1,.883,2.922V33.6H18.52a2.38,2.38,0,0,0,.656,1.553,1.968,1.968,0,0,0,1.447.571,2.41,2.41,0,0,0,1.992-.989l.959.916a3.2,3.2,0,0,1-1.271,1.1A3.978,3.978,0,0,1,20.52,37.146Zm-.212-6.79a1.5,1.5,0,0,0-1.183.513A2.657,2.657,0,0,0,18.55,32.3h3.391v-.132a2.163,2.163,0,0,0-.476-1.351A1.487,1.487,0,0,0,20.307,30.357Zm8.027,5.369a1.609,1.609,0,0,0,1.106-.388,1.326,1.326,0,0,0,.469-.959h1.677a2.614,2.614,0,0,1-.461,1.381,3.027,3.027,0,0,1-1.172,1.014,3.492,3.492,0,0,1-1.6.374A3.379,3.379,0,0,1,25.72,36.07a4.27,4.27,0,0,1-.974-2.974v-.183a4.2,4.2,0,0,1,.967-2.9,3.348,3.348,0,0,1,2.637-1.088,3.256,3.256,0,0,1,2.3.824,2.952,2.952,0,0,1,.934,2.164H29.909a1.63,1.63,0,0,0-.465-1.121,1.5,1.5,0,0,0-1.11-.439A1.566,1.566,0,0,0,27,30.983a3.2,3.2,0,0,0-.476,1.9v.286a3.248,3.248,0,0,0,.465,1.923A1.565,1.565,0,0,0,28.335,35.726Zm9.4.5a2.76,2.76,0,0,1-2.227.923,2.46,2.46,0,0,1-1.952-.754,3.209,3.209,0,0,1-.663-2.183V29.075h1.78v5.112q0,1.509,1.252,1.509a1.759,1.759,0,0,0,1.75-.93V29.075h1.78V37H37.776Zm6.79-.5a1.609,1.609,0,0,0,1.106-.388,1.326,1.326,0,0,0,.469-.959h1.677a2.614,2.614,0,0,1-.461,1.381,3.027,3.027,0,0,1-1.172,1.014,3.492,3.492,0,0,1-1.6.374,3.379,3.379,0,0,1-2.637-1.077,4.27,4.27,0,0,1-.974-2.974v-.183a4.2,4.2,0,0,1,.967-2.9,3.348,3.348,0,0,1,2.637-1.088,3.256,3.256,0,0,1,2.3.824,2.952,2.952,0,0,1,.934,2.164H46.1a1.63,1.63,0,0,0-.465-1.121,1.5,1.5,0,0,0-1.11-.439,1.566,1.566,0,0,0-1.333.626,3.2,3.2,0,0,0-.476,1.9v.286a3.248,3.248,0,0,0,.465,1.923A1.565,1.565,0,0,0,44.521,35.726ZM51.01,37h-1.78V29.075h1.78Zm-1.89-9.983a.945.945,0,0,1,.26-.681.982.982,0,0,1,.743-.271,1,1,0,0,1,.747.271.937.937,0,0,1,.264.681.916.916,0,0,1-.264.67,1,1,0,0,1-.747.267.99.99,0,0,1-.743-.267A.923.923,0,0,1,49.121,27.017Zm3.494,5.947a4.673,4.673,0,0,1,.461-2.1,3.37,3.37,0,0,1,1.3-1.436,3.653,3.653,0,0,1,1.919-.5,3.462,3.462,0,0,1,2.6,1.033,4.062,4.062,0,0,1,1.08,2.739l.007.417a4.715,4.715,0,0,1-.45,2.095,3.329,3.329,0,0,1-1.289,1.428,3.679,3.679,0,0,1-1.937.505,3.438,3.438,0,0,1-2.684-1.117,4.278,4.278,0,0,1-1.007-2.977Zm1.78.154a3.193,3.193,0,0,0,.505,1.915,1.643,1.643,0,0,0,1.406.692,1.625,1.625,0,0,0,1.4-.7,3.527,3.527,0,0,0,.5-2.058,3.152,3.152,0,0,0-.516-1.9,1.74,1.74,0,0,0-2.787-.011A3.46,3.46,0,0,0,54.394,33.118Zm2.388-7.368h2.029l-2.029,2.219-1.428,0Zm6.357,3.325.051.916A2.849,2.849,0,0,1,65.5,28.929q2.476,0,2.52,2.834V37h-1.78V31.866a1.632,1.632,0,0,0-.326-1.117,1.371,1.371,0,0,0-1.066-.363,1.715,1.715,0,0,0-1.6.974V37h-1.78V29.075ZM70.083,39.4l-.959-.571a5.175,5.175,0,0,0,.582-1.161,3.464,3.464,0,0,0,.165-1.007V35.279h1.6l-.007,1.282a3.572,3.572,0,0,1-.392,1.556A3.866,3.866,0,0,1,70.083,39.4Zm9.573-4.658,1.677-5.669h1.838L80.425,37H78.879l-2.769-7.925h1.846Zm8.02,2.4a3.682,3.682,0,0,1-2.743-1.066,3.866,3.866,0,0,1-1.051-2.838v-.22a4.755,4.755,0,0,1,.458-2.12,3.484,3.484,0,0,1,1.285-1.454,3.4,3.4,0,0,1,1.846-.52,3.11,3.11,0,0,1,2.5,1.033,4.367,4.367,0,0,1,.883,2.922V33.6H85.676a2.38,2.38,0,0,0,.656,1.553,1.968,1.968,0,0,0,1.447.571,2.41,2.41,0,0,0,1.992-.989l.959.916a3.2,3.2,0,0,1-1.271,1.1A3.978,3.978,0,0,1,87.676,37.146Zm-.212-6.79a1.5,1.5,0,0,0-1.183.513,2.657,2.657,0,0,0-.575,1.428H89.1v-.132a2.163,2.163,0,0,0-.476-1.351A1.487,1.487,0,0,0,87.463,30.357Zm8.921.344a4.4,4.4,0,0,0-.725-.059,1.633,1.633,0,0,0-1.648.938V37h-1.78V29.075h1.7l.044.886a2.005,2.005,0,0,1,1.787-1.033,1.666,1.666,0,0,1,.63.1ZM99.4,37h-1.78V29.075H99.4Zm-1.89-9.983a.945.945,0,0,1,.26-.681.982.982,0,0,1,.743-.271,1,1,0,0,1,.747.271.937.937,0,0,1,.264.681.916.916,0,0,1-.264.67,1,1,0,0,1-.747.267.99.99,0,0,1-.743-.267A.923.923,0,0,1,97.512,27.017Zm4.3,9.983V30.394H100.6V29.075h1.208v-.542a3.17,3.17,0,0,1,.4-1.6,2.46,2.46,0,0,1,1.1-1,3.955,3.955,0,0,1,1.707-.337,4.975,4.975,0,0,1,1.124.125q.538.125,1.117.315l-.271,1.472a5.666,5.666,0,0,0-1.846-.352,1.649,1.649,0,0,0-1.179.355,1.421,1.421,0,0,0-.366,1.066v.5h1.56v1.318h-1.56V37Zm6.284,0h-1.78V29.075h1.78Zm5.229-1.274a1.609,1.609,0,0,0,1.106-.388,1.326,1.326,0,0,0,.469-.959h1.677a2.614,2.614,0,0,1-.461,1.381,3.027,3.027,0,0,1-1.172,1.014,3.492,3.492,0,0,1-1.6.374,3.379,3.379,0,0,1-2.637-1.077,4.27,4.27,0,0,1-.974-2.974v-.183a4.2,4.2,0,0,1,.967-2.9,3.348,3.348,0,0,1,2.637-1.088,3.256,3.256,0,0,1,2.3.824,2.952,2.952,0,0,1,.934,2.164H114.9a1.63,1.63,0,0,0-.465-1.121,1.5,1.5,0,0,0-1.11-.439,1.566,1.566,0,0,0-1.333.626,3.2,3.2,0,0,0-.476,1.9v.286a3.248,3.248,0,0,0,.465,1.923A1.565,1.565,0,0,0,113.325,35.726ZM122.656,37a2.747,2.747,0,0,1-.205-.74,2.994,2.994,0,0,1-4.028.205,2.179,2.179,0,0,1-.754-1.685,2.25,2.25,0,0,1,.941-1.945,4.561,4.561,0,0,1,2.692-.677h1.091v-.52a1.388,1.388,0,0,0-.344-.985,1.365,1.365,0,0,0-1.047-.37,1.568,1.568,0,0,0-1,.3.941.941,0,0,0-.388.773h-1.78a1.975,1.975,0,0,1,.432-1.219,2.879,2.879,0,0,1,1.176-.89,4.129,4.129,0,0,1,1.659-.322,3.325,3.325,0,0,1,2.219.7,2.494,2.494,0,0,1,.85,1.967v3.574a4.051,4.051,0,0,0,.3,1.707V37ZM120.7,35.718a2.025,2.025,0,0,0,.992-.256,1.713,1.713,0,0,0,.7-.688V33.279h-.959a2.624,2.624,0,0,0-1.487.344,1.115,1.115,0,0,0-.5.974,1.04,1.04,0,0,0,.341.817A1.319,1.319,0,0,0,120.7,35.718Zm8.591.007a1.609,1.609,0,0,0,1.106-.388,1.326,1.326,0,0,0,.469-.959h1.677a2.614,2.614,0,0,1-.461,1.381,3.027,3.027,0,0,1-1.172,1.014,3.492,3.492,0,0,1-1.6.374,3.379,3.379,0,0,1-2.637-1.077A4.27,4.27,0,0,1,125.7,33.1v-.183a4.2,4.2,0,0,1,.967-2.9,3.348,3.348,0,0,1,2.637-1.088,3.256,3.256,0,0,1,2.3.824,2.952,2.952,0,0,1,.934,2.164h-1.677A1.63,1.63,0,0,0,130.4,30.8a1.5,1.5,0,0,0-1.11-.439,1.566,1.566,0,0,0-1.333.626,3.2,3.2,0,0,0-.476,1.9v.286a3.248,3.248,0,0,0,.465,1.923A1.565,1.565,0,0,0,129.292,35.726ZM135.781,37H134V29.075h1.78Zm-1.89-9.983a.945.945,0,0,1,.26-.681.982.982,0,0,1,.743-.271,1,1,0,0,1,.747.271.937.937,0,0,1,.264.681.916.916,0,0,1-.264.67,1,1,0,0,1-.747.267.99.99,0,0,1-.743-.267A.923.923,0,0,1,133.891,27.017Zm3.494,5.947a4.673,4.673,0,0,1,.461-2.1,3.37,3.37,0,0,1,1.3-1.436,3.653,3.653,0,0,1,1.919-.5,3.462,3.462,0,0,1,2.6,1.033,4.062,4.062,0,0,1,1.08,2.739l.007.417a4.715,4.715,0,0,1-.45,2.095,3.329,3.329,0,0,1-1.289,1.428,3.679,3.679,0,0,1-1.937.505,3.438,3.438,0,0,1-2.684-1.117,4.278,4.278,0,0,1-1.007-2.977Zm1.78.154a3.193,3.193,0,0,0,.505,1.915,1.643,1.643,0,0,0,1.406.692,1.625,1.625,0,0,0,1.4-.7,3.527,3.527,0,0,0,.5-2.058,3.152,3.152,0,0,0-.516-1.9,1.74,1.74,0,0,0-2.787-.011A3.46,3.46,0,0,0,139.165,33.118Zm2.388-7.368h2.029l-2.029,2.219-1.428,0Zm6.357,3.325.051.916a2.849,2.849,0,0,1,2.307-1.062q2.476,0,2.52,2.834V37h-1.78V31.866a1.632,1.632,0,0,0-.326-1.117,1.371,1.371,0,0,0-1.066-.363,1.715,1.715,0,0,0-1.6.974V37h-1.78V29.075ZM51.238,57.451l1.611-5.376h1.9L51.6,61.2a2.56,2.56,0,0,1-2.461,2,3.173,3.173,0,0,1-.857-.133V61.685l.337.022a1.733,1.733,0,0,0,1.014-.245,1.625,1.625,0,0,0,.538-.823l.256-.681-2.783-7.882H49.56Zm9.939-5.376.051.828a2.852,2.852,0,0,1,2.285-.974,2.191,2.191,0,0,1,2.175,1.216,2.811,2.811,0,0,1,2.432-1.216,2.471,2.471,0,0,1,1.952.725,3.192,3.192,0,0,1,.656,2.139V60h-1.78V54.844a1.576,1.576,0,0,0-.33-1.106,1.443,1.443,0,0,0-1.091-.352,1.482,1.482,0,0,0-.992.326,1.719,1.719,0,0,0-.538.853L66,60h-1.78V54.785a1.27,1.27,0,0,0-1.428-1.4,1.567,1.567,0,0,0-1.516.872V60H59.5V52.075Zm14.868,8.071A3.682,3.682,0,0,1,73.3,59.081a3.866,3.866,0,0,1-1.051-2.838v-.22a4.755,4.755,0,0,1,.458-2.12,3.484,3.484,0,0,1,1.285-1.454,3.4,3.4,0,0,1,1.846-.52,3.11,3.11,0,0,1,2.5,1.033,4.367,4.367,0,0,1,.883,2.922V56.6H74.045a2.38,2.38,0,0,0,.656,1.553,1.968,1.968,0,0,0,1.447.571,2.41,2.41,0,0,0,1.992-.989l.959.916a3.2,3.2,0,0,1-1.271,1.1A3.978,3.978,0,0,1,76.045,60.146Zm-.212-6.79a1.5,1.5,0,0,0-1.183.513,2.657,2.657,0,0,0-.575,1.428h3.391v-.132a2.163,2.163,0,0,0-.476-1.351A1.487,1.487,0,0,0,75.832,53.357Zm6.628-1.282V60.7a2.607,2.607,0,0,1-.6,1.857,2.316,2.316,0,0,1-1.769.641,3.557,3.557,0,0,1-.945-.125V61.67a2.742,2.742,0,0,0,.63.066q.886,0,.908-.967V52.075Zm-1.934-2.058a.945.945,0,0,1,.26-.681.982.982,0,0,1,.743-.271,1,1,0,0,1,.747.271.937.937,0,0,1,.264.681.916.916,0,0,1-.264.67,1,1,0,0,1-.747.267.99.99,0,0,1-.743-.267A.923.923,0,0,1,80.527,50.017Zm3.5,5.947a4.673,4.673,0,0,1,.461-2.1,3.37,3.37,0,0,1,1.3-1.436,3.653,3.653,0,0,1,1.919-.5,3.462,3.462,0,0,1,2.6,1.033,4.062,4.062,0,0,1,1.08,2.739l.007.417a4.715,4.715,0,0,1-.45,2.095,3.329,3.329,0,0,1-1.289,1.428,3.679,3.679,0,0,1-1.937.505,3.438,3.438,0,0,1-2.684-1.117,4.278,4.278,0,0,1-1.007-2.977Zm1.78.154a3.193,3.193,0,0,0,.505,1.915,1.643,1.643,0,0,0,1.406.692,1.625,1.625,0,0,0,1.4-.7,3.527,3.527,0,0,0,.5-2.058,3.152,3.152,0,0,0-.516-1.9,1.74,1.74,0,0,0-2.787-.011A3.46,3.46,0,0,0,85.808,56.118ZM97.051,53.7a4.4,4.4,0,0,0-.725-.059,1.633,1.633,0,0,0-1.648.938V60H92.9V52.075h1.7l.044.886a2.005,2.005,0,0,1,1.787-1.033,1.666,1.666,0,0,1,.63.1Zm5.64,6.3a2.747,2.747,0,0,1-.205-.74,2.994,2.994,0,0,1-4.028.205,2.179,2.179,0,0,1-.754-1.685,2.25,2.25,0,0,1,.941-1.945,4.561,4.561,0,0,1,2.692-.677h1.091v-.52a1.388,1.388,0,0,0-.344-.985,1.365,1.365,0,0,0-1.047-.37,1.568,1.568,0,0,0-1,.3.941.941,0,0,0-.388.773h-1.78a1.975,1.975,0,0,1,.432-1.219,2.879,2.879,0,0,1,1.176-.89,4.129,4.129,0,0,1,1.659-.322,3.325,3.325,0,0,1,2.219.7,2.494,2.494,0,0,1,.85,1.967v3.574a4.051,4.051,0,0,0,.3,1.707V60Zm-1.956-1.282a2.025,2.025,0,0,0,.992-.256,1.713,1.713,0,0,0,.7-.688V56.279h-.959a2.624,2.624,0,0,0-1.487.344,1.115,1.115,0,0,0-.5.974,1.04,1.04,0,0,0,.341.817A1.319,1.319,0,0,0,100.735,58.718Zm8.767-2.937a11.02,11.02,0,0,1-.447,3.138,8.892,8.892,0,0,1-1.355,2.754,5.306,5.306,0,0,1-1.9,1.718l-.352-.989a5.629,5.629,0,0,0,1.74-2.6,11.533,11.533,0,0,0,.641-3.988v-.168a11.7,11.7,0,0,0-.557-3.71,6.544,6.544,0,0,0-1.6-2.684l-.227-.205.352-1a5.251,5.251,0,0,1,1.816,1.611,8.743,8.743,0,0,1,1.348,2.589,10.785,10.785,0,0,1,.527,2.955Z" transform="translate(255 846.542)" fill="#12263f"/>
    <path id="Trazado_838874" data-name="Trazado 838874" d="M34.989,10.528a3.85,3.85,0,0,1-1.26,2.662,4.3,4.3,0,0,1-2.922.956,4.158,4.158,0,0,1-2.245-.6,3.966,3.966,0,0,1-1.5-1.718,6.2,6.2,0,0,1-.549-2.585v-1a6.243,6.243,0,0,1,.535-2.659,4.029,4.029,0,0,1,1.534-1.772,4.28,4.28,0,0,1,2.311-.623,4.122,4.122,0,0,1,2.842.956,3.994,3.994,0,0,1,1.252,2.706H33.143a2.634,2.634,0,0,0-.67-1.659,2.215,2.215,0,0,0-1.578-.509,2.164,2.164,0,0,0-1.857.883,4.415,4.415,0,0,0-.663,2.592V9.1a4.684,4.684,0,0,0,.619,2.639,2.054,2.054,0,0,0,1.813.909,2.4,2.4,0,0,0,1.641-.491,2.559,2.559,0,0,0,.7-1.633ZM40.621,7.7a4.4,4.4,0,0,0-.725-.059,1.633,1.633,0,0,0-1.648.938V14h-1.78V6.075h1.7l.044.886A2.005,2.005,0,0,1,40,5.929a1.666,1.666,0,0,1,.63.1ZM43.639,14h-1.78V6.075h1.78Zm-1.89-9.983a.945.945,0,0,1,.26-.681.982.982,0,0,1,.743-.271,1,1,0,0,1,.747.271.937.937,0,0,1,.264.681.916.916,0,0,1-.264.67,1,1,0,0,1-.747.267.99.99,0,0,1-.743-.267A.923.923,0,0,1,41.749,4.017Zm6.057.132V6.075h1.4V7.394h-1.4v4.424a.974.974,0,0,0,.179.656.832.832,0,0,0,.641.2,2.742,2.742,0,0,0,.623-.073v1.377a4.383,4.383,0,0,1-1.172.168q-2.051,0-2.051-2.263V7.394h-1.3V6.075h1.3V4.149Zm6.248,10a3.682,3.682,0,0,1-2.743-1.066,3.866,3.866,0,0,1-1.051-2.838v-.22a4.755,4.755,0,0,1,.458-2.12A3.484,3.484,0,0,1,52,6.449a3.4,3.4,0,0,1,1.846-.52,3.11,3.11,0,0,1,2.5,1.033,4.367,4.367,0,0,1,.883,2.922V10.6H52.054a2.38,2.38,0,0,0,.656,1.553,1.968,1.968,0,0,0,1.447.571,2.41,2.41,0,0,0,1.992-.989l.959.916a3.2,3.2,0,0,1-1.271,1.1A3.978,3.978,0,0,1,54.054,14.146Zm-.212-6.79a1.5,1.5,0,0,0-1.183.513A2.657,2.657,0,0,0,52.083,9.3h3.391V9.166A2.163,2.163,0,0,0,55,7.815,1.487,1.487,0,0,0,53.841,7.357Zm8.921.344a4.4,4.4,0,0,0-.725-.059,1.633,1.633,0,0,0-1.648.938V14h-1.78V6.075h1.7l.044.886A2.005,2.005,0,0,1,62.14,5.929a1.666,1.666,0,0,1,.63.1ZM65.78,14H64V6.075h1.78ZM63.89,4.017a.945.945,0,0,1,.26-.681.982.982,0,0,1,.743-.271,1,1,0,0,1,.747.271.937.937,0,0,1,.264.681.916.916,0,0,1-.264.67,1,1,0,0,1-.747.267.99.99,0,0,1-.743-.267A.923.923,0,0,1,63.89,4.017Zm3.494,5.947a4.673,4.673,0,0,1,.461-2.1,3.37,3.37,0,0,1,1.3-1.436,3.653,3.653,0,0,1,1.919-.5,3.462,3.462,0,0,1,2.6,1.033A4.062,4.062,0,0,1,74.745,9.7l.007.417a4.715,4.715,0,0,1-.45,2.095,3.329,3.329,0,0,1-1.289,1.428,3.679,3.679,0,0,1-1.937.505,3.438,3.438,0,0,1-2.684-1.117,4.278,4.278,0,0,1-1.007-2.977Zm1.78.154a3.193,3.193,0,0,0,.505,1.915,1.643,1.643,0,0,0,1.406.692,1.625,1.625,0,0,0,1.4-.7,3.527,3.527,0,0,0,.5-2.058,3.152,3.152,0,0,0-.516-1.9,1.74,1.74,0,0,0-2.787-.011A3.46,3.46,0,0,0,69.164,10.118ZM80.7,11.847a.807.807,0,0,0-.392-.725,4.167,4.167,0,0,0-1.3-.439,6.683,6.683,0,0,1-1.516-.483,2.023,2.023,0,0,1-1.333-1.868,2.109,2.109,0,0,1,.864-1.714,3.417,3.417,0,0,1,2.2-.688,3.555,3.555,0,0,1,2.3.7,2.231,2.231,0,0,1,.875,1.824h-1.78A1.1,1.1,0,0,0,80.23,7.6a1.46,1.46,0,0,0-1.011-.341,1.577,1.577,0,0,0-.956.271.854.854,0,0,0-.37.725.721.721,0,0,0,.344.637,4.734,4.734,0,0,0,1.392.458,6.587,6.587,0,0,1,1.644.549,2.328,2.328,0,0,1,.886.765,1.952,1.952,0,0,1,.289,1.084,2.065,2.065,0,0,1-.886,1.732,3.779,3.779,0,0,1-2.322.663,4.1,4.1,0,0,1-1.736-.352,2.857,2.857,0,0,1-1.187-.967,2.288,2.288,0,0,1-.425-1.326h1.729a1.254,1.254,0,0,0,.476.97,1.85,1.85,0,0,0,1.165.341,1.8,1.8,0,0,0,1.069-.267A.827.827,0,0,0,80.7,11.847Zm13.975-1.729a4.718,4.718,0,0,1-.835,2.933,2.9,2.9,0,0,1-4.329.238v3.757H87.73V6.075h1.641l.073.806a2.614,2.614,0,0,1,2.131-.952,2.7,2.7,0,0,1,2.274,1.08,4.844,4.844,0,0,1,.824,3ZM92.9,9.964a3.305,3.305,0,0,0-.472-1.882,1.536,1.536,0,0,0-1.351-.7,1.638,1.638,0,0,0-1.567.9V11.8a1.653,1.653,0,0,0,1.582.923,1.534,1.534,0,0,0,1.329-.685A3.638,3.638,0,0,0,92.9,9.964ZM100.914,14a2.747,2.747,0,0,1-.205-.74,2.994,2.994,0,0,1-4.028.205,2.179,2.179,0,0,1-.754-1.685,2.25,2.25,0,0,1,.941-1.945,4.561,4.561,0,0,1,2.692-.677h1.091v-.52a1.388,1.388,0,0,0-.344-.985,1.365,1.365,0,0,0-1.047-.37,1.568,1.568,0,0,0-1,.3.941.941,0,0,0-.388.773h-1.78a1.975,1.975,0,0,1,.432-1.219,2.879,2.879,0,0,1,1.176-.89,4.129,4.129,0,0,1,1.659-.322,3.325,3.325,0,0,1,2.219.7,2.494,2.494,0,0,1,.85,1.967v3.574a4.051,4.051,0,0,0,.3,1.707V14Zm-1.956-1.282a2.025,2.025,0,0,0,.992-.256,1.713,1.713,0,0,0,.7-.688V10.279h-.959a2.624,2.624,0,0,0-1.487.344,1.115,1.115,0,0,0-.5.974,1.04,1.04,0,0,0,.341.817A1.319,1.319,0,0,0,98.958,12.718ZM108.443,7.7a4.4,4.4,0,0,0-.725-.059,1.633,1.633,0,0,0-1.648.938V14h-1.78V6.075h1.7l.044.886a2.005,2.005,0,0,1,1.787-1.033,1.666,1.666,0,0,1,.63.1Zm5.64,6.3a2.747,2.747,0,0,1-.205-.74,2.994,2.994,0,0,1-4.028.205,2.179,2.179,0,0,1-.754-1.685,2.25,2.25,0,0,1,.941-1.945,4.561,4.561,0,0,1,2.692-.677h1.091v-.52a1.388,1.388,0,0,0-.344-.985,1.365,1.365,0,0,0-1.047-.37,1.568,1.568,0,0,0-1,.3.941.941,0,0,0-.388.773h-1.78a1.975,1.975,0,0,1,.432-1.219,2.879,2.879,0,0,1,1.176-.89,4.129,4.129,0,0,1,1.659-.322,3.325,3.325,0,0,1,2.219.7,2.494,2.494,0,0,1,.85,1.967v3.574a4.051,4.051,0,0,0,.3,1.707V14Zm-1.956-1.282a2.025,2.025,0,0,0,.992-.256,1.713,1.713,0,0,0,.7-.688V10.279h-.959a2.624,2.624,0,0,0-1.487.344,1.115,1.115,0,0,0-.5.974,1.04,1.04,0,0,0,.341.817A1.319,1.319,0,0,0,112.127,12.718ZM123.092,14h-1.78V2.75h1.78Zm6.672,0a2.747,2.747,0,0,1-.205-.74,2.994,2.994,0,0,1-4.028.205,2.179,2.179,0,0,1-.754-1.685,2.25,2.25,0,0,1,.941-1.945,4.561,4.561,0,0,1,2.692-.677H129.5v-.52a1.388,1.388,0,0,0-.344-.985,1.365,1.365,0,0,0-1.047-.37,1.568,1.568,0,0,0-1,.3.941.941,0,0,0-.388.773h-1.78a1.975,1.975,0,0,1,.432-1.219,2.879,2.879,0,0,1,1.176-.89,4.129,4.129,0,0,1,1.659-.322,3.325,3.325,0,0,1,2.219.7,2.494,2.494,0,0,1,.85,1.967v3.574a4.051,4.051,0,0,0,.3,1.707V14Zm-1.956-1.282a2.025,2.025,0,0,0,.992-.256,1.713,1.713,0,0,0,.7-.688V10.279h-.959a2.624,2.624,0,0,0-1.487.344,1.115,1.115,0,0,0-.5.974,1.04,1.04,0,0,0,.341.817A1.319,1.319,0,0,0,127.809,12.718ZM21.087,32.979a4.712,4.712,0,0,1,.85-2.941,2.722,2.722,0,0,1,2.278-1.11,2.587,2.587,0,0,1,2.036.879V25.75h1.78V37H26.419l-.088-.82a2.624,2.624,0,0,1-2.131.967,2.707,2.707,0,0,1-2.252-1.121A4.884,4.884,0,0,1,21.087,32.979Zm1.78.154a3.3,3.3,0,0,0,.465,1.886,1.509,1.509,0,0,0,1.322.677,1.681,1.681,0,0,0,1.6-.974V31.338a1.655,1.655,0,0,0-1.582-.952,1.52,1.52,0,0,0-1.333.685A3.674,3.674,0,0,0,22.867,33.133Zm10.51,4.014a3.682,3.682,0,0,1-2.743-1.066,3.866,3.866,0,0,1-1.051-2.838v-.22a4.755,4.755,0,0,1,.458-2.12,3.484,3.484,0,0,1,1.285-1.454,3.4,3.4,0,0,1,1.846-.52,3.11,3.11,0,0,1,2.5,1.033,4.367,4.367,0,0,1,.883,2.922V33.6H31.378a2.38,2.38,0,0,0,.656,1.553,1.968,1.968,0,0,0,1.447.571,2.41,2.41,0,0,0,1.992-.989l.959.916a3.2,3.2,0,0,1-1.271,1.1A3.978,3.978,0,0,1,33.377,37.146Zm-.212-6.79a1.5,1.5,0,0,0-1.183.513,2.657,2.657,0,0,0-.575,1.428H34.8v-.132a2.163,2.163,0,0,0-.476-1.351A1.487,1.487,0,0,0,33.165,30.357Zm7-3.208v1.926h1.4v1.318h-1.4v4.424a.974.974,0,0,0,.179.656.832.832,0,0,0,.641.2,2.742,2.742,0,0,0,.623-.073v1.377a4.383,4.383,0,0,1-1.172.168q-2.051,0-2.051-2.263v-4.49h-1.3V29.075h1.3V27.149Zm6.248,10a3.682,3.682,0,0,1-2.743-1.066,3.866,3.866,0,0,1-1.051-2.838v-.22a4.755,4.755,0,0,1,.458-2.12,3.484,3.484,0,0,1,1.285-1.454,3.4,3.4,0,0,1,1.846-.52,3.11,3.11,0,0,1,2.5,1.033,4.367,4.367,0,0,1,.883,2.922V33.6H44.415a2.38,2.38,0,0,0,.656,1.553,1.968,1.968,0,0,0,1.447.571,2.41,2.41,0,0,0,1.992-.989l.959.916a3.2,3.2,0,0,1-1.271,1.1A3.978,3.978,0,0,1,46.415,37.146Zm-.212-6.79a1.5,1.5,0,0,0-1.183.513,2.657,2.657,0,0,0-.575,1.428h3.391v-.132a2.163,2.163,0,0,0-.476-1.351A1.487,1.487,0,0,0,46.2,30.357Zm8.921.344a4.4,4.4,0,0,0-.725-.059,1.633,1.633,0,0,0-1.648.938V37H50.97V29.075h1.7l.044.886A2.005,2.005,0,0,1,54.5,28.929a1.666,1.666,0,0,1,.63.1Zm2.8-1.626.051.828a2.852,2.852,0,0,1,2.285-.974,2.191,2.191,0,0,1,2.175,1.216,2.811,2.811,0,0,1,2.432-1.216,2.471,2.471,0,0,1,1.952.725,3.192,3.192,0,0,1,.656,2.139V37h-1.78V31.844a1.576,1.576,0,0,0-.33-1.106,1.443,1.443,0,0,0-1.091-.352,1.482,1.482,0,0,0-.992.326,1.719,1.719,0,0,0-.538.853L62.748,37h-1.78V31.785a1.27,1.27,0,0,0-1.428-1.4,1.567,1.567,0,0,0-1.516.872V37h-1.78V29.075ZM71.192,37h-1.78V29.075h1.78ZM69.3,27.017a.945.945,0,0,1,.26-.681.982.982,0,0,1,.743-.271,1,1,0,0,1,.747.271.937.937,0,0,1,.264.681.916.916,0,0,1-.264.67,1,1,0,0,1-.747.267.99.99,0,0,1-.743-.267A.923.923,0,0,1,69.3,27.017Zm5.479,2.058.051.916a2.849,2.849,0,0,1,2.307-1.062q2.476,0,2.52,2.834V37h-1.78V31.866a1.632,1.632,0,0,0-.326-1.117,1.371,1.371,0,0,0-1.066-.363,1.715,1.715,0,0,0-1.6.974V37H73.1V29.075ZM86.207,37A2.747,2.747,0,0,1,86,36.26a2.994,2.994,0,0,1-4.028.205,2.179,2.179,0,0,1-.754-1.685,2.25,2.25,0,0,1,.941-1.945,4.561,4.561,0,0,1,2.692-.677h1.091v-.52a1.388,1.388,0,0,0-.344-.985,1.365,1.365,0,0,0-1.047-.37,1.568,1.568,0,0,0-1,.3.941.941,0,0,0-.388.773h-1.78a1.975,1.975,0,0,1,.432-1.219A2.879,2.879,0,0,1,83,29.251a4.129,4.129,0,0,1,1.659-.322,3.325,3.325,0,0,1,2.219.7,2.494,2.494,0,0,1,.85,1.967v3.574a4.051,4.051,0,0,0,.3,1.707V37Zm-1.956-1.282a2.025,2.025,0,0,0,.992-.256,1.713,1.713,0,0,0,.7-.688V33.279h-.959a2.624,2.624,0,0,0-1.487.344,1.115,1.115,0,0,0-.5.974,1.04,1.04,0,0,0,.341.817A1.319,1.319,0,0,0,84.251,35.718Zm8.591.007a1.609,1.609,0,0,0,1.106-.388,1.326,1.326,0,0,0,.469-.959h1.677a2.614,2.614,0,0,1-.461,1.381,3.027,3.027,0,0,1-1.172,1.014,3.492,3.492,0,0,1-1.6.374,3.379,3.379,0,0,1-2.637-1.077,4.27,4.27,0,0,1-.974-2.974v-.183a4.2,4.2,0,0,1,.967-2.9,3.348,3.348,0,0,1,2.637-1.088,3.256,3.256,0,0,1,2.3.824,2.952,2.952,0,0,1,.934,2.164H94.417a1.63,1.63,0,0,0-.465-1.121,1.5,1.5,0,0,0-1.11-.439,1.566,1.566,0,0,0-1.333.626,3.2,3.2,0,0,0-.476,1.9v.286a3.248,3.248,0,0,0,.465,1.923A1.565,1.565,0,0,0,92.843,35.726ZM99.332,37h-1.78V29.075h1.78Zm-1.89-9.983a.945.945,0,0,1,.26-.681.982.982,0,0,1,.743-.271,1,1,0,0,1,.747.271.937.937,0,0,1,.264.681.916.916,0,0,1-.264.67,1,1,0,0,1-.747.267.99.99,0,0,1-.743-.267A.923.923,0,0,1,97.442,27.017Zm3.494,5.947a4.673,4.673,0,0,1,.461-2.1,3.37,3.37,0,0,1,1.3-1.436,3.653,3.653,0,0,1,1.919-.5,3.462,3.462,0,0,1,2.6,1.033A4.062,4.062,0,0,1,108.3,32.7l.007.417a4.715,4.715,0,0,1-.45,2.095,3.329,3.329,0,0,1-1.289,1.428,3.679,3.679,0,0,1-1.937.505,3.438,3.438,0,0,1-2.684-1.117,4.278,4.278,0,0,1-1.007-2.977Zm1.78.154a3.193,3.193,0,0,0,.505,1.915,1.643,1.643,0,0,0,1.406.692,1.625,1.625,0,0,0,1.4-.7,3.527,3.527,0,0,0,.5-2.058,3.152,3.152,0,0,0-.516-1.9,1.74,1.74,0,0,0-2.787-.011A3.46,3.46,0,0,0,102.716,33.118ZM105.1,25.75h2.029L105.1,27.969l-1.428,0Zm6.357,3.325.051.916a2.849,2.849,0,0,1,2.307-1.062q2.476,0,2.52,2.834V37h-1.78V31.866a1.632,1.632,0,0,0-.326-1.117,1.371,1.371,0,0,0-1.066-.363,1.715,1.715,0,0,0-1.6.974V37h-1.78V29.075Zm10.093,3.9a4.712,4.712,0,0,1,.85-2.941,2.722,2.722,0,0,1,2.278-1.11,2.587,2.587,0,0,1,2.036.879V25.75h1.78V37h-1.611l-.088-.82a2.624,2.624,0,0,1-2.131.967,2.707,2.707,0,0,1-2.252-1.121A4.884,4.884,0,0,1,121.554,32.979Zm1.78.154a3.3,3.3,0,0,0,.465,1.886,1.509,1.509,0,0,0,1.322.677,1.681,1.681,0,0,0,1.6-.974V31.338a1.655,1.655,0,0,0-1.582-.952,1.52,1.52,0,0,0-1.333.685A3.674,3.674,0,0,0,123.333,33.133Zm10.51,4.014a3.682,3.682,0,0,1-2.743-1.066,3.866,3.866,0,0,1-1.051-2.838v-.22a4.755,4.755,0,0,1,.458-2.12,3.484,3.484,0,0,1,1.285-1.454,3.4,3.4,0,0,1,1.846-.52,3.11,3.11,0,0,1,2.5,1.033,4.367,4.367,0,0,1,.883,2.922V33.6h-5.178a2.38,2.38,0,0,0,.656,1.553,1.968,1.968,0,0,0,1.447.571,2.41,2.41,0,0,0,1.992-.989l.959.916a3.2,3.2,0,0,1-1.271,1.1A3.978,3.978,0,0,1,133.844,37.146Zm-.212-6.79a1.5,1.5,0,0,0-1.183.513,2.657,2.657,0,0,0-.575,1.428h3.391v-.132a2.163,2.163,0,0,0-.476-1.351A1.487,1.487,0,0,0,133.631,30.357ZM54.728,53.7A4.4,4.4,0,0,0,54,53.643a1.633,1.633,0,0,0-1.648.938V60h-1.78V52.075h1.7l.044.886A2.005,2.005,0,0,1,54.1,51.929a1.666,1.666,0,0,1,.63.1ZM59.2,60.146a3.682,3.682,0,0,1-2.743-1.066,3.866,3.866,0,0,1-1.051-2.838v-.22a4.755,4.755,0,0,1,.458-2.12,3.484,3.484,0,0,1,1.285-1.454A3.4,3.4,0,0,1,59,51.929a3.11,3.11,0,0,1,2.5,1.033,4.367,4.367,0,0,1,.883,2.922V56.6H57.2a2.38,2.38,0,0,0,.656,1.553,1.968,1.968,0,0,0,1.447.571,2.41,2.41,0,0,0,1.992-.989l.959.916a3.2,3.2,0,0,1-1.271,1.1A3.978,3.978,0,0,1,59.2,60.146Zm-.212-6.79a1.5,1.5,0,0,0-1.183.513,2.657,2.657,0,0,0-.575,1.428h3.391v-.132a2.163,2.163,0,0,0-.476-1.351A1.487,1.487,0,0,0,58.99,53.357Zm8.027,5.369a1.609,1.609,0,0,0,1.106-.388,1.326,1.326,0,0,0,.469-.959H70.27a2.614,2.614,0,0,1-.461,1.381,3.027,3.027,0,0,1-1.172,1.014,3.492,3.492,0,0,1-1.6.374A3.379,3.379,0,0,1,64.4,59.07a4.27,4.27,0,0,1-.974-2.974v-.183a4.2,4.2,0,0,1,.967-2.9,3.348,3.348,0,0,1,2.637-1.088,3.256,3.256,0,0,1,2.3.824,2.952,2.952,0,0,1,.934,2.164H68.592a1.63,1.63,0,0,0-.465-1.121,1.5,1.5,0,0,0-1.11-.439,1.566,1.566,0,0,0-1.333.626,3.2,3.2,0,0,0-.476,1.9v.286a3.248,3.248,0,0,0,.465,1.923A1.565,1.565,0,0,0,67.018,58.726Zm9.4.5a2.76,2.76,0,0,1-2.227.923,2.46,2.46,0,0,1-1.952-.754,3.209,3.209,0,0,1-.663-2.183V52.075h1.78v5.112q0,1.509,1.252,1.509a1.759,1.759,0,0,0,1.75-.93V52.075h1.78V60H76.458ZM84.1,53.7a4.4,4.4,0,0,0-.725-.059,1.633,1.633,0,0,0-1.648.938V60h-1.78V52.075h1.7l.044.886a2.005,2.005,0,0,1,1.787-1.033,1.666,1.666,0,0,1,.63.1Zm5.566,4.146a.807.807,0,0,0-.392-.725,4.167,4.167,0,0,0-1.3-.439,6.683,6.683,0,0,1-1.516-.483,2.023,2.023,0,0,1-1.333-1.868,2.109,2.109,0,0,1,.864-1.714,3.417,3.417,0,0,1,2.2-.688,3.555,3.555,0,0,1,2.3.7,2.231,2.231,0,0,1,.875,1.824h-1.78A1.1,1.1,0,0,0,89.2,53.6a1.46,1.46,0,0,0-1.011-.341,1.577,1.577,0,0,0-.956.271.854.854,0,0,0-.37.725.721.721,0,0,0,.344.637,4.734,4.734,0,0,0,1.392.458,6.587,6.587,0,0,1,1.644.549,2.328,2.328,0,0,1,.886.765,1.952,1.952,0,0,1,.289,1.084,2.065,2.065,0,0,1-.886,1.732,3.779,3.779,0,0,1-2.322.663,4.1,4.1,0,0,1-1.736-.352,2.857,2.857,0,0,1-1.187-.967,2.288,2.288,0,0,1-.425-1.326h1.729a1.254,1.254,0,0,0,.476.97,1.85,1.85,0,0,0,1.165.341,1.8,1.8,0,0,0,1.069-.267A.827.827,0,0,0,89.664,57.847Zm2.966-1.882a4.673,4.673,0,0,1,.461-2.1,3.37,3.37,0,0,1,1.3-1.436,3.653,3.653,0,0,1,1.919-.5,3.462,3.462,0,0,1,2.6,1.033,4.062,4.062,0,0,1,1.08,2.739l.007.417a4.715,4.715,0,0,1-.45,2.095,3.329,3.329,0,0,1-1.289,1.428,3.679,3.679,0,0,1-1.937.505,3.438,3.438,0,0,1-2.684-1.117,4.278,4.278,0,0,1-1.007-2.977Zm1.78.154a3.193,3.193,0,0,0,.505,1.915,1.643,1.643,0,0,0,1.406.692,1.625,1.625,0,0,0,1.4-.7,3.527,3.527,0,0,0,.5-2.058,3.152,3.152,0,0,0-.516-1.9,1.74,1.74,0,0,0-2.787-.011A3.46,3.46,0,0,0,94.41,56.118Zm11.536,1.729a.807.807,0,0,0-.392-.725,4.167,4.167,0,0,0-1.3-.439,6.683,6.683,0,0,1-1.516-.483,2.023,2.023,0,0,1-1.333-1.868,2.109,2.109,0,0,1,.864-1.714,3.417,3.417,0,0,1,2.2-.688,3.555,3.555,0,0,1,2.3.7,2.231,2.231,0,0,1,.875,1.824h-1.78a1.1,1.1,0,0,0-.381-.853,1.46,1.46,0,0,0-1.011-.341,1.577,1.577,0,0,0-.956.271.854.854,0,0,0-.37.725.721.721,0,0,0,.344.637,4.734,4.734,0,0,0,1.392.458,6.587,6.587,0,0,1,1.644.549,2.328,2.328,0,0,1,.886.765,1.952,1.952,0,0,1,.289,1.084,2.065,2.065,0,0,1-.886,1.732,3.779,3.779,0,0,1-2.322.663,4.1,4.1,0,0,1-1.736-.352,2.857,2.857,0,0,1-1.187-.967,2.288,2.288,0,0,1-.425-1.326h1.729a1.254,1.254,0,0,0,.476.97,1.85,1.85,0,0,0,1.165.341,1.8,1.8,0,0,0,1.069-.267A.827.827,0,0,0,105.946,57.847Z" transform="translate(485 846.542)" fill="#12263f"/>
    <path id="Trazado_838875" data-name="Trazado 838875" d="M28.565,11.517H24.435L23.57,14H21.644L25.672,3.336h1.663L31.371,14H29.437Zm-3.611-1.494h3.091L26.5,5.6Zm11.895,1.824a.807.807,0,0,0-.392-.725,4.167,4.167,0,0,0-1.3-.439,6.683,6.683,0,0,1-1.516-.483,2.023,2.023,0,0,1-1.333-1.868,2.109,2.109,0,0,1,.864-1.714,3.417,3.417,0,0,1,2.2-.688,3.555,3.555,0,0,1,2.3.7,2.231,2.231,0,0,1,.875,1.824h-1.78A1.1,1.1,0,0,0,36.38,7.6a1.46,1.46,0,0,0-1.011-.341,1.577,1.577,0,0,0-.956.271.854.854,0,0,0-.37.725.721.721,0,0,0,.344.637,4.734,4.734,0,0,0,1.392.458,6.587,6.587,0,0,1,1.644.549,2.328,2.328,0,0,1,.886.765,1.952,1.952,0,0,1,.289,1.084,2.065,2.065,0,0,1-.886,1.732,3.779,3.779,0,0,1-2.322.663,4.1,4.1,0,0,1-1.736-.352,2.857,2.857,0,0,1-1.187-.967,2.288,2.288,0,0,1-.425-1.326h1.729a1.254,1.254,0,0,0,.476.97,1.85,1.85,0,0,0,1.165.341,1.8,1.8,0,0,0,1.069-.267A.827.827,0,0,0,36.849,11.847Zm10.239-1.729a4.718,4.718,0,0,1-.835,2.933,2.9,2.9,0,0,1-4.329.238v3.757h-1.78V6.075h1.641l.073.806a2.614,2.614,0,0,1,2.131-.952,2.7,2.7,0,0,1,2.274,1.08,4.844,4.844,0,0,1,.824,3Zm-1.772-.154a3.305,3.305,0,0,0-.472-1.882,1.536,1.536,0,0,0-1.351-.7,1.638,1.638,0,0,0-1.567.9V11.8a1.653,1.653,0,0,0,1.582.923,1.534,1.534,0,0,0,1.329-.685A3.638,3.638,0,0,0,45.316,9.964Zm6.768,4.182a3.682,3.682,0,0,1-2.743-1.066,3.866,3.866,0,0,1-1.051-2.838v-.22a4.755,4.755,0,0,1,.458-2.12,3.484,3.484,0,0,1,1.285-1.454,3.4,3.4,0,0,1,1.846-.52,3.11,3.11,0,0,1,2.5,1.033,4.367,4.367,0,0,1,.883,2.922V10.6H50.084a2.38,2.38,0,0,0,.656,1.553,1.968,1.968,0,0,0,1.447.571,2.41,2.41,0,0,0,1.992-.989l.959.916a3.2,3.2,0,0,1-1.271,1.1A3.978,3.978,0,0,1,52.083,14.146Zm-.212-6.79a1.5,1.5,0,0,0-1.183.513A2.657,2.657,0,0,0,50.113,9.3H53.5V9.166a2.163,2.163,0,0,0-.476-1.351A1.487,1.487,0,0,0,51.871,7.357ZM59.9,12.726A1.609,1.609,0,0,0,61,12.337a1.326,1.326,0,0,0,.469-.959H63.15a2.614,2.614,0,0,1-.461,1.381,3.027,3.027,0,0,1-1.172,1.014,3.492,3.492,0,0,1-1.6.374,3.379,3.379,0,0,1-2.637-1.077A4.27,4.27,0,0,1,56.31,10.1V9.913a4.2,4.2,0,0,1,.967-2.9,3.348,3.348,0,0,1,2.637-1.088,3.256,3.256,0,0,1,2.3.824,2.952,2.952,0,0,1,.934,2.164H61.473A1.63,1.63,0,0,0,61.008,7.8a1.5,1.5,0,0,0-1.11-.439,1.566,1.566,0,0,0-1.333.626,3.2,3.2,0,0,0-.476,1.9v.286a3.248,3.248,0,0,0,.465,1.923A1.565,1.565,0,0,0,59.9,12.726Zm6.826-8.577V6.075h1.4V7.394h-1.4v4.424a.974.974,0,0,0,.179.656.832.832,0,0,0,.641.2,2.742,2.742,0,0,0,.623-.073v1.377A4.383,4.383,0,0,1,67,14.146q-2.051,0-2.051-2.263V7.394h-1.3V6.075h1.3V4.149Zm2.2,5.815a4.673,4.673,0,0,1,.461-2.1,3.37,3.37,0,0,1,1.3-1.436,3.653,3.653,0,0,1,1.919-.5,3.462,3.462,0,0,1,2.6,1.033A4.062,4.062,0,0,1,76.29,9.7l.007.417a4.715,4.715,0,0,1-.45,2.095,3.329,3.329,0,0,1-1.289,1.428,3.679,3.679,0,0,1-1.937.505,3.438,3.438,0,0,1-2.684-1.117,4.278,4.278,0,0,1-1.007-2.977Zm1.78.154a3.193,3.193,0,0,0,.505,1.915,1.643,1.643,0,0,0,1.406.692,1.625,1.625,0,0,0,1.4-.7,3.527,3.527,0,0,0,.5-2.058,3.152,3.152,0,0,0-.516-1.9,1.74,1.74,0,0,0-2.787-.011A3.46,3.46,0,0,0,70.709,10.118Zm11.536,1.729a.807.807,0,0,0-.392-.725,4.167,4.167,0,0,0-1.3-.439,6.683,6.683,0,0,1-1.516-.483A2.023,2.023,0,0,1,77.7,8.331a2.109,2.109,0,0,1,.864-1.714,3.417,3.417,0,0,1,2.2-.688,3.555,3.555,0,0,1,2.3.7,2.231,2.231,0,0,1,.875,1.824h-1.78a1.1,1.1,0,0,0-.381-.853,1.46,1.46,0,0,0-1.011-.341,1.577,1.577,0,0,0-.956.271.854.854,0,0,0-.37.725.721.721,0,0,0,.344.637,4.734,4.734,0,0,0,1.392.458A6.587,6.587,0,0,1,82.82,9.9a2.328,2.328,0,0,1,.886.765A1.952,1.952,0,0,1,84,11.751a2.065,2.065,0,0,1-.886,1.732,3.779,3.779,0,0,1-2.322.663,4.1,4.1,0,0,1-1.736-.352,2.857,2.857,0,0,1-1.187-.967A2.288,2.288,0,0,1,77.44,11.5h1.729a1.254,1.254,0,0,0,.476.97,1.85,1.85,0,0,0,1.165.341,1.8,1.8,0,0,0,1.069-.267A.827.827,0,0,0,82.245,11.847ZM91.173,14h-1.78V2.75h1.78Zm5.427.146a3.682,3.682,0,0,1-2.743-1.066,3.866,3.866,0,0,1-1.051-2.838v-.22a4.755,4.755,0,0,1,.458-2.12,3.484,3.484,0,0,1,1.285-1.454,3.4,3.4,0,0,1,1.846-.52,3.11,3.11,0,0,1,2.5,1.033,4.367,4.367,0,0,1,.883,2.922V10.6H94.6a2.38,2.38,0,0,0,.656,1.553,1.968,1.968,0,0,0,1.447.571,2.41,2.41,0,0,0,1.992-.989l.959.916a3.2,3.2,0,0,1-1.271,1.1A3.978,3.978,0,0,1,96.6,14.146Zm-.212-6.79A1.5,1.5,0,0,0,95.2,7.87,2.657,2.657,0,0,0,94.63,9.3h3.391V9.166a2.163,2.163,0,0,0-.476-1.351A1.487,1.487,0,0,0,96.388,7.357Zm4.46,2.622a4.635,4.635,0,0,1,.868-2.948,2.786,2.786,0,0,1,2.3-1.1,2.61,2.61,0,0,1,2.131.945l.081-.8h1.6v7.683a3.193,3.193,0,0,1-.97,2.461,3.7,3.7,0,0,1-2.618.9,4.22,4.22,0,0,1-1.7-.363,3.026,3.026,0,0,1-1.263-.948l.842-1.069a2.544,2.544,0,0,0,2.021.974,1.966,1.966,0,0,0,1.4-.48,1.839,1.839,0,0,0,.513-1.41V13.29a2.62,2.62,0,0,1-2.051.857,2.779,2.779,0,0,1-2.274-1.106A4.785,4.785,0,0,1,100.848,9.979Zm1.772.154a3.191,3.191,0,0,0,.487,1.879,1.566,1.566,0,0,0,1.351.685,1.713,1.713,0,0,0,1.6-.923V8.287a1.688,1.688,0,0,0-1.582-.9,1.572,1.572,0,0,0-1.366.7A3.572,3.572,0,0,0,102.621,10.133ZM114.4,14a2.747,2.747,0,0,1-.205-.74,2.994,2.994,0,0,1-4.028.205,2.179,2.179,0,0,1-.754-1.685,2.25,2.25,0,0,1,.941-1.945,4.561,4.561,0,0,1,2.692-.677h1.091v-.52a1.388,1.388,0,0,0-.344-.985,1.365,1.365,0,0,0-1.047-.37,1.568,1.568,0,0,0-1,.3.941.941,0,0,0-.388.773h-1.78a1.975,1.975,0,0,1,.432-1.219,2.879,2.879,0,0,1,1.176-.89,4.129,4.129,0,0,1,1.659-.322,3.325,3.325,0,0,1,2.219.7,2.494,2.494,0,0,1,.85,1.967v3.574a4.051,4.051,0,0,0,.3,1.707V14Zm-1.956-1.282a2.025,2.025,0,0,0,.992-.256,1.713,1.713,0,0,0,.7-.688V10.279h-.959a2.624,2.624,0,0,0-1.487.344,1.115,1.115,0,0,0-.5.974,1.04,1.04,0,0,0,.341.817A1.319,1.319,0,0,0,112.442,12.718ZM119.671,14h-1.78V2.75h1.78Zm5.427.146a3.682,3.682,0,0,1-2.743-1.066,3.866,3.866,0,0,1-1.051-2.838v-.22a4.755,4.755,0,0,1,.458-2.12,3.484,3.484,0,0,1,1.285-1.454,3.4,3.4,0,0,1,1.846-.52,3.11,3.11,0,0,1,2.5,1.033,4.367,4.367,0,0,1,.883,2.922V10.6H123.1a2.38,2.38,0,0,0,.656,1.553,1.968,1.968,0,0,0,1.447.571,2.41,2.41,0,0,0,1.992-.989l.959.916a3.2,3.2,0,0,1-1.271,1.1A3.978,3.978,0,0,1,125.1,14.146Zm-.212-6.79a1.5,1.5,0,0,0-1.183.513,2.657,2.657,0,0,0-.575,1.428h3.391V9.166a2.163,2.163,0,0,0-.476-1.351A1.487,1.487,0,0,0,124.886,7.357Zm9.214,4.49a.807.807,0,0,0-.392-.725,4.167,4.167,0,0,0-1.3-.439,6.683,6.683,0,0,1-1.516-.483,2.023,2.023,0,0,1-1.333-1.868,2.109,2.109,0,0,1,.864-1.714,3.417,3.417,0,0,1,2.2-.688,3.555,3.555,0,0,1,2.3.7,2.231,2.231,0,0,1,.875,1.824h-1.78a1.1,1.1,0,0,0-.381-.853,1.46,1.46,0,0,0-1.011-.341,1.577,1.577,0,0,0-.956.271.854.854,0,0,0-.37.725.721.721,0,0,0,.344.637,4.734,4.734,0,0,0,1.392.458,6.587,6.587,0,0,1,1.644.549,2.328,2.328,0,0,1,.886.765,1.952,1.952,0,0,1,.289,1.084,2.065,2.065,0,0,1-.886,1.732,3.779,3.779,0,0,1-2.322.663,4.1,4.1,0,0,1-1.736-.352,2.857,2.857,0,0,1-1.187-.967A2.288,2.288,0,0,1,129.3,11.5h1.729a1.254,1.254,0,0,0,.476.97,1.85,1.85,0,0,0,1.165.341,1.8,1.8,0,0,0,1.069-.267A.827.827,0,0,0,134.1,11.847Z" transform="translate(953.734 846.542)" fill="#12263f"/>
    <path id="Trazado_838876" data-name="Trazado 838876" d="M34.989,10.528a3.85,3.85,0,0,1-1.26,2.662,4.3,4.3,0,0,1-2.922.956,4.158,4.158,0,0,1-2.245-.6,3.966,3.966,0,0,1-1.5-1.718,6.2,6.2,0,0,1-.549-2.585v-1a6.243,6.243,0,0,1,.535-2.659,4.029,4.029,0,0,1,1.534-1.772,4.28,4.28,0,0,1,2.311-.623,4.122,4.122,0,0,1,2.842.956,3.994,3.994,0,0,1,1.252,2.706H33.143a2.634,2.634,0,0,0-.67-1.659,2.215,2.215,0,0,0-1.578-.509,2.164,2.164,0,0,0-1.857.883,4.415,4.415,0,0,0-.663,2.592V9.1a4.684,4.684,0,0,0,.619,2.639,2.054,2.054,0,0,0,1.813.909,2.4,2.4,0,0,0,1.641-.491,2.559,2.559,0,0,0,.7-1.633ZM40.621,7.7a4.4,4.4,0,0,0-.725-.059,1.633,1.633,0,0,0-1.648.938V14h-1.78V6.075h1.7l.044.886A2.005,2.005,0,0,1,40,5.929a1.666,1.666,0,0,1,.63.1ZM43.639,14h-1.78V6.075h1.78Zm-1.89-9.983a.945.945,0,0,1,.26-.681.982.982,0,0,1,.743-.271,1,1,0,0,1,.747.271.937.937,0,0,1,.264.681.916.916,0,0,1-.264.67,1,1,0,0,1-.747.267.99.99,0,0,1-.743-.267A.923.923,0,0,1,41.749,4.017Zm6.057.132V6.075h1.4V7.394h-1.4v4.424a.974.974,0,0,0,.179.656.832.832,0,0,0,.641.2,2.742,2.742,0,0,0,.623-.073v1.377a4.383,4.383,0,0,1-1.172.168q-2.051,0-2.051-2.263V7.394h-1.3V6.075h1.3V4.149Zm6.248,10a3.682,3.682,0,0,1-2.743-1.066,3.866,3.866,0,0,1-1.051-2.838v-.22a4.755,4.755,0,0,1,.458-2.12A3.484,3.484,0,0,1,52,6.449a3.4,3.4,0,0,1,1.846-.52,3.11,3.11,0,0,1,2.5,1.033,4.367,4.367,0,0,1,.883,2.922V10.6H52.054a2.38,2.38,0,0,0,.656,1.553,1.968,1.968,0,0,0,1.447.571,2.41,2.41,0,0,0,1.992-.989l.959.916a3.2,3.2,0,0,1-1.271,1.1A3.978,3.978,0,0,1,54.054,14.146Zm-.212-6.79a1.5,1.5,0,0,0-1.183.513A2.657,2.657,0,0,0,52.083,9.3h3.391V9.166A2.163,2.163,0,0,0,55,7.815,1.487,1.487,0,0,0,53.841,7.357Zm8.921.344a4.4,4.4,0,0,0-.725-.059,1.633,1.633,0,0,0-1.648.938V14h-1.78V6.075h1.7l.044.886A2.005,2.005,0,0,1,62.14,5.929a1.666,1.666,0,0,1,.63.1ZM65.78,14H64V6.075h1.78ZM63.89,4.017a.945.945,0,0,1,.26-.681.982.982,0,0,1,.743-.271,1,1,0,0,1,.747.271.937.937,0,0,1,.264.681.916.916,0,0,1-.264.67,1,1,0,0,1-.747.267.99.99,0,0,1-.743-.267A.923.923,0,0,1,63.89,4.017Zm3.494,5.947a4.673,4.673,0,0,1,.461-2.1,3.37,3.37,0,0,1,1.3-1.436,3.653,3.653,0,0,1,1.919-.5,3.462,3.462,0,0,1,2.6,1.033A4.062,4.062,0,0,1,74.745,9.7l.007.417a4.715,4.715,0,0,1-.45,2.095,3.329,3.329,0,0,1-1.289,1.428,3.679,3.679,0,0,1-1.937.505,3.438,3.438,0,0,1-2.684-1.117,4.278,4.278,0,0,1-1.007-2.977Zm1.78.154a3.193,3.193,0,0,0,.505,1.915,1.643,1.643,0,0,0,1.406.692,1.625,1.625,0,0,0,1.4-.7,3.527,3.527,0,0,0,.5-2.058,3.152,3.152,0,0,0-.516-1.9,1.74,1.74,0,0,0-2.787-.011A3.46,3.46,0,0,0,69.164,10.118ZM80.7,11.847a.807.807,0,0,0-.392-.725,4.167,4.167,0,0,0-1.3-.439,6.683,6.683,0,0,1-1.516-.483,2.023,2.023,0,0,1-1.333-1.868,2.109,2.109,0,0,1,.864-1.714,3.417,3.417,0,0,1,2.2-.688,3.555,3.555,0,0,1,2.3.7,2.231,2.231,0,0,1,.875,1.824h-1.78A1.1,1.1,0,0,0,80.23,7.6a1.46,1.46,0,0,0-1.011-.341,1.577,1.577,0,0,0-.956.271.854.854,0,0,0-.37.725.721.721,0,0,0,.344.637,4.734,4.734,0,0,0,1.392.458,6.587,6.587,0,0,1,1.644.549,2.328,2.328,0,0,1,.886.765,1.952,1.952,0,0,1,.289,1.084,2.065,2.065,0,0,1-.886,1.732,3.779,3.779,0,0,1-2.322.663,4.1,4.1,0,0,1-1.736-.352,2.857,2.857,0,0,1-1.187-.967,2.288,2.288,0,0,1-.425-1.326h1.729a1.254,1.254,0,0,0,.476.97,1.85,1.85,0,0,0,1.165.341,1.8,1.8,0,0,0,1.069-.267A.827.827,0,0,0,80.7,11.847Zm13.975-1.729a4.718,4.718,0,0,1-.835,2.933,2.9,2.9,0,0,1-4.329.238v3.757H87.73V6.075h1.641l.073.806a2.614,2.614,0,0,1,2.131-.952,2.7,2.7,0,0,1,2.274,1.08,4.844,4.844,0,0,1,.824,3ZM92.9,9.964a3.305,3.305,0,0,0-.472-1.882,1.536,1.536,0,0,0-1.351-.7,1.638,1.638,0,0,0-1.567.9V11.8a1.653,1.653,0,0,0,1.582.923,1.534,1.534,0,0,0,1.329-.685A3.638,3.638,0,0,0,92.9,9.964ZM100.914,14a2.747,2.747,0,0,1-.205-.74,2.994,2.994,0,0,1-4.028.205,2.179,2.179,0,0,1-.754-1.685,2.25,2.25,0,0,1,.941-1.945,4.561,4.561,0,0,1,2.692-.677h1.091v-.52a1.388,1.388,0,0,0-.344-.985,1.365,1.365,0,0,0-1.047-.37,1.568,1.568,0,0,0-1,.3.941.941,0,0,0-.388.773h-1.78a1.975,1.975,0,0,1,.432-1.219,2.879,2.879,0,0,1,1.176-.89,4.129,4.129,0,0,1,1.659-.322,3.325,3.325,0,0,1,2.219.7,2.494,2.494,0,0,1,.85,1.967v3.574a4.051,4.051,0,0,0,.3,1.707V14Zm-1.956-1.282a2.025,2.025,0,0,0,.992-.256,1.713,1.713,0,0,0,.7-.688V10.279h-.959a2.624,2.624,0,0,0-1.487.344,1.115,1.115,0,0,0-.5.974,1.04,1.04,0,0,0,.341.817A1.319,1.319,0,0,0,98.958,12.718ZM108.443,7.7a4.4,4.4,0,0,0-.725-.059,1.633,1.633,0,0,0-1.648.938V14h-1.78V6.075h1.7l.044.886a2.005,2.005,0,0,1,1.787-1.033,1.666,1.666,0,0,1,.63.1Zm5.64,6.3a2.747,2.747,0,0,1-.205-.74,2.994,2.994,0,0,1-4.028.205,2.179,2.179,0,0,1-.754-1.685,2.25,2.25,0,0,1,.941-1.945,4.561,4.561,0,0,1,2.692-.677h1.091v-.52a1.388,1.388,0,0,0-.344-.985,1.365,1.365,0,0,0-1.047-.37,1.568,1.568,0,0,0-1,.3.941.941,0,0,0-.388.773h-1.78a1.975,1.975,0,0,1,.432-1.219,2.879,2.879,0,0,1,1.176-.89,4.129,4.129,0,0,1,1.659-.322,3.325,3.325,0,0,1,2.219.7,2.494,2.494,0,0,1,.85,1.967v3.574a4.051,4.051,0,0,0,.3,1.707V14Zm-1.956-1.282a2.025,2.025,0,0,0,.992-.256,1.713,1.713,0,0,0,.7-.688V10.279h-.959a2.624,2.624,0,0,0-1.487.344,1.115,1.115,0,0,0-.5.974,1.04,1.04,0,0,0,.341.817A1.319,1.319,0,0,0,112.127,12.718ZM123.092,14h-1.78V2.75h1.78Zm6.672,0a2.747,2.747,0,0,1-.205-.74,2.994,2.994,0,0,1-4.028.205,2.179,2.179,0,0,1-.754-1.685,2.25,2.25,0,0,1,.941-1.945,4.561,4.561,0,0,1,2.692-.677H129.5v-.52a1.388,1.388,0,0,0-.344-.985,1.365,1.365,0,0,0-1.047-.37,1.568,1.568,0,0,0-1,.3.941.941,0,0,0-.388.773h-1.78a1.975,1.975,0,0,1,.432-1.219,2.879,2.879,0,0,1,1.176-.89,4.129,4.129,0,0,1,1.659-.322,3.325,3.325,0,0,1,2.219.7,2.494,2.494,0,0,1,.85,1.967v3.574a4.051,4.051,0,0,0,.3,1.707V14Zm-1.956-1.282a2.025,2.025,0,0,0,.992-.256,1.713,1.713,0,0,0,.7-.688V10.279h-.959a2.624,2.624,0,0,0-1.487.344,1.115,1.115,0,0,0-.5.974,1.04,1.04,0,0,0,.341.817A1.319,1.319,0,0,0,127.809,12.718Zm-87.814,20.4a4.718,4.718,0,0,1-.835,2.933,2.9,2.9,0,0,1-4.329.238v3.757h-1.78V29.075h1.641l.073.806a2.614,2.614,0,0,1,2.131-.952,2.7,2.7,0,0,1,2.274,1.08,4.844,4.844,0,0,1,.824,3Zm-1.772-.154a3.305,3.305,0,0,0-.472-1.882,1.536,1.536,0,0,0-1.351-.7,1.638,1.638,0,0,0-1.567.9V34.8a1.653,1.653,0,0,0,1.582.923,1.534,1.534,0,0,0,1.329-.685A3.638,3.638,0,0,0,38.222,32.964ZM43.393,37h-1.78V25.75h1.78Zm6.672,0a2.747,2.747,0,0,1-.205-.74,2.994,2.994,0,0,1-4.028.205,2.179,2.179,0,0,1-.754-1.685,2.25,2.25,0,0,1,.941-1.945,4.561,4.561,0,0,1,2.692-.677H49.8v-.52a1.388,1.388,0,0,0-.344-.985,1.365,1.365,0,0,0-1.047-.37,1.568,1.568,0,0,0-1,.3.941.941,0,0,0-.388.773h-1.78a1.975,1.975,0,0,1,.432-1.219,2.879,2.879,0,0,1,1.176-.89,4.129,4.129,0,0,1,1.659-.322,3.325,3.325,0,0,1,2.219.7,2.494,2.494,0,0,1,.85,1.967v3.574a4.051,4.051,0,0,0,.3,1.707V37ZM48.11,35.718a2.025,2.025,0,0,0,.992-.256,1.713,1.713,0,0,0,.7-.688V33.279h-.959a2.624,2.624,0,0,0-1.487.344,1.115,1.115,0,0,0-.5.974,1.04,1.04,0,0,0,.341.817A1.319,1.319,0,0,0,48.11,35.718ZM55.1,29.075l.051.916a2.849,2.849,0,0,1,2.307-1.062q2.476,0,2.52,2.834V37H58.2V31.866a1.632,1.632,0,0,0-.326-1.117,1.371,1.371,0,0,0-1.066-.363,1.715,1.715,0,0,0-1.6.974V37H53.42V29.075Zm10.181,8.071a3.682,3.682,0,0,1-2.743-1.066,3.866,3.866,0,0,1-1.051-2.838v-.22a4.755,4.755,0,0,1,.458-2.12,3.484,3.484,0,0,1,1.285-1.454,3.4,3.4,0,0,1,1.846-.52,3.11,3.11,0,0,1,2.5,1.033,4.367,4.367,0,0,1,.883,2.922V33.6H63.279a2.38,2.38,0,0,0,.656,1.553,1.968,1.968,0,0,0,1.447.571,2.41,2.41,0,0,0,1.992-.989l.959.916a3.2,3.2,0,0,1-1.271,1.1A3.978,3.978,0,0,1,65.278,37.146Zm-.212-6.79a1.5,1.5,0,0,0-1.183.513,2.657,2.657,0,0,0-.575,1.428H66.7v-.132a2.163,2.163,0,0,0-.476-1.351A1.487,1.487,0,0,0,65.066,30.357ZM74.573,37a2.747,2.747,0,0,1-.205-.74,2.994,2.994,0,0,1-4.028.205,2.179,2.179,0,0,1-.754-1.685,2.25,2.25,0,0,1,.941-1.945,4.561,4.561,0,0,1,2.692-.677h1.091v-.52a1.388,1.388,0,0,0-.344-.985,1.365,1.365,0,0,0-1.047-.37,1.568,1.568,0,0,0-1,.3.941.941,0,0,0-.388.773h-1.78a1.975,1.975,0,0,1,.432-1.219,2.879,2.879,0,0,1,1.176-.89,4.129,4.129,0,0,1,1.659-.322,3.325,3.325,0,0,1,2.219.7,2.494,2.494,0,0,1,.85,1.967v3.574a4.051,4.051,0,0,0,.3,1.707V37Zm-1.956-1.282a2.025,2.025,0,0,0,.992-.256,1.713,1.713,0,0,0,.7-.688V33.279h-.959a2.624,2.624,0,0,0-1.487.344,1.115,1.115,0,0,0-.5.974,1.04,1.04,0,0,0,.341.817A1.319,1.319,0,0,0,72.617,35.718Zm8.591.007a1.609,1.609,0,0,0,1.106-.388,1.326,1.326,0,0,0,.469-.959H84.46A2.614,2.614,0,0,1,84,35.759a3.027,3.027,0,0,1-1.172,1.014,3.492,3.492,0,0,1-1.6.374,3.379,3.379,0,0,1-2.637-1.077,4.27,4.27,0,0,1-.974-2.974v-.183a4.2,4.2,0,0,1,.967-2.9,3.348,3.348,0,0,1,2.637-1.088,3.256,3.256,0,0,1,2.3.824,2.952,2.952,0,0,1,.934,2.164H82.783a1.63,1.63,0,0,0-.465-1.121,1.5,1.5,0,0,0-1.11-.439,1.566,1.566,0,0,0-1.333.626,3.2,3.2,0,0,0-.476,1.9v.286a3.248,3.248,0,0,0,.465,1.923A1.565,1.565,0,0,0,81.208,35.726ZM87.7,37h-1.78V29.075H87.7Zm-1.89-9.983a.945.945,0,0,1,.26-.681.982.982,0,0,1,.743-.271,1,1,0,0,1,.747.271.937.937,0,0,1,.264.681.916.916,0,0,1-.264.67,1,1,0,0,1-.747.267.99.99,0,0,1-.743-.267A.923.923,0,0,1,85.808,27.017ZM89.3,32.964a4.673,4.673,0,0,1,.461-2.1,3.37,3.37,0,0,1,1.3-1.436,3.653,3.653,0,0,1,1.919-.5,3.462,3.462,0,0,1,2.6,1.033,4.062,4.062,0,0,1,1.08,2.739l.007.417a4.715,4.715,0,0,1-.45,2.095,3.329,3.329,0,0,1-1.289,1.428,3.679,3.679,0,0,1-1.937.505,3.438,3.438,0,0,1-2.684-1.117A4.278,4.278,0,0,1,89.3,33.052Zm1.78.154a3.193,3.193,0,0,0,.505,1.915,1.643,1.643,0,0,0,1.406.692,1.625,1.625,0,0,0,1.4-.7,3.527,3.527,0,0,0,.5-2.058,3.152,3.152,0,0,0-.516-1.9,1.74,1.74,0,0,0-2.787-.011A3.46,3.46,0,0,0,91.081,33.118Zm2.388-7.368H95.5l-2.029,2.219-1.428,0Zm6.357,3.325.051.916a2.849,2.849,0,0,1,2.307-1.062q2.476,0,2.52,2.834V37h-1.78V31.866a1.632,1.632,0,0,0-.326-1.117,1.371,1.371,0,0,0-1.066-.363,1.715,1.715,0,0,0-1.6.974V37h-1.78V29.075Zm10.093,3.9a4.712,4.712,0,0,1,.85-2.941,2.722,2.722,0,0,1,2.278-1.11,2.587,2.587,0,0,1,2.036.879V25.75h1.78V37h-1.611l-.088-.82a2.624,2.624,0,0,1-2.131.967,2.707,2.707,0,0,1-2.252-1.121A4.884,4.884,0,0,1,109.919,32.979Zm1.78.154a3.3,3.3,0,0,0,.465,1.886,1.509,1.509,0,0,0,1.322.677,1.681,1.681,0,0,0,1.6-.974V31.338a1.655,1.655,0,0,0-1.582-.952,1.52,1.52,0,0,0-1.333.685A3.674,3.674,0,0,0,111.7,33.133Zm10.51,4.014a3.682,3.682,0,0,1-2.743-1.066,3.866,3.866,0,0,1-1.051-2.838v-.22a4.755,4.755,0,0,1,.458-2.12,3.484,3.484,0,0,1,1.285-1.454,3.4,3.4,0,0,1,1.846-.52,3.11,3.11,0,0,1,2.5,1.033,4.367,4.367,0,0,1,.883,2.922V33.6H120.21a2.38,2.38,0,0,0,.656,1.553,1.968,1.968,0,0,0,1.447.571,2.41,2.41,0,0,0,1.992-.989l.959.916a3.2,3.2,0,0,1-1.271,1.1A3.978,3.978,0,0,1,122.209,37.146ZM122,30.357a1.5,1.5,0,0,0-1.183.513,2.657,2.657,0,0,0-.575,1.428h3.391v-.132a2.163,2.163,0,0,0-.476-1.351A1.487,1.487,0,0,0,122,30.357ZM46.209,60A2.747,2.747,0,0,1,46,59.26a2.994,2.994,0,0,1-4.028.205,2.179,2.179,0,0,1-.754-1.685,2.25,2.25,0,0,1,.941-1.945,4.561,4.561,0,0,1,2.692-.677h1.091v-.52a1.388,1.388,0,0,0-.344-.985,1.365,1.365,0,0,0-1.047-.37,1.568,1.568,0,0,0-1,.3.941.941,0,0,0-.388.773H41.39a1.975,1.975,0,0,1,.432-1.219A2.879,2.879,0,0,1,43,52.251a4.129,4.129,0,0,1,1.659-.322,3.325,3.325,0,0,1,2.219.7,2.494,2.494,0,0,1,.85,1.967v3.574a4.051,4.051,0,0,0,.3,1.707V60Zm-1.956-1.282a2.025,2.025,0,0,0,.992-.256,1.713,1.713,0,0,0,.7-.688V56.279h-.959a2.624,2.624,0,0,0-1.487.344,1.115,1.115,0,0,0-.5.974,1.04,1.04,0,0,0,.341.817A1.319,1.319,0,0,0,44.254,58.718Zm8.591.007a1.609,1.609,0,0,0,1.106-.388,1.326,1.326,0,0,0,.469-.959H56.1a2.614,2.614,0,0,1-.461,1.381,3.027,3.027,0,0,1-1.172,1.014,3.492,3.492,0,0,1-1.6.374A3.379,3.379,0,0,1,50.23,59.07a4.27,4.27,0,0,1-.974-2.974v-.183a4.2,4.2,0,0,1,.967-2.9,3.348,3.348,0,0,1,2.637-1.088,3.256,3.256,0,0,1,2.3.824,2.952,2.952,0,0,1,.934,2.164H54.42a1.63,1.63,0,0,0-.465-1.121,1.5,1.5,0,0,0-1.11-.439,1.566,1.566,0,0,0-1.333.626,3.2,3.2,0,0,0-.476,1.9v.286a3.248,3.248,0,0,0,.465,1.923A1.565,1.565,0,0,0,52.845,58.726Zm6.826-8.577v1.926h1.4v1.318h-1.4v4.424a.974.974,0,0,0,.179.656.832.832,0,0,0,.641.2,2.742,2.742,0,0,0,.623-.073v1.377a4.383,4.383,0,0,1-1.172.168q-2.051,0-2.051-2.263v-4.49h-1.3V52.075h1.3V50.149ZM64.322,60h-1.78V52.075h1.78Zm-1.89-9.983a.945.945,0,0,1,.26-.681.982.982,0,0,1,.743-.271,1,1,0,0,1,.747.271.937.937,0,0,1,.264.681.916.916,0,0,1-.264.67,1,1,0,0,1-.747.267.99.99,0,0,1-.743-.267A.923.923,0,0,1,62.433,50.017Zm6.621,7.727,1.677-5.669h1.838L69.823,60H68.277l-2.769-7.925h1.846ZM75.572,60h-1.78V52.075h1.78Zm-1.89-9.983a.945.945,0,0,1,.26-.681.982.982,0,0,1,.743-.271,1,1,0,0,1,.747.271.937.937,0,0,1,.264.681.916.916,0,0,1-.264.67,1,1,0,0,1-.747.267.99.99,0,0,1-.743-.267A.923.923,0,0,1,73.683,50.017Zm3.494,5.962a4.712,4.712,0,0,1,.85-2.941,2.722,2.722,0,0,1,2.278-1.11,2.587,2.587,0,0,1,2.036.879V48.75h1.78V60H82.508l-.088-.82a2.624,2.624,0,0,1-2.131.967,2.707,2.707,0,0,1-2.252-1.121A4.884,4.884,0,0,1,77.176,55.979Zm1.78.154a3.3,3.3,0,0,0,.465,1.886,1.509,1.509,0,0,0,1.322.677,1.681,1.681,0,0,0,1.6-.974V54.338a1.655,1.655,0,0,0-1.582-.952,1.52,1.52,0,0,0-1.333.685A3.674,3.674,0,0,0,78.956,56.133ZM90.711,60a2.747,2.747,0,0,1-.205-.74,2.994,2.994,0,0,1-4.028.205,2.179,2.179,0,0,1-.754-1.685,2.25,2.25,0,0,1,.941-1.945,4.561,4.561,0,0,1,2.692-.677h1.091v-.52a1.388,1.388,0,0,0-.344-.985,1.365,1.365,0,0,0-1.047-.37,1.568,1.568,0,0,0-1,.3.941.941,0,0,0-.388.773h-1.78a1.975,1.975,0,0,1,.432-1.219,2.879,2.879,0,0,1,1.176-.89,4.129,4.129,0,0,1,1.659-.322,3.325,3.325,0,0,1,2.219.7,2.494,2.494,0,0,1,.85,1.967v3.574a4.051,4.051,0,0,0,.3,1.707V60Zm-1.956-1.282a2.025,2.025,0,0,0,.992-.256,1.713,1.713,0,0,0,.7-.688V56.279h-.959A2.624,2.624,0,0,0,88,56.624a1.115,1.115,0,0,0-.5.974,1.04,1.04,0,0,0,.341.817A1.319,1.319,0,0,0,88.756,58.718Zm5-2.739a4.712,4.712,0,0,1,.85-2.941,2.722,2.722,0,0,1,2.278-1.11,2.587,2.587,0,0,1,2.036.879V48.75h1.78V60H99.09L99,59.18a2.624,2.624,0,0,1-2.131.967,2.707,2.707,0,0,1-2.252-1.121A4.884,4.884,0,0,1,93.758,55.979Zm1.78.154A3.3,3.3,0,0,0,96,58.019a1.509,1.509,0,0,0,1.322.677,1.681,1.681,0,0,0,1.6-.974V54.338a1.655,1.655,0,0,0-1.582-.952,1.52,1.52,0,0,0-1.333.685A3.674,3.674,0,0,0,95.538,56.133Zm10.51,4.014a3.682,3.682,0,0,1-2.743-1.066,3.866,3.866,0,0,1-1.051-2.838v-.22a4.755,4.755,0,0,1,.458-2.12A3.484,3.484,0,0,1,104,52.449a3.4,3.4,0,0,1,1.846-.52,3.11,3.11,0,0,1,2.5,1.033,4.367,4.367,0,0,1,.883,2.922V56.6h-5.178a2.38,2.38,0,0,0,.656,1.553,1.968,1.968,0,0,0,1.447.571,2.41,2.41,0,0,0,1.992-.989l.959.916a3.2,3.2,0,0,1-1.271,1.1A3.978,3.978,0,0,1,106.048,60.146Zm-.212-6.79a1.5,1.5,0,0,0-1.183.513,2.657,2.657,0,0,0-.575,1.428h3.391v-.132a2.163,2.163,0,0,0-.476-1.351A1.487,1.487,0,0,0,105.836,53.357Zm9.214,4.49a.807.807,0,0,0-.392-.725,4.167,4.167,0,0,0-1.3-.439,6.683,6.683,0,0,1-1.516-.483,2.023,2.023,0,0,1-1.333-1.868,2.109,2.109,0,0,1,.864-1.714,3.417,3.417,0,0,1,2.2-.688,3.555,3.555,0,0,1,2.3.7,2.231,2.231,0,0,1,.875,1.824h-1.78a1.1,1.1,0,0,0-.381-.853,1.46,1.46,0,0,0-1.011-.341,1.577,1.577,0,0,0-.956.271.854.854,0,0,0-.37.725.721.721,0,0,0,.344.637,4.734,4.734,0,0,0,1.392.458,6.587,6.587,0,0,1,1.644.549,2.328,2.328,0,0,1,.886.765,1.952,1.952,0,0,1,.289,1.084,2.065,2.065,0,0,1-.886,1.732,3.779,3.779,0,0,1-2.322.663,4.1,4.1,0,0,1-1.736-.352,2.857,2.857,0,0,1-1.187-.967,2.288,2.288,0,0,1-.425-1.326h1.729a1.254,1.254,0,0,0,.476.97,1.85,1.85,0,0,0,1.165.341,1.8,1.8,0,0,0,1.069-.267A.827.827,0,0,0,115.05,57.847Z" transform="translate(718 843.121)" fill="#12263f"/>
    <path id="Trazado_838877" data-name="Trazado 838877" d="M57.119,9.9H55.053V14H53.2V3.336h3.75a4.362,4.362,0,0,1,2.849.828,2.93,2.93,0,0,1,1,2.4,3,3,0,0,1-.516,1.792,3.286,3.286,0,0,1-1.439,1.111l2.4,4.441V14H59.258ZM55.053,8.4h1.9a2.118,2.118,0,0,0,1.465-.472,1.647,1.647,0,0,0,.527-1.293,1.754,1.754,0,0,0-.487-1.326,2.069,2.069,0,0,0-1.454-.483H55.053ZM64.282,14H62.5V6.075h1.78Zm-1.89-9.983a.945.945,0,0,1,.26-.681.982.982,0,0,1,.743-.271,1,1,0,0,1,.747.271.937.937,0,0,1,.264.681.916.916,0,0,1-.264.67,1,1,0,0,1-.747.267.99.99,0,0,1-.743-.267A.923.923,0,0,1,62.392,4.017Zm7.317,10.129a3.682,3.682,0,0,1-2.743-1.066,3.866,3.866,0,0,1-1.051-2.838v-.22a4.755,4.755,0,0,1,.458-2.12,3.484,3.484,0,0,1,1.285-1.454,3.4,3.4,0,0,1,1.846-.52,3.11,3.11,0,0,1,2.5,1.033,4.367,4.367,0,0,1,.883,2.922V10.6H67.71a2.38,2.38,0,0,0,.656,1.553,1.968,1.968,0,0,0,1.447.571,2.41,2.41,0,0,0,1.992-.989l.959.916a3.2,3.2,0,0,1-1.271,1.1A3.978,3.978,0,0,1,69.709,14.146ZM69.5,7.357a1.5,1.5,0,0,0-1.183.513A2.657,2.657,0,0,0,67.739,9.3H71.13V9.166a2.163,2.163,0,0,0-.476-1.351A1.487,1.487,0,0,0,69.5,7.357Zm9.214,4.49a.807.807,0,0,0-.392-.725,4.167,4.167,0,0,0-1.3-.439A6.683,6.683,0,0,1,75.5,10.2,2.023,2.023,0,0,1,74.17,8.331a2.109,2.109,0,0,1,.864-1.714,3.417,3.417,0,0,1,2.2-.688,3.555,3.555,0,0,1,2.3.7A2.231,2.231,0,0,1,80.4,8.456h-1.78a1.1,1.1,0,0,0-.381-.853,1.46,1.46,0,0,0-1.011-.341,1.577,1.577,0,0,0-.956.271.854.854,0,0,0-.37.725.721.721,0,0,0,.344.637,4.734,4.734,0,0,0,1.392.458,6.587,6.587,0,0,1,1.644.549,2.328,2.328,0,0,1,.886.765,1.952,1.952,0,0,1,.289,1.084,2.065,2.065,0,0,1-.886,1.732,3.779,3.779,0,0,1-2.322.663,4.1,4.1,0,0,1-1.736-.352,2.857,2.857,0,0,1-1.187-.967,2.288,2.288,0,0,1-.425-1.326h1.729a1.254,1.254,0,0,0,.476.97,1.85,1.85,0,0,0,1.165.341,1.8,1.8,0,0,0,1.069-.267A.827.827,0,0,0,78.711,11.847ZM81.7,9.979a4.635,4.635,0,0,1,.868-2.948,2.786,2.786,0,0,1,2.3-1.1A2.61,2.61,0,0,1,87,6.874l.081-.8h1.6v7.683a3.193,3.193,0,0,1-.97,2.461,3.7,3.7,0,0,1-2.618.9,4.22,4.22,0,0,1-1.7-.363,3.026,3.026,0,0,1-1.263-.948l.842-1.069a2.544,2.544,0,0,0,2.021.974,1.966,1.966,0,0,0,1.4-.48,1.839,1.839,0,0,0,.513-1.41V13.29a2.62,2.62,0,0,1-2.051.857,2.779,2.779,0,0,1-2.274-1.106A4.785,4.785,0,0,1,81.7,9.979Zm1.772.154a3.191,3.191,0,0,0,.487,1.879,1.566,1.566,0,0,0,1.351.685,1.713,1.713,0,0,0,1.6-.923V8.287a1.688,1.688,0,0,0-1.582-.9,1.572,1.572,0,0,0-1.366.7A3.572,3.572,0,0,0,83.471,10.133Zm6.709-.168a4.673,4.673,0,0,1,.461-2.1,3.37,3.37,0,0,1,1.3-1.436,3.653,3.653,0,0,1,1.919-.5,3.462,3.462,0,0,1,2.6,1.033A4.062,4.062,0,0,1,97.541,9.7l.007.417a4.715,4.715,0,0,1-.45,2.095,3.329,3.329,0,0,1-1.289,1.428,3.679,3.679,0,0,1-1.937.505,3.438,3.438,0,0,1-2.684-1.117,4.278,4.278,0,0,1-1.007-2.977Zm1.78.154a3.193,3.193,0,0,0,.505,1.915,1.643,1.643,0,0,0,1.406.692,1.625,1.625,0,0,0,1.4-.7,3.527,3.527,0,0,0,.5-2.058,3.152,3.152,0,0,0-.516-1.9,1.74,1.74,0,0,0-2.787-.011A3.46,3.46,0,0,0,91.96,10.118ZM103.5,11.847a.807.807,0,0,0-.392-.725,4.167,4.167,0,0,0-1.3-.439,6.683,6.683,0,0,1-1.516-.483,2.023,2.023,0,0,1-1.333-1.868,2.109,2.109,0,0,1,.864-1.714,3.417,3.417,0,0,1,2.2-.688,3.555,3.555,0,0,1,2.3.7,2.231,2.231,0,0,1,.875,1.824h-1.78a1.1,1.1,0,0,0-.381-.853,1.46,1.46,0,0,0-1.011-.341,1.577,1.577,0,0,0-.956.271.854.854,0,0,0-.37.725.721.721,0,0,0,.344.637,4.734,4.734,0,0,0,1.392.458,6.587,6.587,0,0,1,1.644.549,2.328,2.328,0,0,1,.886.765,1.952,1.952,0,0,1,.289,1.084,2.065,2.065,0,0,1-.886,1.732,3.779,3.779,0,0,1-2.322.663,4.1,4.1,0,0,1-1.736-.352,2.857,2.857,0,0,1-1.187-.967,2.288,2.288,0,0,1-.425-1.326h1.729a1.254,1.254,0,0,0,.476.97,1.85,1.85,0,0,0,1.165.341,1.8,1.8,0,0,0,1.069-.267A.827.827,0,0,0,103.5,11.847Z" transform="translate(1187.469 843.121)" fill="#12263f"/>
    <path id="Trazado_838244" data-name="Trazado 838244" d="M26.086,0A26.086,26.086,0,1,1,0,26.086,26.086,26.086,0,0,1,26.086,0Z" transform="translate(538 782.672)" fill="#366a9e"/>
    <g id="frSa2F" transform="translate(1066.854 106.691)">
      <g id="Grupo_155878" data-name="Grupo 155878" transform="translate(-517.109 687.009)">
        <path id="Trazado_198257" data-name="Trazado 198257" d="M-515.394,687.009h25.03A2.46,2.46,0,0,1-488.6,689.7c-.041,5.2,0,10.406-.032,15.609a2.932,2.932,0,0,0,.708,2.028,7.077,7.077,0,0,1-1.189,9.938,8.744,8.744,0,0,1-3.652,1.536h-1.556a.6.6,0,0,0-.179-.1,6.843,6.843,0,0,1-5.368-3.867c-.21-.414-.484-.421-.846-.421q-6.921.008-13.842,0a2.252,2.252,0,0,1-2.529-2.514c0-7.365.022-14.729-.02-22.094A2.623,2.623,0,0,1-515.394,687.009Zm14.919,26.315c-.505-3.1.321-5.663,2.857-7.457a6.982,6.982,0,0,1,7.91-.233V692.54h-26.265c-.014.176-.034.313-.034.449q0,9.5,0,19c0,.974.382,1.328,1.394,1.33q4.735.008,9.471,0Zm10.814-21.952v-1.526c0-1.471-.259-1.737-1.7-1.737h-22.954c-.259,0-.568-.075-.765.04-.334.194-.8.479-.848.781a16.637,16.637,0,0,0-.04,2.441Zm2.17,20.283a6.077,6.077,0,0,0-6.355-6.016,6.084,6.084,0,0,0-5.711,6.3,6,6,0,0,0,6.244,5.752A6.006,6.006,0,0,0-487.491,711.656Z" transform="translate(517.109 -687.009)" fill="#fff"/>
        <path id="Trazado_198258" data-name="Trazado 198258" d="M-493.14,777.028l.777.848c-1.415.829-.857,2.206-.921,3.411-.057,1.089-.027,1.106-1.121,1.107-.8,0-1.6-.02-2.4.007-.558.018-.845-.2-.843-.765,0-.963,0-1.926,0-2.889,0-.524.256-.766.795-.734.445.026.893-.011,1.339.009C-494.605,778.061-493.7,778.113-493.14,777.028Zm-2.673,2.843.546-.72h-1.26v2.079h2.147v-1.3l-.665.576Z" transform="translate(500.396 -764.304)" fill="#fff"/>
        <path id="Trazado_198259" data-name="Trazado 198259" d="M-436.6,753.342v.982h-14.165v-.982Z" transform="translate(460.145 -743.966)" fill="#fff"/>
        <path id="Trazado_198260" data-name="Trazado 198260" d="M-435.329,785.34v-1h14.151v1Z" transform="translate(446.888 -770.582)" fill="#fff"/>
        <path id="Trazado_198261" data-name="Trazado 198261" d="M-493.149,730.5l.735.736c-.021.1-.016.164-.041.179-1.015.617-.841,1.614-.846,2.568-.011,2.112.281,1.821-1.82,1.843-.588.006-1.177-.018-1.764.006-.5.02-.757-.188-.759-.688q-.006-1.481,0-2.962a.611.611,0,0,1,.707-.679c.47.006.941-.016,1.411,0C-494.591,731.547-493.658,731.6-493.149,730.5Zm-3.366,2.079v2.174h2.141V733.42l-.642.528-.736-.673.547-.691Z" transform="translate(500.396 -724.356)" fill="#fff"/>
        <path id="Trazado_198262" data-name="Trazado 198262" d="M-493.1,824.3l.827.759c-1.277.587-1.029,1.674-1.039,2.686-.02,2,.3,1.77-1.808,1.785-.587,0-1.175-.015-1.761,0-.534.018-.783-.215-.779-.747q.009-1.409,0-2.817c0-.519.21-.79.762-.76.4.022.8,0,1.2,0A2.723,2.723,0,0,0-493.1,824.3Zm-2.089,1.976h-1.341v2.176h2.147v-1.331l-.754.618-.677-.738Z" transform="translate(500.408 -804.898)" fill="#fff"/>
        <path id="Trazado_198263" data-name="Trazado 198263" d="M-421.082,737.979v.963h-14.153v-.963Z" transform="translate(446.809 -730.774)" fill="#fff"/>
        <path id="Trazado_198264" data-name="Trazado 198264" d="M-439.254,801.093h-11.365v-.948h11.365Z" transform="translate(460.017 -784.153)" fill="#fff"/>
        <path id="Trazado_198265" data-name="Trazado 198265" d="M-444.766,846.345v1.012h-5.891v-1.012Z" transform="translate(460.05 -823.823)" fill="#fff"/>
        <path id="Trazado_198266" data-name="Trazado 198266" d="M-430.9,831.154v.926h-4.268v-.926Z" transform="translate(446.753 -810.779)" fill="#fff"/>
        <path id="Trazado_198267" data-name="Trazado 198267" d="M-450.662,784.28h.963V785.3h-.963Z" transform="translate(460.054 -770.531)" fill="#fff"/>
        <path id="Trazado_198268" data-name="Trazado 198268" d="M-450.774,738.839v-.975h.965v.975Z" transform="translate(460.15 -730.676)" fill="#fff"/>
        <path id="Trazado_198269" data-name="Trazado 198269" d="M-450.8,832.052V831.1h.964v.947Z" transform="translate(460.176 -810.737)" fill="#fff"/>
        <path id="Trazado_198270" data-name="Trazado 198270" d="M-484.57,704.023h-.99v-.955h.99Z" transform="translate(490.019 -700.799)" fill="#fff"/>
        <path id="Trazado_198271" data-name="Trazado 198271" d="M-499.935,703.219v.922h-.958v-.922Z" transform="translate(503.185 -700.928)" fill="#fff"/>
        <path id="Trazado_198272" data-name="Trazado 198272" d="M-469.908,703.021h.948v.954h-.948Z" transform="translate(476.58 -700.758)" fill="#fff"/>
        <path id="Trazado_198273" data-name="Trazado 198273" d="M-380.114,836.694a4.852,4.852,0,0,1-4.84-5.115,4.864,4.864,0,0,1,5.069-4.674,4.848,4.848,0,0,1,4.738,5.01A4.839,4.839,0,0,1-380.114,836.694Zm3.926-4.849a3.928,3.928,0,0,0-3.889-3.917,3.945,3.945,0,0,0-3.842,3.821,3.928,3.928,0,0,0,3.818,3.92A3.938,3.938,0,0,0-376.188,831.845Z" transform="translate(403.635 -807.13)" fill="#fff"/>
        <path id="Trazado_198274" data-name="Trazado 198274" d="M-363.894,848.712l.806.861c-1,.988-1.962,1.982-2.981,2.917a.864.864,0,0,1-.829-.029c-.561-.453-1.046-1-1.62-1.569l.856-.784,1.147,1.4Z" transform="translate(389.522 -825.856)" fill="#fff"/>
      </g>
    </g>
    <path id="Trazado_838245" data-name="Trazado 838245" d="M26.086,0A26.086,26.086,0,1,1,0,26.086,26.086,26.086,0,0,1,26.086,0Z" transform="translate(771 782.672)" fill="#ff981e"/>
    <g id="igIudo.tif" transform="translate(779.724 790.978)">
      <g id="Grupo_155494" data-name="Grupo 155494">
        <path id="Trazado_197412" data-name="Trazado 197412" d="M-1332.061,1297.651h-1.755c-.068.342-.125.685-.2,1.022a6.706,6.706,0,0,1-2.422,3.815.618.618,0,0,0-.281.59c.025.29.006.584.006.922h1.147v1.189h-1.138v2.305h-8.169v-2.286h-1.13v-1.179h1.095v-.913c-.774.207-1.533.453-2.31.61a14.2,14.2,0,0,1-8.675-.9,14.361,14.361,0,0,1-5.342-3.987,14.359,14.359,0,0,1-3.33-7.625,16.279,16.279,0,0,1,0-3.513.686.686,0,0,0-.173-.479c-.743-.769-1.505-1.518-2.261-2.275-.081-.081-.157-.167-.274-.291.316-.3.615-.6.927-.882a.283.283,0,0,0,.084-.391c-.14-.282-.252-.579-.385-.891h-1.489v-4.661c.406,0,.813-.01,1.219,0,.2.008.281-.079.39-.249a1,1,0,0,0-.338-1.569,5.019,5.019,0,0,1-.392-.316l3.375-3.371c.248.271.534.563.794.876a.325.325,0,0,0,.507.077.167.167,0,0,1,.065-.027c.7-.117.876-.555.767-1.2a3.49,3.49,0,0,1,0-.633h4.654v1.515c.3.129.6.244.879.38a.287.287,0,0,0,.394-.068c.291-.318.6-.62.913-.942.87.874,1.7,1.7,2.524,2.542a.553.553,0,0,0,.523.184,13.711,13.711,0,0,1,3.687.005,14.2,14.2,0,0,1,8.734,4.574,14.266,14.266,0,0,1,3.688,12.259.681.681,0,0,0,.146.489,6.868,6.868,0,0,1,1.494,2.682c.129.457.211.928.318,1.407h1.731Zm-15.716-1.188a6.918,6.918,0,0,1,3.979-5.713,6.856,6.856,0,0,1,6.924.49,10.343,10.343,0,0,0,.072-3.135,13.054,13.054,0,0,0-2-5.76,13.263,13.263,0,0,0-7.726-5.754,13.2,13.2,0,0,0-5.4-.37c-.6.078-.788.4-.545.951a2.1,2.1,0,0,1,.138.36.347.347,0,0,0,.422.3c.4-.024.81-.006,1.214-.006v4.66a3.033,3.033,0,0,1-.539,0,1.011,1.011,0,0,0-1.348.877c-.04.182-.059.293.087.426.31.282.6.582.857.828l-3.345,3.348c-.11-.13-.258-.282-.38-.454-.357-.5-.774-.7-1.333-.3a.322.322,0,0,1-.13.051c-.213.038-.274.162-.266.373.016.417,0,.834,0,1.246h-4.661c0-.441.01-.862-.007-1.281a.4.4,0,0,0-.161-.3,6.5,6.5,0,0,0-.81-.337.244.244,0,0,0-.216.027,1.687,1.687,0,0,0-.4.628,12.682,12.682,0,0,0,.08,4.273,13.145,13.145,0,0,0,2.727,5.948,13.236,13.236,0,0,0,5.52,4.07,13.232,13.232,0,0,0,7.188.74c.729-.123,1.44-.347,2.179-.53a.913.913,0,0,0-.072-.132,7,7,0,0,1-2-4.134c-.01-.082-.176-.2-.274-.207-.5-.021-1-.01-1.517-.01v-1.177Zm-16.984-20.06c-.336.871-.623,1.635-.932,2.391a.406.406,0,0,1-.293.2c-.322.025-.647.009-.968.009v2.308c.346,0,.663-.011.978.007a.352.352,0,0,1,.267.141c.314.788.61,1.583.944,2.462l-.777.737,1.681,1.675.7-.826c.846.322,1.6.6,2.346.9a.445.445,0,0,1,.219.318c.03.322.01.648.01.966h2.317v-1.146l2.609-1.082.711.836,1.667-1.667-.808-.712c.335-.883.623-1.659.931-2.427a.372.372,0,0,1,.275-.174c.333-.021.669-.008,1-.008V1279c-.344,0-.672.014-1-.008a.377.377,0,0,1-.279-.175c-.308-.767-.6-1.542-.928-2.411l.791-.679-1.693-1.693-.7.786c-.85-.326-1.625-.618-2.392-.928a.367.367,0,0,1-.186-.264c-.023-.334-.009-.67-.009-1h-2.308c0,.346.011.673-.007,1a.343.343,0,0,1-.151.259c-.778.311-1.563.6-2.476.952l-.679-.818-1.68,1.685ZM-1337.9,1304c0-.476.029-.912-.009-1.342a.861.861,0,0,1,.428-.86,5.579,5.579,0,0,0,2.354-5.981,5.78,5.78,0,0,0-7.86-4.153,5.853,5.853,0,0,0-3.588,6.068,5.918,5.918,0,0,0,2.642,4.223.6.6,0,0,1,.222.415c.026.536.01,1.074.01,1.619h2.311V1299.3l-.266-.107a2.317,2.317,0,0,1-1.435-2.55,2.357,2.357,0,0,1,2.27-1.945,2.383,2.383,0,0,1,2.318,1.9,2.32,2.32,0,0,1-1.4,2.576.406.406,0,0,0-.313.452c.011,1.339,0,2.679.006,4.018,0,.113.014.225.022.349Zm-.02,1.222h-5.758v1.1h5.758Zm-4.022-8.193a1.152,1.152,0,0,0,1.147,1.178,1.159,1.159,0,0,0,1.148-1.144,1.152,1.152,0,0,0-1.15-1.172A1.147,1.147,0,0,0-1341.942,1297.024Z" transform="translate(1368.138 -1271.425)" fill="#fff"/>
        <path id="Trazado_197413" data-name="Trazado 197413" d="M-1274.694,1534.811l-1.044,1.731-1.008-.6,2.027-3.382,3.986,1.989-.524,1.052-2.3-1.148a8.588,8.588,0,0,0,2.9,4.474,8.629,8.629,0,0,0,4.882,1.933v1.172a9.732,9.732,0,0,1-5.6-2.175A9.9,9.9,0,0,1-1274.694,1534.811Z" transform="translate(1283.202 -1514.116)" fill="#fff"/>
        <path id="Trazado_197414" data-name="Trazado 197414" d="M-1104.488,1387.921v-1.207a10.06,10.06,0,0,1,8.952,7.2l1.014-1.674,1.007.6c-.64,1.065-1.265,2.111-1.9,3.15a.289.289,0,0,1-.246.114c-1.257-.41-2.51-.833-3.79-1.262l.37-1.109,2.447.809a8.548,8.548,0,0,0-2.861-4.6A8.621,8.621,0,0,0-1104.488,1387.921Z" transform="translate(1123.111 -1378.571)" fill="#fff"/>
        <path id="Trazado_197415" data-name="Trazado 197415" d="M-1310.735,1333.849a4.636,4.636,0,0,1,4.65-4.657,4.65,4.65,0,0,1,4.664,4.649,4.663,4.663,0,0,1-4.656,4.663A4.65,4.65,0,0,1-1310.735,1333.849Zm7.425,2.005.146-.025.577-1.417h-1.142v-1.165h1.135l-.62-1.5-.775.846-.894-.874.828-.669-.03-.122-1.434-.581v1.151h-1.166v-1.15l-1.5.629.862.69-.943.988-.645-.845a3.01,3.01,0,0,0-.571,1.449h1.051v1.167h-1.142l.587,1.409.141.035.661-.782.921.886-.909.741,1.506.609V1336.2h1.183v1.128l1.5-.624-.844-.758.853-.9Z" transform="translate(1314.79 -1325.112)" fill="#fff"/>
        <path id="Trazado_197416" data-name="Trazado 197416" d="M-1045.581,1627.248h-1.137V1626.1h1.137Z" transform="translate(1069.421 -1601.051)" fill="#fff"/>
        <path id="Trazado_197417" data-name="Trazado 197417" d="M-951.128,1583.12l.775-.732.788.8-.8.708Z" transform="translate(980.583 -1560.423)" fill="#fff"/>
        <path id="Trazado_197418" data-name="Trazado 197418" d="M-987.7,1568.279v1.144h-1.12v-1.144Z" transform="translate(1015.613 -1547.311)" fill="#fff"/>
        <path id="Trazado_197419" data-name="Trazado 197419" d="M-949.439,1664.807l-.754.762-.763-.8.789-.775Z" transform="translate(980.424 -1636.266)" fill="#fff"/>
        <path id="Trazado_197420" data-name="Trazado 197420" d="M-1031.6,1583.424l-.762.781-.8-.819.835-.743Z" transform="translate(1056.825 -1560.66)" fill="#fff"/>
        <path id="Trazado_197421" data-name="Trazado 197421" d="M-1031.513,1664.289l.793.745-.828.8-.719-.788Z" transform="translate(1055.991 -1636.539)" fill="#fff"/>
        <path id="Trazado_197422" data-name="Trazado 197422" d="M-930.116,1627.263h-1.119v-1.14h1.119Z" transform="translate(962.095 -1601.069)" fill="#fff"/>
      </g>
    </g>
    <path id="Trazado_838247" data-name="Trazado 838247" d="M26.086,0A26.086,26.086,0,1,1,0,26.086,26.086,26.086,0,0,1,26.086,0Z" transform="translate(1240.469 782.672)" fill="#fc9b29"/>
    <g id="o4muyW.tif" transform="translate(2328.596 1122.957)">
      <g id="Grupo_155880" data-name="Grupo 155880" transform="translate(-1073.546 -332.229)">
        <path id="Trazado_198282" data-name="Trazado 198282" d="M-1053.115-296.665h-16.244c-.027-.02-.051-.054-.08-.059a3.156,3.156,0,0,1-2.032-4.755c1.1-1.887,2.117-3.819,3.171-5.731l1.574-2.856c-.537-.407-1.048-.8-1.571-1.18a.386.386,0,0,0-.309-.014c-.465.172-.919.373-1.385.545a1.033,1.033,0,0,1-1.362-.491q-1.015-1.735-2.01-3.483a1.054,1.054,0,0,1,.292-1.475c.37-.3.757-.573,1.115-.882a.47.47,0,0,0,.134-.372,10.856,10.856,0,0,1,0-3.933.472.472,0,0,0-.145-.369c-.349-.3-.724-.575-1.087-.862a1.062,1.062,0,0,1-.308-1.5q.988-1.731,1.993-3.452a1.048,1.048,0,0,1,1.416-.5c.441.17.874.364,1.32.52a.471.471,0,0,0,.391-.05,11.263,11.263,0,0,1,3.4-1.965.509.509,0,0,0,.26-.336c.094-.487.144-.983.223-1.473a1.022,1.022,0,0,1,1.034-.89q2.082-.009,4.164,0a1.017,1.017,0,0,1,1.034.888c.077.479.155.959.2,1.441a.392.392,0,0,0,.305.39,10.266,10.266,0,0,1,3.34,1.931.379.379,0,0,0,.464.068c.423-.185.852-.356,1.282-.523a1.049,1.049,0,0,1,1.418.492q1.005,1.721,1.994,3.453a1.064,1.064,0,0,1-.3,1.5c-.362.288-.739.558-1.085.864a.51.51,0,0,0-.145.4,10.787,10.787,0,0,1-.005,3.9.472.472,0,0,0,.137.373c.359.309.745.586,1.115.882a1.056,1.056,0,0,1,.294,1.475q-1,1.747-2.01,3.483a1.036,1.036,0,0,1-1.394.48c-.442-.168-.875-.36-1.319-.523a.433.433,0,0,0-.341,0c-.526.375-1.036.771-1.569,1.174.046.088.1.2.163.31,1.545,2.8,3.1,5.6,4.632,8.411a3.121,3.121,0,0,1-2.019,4.616A.8.8,0,0,0-1053.115-296.665Zm-8.109-2.083q3.7,0,7.392,0a1.05,1.05,0,0,0,1.01-1.665q-3.718-6.757-7.442-13.51a1.076,1.076,0,0,0-.986-.648,1.07,1.07,0,0,0-.956.639q-3.727,6.773-7.458,13.544a1.388,1.388,0,0,0-.178.517,1.038,1.038,0,0,0,1.156,1.122Q-1064.954-298.744-1061.224-298.747Zm9.885-16.269c-.372-.292-.709-.573-1.063-.831a1.142,1.142,0,0,1-.458-1.339,8.161,8.161,0,0,0,.019-4.284,1.246,1.246,0,0,1,.522-1.508c.338-.234.65-.5.983-.766l-1.172-2.03c-.476.19-.933.377-1.394.553a.992.992,0,0,1-1.124-.215,9.02,9.02,0,0,0-4.064-2.347,1,1,0,0,1-.761-.891c-.071-.487-.146-.973-.22-1.46h-2.333c-.069.453-.155.893-.2,1.338a1.16,1.16,0,0,1-.961,1.077,8.476,8.476,0,0,0-3.791,2.2,1.108,1.108,0,0,1-1.33.254c-.42-.181-.848-.34-1.279-.512-.363.628-.7,1.232-1.06,1.825-.1.173-.058.26.087.367.307.227.6.476.9.7a1.11,1.11,0,0,1,.421,1.289,8.421,8.421,0,0,0,0,4.42,1.126,1.126,0,0,1-.446,1.312c-.36.266-.7.552-1.073.842l1.174,2.031c.433-.172.846-.321,1.246-.5a1.17,1.17,0,0,1,1.391.263c.5.459,1.044.871,1.6,1.328.2-.354.363-.643.525-.935s.329-.6.492-.9a6.648,6.648,0,0,1-1.417-10.087,6.591,6.591,0,0,1,9.516-.262,6.368,6.368,0,0,1,1.958,4.978,6.579,6.579,0,0,1-3.12,5.364l1.021,1.843c.555-.453,1.09-.842,1.564-1.293a1.221,1.221,0,0,1,1.48-.281c.387.173.786.318,1.2.482Zm-7.5-.559a4.473,4.473,0,0,0,1.929-5.045,4.522,4.522,0,0,0-4.463-3.272,4.528,4.528,0,0,0-4.266,3.57,4.433,4.433,0,0,0,2.015,4.739A3.174,3.174,0,0,1-1058.841-315.575Z" transform="translate(1073.545 332.229)" fill="#fff"/>
        <path id="Trazado_198283" data-name="Trazado 198283" d="M-909.536-22.423c0,.728,0,1.456,0,2.184a1.03,1.03,0,0,1-1.038,1.1,1.029,1.029,0,0,1-1.04-1.1q0-2.2,0-4.4a1.029,1.029,0,0,1,1.038-1.1,1.029,1.029,0,0,1,1.041,1.095C-909.533-23.9-909.536-23.162-909.536-22.423Z" transform="translate(922.884 47.063)" fill="#fff"/>
        <path id="Trazado_198284" data-name="Trazado 198284" d="M-909.517,90.09a1.031,1.031,0,0,1-1.047,1.051,1.032,1.032,0,0,1-1.033-1.03,1.03,1.03,0,0,1,1.046-1.05A1.031,1.031,0,0,1-909.517,90.09Z" transform="translate(922.865 -59.746)" fill="#fff"/>
      </g>
    </g>
    <path id="Trazado_838246" data-name="Trazado 838246" d="M26.086,0A26.086,26.086,0,1,1,0,26.086,26.086,26.086,0,0,1,26.086,0Z" transform="translate(1006.734 782.672)" fill="#366a9e"/>
    <g id="_0iDTkt.tif" data-name="0iDTkt.tif" transform="translate(2180.099 533.83)">
      <g id="Grupo_155879" data-name="Grupo 155879" transform="translate(-1161.049 259.678)">
        <path id="Trazado_198275" data-name="Trazado 198275" d="M-1152.87,290.934a1.01,1.01,0,0,1-.528-1.164h-.343c-1.445,0-2.89,0-4.334,0a2.927,2.927,0,0,1-2.947-2.484,2.652,2.652,0,0,1-.025-.456q0-10.134,0-20.268,0-.619.471-.6a.424.424,0,0,1,.436.387,2.044,2.044,0,0,1,.006.335q0,10.012,0,20.023a1.99,1.99,0,0,0,1.479,2.056,2.624,2.624,0,0,0,.662.082q2.274.01,4.548,0a.733.733,0,0,0,.373-.178,3.736,3.736,0,0,1,.638-.5c.242-.1.271-.238.276-.458a1.655,1.655,0,0,1,1.286-1.674,2.484,2.484,0,0,1,.575-.044q2.625,0,5.25,0a1.685,1.685,0,0,1,1.885,1.877c0,.05,0,.1,0,.172a1.831,1.831,0,0,1,1.031.8.172.172,0,0,0,.117.077,2.652,2.652,0,0,0,2.391-.684,2.1,2.1,0,0,0,.488-1.512,3.881,3.881,0,0,1-.44.045,1.364,1.364,0,0,1-.984-.415c-1.524-1.527-3.055-3.046-4.573-4.579a1.606,1.606,0,0,1,.78-2.593,4.1,4.1,0,0,1,.982-.052.481.481,0,0,0,.287-.075q1.942-1.921,3.865-3.861a.434.434,0,0,0,.07-.289c0-.16-.058-.32-.057-.48.007-1.6.021-3.21.033-4.814,0-.3,0-.608,0-.96h-5.748a2.153,2.153,0,0,1-2.327-2.314q0-2.656,0-5.311v-.349c-.11-.009-.2-.021-.286-.022q-5.189-.025-10.377-.047a2.027,2.027,0,0,0-2.223,2.212c0,.458,0,.916,0,1.374,0,.349-.181.561-.463.557s-.454-.21-.448-.54a16.338,16.338,0,0,1,.071-2.19,2.829,2.829,0,0,1,2.782-2.326q5.342-.01,10.683,0a2.354,2.354,0,0,1,1.7.769q1.9,1.9,3.815,3.782c.99.981,1.975,1.968,2.974,2.94a2.5,2.5,0,0,1,.807,1.931c-.023,1.139-.006,2.279-.006,3.419v.352a3.783,3.783,0,0,1,.376-.117,1.4,1.4,0,0,1,1.365.4q2.239,2.272,4.5,4.522a1.394,1.394,0,0,1,.316,1.623,1.742,1.742,0,0,1-2.047,1.072.329.329,0,0,0-.255.064c-.265.237-.515.491-.792.761l1.929,1.527c.622.492,1.237.993,1.87,1.472a2.979,2.979,0,0,1,1.165,1.551v.733a.446.446,0,0,0-.059.1,2.807,2.807,0,0,1-1.757,1.851,1.537,1.537,0,0,1-1.537-.165,5.087,5.087,0,0,1-.924-.871c-.573-.685-1.11-1.4-1.663-2.1-.449-.571-.9-1.141-1.383-1.754-.271.286-.522.537-.753.8-.049.057-.027.176-.034.267a2.848,2.848,0,0,1-.1,1.028,2.476,2.476,0,0,0-.219,1.2,2.9,2.9,0,0,1-3.019,3h-.679a.946.946,0,0,1-.574,1.1h-6.1c-.179-.169-.356-.339-.245-.623s.349-.3.6-.3q2.516,0,5.032,0h.322c.115-.749-.177-1.1-.884-1.1q-3.934,0-7.868,0a.788.788,0,0,0-.79,1.1c.614,0,1.233-.005,1.852,0,.312,0,.542.233.475.5a1.559,1.559,0,0,1-.267.417Zm10.439-11.164,3.856,3.859,4-4c-.4-.391-.838-.8-1.264-1.225a.825.825,0,0,1-.222-.318.421.421,0,0,1,.216-.518.447.447,0,0,1,.579.107l1.529,1.534a.7.7,0,0,0,1.228-.277.5.5,0,0,0-.109-.585q-2.252-2.257-4.5-4.52a.588.588,0,0,0-.907.067.608.608,0,0,0-.077.932c.355.364.717.722,1.075,1.082s.43.623.207.852-.493.17-.873-.211c-.256-.258-.514-.515-.761-.763Zm2.525-12.069.029-.072-6.452-6.385v.353q0,2.363,0,4.727a1.222,1.222,0,0,0,1.365,1.377q2.394,0,4.788,0Zm3.486,15.221c1.109,1.407,2.211,2.813,3.323,4.212a1.094,1.094,0,0,0,1.04.45,1.869,1.869,0,0,0,1.291-1.178,1.148,1.148,0,0,0-.528-1.287q-1.563-1.241-3.13-2.477l-.964-.76Zm-3.237,2.9a.917.917,0,0,0,.843-.569c.128-.29-.016-.477-.208-.667q-2.214-2.206-4.423-4.417a.6.6,0,0,0-.908.066c-.324.32-.365.632-.1.9q2.259,2.268,4.528,4.527A1.026,1.026,0,0,0-1139.658,285.823Zm-11.55,2.143h7.108c.075-.725-.221-1.063-.914-1.063h-5.28C-1151.005,286.9-1151.282,287.215-1151.208,287.966Z" transform="translate(1161.049 -259.678)" fill="#fff"/>
        <path id="Trazado_198276" data-name="Trazado 198276" d="M-1089.244,511.339q2.624,0,5.247,0c.374,0,.574.15.589.432a.419.419,0,0,1-.365.482,1.885,1.885,0,0,1-.364.023h-10.189c-.081,0-.163,0-.244,0a.48.48,0,0,1-.495-.474.477.477,0,0,1,.512-.458c.732-.009,1.464,0,2.2,0Z" transform="translate(1099.1 -495.944)" fill="#fff"/>
        <path id="Trazado_198277" data-name="Trazado 198277" d="M-1090.125,632.061h-4.148c-.081,0-.163,0-.244,0-.331-.015-.539-.189-.546-.455a.489.489,0,0,1,.551-.481q4.362,0,8.724,0c.356,0,.553.179.552.471s-.188.462-.557.464C-1087.237,632.064-1088.681,632.061-1090.125,632.061Z" transform="translate(1099.1 -608.402)" fill="#fff"/>
        <path id="Trazado_198278" data-name="Trazado 198278" d="M-1088.763,571.24c1.2,0,2.4,0,3.6,0a1.17,1.17,0,0,1,.387.053.367.367,0,0,1,.262.456.812.812,0,0,1-.322.387.764.764,0,0,1-.387.039q-3.55,0-7.1,0c-.5,0-.744-.163-.732-.483s.244-.456.731-.456Z" transform="translate(1097.218 -552.182)" fill="#fff"/>
        <path id="Trazado_198279" data-name="Trazado 198279" d="M-1089.023,392.534h-3.23a2,2,0,0,1-.334-.018.432.432,0,0,1-.39-.437.436.436,0,0,1,.366-.46,1.393,1.393,0,0,1,.332-.022q3.276,0,6.551,0a1.4,1.4,0,0,1,.361.033.417.417,0,0,1,.328.453.415.415,0,0,1-.361.427,1.785,1.785,0,0,1-.333.024Q-1087.378,392.535-1089.023,392.534Z" transform="translate(1097.141 -383.526)" fill="#fff"/>
        <path id="Trazado_198280" data-name="Trazado 198280" d="M-1091.194,452.418q-1.541,0-3.082,0a1.825,1.825,0,0,1-.334-.02.43.43,0,0,1-.382-.445.431.431,0,0,1,.348-.444,1.027,1.027,0,0,1,.271-.028q3.173,0,6.347,0c.11,0,.257-.011.321.052.127.123.291.3.283.443s-.193.3-.333.406c-.074.057-.216.034-.327.035Q-1089.638,452.42-1091.194,452.418Z" transform="translate(1099.032 -439.747)" fill="#fff"/>
        <path id="Trazado_198281" data-name="Trazado 198281" d="M-947.745,452.409c-.773,0-1.546,0-2.319,0-.111,0-.254.022-.326-.036-.138-.11-.311-.263-.327-.413-.015-.134.138-.319.263-.426a.652.652,0,0,1,.38-.06q2.3-.005,4.607,0c.051,0,.1,0,.153,0a.493.493,0,0,1,.524.48.476.476,0,0,1-.514.453c-.61.011-1.22,0-1.831,0Z" transform="translate(963.584 -439.738)" fill="#fff"/>
      </g>
    </g>
    <path id="Trazado_838243" data-name="Trazado 838243" d="M25.659,0A25.875,25.875,0,0,1,51.318,26.086,25.875,25.875,0,0,1,25.659,52.173,25.875,25.875,0,0,1,0,26.086,25.875,25.875,0,0,1,25.659,0Z" transform="translate(309 782.672)" fill="#ff981e"/>
    <g id="lJ8LYt.tif" transform="translate(862.195 724.011)">
      <g id="Grupo_155877" data-name="Grupo 155877" transform="translate(-542.345 69.699)">
        <path id="Trazado_198251" data-name="Trazado 198251" d="M-333.61,281.142c-.169-.15-.346-.292-.506-.452q-1.876-1.869-3.747-3.744c-.5-.5-.5-.79,0-1.285.088-.088.191-.161.268-.225l-1.409-1.41a7.166,7.166,0,0,1-6.367,1.393,6.991,6.991,0,0,1-4.222-2.982A7.228,7.228,0,0,1-348.373,263a7.223,7.223,0,0,1,9.634.065,7.237,7.237,0,0,1,.763,9.931l1.411,1.4c.091-.1.209-.255.349-.387a.66.66,0,0,1,1.019,0q2.034,2.019,4.059,4.049a3.883,3.883,0,0,1,.27.335v.436l-2.306,2.306Zm-9.963-18.609a5.89,5.89,0,0,0-5.9,5.916,5.867,5.867,0,0,0,5.992,5.85,5.856,5.856,0,0,0,5.772-5.938A5.873,5.873,0,0,0-343.573,262.533Zm11.028,16.109-3.176-3.181-.83.821,3.176,3.181Z" transform="translate(362.775 -249.235)" fill="#fff"/>
        <path id="Trazado_198252" data-name="Trazado 198252" d="M-531.715,88.307v1.328h-1.3V92.28h2.615v1.327h-5.275v-1.3h1.292V89.64h-.325q-2.789,0-5.577,0a1.976,1.976,0,0,1-2.058-2.057q0-7.914,0-15.829a1.975,1.975,0,0,1,2.059-2.054h22.465a2,2,0,0,1,2.075,2.113q0,5.468,0,10.937v.887H-517.1v-.368q0-5.671,0-11.342c0-.7-.191-.894-.883-.894H-540.1c-.708,0-.909.2-.909.909q0,7.727,0,15.455c0,.7.2.91.907.91q3.988,0,7.977,0Z" transform="translate(542.345 -69.699)" fill="#fff"/>
        <path id="Trazado_198253" data-name="Trazado 198253" d="M-452.941,118.568l-.96-.965c.388-.38.788-.769,1.184-1.161.428-.424.847-.856,1.28-1.274a.331.331,0,0,0,.1-.4,1.981,1.981,0,0,1,1.391-2.578,1.972,1.972,0,0,1,2.448,1.566,3.183,3.183,0,0,1-.083,1.038.326.326,0,0,0,.084.348c.565.55,1.114,1.118,1.681,1.665a.407.407,0,0,0,.336.081,2.252,2.252,0,0,1,1.346,0,.408.408,0,0,0,.341-.067c.576-.554,1.143-1.118,1.695-1.7a.45.45,0,0,0,.049-.373,2,2,0,0,1,1.344-2.536,1.972,1.972,0,0,1,2.487,1.419,1.887,1.887,0,0,1-.55,1.935,1.874,1.874,0,0,1-1.984.454.374.374,0,0,0-.455.111c-.527.545-1.065,1.078-1.606,1.609a.327.327,0,0,0-.1.4,1.978,1.978,0,0,1-.67,2.227,2.027,2.027,0,0,1-2.331.07,1.977,1.977,0,0,1-.785-2.245.407.407,0,0,0-.115-.487c-.546-.526-1.079-1.065-1.609-1.607a.3.3,0,0,0-.377-.091,1.714,1.714,0,0,1-1.277.006.34.34,0,0,0-.428.112C-451.316,116.944-452.132,117.756-452.941,118.568Zm3.474-3.794a.639.639,0,0,0,.665-.63.666.666,0,0,0-.653-.682.671.671,0,0,0-.652.656A.642.642,0,0,0-449.467,114.774Zm9.279,0a.664.664,0,0,0,.7-.632.689.689,0,0,0-.634-.679.667.667,0,0,0-.678.626A.64.64,0,0,0-440.188,114.773Zm-3.961,4a.64.64,0,0,0-.652-.644.663.663,0,0,0-.662.644.688.688,0,0,0,.677.669A.66.66,0,0,0-444.149,118.77Z" transform="translate(459.424 -109.472)" fill="#fff"/>
        <path id="Trazado_198254" data-name="Trazado 198254" d="M-499.8,293.439h1.32c0,.381,0,.759,0,1.138,0,.6.248.843.852.845q.528,0,1.057.006c.018,0,.036.015.069.029v1.3a5.757,5.757,0,0,1-2.115-.176,1.875,1.875,0,0,1-1.178-1.658C-499.827,294.441-499.8,293.953-499.8,293.439Z" transform="translate(502.466 -279.468)" fill="#fff"/>
        <path id="Trazado_198255" data-name="Trazado 198255" d="M-499.552,252.181v-1.3h1.29v1.3Z" transform="translate(502.224 -239.564)" fill="#fff"/>
        <path id="Trazado_198256" data-name="Trazado 198256" d="M-228.915,308.971c-.379,0-.76.012-1.14-.012-.064,0-.162-.156-.172-.248a3.25,3.25,0,0,0-2.264-2.882,7.618,7.618,0,0,0-1.036-.225v-1.252A4.55,4.55,0,0,1-228.915,308.971Z" transform="translate(252.81 -289.691)" fill="#fff"/>
      </g>
    </g>
    <path id="Trazado_838878" data-name="Trazado 838878" d="M14.008,0A14.008,14.008,0,1,1,0,14.008,14.008,14.008,0,0,1,14.008,0Z" transform="translate(667.359 845.189)" fill="#12263f"/>
    <path id="Trazado_838879" data-name="Trazado 838879" d="M8.757,3.018l6.62,6.625a1.251,1.251,0,0,0,1.767-1.772L9.643.364A1.249,1.249,0,0,0,7.918.328L.365,7.865A1.251,1.251,0,0,0,2.132,9.638Z" transform="translate(686.961 849.945) rotate(90)" fill="#fff"/>
    <path id="Trazado_838880" data-name="Trazado 838880" d="M14.008,0A14.008,14.008,0,1,1,0,14.008,14.008,14.008,0,0,1,14.008,0Z" transform="translate(902.359 845.189)" fill="#12263f"/>
    <path id="Trazado_838881" data-name="Trazado 838881" d="M8.757,3.018l6.62,6.625a1.251,1.251,0,0,0,1.767-1.772L9.643.364A1.249,1.249,0,0,0,7.918.328L.365,7.865A1.251,1.251,0,0,0,2.132,9.638Z" transform="translate(921.961 849.945) rotate(90)" fill="#fff"/>
    <path id="Trazado_838882" data-name="Trazado 838882" d="M14.008,0A14.008,14.008,0,1,1,0,14.008,14.008,14.008,0,0,1,14.008,0Z" transform="translate(1134.094 845.189)" fill="#12263f"/>
    <path id="Trazado_838883" data-name="Trazado 838883" d="M8.757,3.018l6.62,6.625a1.251,1.251,0,0,0,1.767-1.772L9.643.364A1.249,1.249,0,0,0,7.918.328L.365,7.865A1.251,1.251,0,0,0,2.132,9.638Z" transform="translate(1153.695 849.945) rotate(90)" fill="#fff"/>
    <path id="Trazado_838884" data-name="Trazado 838884" d="M14.008,0A14.008,14.008,0,1,1,0,14.008,14.008,14.008,0,0,1,14.008,0Z" transform="translate(431.984 845.189)" fill="#12263f"/>
    <path id="Trazado_838885" data-name="Trazado 838885" d="M8.757,3.018l6.62,6.625a1.251,1.251,0,0,0,1.767-1.772L9.643.364A1.249,1.249,0,0,0,7.918.328L.365,7.865A1.251,1.251,0,0,0,2.132,9.638Z" transform="translate(451.586 849.945) rotate(90)" fill="#fff"/>
  </g>
</svg>
