<svg xmlns="http://www.w3.org/2000/svg" width="85" height="29.132" viewBox="0 0 85 29.132">
  <g id="Design-elements" transform="translate(-2.604)">
    <path id="dots-03" d="M80.465,26.936a2.269,2.269,0,1,1,2.268,2.2A2.232,2.232,0,0,1,80.465,26.936Zm-13.411,0a2.269,2.269,0,1,1,2.269,2.2A2.232,2.232,0,0,1,67.055,26.936Zm-13.411,0a2.269,2.269,0,1,1,2.268,2.2A2.232,2.232,0,0,1,53.644,26.936Zm-13.411,0a2.269,2.269,0,1,1,2.268,2.2A2.232,2.232,0,0,1,40.233,26.936Zm-13.41,0a2.269,2.269,0,1,1,2.268,2.2A2.232,2.232,0,0,1,26.823,26.936Zm-13.412,0a2.269,2.269,0,1,1,2.269,2.2A2.232,2.232,0,0,1,13.411,26.936ZM0,26.936a2.232,2.232,0,0,1,2.268-2.194,2.2,2.2,0,1,1,0,4.389A2.232,2.232,0,0,1,0,26.936ZM80.465,14.57a2.269,2.269,0,1,1,2.268,2.2A2.232,2.232,0,0,1,80.465,14.57Zm-13.411,0a2.269,2.269,0,1,1,2.268,2.2A2.232,2.232,0,0,1,67.055,14.57Zm-13.411,0a2.269,2.269,0,1,1,2.268,2.2A2.232,2.232,0,0,1,53.644,14.57Zm-13.411,0a2.269,2.269,0,1,1,2.268,2.2A2.232,2.232,0,0,1,40.233,14.57Zm-13.411,0a2.269,2.269,0,1,1,2.268,2.2A2.232,2.232,0,0,1,26.822,14.57Zm-13.411,0a2.269,2.269,0,1,1,2.269,2.2A2.233,2.233,0,0,1,13.411,14.57ZM0,14.57a2.232,2.232,0,0,1,2.268-2.194,2.2,2.2,0,1,1,0,4.389A2.232,2.232,0,0,1,0,14.57ZM80.465,2.2A2.269,2.269,0,0,1,85,2.2a2.269,2.269,0,0,1-4.535,0Zm-13.411,0a2.269,2.269,0,0,1,4.535,0,2.269,2.269,0,0,1-4.535,0Zm-13.411,0a2.269,2.269,0,0,1,4.536,0,2.269,2.269,0,0,1-4.536,0Zm-13.411,0a2.269,2.269,0,0,1,4.535,0,2.269,2.269,0,0,1-4.535,0Zm-13.411,0a2.269,2.269,0,0,1,4.536,0,2.269,2.269,0,0,1-4.536,0Zm-13.411,0a2.269,2.269,0,0,1,4.536,0,2.269,2.269,0,0,1-4.536,0ZM0,2.2A2.234,2.234,0,0,1,2.268,0,2.234,2.234,0,0,1,4.536,2.2,2.234,2.234,0,0,1,2.268,4.4,2.234,2.234,0,0,1,0,2.2Z" transform="translate(2.604 0.001)" fill="#12263f"/>
  </g>
</svg>
