<svg xmlns="http://www.w3.org/2000/svg" xmlns:xlink="http://www.w3.org/1999/xlink" width="126.936" height="138.992" viewBox="0 0 126.936 138.992">
  <defs>
    <filter id="Trazado_771252" x="0" y="0" width="126.936" height="138.992" filterUnits="userSpaceOnUse">
      <feOffset dy="3" input="SourceAlpha"/>
      <feGaussianBlur stdDeviation="3" result="blur"/>
      <feFlood flood-opacity="0.161"/>
      <feComposite operator="in" in2="blur"/>
      <feComposite in="SourceGraphic"/>
    </filter>
  </defs>
  <g id="Grupo_1098714" data-name="Grupo 1098714" transform="translate(-833 -3915.694)">
    <g id="Grupo_58634" data-name="Grupo 58634" transform="translate(448 2758.687)">
      <g transform="matrix(1, 0, 0, 1, 385, 1157.01)" filter="url(#Trazado_771252)">
        <path id="Trazado_771252-2" data-name="Trazado 771252" d="M512.14,327.414V288.183a20.125,20.125,0,0,0-9.822-17.322l-32.173-19.076a19.736,19.736,0,0,0-19.511-.365L417.669,269.34A20.117,20.117,0,0,0,407.2,287.027V326.62a20.13,20.13,0,0,0,9.58,17.175l30.839,18.884a19.738,19.738,0,0,0,19.533.63l34.3-18.089A20.113,20.113,0,0,0,512.14,327.414Z" transform="translate(-396.2 -240.81)" fill="#2ec49f" stroke="#fff" stroke-miterlimit="10" stroke-width="4"/>
      </g>
    </g>
    <g id="justo-a-tiempo" transform="translate(807.077 3943.221)">
      <path id="Trazado_838322" data-name="Trazado 838322" d="M256.712,87.4l-2.243-2.243L252.226,87.4V96.37h4.486Z" transform="translate(-166.064 -72.859)" fill="#82aee3"/>
      <path id="Trazado_838323" data-name="Trazado 838323" d="M109.46,164.421h-3.172v3.172l5.079,5.079,3.172-3.172Z" transform="translate(-41.201 -140.677)" fill="#82aee3"/>
      <circle id="Elipse_10532" data-name="Elipse 10532" cx="25.793" cy="25.793" r="25.793" transform="translate(62.612 21.269)" fill="#b2caec"/>
      <circle id="Elipse_10533" data-name="Elipse 10533" cx="21.307" cy="21.307" r="21.307" transform="translate(67.098 25.755)" fill="#fff"/>
      <path id="Trazado_838324" data-name="Trazado 838324" d="M201.422,185.381A21.314,21.314,0,0,1,182.6,223.075a21.31,21.31,0,1,0,18.818-37.694Z" transform="translate(-106.496 -158.61)" fill="#eaf9fa"/>
      <path id="Trazado_838325" data-name="Trazado 838325" d="M188.273,318.462H161.205a2.166,2.166,0,0,1-2.166-2.166V289.228a2.166,2.166,0,0,1,2.166-2.166h9.048l4.486,2.243,4.486-2.243h9.048a2.166,2.166,0,0,1,2.166,2.166V316.3A2.166,2.166,0,0,1,188.273,318.462Z" transform="translate(-86.334 -245.607)" fill="#fea95c"/>
      <path id="Trazado_838326" data-name="Trazado 838326" d="M188.273,287.062h-3.61v21.292a7.221,7.221,0,0,1-7.221,7.221h-18.4v.722a2.166,2.166,0,0,0,2.166,2.166h27.068a2.166,2.166,0,0,0,2.166-2.166V289.228A2.166,2.166,0,0,0,188.273,287.062Z" transform="translate(-86.334 -245.607)" fill="#fe9738"/>
      <path id="Trazado_838327" data-name="Trazado 838327" d="M236.7,287.062h8.971v6.729H236.7Z" transform="translate(-152.776 -245.607)" fill="#fedbbd"/>
      <path id="Trazado_838328" data-name="Trazado 838328" d="M298.82,442.375h6.729v4.486H298.82Z" transform="translate(-205.929 -378.492)" fill="#fff"/>
      <path id="Trazado_838329" data-name="Trazado 838329" d="M317.845,446.862h3.981v-4.486h-1.38A7.214,7.214,0,0,1,317.845,446.862Z" transform="translate(-222.207 -378.492)" fill="#eaf9fa"/>
      <path id="Trazado_838330" data-name="Trazado 838330" d="M244.487,60.823h-6.613a1.179,1.179,0,0,1-1.179-1.179v-4.37a1.179,1.179,0,0,1,1.179-1.179h6.613a1.179,1.179,0,0,1,1.179,1.179v4.37A1.179,1.179,0,0,1,244.487,60.823Z" transform="translate(-152.776 -46.282)" fill="#b2caec"/>
      <path id="Trazado_838331" data-name="Trazado 838331" d="M75.455,128.86l-4.729,4.729a1.142,1.142,0,0,1-1.615,0l-3.143-3.143a1.142,1.142,0,0,1,0-1.615L70.7,124.1a1.142,1.142,0,0,1,1.615,0l3.143,3.143A1.141,1.141,0,0,1,75.455,128.86Z" transform="translate(-6.418 -105.894)" fill="#0055a3"/>
      <path id="Trazado_838332" data-name="Trazado 838332" d="M299.132,434.875H292.4a1.083,1.083,0,0,0-1.083,1.083v4.486a1.083,1.083,0,0,0,1.083,1.083h6.729a1.083,1.083,0,0,0,1.083-1.083v-4.486A1.083,1.083,0,0,0,299.132,434.875Zm-1.083,4.486h-4.563v-2.32h4.563Z" transform="translate(-199.512 -372.075)" fill="#21257c"/>
      <path id="Trazado_838333" data-name="Trazado 838333" d="M261.34,206.316a1.083,1.083,0,0,0,1.083-1.083V202.99a1.083,1.083,0,1,0-2.166,0v2.243A1.083,1.083,0,0,0,261.34,206.316Z" transform="translate(-172.935 -172.75)"/>
      <path id="Trazado_838334" data-name="Trazado 838334" d="M179.793,239.459a1.083,1.083,0,0,0,1.532-1.532l-1.586-1.586a1.083,1.083,0,1,0-1.532,1.532Z" transform="translate(-102.463 -201.94)"/>
      <path id="Trazado_838335" data-name="Trazado 838335" d="M333.491,239.459l1.586-1.586a1.083,1.083,0,0,0-1.532-1.532l-1.586,1.586a1.083,1.083,0,0,0,1.532,1.532Z" transform="translate(-234.012 -201.94)"/>
      <path id="Trazado_838336" data-name="Trazado 838336" d="M107.081,27.735a1.083,1.083,0,0,0-1.505,1.558,24.714,24.714,0,0,1-.387,35.909V61.883a22.39,22.39,0,1,0-33.566,0V65.2A24.713,24.713,0,0,1,101.7,26.229a1.083,1.083,0,1,0,1.167-1.825A26.729,26.729,0,0,0,94.1,20.792,11.177,11.177,0,0,0,84,.9a1.083,1.083,0,0,0,.853,1.991,9.014,9.014,0,1,1,6.873,16.665V15.623a2.265,2.265,0,0,0,2.243-2.262V8.991a2.265,2.265,0,0,0-2.262-2.262H85.1a2.265,2.265,0,0,0-2.262,2.262v4.37a2.265,2.265,0,0,0,2.243,2.262v3.932A9.017,9.017,0,0,1,81.267,5.678a1.083,1.083,0,1,0-1.715-1.323,11.176,11.176,0,0,0,3.161,16.438A26.781,26.781,0,0,0,71.906,25.86l-2.116-2.116.013-.013a2.225,2.225,0,0,0,0-3.146L66.66,17.442a2.225,2.225,0,0,0-3.146,0l-4.729,4.729a2.225,2.225,0,0,0,0,3.146l3.143,3.143a2.225,2.225,0,0,0,3.146,0l.013-.013L67.2,30.563A26.867,26.867,0,0,0,64.39,59.141a27.134,27.134,0,0,0,7.232,8.914v2.634a3.253,3.253,0,0,0,3.249,3.249h27.068a3.253,3.253,0,0,0,3.249-3.249V68.054a27.135,27.135,0,0,0,7.232-8.914,26.895,26.895,0,0,0-5.339-31.406ZM87.245,20.211V15.623h2.32v4.587C88.79,20.178,88.02,20.178,87.245,20.211Zm4.562-11.22v4.37a.1.1,0,0,1-.1.1H89.488V8.895h2.223A.1.1,0,0,1,91.808,8.991ZM85,13.361V8.991a.1.1,0,0,1,.1-.1h2.223v4.562H85.1A.1.1,0,0,1,85,13.361ZM65.046,18.973a.059.059,0,0,1,.083,0l3.143,3.143a.059.059,0,0,1,0,.083l-1.6,1.6-3.226-3.226ZM63.46,26.929l-3.143-3.143a.059.059,0,0,1,0-.083l1.6-1.6,3.226,3.226-1.6,1.6A.058.058,0,0,1,63.46,26.929Zm3.159-.013,1.64-1.64,1.988,1.988q-.855.785-1.64,1.64Zm36.4,43.773a1.084,1.084,0,0,1-1.083,1.083H74.871a1.084,1.084,0,0,1-1.083-1.083V55.552a1.083,1.083,0,1,0-2.166,0v2.8a20.224,20.224,0,1,1,33.566,0V48.145h.038a1.083,1.083,0,1,0,0-2.166h-.038V43.621a3.253,3.253,0,0,0-3.249-3.249H89.488v-3.4a1.083,1.083,0,0,0-2.166,0v3.4H74.871a3.253,3.253,0,0,0-3.249,3.249v2.358h-.038a1.083,1.083,0,1,0,0,2.166h.038V50.5a1.083,1.083,0,1,0,2.166,0V43.621a1.084,1.084,0,0,1,1.083-1.083h7.965v5.646a1.083,1.083,0,0,0,1.083,1.083h8.971a1.083,1.083,0,0,0,1.083-1.083V42.538h7.965a1.084,1.084,0,0,1,1.083,1.083ZM85,42.538h6.805V47.1H85Z" transform="translate(0)" fill="#21257c"/>
    </g>
  </g>
</svg>
