<svg xmlns="http://www.w3.org/2000/svg" xmlns:xlink="http://www.w3.org/1999/xlink" width="60.313" height="64.949" viewBox="0 0 60.313 64.949">
  <defs>
    <filter id="Trazado_771226" x="0" y="0" width="60.313" height="64.949" filterUnits="userSpaceOnUse">
      <feOffset dy="3" input="SourceAlpha"/>
      <feGaussianBlur stdDeviation="3" result="blur"/>
      <feFlood flood-opacity="0.161"/>
      <feComposite operator="in" in2="blur"/>
      <feComposite in="SourceGraphic"/>
    </filter>
  </defs>
  <g id="Grupo_1098659" data-name="Grupo 1098659" transform="translate(-831 -936.917)">
    <g id="Grupo_1071655" data-name="Grupo 1071655" transform="translate(841 944)">
      <g transform="matrix(1, 0, 0, 1, -10, -7.08)" filter="url(#Trazado_771226)">
        <path id="Trazado_771226-2" data-name="Trazado 771226" d="M447.517,279.136V264.064a7.732,7.732,0,0,0-3.773-6.655l-12.36-7.329a7.582,7.582,0,0,0-7.5-.14l-12.665,6.885a7.728,7.728,0,0,0-4.02,6.795v15.21a7.733,7.733,0,0,0,3.68,6.6l11.847,7.255a7.583,7.583,0,0,0,7.5.242l13.177-6.949A7.727,7.727,0,0,0,447.517,279.136Z" transform="translate(-397.2 -241.94)" fill="#2ec49f" stroke="#fff" stroke-miterlimit="10" stroke-width="2"/>
      </g>
    </g>
    <g id="mesa" transform="translate(842.587 947.933)">
      <g id="Grupo_1098828" data-name="Grupo 1098828" transform="translate(0.542 0.542)">
        <path id="Trazado_838469" data-name="Trazado 838469" d="M0,0H8.241V7.464H0Z" transform="translate(1.595 7.423) rotate(-45)" fill="#a2e62e"/>
        <path id="Trazado_838470" data-name="Trazado 838470" d="M27.447,102.5a2.277,2.277,0,0,1-3.22,0l-2.864-2.864a3.412,3.412,0,0,1,0-4.826L22.17,94l5.278,5.278A2.277,2.277,0,0,1,27.447,102.5Z" transform="translate(-19.427 -87.722)" fill="#bbec6c"/>
        <path id="Trazado_838471" data-name="Trazado 838471" d="M27.939,101.759a2.277,2.277,0,0,1-3.713.736L21.362,99.63a3.411,3.411,0,0,1,0-4.826L22.169,94l.038.038a3.411,3.411,0,0,0,.386,4.365l2.864,2.865A2.279,2.279,0,0,0,27.939,101.759Z" transform="translate(-19.427 -87.72)" fill="#a2e62e"/>
        <path id="Trazado_838472" data-name="Trazado 838472" d="M0,0H8.241V7.464H0Z" transform="translate(7.421 34.46) rotate(-135)" fill="#5f99d7"/>
        <path id="Trazado_838473" data-name="Trazado 838473" d="M102.5,385.383a2.277,2.277,0,0,1,0,3.22l-2.864,2.865a3.412,3.412,0,0,1-4.826,0L94,390.661l5.278-5.278A2.277,2.277,0,0,1,102.5,385.383Z" transform="translate(-87.722 -357.35)" fill="#7bacdf"/>
        <path id="Trazado_838474" data-name="Trazado 838474" d="M102.915,385.964a2.275,2.275,0,0,0-2.64.42L95,391.653c-.069-.058-.136-.12-.2-.186l-.807-.807,5.277-5.278a2.279,2.279,0,0,1,3.221,0,2.25,2.25,0,0,1,.421.582Z" transform="translate(-87.718 -357.349)" fill="#5f99d7"/>
        <path id="Trazado_838475" data-name="Trazado 838475" d="M0,0H8.241V7.464H0Z" transform="translate(28.627 1.593) rotate(45)" fill="#dedbee"/>
        <path id="Trazado_838476" data-name="Trazado 838476" d="M292.262,27.446a2.277,2.277,0,0,1,0-3.22l2.864-2.864a3.412,3.412,0,0,1,4.826,0l.807.807-5.278,5.278A2.277,2.277,0,0,1,292.262,27.446Z" transform="translate(-270.985 -19.426)" fill="#faf7f7"/>
        <path id="Trazado_838477" data-name="Trazado 838477" d="M293,27.933a2.277,2.277,0,0,1-.736-3.713l2.865-2.864a3.411,3.411,0,0,1,4.826,0l.807.807-.038.038a3.412,3.412,0,0,0-4.366.386L293.49,25.45A2.279,2.279,0,0,0,293,27.933Z" transform="translate(-270.982 -19.421)" fill="#dedbee"/>
        <path id="Trazado_838478" data-name="Trazado 838478" d="M0,0H8.241V7.464H0Z" transform="translate(34.462 28.63) rotate(135)" fill="#fd4755"/>
        <path id="Trazado_838479" data-name="Trazado 838479" d="M385.384,292.262a2.277,2.277,0,0,1,3.22,0l2.865,2.864a3.412,3.412,0,0,1,0,4.826l-.807.807-5.278-5.278A2.277,2.277,0,0,1,385.384,292.262Z" transform="translate(-357.351 -270.984)" fill="#fe646f"/>
        <path id="Trazado_838480" data-name="Trazado 838480" d="M385.965,294.977a2.275,2.275,0,0,0,.42,2.64l5.269,5.27c-.058.069-.12.136-.186.2l-.807.807-5.278-5.277a2.279,2.279,0,0,1,0-3.221A2.249,2.249,0,0,1,385.965,294.977Z" transform="translate(-357.351 -274.121)" fill="#fd4755"/>
        <path id="Trazado_838481" data-name="Trazado 838481" d="M35.769,20.543,20.543,35.769a1.892,1.892,0,0,0,0,2.675L35.769,53.671a1.892,1.892,0,0,0,2.675,0L53.671,38.445a1.892,1.892,0,0,0,0-2.675L38.445,20.543a1.892,1.892,0,0,0-2.675,0Z" transform="translate(-19.081 -19.08)" fill="#b98080"/>
        <path id="Trazado_838482" data-name="Trazado 838482" d="M23.816,38.439,38.745,53.368l-.3.3a1.891,1.891,0,0,1-2.675,0L20.546,38.439a1.891,1.891,0,0,1,0-2.675L35.772,20.538a1.891,1.891,0,0,1,2.675,0l.3.3L23.816,35.764a1.891,1.891,0,0,0,0,2.675Z" transform="translate(-19.083 -19.075)" fill="#ae6c6c"/>
        <path id="Trazado_838483" data-name="Trazado 838483" d="M0,0H6.215V8.3H0Z" transform="translate(18.259 15.191) rotate(45)" fill="#dedbee"/>
        <path id="Trazado_838484" data-name="Trazado 838484" d="M0,0H6.215V8.3H0Z" transform="translate(12.771 16.32) rotate(45)" fill="#faf7f7"/>
        <path id="Trazado_838485" data-name="Trazado 838485" d="M278.357,371.478a2.277,2.277,0,0,0,0,3.22l3.873,3.873a3.412,3.412,0,0,0,4.826,0l.807-.807-6.286-6.286A2.277,2.277,0,0,0,278.357,371.478Z" transform="translate(-258.088 -344.453)" fill="#fe646f"/>
        <path id="Trazado_838486" data-name="Trazado 838486" d="M278.936,374.206a2.276,2.276,0,0,0,.421,2.64l3.873,3.873a3.411,3.411,0,0,0,4.624.186l.008.008-.807.807a3.413,3.413,0,0,1-4.826,0l-3.873-3.874a2.277,2.277,0,0,1,0-3.22A2.247,2.247,0,0,1,278.936,374.206Z" transform="translate(-258.087 -347.602)" fill="#fd4755"/>
        <path id="Trazado_838487" data-name="Trazado 838487" d="M381.968,388.317a4.491,4.491,0,0,1,6.351-6.351c.068.068.134.138.2.209-.6.937,0,3.9-1.221,5.117s-4.142.474-5.117,1.22C382.1,388.451,382.035,388.385,381.968,388.317Z" transform="translate(-353.581 -353.58)" fill="#ffdfcf"/>
        <path id="Trazado_838488" data-name="Trazado 838488" d="M386.262,395.09c-1.4.4-3.33.08-4.088.659-.071-.062-.141-.128-.208-.2a4.5,4.5,0,0,1,.989-7.1,4.49,4.49,0,0,0,.747,5.363c.068.068.137.133.208.2A4.463,4.463,0,0,0,386.262,395.09Z" transform="translate(-353.579 -360.817)" fill="#ffcebf"/>
        <path id="Trazado_838489" data-name="Trazado 838489" d="M401.659,408A6.646,6.646,0,0,1,408,401.666,4.49,4.49,0,0,1,401.659,408Z" transform="translate(-373.064 -373.07)" fill="#ffd15b"/>
        <path id="Trazado_838490" data-name="Trazado 838490" d="M408.545,451a4.494,4.494,0,0,1-6.891,1.185,6.637,6.637,0,0,1,.8-2.881,4.463,4.463,0,0,0,.725.949c.068.068.137.133.208.2A4.492,4.492,0,0,0,408.545,451Z" transform="translate(-373.059 -417.253)" fill="#ffc344"/>
        <path id="Trazado_838491" data-name="Trazado 838491" d="M371.478,103.5a2.277,2.277,0,0,0,3.22,0l3.873-3.873a3.412,3.412,0,0,0,0-4.826L377.765,94l-6.286,6.286A2.277,2.277,0,0,0,371.478,103.5Z" transform="translate(-344.454 -87.721)" fill="#faf7f7"/>
        <path id="Trazado_838492" data-name="Trazado 838492" d="M372.217,103.991a2.278,2.278,0,0,1-.737-3.713l6.286-6.286.807.807a3.375,3.375,0,0,1,.386.46l-6.249,6.249A2.277,2.277,0,0,0,372.217,103.991Z" transform="translate(-344.456 -87.714)" fill="#dedbee"/>
        <path id="Trazado_838493" data-name="Trazado 838493" d="M388.318,29.447a4.491,4.491,0,0,1-6.351-6.351c.068-.068.138-.134.209-.2.937.6,3.9,0,5.117,1.221s.474,4.142,1.22,5.117C388.452,29.309,388.386,29.379,388.318,29.447Z" transform="translate(-353.581 -21.78)" fill="#d78878"/>
        <path id="Trazado_838494" data-name="Trazado 838494" d="M382.837,30.123a4.493,4.493,0,0,1-.871-7.031c.068-.068.138-.134.209-.2.65.414,2.27.254,3.611.524a4.459,4.459,0,0,0-2.059,1.027c-.072.062-.141.128-.21.2a4.491,4.491,0,0,0-.68,5.48Z" transform="translate(-353.579 -21.778)" fill="#ca6e59"/>
        <path id="Trazado_838495" data-name="Trazado 838495" d="M408,14.923a6.646,6.646,0,0,1-6.337-6.338A4.49,4.49,0,0,1,408,14.923Z" transform="translate(-373.072 -7.466)" fill="#7a6d79"/>
        <path id="Trazado_838496" data-name="Trazado 838496" d="M402.329,11.2a6.619,6.619,0,0,1-.664-2.614,4.493,4.493,0,0,1,6.822,1.067,4.491,4.491,0,0,0-5.27.484c-.072.062-.141.128-.21.2A4.468,4.468,0,0,0,402.329,11.2Z" transform="translate(-373.07 -7.465)" fill="#685e68"/>
        <path id="Trazado_838497" data-name="Trazado 838497" d="M28.455,278.356a2.277,2.277,0,0,0-3.22,0l-3.873,3.873a3.412,3.412,0,0,0,0,4.826l.807.807,6.286-6.286A2.277,2.277,0,0,0,28.455,278.356Z" transform="translate(-19.427 -258.087)" fill="#7bacdf"/>
        <path id="Trazado_838498" data-name="Trazado 838498" d="M28.872,278.935a2.276,2.276,0,0,0-2.64.421l-3.873,3.873a3.411,3.411,0,0,0-.186,4.624l-.008.008-.807-.807a3.413,3.413,0,0,1,0-4.826l3.874-3.873a2.277,2.277,0,0,1,3.22,0A2.247,2.247,0,0,1,28.872,278.935Z" transform="translate(-19.423 -258.086)" fill="#5f99d7"/>
        <path id="Trazado_838499" data-name="Trazado 838499" d="M23.106,381.967a4.491,4.491,0,0,1,6.351,6.351c-.068.068-.138.134-.209.2-.937-.6-3.9,0-5.117-1.221s-.474-4.142-1.22-5.117C22.973,382.1,23.038,382.034,23.106,381.967Z" transform="translate(-21.791 -353.58)" fill="#ffdfcf"/>
        <path id="Trazado_838500" data-name="Trazado 838500" d="M23.568,386.26c-.4-1.4-.08-3.33-.659-4.088.062-.071.128-.141.2-.208a4.5,4.5,0,0,1,7.1.989,4.491,4.491,0,0,0-5.363.747c-.068.068-.133.137-.2.208A4.463,4.463,0,0,0,23.568,386.26Z" transform="translate(-21.789 -353.577)" fill="#ffcebf"/>
        <path id="Trazado_838501" data-name="Trazado 838501" d="M8.588,401.658A6.646,6.646,0,0,1,14.925,408a4.49,4.49,0,0,1-6.337-6.338Z" transform="translate(-7.468 -373.063)" fill="#7a6d79"/>
        <path id="Trazado_838502" data-name="Trazado 838502" d="M9.773,408.544a4.495,4.495,0,0,1-1.185-6.891,6.639,6.639,0,0,1,2.881.8,4.461,4.461,0,0,0-.949.725c-.068.068-.133.137-.2.208A4.492,4.492,0,0,0,9.773,408.544Z" transform="translate(-7.468 -373.058)" fill="#685e68"/>
        <path id="Trazado_838503" data-name="Trazado 838503" d="M103.5,28.455a2.277,2.277,0,0,0,0-3.22l-3.873-3.873a3.412,3.412,0,0,0-4.826,0L94,22.169l6.286,6.286A2.277,2.277,0,0,0,103.5,28.455Z" transform="translate(-87.721 -19.426)" fill="#bbec6c"/>
        <path id="Trazado_838504" data-name="Trazado 838504" d="M104,35.56a2.278,2.278,0,0,1-3.713.737L94,30.01,94.8,29.2a3.377,3.377,0,0,1,.46-.386l6.249,6.249A2.277,2.277,0,0,0,104,35.56Z" transform="translate(-87.72 -27.268)" fill="#a2e62e"/>
        <path id="Trazado_838505" data-name="Trazado 838505" d="M29.448,23.1A4.491,4.491,0,1,1,23.1,29.456c-.068-.068-.134-.138-.2-.209.6-.937,0-3.9,1.221-5.117s4.142-.474,5.117-1.22C29.31,22.972,29.38,23.037,29.448,23.1Z" transform="translate(-21.781 -21.79)" fill="#ffdfcf"/>
        <path id="Trazado_838506" data-name="Trazado 838506" d="M30.125,63.437a4.493,4.493,0,0,1-7.031.871c-.068-.068-.134-.138-.2-.209.414-.65.254-2.271.524-3.611a4.459,4.459,0,0,0,1.027,2.059c.062.072.128.141.2.21A4.491,4.491,0,0,0,30.125,63.437Z" transform="translate(-21.78 -56.642)" fill="#ffcebf"/>
        <path id="Trazado_838507" data-name="Trazado 838507" d="M14.924,8.588a6.646,6.646,0,0,1-6.338,6.337,4.49,4.49,0,0,1,6.338-6.337Z" transform="translate(-7.467 -7.468)" fill="#b98080"/>
        <path id="Trazado_838508" data-name="Trazado 838508" d="M11.2,22.386a6.62,6.62,0,0,1-2.614.664,4.493,4.493,0,0,1,1.067-6.822,4.491,4.491,0,0,0,.484,5.27c.062.072.128.141.2.21a4.469,4.469,0,0,0,.868.678Z" transform="translate(-7.467 -15.593)" fill="#ae6c6c"/>
      </g>
      <path id="Trazado_838509" data-name="Trazado 838509" d="M35.045,24.3l-1.768-1.768.339-.339a.544.544,0,0,0-.769-.769l-7.093,7.094-1.336-1.336a2.8,2.8,0,0,0-1.994-.826h0a2.821,2.821,0,0,0-2,4.816l1.336,1.336-2.241,2.241a1.349,1.349,0,0,1-1.906,0l-9-9,.537-.537,2.3,2.3a.544.544,0,0,0,.769,0l2.924-2.924,1.8,1.8a.544.544,0,0,0,.769,0l5.868-5.868a.544.544,0,0,0,0-.769l-4.395-4.395a.544.544,0,0,0-.769,0l-2.924,2.924-1.8-1.8a.544.544,0,0,0-.769,0L9.409,20a2.824,2.824,0,0,0-3.443.427L4.63,21.762,2.39,19.521a1.348,1.348,0,0,1,0-1.906l9-9,1.335,1.335a2.8,2.8,0,0,0,1.994.826h0a2.821,2.821,0,0,0,2-4.816L15.375,4.629l2.241-2.241a1.349,1.349,0,0,1,1.906,0l9,9L27.182,12.72a2.821,2.821,0,0,0,3.99,3.99l1.336-1.336,2.241,2.241a1.349,1.349,0,0,1,0,1.906l-.109.109a.544.544,0,1,0,.769.769l.109-.109a2.438,2.438,0,0,0,0-3.445L33.277,14.6l1.768-1.768a3.953,3.953,0,0,0,.8-4.438,5.035,5.035,0,0,0-7.11-7.11,3.953,3.953,0,0,0-4.438.8L22.532,3.86,20.291,1.619a2.438,2.438,0,0,0-3.445,0L14.606,3.86,12.887,2.141a.544.544,0,0,0-.769.769l3.824,3.824a1.733,1.733,0,0,1-1.226,2.958h0a1.72,1.72,0,0,1-1.225-.508L10.019,5.714a5.04,5.04,0,0,0-.854-3.557A2.875,2.875,0,0,1,10.2,2.025.544.544,0,1,0,10.257.939,3.947,3.947,0,0,0,8.4,1.288,5.035,5.035,0,0,0,1.289,8.4a3.953,3.953,0,0,0,.8,4.438l1.768,1.769L1.62,16.846a2.436,2.436,0,0,0,0,3.445l2.241,2.241L2.092,24.3a3.953,3.953,0,0,0-.8,4.438,5.037,5.037,0,0,0,1.783,8,.544.544,0,0,0,.423-1A3.948,3.948,0,0,1,1.9,29.7a6.1,6.1,0,0,1,5.533,5.534A3.9,3.9,0,0,1,5.681,36a.544.544,0,1,0,.177,1.074A4.987,4.987,0,0,0,8.4,35.848a3.952,3.952,0,0,0,4.439-.8l1.768-1.768,2.241,2.241a2.438,2.438,0,0,0,3.445,0l2.241-2.241L24.3,35.044a3.952,3.952,0,0,0,4.439.8,5.035,5.035,0,0,0,7.11-7.111,3.953,3.953,0,0,0-.8-4.438ZM26.522,7.85l.919-.919A5.034,5.034,0,0,0,30.206,9.7l-.919.919Zm2.792-.027a3.953,3.953,0,0,1-.552-4.888,7.188,7.188,0,0,0,5.44,5.44A3.953,3.953,0,0,1,29.313,7.823Zm4.962,4.244L30.4,15.941a1.733,1.733,0,0,1-2.451-2.451l3.471-3.471a5.031,5.031,0,0,0,3.558-.854A2.867,2.867,0,0,1,34.276,12.067ZM32.1,1.088a3.944,3.944,0,0,1,3.128,6.349A6.1,6.1,0,0,1,29.7,1.9a3.938,3.938,0,0,1,2.4-.816ZM25.07,2.861a2.867,2.867,0,0,1,2.9-.7,5.04,5.04,0,0,0-.854,3.558L25.752,7.08,23.3,4.629ZM10.616,7.85,7.851,10.615l-.92-.92A5.034,5.034,0,0,0,9.7,6.93ZM8.376,2.935a3.946,3.946,0,0,1-5.44,5.44,7.188,7.188,0,0,0,5.44-5.44ZM2.242,2.242a3.95,3.95,0,0,1,5.2-.338A6.1,6.1,0,0,1,1.9,7.437a3.952,3.952,0,0,1,.338-5.2Zm.619,9.825a2.867,2.867,0,0,1-.7-2.9,5.027,5.027,0,0,0,2.876.9,5.085,5.085,0,0,0,.682-.047l1.367,1.367L4.63,13.836Zm7.754,17.219L9.7,30.2a5.065,5.065,0,0,0-2.765-2.765l.918-.918ZM18.8,16.505l3.625,3.625-5.1,5.1-1.411-1.411,2.174-2.174a.544.544,0,0,0,0-.769l-1.83-1.83Zm-5.488,1.129,3.624,3.625-5.1,5.1L9.926,24.445l.03-.03a2.825,2.825,0,0,0,.262-3.687ZM2.862,25.069,6.735,21.2a1.733,1.733,0,0,1,2.451,2.451L5.717,27.115a5.1,5.1,0,0,0-.684-.047,5,5,0,0,0-2.876.9,2.867,2.867,0,0,1,.7-2.9Zm.073,3.692A3.947,3.947,0,0,1,8.376,34.2a7.188,7.188,0,0,0-5.441-5.441Zm9.134,5.514a2.867,2.867,0,0,1-2.9.7,5,5,0,0,0,.9-2.876,5.1,5.1,0,0,0-.047-.684l1.364-1.364,2.451,2.451ZM28.762,34.2a3.946,3.946,0,0,1,5.44-5.44,7.188,7.188,0,0,0-5.44,5.44Zm5.514-9.132a2.867,2.867,0,0,1,.7,2.9,5.039,5.039,0,0,0-3.558-.854l-1.366-1.366L32.507,23.3Zm-4.989,1.452.919.919a5.034,5.034,0,0,0-2.765,2.765l-.919-.919ZM25.07,34.275,21.2,30.4a1.733,1.733,0,0,1,2.451-2.451l3.471,3.471a5.039,5.039,0,0,0,.854,3.558A2.867,2.867,0,0,1,25.07,34.275Zm9.825.619a3.952,3.952,0,0,1-5.2.338A6.1,6.1,0,0,1,35.233,29.7,3.952,3.952,0,0,1,34.895,34.894Z" transform="translate(0 0)"/>
    </g>
  </g>
</svg>
