<svg xmlns="http://www.w3.org/2000/svg" xmlns:xlink="http://www.w3.org/1999/xlink" width="60.313" height="64.949" viewBox="0 0 60.313 64.949">
  <defs>
    <filter id="Trazado_771226" x="0" y="0" width="60.313" height="64.949" filterUnits="userSpaceOnUse">
      <feOffset dy="3" input="SourceAlpha"/>
      <feGaussianBlur stdDeviation="3" result="blur"/>
      <feFlood flood-opacity="0.161"/>
      <feComposite operator="in" in2="blur"/>
      <feComposite in="SourceGraphic"/>
    </filter>
  </defs>
  <g id="Grupo_1098663" data-name="Grupo 1098663" transform="translate(-831 -936.917)">
    <g id="Grupo_1071655" data-name="Grupo 1071655" transform="translate(841 944)">
      <g transform="matrix(1, 0, 0, 1, -10, -7.08)" filter="url(#Trazado_771226)">
        <path id="Trazado_771226-2" data-name="Trazado 771226" d="M447.517,279.136V264.064a7.732,7.732,0,0,0-3.773-6.655l-12.36-7.329a7.582,7.582,0,0,0-7.5-.14l-12.665,6.885a7.728,7.728,0,0,0-4.02,6.795v15.21a7.733,7.733,0,0,0,3.68,6.6l11.847,7.255a7.583,7.583,0,0,0,7.5.242l13.177-6.949A7.727,7.727,0,0,0,447.517,279.136Z" transform="translate(-397.2 -241.94)" fill="#2ec49f" stroke="#fff" stroke-miterlimit="10" stroke-width="2"/>
      </g>
    </g>
    <g id="llamada_2_" data-name="llamada (2)" transform="translate(842.652 947.871)">
      <g id="Grupo_1098829" data-name="Grupo 1098829" transform="translate(1.588 1.604)">
        <path id="Trazado_838510" data-name="Trazado 838510" d="M41.225,36.485l-1.779,2.964a3.676,3.676,0,0,1-1.213,1.237,3.393,3.393,0,0,1-.916.4c-2.952.811-9.468.98-19.911-9.468S7.126,14.66,7.937,11.708a3.393,3.393,0,0,1,.4-.916A3.675,3.675,0,0,1,9.576,9.579L12.54,7.8a1.478,1.478,0,0,1,1.989.449L17.1,12.1l2.153,3.232a1.49,1.49,0,0,1-.321,1.989l-.712.554L16.279,19.38a1.485,1.485,0,0,0-.391,1.878,24.272,24.272,0,0,0,5.169,6.709,24.054,24.054,0,0,0,6.709,5.169,1.485,1.485,0,0,0,1.878-.391L31.15,30.8l.554-.712a1.49,1.49,0,0,1,1.989-.321l3.331,2.223,3.751,2.5A1.478,1.478,0,0,1,41.225,36.485Z" transform="translate(-7.601 -7.589)" fill="#ff9801"/>
        <path id="Trazado_838511" data-name="Trazado 838511" d="M40.058,53.551l-1.779,2.964c-.018.023-.029.047-.047.07a3.393,3.393,0,0,1-.916.4c-2.952.811-9.468.98-19.911-9.468S7.126,30.559,7.937,27.607a3.393,3.393,0,0,1,.4-.916c.023-.018.047-.029.07-.047l2.964-1.779a1.478,1.478,0,0,1,1.989.449l2.573,3.85L18.088,32.4a1.5,1.5,0,0,1-.321,1.989L15.812,35.9l-.7.543a1.481,1.481,0,0,0-.391,1.878,24.272,24.272,0,0,0,5.169,6.709A24.054,24.054,0,0,0,26.6,50.2a1.481,1.481,0,0,0,1.878-.391l.543-.7,1.517-1.954a1.5,1.5,0,0,1,1.989-.321l3.331,2.223,3.751,2.5A1.478,1.478,0,0,1,40.058,53.551Z" transform="translate(-7.601 -23.489)" fill="#ffdc00"/>
      </g>
      <g id="Grupo_1098830" data-name="Grupo 1098830" transform="translate(1 1.018)">
        <path id="Trazado_838512" data-name="Trazado 838512" d="M28.717,36.024a10.336,10.336,0,0,0,2.742-.358,4.176,4.176,0,0,0,2.474-1.906L35.714,30.8a2.058,2.058,0,0,0-.624-2.775L28,23.3a2.068,2.068,0,0,0-2.769.45L23.171,26.4a.882.882,0,0,1-1.131.238l-.393-.216a23.728,23.728,0,0,1-6.184-4.857,23.824,23.824,0,0,1-4.857-6.184l-.215-.393a.883.883,0,0,1,.233-1.135l2.652-2.063a2.069,2.069,0,0,0,.45-2.769L9,1.937a2.058,2.058,0,0,0-2.773-.624L3.265,3.092A4.18,4.18,0,0,0,1.359,5.566c-1.067,3.888-.264,10.6,9.62,20.482C18.841,33.91,24.694,36.024,28.717,36.024ZM2.484,5.874A3.02,3.02,0,0,1,3.865,4.093L6.828,2.315a.893.893,0,0,1,1.2.271L10.6,6.44l2.154,3.231a.9.9,0,0,1-.195,1.2L9.905,12.936a2.042,2.042,0,0,0-.541,2.621l.211.383a24.749,24.749,0,0,0,5.057,6.452,24.773,24.773,0,0,0,6.452,5.056l.383.211a2.042,2.042,0,0,0,2.621-.541l2.063-2.653a.9.9,0,0,1,1.2-.195L34.438,29a.892.892,0,0,1,.271,1.2l-1.778,2.963a3.015,3.015,0,0,1-1.779,1.379c-3.589.985-9.859.169-19.348-9.32S1.5,9.464,2.484,5.874Z" transform="translate(-1 -1.018)"/>
        <path id="Trazado_838513" data-name="Trazado 838513" d="M283.211,70.491a9.929,9.929,0,0,1,9.918,9.918.583.583,0,0,0,1.167,0,11.1,11.1,0,0,0-11.084-11.084.583.583,0,1,0,0,1.167Z" transform="translate(-263.374 -64.654)"/>
        <path id="Trazado_838514" data-name="Trazado 838514" d="M283.211,121.691a6.425,6.425,0,0,1,6.417,6.417.583.583,0,1,0,1.167,0,7.593,7.593,0,0,0-7.584-7.584.583.583,0,1,0,0,1.167Z" transform="translate(-263.374 -112.354)"/>
        <path id="Trazado_838515" data-name="Trazado 838515" d="M283.211,172.891a2.92,2.92,0,0,1,2.917,2.917.583.583,0,0,0,1.167,0,4.088,4.088,0,0,0-4.084-4.084.583.583,0,0,0,0,1.167Z" transform="translate(-263.374 -160.054)"/>
      </g>
    </g>
  </g>
</svg>
