<svg xmlns="http://www.w3.org/2000/svg" xmlns:xlink="http://www.w3.org/1999/xlink" width="60.313" height="64.949" viewBox="0 0 60.313 64.949">
  <defs>
    <filter id="Trazado_771226" x="0" y="0" width="60.313" height="64.949" filterUnits="userSpaceOnUse">
      <feOffset dy="3" input="SourceAlpha"/>
      <feGaussianBlur stdDeviation="3" result="blur"/>
      <feFlood flood-opacity="0.161"/>
      <feComposite operator="in" in2="blur"/>
      <feComposite in="SourceGraphic"/>
    </filter>
  </defs>
  <g id="Grupo_1098661" data-name="Grupo 1098661" transform="translate(-831 -936.917)">
    <g id="Grupo_1071655" data-name="Grupo 1071655" transform="translate(841 944)">
      <g transform="matrix(1, 0, 0, 1, -10, -7.08)" filter="url(#Trazado_771226)">
        <path id="Trazado_771226-2" data-name="Trazado 771226" d="M447.517,279.136V264.064a7.732,7.732,0,0,0-3.773-6.655l-12.36-7.329a7.582,7.582,0,0,0-7.5-.14l-12.665,6.885a7.728,7.728,0,0,0-4.02,6.795v15.21a7.733,7.733,0,0,0,3.68,6.6l11.847,7.255a7.583,7.583,0,0,0,7.5.242l13.177-6.949A7.727,7.727,0,0,0,447.517,279.136Z" transform="translate(-397.2 -241.94)" fill="#2ec49f" stroke="#fff" stroke-miterlimit="10" stroke-width="2"/>
      </g>
    </g>
    <g id="virtual" transform="translate(841.911 946.754)">
      <g id="Grupo_1098843" data-name="Grupo 1098843" transform="translate(0.621 0.621)">
        <g id="Grupo_1098832" data-name="Grupo 1098832" transform="translate(23.592 34.767)">
          <path id="Trazado_838553" data-name="Trazado 838553" d="M10,59.242v1.242h8.692V59.242A1.245,1.245,0,0,0,17.45,58H11.242A1.245,1.245,0,0,0,10,59.242Z" transform="translate(-10 -58)" fill="#969faa"/>
        </g>
        <g id="Grupo_1098833" data-name="Grupo 1098833" transform="translate(26.609 21.86)">
          <path id="Trazado_838554" data-name="Trazado 838554" d="M15,39.731v.006a1.194,1.194,0,0,1,.087.447v9.933H17.57V40.184a3.7,3.7,0,0,0-1.49-2.974Z" transform="translate(-15 -37.21)" fill="#aab2bd"/>
        </g>
        <g id="Grupo_1098834" data-name="Grupo 1098834" transform="translate(21.729 16.142)">
          <path id="Trazado_838555" data-name="Trazado 838555" d="M15.15,37.822a1.879,1.879,0,0,0-.019,1.422,1.859,1.859,0,0,0,1,1.024,1.84,1.84,0,0,0,.733.149,1.864,1.864,0,0,0,1.714-1.13l1.3-3.042v-.006l1.08-2.521L22.3,30.6a1.85,1.85,0,0,0,.012-1.422A1.848,1.848,0,0,0,20.589,28a1.857,1.857,0,0,0-1.714,1.13Z" transform="translate(-15.001 -28)" fill="#ccd1d9"/>
        </g>
        <g id="Grupo_1098835" data-name="Grupo 1098835" transform="translate(20.488)">
          <path id="Trazado_838556" data-name="Trazado 838556" d="M5,4.316a1.909,1.909,0,0,0,.025.329l.931,6.537A2.321,2.321,0,0,0,8.1,13.169,3.727,3.727,0,0,1,11.829,9.45h.621a2.483,2.483,0,1,1,2.483-2.483A2.483,2.483,0,0,1,12.45,9.45h.621A3.727,3.727,0,0,1,16.8,13.169a2.321,2.321,0,0,0,2.148-1.987l.931-6.537a1.91,1.91,0,0,0,.025-.329A2.31,2.31,0,0,0,17.584,2H7.316A2.316,2.316,0,0,0,5,4.316Z" transform="translate(-5 -2)" fill="#e6e9ed"/>
        </g>
        <g id="Grupo_1098836" data-name="Grupo 1098836" transform="translate(23.592 7.45)">
          <path id="Trazado_838557" data-name="Trazado 838557" d="M10,17.719a1.2,1.2,0,0,0,.149.006h2.334v1.608a.878.878,0,0,0,1.5.621l2.229-2.229h2.334a1.2,1.2,0,0,0,.149-.006A3.727,3.727,0,0,0,14.967,14H13.725A3.727,3.727,0,0,0,10,17.719Z" transform="translate(-10 -14)" fill="#5cd6b3"/>
        </g>
        <g id="Grupo_1098837" data-name="Grupo 1098837" transform="translate(0 4.967)">
          <path id="Trazado_838558" data-name="Trazado 838558" d="M46.417,16.208h3.725a1.245,1.245,0,0,0,1.242-1.242A4.96,4.96,0,0,0,46.417,10H42.754A8.752,8.752,0,0,0,34,18.754v.217A8.765,8.765,0,0,0,39.5,27.1l.708.279V23.659l-1.658-1.242a2.071,2.071,0,0,1,1.242-3.725h.416v-.621a1.86,1.86,0,0,1,1.863-1.863Z" transform="translate(-34 -10)" fill="#b27946"/>
        </g>
        <g id="Grupo_1098838" data-name="Grupo 1098838" transform="translate(2.483 29.912)">
          <path id="Trazado_838559" data-name="Trazado 838559" d="M46,50.267v7.251h7.45a7.44,7.44,0,0,1-7.444-7.338.41.41,0,0,0-.006.087Z" transform="translate(-46 -50.18)" fill="#fcd770"/>
        </g>
        <g id="Grupo_1098839" data-name="Grupo 1098839" transform="translate(2.49 24.834)">
          <path id="Trazado_838560" data-name="Trazado 838560" d="M45.144,50.692A9.856,9.856,0,0,0,37.719,42a5.438,5.438,0,0,0-2.694,1.98A5.382,5.382,0,0,0,34,47.078a7.44,7.44,0,0,0,7.444,7.338h7.45V51.933a1.245,1.245,0,0,0-1.242-1.242Z" transform="translate(-34 -42)" fill="#fcd770"/>
        </g>
        <g id="Grupo_1098840" data-name="Grupo 1098840" transform="translate(17.383 34.767)">
          <path id="Trazado_838561" data-name="Trazado 838561" d="M28,58v2.483h3.725V59.242A1.245,1.245,0,0,0,30.483,58Z" transform="translate(-28 -58)" fill="#f0d0b4"/>
        </g>
        <g id="Grupo_1098841" data-name="Grupo 1098841" transform="translate(3.725 11.175)">
          <path id="Trazado_838562" data-name="Trazado 838562" d="M43.45,31.8h1.242a2.483,2.483,0,0,0,2.483-2.483V27.45l.5-.248a1.344,1.344,0,0,0,.745-1.2,1.4,1.4,0,0,0-.224-.751l-.6-.894a2.479,2.479,0,0,1-.416-1.378V20H40.346a1.86,1.86,0,0,0-1.863,1.863v.621h-.416a2.071,2.071,0,0,0-1.242,3.725l1.658,1.242v6.208a9.849,9.849,0,0,1,4.967,3Z" transform="translate(-36 -20)" fill="#f0d0b4"/>
        </g>
        <g id="Grupo_1098842" data-name="Grupo 1098842" transform="translate(25.871 2.871)">
          <ellipse id="Elipse_10540" data-name="Elipse 10540" cx="2.5" cy="2.5" rx="2.5" ry="2.5" transform="translate(0 0)" fill="#f0d0b4"/>
        </g>
      </g>
      <g id="Grupo_1098844" data-name="Grupo 1098844" transform="translate(0 0)">
        <path id="Trazado_838563" data-name="Trazado 838563" d="M1,18.594v-.219A9.386,9.386,0,0,1,10.375,9h3.662a5.594,5.594,0,0,1,5.588,5.588,1.865,1.865,0,0,1-1.863,1.863h-.621V18.8a1.856,1.856,0,0,0,.313,1.033l.6.9a1.969,1.969,0,0,1-.758,2.854l-.153.076v1.479a3.108,3.108,0,0,1-3.1,3.1h-.621v4.015a10.438,10.438,0,0,1,2.38,5.3h1.966A1.86,1.86,0,0,1,19.511,38.8h1.977a1.865,1.865,0,0,1,1.863,1.863v.621h1.242v-.621A1.865,1.865,0,0,1,26.454,38.8H27.7V31.858l-.2.469a2.48,2.48,0,0,1-2.284,1.507,2.483,2.483,0,0,1-2.282-3.461l3.724-8.689a2.483,2.483,0,1,1,4.566,1.953l-1.157,2.7a4.3,4.3,0,0,1,1.36,3.151V38.8h1.242a1.865,1.865,0,0,1,1.863,1.863v.621h4.967v1.242H1V41.284H3.483V34.656c0-.038,0-.075,0-.113s0-.058,0-.088h.008a6.056,6.056,0,0,1,3.717-5.4V27.425S1,22.45,1,18.594Zm17.383-4.007a4.351,4.351,0,0,0-4.346-4.346H10.375a8.143,8.143,0,0,0-8.134,8.134V18.6a8.091,8.091,0,0,0,4.967,7.487V23.59L5.8,22.534A2.69,2.69,0,0,1,7.208,17.7v-.007a2.486,2.486,0,0,1,2.483-2.483h2.6a1.83,1.83,0,0,1-.115-.621,1.865,1.865,0,0,1,1.863-1.863h.621v1.242h-.621a.621.621,0,0,0,0,1.242h3.725a.621.621,0,0,0,.621-.621Zm-6.3,13.659a2.471,2.471,0,0,1-2.221-1.373l-.106-.212,1.111-.556.106.212A1.236,1.236,0,0,0,12.084,27h1.953a1.86,1.86,0,0,0,1.748-1.242l.114-1.242V22.9l.839-.42a.727.727,0,0,0,.28-1.054l-.6-.9A3.1,3.1,0,0,1,15.9,18.8V16.45H9.692A1.243,1.243,0,0,0,8.45,17.692v1.241H7.415a1.448,1.448,0,0,0-.869,2.608l1.9,1.428v6.054a10.446,10.446,0,0,1,3.725,2.008V28.246Zm18-6.049a1.241,1.241,0,0,0-2.295-.026L24.07,30.862a1.241,1.241,0,0,0,.653,1.63,1.27,1.27,0,0,0,1.63-.654l3.724-8.691a1.229,1.229,0,0,0,.012-.95Zm.09,7.291a3.063,3.063,0,0,0-.655-1.9l-.639,1.491a1.776,1.776,0,0,1,.052.407V38.8h1.241Zm3.1,11.175a.621.621,0,0,0-.621-.621H26.454a.621.621,0,0,0-.621.621v.621h7.45Zm-11.175.621v-.621a.621.621,0,0,0-.621-.621H19.625v1.242Zm-17.383,0H7.273a8.116,8.116,0,0,1-2.548-2.548Zm.006-6.708a6.834,6.834,0,0,0,6.823,6.708h6.829V39.421a.621.621,0,0,0-.621-.621H12.8a5.594,5.594,0,0,1-5.588-5.588H8.45A4.351,4.351,0,0,0,12.8,37.559h1.751a9.225,9.225,0,0,0-6.69-7.422A4.816,4.816,0,0,0,4.731,34.576Z" transform="translate(-1 -4.033)"/>
        <path id="Trazado_838564" data-name="Trazado 838564" d="M19.178,10.894a2.953,2.953,0,0,1-2.91,2.523H14.19l-2.045,2.045A1.5,1.5,0,0,1,9.588,14.4v-.985H7.873a2.953,2.953,0,0,1-2.91-2.523L4.029,4.355A3,3,0,0,1,4,3.939,2.943,2.943,0,0,1,6.939,1H17.2a2.938,2.938,0,0,1,2.909,3.355Zm-8.349,1.281V14.4a.267.267,0,0,0,.439.182l2.408-2.408h2.057a3.11,3.11,0,0,0-3.041-2.483H11.45a3.11,3.11,0,0,0-3.041,2.483ZM12.071,8.45a1.863,1.863,0,1,0-1.863-1.863A1.865,1.865,0,0,0,12.071,8.45ZM17.2,2.242H6.94a1.7,1.7,0,0,0-1.7,1.7,1.723,1.723,0,0,0,.017.24l.934,6.538a1.7,1.7,0,0,0,.985,1.3A4.355,4.355,0,0,1,9.856,8.756a3.1,3.1,0,1,1,4.429,0,4.357,4.357,0,0,1,2.679,3.261,1.7,1.7,0,0,0,.985-1.3l.933-6.538a1.648,1.648,0,0,0,.017-.241A1.7,1.7,0,0,0,17.2,2.242Z" transform="translate(16.488 -1)"/>
      </g>
    </g>
  </g>
</svg>
