<svg xmlns="http://www.w3.org/2000/svg" xmlns:xlink="http://www.w3.org/1999/xlink" width="94.326" height="102.647" viewBox="0 0 94.326 102.647">
  <defs>
    <filter id="Trazado_771226" x="0" y="0" width="94.326" height="102.647" filterUnits="userSpaceOnUse">
      <feOffset dy="3" input="SourceAlpha"/>
      <feGaussianBlur stdDeviation="3" result="blur"/>
      <feFlood flood-opacity="0.161"/>
      <feComposite operator="in" in2="blur"/>
      <feComposite in="SourceGraphic"/>
    </filter>
  </defs>
  <g id="Grupo_1098858" data-name="Grupo 1098858" transform="translate(-192.953 -571.286)">
    <g id="Grupo_1071666" data-name="Grupo 1071666" transform="translate(203.953 579.437)">
      <g transform="matrix(1, 0, 0, 1, -11, -8.15)" filter="url(#Trazado_771226)">
        <path id="Trazado_771226-2" data-name="Trazado 771226" d="M479.53,303.052v-27.04a13.871,13.871,0,0,0-6.769-11.939l-22.175-13.148a13.6,13.6,0,0,0-13.447-.252l-22.721,12.351a13.866,13.866,0,0,0-7.213,12.191V302.5a13.874,13.874,0,0,0,6.6,11.838l21.255,13.016a13.6,13.6,0,0,0,13.463.434l23.641-12.468A13.863,13.863,0,0,0,479.53,303.052Z" transform="translate(-396.2 -240.87)" fill="#5793ce" stroke="#fff" stroke-miterlimit="10" stroke-width="4"/>
      </g>
    </g>
    <g id="servicio_3_" data-name="servicio (3)" transform="translate(206.725 568.181)">
      <g id="Grupo_1098856" data-name="Grupo 1098856" transform="translate(8.821 31.021)">
        <g id="Grupo_1098852" data-name="Grupo 1098852" transform="translate(1.897 26.162)">
          <path id="Trazado_838663" data-name="Trazado 838663" d="M58.258,300l9.846-2.654c1.848-.5,3.65-.719,5.256.322a62.037,62.037,0,0,0,7.732,4.847,2.451,2.451,0,0,1,.877,3.275,2.373,2.373,0,0,1-3.275.878l1.092.488a5.5,5.5,0,0,0,3.824.342l9.473-2.577c7.364-2,6.77,3.955,4.3,4.691l-17.324,5.172a5.646,5.646,0,0,1-4.583-.561l-10.012-5.78-4.612,1.236a1.67,1.67,0,0,1-2.042-1.179l-1.731-6.46A1.67,1.67,0,0,1,58.258,300Z" transform="translate(-54.722 -296.604)" fill="#f6dccd" fill-rule="evenodd"/>
          <path id="Trazado_838664" data-name="Trazado 838664" d="M224.5,351.739a2.421,2.421,0,0,1-2.944.42c-1.642-.941-3.278-1.893-4.917-2.839a.918.918,0,1,1,.918-1.589Z" transform="translate(-197.587 -342.093)" fill="#f1cbbc" fill-rule="evenodd"/>
          <path id="Trazado_838665" data-name="Trazado 838665" d="M58.257,300l9.846-2.654c1.848-.5,3.65-.719,5.256.322.958.621,2.214,1.546,3.652,2.5l-19.064,5.108-.866-3.231A1.67,1.67,0,0,1,58.257,300Z" transform="translate(-54.722 -296.604)" fill="#f1cbbc" fill-rule="evenodd"/>
          <path id="Trazado_838666" data-name="Trazado 838666" d="M39.641,294.677,43.2,308.431a1.253,1.253,0,0,1-.9,1.522l-2.648.685a1.253,1.253,0,0,1-1.522-.9l-3.559-13.755a1.253,1.253,0,0,1,.9-1.522l2.648-.685a1.253,1.253,0,0,1,1.522.9Z" transform="translate(-34.535 -293.74)" fill="#d1d1d6" fill-rule="evenodd"/>
          <path id="Trazado_838667" data-name="Trazado 838667" d="M74.76,303.837l.63,2.435.623,2.408a1.253,1.253,0,0,1-.892,1.521l.946-.245a1.253,1.253,0,0,0,.9-1.522l-.625-2.416-1.255-4.85-1.257-4.856-.422-1.633a1.254,1.254,0,0,0-1.256-.935l.732,2.827,1.255,4.85.625,2.416Z" transform="translate(-68.297 -293.742)" fill="#b1b1b5" fill-rule="evenodd"/>
        </g>
        <g id="Grupo_1098853" data-name="Grupo 1098853" transform="translate(0 0)">
          <path id="Trazado_838668" data-name="Trazado 838668" d="M27.323,39.752a8.059,8.059,0,0,1,2.36.978l1.533-.681,1.807,1.807-.681,1.533a8.057,8.057,0,0,1,.978,2.36l1.564.6v2.556l-1.565.6a8.055,8.055,0,0,1-.978,2.36l.681,1.533L31.216,55.21l-1.533-.681a8.057,8.057,0,0,1-2.36.978l-.6,1.564H24.165l-.6-1.565a8.058,8.058,0,0,1-2.36-.978l-1.533.681L17.862,53.4l.681-1.533a8.057,8.057,0,0,1-.978-2.36L16,48.908V46.352l1.565-.6a8.058,8.058,0,0,1,.978-2.36l-.681-1.533,1.807-1.807,1.533.681a8.059,8.059,0,0,1,2.36-.978l.6-1.565h2.556Z" transform="translate(-16 -38.187)" fill="#837683" fill-rule="evenodd"/>
          <path id="Trazado_838669" data-name="Trazado 838669" d="M51.306,54.528l-1.533.681-.236-.236,1.438-.638Q51.138,54.435,51.306,54.528Zm6.12-14.778a8.059,8.059,0,0,1,2.36.978l-.436.194a10.629,10.629,0,0,0-2.692-1.172l-.6-1.565h.768Zm2.36,14.778a8.057,8.057,0,0,1-2.36.978l-.6,1.564h-.768l.6-1.564a10.626,10.626,0,0,0,2.692-1.172ZM49.536,40.283l.236-.236,1.533.681q-.168.093-.332.194Zm11.251,0,.532-.236,1.807,1.807-.681,1.533a8.056,8.056,0,0,1,.978,2.36l1.564.6v2.556l-1.565.6a8.056,8.056,0,0,1-.978,2.36l.681,1.533-1.807,1.807-.532-.236L62.359,53.4l-.681-1.533a8.058,8.058,0,0,0,.978-2.36l1.565-.6V46.35l-1.564-.6a8.057,8.057,0,0,0-.978-2.36l.681-1.533Z" transform="translate(-46.103 -38.185)" fill="#685e68" fill-rule="evenodd"/>
          <circle id="Elipse_10541" data-name="Elipse 10541" cx="4.457" cy="4.457" r="4.457" transform="translate(3.138 9.443) rotate(-45)" fill="#eceff1"/>
          <path id="Trazado_838670" data-name="Trazado 838670" d="M69.158,86.887a4.457,4.457,0,0,0,0,8.914q.179,0,.355-.014a4.457,4.457,0,0,1,0-8.886Q69.337,86.887,69.158,86.887Z" transform="translate(-59.715 -81.901)" fill="#d1d1d6" fill-rule="evenodd"/>
        </g>
        <g id="Grupo_1098854" data-name="Grupo 1098854" transform="translate(19.679 0.856)">
          <path id="Trazado_838671" data-name="Trazado 838671" d="M225.893,48.992a12.569,12.569,0,0,1,3.681,1.526l2.392-1.062,2.819,2.819-1.062,2.391a12.572,12.572,0,0,1,1.526,3.682l2.44.939v3.987l-2.441.939a12.571,12.571,0,0,1-1.526,3.681l1.062,2.392-2.819,2.819-2.391-1.062a12.57,12.57,0,0,1-3.682,1.526l-.939,2.44h-3.987l-.94-2.441a12.571,12.571,0,0,1-3.681-1.526l-2.392,1.062-2.819-2.819L212.2,67.9a12.57,12.57,0,0,1-1.526-3.682l-2.44-.939V59.287l2.441-.939a12.571,12.571,0,0,1,1.526-3.681l-1.062-2.392,2.819-2.819,2.392,1.062a12.572,12.572,0,0,1,3.681-1.526l.94-2.441h3.987Z" transform="translate(-208.23 -46.551)" fill="#ffe177" fill-rule="evenodd"/>
          <path id="Trazado_838672" data-name="Trazado 838672" d="M263.3,72.048l-2.392,1.062-.368-.368,2.243-1Q263.042,71.9,263.3,72.048ZM272.851,49a12.569,12.569,0,0,1,3.681,1.526l-.68.3a16.58,16.58,0,0,0-4.2-1.828l-.94-2.441h1.2Zm3.682,23.052a12.57,12.57,0,0,1-3.682,1.526l-.939,2.44h-1.2l.939-2.44a16.577,16.577,0,0,0,4.2-1.828Zm-15.989-22.22.368-.368,2.392,1.062q-.262.145-.518.3Zm17.551,0,.829-.368,2.819,2.819-1.062,2.391a12.572,12.572,0,0,1,1.526,3.682l2.44.939v3.987l-2.441.939a12.57,12.57,0,0,1-1.526,3.681l1.062,2.392-2.819,2.819-.829-.368,2.451-2.451L279.484,67.9a12.578,12.578,0,0,0,1.526-3.681l2.441-.939V59.291l-2.44-.939a12.567,12.567,0,0,0-1.526-3.682l1.062-2.391Z" transform="translate(-255.189 -46.555)" fill="#ffd064" fill-rule="evenodd"/>
        </g>
        <g id="Grupo_1098855" data-name="Grupo 1098855" transform="translate(26.648 7.812)">
          <circle id="Elipse_10542" data-name="Elipse 10542" cx="7.612" cy="7.612" r="7.612" transform="translate(0 0.32) rotate(-1.203)" fill="#837683"/>
          <path id="Trazado_838673" data-name="Trazado 838673" d="M352.44,123.69a7.577,7.577,0,0,1-1.27,4.211,7.622,7.622,0,0,1-5.666,3.371q.334.03.677.03a7.672,7.672,0,0,0,1.089-.077l.137-.021a7.613,7.613,0,0,0-1.227-15.127q-.342,0-.677.03A7.613,7.613,0,0,1,352.44,123.69Z" transform="translate(-338.42 -115.915)" fill="#685e68" fill-rule="evenodd"/>
          <path id="Trazado_838674" data-name="Trazado 838674" d="M305.77,197.61a5.318,5.318,0,0,0-5.286,4.744,7.587,7.587,0,0,0,5.286,2.134,7.679,7.679,0,0,0,1.089-.077,7.589,7.589,0,0,0,4.2-2.057A5.317,5.317,0,0,0,305.77,197.61Z" transform="translate(-298.009 -189.101)" fill="#8ac9fe" fill-rule="evenodd"/>
          <path id="Trazado_838675" data-name="Trazado 838675" d="M345.506,197.653c3.164.4,4.44,2.8,4.733,5.666a7.641,7.641,0,0,0,1.229-.965,5.317,5.317,0,0,0-5.285-4.744A5.371,5.371,0,0,0,345.506,197.653Z" transform="translate(-338.422 -189.101)" fill="#60b7ff" fill-rule="evenodd"/>
          <circle id="Elipse_10543" data-name="Elipse 10543" cx="2.688" cy="2.688" r="2.688" transform="translate(5.073 3.133)" fill="#f6dccd"/>
          <path id="Trazado_838676" data-name="Trazado 838676" d="M351.16,147.789a2.688,2.688,0,0,1-2.349,2.667,2.688,2.688,0,1,0,0-5.333A2.688,2.688,0,0,1,351.16,147.789Z" transform="translate(-341.388 -141.968)" fill="#f1cbbc" fill-rule="evenodd"/>
        </g>
      </g>
      <g id="Grupo_1098857" data-name="Grupo 1098857" transform="translate(8.002 30.204)">
        <path id="Trazado_838677" data-name="Trazado 838677" d="M18.264,36.827a3.639,3.639,0,1,1-3.639,3.639A3.643,3.643,0,0,1,18.264,36.827Zm0,8.915a5.276,5.276,0,1,0-5.276-5.276A5.282,5.282,0,0,0,18.264,45.742ZM9.64,39.75v1.431l1.04.4a.817.817,0,0,1,.5.574,7.258,7.258,0,0,0,.879,2.121.821.821,0,0,1,.051.762l-.452,1.019,1.011,1.012,1.02-.452a.82.82,0,0,1,.763.051,7.231,7.231,0,0,0,2.119.879.82.82,0,0,1,.575.5l.4,1.04h1.431l.4-1.04a.817.817,0,0,1,.574-.5,7.232,7.232,0,0,0,2.12-.879.82.82,0,0,1,.763-.051l1.019.452,1.012-1.012-.453-1.02a.819.819,0,0,1,.051-.762,7.227,7.227,0,0,0,.879-2.12.817.817,0,0,1,.5-.574l1.04-.4V39.75l-1.04-.4a.82.82,0,0,1-.5-.574,7.228,7.228,0,0,0-.879-2.121.819.819,0,0,1-.051-.762l.453-1.019-1.012-1.012-1.02.453a.819.819,0,0,1-.761-.051,7.2,7.2,0,0,0-2.12-.879.819.819,0,0,1-.574-.5l-.4-1.04H17.548l-.4,1.04a.821.821,0,0,1-.575.5,7.225,7.225,0,0,0-2.12.879.82.82,0,0,1-.762.051l-1.02-.453L11.66,34.874l.452,1.02a.819.819,0,0,1-.051.762,7.237,7.237,0,0,0-.878,2.12.818.818,0,0,1-.5.575Zm.806,5.006-.511,1.151a.817.817,0,0,0,.169.911l1.806,1.807a.82.82,0,0,0,.912.169l1.151-.511a8.845,8.845,0,0,0,1.8.744l.452,1.175a.82.82,0,0,0,.764.525h2.556a.82.82,0,0,0,.765-.525l.451-1.174a8.826,8.826,0,0,0,1.8-.744l1.151.511a.818.818,0,0,0,.911-.169l1.807-1.807a.82.82,0,0,0,.17-.911l-.512-1.151a8.87,8.87,0,0,0,.745-1.8L28,42.508a.819.819,0,0,0,.525-.764V39.188A.819.819,0,0,0,28,38.423l-1.174-.452a8.866,8.866,0,0,0-.744-1.8l.511-1.151a.82.82,0,0,0-.17-.911l-1.807-1.807a.818.818,0,0,0-.911-.169l-1.152.511a8.842,8.842,0,0,0-1.8-.744l-.451-1.174a.82.82,0,0,0-.765-.525H16.985a.82.82,0,0,0-.764.525L15.769,31.9a8.854,8.854,0,0,0-1.8.745l-1.151-.511a.82.82,0,0,0-.912.169L10.1,34.113a.817.817,0,0,0-.169.911l.511,1.151a8.814,8.814,0,0,0-.744,1.8l-1.174.452A.819.819,0,0,0,8,39.188v2.556a.818.818,0,0,0,.525.764L9.7,42.96a8.869,8.869,0,0,0,.745,1.8Zm3.908,15.606a.854.854,0,1,1-.749-.947A.854.854,0,0,1,14.353,60.362Zm20.022,7.645.98.441a6.317,6.317,0,0,0,4.391.386l9.519-2.59c2.7-.735,4.536-.4,4.9.889a1.924,1.924,0,0,1-1.031,2.25l-17.406,5.2a4.867,4.867,0,0,1-3.961-.488l-10.06-5.808a.817.817,0,0,0-.622-.082l-1.841.493-2.114-8.17,7.03-1.893c1.573-.424,3.221-.69,4.622.22.456.3.977.659,1.58,1.079a44.336,44.336,0,0,0,6.23,3.819,1.632,1.632,0,0,1,.576,2.166,1.563,1.563,0,0,1-2.125.6c-1.142-.573-2.206-1.21-3.33-1.884-.534-.32-1.087-.651-1.658-.981a.819.819,0,0,0-.819,1.419c.559.323,1.106.651,1.634.968Zm-16,4.381a.43.43,0,0,0,.047-.33l-3.576-13.82a.437.437,0,0,0-.2-.265.449.449,0,0,0-.222-.061.43.43,0,0,0-.107.014l-2.661.689a.442.442,0,0,0-.312.532l3.576,13.82a.439.439,0,0,0,.532.313l2.66-.688A.433.433,0,0,0,18.379,72.388Zm30.456-7.723-9.519,2.59a4.692,4.692,0,0,1-1.238.171h0a3.491,3.491,0,0,0,.516-.688,3.293,3.293,0,0,0-1.146-4.387.726.726,0,0,0-.1-.053A42.643,42.643,0,0,1,31.3,58.59c-.59-.411-1.146-.8-1.625-1.109-1.945-1.262-4.094-.924-5.939-.427l-7.015,1.889-.289-1.114a2.077,2.077,0,0,0-2.527-1.488l-2.66.688a2.076,2.076,0,0,0-1.488,2.527l3.576,13.82a2.072,2.072,0,0,0,2.527,1.489l2.661-.689a2.076,2.076,0,0,0,1.487-2.527l-.353-1.365,1.527-.409,9.766,5.638a6.528,6.528,0,0,0,5.249.638l17.406-5.2a3.546,3.546,0,0,0,2.137-4.268c-.242-.849-1.456-3.5-6.909-2.02Zm.074-14.335a6.121,6.121,0,0,0-3.141-3.259,3.507,3.507,0,1,0-5.077,0A6.127,6.127,0,0,0,37.55,50.33a6.793,6.793,0,1,1,11.359,0Zm-5.68-3.806a1.869,1.869,0,1,0-1.868-1.869A1.871,1.871,0,0,0,43.229,46.524ZM38.82,51.771a6.774,6.774,0,0,0,8.818,0,4.5,4.5,0,0,0-8.818,0Zm4.409-13.593a8.431,8.431,0,1,0,8.431,8.431A8.441,8.441,0,0,0,43.229,38.178ZM57.141,48.04V45.178l-1.915-.737a.82.82,0,0,1-.5-.575A11.731,11.731,0,0,0,53.3,40.424a.821.821,0,0,1-.052-.762l.834-1.877-2.024-2.024-1.878.834a.82.82,0,0,1-.762-.051,11.744,11.744,0,0,0-3.441-1.427.819.819,0,0,1-.574-.5L44.661,32.7H41.8l-.737,1.916a.82.82,0,0,1-.575.5,11.744,11.744,0,0,0-3.44,1.427.82.82,0,0,1-.762.051L34.4,35.761l-2.024,2.024.834,1.878a.82.82,0,0,1-.051.762,11.754,11.754,0,0,0-1.427,3.441.818.818,0,0,1-.5.574l-1.915.738v2.863l1.915.737a.818.818,0,0,1,.5.574A11.741,11.741,0,0,0,33.164,52.8a.82.82,0,0,1,.051.762l-.834,1.877L34.4,57.458l1.879-.834a.82.82,0,0,1,.762.052,11.729,11.729,0,0,0,3.44,1.426.82.82,0,0,1,.575.5l.737,1.916h2.862L45.4,58.6a.816.816,0,0,1,.574-.5,11.718,11.718,0,0,0,3.441-1.426.82.82,0,0,1,.763-.052l1.878.834,2.023-2.024-.834-1.878a.817.817,0,0,1,.052-.762,11.714,11.714,0,0,0,1.426-3.441.819.819,0,0,1,.5-.575Zm1.113-4.189a.819.819,0,0,1,.525.764V48.6a.818.818,0,0,1-.525.764l-2.046.788a13.307,13.307,0,0,1-1.294,3.123l.891,2.005a.82.82,0,0,1-.17.911l-2.818,2.819a.82.82,0,0,1-.912.17l-2-.89a13.36,13.36,0,0,1-3.124,1.3l-.787,2.046a.817.817,0,0,1-.763.525H41.236a.819.819,0,0,1-.765-.525l-.787-2.046a13.34,13.34,0,0,1-3.122-1.295l-2.005.891a.819.819,0,0,1-.912-.17l-2.819-2.819a.819.819,0,0,1-.169-.911l.891-2a13.356,13.356,0,0,1-1.3-3.124l-2.046-.787a.819.819,0,0,1-.524-.765V44.616a.819.819,0,0,1,.524-.764l2.046-.788a13.348,13.348,0,0,1,1.3-3.123l-.891-2a.82.82,0,0,1,.169-.912L33.644,34.2a.819.819,0,0,1,.912-.169l2,.89a13.405,13.405,0,0,1,3.123-1.295l.787-2.046a.82.82,0,0,1,.765-.525h3.988a.817.817,0,0,1,.763.525l.788,2.046A13.361,13.361,0,0,1,49.9,34.926l2.005-.89a.818.818,0,0,1,.911.169l2.819,2.819a.82.82,0,0,1,.17.911l-.891,2a13.349,13.349,0,0,1,1.3,3.124Z" transform="translate(-8.002 -30.204)" fill-rule="evenodd"/>
      </g>
    </g>
  </g>
</svg>
