<svg xmlns="http://www.w3.org/2000/svg" xmlns:xlink="http://www.w3.org/1999/xlink" width="60.313" height="64.949" viewBox="0 0 60.313 64.949">
  <defs>
    <filter id="Trazado_771226" x="0" y="0" width="60.313" height="64.949" filterUnits="userSpaceOnUse">
      <feOffset dy="3" input="SourceAlpha"/>
      <feGaussianBlur stdDeviation="3" result="blur"/>
      <feFlood flood-opacity="0.161"/>
      <feComposite operator="in" in2="blur"/>
      <feComposite in="SourceGraphic"/>
    </filter>
  </defs>
  <g id="Grupo_1098797" data-name="Grupo 1098797" transform="translate(-831 -936.917)">
    <g id="Grupo_1071655" data-name="Grupo 1071655" transform="translate(841 944)">
      <g transform="matrix(1, 0, 0, 1, -10, -7.08)" filter="url(#Trazado_771226)">
        <path id="Trazado_771226-2" data-name="Trazado 771226" d="M447.517,279.136V264.064a7.732,7.732,0,0,0-3.773-6.655l-12.36-7.329a7.582,7.582,0,0,0-7.5-.14l-12.665,6.885a7.728,7.728,0,0,0-4.02,6.795v15.21a7.733,7.733,0,0,0,3.68,6.6l11.847,7.255a7.583,7.583,0,0,0,7.5.242l13.177-6.949A7.727,7.727,0,0,0,447.517,279.136Z" transform="translate(-397.2 -241.94)" fill="#2ec49f" stroke="#fff" stroke-miterlimit="10" stroke-width="2"/>
      </g>
    </g>
    <g id="toque" transform="translate(843.292 950.405)">
      <path id="Trazado_838656" data-name="Trazado 838656" d="M33.456,3.265C27.487.273,21.964-.575,17.5,3.667,13.032-.575,7.509.273,1.539,3.265a1.453,1.453,0,0,0-.789,1.3V27.933a1.436,1.436,0,0,0,1.772,1.4c5.583-1.3,10.748-1.563,14.976.447,4.228-2.01,9.394-1.742,14.976-.447a1.436,1.436,0,0,0,1.772-1.4V4.561a1.453,1.453,0,0,0-.789-1.3Z" transform="translate(0.367 0.367)" fill="#eceff1"/>
      <path id="Trazado_838657" data-name="Trazado 838657" d="M28.167,17.612l-.013-.012L24.2,13.826a1.455,1.455,0,0,0-1.99.01,1.3,1.3,0,0,0-.409.881,1.267,1.267,0,0,0,.4,1.017l-1.319-1.258a1.455,1.455,0,0,0-1.99.01,1.3,1.3,0,0,0-.409.881,1.267,1.267,0,0,0,.4,1.017l-.659-.628a1.455,1.455,0,0,0-1.99.01,1.3,1.3,0,0,0-.409.881,1.267,1.267,0,0,0,.4,1.017l-3.6-3.428a1.455,1.455,0,0,0-1.99.01,1.3,1.3,0,0,0-.012,1.9l7.223,6.888s-3.059-.856-4.646.658c-1,.954-.978,1.612-.674,1.9.831.792,1.489-.476,5.3,1.236s6.264,1.547,7.96-.043l1.675-1.6c2.373-2.266,3.067-5.331.713-7.576Z" transform="translate(4.99 6.567)" fill="#ffcc80"/>
      <path id="Trazado_838658" data-name="Trazado 838658" d="M16.634,20.3a1.108,1.108,0,0,1-.789-.328l-1.652-1.652a2.52,2.52,0,0,1,3.564-3.564l.661.661A1.117,1.117,0,1,1,16.838,17l-.661-.661a.287.287,0,0,0-.406.406L17.423,18.4a1.116,1.116,0,0,1-.789,1.906Z" transform="translate(6.576 6.853)" fill="#12263f"/>
      <path id="Trazado_838659" data-name="Trazado 838659" d="M18.412,19.415a1.108,1.108,0,0,1-.789-.328L15.97,17.435a2.521,2.521,0,0,1,3.564-3.565l1.323,1.323a1.117,1.117,0,1,1-1.579,1.579l-1.322-1.322a.287.287,0,0,0-.406.4L19.2,17.509a1.116,1.116,0,0,1-.79,1.906Z" transform="translate(7.444 6.418)" fill="#12263f"/>
      <path id="Trazado_838660" data-name="Trazado 838660" d="M23.27,29.521a12.321,12.321,0,0,1-5.166-1.4,6.94,6.94,0,0,0-3.646-.91,2.323,2.323,0,0,1-1.955-.63,1.781,1.781,0,0,1-.512-1.274,3.35,3.35,0,0,1,1.176-2.288,4.168,4.168,0,0,1,1.971-1.082L10.195,17a2.523,2.523,0,0,1,1.782-4.3h0a2.5,2.5,0,0,1,1.78.738L17.724,17.4a1.117,1.117,0,0,1-1.579,1.579L12.179,15.01a.287.287,0,0,0-.4.406l6.762,6.762a1.116,1.116,0,0,1-.953,1.894,3.536,3.536,0,0,0-2.837.527,3.624,3.624,0,0,0-.335.381A9.067,9.067,0,0,1,19.063,26.1c4.161,1.977,5.8,1.064,6.672.208L27.052,25a5.864,5.864,0,0,0,1.792-3.308,3.535,3.535,0,0,0-1.114-3.035L24.083,15a.284.284,0,0,0-.4,0,.323.323,0,0,0,0,.4l.991.991a1.117,1.117,0,0,1-1.579,1.579L22.1,16.99a2.52,2.52,0,0,1,3.564-3.564L29.3,17.061a5.756,5.756,0,0,1,1.764,4.9,8.071,8.071,0,0,1-2.424,4.612L27.307,27.9A5.525,5.525,0,0,1,23.27,29.521Z" transform="translate(4.622 6.201)" fill="#12263f"/>
      <path id="Trazado_838661" data-name="Trazado 838661" d="M2.593,30.827A2.6,2.6,0,0,1,0,28.225V4.972a2.575,2.575,0,0,1,1.393-2.3C8.058-.868,13.6-.889,17.864,2.6c4.268-3.494,9.809-3.472,16.483.071a2.587,2.587,0,0,1,1.381,2.312V18.236a1.117,1.117,0,1,1-2.233,0V4.987a.376.376,0,0,0-.185-.333C26.988,1.3,22.327,1.377,18.635,4.9a1.119,1.119,0,0,1-1.542,0C13.4,1.375,8.742,1.3,2.428,4.648a.359.359,0,0,0-.2.325V28.225a.356.356,0,0,0,.137.29.37.37,0,0,0,.319.067,30.057,30.057,0,0,1,9.688-.965,1.117,1.117,0,0,1-.192,2.226,27.925,27.925,0,0,0-8.972.911,2.666,2.666,0,0,1-.619.073Z" transform="translate(0 0)" fill="#12263f"/>
      <path id="Trazado_838662" data-name="Trazado 838662" d="M12.367,15.4a1.117,1.117,0,0,1-1.117-1.117V3.117a1.117,1.117,0,0,1,2.233,0V14.282A1.117,1.117,0,0,1,12.367,15.4Z" transform="translate(5.498 0.977)" fill="#12263f"/>
    </g>
  </g>
</svg>
