<svg xmlns="http://www.w3.org/2000/svg" xmlns:xlink="http://www.w3.org/1999/xlink" width="60.313" height="64.949" viewBox="0 0 60.313 64.949">
  <defs>
    <filter id="Trazado_771226" x="0" y="0" width="60.313" height="64.949" filterUnits="userSpaceOnUse">
      <feOffset dy="3" input="SourceAlpha"/>
      <feGaussianBlur stdDeviation="3" result="blur"/>
      <feFlood flood-opacity="0.161"/>
      <feComposite operator="in" in2="blur"/>
      <feComposite in="SourceGraphic"/>
    </filter>
  </defs>
  <g id="Grupo_1098798" data-name="Grupo 1098798" transform="translate(-831 -936.917)">
    <g id="Grupo_1071655" data-name="Grupo 1071655" transform="translate(841 944)">
      <g transform="matrix(1, 0, 0, 1, -10, -7.08)" filter="url(#Trazado_771226)">
        <path id="Trazado_771226-2" data-name="Trazado 771226" d="M447.517,279.136V264.064a7.732,7.732,0,0,0-3.773-6.655l-12.36-7.329a7.582,7.582,0,0,0-7.5-.14l-12.665,6.885a7.728,7.728,0,0,0-4.02,6.795v15.21a7.733,7.733,0,0,0,3.68,6.6l11.847,7.255a7.583,7.583,0,0,0,7.5.242l13.177-6.949A7.727,7.727,0,0,0,447.517,279.136Z" transform="translate(-397.2 -241.94)" fill="#2ec49f" stroke="#fff" stroke-miterlimit="10" stroke-width="2"/>
      </g>
    </g>
    <g id="XMLID_1021_" transform="translate(840.999 927.789)">
      <g id="XMLID_1170_" transform="translate(0.001 20.022)">
        <path id="XMLID_768_" d="M139.515,284.144l-3.066,3.066a2.2,2.2,0,1,1-3.118-3.118l2.16-2.16Z" transform="translate(-122.239 -261.31)" fill="#ffddcf"/>
        <path id="XMLID_1344_" d="M37.669,133.337,34.6,136.4a2.2,2.2,0,1,1-3.118-3.118l2.16-2.16a14.286,14.286,0,0,1,22.677,3.321l2.324,4.309L55.5,150.643Z" transform="translate(-28.412 -118.522)" fill="#ffddcf"/>
        <path id="XMLID_1313_" d="M348.492,276.5l-6.084-1.63a1.575,1.575,0,0,1-1.113-1.929l3.424-12.777a1.575,1.575,0,0,1,1.929-1.113l6.084,1.63a1.575,1.575,0,0,1,1.113,1.929l-3.424,12.777A1.575,1.575,0,0,1,348.492,276.5Z" transform="translate(-314.373 -240.177)" fill="#0068dc"/>
        <g id="XMLID_2768_" transform="translate(0.787 0.786)">
          <path id="XMLID_2775_" d="M0,0H6.929V26.378H0Z" transform="translate(22.496 0) rotate(45)" fill="#ffdc00"/>
          <path id="XMLID_2774_" d="M10,275.665l3.845-8.745,4.9,4.9Z" transform="translate(-10 -248.266)" fill="#98a1b3"/>
        </g>
        <path id="XMLID_1251_" d="M150.326,234.071l-4.77-4.77a2.52,2.52,0,0,0-3.563,3.563l4.77,4.77a10.945,10.945,0,0,0,10.059,6.63h.4Z" transform="translate(-130.133 -212.144)" fill="#ffddcf"/>
        <path id="XMLID_682_" d="M38.562,39.761l-6.084-1.63a2.362,2.362,0,0,0-2.2.539l-1.67-3.1a15.125,15.125,0,0,0-4.247-4.922l4.385-4.385a.787.787,0,0,0,0-1.114l-4.9-4.9a.788.788,0,0,0-1.114,0l-7.4,7.4A15.073,15.073,0,0,0,4.678,32.068l-2.16,2.16a2.99,2.99,0,0,0,1.355,5.008L.067,47.889A.787.787,0,0,0,1.1,48.927L9.76,45.121a2.992,2.992,0,0,0,5.008,1.357l.857-.857.343.343A11.717,11.717,0,0,0,26.1,52.914a2.363,2.363,0,0,0,1.735,2.557l6.084,1.63a2.361,2.361,0,0,0,2.893-1.67l.774-2.888a.787.787,0,1,0-1.521-.408l-.774,2.888a.788.788,0,0,1-.964.557L28.24,53.95a.787.787,0,0,1-.557-.964l3.423-12.777a.789.789,0,0,1,.964-.557l6.084,1.63a.788.788,0,0,1,.557.964L37.9,45.289a.787.787,0,1,0,1.521.408l.815-3.043a2.365,2.365,0,0,0-1.67-2.893ZM27.071,25.709l-11,11-.089-.089a3.284,3.284,0,0,0-1.608-.887L25.735,24.372Zm-3.786-3.786,1.336,1.336L7.083,40.8,5.747,39.462ZM3.631,37.346a1.417,1.417,0,0,1,0-2l2.16-2.16a13.4,13.4,0,0,1,7.859-3.85L5.635,37.346a1.419,1.419,0,0,1-2,0Zm1.259,3.487L8.162,44.1,2.323,46.671Zm4.642,2.415L8.2,41.911l2.222-2.222A3.287,3.287,0,0,0,11.3,41.3l.089.089Zm4.122,2.117a1.417,1.417,0,1,1-2-2l.857-.857,2,2ZM26.49,51.352a10.145,10.145,0,0,1-9.136-6.15.788.788,0,0,0-.167-.246l-4.77-4.77a1.732,1.732,0,1,1,2.45-2.45l4.77,4.77a.787.787,0,0,0,1.114-1.114l-3.568-3.568,6.047-6.047a13.543,13.543,0,0,1,3.989,4.542l2.2,4.088Z" transform="translate(-0.001 -20.022)"/>
      </g>
      <g id="XMLID_928_" transform="translate(36.953 48.129)">
        <path id="XMLID_273_" d="M470.107,378.578a.788.788,0,1,1,.557-.231A.794.794,0,0,1,470.107,378.578Z" transform="translate(-469.32 -377.003)"/>
      </g>
    </g>
  </g>
</svg>
