<svg xmlns="http://www.w3.org/2000/svg" xmlns:xlink="http://www.w3.org/1999/xlink" width="60.313" height="64.949" viewBox="0 0 60.313 64.949">
  <defs>
    <filter id="Trazado_771226" x="0" y="0" width="60.313" height="64.949" filterUnits="userSpaceOnUse">
      <feOffset dy="3" input="SourceAlpha"/>
      <feGaussianBlur stdDeviation="3" result="blur"/>
      <feFlood flood-opacity="0.161"/>
      <feComposite operator="in" in2="blur"/>
      <feComposite in="SourceGraphic"/>
    </filter>
  </defs>
  <g id="Grupo_1098676" data-name="Grupo 1098676" transform="translate(-831 -936.917)">
    <g id="Grupo_1071655" data-name="Grupo 1071655" transform="translate(841 944)">
      <g transform="matrix(1, 0, 0, 1, -10, -7.08)" filter="url(#Trazado_771226)">
        <path id="Trazado_771226-2" data-name="Trazado 771226" d="M447.517,279.136V264.064a7.732,7.732,0,0,0-3.773-6.655l-12.36-7.329a7.582,7.582,0,0,0-7.5-.14l-12.665,6.885a7.728,7.728,0,0,0-4.02,6.795v15.21a7.733,7.733,0,0,0,3.68,6.6l11.847,7.255a7.583,7.583,0,0,0,7.5.242l13.177-6.949A7.727,7.727,0,0,0,447.517,279.136Z" transform="translate(-397.2 -241.94)" fill="#2ec49f" stroke="#fff" stroke-miterlimit="10" stroke-width="2"/>
      </g>
    </g>
    <g id="servicio-al-cliente_1_" data-name="servicio-al-cliente (1)" transform="translate(802.19 943)">
      <path id="Trazado_838629" data-name="Trazado 838629" d="M258.187,261.412v3.242l-3.629,2.732-3.629-2.732v-3.242Z" transform="translate(-194.577 -239.794)" fill="#fed2a4"/>
      <path id="Trazado_838630" data-name="Trazado 838630" d="M252.582,264.654v-3.242h-1.654v3.242l3.629,2.732.827-.623Z" transform="translate(-194.576 -239.794)" fill="#ffbd86"/>
      <path id="Trazado_838631" data-name="Trazado 838631" d="M52.776,141.376H47.55a1.24,1.24,0,0,1-1.24-1.24v-7.853a1.24,1.24,0,0,1,1.24-1.24h5.225a1.24,1.24,0,0,1,1.24,1.24v3.926l2.569,2.6H54.016v1.328A1.24,1.24,0,0,1,52.776,141.376Z" transform="translate(-6.88 -120.205)" fill="#a5d400"/>
      <path id="Trazado_838632" data-name="Trazado 838632" d="M69.606,304.629h2.569V301.9a1.284,1.284,0,0,0-2.569,0Z" transform="translate(-28.249 -275.752)" fill="#fed2a4"/>
      <path id="Trazado_838633" data-name="Trazado 838633" d="M71.511,300.772a1.285,1.285,0,0,0-1.905,1.125v2.733h1.24V301.9A1.284,1.284,0,0,1,71.511,300.772Z" transform="translate(-28.249 -275.752)" fill="#ffbd86"/>
      <path id="Trazado_838634" data-name="Trazado 838634" d="M64.454,312.335a1.24,1.24,0,0,0,1.24-1.24v-1.328l4.7-6.108a2.48,2.48,0,0,1,1.1-.81l5.985-2.237,3.626,2.732,3.626-2.732,8.106,2.554a3.472,3.472,0,0,1,2.4,3.3v11h-24.4v-6.419l-4.4,5.317a2.481,2.481,0,0,1-2.064,1.1h-.044a2.481,2.481,0,0,1-2.481-2.481v-2.657Z" transform="translate(-21.126 -275.752)" fill="#0068dc"/>
      <g id="Grupo_1098848" data-name="Grupo 1098848" transform="translate(40.715 24.86)">
        <path id="Trazado_838635" data-name="Trazado 838635" d="M305.636,303.344l3.139-2.365-1.166-.367-2.8,2.109Z" transform="translate(-284.716 -300.612)" fill="#0593fc"/>
        <path id="Trazado_838636" data-name="Trazado 838636" d="M170.559,411.017h1.654v7.728h-1.654Z" transform="translate(-161.568 -401.887)" fill="#0593fc"/>
        <path id="Trazado_838637" data-name="Trazado 838637" d="M63.5,314.992v-2.657h2.613a1.24,1.24,0,0,0,1.24-1.24v-1.328l4.7-6.108a2.481,2.481,0,0,1,1.1-.81l4.879-1.824-.548-.413L71.5,302.849a2.48,2.48,0,0,0-1.1.81l-4.7,6.108v1.328a1.24,1.24,0,0,1-1.24,1.24H61.842v2.657a2.481,2.481,0,0,0,2.481,2.481h.044a2.483,2.483,0,0,0,.8-.134A2.483,2.483,0,0,1,63.5,314.992Z" transform="translate(-61.842 -300.612)" fill="#0068dc"/>
      </g>
      <path id="Trazado_838638" data-name="Trazado 838638" d="M170.559,411.017h19.266v5.162H170.559Z" transform="translate(-120.854 -377.027)" fill="#ffca28"/>
      <path id="Trazado_838639" data-name="Trazado 838639" d="M170.559,411.017h1.654v5.162h-1.654Z" transform="translate(-120.854 -377.027)" fill="#f9b916"/>
      <path id="Trazado_838640" data-name="Trazado 838640" d="M186.575,131.752h-1.246a1.728,1.728,0,0,0-1.728,1.728v1.295a1.728,1.728,0,0,0,1.728,1.728h1.246Z" transform="translate(-132.817 -120.856)" fill="#fed2a4"/>
      <path id="Trazado_838641" data-name="Trazado 838641" d="M370.056,131.752H371.3a1.728,1.728,0,0,1,1.728,1.728v1.295A1.728,1.728,0,0,1,371.3,136.5h-1.246Z" transform="translate(-303.853 -120.856)" fill="#fed2a4"/>
      <path id="Trazado_838642" data-name="Trazado 838642" d="M219.559,102.638v5.976a5.748,5.748,0,0,0,5.748,5.748h.949a5.748,5.748,0,0,0,5.748-5.748V102.7l-6.223-2.619Z" transform="translate(-165.801 -91.801)" fill="#fff3de"/>
      <path id="Trazado_838643" data-name="Trazado 838643" d="M221.213,108.613v-5.976l5.387-2.217-.818-.344-6.223,2.561v5.976a5.748,5.748,0,0,0,5.748,5.748h.949c.118,0,.236,0,.352-.012a5.748,5.748,0,0,1-5.4-5.737Z" transform="translate(-165.801 -91.801)" fill="#ffe5c2"/>
      <path id="Trazado_838644" data-name="Trazado 838644" d="M191.469,46.269h2.854a2.481,2.481,0,0,0,2.481-2.481V38.562H195.19a3.721,3.721,0,0,0-3.721,3.721Z" transform="translate(-140.034 -35.373)" fill="#546e7a"/>
      <path id="Trazado_838645" data-name="Trazado 838645" d="M196.8,38.563h-1.613a3.721,3.721,0,0,0-3.721,3.721v3.985h1.654V42.283A3.721,3.721,0,0,1,196.8,38.563Z" transform="translate(-140.034 -35.373)" fill="#435860"/>
      <path id="Trazado_838646" data-name="Trazado 838646" d="M262.67,7.5a5.092,5.092,0,0,1,5.092,5.093v5.183h-9.3a2.481,2.481,0,0,1-2.481-2.481V9.983A2.481,2.481,0,0,1,258.46,7.5Z" transform="translate(-199.21 -6.882)" fill="#546e7a"/>
      <path id="Trazado_838647" data-name="Trazado 838647" d="M257.633,15.3V9.982A2.481,2.481,0,0,1,260.114,7.5H258.46a2.481,2.481,0,0,0-2.481,2.481V15.3a2.481,2.481,0,0,0,2.481,2.481h1.654a2.481,2.481,0,0,1-2.481-2.481Z" transform="translate(-199.21 -6.881)" fill="#435860"/>
      <path id="Trazado_838648" data-name="Trazado 838648" d="M47.55,356.893h2.657a1.24,1.24,0,0,0,1.24-1.24v-5.225a1.24,1.24,0,0,0-1.24-1.24H47.55a1.24,1.24,0,0,0-1.24,1.24v5.225A1.24,1.24,0,0,0,47.55,356.893Z" transform="translate(-6.88 -320.31)" fill="#fff3de"/>
      <path id="Trazado_838649" data-name="Trazado 838649" d="M47.965,355.653v-5.225a1.24,1.24,0,0,1,1.24-1.24H47.551a1.24,1.24,0,0,0-1.24,1.24v5.225a1.24,1.24,0,0,0,1.24,1.24h1.654A1.24,1.24,0,0,1,47.965,355.653Z" transform="translate(-6.881 -320.31)" fill="#ffe5c2"/>
      <g id="Grupo_1098849" data-name="Grupo 1098849" transform="translate(38.81 0)">
        <path id="Trazado_838653" data-name="Trazado 838653" d="M74.109,33.259a.62.62,0,0,0,.62-.62V30.715a4.085,4.085,0,0,0-2.83-3.893l-7.67-2.416V21.938a6.688,6.688,0,0,0,2.594-5.671A2.56,2.56,0,0,0,69.8,13.919V12.624a2.339,2.339,0,0,0-.636-1.6c.008-.04.012-1.769.012-1.769a.62.62,0,0,0-1.24,0v1.025H59.25A1.863,1.863,0,0,1,57.39,8.415V3.1A1.863,1.863,0,0,1,59.25,1.24h4.21a4.477,4.477,0,0,1,4.472,4.472v.834a.62.62,0,1,0,1.24,0V5.713A5.719,5.719,0,0,0,63.461,0H59.25A3.106,3.106,0,0,0,56.2,2.569h-1.04A4.347,4.347,0,0,0,50.814,6.91s0,4.052.009,4.084a2.34,2.34,0,0,0-.659,1.629v1.295a2.565,2.565,0,0,0,2.974,2.348,6.594,6.594,0,0,0,2.594,5.671V24.43l-5.58,2.086a3.1,3.1,0,0,0-1.37,1.013l-3.593,4.665V30.117a1.856,1.856,0,0,0-.642-1.4V26.144a1.9,1.9,0,1,0-3.809,0v2.112a1.712,1.712,0,0,0-1.927,1.861v5.226a1.864,1.864,0,0,0,1.284,1.769V39.24A3.132,3.132,0,0,0,45.8,40.988l3.284-3.968v4.7a.62.62,0,0,0,.62.62h24.4a.62.62,0,0,0,.62-.62V35.342a.62.62,0,1,0-1.24,0V41.1h-3.9V32.868a.62.62,0,1,0-1.24,0v.5H50.326v-.64a.62.62,0,0,0-1.24,0v2.345l-4.259,5.145c-1.015,1.226-3.492,1.263-3.492-.981V37.2h1.971v.664a.62.62,0,1,0,1.24,0v-1.12a1.857,1.857,0,0,0,.643-1.4V34.225l4.576-5.94a1.864,1.864,0,0,1,.822-.608l5.664-2.117,3.356,2.527a.649.649,0,0,0,.786-.03l3.334-2.51L71.521,28a2.845,2.845,0,0,1,1.968,2.712v1.924a.62.62,0,0,0,.62.62Zm-5.758,1.352v3.922H57.7a.62.62,0,0,0,0,1.24H68.351V41.1H50.326V39.773H55a.62.62,0,0,0,0-1.24H50.326V34.611ZM41.977,26.144a.664.664,0,1,1,1.328,0v2.112H41.977Zm-1.926,3.973a.621.621,0,0,1,.62-.62h2.657a.621.621,0,0,1,.62.62v.708H42a.62.62,0,1,0,0,1.24h1.949v1.328H42a.62.62,0,1,0,0,1.24h1.949v.708c0,.414-.251.592-.62.62H40.671a.621.621,0,0,1-.62-.62Zm28.506-16.2a1.109,1.109,0,0,1-1.108,1.108h-.625V11.516h.625a1.109,1.109,0,0,1,1.108,1.108ZM52.055,6.91a3.1,3.1,0,0,1,3.1-3.1h.993V8.415h0a1.863,1.863,0,0,1-1.861,1.861H52.055Zm.457,8.116A1.109,1.109,0,0,1,51.4,13.919V12.624a1.109,1.109,0,0,1,1.108-1.108h.625v3.511h-.625Zm1.866,1.786v-5.3a3.1,3.1,0,0,0,2.392-1.24,3.1,3.1,0,0,0,2.481,1.243h6.333v5.3c0,6.815-11.206,6.808-11.206,0Zm8.611,5.841v1.895l-3.008,2.267-3.009-2.267V22.654a7.339,7.339,0,0,0,6.017,0Z" transform="translate(-38.81 0)"/>
        <path id="Trazado_838654" data-name="Trazado 838654" d="M63.573,174.117a.62.62,0,0,0,.877,0l2.569-2.569a.62.62,0,0,0-.877-.877l-2.13,2.13-.846-.846a.62.62,0,1,0-.877.877Z" transform="translate(-60.181 -156.39)"/>
        <path id="Trazado_838655" data-name="Trazado 838655" d="M40.672,135.116H45.9a1.863,1.863,0,0,0,1.861-1.861v-.708h1.949c.655-.005.944-.5.441-1.056l-2.39-2.417V125.4a1.863,1.863,0,0,0-1.861-1.861H40.672a1.863,1.863,0,0,0-1.861,1.861v7.853A1.863,1.863,0,0,0,40.672,135.116Zm-.62-9.714a.621.621,0,0,1,.62-.62H45.9a.621.621,0,0,1,.62.62v3.926a.62.62,0,0,0,.179.436l1.524,1.542H47.138a.62.62,0,0,0-.62.62v1.328a.621.621,0,0,1-.62.62H40.672a.621.621,0,0,1-.62-.62Z" transform="translate(-38.811 -113.325)"/>
      </g>
    </g>
  </g>
</svg>
