<svg xmlns="http://www.w3.org/2000/svg" width="78.554" height="78.554" viewBox="0 0 78.554 78.554">
  <g id="Grupo_1098617" data-name="Grupo 1098617" transform="translate(-184 -1136.203)">
    <g id="Grupo_995637" data-name="Grupo 995637" transform="translate(184 1136.203)">
      <path id="Trazado_771736" data-name="Trazado 771736" d="M39.277,0A39.277,39.277,0,1,1,0,39.277,39.277,39.277,0,0,1,39.277,0Z" transform="translate(0 0)" fill="#ff981e"/>
    </g>
    <g id="habilidades" transform="translate(190.032 1143.568)">
      <path id="Trazado_838365" data-name="Trazado 838365" d="M42.521,40l7.946,1.834A7.344,7.344,0,0,1,56.16,48.99V63.08H10V48.99a7.344,7.344,0,0,1,5.693-7.156L23.638,40Z" transform="translate(0.442 1.914)" fill="#e2e7f6"/>
      <path id="Trazado_838366" data-name="Trazado 838366" d="M35.294,62.589,33.2,50H31.1L29,62.589Z" transform="translate(1.374 2.405)" fill="#78a0d4"/>
      <path id="Trazado_838367" data-name="Trazado 838367" d="M36.206,45.444l-2.969,4.949h-2.1L28.17,45.444,32.188,42Z" transform="translate(1.333 2.012)" fill="#5e87ca"/>
      <path id="Trazado_838368" data-name="Trazado 838368" d="M32.442,42.2,25.1,48.491,23,39.049,28.245,38A4.2,4.2,0,0,0,32.442,42.2Z" transform="translate(1.08 1.816)" fill="#c8cded"/>
      <path id="Trazado_838369" data-name="Trazado 838369" d="M32,42.2l7.344,6.294,2.1-9.442L36.2,38A4.2,4.2,0,0,1,32,42.2Z" transform="translate(1.521 1.816)" fill="#c8cded"/>
      <path id="Trazado_838370" data-name="Trazado 838370" d="M28,33v5.245a4.2,4.2,0,1,0,8.393,0V33" transform="translate(1.325 1.571)" fill="#fbe1ca"/>
      <path id="Trazado_838371" data-name="Trazado 838371" d="M43.147,17l.493.986a5.265,5.265,0,0,1,.285,4.022l-.778,2.336H40v-4.2A3.147,3.147,0,0,0,43.147,17Z" transform="translate(1.914 0.785)" fill="#976947"/>
      <path id="Trazado_838372" data-name="Trazado 838372" d="M27.756,14H25.092a5.093,5.093,0,0,0-4.555,7.37L22.1,24.491h2.1v-4.2A7.337,7.337,0,0,1,27.756,14Z" transform="translate(0.933 0.638)" fill="#976947"/>
      <path id="Trazado_838373" data-name="Trazado 838373" d="M40.785,20.442a3.147,3.147,0,0,0,3.147-3.147V11A12.5,12.5,0,0,1,37,13.1H31.344A7.344,7.344,0,0,0,24,20.442l.839.629a12.589,12.589,0,0,0,15.107,0Z" transform="translate(1.129 0.491)" fill="#c18e59"/>
      <path id="Trazado_838374" data-name="Trazado 838374" d="M40.785,20v8.393a8.393,8.393,0,1,1-16.785,0V20l.839.629a12.589,12.589,0,0,0,15.107,0Z" transform="translate(1.129 0.933)" fill="#fbe1ca"/>
      <path id="Trazado_838375" data-name="Trazado 838375" d="M40,24h2.1a2.1,2.1,0,1,1,0,4.2H40" transform="translate(1.914 1.129)" fill="#f2b9a1"/>
      <path id="Trazado_838376" data-name="Trazado 838376" d="M24.2,24H22.1a2.1,2.1,0,1,0,0,4.2h2.1" transform="translate(0.933 1.129)" fill="#f2b9a1"/>
      <path id="Trazado_838377" data-name="Trazado 838377" d="M19,55h2.1v7.344H19Z" transform="translate(0.883 2.65)" fill="#c8cded"/>
      <path id="Trazado_838378" data-name="Trazado 838378" d="M43,55h2.1v7.344H43Z" transform="translate(2.061 2.65)" fill="#c8cded"/>
      <path id="Trazado_838379" data-name="Trazado 838379" d="M53.245,2h9.442v9.442l-2.1-2.1-7.344,7.344L48,11.442,55.344,4.1Z" transform="translate(2.307 0.049)" fill="#6bc13b"/>
      <path id="Trazado_838380" data-name="Trazado 838380" d="M11.442,2H2v9.442l2.1-2.1,7.344,7.344,5.245-5.245L9.344,4.1Z" transform="translate(0.049 0.049)" fill="#6bc13b"/>
      <path id="Trazado_838381" data-name="Trazado 838381" d="M56.393,20l6.294,6.294-6.294,6.294V29.442H48V23.147h8.393Z" transform="translate(2.307 0.933)" fill="#559b2d"/>
      <path id="Trazado_838382" data-name="Trazado 838382" d="M8.294,20,2,26.294l6.294,6.294V29.442h8.393V23.147H8.294Z" transform="translate(0.049 0.933)" fill="#559b2d"/>
      <path id="Trazado_838383" data-name="Trazado 838383" d="M50.753,42.283,43.6,40.633A1.043,1.043,0,0,0,42.78,39.4l-4.406-.881V36.731a9.448,9.448,0,0,0,4.134-6.8H43.62a3.147,3.147,0,0,0,2.2-5.39l.62-1.86a6.267,6.267,0,0,0,.325-1.993,6.353,6.353,0,0,0-.667-2.826l-.383-.767V11.049a1.049,1.049,0,0,0-1.631-.873A11.412,11.412,0,0,1,37.745,12.1H32.08a8.329,8.329,0,0,0-4.054,1.049H25.632a6.142,6.142,0,0,0-5.493,8.889l1,2a3.136,3.136,0,0,0,1.5,5.9h1.111a9.448,9.448,0,0,0,4.134,6.8v1.783l-4.406.881a1.043,1.043,0,0,0-.819,1.237L15.5,42.283A8.354,8.354,0,0,0,9,50.461V64.552A1.049,1.049,0,0,0,10.049,65.6h46.16a1.049,1.049,0,0,0,1.049-1.049V50.461a8.354,8.354,0,0,0-6.5-8.178ZM32.968,53.012h.321L35.038,63.5H31.22Zm.616-2.1h-.911l-2.2-3.68,2.658-2.283,2.663,2.283ZM35.36,44.1a5.245,5.245,0,0,0,2.848-3.482l3.105.621-1.485,6.689ZM43.62,27.834H42.571v-2.1H43.62a1.049,1.049,0,0,1,0,2.1Zm0-4.2H42.571V21.391a4.172,4.172,0,0,0,2.037-1.227,4.173,4.173,0,0,1,.061.525,4.2,4.2,0,0,1-.216,1.332l-.55,1.648A2.514,2.514,0,0,0,43.62,23.638ZM37.745,14.2a13.493,13.493,0,0,0,5.875-1.342v4.489a2.1,2.1,0,0,1-2.1,2.1v.009a1.032,1.032,0,0,0-.629.2l-.839.629a11.54,11.54,0,0,1-13.848,0l-.393-.295A6.294,6.294,0,0,1,32.08,14.2Zm-12.213,1.06a8.345,8.345,0,0,0-1.844,5.235v3.147h-.4l-1.27-2.54a4.037,4.037,0,0,1,3.515-5.842ZM21.589,26.785a1.049,1.049,0,0,1,1.049-1.049h1.049v2.1H22.638A1.049,1.049,0,0,1,21.589,26.785Zm4.2,2.1V22.54a13.63,13.63,0,0,0,14.687,0v6.344a7.344,7.344,0,1,1-14.687,0Zm7.344,9.442a9.375,9.375,0,0,0,3.147-.551v1.6a3.147,3.147,0,1,1-6.294,0v-1.6a9.375,9.375,0,0,0,3.147.551Zm-5.08,2.3A5.245,5.245,0,0,0,30.9,44.1l-4.468,3.828-1.483-6.689ZM11.1,50.461a6.263,6.263,0,0,1,4.878-6.132l7.134-1.647,1.646,7.411a1.049,1.049,0,0,0,.693.767,1.031,1.031,0,0,0,.336.055,1.049,1.049,0,0,0,.682-.253l2.382-2.043,2.132,3.554L29.093,63.5h-7.5V57.209h-2.1V63.5H11.1ZM55.16,63.5H46.767V57.209h-2.1V63.5h-7.5l-1.888-11.33,2.132-3.553,2.382,2.043a1.049,1.049,0,0,0,.682.252,1.031,1.031,0,0,0,.332-.055,1.049,1.049,0,0,0,.693-.767l1.646-7.411,7.134,1.647a6.263,6.263,0,0,1,4.882,6.132Z" transform="translate(0.393 0.442)"/>
      <path id="Trazado_838384" data-name="Trazado 838384" d="M62.736,1H53.294a1.049,1.049,0,0,0-.742,1.791l1.356,1.356-6.6,6.6a1.049,1.049,0,0,0,0,1.483l5.245,5.245a1.049,1.049,0,0,0,1.483,0l6.6-6.6,1.356,1.356a1.049,1.049,0,0,0,1.791-.742V2.049A1.049,1.049,0,0,0,62.736,1ZM61.687,8.958l-.307-.307a1.049,1.049,0,0,0-1.483,0l-6.6,6.6-3.762-3.762,6.6-6.6a1.049,1.049,0,0,0,0-1.483L55.827,3.1h5.86Z" transform="translate(2.258)"/>
      <path id="Trazado_838385" data-name="Trazado 838385" d="M1.647,12.46a1.049,1.049,0,0,0,1.143-.228l1.356-1.356,6.6,6.6a1.049,1.049,0,0,0,1.483,0l5.245-5.245a1.049,1.049,0,0,0,0-1.483l-6.6-6.6,1.356-1.356A1.049,1.049,0,0,0,11.491,1H2.049A1.049,1.049,0,0,0,1,2.049v9.442a1.049,1.049,0,0,0,.647.969ZM3.1,3.1h5.86l-.307.307a1.049,1.049,0,0,0,0,1.483l6.6,6.6-3.762,3.762-6.6-6.6a1.049,1.049,0,0,0-1.483,0L3.1,8.958Z" transform="translate(0 0)"/>
      <path id="Trazado_838386" data-name="Trazado 838386" d="M57.183,19.307a1.049,1.049,0,0,0-1.791.742v2.1H48.049A1.049,1.049,0,0,0,47,23.2v6.294a1.049,1.049,0,0,0,1.049,1.049h7.344v2.1a1.049,1.049,0,0,0,.647.969,1.035,1.035,0,0,0,.4.08,1.049,1.049,0,0,0,.742-.307l6.295-6.295a1.049,1.049,0,0,0,0-1.483Zm.307,10.8v-.615a1.049,1.049,0,0,0-1.049-1.049H49.1v-4.2h7.344A1.049,1.049,0,0,0,57.491,23.2v-.615l3.762,3.762Z" transform="translate(2.258 0.883)"/>
      <path id="Trazado_838387" data-name="Trazado 838387" d="M9.393,30.54h7.344a1.049,1.049,0,0,0,1.049-1.049V23.2a1.049,1.049,0,0,0-1.049-1.049H9.393v-2.1A1.049,1.049,0,0,0,7.6,19.307L1.307,25.6a1.049,1.049,0,0,0,0,1.483L7.6,33.38a1.049,1.049,0,0,0,.742.307,1.036,1.036,0,0,0,.4-.08,1.049,1.049,0,0,0,.647-.969Zm-1.049-2.1a1.049,1.049,0,0,0-1.049,1.049v.615L3.532,26.344l3.762-3.762V23.2a1.049,1.049,0,0,0,1.049,1.049h7.344v4.2Z" transform="translate(0 0.883)"/>
    </g>
  </g>
</svg>
