<svg xmlns="http://www.w3.org/2000/svg" width="78.554" height="78.554" viewBox="0 0 78.554 78.554">
  <g id="Grupo_1098821" data-name="Grupo 1098821" transform="translate(-184 -1136.203)">
    <g id="Grupo_995637" data-name="Grupo 995637" transform="translate(184 1136.203)">
      <path id="Trazado_771736" data-name="Trazado 771736" d="M39.277,0A39.277,39.277,0,1,1,0,39.277,39.277,39.277,0,0,1,39.277,0Z" transform="translate(0 0)" fill="#ff981e"/>
    </g>
    <g id="buscar" transform="translate(197.473 1142.938)">
      <g id="Grupo_1098824" data-name="Grupo 1098824" transform="translate(1.016 1.017)">
        <path id="Trazado_838411" data-name="Trazado 838411" d="M0,0H5.1V7.233H0Z" transform="translate(46.552 45.592) rotate(-45)" fill="#e6e2e6"/>
        <path id="Trazado_838412" data-name="Trazado 838412" d="M0,0H5.1V7.233H0Z" transform="translate(46.552 45.592) rotate(-45)" fill="#ecdaec"/>
        <path id="Trazado_838413" data-name="Trazado 838413" d="M0,0H2.427V7.233H0Z" transform="translate(46.552 45.592) rotate(-45)" fill="#e2cbe2"/>
        <path id="Trazado_838414" data-name="Trazado 838414" d="M8,9.907A1.907,1.907,0,0,1,9.907,8H42L53.81,19.814V69.142A1.907,1.907,0,0,1,51.9,71.048h-42A1.907,1.907,0,0,1,8,69.142Z" transform="translate(-8 -8)" fill="#f9f6f6"/>
        <path id="Trazado_838415" data-name="Trazado 838415" d="M51.9,472.907h-42A1.907,1.907,0,0,1,8,471v2.288a1.907,1.907,0,0,0,1.907,1.907h42a1.907,1.907,0,0,0,1.907-1.907V471A1.907,1.907,0,0,1,51.9,472.907Z" transform="translate(-8 -412.146)" fill="#ecdaec"/>
        <g id="Grupo_1098822" data-name="Grupo 1098822" transform="translate(23.065)">
          <path id="Trazado_838416" data-name="Trazado 838416" d="M277.352,19.814h9.907L275.445,8v9.907A1.907,1.907,0,0,0,277.352,19.814Z" transform="translate(-264.514 -8)" fill="#e2cbe2"/>
          <path id="Trazado_838417" data-name="Trazado 838417" d="M277.352,19.814h9.907L275.445,8v9.907A1.907,1.907,0,0,0,277.352,19.814Z" transform="translate(-264.514 -8)" fill="#e2cbe2"/>
          <circle id="Elipse_10536" data-name="Elipse 10536" cx="15.824" cy="15.824" r="15.824" transform="translate(0 18.489)" fill="#e2cbe2"/>
        </g>
        <path id="Trazado_838418" data-name="Trazado 838418" d="M216.467,278.983A15.824,15.824,0,0,1,189.5,268.938a15.824,15.824,0,1,0,31.565,0A15.762,15.762,0,0,1,216.467,278.983Z" transform="translate(-166.389 -235.769)" fill="#dab9d8"/>
        <circle id="Elipse_10537" data-name="Elipse 10537" cx="11.457" cy="11.457" r="11.457" transform="translate(27.432 22.856)" fill="#ffe27a"/>
        <path id="Trazado_838419" data-name="Trazado 838419" d="M243.371,275.894a11.456,11.456,0,0,1-19.5-6.957,11.456,11.456,0,1,0,22.8,0A11.408,11.408,0,0,1,243.371,275.894Z" transform="translate(-196.381 -235.768)" fill="#f9cf58"/>
        <path id="Trazado_838420" data-name="Trazado 838420" d="M274.062,252.393a2,2,0,0,1-1.4-.567l-2.629-2.557a2,2,0,1,1,2.793-2.873l1.195,1.162,3.59-3.681a2,2,0,0,1,2.869,2.8l-4.987,5.113a2,2,0,0,1-1.434.6Z" transform="translate(-236.199 -213.367)" fill="#98db7c"/>
        <path id="Trazado_838421" data-name="Trazado 838421" d="M280.493,250.28l-4.987,5.113a2,2,0,0,1-2.831.038l-2.629-2.557a2.014,2.014,0,0,1-.246-.291,2,2,0,0,0,.246,2.579l2.629,2.557a2,2,0,0,0,2.831-.038l4.987-5.113a2,2,0,0,0,.209-2.544A2.017,2.017,0,0,1,280.493,250.28Z" transform="translate(-236.208 -219.259)" fill="#82d361"/>
        <path id="Trazado_838422" data-name="Trazado 838422" d="M413.973,372.946l-5.027,5.027,6.015,6.015a3.555,3.555,0,1,0,5.027-5.027Z" transform="translate(-357.98 -326.556)" fill="#ff4755"/>
        <path id="Trazado_838423" data-name="Trazado 838423" d="M416.675,405.006l-6.013-6.013-1.716,1.716,6.015,6.015a3.557,3.557,0,0,0,5.736-1.012A3.556,3.556,0,0,1,416.675,405.006Z" transform="translate(-357.98 -349.292)" fill="#fc2b3a"/>
        <g id="Grupo_1098823" data-name="Grupo 1098823" transform="translate(6.519 17.547)">
          <path id="Trazado_838424" data-name="Trazado 838424" d="M64.636,152.568H60.465a1.179,1.179,0,0,1-1.179-1.179v-4.171a1.179,1.179,0,0,1,1.179-1.179h4.171a1.179,1.179,0,0,1,1.179,1.179v4.171A1.179,1.179,0,0,1,64.636,152.568Z" transform="translate(-59.286 -146.039)" fill="#98db7c"/>
          <path id="Trazado_838425" data-name="Trazado 838425" d="M64.636,257.73H60.465a1.179,1.179,0,0,1-1.179-1.179V252.38a1.179,1.179,0,0,1,1.179-1.179h4.171a1.179,1.179,0,0,1,1.179,1.179v4.171A1.179,1.179,0,0,1,64.636,257.73Z" transform="translate(-59.286 -237.833)" fill="#98db7c"/>
          <path id="Trazado_838426" data-name="Trazado 838426" d="M64.636,365.027H60.465a1.179,1.179,0,0,1-1.179-1.179v-4.171a1.179,1.179,0,0,1,1.179-1.179h4.171a1.179,1.179,0,0,1,1.179,1.179v4.171A1.179,1.179,0,0,1,64.636,365.027Z" transform="translate(-59.286 -331.492)" fill="#98db7c"/>
        </g>
        <path id="Trazado_838427" data-name="Trazado 838427" d="M64.636,171.307H60.465a1.179,1.179,0,0,1-1.179-1.179v2.288a1.179,1.179,0,0,0,1.179,1.179h4.171a1.179,1.179,0,0,0,1.179-1.179v-2.288A1.179,1.179,0,0,1,64.636,171.307Z" transform="translate(-52.767 -149.519)" fill="#82d361"/>
        <path id="Trazado_838428" data-name="Trazado 838428" d="M64.636,276.468H60.465a1.179,1.179,0,0,1-1.179-1.179v2.288a1.179,1.179,0,0,0,1.179,1.179h4.171a1.179,1.179,0,0,0,1.179-1.179v-2.288A1.179,1.179,0,0,1,64.636,276.468Z" transform="translate(-52.767 -241.313)" fill="#82d361"/>
        <path id="Trazado_838429" data-name="Trazado 838429" d="M64.636,383.765H60.465a1.179,1.179,0,0,1-1.179-1.179v2.288a1.179,1.179,0,0,0,1.179,1.179h4.171a1.179,1.179,0,0,0,1.179-1.179v-2.288A1.179,1.179,0,0,1,64.636,383.765Z" transform="translate(-52.767 -334.971)" fill="#82d361"/>
        <path id="Trazado_838430" data-name="Trazado 838430" d="M275.445,85.937v2.288a1.907,1.907,0,0,0,1.907,1.907h9.907V87.844h-9.907A1.907,1.907,0,0,1,275.445,85.937Z" transform="translate(-241.449 -76.03)" fill="#ecdaec"/>
      </g>
      <g id="Grupo_1098825" data-name="Grupo 1098825" transform="translate(-0.001 0)">
        <path id="Trazado_838431" data-name="Trazado 838431" d="M267.583,246.791a2.941,2.941,0,0,0,2.121-.894l5-5.123a2.963,2.963,0,0,0-4.242-4.137l-2.931,3.005-.514-.5a2.963,2.963,0,1,0-4.131,4.248l2.635,2.562A2.947,2.947,0,0,0,267.583,246.791Zm-3.389-6.257a1.054,1.054,0,0,1,1.488-.021l1.2,1.164a.955.955,0,0,0,1.35-.018l3.6-3.688a1.052,1.052,0,0,1,1.507,1.469l-5,5.123a1.057,1.057,0,0,1-1.487.02l-2.635-2.562A1.053,1.053,0,0,1,264.195,240.534Z" transform="translate(-228.685 -205.778)"/>
        <path id="Trazado_838432" data-name="Trazado 838432" d="M220.241,198.961a.955.955,0,0,0-1.525,1.151,12.587,12.587,0,0,0,1.144,1.314,12.427,12.427,0,1,0-3.053-5,.955.955,0,0,0,1.82-.581,10.533,10.533,0,1,1,2.584,4.232A10.7,10.7,0,0,1,220.241,198.961Z" transform="translate(-188.727 -157.298)"/>
        <path id="Trazado_838433" data-name="Trazado 838433" d="M63.767,52.787,57.74,46.76a.956.956,0,0,0-1.351,0l-.037.037-2.319-2.319A16.783,16.783,0,0,0,56.7,36.4a.955.955,0,0,0-1.907-.12A14.888,14.888,0,0,1,39.939,50.227h-.09A14.893,14.893,0,1,1,54.591,32.693a.955.955,0,0,0,1.881-.337,16.822,16.822,0,0,0-8.657-11.865v-7.7a.967.967,0,0,0-.28-.675L35.7.28A.968.968,0,0,0,35.021,0H2.865A2.869,2.869,0,0,0,0,2.866v8.029a.955.955,0,0,0,1.911,0V2.866a.956.956,0,0,1,.955-.955h31.2v8.971a2.869,2.869,0,0,0,2.866,2.866H45.9v5.878a16.88,16.88,0,0,0-5.8-1.09.208.208,0,0,0-.028,0H18.749a.955.955,0,1,0,0,1.911H32.125a16.745,16.745,0,0,0-3.811,2.736H18.749a.955.955,0,1,0,0,1.911h7.845a16.628,16.628,0,0,0-3.135,6.83h-4.71a.955.955,0,1,0,0,1.911H23.18q-.066.747-.067,1.506,0,.622.045,1.237H18.749a.955.955,0,1,0,0,1.911h4.657a16.627,16.627,0,0,0,3.191,7.1H18.749a.955.955,0,1,0,0,1.911h9.568a16.743,16.743,0,0,0,3.8,2.732H18.749a.955.955,0,1,0,0,1.911H39.925a16.891,16.891,0,0,0,5.98-1.093V62.217a.956.956,0,0,1-.955.955H2.865a.956.956,0,0,1-.955-.955v-47.5a.955.955,0,0,0-1.911,0v47.5a2.869,2.869,0,0,0,2.866,2.865H44.949a2.869,2.869,0,0,0,2.866-2.866V50.179q.64-.339,1.254-.738l2.319,2.319a.964.964,0,0,0-.037,1.388l6.027,6.026a4.517,4.517,0,0,0,6.388-6.388ZM36.932,11.837a.956.956,0,0,1-.955-.955V3.261l8.576,8.575ZM50.628,48.3q.611-.505,1.185-1.076t1.076-1.185L55,48.148l-2.261,2.261Zm11.788,9.526a2.619,2.619,0,0,1-3.686,0l-5.352-5.351,3.686-3.686,5.352,5.351A2.618,2.618,0,0,1,62.416,57.823Z" transform="translate(0.001 0)"/>
        <path id="Trazado_838434" data-name="Trazado 838434" d="M53.53,146.762h4.179a2.139,2.139,0,0,0,2.137-2.137v-4.179a2.139,2.139,0,0,0-2.137-2.137H53.53a2.139,2.139,0,0,0-2.137,2.137v4.179A2.139,2.139,0,0,0,53.53,146.762Zm-.226-6.316a.226.226,0,0,1,.226-.226h4.179a.226.226,0,0,1,.226.226v4.179a.226.226,0,0,1-.226.226H53.53a.226.226,0,0,1-.226-.226Z" transform="translate(-44.86 -120.729)"/>
        <path id="Trazado_838435" data-name="Trazado 838435" d="M51.393,249.994a2.139,2.139,0,0,0,2.137,2.137h4.179a2.139,2.139,0,0,0,2.137-2.137v-4.179a2.139,2.139,0,0,0-2.137-2.137H53.53a2.139,2.139,0,0,0-2.137,2.137Zm1.911-4.179a.226.226,0,0,1,.226-.226h4.179a.226.226,0,0,1,.226.226v4.179a.226.226,0,0,1-.226.226H53.53a.226.226,0,0,1-.226-.226Z" transform="translate(-44.86 -212.703)"/>
        <path id="Trazado_838436" data-name="Trazado 838436" d="M51.393,357.5a2.139,2.139,0,0,0,2.137,2.137h4.179a2.139,2.139,0,0,0,2.137-2.137v-4.179a2.139,2.139,0,0,0-2.137-2.137H53.53a2.139,2.139,0,0,0-2.137,2.137Zm1.911-4.179a.226.226,0,0,1,.226-.226h4.179a.226.226,0,0,1,.226.226V357.5a.226.226,0,0,1-.226.226H53.53a.226.226,0,0,1-.226-.226Z" transform="translate(-44.86 -306.545)"/>
      </g>
    </g>
  </g>
</svg>
