<svg xmlns="http://www.w3.org/2000/svg" xmlns:xlink="http://www.w3.org/1999/xlink" width="60.313" height="64.949" viewBox="0 0 60.313 64.949">
  <defs>
    <filter id="Trazado_771226" x="0" y="0" width="60.313" height="64.949" filterUnits="userSpaceOnUse">
      <feOffset dy="3" input="SourceAlpha"/>
      <feGaussianBlur stdDeviation="3" result="blur"/>
      <feFlood flood-opacity="0.161"/>
      <feComposite operator="in" in2="blur"/>
      <feComposite in="SourceGraphic"/>
    </filter>
  </defs>
  <g id="Grupo_1098658" data-name="Grupo 1098658" transform="translate(-831 -936.917)">
    <g id="Grupo_1071655" data-name="Grupo 1071655" transform="translate(841 944)">
      <g transform="matrix(1, 0, 0, 1, -10, -7.08)" filter="url(#Trazado_771226)">
        <path id="Trazado_771226-2" data-name="Trazado 771226" d="M447.517,279.136V264.064a7.732,7.732,0,0,0-3.773-6.655l-12.36-7.329a7.582,7.582,0,0,0-7.5-.14l-12.665,6.885a7.728,7.728,0,0,0-4.02,6.795v15.21a7.733,7.733,0,0,0,3.68,6.6l11.847,7.255a7.583,7.583,0,0,0,7.5.242l13.177-6.949A7.727,7.727,0,0,0,447.517,279.136Z" transform="translate(-397.2 -241.94)" fill="#2ec49f" stroke="#fff" stroke-miterlimit="10" stroke-width="2"/>
      </g>
    </g>
    <g id="filled_outline" data-name="filled outline" transform="translate(842.519 947.158)">
      <path id="Trazado_838454" data-name="Trazado 838454" d="M160.274,74.1l.647,5.173L160,85.721l10.914,1.9,1.645-5.756,2.293.573a2.586,2.586,0,0,0,3.2-2.231l.729-6.748,2.185.5.647.148-.647-1.616-1.5-3.747-.441-1.1,1.293-8.405-3-1.5A16.426,16.426,0,0,0,169.972,56a9.7,9.7,0,0,0-9.7,9.7Z" transform="translate(-154.454 -55.354)" fill="#fec093"/>
      <path id="Trazado_838455" data-name="Trazado 838455" d="M278.829,368.93l-.359,2.511,10.992,2.586.77-2.7Z" transform="translate(-272.651 -342.993)" fill="#ff9801"/>
      <path id="Trazado_838456" data-name="Trazado 838456" d="M160,74.1l2.966,1.112a1.94,1.94,0,0,0,2.594-1.5l.906-5.434H169.7l.647,4.526a2.586,2.586,0,0,0,2.586-2.586V66.992l1.94-4.2,2.975.446a3.04,3.04,0,0,0,3.491-3.006.566.566,0,0,0-.313-.506l-3.976-1.988A16.433,16.433,0,0,0,169.7,56a9.7,9.7,0,0,0-9.7,9.7Z" transform="translate(-154.181 -55.354)" fill="#bc6549"/>
      <path id="Trazado_838457" data-name="Trazado 838457" d="M299.4,205.819h.131a.639.639,0,0,0,.639-.639v-4.152A1.028,1.028,0,0,0,299.139,200h-1.684a1.455,1.455,0,0,0-1.42,1.77l.365,1.644A3.071,3.071,0,0,0,299.4,205.819Z" transform="translate(-284.003 -187.716)" fill="#f5af7d"/>
      <path id="Trazado_838458" data-name="Trazado 838458" d="M114.683,252.881l-.613,5.674,3.07,1.915,4.086-6.551-4.359-2.719v2.18Z" transform="translate(-90.358 -234.778)" fill="#e51c23"/>
      <path id="Trazado_838459" data-name="Trazado 838459" d="M242.508,193.817V186.07a1.833,1.833,0,0,1,.373-1.12l-3.414-2.13-4.087,6.552Z" transform="translate(-221.817 -171.925)" fill="#e51c23"/>
      <path id="Trazado_838460" data-name="Trazado 838460" d="M168,200.76l5.446,3.4V203.1a1.94,1.94,0,0,0-1-1.7l-.5-.279-1.559-.866A1.858,1.858,0,0,0,168,200.76Z" transform="translate(-146.936 -187.735)" fill="#f5af7d"/>
      <path id="Trazado_838461" data-name="Trazado 838461" d="M203.068,312.288l4.8,3.2.436.545a2.584,2.584,0,0,0,1.823-2.2l.116-1.073-3.021-1.885v.731l-1.934-1.16a1.941,1.941,0,0,0-2.37.291,1.008,1.008,0,0,0,.154,1.551Z" transform="translate(-186.528 -288.981)" fill="#f5af7d"/>
      <path id="Trazado_838462" data-name="Trazado 838462" d="M168,210.29v7.748l3.021,1.885.613-5.674,2.185.5v-2.18l-5.446-3.4a1.834,1.834,0,0,0-.373,1.12Z" transform="translate(-147.31 -196.145)" fill="#c9191f"/>
      <path id="Trazado_838463" data-name="Trazado 838463" d="M23.361,200.322l2.06,1.144a1.94,1.94,0,0,1,1,1.7v9.2L37.41,224H29l-7.759-9.7-4.8-3.2a1.007,1.007,0,0,1-.154-1.55,1.94,1.94,0,0,1,2.37-.292l1.934,1.161v-8.479a1.859,1.859,0,0,1,2.762-1.625Z" transform="translate(1.385 -187.797)" fill="#fec093"/>
      <path id="Trazado_838464" data-name="Trazado 838464" d="M104,402.624v3.72h31.036a2.407,2.407,0,0,0-1.9-2.352l-12.976-2.821-10.992-2.586A4.163,4.163,0,0,0,104,402.624Z" transform="translate(-103.353 -370.137)" fill="#ffdc00"/>
      <path id="Trazado_838465" data-name="Trazado 838465" d="M20.024,76.7a4.774,4.774,0,0,1,3.423-1l.54-3.782-.636-5.087h0a.654.654,0,0,1-.006-.08V58.345A10.346,10.346,0,0,1,33.691,48a17.161,17.161,0,0,1,7.639,1.8L45.3,51.79a1.211,1.211,0,0,1,.672,1.085,3.687,3.687,0,0,1-1.938,3.245l-.608,3.949L45.294,61.1a2.588,2.588,0,0,1,1.33,2.261v1.505l2.761,1.722a.647.647,0,0,1,.206.891l-2.968,4.758v.072l10.17,10.8L55.851,84,45.506,73.013a.647.647,0,0,1-.176-.443v-9.2a1.294,1.294,0,0,0-.665-1.13L42.6,61.09l-.055-.028-.01,0A1.212,1.212,0,0,0,40.8,62.151V70.63a.647.647,0,0,1-.979.554l-1.934-1.161a1.293,1.293,0,0,0-1.58.194.361.361,0,0,0,.055.555l4.8,3.2a.646.646,0,0,1,.15.139l5.342,6.8,1.443.314a3.071,3.071,0,0,1,2.4,2.984H49.21a1.771,1.771,0,0,0-1.386-1.72L34.848,79.667l-.011,0h0L23.845,77.078l-.009,0a3.516,3.516,0,0,0-4.369,3.411v3.72H18.174v-3.72a4.779,4.779,0,0,1,1.85-3.791Zm28.128-9.349-1.528-.953v3.4ZM34.532,78.265l.411-1.436L24.894,74.713l-.177,1.242Zm6.219-27.3a15.863,15.863,0,0,0-7.06-1.667,9.053,9.053,0,0,0-9.052,9.051V66.3l2.546.955a1.293,1.293,0,0,0,1.73-1l.67-4.018-.01-.045a2.1,2.1,0,0,1,2.051-2.557H33.31a1.671,1.671,0,0,1,1.057.372l.908-1.456a.647.647,0,0,1,.891-.206l.5.311,1.612-3.494a.647.647,0,0,1,.683-.369l2.975.446a2.393,2.393,0,0,0,2.748-2.317ZM31.2,63.56a2.417,2.417,0,0,0,.4.887l2.056-3.3a.379.379,0,0,0-.345-.219H31.626a.808.808,0,0,0-.789.983Zm9.482-3.531a2.5,2.5,0,0,1,1.5-.38l.478-3.107a3.687,3.687,0,0,1-.921-.021l-2.5-.374-1.477,3.2,2.191,1.367A2.506,2.506,0,0,1,40.684,60.029Zm-1.173,9.459V62.151c0-.063,0-.126.008-.188L36.03,59.787l-3.4,5.455Zm-3.862,2.361A1.654,1.654,0,0,1,35.4,69.3a2.594,2.594,0,0,1,.59-.442l-3.843-2.4a3.708,3.708,0,0,1-1.713-1.439l-.241,1.445a2.583,2.583,0,0,1-3.459,2l-1.964-.737.514,4.111a.645.645,0,0,1,0,.172l-.2,1.416L35.3,75.582l.357-1.251a.647.647,0,0,1,.778-.45l2.293.573a1.934,1.934,0,0,0,.859.02Zm9.024,8.63-3.965-5.047a3.2,3.2,0,0,1-2.293.277l-1.686-.421L35.8,78.55Z" transform="translate(-18.174 -48.001)"/>
      <path id="Trazado_838466" data-name="Trazado 838466" d="M43.879,320H40v1.293h3.879Z" transform="translate(-7.025 -298.018)"/>
      <path id="Trazado_838467" data-name="Trazado 838467" d="M0,4.335H1.293V0H0Z" transform="matrix(-0.447, -0.894, 0.894, -0.447, 33.276, 20.618)"/>
      <path id="Trazado_838468" data-name="Trazado 838468" d="M0,1.293H4.335V0H0Z" transform="matrix(-0.894, -0.447, 0.447, -0.894, 36.574, 27.721)"/>
    </g>
  </g>
</svg>
