<svg xmlns="http://www.w3.org/2000/svg" width="1240" height="490" viewBox="0 0 1240 490">
  <g id="Grupo_1098915" data-name="Grupo 1098915" transform="translate(-180 -2692)">
    <path id="Trazado_838854" data-name="Trazado 838854" d="M0,0H1240V490H0Z" transform="translate(180 2692)" fill="#e6eff8"/>
    <path id="Trazado_196239" data-name="Trazado 196239" d="M-7964.41-6533.363h28.957v13.8l28.148-34.172-28.148-32.582v13.262h-28.957Z" transform="translate(8547 9367.717)" fill="#2ec49f"/>
    <path id="Trazado_196240" data-name="Trazado 196240" d="M-7964.41-6533.363h28.957v13.8l28.148-34.172-28.148-32.582v13.262h-28.957Z" transform="translate(8924.715 9367.717)" fill="#2ec49f"/>
    <path id="Trazado_196243" data-name="Trazado 196243" d="M-7964.41-6533.363h28.957v13.8l28.148-34.172-28.148-32.582v13.262h-28.957Z" transform="translate(-5375.221 10875.014) rotate(90)" fill="#2ec49f"/>
    <path id="Trazado_838855" data-name="Trazado 838855" d="M15,0H255a15,15,0,0,1,15,15v98a15,15,0,0,1-15,15H15A15,15,0,0,1,0,113V15A15,15,0,0,1,15,0Z" transform="translate(665 2750.404)" fill="#fff"/>
    <path id="Trazado_838856" data-name="Trazado 838856" d="M15,0H255a15,15,0,0,1,15,15v98a15,15,0,0,1-15,15H15A15,15,0,0,1,0,113V15A15,15,0,0,1,15,0Z" transform="translate(665 2995.404)" fill="#2b3990"/>
    <path id="Trazado_838857" data-name="Trazado 838857" d="M15,0H255a15,15,0,0,1,15,15v98.809a15,15,0,0,1-15,15H15a15,15,0,0,1-15-15V15A15,15,0,0,1,15,0Z" transform="translate(1042.715 2750)" fill="#2b3990"/>
    <path id="Trazado_838858" data-name="Trazado 838858" d="M15,0H255a15,15,0,0,1,15,15v98a15,15,0,0,1-15,15H15A15,15,0,0,1,0,113V15A15,15,0,0,1,15,0Z" transform="translate(1042.715 2995.404)" fill="#fff"/>
    <path id="Trazado_838859" data-name="Trazado 838859" d="M15,0H255a15,15,0,0,1,15,15v98a15,15,0,0,1-15,15H15A15,15,0,0,1,0,113V15A15,15,0,0,1,15,0Z" transform="translate(287 2750.404)" fill="#2b3990"/>
    <path id="Trazado_838860" data-name="Trazado 838860" d="M15,0H255a15,15,0,0,1,15,15v98a15,15,0,0,1-15,15H15A15,15,0,0,1,0,113V15A15,15,0,0,1,15,0Z" transform="translate(287 2995.404)" fill="#fff"/>
    <path id="Trazado_196241" data-name="Trazado 196241" d="M-7964.41-6533.363h28.957v13.8l28.148-34.172-28.148-32.582v13.262h-28.957Z" transform="translate(-6947 -3493.154) rotate(180)" fill="#2ec49f"/>
    <path id="Trazado_196242" data-name="Trazado 196242" d="M-7964.41-6533.363h28.957v13.8l28.148-34.172-28.148-32.582v13.262h-28.957Z" transform="translate(-7324.715 -3493.154) rotate(180)" fill="#2ec49f"/>
    <path id="Trazado_838861" data-name="Trazado 838861" d="M-30.717-6.778H-36.9v4.189h7.262V0H-40.127V-15.641h10.463v2.61H-36.9V-9.3h6.188Zm9.056,3.566a1,1,0,0,0-.564-.9,6.406,6.406,0,0,0-1.81-.585q-4.146-.87-4.146-3.523A3.194,3.194,0,0,1-26.9-10.8a5.178,5.178,0,0,1,3.357-1.037A5.573,5.573,0,0,1-20-10.8a3.284,3.284,0,0,1,1.327,2.707h-3.1a1.5,1.5,0,0,0-.43-1.1,1.818,1.818,0,0,0-1.343-.435,1.858,1.858,0,0,0-1.214.354,1.119,1.119,0,0,0-.43.9.957.957,0,0,0,.489.833,5.028,5.028,0,0,0,1.649.548,13.468,13.468,0,0,1,1.955.521,3.212,3.212,0,0,1,2.46,3.126A3.032,3.032,0,0,1-20.007-.768a5.885,5.885,0,0,1-3.523.983,6.147,6.147,0,0,1-2.594-.521A4.353,4.353,0,0,1-27.9-1.735a3.32,3.32,0,0,1-.645-1.96H-25.6a1.621,1.621,0,0,0,.612,1.268,2.429,2.429,0,0,0,1.525.44,2.248,2.248,0,0,0,1.348-.338A1.053,1.053,0,0,0-21.662-3.212Zm9.851.924a2.036,2.036,0,0,0,1.4-.473,1.656,1.656,0,0,0,.559-1.257h2.911a3.982,3.982,0,0,1-.645,2.165A4.253,4.253,0,0,1-9.324-.328a5.43,5.43,0,0,1-2.433.542A5.046,5.046,0,0,1-15.689-1.37a6.27,6.27,0,0,1-1.439-4.377v-.2A6.2,6.2,0,0,1-15.7-10.237a4.987,4.987,0,0,1,3.921-1.6,4.889,4.889,0,0,1,3.5,1.241,4.393,4.393,0,0,1,1.337,3.3H-9.856a2.133,2.133,0,0,0-.559-1.474,1.862,1.862,0,0,0-1.418-.567,1.87,1.87,0,0,0-1.638.791,4.583,4.583,0,0,0-.553,2.566v.323a4.641,4.641,0,0,0,.548,2.582A1.893,1.893,0,0,0-11.811-2.288Zm13.6,1.106a3.893,3.893,0,0,1-3.18,1.4A3.672,3.672,0,0,1-4.243-.859a4.586,4.586,0,0,1-1-3.147v-7.616h3.1v7.518q0,1.817,1.654,1.817a2.242,2.242,0,0,0,2.17-1.1v-8.238H4.8V0H1.875ZM11.972-2.288a2.036,2.036,0,0,0,1.4-.473,1.656,1.656,0,0,0,.559-1.257h2.911a3.982,3.982,0,0,1-.645,2.165A4.253,4.253,0,0,1,14.459-.328a5.43,5.43,0,0,1-2.433.542A5.046,5.046,0,0,1,8.094-1.37,6.27,6.27,0,0,1,6.655-5.747v-.2a6.2,6.2,0,0,1,1.429-4.286A4.987,4.987,0,0,1,12-11.838,4.889,4.889,0,0,1,15.5-10.6a4.393,4.393,0,0,1,1.337,3.3H13.927a2.133,2.133,0,0,0-.559-1.474,1.862,1.862,0,0,0-1.418-.567,1.87,1.87,0,0,0-1.638.791,4.583,4.583,0,0,0-.553,2.566v.323a4.641,4.641,0,0,0,.548,2.582A1.893,1.893,0,0,0,11.972-2.288Zm9.668-8.067a3.875,3.875,0,0,1,3.1-1.482q3.781,0,3.835,4.394V0h-3.1V-7.358a2.159,2.159,0,0,0-.43-1.477,1.842,1.842,0,0,0-1.429-.478A2.113,2.113,0,0,0,21.64-8.261V0h-3.1V-16.5h3.1ZM37.657,0a3.447,3.447,0,0,1-.312-1.042A3.756,3.756,0,0,1,34.413.215a4.127,4.127,0,0,1-2.831-.988,3.178,3.178,0,0,1-1.123-2.492A3.285,3.285,0,0,1,31.829-6.1a6.758,6.758,0,0,1,3.958-1h1.429v-.666A1.915,1.915,0,0,0,36.8-9.056,1.627,1.627,0,0,0,35.5-9.539a1.85,1.85,0,0,0-1.23.376,1.277,1.277,0,0,0-.446,1.031h-3.1A3.118,3.118,0,0,1,31.34-10,4.118,4.118,0,0,1,33.1-11.349a6.42,6.42,0,0,1,2.557-.489,5.073,5.073,0,0,1,3.411,1.08,3.777,3.777,0,0,1,1.262,3.035v5.038a5.557,5.557,0,0,0,.462,2.5V0ZM35.089-2.159a2.674,2.674,0,0,0,1.268-.306,2.011,2.011,0,0,0,.859-.822v-2h-1.16q-2.331,0-2.481,1.611l-.011.183a1.243,1.243,0,0,0,.408.956A1.586,1.586,0,0,0,35.089-2.159ZM-21.715,27a3.448,3.448,0,0,1-.312-1.042,3.756,3.756,0,0,1-2.933,1.257,4.127,4.127,0,0,1-2.831-.988,3.178,3.178,0,0,1-1.123-2.492,3.285,3.285,0,0,1,1.37-2.836,6.758,6.758,0,0,1,3.958-1h1.429v-.666a1.915,1.915,0,0,0-.414-1.289,1.627,1.627,0,0,0-1.305-.483,1.85,1.85,0,0,0-1.23.376,1.277,1.277,0,0,0-.446,1.031h-3.1A3.118,3.118,0,0,1-28.032,17a4.118,4.118,0,0,1,1.762-1.348,6.42,6.42,0,0,1,2.557-.489,5.073,5.073,0,0,1,3.411,1.08,3.777,3.777,0,0,1,1.262,3.035v5.038a5.557,5.557,0,0,0,.462,2.5V27Zm-2.567-2.159a2.674,2.674,0,0,0,1.268-.306,2.011,2.011,0,0,0,.859-.822v-2h-1.16q-2.331,0-2.481,1.611l-.011.183a1.243,1.243,0,0,0,.408.956A1.586,1.586,0,0,0-24.283,24.841Zm12.461-.129a2.036,2.036,0,0,0,1.4-.473,1.656,1.656,0,0,0,.559-1.257h2.911A3.982,3.982,0,0,1-7.6,25.147a4.253,4.253,0,0,1-1.735,1.525,5.43,5.43,0,0,1-2.433.542A5.046,5.046,0,0,1-15.7,25.63a6.27,6.27,0,0,1-1.439-4.377v-.2a6.2,6.2,0,0,1,1.429-4.286,4.987,4.987,0,0,1,3.921-1.6,4.889,4.889,0,0,1,3.5,1.241,4.393,4.393,0,0,1,1.337,3.3H-9.867a2.133,2.133,0,0,0-.559-1.474,1.862,1.862,0,0,0-1.418-.567,1.87,1.87,0,0,0-1.638.791,4.583,4.583,0,0,0-.553,2.566v.323a4.641,4.641,0,0,0,.548,2.582A1.893,1.893,0,0,0-11.822,24.712ZM-1.466,12.52v2.857H.521v2.277H-1.466v5.8a1.385,1.385,0,0,0,.247.924,1.241,1.241,0,0,0,.945.279,4.951,4.951,0,0,0,.913-.075v2.353a6.391,6.391,0,0,1-1.88.279q-3.266,0-3.33-3.3V17.654h-1.7V15.377h1.7V12.52ZM5.527,27H2.412V15.377H5.527Zm-3.3-14.631A1.529,1.529,0,0,1,2.7,11.22a1.755,1.755,0,0,1,1.273-.451,1.759,1.759,0,0,1,1.268.451,1.64,1.64,0,0,1-.005,2.31,1.764,1.764,0,0,1-1.262.451,1.764,1.764,0,0,1-1.262-.451A1.524,1.524,0,0,1,2.229,12.369ZM12.434,23.208l2.159-7.831h3.244L13.917,27H10.952L7.031,15.377h3.244ZM25.776,27a3.448,3.448,0,0,1-.312-1.042,3.756,3.756,0,0,1-2.933,1.257,4.127,4.127,0,0,1-2.831-.988,3.178,3.178,0,0,1-1.123-2.492,3.285,3.285,0,0,1,1.37-2.836,6.758,6.758,0,0,1,3.958-1h1.429v-.666a1.915,1.915,0,0,0-.414-1.289,1.627,1.627,0,0,0-1.305-.483,1.85,1.85,0,0,0-1.23.376,1.277,1.277,0,0,0-.446,1.031h-3.1A3.118,3.118,0,0,1,19.459,17a4.118,4.118,0,0,1,1.762-1.348,6.42,6.42,0,0,1,2.557-.489,5.073,5.073,0,0,1,3.411,1.08,3.777,3.777,0,0,1,1.262,3.035v5.038a5.557,5.557,0,0,0,.462,2.5V27Zm-2.567-2.159a2.674,2.674,0,0,0,1.268-.306,2.011,2.011,0,0,0,.859-.822v-2h-1.16q-2.331,0-2.481,1.611l-.011.183a1.243,1.243,0,0,0,.408.956A1.586,1.586,0,0,0,23.208,24.841Z" transform="translate(422 2809.404)" fill="#fff"/>
    <path id="Trazado_838862" data-name="Trazado 838862" d="M-57.546-15.641-53.528-4.3l4-11.344H-45.3V0h-3.233V-4.275l.322-7.38L-52.433,0h-2.213l-4.211-11.645.322,7.369V0h-3.223V-15.641ZM-35.954,0a3.447,3.447,0,0,1-.312-1.042A3.756,3.756,0,0,1-39.2.215a4.127,4.127,0,0,1-2.831-.988,3.178,3.178,0,0,1-1.123-2.492A3.285,3.285,0,0,1-41.782-6.1a6.758,6.758,0,0,1,3.958-1h1.429v-.666a1.915,1.915,0,0,0-.414-1.289,1.627,1.627,0,0,0-1.305-.483,1.85,1.85,0,0,0-1.23.376,1.277,1.277,0,0,0-.446,1.031h-3.1A3.119,3.119,0,0,1-42.271-10a4.118,4.118,0,0,1,1.762-1.348,6.42,6.42,0,0,1,2.557-.489,5.073,5.073,0,0,1,3.411,1.08,3.777,3.777,0,0,1,1.262,3.035v5.038a5.557,5.557,0,0,0,.462,2.5V0Zm-2.567-2.159a2.674,2.674,0,0,0,1.268-.306,2.011,2.011,0,0,0,.859-.822v-2h-1.16q-2.331,0-2.481,1.611l-.011.183a1.243,1.243,0,0,0,.408.956A1.586,1.586,0,0,0-38.521-2.159Zm10.484-9.464.1,1.343A4.058,4.058,0,0,1-24.6-11.838a3.372,3.372,0,0,1,2.75,1.085,5.062,5.062,0,0,1,.924,3.244V0h-3.1V-7.434a2.014,2.014,0,0,0-.43-1.434,1.924,1.924,0,0,0-1.429-.446A2.136,2.136,0,0,0-27.854-8.2V0h-3.1V-11.623ZM-13.224.215a5.706,5.706,0,0,1-4.163-1.568,5.575,5.575,0,0,1-1.606-4.179v-.3a7.021,7.021,0,0,1,.677-3.131A4.967,4.967,0,0,1-16.4-11.091a5.382,5.382,0,0,1,2.831-.747,4.824,4.824,0,0,1,3.754,1.5,6.111,6.111,0,0,1,1.37,4.265V-4.8h-7.4a2.884,2.884,0,0,0,.908,1.826,2.744,2.744,0,0,0,1.917.688,3.351,3.351,0,0,0,2.8-1.3L-8.69-1.88A4.66,4.66,0,0,1-10.581-.338,6.2,6.2,0,0,1-13.224.215Zm-.354-9.55a1.94,1.94,0,0,0-1.5.626,3.241,3.241,0,0,0-.736,1.791h4.318v-.248a2.311,2.311,0,0,0-.559-1.6A2,2,0,0,0-13.578-9.335Zm10.184-2.288V.634A4.158,4.158,0,0,1-4.415,3.625,3.879,3.879,0,0,1-7.358,4.694a6.312,6.312,0,0,1-1.536-.183V2.052a5.827,5.827,0,0,0,.978.1q1.407,0,1.407-1.493V-11.623Zm-3.362-3.008A1.529,1.529,0,0,1-6.29-15.78a1.755,1.755,0,0,1,1.273-.451,1.755,1.755,0,0,1,1.273.451,1.529,1.529,0,0,1,.467,1.149,1.524,1.524,0,0,1-.478,1.16,1.764,1.764,0,0,1-1.262.451,1.764,1.764,0,0,1-1.262-.451A1.524,1.524,0,0,1-6.757-14.631ZM-1.45-5.919A6.893,6.893,0,0,1-.784-9,4.876,4.876,0,0,1,1.133-11.1a5.594,5.594,0,0,1,2.906-.741A5.293,5.293,0,0,1,7.879-10.4a5.777,5.777,0,0,1,1.66,3.91l.021.795A6.075,6.075,0,0,1,8.067-1.4,5.19,5.19,0,0,1,4.061.215,5.216,5.216,0,0,1,.048-1.4a6.182,6.182,0,0,1-1.5-4.383Zm3.1.22a4.345,4.345,0,0,0,.623,2.534,2.055,2.055,0,0,0,1.783.877,2.06,2.06,0,0,0,1.762-.866,4.754,4.754,0,0,0,.634-2.77,4.3,4.3,0,0,0-.634-2.518,2.06,2.06,0,0,0-1.783-.893,2.027,2.027,0,0,0-1.762.888A4.834,4.834,0,0,0,1.654-5.7Zm14.813-.2a7,7,0,0,1,1.219-4.329,3.956,3.956,0,0,1,3.335-1.611,3.56,3.56,0,0,1,2.8,1.268V-16.5h3.115V0h-2.8l-.15-1.235A3.653,3.653,0,0,1,21,.215,3.945,3.945,0,0,1,17.708-1.4,7.23,7.23,0,0,1,16.468-5.9Zm3.1.231a4.588,4.588,0,0,0,.569,2.507,1.855,1.855,0,0,0,1.654.871A2.077,2.077,0,0,0,23.826-3.5V-8.1a2.048,2.048,0,0,0-2.009-1.216Q19.572-9.313,19.572-5.666ZM34.7.215a5.706,5.706,0,0,1-4.163-1.568,5.575,5.575,0,0,1-1.606-4.179v-.3a7.021,7.021,0,0,1,.677-3.131,4.967,4.967,0,0,1,1.917-2.127,5.382,5.382,0,0,1,2.831-.747,4.824,4.824,0,0,1,3.754,1.5,6.111,6.111,0,0,1,1.37,4.265V-4.8h-7.4a2.884,2.884,0,0,0,.908,1.826,2.744,2.744,0,0,0,1.917.688,3.351,3.351,0,0,0,2.8-1.3L39.23-1.88A4.66,4.66,0,0,1,37.34-.338,6.2,6.2,0,0,1,34.7.215Zm-.354-9.55a1.94,1.94,0,0,0-1.5.626,3.241,3.241,0,0,0-.736,1.791h4.318v-.248a2.311,2.311,0,0,0-.559-1.6A2,2,0,0,0,34.343-9.335ZM49.994,0H46.879V-16.5h3.115Zm9.292,0a3.447,3.447,0,0,1-.312-1.042A3.756,3.756,0,0,1,56.042.215a4.127,4.127,0,0,1-2.831-.988,3.178,3.178,0,0,1-1.123-2.492A3.285,3.285,0,0,1,53.458-6.1a6.758,6.758,0,0,1,3.958-1h1.429v-.666a1.915,1.915,0,0,0-.414-1.289,1.627,1.627,0,0,0-1.305-.483,1.85,1.85,0,0,0-1.23.376,1.277,1.277,0,0,0-.446,1.031h-3.1A3.119,3.119,0,0,1,52.97-10a4.118,4.118,0,0,1,1.762-1.348,6.42,6.42,0,0,1,2.557-.489,5.073,5.073,0,0,1,3.411,1.08,3.777,3.777,0,0,1,1.262,3.035v5.038a5.557,5.557,0,0,0,.462,2.5V0ZM56.719-2.159a2.674,2.674,0,0,0,1.268-.306,2.011,2.011,0,0,0,.859-.822v-2h-1.16q-2.331,0-2.481,1.611l-.011.183a1.243,1.243,0,0,0,.408.956A1.586,1.586,0,0,0,56.719-2.159ZM-85.787,27.215a5.706,5.706,0,0,1-4.163-1.568,5.575,5.575,0,0,1-1.606-4.179v-.3a7.021,7.021,0,0,1,.677-3.131,4.967,4.967,0,0,1,1.917-2.127,5.382,5.382,0,0,1,2.831-.747,4.824,4.824,0,0,1,3.754,1.5,6.111,6.111,0,0,1,1.37,4.265V22.2h-7.4a2.884,2.884,0,0,0,.908,1.826,2.744,2.744,0,0,0,1.917.688,3.351,3.351,0,0,0,2.8-1.3l1.525,1.708a4.66,4.66,0,0,1-1.891,1.542A6.2,6.2,0,0,1-85.787,27.215Zm-.354-9.55a1.94,1.94,0,0,0-1.5.626,3.241,3.241,0,0,0-.736,1.791h4.318v-.248a2.311,2.311,0,0,0-.559-1.6A2,2,0,0,0-86.142,17.665Zm11.322,1.182,1.955-3.47h3.319l-3.309,5.693L-69.405,27h-3.33l-2.073-3.652L-76.871,27h-3.341l3.448-5.93-3.3-5.693h3.33Zm17.23,2.449a6.971,6.971,0,0,1-1.219,4.3A3.909,3.909,0,0,1-62.1,27.215a3.621,3.621,0,0,1-2.847-1.225v5.479h-3.1V15.377h2.879l.107,1.139a3.649,3.649,0,0,1,2.943-1.354,3.936,3.936,0,0,1,3.341,1.59,7.16,7.16,0,0,1,1.192,4.383Zm-3.1-.226a4.574,4.574,0,0,0-.575-2.5,1.872,1.872,0,0,0-1.67-.881A2.033,2.033,0,0,0-64.947,18.8v4.759a2.067,2.067,0,0,0,2.03,1.149Q-60.693,24.712-60.693,21.07Zm11.559-2.782a8.434,8.434,0,0,0-1.117-.086,2.274,2.274,0,0,0-2.31,1.192V27h-3.1V15.377h2.933l.086,1.386a2.877,2.877,0,0,1,2.589-1.6,3.253,3.253,0,0,1,.967.14Zm6.639,8.927a5.706,5.706,0,0,1-4.163-1.568,5.575,5.575,0,0,1-1.606-4.179v-.3a7.021,7.021,0,0,1,.677-3.131,4.967,4.967,0,0,1,1.917-2.127,5.382,5.382,0,0,1,2.831-.747,4.824,4.824,0,0,1,3.754,1.5,6.111,6.111,0,0,1,1.37,4.265V22.2h-7.4a2.884,2.884,0,0,0,.908,1.826,2.744,2.744,0,0,0,1.917.688,3.351,3.351,0,0,0,2.8-1.3l1.525,1.708a4.66,4.66,0,0,1-1.891,1.542A6.2,6.2,0,0,1-42.5,27.215Zm-.354-9.55a1.94,1.94,0,0,0-1.5.626,3.241,3.241,0,0,0-.736,1.791h4.318v-.248a2.311,2.311,0,0,0-.559-1.6A2,2,0,0,0-42.851,17.665Zm13.191,6.123a1,1,0,0,0-.564-.9,6.406,6.406,0,0,0-1.81-.585q-4.146-.87-4.146-3.523A3.194,3.194,0,0,1-34.9,16.2a5.178,5.178,0,0,1,3.357-1.037A5.573,5.573,0,0,1-28,16.2a3.284,3.284,0,0,1,1.327,2.707h-3.1a1.5,1.5,0,0,0-.43-1.1,1.818,1.818,0,0,0-1.343-.435,1.858,1.858,0,0,0-1.214.354,1.119,1.119,0,0,0-.43.9.957.957,0,0,0,.489.833,5.028,5.028,0,0,0,1.649.548,13.468,13.468,0,0,1,1.955.521,3.212,3.212,0,0,1,2.46,3.126A3.032,3.032,0,0,1-28,26.232a5.885,5.885,0,0,1-3.523.983,6.147,6.147,0,0,1-2.594-.521A4.353,4.353,0,0,1-35.9,25.265a3.32,3.32,0,0,1-.645-1.96H-33.6a1.621,1.621,0,0,0,.612,1.268,2.429,2.429,0,0,0,1.525.44,2.248,2.248,0,0,0,1.348-.338A1.053,1.053,0,0,0-29.659,23.788ZM-21.366,27h-3.115V15.377h3.115Zm-3.3-14.631A1.529,1.529,0,0,1-24.2,11.22a1.755,1.755,0,0,1,1.273-.451,1.759,1.759,0,0,1,1.268.451,1.52,1.52,0,0,1,.473,1.149,1.524,1.524,0,0,1-.478,1.16,1.764,1.764,0,0,1-1.262.451,1.764,1.764,0,0,1-1.262-.451A1.524,1.524,0,0,1-24.664,12.369Zm5.371,8.712A6.893,6.893,0,0,1-18.627,18,4.876,4.876,0,0,1-16.709,15.9a5.594,5.594,0,0,1,2.906-.741A5.293,5.293,0,0,1-9.963,16.6a5.777,5.777,0,0,1,1.66,3.91l.021.795A6.075,6.075,0,0,1-9.775,25.6a5.19,5.19,0,0,1-4.007,1.617A5.216,5.216,0,0,1-17.794,25.6a6.182,6.182,0,0,1-1.5-4.383Zm3.1.22a4.345,4.345,0,0,0,.623,2.534,2.055,2.055,0,0,0,1.783.877,2.06,2.06,0,0,0,1.762-.866,4.754,4.754,0,0,0,.634-2.77,4.3,4.3,0,0,0-.634-2.518,2.06,2.06,0,0,0-1.783-.893,2.027,2.027,0,0,0-1.762.888A4.834,4.834,0,0,0-16.188,21.3Zm3-10.8h3.384l-2.976,3.33h-2.524Zm9.679,4.877.1,1.343A4.058,4.058,0,0,1-.075,15.162a3.372,3.372,0,0,1,2.75,1.085A5.062,5.062,0,0,1,3.6,19.491V27H.494V19.566a2.014,2.014,0,0,0-.43-1.434,1.924,1.924,0,0,0-1.429-.446A2.136,2.136,0,0,0-3.33,18.8V27h-3.1V15.377Zm19.776,9.335a2.036,2.036,0,0,0,1.4-.473,1.656,1.656,0,0,0,.559-1.257H21.13a3.982,3.982,0,0,1-.645,2.165,4.253,4.253,0,0,1-1.735,1.525,5.43,5.43,0,0,1-2.433.542,5.046,5.046,0,0,1-3.932-1.584,6.27,6.27,0,0,1-1.439-4.377v-.2a6.2,6.2,0,0,1,1.429-4.286,4.987,4.987,0,0,1,3.921-1.6,4.889,4.889,0,0,1,3.5,1.241,4.393,4.393,0,0,1,1.337,3.3H18.219a2.133,2.133,0,0,0-.559-1.474,1.862,1.862,0,0,0-1.418-.567,1.87,1.87,0,0,0-1.638.791,4.583,4.583,0,0,0-.553,2.566v.323a4.641,4.641,0,0,0,.548,2.582A1.893,1.893,0,0,0,16.264,24.712Zm6.155-3.631A6.893,6.893,0,0,1,23.085,18,4.876,4.876,0,0,1,25,15.9a5.594,5.594,0,0,1,2.906-.741,5.293,5.293,0,0,1,3.84,1.439,5.777,5.777,0,0,1,1.66,3.91l.021.795A6.075,6.075,0,0,1,31.937,25.6a5.19,5.19,0,0,1-4.007,1.617A5.216,5.216,0,0,1,23.917,25.6a6.182,6.182,0,0,1-1.5-4.383Zm3.1.22a4.345,4.345,0,0,0,.623,2.534,2.238,2.238,0,0,0,3.545.011,4.754,4.754,0,0,0,.634-2.77,4.3,4.3,0,0,0-.634-2.518,2.06,2.06,0,0,0-1.783-.893,2.027,2.027,0,0,0-1.762.888A4.834,4.834,0,0,0,25.523,21.3Zm16.35-3.013a8.434,8.434,0,0,0-1.117-.086,2.274,2.274,0,0,0-2.31,1.192V27h-3.1V15.377h2.933l.086,1.386a2.877,2.877,0,0,1,2.589-1.6,3.253,3.253,0,0,1,.967.14ZM53.829,21.3a6.971,6.971,0,0,1-1.219,4.3,3.909,3.909,0,0,1-3.292,1.617,3.621,3.621,0,0,1-2.847-1.225v5.479h-3.1V15.377h2.879l.107,1.139A3.649,3.649,0,0,1,49.3,15.162a3.936,3.936,0,0,1,3.341,1.59,7.16,7.16,0,0,1,1.192,4.383Zm-3.1-.226a4.574,4.574,0,0,0-.575-2.5,1.872,1.872,0,0,0-1.67-.881A2.033,2.033,0,0,0,46.471,18.8v4.759a2.067,2.067,0,0,0,2.03,1.149Q50.725,24.712,50.725,21.07Zm4.544.011A6.893,6.893,0,0,1,55.935,18,4.876,4.876,0,0,1,57.852,15.9a5.594,5.594,0,0,1,2.906-.741A5.293,5.293,0,0,1,64.6,16.6a5.777,5.777,0,0,1,1.66,3.91l.021.795A6.075,6.075,0,0,1,64.786,25.6a5.787,5.787,0,0,1-8.019.005,6.182,6.182,0,0,1-1.5-4.383Zm3.1.22A4.345,4.345,0,0,0,59,23.835a2.238,2.238,0,0,0,3.545.011,4.754,4.754,0,0,0,.634-2.77,4.3,4.3,0,0,0-.634-2.518,2.06,2.06,0,0,0-1.783-.893A2.027,2.027,0,0,0,59,18.553,4.834,4.834,0,0,0,58.373,21.3Zm16.35-3.013a8.434,8.434,0,0,0-1.117-.086,2.274,2.274,0,0,0-2.31,1.192V27h-3.1V15.377h2.933l.086,1.386a2.877,2.877,0,0,1,2.589-1.6,3.253,3.253,0,0,1,.967.14ZM82.629,27a3.448,3.448,0,0,1-.312-1.042,3.756,3.756,0,0,1-2.933,1.257,4.127,4.127,0,0,1-2.831-.988,3.178,3.178,0,0,1-1.123-2.492A3.285,3.285,0,0,1,76.8,20.9a6.758,6.758,0,0,1,3.958-1h1.429v-.666a1.915,1.915,0,0,0-.414-1.289,1.627,1.627,0,0,0-1.305-.483,1.85,1.85,0,0,0-1.23.376,1.277,1.277,0,0,0-.446,1.031h-3.1A3.118,3.118,0,0,1,76.313,17a4.118,4.118,0,0,1,1.762-1.348,6.42,6.42,0,0,1,2.557-.489,5.073,5.073,0,0,1,3.411,1.08A3.777,3.777,0,0,1,85.3,19.276v5.038a5.557,5.557,0,0,0,.462,2.5V27Zm-2.567-2.159a2.674,2.674,0,0,0,1.268-.306,2.011,2.011,0,0,0,.859-.822v-2h-1.16q-2.331,0-2.481,1.611l-.011.183a1.243,1.243,0,0,0,.408.956A1.586,1.586,0,0,0,80.062,24.841ZM90.965,27H87.85V10.5h3.115Z" transform="translate(422 3054.404)" fill="#12263f"/>
    <path id="Trazado_838863" data-name="Trazado 838863" d="M-59.587-5.726h-2.567V0h-3.223V-15.641h5.812a6.57,6.57,0,0,1,4.275,1.235,4.264,4.264,0,0,1,1.5,3.491,4.812,4.812,0,0,1-.693,2.669,4.725,4.725,0,0,1-2.1,1.7L-53.2-.15V0h-3.459Zm-2.567-2.61h2.6a2.662,2.662,0,0,0,1.88-.618,2.208,2.208,0,0,0,.666-1.7,2.363,2.363,0,0,0-.628-1.74,2.612,2.612,0,0,0-1.928-.634h-2.589ZM-46.191.215a5.706,5.706,0,0,1-4.163-1.568A5.575,5.575,0,0,1-51.96-5.532v-.3a7.021,7.021,0,0,1,.677-3.131,4.967,4.967,0,0,1,1.917-2.127,5.382,5.382,0,0,1,2.831-.747,4.824,4.824,0,0,1,3.754,1.5,6.111,6.111,0,0,1,1.37,4.265V-4.8h-7.4A2.884,2.884,0,0,0-47.9-2.976a2.744,2.744,0,0,0,1.917.688,3.351,3.351,0,0,0,2.8-1.3l1.525,1.708A4.66,4.66,0,0,1-43.549-.338,6.2,6.2,0,0,1-46.191.215Zm-.354-9.55a1.94,1.94,0,0,0-1.5.626,3.241,3.241,0,0,0-.736,1.791h4.318v-.248a2.311,2.311,0,0,0-.559-1.6A2,2,0,0,0-46.546-9.335Zm13.191,6.123a1,1,0,0,0-.564-.9,6.406,6.406,0,0,0-1.81-.585q-4.146-.87-4.146-3.523A3.194,3.194,0,0,1-38.591-10.8a5.178,5.178,0,0,1,3.357-1.037,5.573,5.573,0,0,1,3.54,1.042,3.284,3.284,0,0,1,1.327,2.707h-3.1a1.5,1.5,0,0,0-.43-1.1,1.818,1.818,0,0,0-1.343-.435,1.858,1.858,0,0,0-1.214.354,1.119,1.119,0,0,0-.43.9.957.957,0,0,0,.489.833,5.028,5.028,0,0,0,1.649.548,13.468,13.468,0,0,1,1.955.521,3.212,3.212,0,0,1,2.46,3.126A3.032,3.032,0,0,1-31.7-.768a5.885,5.885,0,0,1-3.523.983,6.147,6.147,0,0,1-2.594-.521A4.353,4.353,0,0,1-39.6-1.735,3.32,3.32,0,0,1-40.24-3.7H-37.3a1.621,1.621,0,0,0,.612,1.268,2.429,2.429,0,0,0,1.525.44,2.248,2.248,0,0,0,1.348-.338A1.053,1.053,0,0,0-33.354-3.212ZM-17.875-5.7a6.971,6.971,0,0,1-1.219,4.3A3.909,3.909,0,0,1-22.387.215,3.621,3.621,0,0,1-25.233-1.01V4.469h-3.1V-11.623h2.879l.107,1.139a3.649,3.649,0,0,1,2.943-1.354,3.936,3.936,0,0,1,3.341,1.59,7.16,7.16,0,0,1,1.192,4.383Zm-3.1-.226a4.574,4.574,0,0,0-.575-2.5,1.872,1.872,0,0,0-1.67-.881A2.033,2.033,0,0,0-25.233-8.2v4.759A2.067,2.067,0,0,0-23.2-2.288Q-20.979-2.288-20.979-5.93Zm8.3,5.93h-3.115V-11.623h3.115Zm-3.3-14.631a1.529,1.529,0,0,1,.467-1.149,1.755,1.755,0,0,1,1.273-.451,1.759,1.759,0,0,1,1.268.451,1.52,1.52,0,0,1,.473,1.149,1.524,1.524,0,0,1-.478,1.16,1.764,1.764,0,0,1-1.262.451,1.764,1.764,0,0,1-1.262-.451A1.524,1.524,0,0,1-15.974-14.631ZM-3.588-8.712A8.434,8.434,0,0,0-4.705-8.8a2.274,2.274,0,0,0-2.31,1.192V0h-3.1V-11.623h2.933l.086,1.386a2.877,2.877,0,0,1,2.589-1.6,3.253,3.253,0,0,1,.967.14ZM4.318,0a3.447,3.447,0,0,1-.312-1.042A3.756,3.756,0,0,1,1.074.215,4.127,4.127,0,0,1-1.756-.773,3.178,3.178,0,0,1-2.879-3.266,3.285,3.285,0,0,1-1.509-6.1a6.758,6.758,0,0,1,3.958-1H3.878v-.666a1.915,1.915,0,0,0-.414-1.289,1.627,1.627,0,0,0-1.305-.483,1.85,1.85,0,0,0-1.23.376A1.277,1.277,0,0,0,.483-8.132h-3.1A3.118,3.118,0,0,1-2-10,4.118,4.118,0,0,1-.236-11.349a6.42,6.42,0,0,1,2.557-.489,5.073,5.073,0,0,1,3.411,1.08A3.777,3.777,0,0,1,6.993-7.724v5.038a5.557,5.557,0,0,0,.462,2.5V0ZM1.751-2.159a2.674,2.674,0,0,0,1.268-.306,2.011,2.011,0,0,0,.859-.822v-2H2.718Q.387-5.285.236-3.674l-.011.183a1.243,1.243,0,0,0,.408.956A1.586,1.586,0,0,0,1.751-2.159Zm12.461-.129a2.036,2.036,0,0,0,1.4-.473,1.656,1.656,0,0,0,.559-1.257h2.911a3.982,3.982,0,0,1-.645,2.165A4.253,4.253,0,0,1,16.7-.328a5.43,5.43,0,0,1-2.433.542A5.046,5.046,0,0,1,10.334-1.37,6.27,6.27,0,0,1,8.895-5.747v-.2a6.2,6.2,0,0,1,1.429-4.286,4.987,4.987,0,0,1,3.921-1.6,4.889,4.889,0,0,1,3.5,1.241,4.393,4.393,0,0,1,1.337,3.3H16.167a2.133,2.133,0,0,0-.559-1.474,1.862,1.862,0,0,0-1.418-.567,1.87,1.87,0,0,0-1.638.791A4.583,4.583,0,0,0,12-5.978v.323a4.641,4.641,0,0,0,.548,2.582A1.893,1.893,0,0,0,14.212-2.288ZM24.127,0H21.012V-11.623h3.115Zm-3.3-14.631A1.529,1.529,0,0,1,21.3-15.78a1.755,1.755,0,0,1,1.273-.451,1.759,1.759,0,0,1,1.268.451,1.52,1.52,0,0,1,.473,1.149,1.524,1.524,0,0,1-.478,1.16,1.764,1.764,0,0,1-1.262.451,1.764,1.764,0,0,1-1.262-.451A1.524,1.524,0,0,1,20.829-14.631ZM26.2-5.919A6.893,6.893,0,0,1,26.866-9,4.876,4.876,0,0,1,28.784-11.1a5.594,5.594,0,0,1,2.906-.741A5.293,5.293,0,0,1,35.53-10.4a5.777,5.777,0,0,1,1.66,3.91l.021.795A6.075,6.075,0,0,1,35.718-1.4,5.19,5.19,0,0,1,31.711.215,5.216,5.216,0,0,1,27.7-1.4a6.182,6.182,0,0,1-1.5-4.383Zm3.1.22a4.345,4.345,0,0,0,.623,2.534,2.055,2.055,0,0,0,1.783.877,2.06,2.06,0,0,0,1.762-.866,4.754,4.754,0,0,0,.634-2.77,4.3,4.3,0,0,0-.634-2.518,2.06,2.06,0,0,0-1.783-.893,2.027,2.027,0,0,0-1.762.888A4.834,4.834,0,0,0,29.3-5.7Zm3-10.8h3.384L32.71-13.17H30.186Zm9.679,4.877.1,1.343a4.058,4.058,0,0,1,3.341-1.558,3.372,3.372,0,0,1,2.75,1.085,5.062,5.062,0,0,1,.924,3.244V0h-3.1V-7.434a2.014,2.014,0,0,0-.43-1.434,1.924,1.924,0,0,0-1.429-.446A2.136,2.136,0,0,0,42.163-8.2V0h-3.1V-11.623ZM61.263-4.394l2.148-7.229h3.33L62.068,1.8l-.258.612a3.543,3.543,0,0,1-3.437,2.277A4.885,4.885,0,0,1,57,4.49V2.138l.473.011a2.554,2.554,0,0,0,1.316-.269,1.764,1.764,0,0,0,.682-.892l.365-.956L55.763-11.623H59.1ZM-80.164,18.288a8.434,8.434,0,0,0-1.117-.086,2.274,2.274,0,0,0-2.31,1.192V27h-3.1V15.377h2.933l.086,1.386a2.877,2.877,0,0,1,2.589-1.6,3.253,3.253,0,0,1,.967.14ZM-75.394,27h-3.115V15.377h3.115Zm-3.3-14.631a1.529,1.529,0,0,1,.467-1.149,1.755,1.755,0,0,1,1.273-.451,1.759,1.759,0,0,1,1.268.451,1.52,1.52,0,0,1,.473,1.149,1.524,1.524,0,0,1-.478,1.16,1.764,1.764,0,0,1-1.262.451,1.764,1.764,0,0,1-1.262-.451A1.524,1.524,0,0,1-78.692,12.369Zm9.571.15v2.857h1.987v2.277h-1.987v5.8a1.385,1.385,0,0,0,.247.924,1.241,1.241,0,0,0,.945.279,4.951,4.951,0,0,0,.913-.075v2.353a6.391,6.391,0,0,1-1.88.279q-3.266,0-3.33-3.3V17.654h-1.7V15.377h1.7V12.52Zm6.628,2.857.1,1.3a4.085,4.085,0,0,1,3.341-1.515,3.1,3.1,0,0,1,3.083,1.772,3.991,3.991,0,0,1,3.491-1.772,3.467,3.467,0,0,1,2.814,1.1,5.061,5.061,0,0,1,.924,3.314V27h-3.115V19.588a2.213,2.213,0,0,0-.387-1.445,1.714,1.714,0,0,0-1.364-.457,1.938,1.938,0,0,0-1.934,1.332L-55.532,27h-3.1V19.6a2.186,2.186,0,0,0-.4-1.461,1.731,1.731,0,0,0-1.354-.451,2.012,2.012,0,0,0-1.912,1.1V27h-3.1V15.377Zm15.651,5.7A6.893,6.893,0,0,1-46.175,18,4.876,4.876,0,0,1-44.258,15.9a5.594,5.594,0,0,1,2.906-.741,5.293,5.293,0,0,1,3.84,1.439,5.777,5.777,0,0,1,1.66,3.91l.021.795A6.075,6.075,0,0,1-37.324,25.6a5.19,5.19,0,0,1-4.007,1.617A5.216,5.216,0,0,1-45.343,25.6a6.182,6.182,0,0,1-1.5-4.383Zm3.1.22a4.345,4.345,0,0,0,.623,2.534,2.055,2.055,0,0,0,1.783.877,2.06,2.06,0,0,0,1.762-.866,4.754,4.754,0,0,0,.634-2.77,4.3,4.3,0,0,0-.634-2.518,2.06,2.06,0,0,0-1.783-.893,2.027,2.027,0,0,0-1.762.888A4.834,4.834,0,0,0-43.737,21.3Zm20.131,3.41a2.036,2.036,0,0,0,1.4-.473,1.656,1.656,0,0,0,.559-1.257h2.911a3.982,3.982,0,0,1-.645,2.165,4.253,4.253,0,0,1-1.735,1.525,5.43,5.43,0,0,1-2.433.542,5.046,5.046,0,0,1-3.932-1.584,6.27,6.27,0,0,1-1.439-4.377v-.2a6.2,6.2,0,0,1,1.429-4.286,4.987,4.987,0,0,1,3.921-1.6,4.889,4.889,0,0,1,3.5,1.241,4.393,4.393,0,0,1,1.337,3.3h-2.911a2.133,2.133,0,0,0-.559-1.474,1.862,1.862,0,0,0-1.418-.567,1.87,1.87,0,0,0-1.638.791,4.583,4.583,0,0,0-.553,2.566v.323a4.641,4.641,0,0,0,.548,2.582A1.893,1.893,0,0,0-23.606,24.712Zm6.155-3.631A6.893,6.893,0,0,1-16.785,18,4.876,4.876,0,0,1-14.867,15.9a5.594,5.594,0,0,1,2.906-.741A5.293,5.293,0,0,1-8.121,16.6a5.777,5.777,0,0,1,1.66,3.91l.021.795A6.075,6.075,0,0,1-7.933,25.6a5.19,5.19,0,0,1-4.007,1.617A5.216,5.216,0,0,1-15.952,25.6a6.182,6.182,0,0,1-1.5-4.383Zm3.1.22a4.345,4.345,0,0,0,.623,2.534,2.055,2.055,0,0,0,1.783.877,2.06,2.06,0,0,0,1.762-.866,4.754,4.754,0,0,0,.634-2.77,4.3,4.3,0,0,0-.634-2.518,2.06,2.06,0,0,0-1.783-.893,2.027,2.027,0,0,0-1.762.888A4.834,4.834,0,0,0-14.346,21.3ZM-1.67,15.377l.1,1.343a4.058,4.058,0,0,1,3.341-1.558,3.372,3.372,0,0,1,2.75,1.085,5.062,5.062,0,0,1,.924,3.244V27h-3.1V19.566a2.014,2.014,0,0,0-.43-1.434,1.924,1.924,0,0,0-1.429-.446A2.136,2.136,0,0,0-1.488,18.8V27h-3.1V15.377ZM11.51,12.52v2.857H13.5v2.277H11.51v5.8a1.385,1.385,0,0,0,.247.924,1.241,1.241,0,0,0,.945.279,4.951,4.951,0,0,0,.913-.075v2.353a6.391,6.391,0,0,1-1.88.279q-3.266,0-3.33-3.3V17.654h-1.7V15.377h1.7V12.52Zm10.248,5.769a8.434,8.434,0,0,0-1.117-.086,2.274,2.274,0,0,0-2.31,1.192V27h-3.1V15.377H18.16l.086,1.386a2.877,2.877,0,0,1,2.589-1.6,3.253,3.253,0,0,1,.967.14Zm.623,2.793A6.893,6.893,0,0,1,23.047,18,4.876,4.876,0,0,1,24.965,15.9a5.594,5.594,0,0,1,2.906-.741,5.293,5.293,0,0,1,3.84,1.439,5.777,5.777,0,0,1,1.66,3.91l.021.795A6.075,6.075,0,0,1,31.9,25.6a5.19,5.19,0,0,1-4.007,1.617A5.216,5.216,0,0,1,23.88,25.6a6.182,6.182,0,0,1-1.5-4.383Zm3.1.22a4.345,4.345,0,0,0,.623,2.534,2.238,2.238,0,0,0,3.545.011,4.754,4.754,0,0,0,.634-2.77,4.3,4.3,0,0,0-.634-2.518,2.06,2.06,0,0,0-1.783-.893,2.027,2.027,0,0,0-1.762.888A4.834,4.834,0,0,0,25.486,21.3ZM38.581,27H35.465V10.5h3.115Zm9.292,0a3.447,3.447,0,0,1-.312-1.042,3.756,3.756,0,0,1-2.933,1.257,4.127,4.127,0,0,1-2.831-.988,3.178,3.178,0,0,1-1.123-2.492,3.285,3.285,0,0,1,1.37-2.836A6.758,6.758,0,0,1,46,19.9h1.429v-.666a1.915,1.915,0,0,0-.414-1.289,1.627,1.627,0,0,0-1.305-.483,1.85,1.85,0,0,0-1.23.376,1.277,1.277,0,0,0-.446,1.031h-3.1A3.118,3.118,0,0,1,41.556,17a4.118,4.118,0,0,1,1.762-1.348,6.42,6.42,0,0,1,2.557-.489,5.073,5.073,0,0,1,3.411,1.08,3.777,3.777,0,0,1,1.262,3.035v5.038a5.557,5.557,0,0,0,.462,2.5V27Zm-2.567-2.159a2.674,2.674,0,0,0,1.268-.306,2.011,2.011,0,0,0,.859-.822v-2h-1.16q-2.331,0-2.481,1.611l-.011.183a1.243,1.243,0,0,0,.408.956A1.586,1.586,0,0,0,45.305,24.841ZM52.449,21.1a7,7,0,0,1,1.219-4.329A3.956,3.956,0,0,1,57,15.162a3.56,3.56,0,0,1,2.8,1.268V10.5h3.115V27h-2.8l-.15-1.235a3.653,3.653,0,0,1-2.986,1.45A3.945,3.945,0,0,1,53.689,25.6,7.23,7.23,0,0,1,52.449,21.1Zm3.1.231a4.588,4.588,0,0,0,.569,2.507,1.855,1.855,0,0,0,1.654.871,2.077,2.077,0,0,0,2.03-1.216V18.9A2.048,2.048,0,0,0,57.8,17.687Q55.553,17.687,55.553,21.334Zm9.292-.253A6.893,6.893,0,0,1,65.511,18,4.876,4.876,0,0,1,67.429,15.9a5.594,5.594,0,0,1,2.906-.741,5.293,5.293,0,0,1,3.84,1.439,5.777,5.777,0,0,1,1.66,3.91l.021.795A6.075,6.075,0,0,1,74.363,25.6a5.787,5.787,0,0,1-8.019.005,6.182,6.182,0,0,1-1.5-4.383Zm3.1.22a4.345,4.345,0,0,0,.623,2.534,2.238,2.238,0,0,0,3.545.011,4.754,4.754,0,0,0,.634-2.77,4.3,4.3,0,0,0-.634-2.518,2.06,2.06,0,0,0-1.783-.893,2.027,2.027,0,0,0-1.762.888A4.834,4.834,0,0,0,67.95,21.3Zm16.113,2.487a1,1,0,0,0-.564-.9,6.406,6.406,0,0,0-1.81-.585q-4.146-.87-4.146-3.523A3.194,3.194,0,0,1,78.826,16.2a5.178,5.178,0,0,1,3.357-1.037,5.573,5.573,0,0,1,3.54,1.042,3.284,3.284,0,0,1,1.327,2.707h-3.1a1.5,1.5,0,0,0-.43-1.1,1.818,1.818,0,0,0-1.343-.435,1.858,1.858,0,0,0-1.214.354,1.119,1.119,0,0,0-.43.9.957.957,0,0,0,.489.833,5.028,5.028,0,0,0,1.649.548,13.468,13.468,0,0,1,1.955.521,3.212,3.212,0,0,1,2.46,3.126,3.032,3.032,0,0,1-1.364,2.573,5.885,5.885,0,0,1-3.523.983,6.147,6.147,0,0,1-2.594-.521,4.353,4.353,0,0,1-1.778-1.429,3.32,3.32,0,0,1-.645-1.96h2.943a1.621,1.621,0,0,0,.612,1.268,2.429,2.429,0,0,0,1.525.44,2.248,2.248,0,0,0,1.348-.338A1.053,1.053,0,0,0,84.063,23.788Z" transform="translate(1178 2809.404)" fill="#fff"/>
    <path id="Trazado_838864" data-name="Trazado 838864" d="M-69.233-3.878l3.545-11.763H-62.1L-67.547,0h-3.362l-5.425-15.641h3.577Zm7.423-2.041A6.893,6.893,0,0,1-61.145-9,4.876,4.876,0,0,1-59.227-11.1a5.594,5.594,0,0,1,2.906-.741,5.293,5.293,0,0,1,3.84,1.439,5.777,5.777,0,0,1,1.66,3.91l.021.795A6.075,6.075,0,0,1-52.293-1.4,5.19,5.19,0,0,1-56.3.215,5.216,5.216,0,0,1-60.312-1.4a6.182,6.182,0,0,1-1.5-4.383Zm3.1.22a4.345,4.345,0,0,0,.623,2.534,2.055,2.055,0,0,0,1.783.877,2.06,2.06,0,0,0,1.762-.866,4.754,4.754,0,0,0,.634-2.77,4.3,4.3,0,0,0-.634-2.518,2.06,2.06,0,0,0-1.783-.893,2.027,2.027,0,0,0-1.762.888A4.834,4.834,0,0,0-58.706-5.7Zm13.213,3.2h5.683V0h-9.646V-1.891l5.468-7.229H-49.3v-2.5h9.313v1.829Zm23.568-3.2a6.971,6.971,0,0,1-1.219,4.3A3.909,3.909,0,0,1-26.437.215,3.621,3.621,0,0,1-29.283-1.01V4.469h-3.1V-11.623h2.879l.107,1.139a3.649,3.649,0,0,1,2.943-1.354,3.936,3.936,0,0,1,3.341,1.59,7.16,7.16,0,0,1,1.192,4.383Zm-3.1-.226a4.574,4.574,0,0,0-.575-2.5,1.872,1.872,0,0,0-1.67-.881A2.033,2.033,0,0,0-29.283-8.2v4.759a2.067,2.067,0,0,0,2.03,1.149Q-25.029-2.288-25.029-5.93Zm11.559-2.782A8.434,8.434,0,0,0-14.588-8.8,2.274,2.274,0,0,0-16.9-7.605V0H-20V-11.623h2.933l.086,1.386a2.877,2.877,0,0,1,2.589-1.6,3.253,3.253,0,0,1,.967.14Zm.623,2.793A6.893,6.893,0,0,1-12.182-9,4.876,4.876,0,0,1-10.264-11.1a5.594,5.594,0,0,1,2.906-.741A5.293,5.293,0,0,1-3.518-10.4a5.777,5.777,0,0,1,1.66,3.91l.021.795A6.075,6.075,0,0,1-3.33-1.4,5.19,5.19,0,0,1-7.337.215,5.216,5.216,0,0,1-11.349-1.4a6.182,6.182,0,0,1-1.5-4.383Zm3.1.22A4.345,4.345,0,0,0-9.12-3.165a2.055,2.055,0,0,0,1.783.877,2.06,2.06,0,0,0,1.762-.866,4.754,4.754,0,0,0,.634-2.77,4.3,4.3,0,0,0-.634-2.518,2.06,2.06,0,0,0-1.783-.893,2.027,2.027,0,0,0-1.762.888A4.834,4.834,0,0,0-9.743-5.7Zm14,1.305L6.4-11.623h3.33L5.06,1.8,4.8,2.417A3.543,3.543,0,0,1,1.364,4.694a4.885,4.885,0,0,1-1.375-.2V2.138l.473.011A2.554,2.554,0,0,0,1.778,1.88,1.764,1.764,0,0,0,2.46.988L2.825.032-1.246-11.623H2.095ZM16.167.215A5.706,5.706,0,0,1,12-1.354,5.575,5.575,0,0,1,10.4-5.532v-.3a7.021,7.021,0,0,1,.677-3.131,4.967,4.967,0,0,1,1.917-2.127,5.382,5.382,0,0,1,2.831-.747,4.824,4.824,0,0,1,3.754,1.5,6.111,6.111,0,0,1,1.37,4.265V-4.8h-7.4a2.884,2.884,0,0,0,.908,1.826,2.744,2.744,0,0,0,1.917.688,3.351,3.351,0,0,0,2.8-1.3L20.7-1.88A4.66,4.66,0,0,1,18.81-.338,6.2,6.2,0,0,1,16.167.215Zm-.354-9.55a1.94,1.94,0,0,0-1.5.626,3.241,3.241,0,0,0-.736,1.791H17.9v-.248a2.311,2.311,0,0,0-.559-1.6A2,2,0,0,0,15.813-9.335Zm11.73,7.047a2.036,2.036,0,0,0,1.4-.473A1.656,1.656,0,0,0,29.5-4.018h2.911a3.982,3.982,0,0,1-.645,2.165A4.253,4.253,0,0,1,30.03-.328,5.43,5.43,0,0,1,27.6.215,5.046,5.046,0,0,1,23.665-1.37a6.27,6.27,0,0,1-1.439-4.377v-.2a6.2,6.2,0,0,1,1.429-4.286,4.987,4.987,0,0,1,3.921-1.6,4.889,4.889,0,0,1,3.5,1.241,4.393,4.393,0,0,1,1.337,3.3H29.5a2.133,2.133,0,0,0-.559-1.474,1.862,1.862,0,0,0-1.418-.567,1.87,1.87,0,0,0-1.638.791,4.583,4.583,0,0,0-.553,2.566v.323a4.641,4.641,0,0,0,.548,2.582A1.893,1.893,0,0,0,27.543-2.288ZM37.9-14.48v2.857h1.987v2.277H37.9v5.8a1.385,1.385,0,0,0,.247.924,1.241,1.241,0,0,0,.945.279A4.951,4.951,0,0,0,40-2.417V-.064a6.391,6.391,0,0,1-1.88.279q-3.266,0-3.33-3.3V-9.346H33.1v-2.277h1.7V-14.48ZM48.351,0a3.447,3.447,0,0,1-.312-1.042A3.756,3.756,0,0,1,45.106.215a4.127,4.127,0,0,1-2.831-.988,3.178,3.178,0,0,1-1.123-2.492A3.285,3.285,0,0,1,42.523-6.1a6.758,6.758,0,0,1,3.958-1H47.91v-.666A1.915,1.915,0,0,0,47.5-9.056a1.627,1.627,0,0,0-1.305-.483,1.85,1.85,0,0,0-1.23.376,1.277,1.277,0,0,0-.446,1.031h-3.1A3.119,3.119,0,0,1,42.034-10,4.118,4.118,0,0,1,43.8-11.349a6.42,6.42,0,0,1,2.557-.489,5.073,5.073,0,0,1,3.411,1.08,3.777,3.777,0,0,1,1.262,3.035v5.038a5.557,5.557,0,0,0,.462,2.5V0ZM45.783-2.159a2.674,2.674,0,0,0,1.268-.306,2.011,2.011,0,0,0,.859-.822v-2H46.75q-2.331,0-2.481,1.611l-.011.183a1.243,1.243,0,0,0,.408.956A1.586,1.586,0,0,0,45.783-2.159ZM52.927-5.9a7,7,0,0,1,1.219-4.329,3.956,3.956,0,0,1,3.335-1.611,3.56,3.56,0,0,1,2.8,1.268V-16.5H63.4V0H60.6l-.15-1.235A3.653,3.653,0,0,1,57.46.215,3.945,3.945,0,0,1,54.167-1.4,7.23,7.23,0,0,1,52.927-5.9Zm3.1.231A4.588,4.588,0,0,0,56.6-3.16a1.855,1.855,0,0,0,1.654.871A2.077,2.077,0,0,0,60.285-3.5V-8.1a2.048,2.048,0,0,0-2.009-1.216Q56.031-9.313,56.031-5.666ZM72.542,0a3.448,3.448,0,0,1-.312-1.042A3.756,3.756,0,0,1,69.3.215a4.127,4.127,0,0,1-2.831-.988,3.178,3.178,0,0,1-1.123-2.492A3.285,3.285,0,0,1,66.714-6.1a6.758,6.758,0,0,1,3.958-1H72.1v-.666a1.915,1.915,0,0,0-.414-1.289,1.627,1.627,0,0,0-1.305-.483,1.85,1.85,0,0,0-1.23.376,1.277,1.277,0,0,0-.446,1.031H65.6A3.118,3.118,0,0,1,66.226-10a4.118,4.118,0,0,1,1.762-1.348,6.42,6.42,0,0,1,2.557-.489,5.073,5.073,0,0,1,3.411,1.08,3.777,3.777,0,0,1,1.262,3.035v5.038a5.557,5.557,0,0,0,.462,2.5V0ZM69.975-2.159a2.674,2.674,0,0,0,1.268-.306,2.011,2.011,0,0,0,.859-.822v-2h-1.16q-2.331,0-2.481,1.611l-.011.183a1.243,1.243,0,0,0,.408.956A1.586,1.586,0,0,0,69.975-2.159ZM-64.088,24.712a2.036,2.036,0,0,0,1.4-.473,1.656,1.656,0,0,0,.559-1.257h2.911a3.982,3.982,0,0,1-.645,2.165A4.253,4.253,0,0,1-61.6,26.672a5.43,5.43,0,0,1-2.433.542,5.046,5.046,0,0,1-3.932-1.584,6.27,6.27,0,0,1-1.439-4.377v-.2a6.2,6.2,0,0,1,1.429-4.286,4.987,4.987,0,0,1,3.921-1.6,4.889,4.889,0,0,1,3.5,1.241,4.393,4.393,0,0,1,1.337,3.3h-2.911a2.133,2.133,0,0,0-.559-1.474,1.862,1.862,0,0,0-1.418-.567,1.87,1.87,0,0,0-1.638.791,4.583,4.583,0,0,0-.553,2.566v.323a4.641,4.641,0,0,0,.548,2.582A1.893,1.893,0,0,0-64.088,24.712Zm6.155-3.631A6.893,6.893,0,0,1-57.267,18,4.876,4.876,0,0,1-55.349,15.9a5.594,5.594,0,0,1,2.906-.741A5.293,5.293,0,0,1-48.6,16.6a5.777,5.777,0,0,1,1.66,3.91l.021.795A6.075,6.075,0,0,1-48.415,25.6a5.19,5.19,0,0,1-4.007,1.617A5.216,5.216,0,0,1-56.434,25.6a6.182,6.182,0,0,1-1.5-4.383Zm3.1.22a4.345,4.345,0,0,0,.623,2.534,2.055,2.055,0,0,0,1.783.877,2.06,2.06,0,0,0,1.762-.866,4.754,4.754,0,0,0,.634-2.77,4.3,4.3,0,0,0-.634-2.518,2.06,2.06,0,0,0-1.783-.893,2.027,2.027,0,0,0-1.762.888A4.834,4.834,0,0,0-54.828,21.3Zm12.676-5.924.1,1.343a4.058,4.058,0,0,1,3.341-1.558,3.372,3.372,0,0,1,2.75,1.085,5.062,5.062,0,0,1,.924,3.244V27h-3.1V19.566a2.014,2.014,0,0,0-.43-1.434A1.924,1.924,0,0,0-40,17.687,2.136,2.136,0,0,0-41.97,18.8V27h-3.1V15.377Zm21.237,8.411a1,1,0,0,0-.564-.9,6.406,6.406,0,0,0-1.81-.585q-4.146-.87-4.146-3.523A3.194,3.194,0,0,1-26.152,16.2a5.178,5.178,0,0,1,3.357-1.037,5.573,5.573,0,0,1,3.54,1.042,3.284,3.284,0,0,1,1.327,2.707h-3.1a1.5,1.5,0,0,0-.43-1.1,1.818,1.818,0,0,0-1.343-.435,1.858,1.858,0,0,0-1.214.354,1.119,1.119,0,0,0-.43.9.957.957,0,0,0,.489.833,5.028,5.028,0,0,0,1.649.548,13.468,13.468,0,0,1,1.955.521,3.212,3.212,0,0,1,2.46,3.126,3.032,3.032,0,0,1-1.364,2.573,5.885,5.885,0,0,1-3.523.983,6.147,6.147,0,0,1-2.594-.521,4.353,4.353,0,0,1-1.778-1.429A3.32,3.32,0,0,1-27.8,23.3h2.943a1.621,1.621,0,0,0,.612,1.268,2.429,2.429,0,0,0,1.525.44,2.248,2.248,0,0,0,1.348-.338A1.053,1.053,0,0,0-20.915,23.788Zm10.366,3.427a5.706,5.706,0,0,1-4.163-1.568,5.575,5.575,0,0,1-1.606-4.179v-.3a7.021,7.021,0,0,1,.677-3.131,4.967,4.967,0,0,1,1.917-2.127,5.382,5.382,0,0,1,2.831-.747,4.824,4.824,0,0,1,3.754,1.5,6.111,6.111,0,0,1,1.37,4.265V22.2h-7.4a2.884,2.884,0,0,0,.908,1.826,2.744,2.744,0,0,0,1.917.688,3.351,3.351,0,0,0,2.8-1.3l1.525,1.708a4.66,4.66,0,0,1-1.891,1.542A6.2,6.2,0,0,1-10.549,27.215Zm-.354-9.55a1.94,1.94,0,0,0-1.5.626,3.241,3.241,0,0,0-.736,1.791h4.318v-.248a2.311,2.311,0,0,0-.559-1.6A2,2,0,0,0-10.9,17.665ZM-4.458,21.1a6.812,6.812,0,0,1,1.273-4.308A4.125,4.125,0,0,1,.247,15.162a3.617,3.617,0,0,1,2.976,1.311l.129-1.1H6.166V26.613a4.968,4.968,0,0,1-.693,2.653,4.45,4.45,0,0,1-1.95,1.719,6.854,6.854,0,0,1-2.943.591,6.373,6.373,0,0,1-2.492-.51A4.423,4.423,0,0,1-3.749,29.75l1.375-1.891a3.637,3.637,0,0,0,2.814,1.3A2.662,2.662,0,0,0,2.363,28.5a2.478,2.478,0,0,0,.688-1.875V26A3.591,3.591,0,0,1,.226,27.215a4.114,4.114,0,0,1-3.389-1.638,6.81,6.81,0,0,1-1.294-4.345Zm3.1.231a4.242,4.242,0,0,0,.634,2.48,2.016,2.016,0,0,0,1.74.9,2.156,2.156,0,0,0,2.03-1.065v-4.9a2.151,2.151,0,0,0-2.009-1.065A2.029,2.029,0,0,0-.714,18.6,4.781,4.781,0,0,0-1.354,21.334Zm16.865,4.485a3.893,3.893,0,0,1-3.18,1.4A3.672,3.672,0,0,1,9.48,26.141a4.586,4.586,0,0,1-1-3.147V15.377h3.1v7.518q0,1.817,1.654,1.817a2.242,2.242,0,0,0,2.17-1.1V15.377H18.52V27H15.6Zm11.881-7.53a8.434,8.434,0,0,0-1.117-.086,2.274,2.274,0,0,0-2.31,1.192V27h-3.1V15.377h2.933l.086,1.386a2.877,2.877,0,0,1,2.589-1.6,3.253,3.253,0,0,1,.967.14ZM32.162,27H29.047V15.377h3.115Zm-3.3-14.631a1.529,1.529,0,0,1,.467-1.149,2.014,2.014,0,0,1,2.541,0,1.64,1.64,0,0,1-.005,2.31,1.991,1.991,0,0,1-2.524,0A1.524,1.524,0,0,1,28.864,12.369ZM34.235,21.1a7,7,0,0,1,1.219-4.329,3.956,3.956,0,0,1,3.335-1.611,3.56,3.56,0,0,1,2.8,1.268V10.5h3.115V27h-2.8l-.15-1.235a3.653,3.653,0,0,1-2.986,1.45A3.945,3.945,0,0,1,35.476,25.6,7.23,7.23,0,0,1,34.235,21.1Zm3.1.231a4.588,4.588,0,0,0,.569,2.507,1.855,1.855,0,0,0,1.654.871,2.077,2.077,0,0,0,2.03-1.216V18.9a2.048,2.048,0,0,0-2.009-1.216Q37.34,17.687,37.34,21.334ZM53.851,27a3.447,3.447,0,0,1-.312-1.042,3.756,3.756,0,0,1-2.933,1.257,4.127,4.127,0,0,1-2.831-.988,3.178,3.178,0,0,1-1.123-2.492,3.285,3.285,0,0,1,1.37-2.836,6.758,6.758,0,0,1,3.958-1H53.41v-.666A1.915,1.915,0,0,0,53,17.944a1.627,1.627,0,0,0-1.305-.483,1.85,1.85,0,0,0-1.23.376,1.277,1.277,0,0,0-.446,1.031h-3.1A3.118,3.118,0,0,1,47.534,17,4.118,4.118,0,0,1,49.3,15.651a6.42,6.42,0,0,1,2.557-.489,5.073,5.073,0,0,1,3.411,1.08,3.777,3.777,0,0,1,1.262,3.035v5.038a5.557,5.557,0,0,0,.462,2.5V27Zm-2.567-2.159a2.674,2.674,0,0,0,1.268-.306,2.011,2.011,0,0,0,.859-.822v-2H52.25q-2.331,0-2.481,1.611l-.011.183a1.243,1.243,0,0,0,.408.956A1.586,1.586,0,0,0,51.283,24.841ZM58.427,21.1a7,7,0,0,1,1.219-4.329,3.956,3.956,0,0,1,3.335-1.611,3.56,3.56,0,0,1,2.8,1.268V10.5H68.9V27H66.1l-.15-1.235a3.653,3.653,0,0,1-2.986,1.45A3.945,3.945,0,0,1,59.667,25.6,7.23,7.23,0,0,1,58.427,21.1Zm3.1.231A4.588,4.588,0,0,0,62.1,23.84a1.855,1.855,0,0,0,1.654.871,2.077,2.077,0,0,0,2.03-1.216V18.9a2.048,2.048,0,0,0-2.009-1.216Q61.531,17.687,61.531,21.334Z" transform="translate(1178 3054.404)" fill="#12263f"/>
    <path id="Trazado_838865" data-name="Trazado 838865" d="M-56.907-6.778h-6.187v4.189h7.262V0H-66.317V-15.641h10.463v2.61h-7.24V-9.3h6.188Zm9.056,3.566a1,1,0,0,0-.564-.9,6.406,6.406,0,0,0-1.81-.585q-4.146-.87-4.146-3.523A3.194,3.194,0,0,1-53.088-10.8a5.178,5.178,0,0,1,3.357-1.037,5.573,5.573,0,0,1,3.54,1.042,3.284,3.284,0,0,1,1.327,2.707h-3.1a1.5,1.5,0,0,0-.43-1.1,1.818,1.818,0,0,0-1.343-.435,1.858,1.858,0,0,0-1.214.354,1.119,1.119,0,0,0-.43.9.957.957,0,0,0,.489.833,5.028,5.028,0,0,0,1.649.548,13.468,13.468,0,0,1,1.955.521,3.212,3.212,0,0,1,2.46,3.126A3.032,3.032,0,0,1-46.2-.768,5.885,5.885,0,0,1-49.72.215a6.147,6.147,0,0,1-2.594-.521,4.353,4.353,0,0,1-1.778-1.429,3.32,3.32,0,0,1-.645-1.96h2.943a1.621,1.621,0,0,0,.612,1.268,2.429,2.429,0,0,0,1.525.44,2.248,2.248,0,0,0,1.348-.338A1.053,1.053,0,0,0-47.851-3.212Zm8.733-11.269v2.857h1.987v2.277h-1.987v5.8a1.385,1.385,0,0,0,.247.924,1.241,1.241,0,0,0,.945.279,4.951,4.951,0,0,0,.913-.075V-.064a6.391,6.391,0,0,1-1.88.279q-3.266,0-3.33-3.3V-9.346h-1.7v-2.277h1.7V-14.48Zm10.678,13.3a3.893,3.893,0,0,1-3.18,1.4A3.672,3.672,0,0,1-34.472-.859a4.586,4.586,0,0,1-1-3.147v-7.616h3.1v7.518q0,1.817,1.654,1.817a2.242,2.242,0,0,0,2.17-1.1v-8.238h3.115V0h-2.922ZM-23.574-5.9a7,7,0,0,1,1.219-4.329,3.956,3.956,0,0,1,3.335-1.611,3.56,3.56,0,0,1,2.8,1.268V-16.5H-13.1V0h-2.8l-.15-1.235A3.653,3.653,0,0,1-19.041.215,3.945,3.945,0,0,1-22.333-1.4,7.23,7.23,0,0,1-23.574-5.9Zm3.1.231A4.588,4.588,0,0,0-19.9-3.16a1.855,1.855,0,0,0,1.654.871A2.077,2.077,0,0,0-16.215-3.5V-8.1a2.048,2.048,0,0,0-2.009-1.216Q-20.469-9.313-20.469-5.666ZM-7.417,0h-3.115V-11.623h3.115Zm-3.3-14.631a1.529,1.529,0,0,1,.467-1.149,1.755,1.755,0,0,1,1.273-.451,1.759,1.759,0,0,1,1.268.451,1.52,1.52,0,0,1,.473,1.149,1.524,1.524,0,0,1-.478,1.16,1.764,1.764,0,0,1-1.262.451,1.764,1.764,0,0,1-1.262-.451A1.524,1.524,0,0,1-10.715-14.631Zm5.371,8.712A6.893,6.893,0,0,1-4.678-9,4.876,4.876,0,0,1-2.761-11.1a5.594,5.594,0,0,1,2.906-.741A5.293,5.293,0,0,1,3.985-10.4a5.777,5.777,0,0,1,1.66,3.91l.021.795A6.075,6.075,0,0,1,4.173-1.4,5.19,5.19,0,0,1,.167.215,5.216,5.216,0,0,1-3.846-1.4a6.182,6.182,0,0,1-1.5-4.383Zm3.1.22a4.345,4.345,0,0,0,.623,2.534,2.055,2.055,0,0,0,1.783.877,2.06,2.06,0,0,0,1.762-.866,4.754,4.754,0,0,0,.634-2.77,4.3,4.3,0,0,0-.634-2.518A2.06,2.06,0,0,0,.145-9.335a2.027,2.027,0,0,0-1.762.888A4.834,4.834,0,0,0-2.24-5.7ZM19.352-3.212a1,1,0,0,0-.564-.9,6.406,6.406,0,0,0-1.81-.585q-4.146-.87-4.146-3.523A3.194,3.194,0,0,1,14.115-10.8a5.178,5.178,0,0,1,3.357-1.037,5.573,5.573,0,0,1,3.54,1.042,3.284,3.284,0,0,1,1.327,2.707h-3.1a1.5,1.5,0,0,0-.43-1.1,1.818,1.818,0,0,0-1.343-.435,1.858,1.858,0,0,0-1.214.354,1.119,1.119,0,0,0-.43.9.957.957,0,0,0,.489.833,5.028,5.028,0,0,0,1.649.548,13.468,13.468,0,0,1,1.955.521,3.212,3.212,0,0,1,2.46,3.126A3.032,3.032,0,0,1,21.006-.768a5.885,5.885,0,0,1-3.523.983,6.147,6.147,0,0,1-2.594-.521,4.353,4.353,0,0,1-1.778-1.429,3.32,3.32,0,0,1-.645-1.96H15.41a1.621,1.621,0,0,0,.612,1.268,2.429,2.429,0,0,0,1.525.44A2.248,2.248,0,0,0,18.9-2.326,1.053,1.053,0,0,0,19.352-3.212Zm4.533-2.707A6.893,6.893,0,0,1,24.551-9,4.876,4.876,0,0,1,26.469-11.1a5.594,5.594,0,0,1,2.906-.741,5.293,5.293,0,0,1,3.84,1.439,5.777,5.777,0,0,1,1.66,3.91l.021.795A6.075,6.075,0,0,1,33.4-1.4,5.19,5.19,0,0,1,29.4.215,5.216,5.216,0,0,1,25.384-1.4a6.182,6.182,0,0,1-1.5-4.383Zm3.1.22a4.345,4.345,0,0,0,.623,2.534,2.055,2.055,0,0,0,1.783.877,2.06,2.06,0,0,0,1.762-.866,4.754,4.754,0,0,0,.634-2.77,4.3,4.3,0,0,0-.634-2.518,2.06,2.06,0,0,0-1.783-.893,2.027,2.027,0,0,0-1.762.888A4.834,4.834,0,0,0,26.99-5.7ZM47.282-5.7a7.038,7.038,0,0,1-1.192,4.356A3.95,3.95,0,0,1,42.759.215a3.629,3.629,0,0,1-3.019-1.45L39.6,0H36.808V-16.5h3.1v5.919a3.536,3.536,0,0,1,2.825-1.257,3.982,3.982,0,0,1,3.335,1.563,7.048,7.048,0,0,1,1.208,4.4Zm-3.1-.226A4.624,4.624,0,0,0,43.619-8.5a1.889,1.889,0,0,0-1.665-.811A2.048,2.048,0,0,0,39.913-8.1v4.587a2.076,2.076,0,0,0,2.063,1.225,1.917,1.917,0,0,0,1.977-1.482A7.647,7.647,0,0,0,44.177-5.93ZM55.725-8.712A8.434,8.434,0,0,0,54.608-8.8,2.274,2.274,0,0,0,52.3-7.605V0h-3.1V-11.623h2.933l.086,1.386a2.877,2.877,0,0,1,2.589-1.6,3.253,3.253,0,0,1,.967.14ZM62.364.215A5.706,5.706,0,0,1,58.2-1.354,5.575,5.575,0,0,1,56.6-5.532v-.3a7.021,7.021,0,0,1,.677-3.131,4.967,4.967,0,0,1,1.917-2.127,5.382,5.382,0,0,1,2.831-.747,4.824,4.824,0,0,1,3.754,1.5,6.111,6.111,0,0,1,1.37,4.265V-4.8h-7.4a2.884,2.884,0,0,0,.908,1.826,2.744,2.744,0,0,0,1.917.688,3.351,3.351,0,0,0,2.8-1.3L66.9-1.88A4.66,4.66,0,0,1,65.006-.338,6.2,6.2,0,0,1,62.364.215Zm-.354-9.55a1.94,1.94,0,0,0-1.5.626,3.241,3.241,0,0,0-.736,1.791h4.318v-.248a2.311,2.311,0,0,0-.559-1.6A2,2,0,0,0,62.009-9.335Zm-92.152,36.55a5.706,5.706,0,0,1-4.163-1.568,5.575,5.575,0,0,1-1.606-4.179v-.3a7.021,7.021,0,0,1,.677-3.131,4.967,4.967,0,0,1,1.917-2.127,5.382,5.382,0,0,1,2.831-.747,4.824,4.824,0,0,1,3.754,1.5,6.111,6.111,0,0,1,1.37,4.265V22.2h-7.4a2.884,2.884,0,0,0,.908,1.826,2.744,2.744,0,0,0,1.917.688,3.351,3.351,0,0,0,2.8-1.3l1.525,1.708A4.66,4.66,0,0,1-27.5,26.662,6.2,6.2,0,0,1-30.143,27.215Zm-.354-9.55a1.94,1.94,0,0,0-1.5.626,3.241,3.241,0,0,0-.736,1.791h4.318v-.248a2.311,2.311,0,0,0-.559-1.6A2,2,0,0,0-30.5,17.665ZM-20.324,27h-3.115V10.5h3.115ZM-8.572,12.52v2.857h1.987v2.277H-8.572v5.8a1.385,1.385,0,0,0,.247.924,1.241,1.241,0,0,0,.945.279,4.951,4.951,0,0,0,.913-.075v2.353a6.391,6.391,0,0,1-1.88.279q-3.266,0-3.33-3.3V17.654h-1.7V15.377h1.7V12.52Zm9.066,14.7a5.706,5.706,0,0,1-4.163-1.568,5.575,5.575,0,0,1-1.606-4.179v-.3A7.021,7.021,0,0,1-4.6,18.036,4.967,4.967,0,0,1-2.68,15.909,5.382,5.382,0,0,1,.15,15.162a4.824,4.824,0,0,1,3.754,1.5,6.111,6.111,0,0,1,1.37,4.265V22.2h-7.4a2.884,2.884,0,0,0,.908,1.826A2.744,2.744,0,0,0,.7,24.712a3.351,3.351,0,0,0,2.8-1.3L5.027,25.12a4.66,4.66,0,0,1-1.891,1.542A6.2,6.2,0,0,1,.494,27.215ZM.14,17.665a1.94,1.94,0,0,0-1.5.626,3.241,3.241,0,0,0-.736,1.791H2.224v-.248a2.311,2.311,0,0,0-.559-1.6A2,2,0,0,0,.14,17.665Zm9.808-2.288.1,1.3a4.085,4.085,0,0,1,3.341-1.515,3.1,3.1,0,0,1,3.083,1.772,3.991,3.991,0,0,1,3.491-1.772,3.467,3.467,0,0,1,2.814,1.1,5.061,5.061,0,0,1,.924,3.314V27H20.582V19.588a2.213,2.213,0,0,0-.387-1.445,1.714,1.714,0,0,0-1.364-.457A1.938,1.938,0,0,0,16.9,19.019L16.908,27H13.8V19.6a2.186,2.186,0,0,0-.4-1.461,1.731,1.731,0,0,0-1.354-.451,2.012,2.012,0,0,0-1.912,1.1V27h-3.1V15.377ZM32.817,27a3.447,3.447,0,0,1-.312-1.042,3.756,3.756,0,0,1-2.933,1.257,4.127,4.127,0,0,1-2.831-.988,3.178,3.178,0,0,1-1.123-2.492A3.285,3.285,0,0,1,26.99,20.9a6.758,6.758,0,0,1,3.958-1h1.429v-.666a1.915,1.915,0,0,0-.414-1.289,1.627,1.627,0,0,0-1.305-.483,1.85,1.85,0,0,0-1.23.376,1.277,1.277,0,0,0-.446,1.031h-3.1A3.118,3.118,0,0,1,26.5,17a4.118,4.118,0,0,1,1.762-1.348,6.42,6.42,0,0,1,2.557-.489,5.073,5.073,0,0,1,3.411,1.08,3.777,3.777,0,0,1,1.262,3.035v5.038a5.557,5.557,0,0,0,.462,2.5V27ZM30.25,24.841a2.674,2.674,0,0,0,1.268-.306,2.011,2.011,0,0,0,.859-.822v-2h-1.16q-2.331,0-2.481,1.611l-.011.183a1.243,1.243,0,0,0,.408.956A1.586,1.586,0,0,0,30.25,24.841Z" transform="translate(800 2809.404)" fill="#12263f"/>
    <path id="Trazado_838866" data-name="Trazado 838866" d="M-36.228-5.511V0h-3.223V-15.641h6.1a7.059,7.059,0,0,1,3.1.645,4.75,4.75,0,0,1,2.057,1.832,5.107,5.107,0,0,1,.72,2.7,4.491,4.491,0,0,1-1.574,3.625A6.555,6.555,0,0,1-33.4-5.511Zm0-2.61h2.879a2.831,2.831,0,0,0,1.95-.6,2.188,2.188,0,0,0,.671-1.719A2.58,2.58,0,0,0-31.4-12.3a2.528,2.528,0,0,0-1.869-.73h-2.954Zm17.295-.591A8.434,8.434,0,0,0-20.05-8.8a2.274,2.274,0,0,0-2.31,1.192V0h-3.1V-11.623h2.933l.086,1.386a2.877,2.877,0,0,1,2.589-1.6,3.253,3.253,0,0,1,.967.14ZM-11.027,0a3.447,3.447,0,0,1-.312-1.042A3.756,3.756,0,0,1-14.271.215,4.127,4.127,0,0,1-17.1-.773a3.178,3.178,0,0,1-1.123-2.492A3.285,3.285,0,0,1-16.854-6.1a6.758,6.758,0,0,1,3.958-1h1.429v-.666a1.915,1.915,0,0,0-.414-1.289,1.627,1.627,0,0,0-1.305-.483,1.85,1.85,0,0,0-1.23.376,1.277,1.277,0,0,0-.446,1.031h-3.1A3.118,3.118,0,0,1-17.343-10a4.118,4.118,0,0,1,1.762-1.348,6.42,6.42,0,0,1,2.557-.489,5.073,5.073,0,0,1,3.411,1.08A3.777,3.777,0,0,1-8.352-7.724v5.038a5.557,5.557,0,0,0,.462,2.5V0Zm-2.567-2.159a2.674,2.674,0,0,0,1.268-.306,2.011,2.011,0,0,0,.859-.822v-2h-1.16q-2.331,0-2.481,1.611l-.011.183a1.243,1.243,0,0,0,.408.956A1.586,1.586,0,0,0-13.594-2.159ZM-12.413-16.5h3.384L-12-13.17h-2.524ZM-1.133-2.288a2.036,2.036,0,0,0,1.4-.473A1.656,1.656,0,0,0,.822-4.018H3.733a3.982,3.982,0,0,1-.645,2.165A4.253,4.253,0,0,1,1.354-.328,5.43,5.43,0,0,1-1.08.215,5.046,5.046,0,0,1-5.011-1.37,6.27,6.27,0,0,1-6.451-5.747v-.2a6.2,6.2,0,0,1,1.429-4.286,4.987,4.987,0,0,1,3.921-1.6A4.889,4.889,0,0,1,2.4-10.6a4.393,4.393,0,0,1,1.337,3.3H.822A2.133,2.133,0,0,0,.263-8.768a1.862,1.862,0,0,0-1.418-.567,1.87,1.87,0,0,0-1.638.791,4.583,4.583,0,0,0-.553,2.566v.323A4.641,4.641,0,0,0-2.8-3.073,1.893,1.893,0,0,0-1.133-2.288ZM9.222-14.48v2.857h1.987v2.277H9.222v5.8a1.385,1.385,0,0,0,.247.924,1.241,1.241,0,0,0,.945.279,4.951,4.951,0,0,0,.913-.075V-.064a6.391,6.391,0,0,1-1.88.279q-3.266,0-3.33-3.3V-9.346H4.42v-2.277h1.7V-14.48ZM16.215,0H13.1V-11.623h3.115Zm-3.3-14.631a1.529,1.529,0,0,1,.467-1.149,1.755,1.755,0,0,1,1.273-.451,1.759,1.759,0,0,1,1.268.451,1.52,1.52,0,0,1,.473,1.149,1.524,1.524,0,0,1-.478,1.16,1.764,1.764,0,0,1-1.262.451,1.764,1.764,0,0,1-1.262-.451A1.524,1.524,0,0,1,12.917-14.631ZM23.606-2.288A2.036,2.036,0,0,0,25-2.761a1.656,1.656,0,0,0,.559-1.257h2.911a3.982,3.982,0,0,1-.645,2.165A4.253,4.253,0,0,1,26.093-.328,5.43,5.43,0,0,1,23.66.215,5.046,5.046,0,0,1,19.728-1.37a6.27,6.27,0,0,1-1.439-4.377v-.2a6.2,6.2,0,0,1,1.429-4.286,4.987,4.987,0,0,1,3.921-1.6,4.889,4.889,0,0,1,3.5,1.241,4.393,4.393,0,0,1,1.337,3.3H25.561A2.133,2.133,0,0,0,25-8.768a1.862,1.862,0,0,0-1.418-.567,1.87,1.87,0,0,0-1.638.791,4.583,4.583,0,0,0-.553,2.566v.323a4.641,4.641,0,0,0,.548,2.582A1.893,1.893,0,0,0,23.606-2.288ZM36.98,0a3.447,3.447,0,0,1-.312-1.042A3.756,3.756,0,0,1,33.736.215a4.127,4.127,0,0,1-2.831-.988,3.178,3.178,0,0,1-1.123-2.492A3.285,3.285,0,0,1,31.152-6.1a6.758,6.758,0,0,1,3.958-1H36.54v-.666a1.915,1.915,0,0,0-.414-1.289,1.627,1.627,0,0,0-1.305-.483,1.85,1.85,0,0,0-1.23.376,1.277,1.277,0,0,0-.446,1.031h-3.1A3.118,3.118,0,0,1,30.664-10a4.118,4.118,0,0,1,1.762-1.348,6.42,6.42,0,0,1,2.557-.489,5.073,5.073,0,0,1,3.411,1.08,3.777,3.777,0,0,1,1.262,3.035v5.038a5.557,5.557,0,0,0,.462,2.5V0ZM34.413-2.159a2.674,2.674,0,0,0,1.268-.306,2.011,2.011,0,0,0,.859-.822v-2h-1.16q-2.331,0-2.481,1.611l-.011.183a1.243,1.243,0,0,0,.408.956A1.586,1.586,0,0,0,34.413-2.159ZM-59.641,21.1a7,7,0,0,1,1.219-4.329,3.956,3.956,0,0,1,3.335-1.611,3.56,3.56,0,0,1,2.8,1.268V10.5h3.115V27h-2.8l-.15-1.235a3.653,3.653,0,0,1-2.986,1.45A3.945,3.945,0,0,1-58.4,25.6,7.23,7.23,0,0,1-59.641,21.1Zm3.1.231a4.588,4.588,0,0,0,.569,2.507,1.855,1.855,0,0,0,1.654.871,2.077,2.077,0,0,0,2.03-1.216V18.9a2.048,2.048,0,0,0-2.009-1.216Q-56.536,17.687-56.536,21.334Zm15.125,5.881a5.706,5.706,0,0,1-4.163-1.568,5.575,5.575,0,0,1-1.606-4.179v-.3a7.021,7.021,0,0,1,.677-3.131,4.967,4.967,0,0,1,1.917-2.127,5.382,5.382,0,0,1,2.831-.747A4.824,4.824,0,0,1-38,16.666a6.111,6.111,0,0,1,1.37,4.265V22.2h-7.4a2.884,2.884,0,0,0,.908,1.826,2.744,2.744,0,0,0,1.917.688,3.351,3.351,0,0,0,2.8-1.3l1.525,1.708a4.66,4.66,0,0,1-1.891,1.542A6.2,6.2,0,0,1-41.411,27.215Zm-.354-9.55a1.94,1.94,0,0,0-1.5.626A3.241,3.241,0,0,0-44,20.082h4.318v-.248a2.311,2.311,0,0,0-.559-1.6A2,2,0,0,0-41.766,17.665ZM-31.593,27h-3.115V10.5h3.115Zm7.552-5.9a7,7,0,0,1,1.219-4.329,3.956,3.956,0,0,1,3.335-1.611,3.56,3.56,0,0,1,2.8,1.268V10.5h3.115V27h-2.8l-.15-1.235a3.653,3.653,0,0,1-2.986,1.45A3.945,3.945,0,0,1-22.8,25.6,7.23,7.23,0,0,1-24.041,21.1Zm3.1.231a4.588,4.588,0,0,0,.569,2.507,1.855,1.855,0,0,0,1.654.871,2.077,2.077,0,0,0,2.03-1.216V18.9a2.048,2.048,0,0,0-2.009-1.216Q-20.937,17.687-20.937,21.334ZM-7.885,27H-11V15.377h3.115Zm-3.3-14.631a1.529,1.529,0,0,1,.467-1.149,1.755,1.755,0,0,1,1.273-.451,1.759,1.759,0,0,1,1.268.451A1.52,1.52,0,0,1-7.7,12.369a1.524,1.524,0,0,1-.478,1.16,1.764,1.764,0,0,1-1.262.451,1.764,1.764,0,0,1-1.262-.451A1.524,1.524,0,0,1-11.183,12.369ZM.967,23.788a1,1,0,0,0-.564-.9,6.406,6.406,0,0,0-1.81-.585q-4.146-.87-4.146-3.523A3.194,3.194,0,0,1-4.27,16.2,5.178,5.178,0,0,1-.913,15.162,5.573,5.573,0,0,1,2.626,16.2a3.284,3.284,0,0,1,1.327,2.707H.849a1.5,1.5,0,0,0-.43-1.1,1.818,1.818,0,0,0-1.343-.435,1.858,1.858,0,0,0-1.214.354,1.119,1.119,0,0,0-.43.9.957.957,0,0,0,.489.833,5.028,5.028,0,0,0,1.649.548,13.468,13.468,0,0,1,1.955.521,3.212,3.212,0,0,1,2.46,3.126,3.032,3.032,0,0,1-1.364,2.573A5.885,5.885,0,0,1-.9,27.215,6.147,6.147,0,0,1-3.5,26.694a4.353,4.353,0,0,1-1.778-1.429,3.32,3.32,0,0,1-.645-1.96h2.943a1.621,1.621,0,0,0,.612,1.268,2.429,2.429,0,0,0,1.525.44A2.248,2.248,0,0,0,.51,24.674,1.053,1.053,0,0,0,.967,23.788Zm9.851.924a2.036,2.036,0,0,0,1.4-.473,1.656,1.656,0,0,0,.559-1.257h2.911a3.982,3.982,0,0,1-.645,2.165A4.253,4.253,0,0,1,13.3,26.672a5.43,5.43,0,0,1-2.433.542A5.046,5.046,0,0,1,6.939,25.63,6.27,6.27,0,0,1,5.5,21.253v-.2a6.2,6.2,0,0,1,1.429-4.286,4.987,4.987,0,0,1,3.921-1.6,4.889,4.889,0,0,1,3.5,1.241,4.393,4.393,0,0,1,1.337,3.3H12.772a2.133,2.133,0,0,0-.559-1.474,1.862,1.862,0,0,0-1.418-.567,1.87,1.87,0,0,0-1.638.791A4.583,4.583,0,0,0,8.6,21.022v.323a4.641,4.641,0,0,0,.548,2.582A1.893,1.893,0,0,0,10.817,24.712Zm13.6,1.106a3.893,3.893,0,0,1-3.18,1.4,3.672,3.672,0,0,1-2.852-1.074,4.586,4.586,0,0,1-1-3.147V15.377h3.1v7.518q0,1.817,1.654,1.817a2.242,2.242,0,0,0,2.17-1.1V15.377h3.115V27H24.5ZM36.3,18.288a8.434,8.434,0,0,0-1.117-.086,2.274,2.274,0,0,0-2.31,1.192V27h-3.1V15.377H32.7l.086,1.386a2.877,2.877,0,0,1,2.589-1.6,3.253,3.253,0,0,1,.967.14Zm7.788,5.5a1,1,0,0,0-.564-.9,6.406,6.406,0,0,0-1.81-.585q-4.146-.87-4.146-3.523A3.194,3.194,0,0,1,38.849,16.2a5.178,5.178,0,0,1,3.357-1.037,5.573,5.573,0,0,1,3.54,1.042,3.284,3.284,0,0,1,1.327,2.707h-3.1a1.5,1.5,0,0,0-.43-1.1,1.818,1.818,0,0,0-1.343-.435,1.858,1.858,0,0,0-1.214.354,1.119,1.119,0,0,0-.43.9.957.957,0,0,0,.489.833,5.028,5.028,0,0,0,1.649.548,13.468,13.468,0,0,1,1.955.521,3.212,3.212,0,0,1,2.46,3.126,3.032,3.032,0,0,1-1.364,2.573,5.885,5.885,0,0,1-3.523.983,6.147,6.147,0,0,1-2.594-.521,4.353,4.353,0,0,1-1.778-1.429A3.32,3.32,0,0,1,37.2,23.3h2.943a1.621,1.621,0,0,0,.612,1.268,2.429,2.429,0,0,0,1.525.44,2.248,2.248,0,0,0,1.348-.338A1.053,1.053,0,0,0,44.086,23.788Zm4.533-2.707A6.893,6.893,0,0,1,49.285,18,4.876,4.876,0,0,1,51.2,15.9a5.594,5.594,0,0,1,2.906-.741,5.293,5.293,0,0,1,3.84,1.439,5.777,5.777,0,0,1,1.66,3.91l.021.795A6.075,6.075,0,0,1,58.137,25.6a5.787,5.787,0,0,1-8.019.005,6.182,6.182,0,0,1-1.5-4.383Zm3.1.22a4.345,4.345,0,0,0,.623,2.534,2.238,2.238,0,0,0,3.545.011,4.754,4.754,0,0,0,.634-2.77,4.3,4.3,0,0,0-.634-2.518,2.06,2.06,0,0,0-1.783-.893,2.027,2.027,0,0,0-1.762.888A4.834,4.834,0,0,0,51.724,21.3Z" transform="translate(800 3054.404)" fill="#fff"/>
  </g>
</svg>
