<svg xmlns="http://www.w3.org/2000/svg" width="94.706" height="94.555" viewBox="0 0 94.706 94.555">
  <g id="sj1zhn.tif" transform="translate(941.767 2.86)">
    <g id="Grupo_155560" data-name="Grupo 155560" transform="translate(-941.767 -2.86)">
      <path id="Trazado_197563" data-name="Trazado 197563" d="M-941.767,1.015q9.6.005,19.191.018c.458,0,.6-.146.593-.6-.026-1.08-.008-2.16-.008-3.3h27.551V1h19.7c.021.262.053.467.053.673q0,14.31,0,28.62c0,1.681-1.213,2.6-2.692,2.068a1.627,1.627,0,0,1-1.136-1.3,6.266,6.266,0,0,1-.083-1.1q-.006-12.1,0-24.2V4.946h-15.767V8.875h11.782V9.6q0,24.132,0,48.263c0,1.687-1.181,2.607-2.669,2.09a1.681,1.681,0,0,1-1.188-1.482,8.047,8.047,0,0,1-.024-.974q0-21.855,0-43.71c0-1.1.11-.989-.961-.99q-16.816,0-33.631,0h-.927V4.936H-937.8V87.664h47.358v-.8c0-4.532-.012-9.063,0-13.594a9.89,9.89,0,0,1,6.7-9.492q3.33-1.2,6.663-2.386c.672-.241,1.356-.457,2.007-.747.2-.087.3-.385.442-.588.01-.014,0-.043,0-.064a2.921,2.921,0,0,0-1.082-2.813,8.278,8.278,0,0,1-2.8-6.033,36.638,36.638,0,0,1,.16-6.739A9.512,9.512,0,0,1-868.4,36.5a9.7,9.7,0,0,1,9.488,9.888c0,1.732.037,3.474-.122,5.195a8.955,8.955,0,0,1-3.295,6.14,1.255,1.255,0,0,0-.522,1.161c.05.6-.153,1.344.134,1.769.266.393,1.029.457,1.58.649q3.74,1.3,7.484,2.595a9.8,9.8,0,0,1,6.584,9.227q.012,8.2,0,16.391a1.818,1.818,0,0,1-1.638,2.053,1.834,1.834,0,0,1-2.239-2.018c-.009-4.445,0-8.889-.008-13.334a30.781,30.781,0,0,0-.11-3.959,5.639,5.639,0,0,0-3.971-4.853q-5.459-1.895-10.952-3.69c-.585-.193-.84-.436-.793-1.082.063-.878.016-1.763.016-2.63h-3.986c0,.848-.038,1.751.014,2.649a.887.887,0,0,1-.719,1.058c-3.7,1.274-7.392,2.6-11.084,3.9a5.755,5.755,0,0,0-3.979,5.524q-.029,8.13.023,16.261a2.188,2.188,0,0,1-1.667,2.3h-.781a9.122,9.122,0,0,0-.951-.1q-25.452-.007-50.9-.005c-.324,0-.649-.018-.973-.027Zm67.04,47.23.063,0c0,.823-.034,1.649.006,2.47a5.813,5.813,0,0,0,5.586,5.471,5.76,5.76,0,0,0,6.169-5.021,35.645,35.645,0,0,0,.089-5.127A5.777,5.777,0,0,0-868.1,40.41a5.786,5.786,0,0,0-6.467,4.727A22.473,22.473,0,0,0-874.727,48.245Zm-43.35-39.4c.181.017.288.035.4.035q9.39,0,18.781.013c.519,0,.6-.209.6-.657-.029-2.23-.032-4.46-.048-6.69,0-.169-.032-.338-.05-.519h-19.676Z" transform="translate(941.767 2.86)" fill="#12263f"/>
      <path id="Trazado_197564" data-name="Trazado 197564" d="M-941.767,721.933c.324.01.649.027.973.027q25.452,0,50.9.005a9.1,9.1,0,0,1,.951.1q-26.122,0-52.244-.005A2.818,2.818,0,0,1-941.767,721.933Z" transform="translate(941.767 -627.508)" fill="#12263f"/>
      <path id="Trazado_197565" data-name="Trazado 197565" d="M-880.521,87.651h7.715v3.837h-3.833v67.066H-841.2v3.861h-39.325Z" transform="translate(888.5 -75.859)" fill="#12263f"/>
      <path id="Trazado_197566" data-name="Trazado 197566" d="M-775.422,189.652c-.048-7.727,7.178-12.538,13.213-11.694.343.048.69.078,1.027.152a1.964,1.964,0,0,1,1.55,2.281,1.743,1.743,0,0,1-2,1.593,11.063,11.063,0,0,0-3.869.113,7.837,7.837,0,0,0-5.9,7.761,7.918,7.918,0,0,0,6.6,7.6,7.969,7.969,0,0,0,8.962-6.058,2.024,2.024,0,0,1,1.729-1.7,1.917,1.917,0,0,1,2.121,2.446,14.524,14.524,0,0,1-1.515,3.7,11.907,11.907,0,0,1-12.168,5.5,11.842,11.842,0,0,1-9.48-9.378C-775.31,191.212-775.336,190.426-775.422,189.652Z" transform="translate(797.093 -154.318)" fill="#12263f"/>
      <path id="Trazado_197567" data-name="Trazado 197567" d="M-775.3,402.005a11.859,11.859,0,0,1,10.842-11.687,17.1,17.1,0,0,1,3.36.14,1.884,1.884,0,0,1,1.58,2.182,1.868,1.868,0,0,1-1.978,1.674,12.062,12.062,0,0,0-3.873.118,7.77,7.77,0,0,0-5.934,7.723,7.942,7.942,0,0,0,6.629,7.654,7.977,7.977,0,0,0,8.922-6.037,2.113,2.113,0,0,1,1.1-1.52,1.845,1.845,0,0,1,1.973.107,1.717,1.717,0,0,1,.841,1.841,14.488,14.488,0,0,1-1.113,3.367,11.929,11.929,0,0,1-12.594,6.111,11.766,11.766,0,0,1-9.578-9.865C-775.216,403.215-775.245,402.608-775.3,402.005Z" transform="translate(796.989 -339.066)" fill="#12263f"/>
      <path id="Trazado_197568" data-name="Trazado 197568" d="M-718.524,193.483l10.458-10.513,2.678,2.685-12.954,12.987-5.16-5.2,2.564-2.584Z" transform="translate(751.936 -158.76)" fill="#12263f"/>
      <path id="Trazado_197569" data-name="Trazado 197569" d="M-708.118,394.431l2.648,2.645-13.058,13.1-5.1-5.151,2.642-2.649,2.392,2.584Z" transform="translate(752.046 -342.672)" fill="#12263f"/>
      <path id="Trazado_197570" data-name="Trazado 197570" d="M-483.284,609.486c0,1.95.013,3.9,0,5.851a1.9,1.9,0,0,1-2.62,1.882,1.756,1.756,0,0,1-1.246-1.723q-.025-6.013,0-12.026a1.812,1.812,0,0,1,1.923-1.859,1.806,1.806,0,0,1,1.94,1.895c.02,1.993.006,3.987.006,5.981Z" transform="translate(546.393 -522.86)" fill="#12263f"/>
      <path id="Trazado_197571" data-name="Trazado 197571" d="M-301.513,609.481c0,1.929.008,3.857,0,5.786a1.847,1.847,0,0,1-2.3,2.014,1.758,1.758,0,0,1-1.571-1.845q-.023-5.981,0-11.961a1.813,1.813,0,0,1,1.919-1.864,1.806,1.806,0,0,1,1.944,1.89c.021,1.993.006,3.987.006,5.981Z" transform="translate(388.304 -522.86)" fill="#12263f"/>
    </g>
  </g>
</svg>
