<svg xmlns="http://www.w3.org/2000/svg" width="79.862" height="100.64" viewBox="0 0 79.862 100.64">
  <g id="OFjhNE" transform="translate(-4262.865 -4216.879)">
    <g id="Grupo_155273" data-name="Grupo 155273" transform="translate(4262.865 4216.879)">
      <path id="Trazado_197098" data-name="Trazado 197098" d="M4297.9,4314.839h-1.4c-7.923,0-15.846.012-23.769,0a9.479,9.479,0,0,1-9.523-7.144,9.98,9.98,0,0,1-.305-2.417q-.031-13.926-.013-27.851c0-.241-.071-.549.048-.708.192-.257.516-.572.783-.57a1.1,1.1,0,0,1,.75.59,2.363,2.363,0,0,1,.057.983c0,9.1-.01,18.2.012,27.306a7.811,7.811,0,0,0,4.132,7.17,7.911,7.911,0,0,0,11.68-6.492c.019-.483.01-.968.01-1.452q0-28.168,0-56.337v-1.15h-15.835v1.269q0,11.974,0,23.95c0,.633.2,1.507-.794,1.517-.97.009-.84-.832-.84-1.49q0-12.746,0-25.492c0-1.4.125-1.526,1.569-1.526h15.836c.055-.757.1-1.44.157-2.122a9.549,9.549,0,0,1,3.209-6.309,1.893,1.893,0,0,0,.541-1.222c.049-2.751.006-5.5.05-8.255a3.631,3.631,0,0,1,.417-1.62c1.418-2.6,2.884-5.17,4.348-7.743.648-1.138,1.294-1.12,1.946.034,1.456,2.578,2.926,5.148,4.346,7.746a3.463,3.463,0,0,1,.388,1.535c.043,2.025.017,4.052.017,6.078v1.073c.472.021.852.054,1.232.054q17.963,0,35.924,0a9.454,9.454,0,0,1,9.846,9.726q.038,36.106.01,72.213c0,1.235-.119,1.335-1.471,1.335q-20.91,0-41.821,0c-1.481,0-1.532-.054-1.53-1.538C4297.9,4315.651,4297.9,4315.322,4297.9,4314.839Zm-1.941-76.147-.249.075v1.076q0,19.915,0,39.83c0,1.244-.12,1.367-1.337,1.369q-4.219.007-8.437,0c-1.685,0-1.71-.024-1.71-1.743q0-19.779,0-39.558v-1.216a5.431,5.431,0,0,0-.438.382,5.929,5.929,0,0,0-.384.505,8.729,8.729,0,0,0-1.361,5.076q.031,30.259.017,60.517a9.6,9.6,0,0,1-3.492,7.651,1.661,1.661,0,0,1-.5.194l.218.261h19.571c.019-.356.046-.652.047-.949,0-2.3-.031-4.6.018-6.9.017-.789-.2-1.041-1.011-1.03-3.447.043-6.9.021-10.343.017-1.113,0-1.318-.2-1.32-1.324q-.01-5.717,0-11.432c0-1.09.252-1.339,1.329-1.339q23.589,0,47.179,0c1.207,0,1.351.146,1.353,1.369q.007,5.534,0,11.069c0,1.657,0,1.659-1.683,1.659-10.918,0-21.835.013-32.753-.022-.938,0-1.168.267-1.154,1.171.053,3.175.041,6.351.005,9.526-.008.758.237.968.985.967q19.824-.031,39.648,0c.782,0,.95-.268.949-.992q-.024-35.43-.021-70.86a7.92,7.92,0,0,0-8.149-8.145q-18.146-.031-36.292,0c-.271,0-.543.04-.917.069a2.458,2.458,0,0,0,.253.356,10.052,10.052,0,0,1,3.579,8.25c-.049,14.124-.02,28.247-.021,42.371,0,.272.079.609-.051.8a1.374,1.374,0,0,1-.82.628c-.231.018-.578-.351-.721-.626a2.109,2.109,0,0,1-.043-.894q0-12.7,0-25.4c0-5.837.008-11.674-.006-17.511A7.69,7.69,0,0,0,4295.958,4238.692Zm20.526,53.242h-5.114c-.173.673.2,1.635-.877,1.663-1.163.03-.666-1.061-.958-1.659h-5c-.221.66.156,1.658-.906,1.666-1.117.007-.7-1.047-.911-1.688h-5.141c0,.955,0,1.882,0,2.809,0,.581-.068,1.154-.823,1.152-.736,0-.841-.543-.835-1.141.009-.926,0-1.853,0-2.823h-5.111c-.167.67.158,1.692-.926,1.689s-.737-1.032-.9-1.655h-2.039c0,3.284.026,6.488-.019,9.69-.012.809.231,1.007,1.022,1.006q22.271-.034,44.542,0c.73,0,1-.175.994-.952-.041-2.963-.016-5.927-.02-8.891,0-.29-.035-.581-.052-.86h-8.3c-.122.708.139,1.651-.89,1.667-1.1.018-.766-1-.94-1.667h-5.1c0,.976-.007,1.878,0,2.78.007.595-.09,1.139-.82,1.157s-.868-.527-.872-1.12C4316.48,4293.823,4316.484,4292.892,4316.484,4291.934Zm-22.4-38.561v-23.941c0-2.145,0-2.145-2.12-2.144-1.166,0-1.167,0-1.167,1.183q0,24.44,0,48.88c0,2.065,0,2.065,2.107,2.06,1.175,0,1.18,0,1.18-1.189Q4294.081,4265.8,4294.08,4253.373Zm-8.2-26.039v49.9c0,2.181,0,2.139,2.178,2.193.886.022,1.108-.265,1.107-1.124q-.035-24.948-.021-49.9c0-.351-.043-.7-.068-1.074Zm.665-1.79h6.849c-.534-.956-.981-1.81-1.483-2.631-.338-.555-3.511-.595-3.854-.043C4287.541,4223.706,4287.087,4224.582,4286.548,4225.544Zm3.438-6.081-.728,1.313h1.431Z" transform="translate(-4262.865 -4216.879)" fill="#12263f"/>
      <path id="Trazado_197099" data-name="Trazado 197099" d="M4498.849,4415.973h-5.3c-1.626,0-1.694-.068-1.693-1.677,0-1.785.027-3.569-.011-5.353-.017-.812.315-1.185,1.1-1.185l13.79,0c.749,0,1.085.365,1.078,1.127-.021,1.966-.03,3.932,0,5.9.014.876-.4,1.19-1.211,1.187-1.931-.008-3.863,0-5.85,0-.15,1.11-.223,2.056.774,2.879a32.883,32.883,0,0,1,3.085,3.066,2.094,2.094,0,0,0,1.747.7c2.207-.043,4.416,0,6.623-.024.838-.01,1.259.3,1.195,1.168-.021.271.024.547-.005.815-.146,1.321.026,2.264,1.529,2.93,1.814.8,2.457,3.091,1.833,5.013a4.407,4.407,0,0,1-8.528-.8,4.408,4.408,0,0,1,2.627-4.625c.312-.136.808-.322.839-.54a8.681,8.681,0,0,0-.025-2.068c-.009-.093-.4-.213-.622-.214-2.026-.015-4.052-.02-6.078.01a1.273,1.273,0,0,0-.786.345q-1.983,1.929-3.916,3.909a3.23,3.23,0,0,0,.093,3.338c1.362,1.375,2.74,2.734,4.1,4.109.749.756.749,1.035-.014,1.805-1.511,1.526-3.044,3.029-4.546,4.563a1.014,1.014,0,0,1-1.69.024q-2.314-2.368-4.677-4.687a.988.988,0,0,1,0-1.626q2.06-2.045,4.1-4.106a2.9,2.9,0,0,0-.034-3.649c-1.2-1.2-2.39-2.4-3.6-3.581a1.327,1.327,0,0,0-.747-.438c-1.958-.036-3.918-.02-6.015-.02a15.1,15.1,0,0,0,.034,2.138c.036.241.433.5.719.622a4.369,4.369,0,0,1,2.767,4.1,4.3,4.3,0,0,1-2.678,4.06,4.39,4.39,0,0,1-5.735-2.372,4.306,4.306,0,0,1,2.371-5.7,1.055,1.055,0,0,0,.832-1.241c-.058-.721-.017-1.45-.012-2.176a.959.959,0,0,1,1.112-1.094c2.056.022,4.113.036,6.168-.017a2.088,2.088,0,0,0,1.24-.525c1.07-.979,2.021-2.091,3.117-3.035A2.659,2.659,0,0,0,4498.849,4415.973Zm-5.32-1.774h12.553v-4.661h-12.553Zm2.574,22.549,3.73,3.745,3.607-3.617-3.678-3.72Zm3.586-17.211c-1.022,1.054-2.1,2.069-3.039,3.2a1.476,1.476,0,0,0,.015,1.415c.925,1.142,1.991,2.17,2.959,3.193l4-3.881Zm-12.556,14.31a2.72,2.72,0,1,0-2.694-2.749A2.791,2.791,0,0,0,4487.133,4433.846Zm28.918-2.7a2.691,2.691,0,1,0-5.382-.025,2.691,2.691,0,1,0,5.382.025Z" transform="translate(-4442.87 -4373.121)" fill="#12263f"/>
      <path id="Trazado_197100" data-name="Trazado 197100" d="M4615.094,4643.349a2.876,2.876,0,0,1,2.921,3,2.948,2.948,0,0,1-3.005,2.951,3,3,0,0,1-2.94-3.037A2.914,2.914,0,0,1,4615.094,4643.349Zm-.076,4.242a1.349,1.349,0,0,0,1.354-1.3,1.4,1.4,0,0,0-1.278-1.3,1.316,1.316,0,0,0-1.323,1.319A1.256,1.256,0,0,0,4615.018,4647.591Z" transform="translate(-4548.7 -4565.959)" fill="#12263f"/>
    </g>
  </g>
</svg>
