<svg xmlns="http://www.w3.org/2000/svg" xmlns:xlink="http://www.w3.org/1999/xlink" width="126.936" height="138.992" viewBox="0 0 126.936 138.992">
  <defs>
    <filter id="Trazado_771252" x="0" y="0" width="126.936" height="138.992" filterUnits="userSpaceOnUse">
      <feOffset dy="3" input="SourceAlpha"/>
      <feGaussianBlur stdDeviation="3" result="blur"/>
      <feFlood flood-opacity="0.161"/>
      <feComposite operator="in" in2="blur"/>
      <feComposite in="SourceGraphic"/>
    </filter>
  </defs>
  <g id="Grupo_1098506" data-name="Grupo 1098506" transform="translate(-833 -3915.694)">
    <g id="Grupo_58634" data-name="Grupo 58634" transform="translate(448 2758.687)">
      <g transform="matrix(1, 0, 0, 1, 385, 1157.01)" filter="url(#Trazado_771252)">
        <path id="Trazado_771252-2" data-name="Trazado 771252" d="M512.14,327.414V288.183a20.125,20.125,0,0,0-9.822-17.322l-32.173-19.076a19.736,19.736,0,0,0-19.511-.365L417.669,269.34A20.117,20.117,0,0,0,407.2,287.027V326.62a20.13,20.13,0,0,0,9.58,17.175l30.839,18.884a19.738,19.738,0,0,0,19.533.63l34.3-18.089A20.113,20.113,0,0,0,512.14,327.414Z" transform="translate(-396.2 -240.81)" fill="#2ec49f" stroke="#fff" stroke-miterlimit="10" stroke-width="4"/>
      </g>
    </g>
    <g id="documento" transform="translate(858.185 3945.431)">
      <rect id="Rect치ngulo_387741" data-name="Rect치ngulo 387741" width="44" height="33" rx="5" transform="translate(9.283 2.759)" fill="#4aa5ff"/>
      <path id="Trazado_838192" data-name="Trazado 838192" d="M47.394,36.759H14.952A6.959,6.959,0,0,1,8,29.808V8.952A6.959,6.959,0,0,1,14.952,2H47.394a6.959,6.959,0,0,1,6.952,6.952V29.808A6.959,6.959,0,0,1,47.394,36.759ZM14.952,4.317a4.64,4.64,0,0,0-4.635,4.635V29.808a4.64,4.64,0,0,0,4.635,4.635H47.394a4.64,4.64,0,0,0,4.635-4.635V8.952a4.64,4.64,0,0,0-4.635-4.635Z" transform="translate(0.476)" fill="#21257c"/>
      <rect id="Rect치ngulo_387742" data-name="Rect치ngulo 387742" width="44" height="32" rx="5" transform="translate(17.283 11.759)" fill="#e6f3ff"/>
      <path id="Trazado_838193" data-name="Trazado 838193" d="M54.394,43.759H21.952A6.959,6.959,0,0,1,15,36.808V15.952A6.959,6.959,0,0,1,21.952,9H54.394a6.959,6.959,0,0,1,6.952,6.952V36.808A6.959,6.959,0,0,1,54.394,43.759ZM21.952,11.317a4.64,4.64,0,0,0-4.635,4.635V36.808a4.64,4.64,0,0,0,4.635,4.635H54.394a4.64,4.64,0,0,0,4.635-4.635V15.952a4.64,4.64,0,0,0-4.635-4.635Z" transform="translate(1.586 1.111)" fill="#21257c"/>
      <g id="Grupo_1098495" data-name="Grupo 1098495" transform="translate(6.159 17.062)">
        <path id="Trazado_838194" data-name="Trazado 838194" d="M52.281,17.317H22.156a1.159,1.159,0,0,1,0-2.317H52.281a1.159,1.159,0,0,1,0,2.317Z" transform="translate(-3.618 -15)" fill="#4aa5ff"/>
        <path id="Trazado_838195" data-name="Trazado 838195" d="M52.281,22.317H22.156a1.159,1.159,0,0,1,0-2.317H52.281a1.159,1.159,0,0,1,0,2.317Z" transform="translate(-3.618 -14.207)" fill="#4aa5ff"/>
        <path id="Trazado_838196" data-name="Trazado 838196" d="M51.964,27.317H24.156a1.159,1.159,0,0,1,0-2.317H51.964a1.159,1.159,0,0,1,0,2.317Z" transform="translate(-3.301 -13.414)" fill="#4aa5ff"/>
        <path id="Trazado_838197" data-name="Trazado 838197" d="M25.7,34.111V31.793A5.793,5.793,0,0,0,19.9,26H11.793A5.793,5.793,0,0,0,6,31.793v25.49a5.793,5.793,0,0,0,5.793,5.793H60.456a5.793,5.793,0,0,0,5.793-5.793V39.9a5.793,5.793,0,0,0-5.793-5.793Z" transform="translate(-6 -13.255)" fill="#4aa5ff"/>
      </g>
      <path id="Trazado_838198" data-name="Trazado 838198" d="M60.615,64.394H11.952A6.959,6.959,0,0,1,5,57.442V31.952A6.959,6.959,0,0,1,11.952,25h8.111a7.125,7.125,0,0,1,6.952,8.111h33.6a6.959,6.959,0,0,1,6.952,6.952v17.38A6.959,6.959,0,0,1,60.615,64.394ZM11.952,27.317a4.64,4.64,0,0,0-4.635,4.635v25.49a4.64,4.64,0,0,0,4.635,4.635H60.615a4.64,4.64,0,0,0,4.635-4.635V40.062a4.64,4.64,0,0,0-4.635-4.635H25.856A1.158,1.158,0,0,1,24.7,34.269V31.952a4.64,4.64,0,0,0-4.635-4.635Z" transform="translate(0 3.649)" fill="#21257c"/>
      <path id="Trazado_838199" data-name="Trazado 838199" d="M20,50.9A13.9,13.9,0,0,1,33.9,37c18.443.732,18.438,27.078,0,27.808A13.9,13.9,0,0,1,20,50.9Z" transform="translate(2.38 5.553)" fill="#e6f3ff"/>
      <path id="Trazado_838200" data-name="Trazado 838200" d="M34.062,66.114A15.079,15.079,0,0,1,19,51.052c.827-19.982,29.3-19.977,30.125,0A15.079,15.079,0,0,1,34.062,66.114Zm0-27.808A12.76,12.76,0,0,0,21.317,51.052c.7,16.908,24.793,16.9,25.49,0A12.76,12.76,0,0,0,34.062,38.307Z" transform="translate(2.221 5.405)" fill="#21257c"/>
      <path id="Trazado_838201" data-name="Trazado 838201" d="M36.374,51.586H28.958A1.158,1.158,0,0,1,27.8,50.428V44.867a4.867,4.867,0,1,1,9.733,0v5.561a1.158,1.158,0,0,1-1.159,1.159Zm-6.257-2.317h5.1v-4.4a2.549,2.549,0,0,0-5.1,0v4.4Z" transform="translate(3.617 6.029)" fill="#21257c"/>
      <path id="Trazado_838202" data-name="Trazado 838202" d="M25.6,53.635A4.635,4.635,0,0,1,30.235,49H35.8c6.125.188,6.126,9.081,0,9.269H30.235A4.635,4.635,0,0,1,25.6,53.635Z" transform="translate(3.268 7.456)" fill="#4aa5ff"/>
      <path id="Trazado_838203" data-name="Trazado 838203" d="M35.949,59.586H30.387c-7.666-.272-7.667-11.315,0-11.586h5.561C43.614,48.272,43.615,59.315,35.949,59.586Zm-5.561-9.269a3.476,3.476,0,0,0,0,6.952h5.561a3.476,3.476,0,1,0,0-6.952Z" transform="translate(3.115 7.298)" fill="#21257c"/>
      <path id="Trazado_838204" data-name="Trazado 838204" d="M34.368,52.359A1.158,1.158,0,0,0,33.21,51.2H31.356a1.148,1.148,0,0,0-.232,2.27v1.668a1.159,1.159,0,1,0,2.317,0V53.471a1.142,1.142,0,0,0,.927-1.112Z" transform="translate(4 7.805)" fill="#e6f3ff"/>
      <g id="Grupo_1098505" data-name="Grupo 1098505" transform="translate(52.522 -8.541)">
        <path id="Trazado_838225" data-name="Trazado 838225" d="M23.538,58.074H17.131v-.949A15.083,15.083,0,0,1,19.5,49.413a6.072,6.072,0,0,0,.949-3.322,6.291,6.291,0,0,0-7.593-6.17,6.236,6.236,0,0,0-3.915,9.61A13.639,13.639,0,0,1,11.2,57.244v.593H4.792A2.506,2.506,0,0,0,2.3,60.329v3.915H25.792V60.329A2.18,2.18,0,0,0,23.538,58.074Z" transform="translate(0 0)" fill="#64c4f6" stroke="#21257c" stroke-linecap="round" stroke-linejoin="round" stroke-miterlimit="10" stroke-width="2"/>
        <path id="Trazado_838226" data-name="Trazado 838226" d="M4.5,60.5H23.128v4.153H4.5Z" transform="translate(0.41 3.863)" fill="#e6f3ff" stroke="#21257c" stroke-linecap="round" stroke-linejoin="round" stroke-miterlimit="10" stroke-width="2"/>
      </g>
    </g>
  </g>
</svg>
