<svg xmlns="http://www.w3.org/2000/svg" width="98.536" height="110.846" viewBox="0 0 98.536 110.846">
  <g id="_5OFTve" data-name="5OFTve" transform="translate(425.658 -160.69)">
    <g id="Grupo_155559" data-name="Grupo 155559" transform="translate(-425.658 160.69)">
      <path id="Trazado_197558" data-name="Trazado 197558" d="M-246.859,195.052c-.112,1.076-.2,2.076-.323,3.072-.383,3.038-2.155,5.192-5.152,5.152-3.668-.05-6.208,1.491-8.994,3.687-8.965,7.064-22.008,3.442-27.2-7.246a21.2,21.2,0,0,1-2.192-9.324,76.435,76.435,0,0,1,.122-8.309A14.366,14.366,0,0,1-281.744,170c8.041-3.638,15.9-3.221,23.144,2.056a13.523,13.523,0,0,1,5.647,11.346,96.275,96.275,0,0,1-.616,11.731c-.244,2.036-1.307,3.974-2,5.946,4.321,1.095,6.611-1.026,6.219-5.906-.075-.063-.146-.171-.226-.179-2.429-.228-2.43-.227-2.432-2.664q0-4.159,0-8.317c0-2.161.113-2.268,2.315-2.335.244-.007.488-.037.727-.057-.119-8.134-7.785-18.295-22.3-18.7-13.842-.382-22.909,9.032-23.455,18.577.083.051.165.139.252.144,2.846.159,2.845.158,2.843,3.029,0,2.823-.033,5.646.014,8.468.021,1.276-.443,1.872-1.768,1.8-1.207-.063-2.419.006-3.629-.02a3.46,3.46,0,0,1-3.638-3.452c-.08-1.811-.077-3.632.008-5.442A4.634,4.634,0,0,1-298,182.077a1.9,1.9,0,0,0,.942-1.112c1.395-10.615,9.576-18.076,20.02-19.8,8.851-1.464,16.948.42,23.738,6.576a21.583,21.583,0,0,1,6.7,12.889,2.472,2.472,0,0,0,1.068,1.515,4.713,4.713,0,0,1,2.565,4.3q0,2.042,0,4.083C-242.968,193.419-243.9,194.54-246.859,195.052Zm-13.93,8.536c-2.57,0-4.814-.008-7.059.012a.9.9,0,0,0-.664.27c-1.177,1.829-3.011,1.362-4.665,1.276a2.329,2.329,0,0,1-2.17-2,2.386,2.386,0,0,1,1.167-2.854,4.341,4.341,0,0,1,4.728.073,4.691,4.691,0,0,0,3.309.913c1.311.008,2.621,0,3.931,0,4.121,0,4.121,0,5.64-3.842.018-.047.024-.1.043-.145,1.886-4.7,1.528-9.605,1.253-14.473-.281-4.973-2.99-8.49-7.339-10.666a20.012,20.012,0,0,0-17.525-.426c-5.09,2.192-8.054,6.118-8.286,11.779a45.628,45.628,0,0,0,.151,8.3,23.722,23.722,0,0,0,2.221,7.588C-280.9,209.183-268.7,211.279-260.789,203.588Zm-33.2-19.581c-.577,0-1.024,0-1.471,0-2.178.01-2.868.7-2.884,2.878,0,.655,0,1.309,0,1.964.008,4.092.009,4.092,4.124,3.812.045,0,.087-.047.232-.13Zm44.269,8.7c1.069,0,1.863-.015,2.656,0,1.255.028,1.836-.549,1.8-1.823-.044-1.553,0-3.109-.037-4.662a2.091,2.091,0,0,0-2.158-2.216c-.684-.056-1.375-.01-2.137-.01-.051.472-.118.81-.119,1.147C-249.723,187.6-249.719,190.049-249.719,192.712Z" transform="translate(338.497 -160.69)" fill="#12263f"/>
      <path id="Trazado_197559" data-name="Trazado 197559" d="M-407.184,408.7c-1.548.214-2.051-.656-2.216-2.182-.3-2.79-1.13-3.635-3.859-4.185a2.342,2.342,0,0,0-1.429.564c-3.577,2.4-2.446,2.678-5.773-.556-1.607-1.562-1.582-1.6-.3-3.363.089-.122.182-.241.262-.37.442-.716,1.3-1.482,1.227-2.143a8.948,8.948,0,0,0-1.344-3.321c-.2-.344-.973-.406-1.5-.5-3.822-.686-3.546-.084-3.536-4.028.006-2.561.007-2.561,2.548-3.026a4.135,4.135,0,0,0,3.836-3.914c.06-.438-.352-.991-.648-1.42-2.355-3.419-2.538-2.51.456-5.542,1.7-1.722,1.7-1.721,3.7-.291.041.029.084.055.127.083.712.456,1.47,1.343,2.126,1.272a8.535,8.535,0,0,0,3.315-1.348c.379-.229.468-1.039.572-1.606.71-3.838.207-3.438,3.966-3.443,2.64,0,2.632,0,3.113,2.634.143.785.092,1.892.579,2.266a9.314,9.314,0,0,0,3.406,1.5c.45.111,1.128-.52,1.645-.893,3.011-2.178,2.473-2.057,4.853.325,2.344,2.346,2.253,1.811.272,4.626-.393.558-1.042,1.279-.93,1.78a9.746,9.746,0,0,0,1.467,3.433c.658.933,4.079.658,4.769-.3a2.912,2.912,0,0,0,.431-1.747c-.425-7.5,3.775-13.5,10.79-14.951a23.2,23.2,0,0,1,5.974-.007,2.038,2.038,0,0,1,1.474.993c.149.329-.314,1.095-.693,1.478-2.868,2.9-5.783,5.754-8.628,8.568l7.185,7.091c2.68-2.695,5.5-5.57,8.38-8.384.445-.434,1.284-.921,1.732-.769.468.159.868,1.026.984,1.642a13.651,13.651,0,0,1-14.966,16.427,2.512,2.512,0,0,0-2.24.85c-5.963,6-11.92,12.013-17.965,17.933a7.512,7.512,0,0,1-11.718-1.488A24.534,24.534,0,0,1-407.184,408.7Zm36.042-38.639c-7.664-.581-13.653,5.772-12.533,12.907a3.48,3.48,0,0,1-1.1,3.436c-6,5.893-11.918,11.865-17.855,17.82a7.894,7.894,0,0,0-1.244,1.5,5.334,5.334,0,0,0,1.359,6.91,5.231,5.231,0,0,0,7.122-.569q9.271-9.2,18.472-18.473a2.561,2.561,0,0,1,2.526-.87,11.421,11.421,0,0,0,13.35-8.907,21.423,21.423,0,0,0,.216-3.143l-.407-.112c-2.4,2.432-4.79,4.873-7.2,7.293-1.278,1.282-2.218,1.294-3.488.042-2.115-2.086-4.2-4.2-6.3-6.3-2-2-2.009-2.529.011-4.539C-375.948,374.8-373.664,372.556-371.142,370.063Zm-21.832,7.526-1.464-1.646a10.273,10.273,0,0,0-1.268.889c-1.537,1.507-2.932,1.382-5.045.674-2.963-.991-4.082-2.615-4.1-5.455,0-.079-.106-.157-.165-.233-2.139-.323-2.218-.331-2.451,2.125-.151,1.592-.645,2.553-2.387,2.9-1.389.274-2.732,1.556-4,1.433s-2.422-1.435-3.866-2.383c-.19.291-.367.6-.583.881s-.459.512-.7.777a3.826,3.826,0,0,0,.369.559c1.831,1.866,2.585,3.854.746,6.167a1.115,1.115,0,0,0-.223.556c-.2,2.053-1.465,2.644-3.363,2.794-2.046.162-2.1.412-1.612,2.673,2.622-.1,4.966.436,5.281,3.724,2.484,2.663.068,4.5-1.159,6.383l1.414,1.7c.857-.6,1.6-1.034,2.242-1.591a2.351,2.351,0,0,1,3.223-.26,9.6,9.6,0,0,0,2.918,1.172,1.825,1.825,0,0,1,1.552,1.742c.139,1.05.36,2.089.538,3.089,1.26-1.552,2.319-3.07,3.59-4.381,3.436-3.543,6.946-7.015,10.464-10.477,1.138-1.12,2.392-2.122,3.594-3.179l-.063-.644c-3.279.576-3.7-1.721-4.931-3.728C-396.2,380.959-394.26,379.541-392.974,377.589Z" transform="translate(425.658 -305.193)" fill="#12263f"/>
      <path id="Trazado_197560" data-name="Trazado 197560" d="M-276.227,341.834c1.926-1.8,3.5-3.278,5.086-4.751a2.481,2.481,0,0,1,2.868-.41c4.165,1.467,8.4,2.739,12.609,4.081.335.107.682.174,1.02.274,6.491,1.925,8.584,4.6,9,11.331.459,7.441.981,14.878,1.481,22.317.115,1.71-.163,2.049-1.917,2.051q-20.942.015-41.886.009c-.849,0-1.763-.045-1.746-1.154.018-1.212,1.036-1.17,1.9-1.17q19.658-.009,39.315-.006h1.993c-.13-2.252-.236-4.392-.38-6.528-.361-5.328-.786-10.651-1.1-15.981-.262-4.472-2.026-6.967-6.3-8.363-2.1-.685-4.288-1.093-6.4-1.759q-3.949-1.247-7.819-2.741a1.49,1.49,0,0,0-1.856.318c-1.28,1.285-2.576,2.554-3.862,3.833-1.685,1.676-1.693,1.671-3.358.062-1.34-1.3-2.66-2.616-4.069-3.832a1.966,1.966,0,0,0-1.562-.4c-4.526,1.341-9.021,2.784-13.537,4.16-5.235,1.594-6.955,3.762-7.273,9.188-.139,2.363-.362,4.722-.519,7.085-.055.834-.264,1.674-1.228,1.467a1.9,1.9,0,0,1-.934-1.541c.134-3.22.306-6.445.67-9.646.508-4.469,3.236-7.1,7.429-8.359,4.382-1.312,8.907-2.275,13.105-4.024,2.853-1.188,4.707-.772,6.534,1.4C-278.082,339.786-277.157,340.785-276.227,341.834Z" transform="translate(342.677 -283.263)" fill="#12263f"/>
      <path id="Trazado_197561" data-name="Trazado 197561" d="M-340.76,466.812c-1.056-.041-1.579-.94-1.177-1.663a4.454,4.454,0,0,1,.793-.9q6.77-6.784,13.547-13.561c.178-.178.336-.451.548-.5a16.532,16.532,0,0,1,1.709-.265c-.047.612.146,1.442-.18,1.8-1.691,1.858-3.514,3.6-5.292,5.375q-4.427,4.431-8.86,8.855A10.789,10.789,0,0,1-340.76,466.812Z" transform="translate(367.353 -362.439)" fill="#12263f"/>
      <path id="Trazado_197562" data-name="Trazado 197562" d="M-379.5,427.242a8.206,8.206,0,0,1-8.089-8.258,8.209,8.209,0,0,1,8.2-8,8.2,8.2,0,0,1,8.076,8.11A8.176,8.176,0,0,1-379.5,427.242Zm.089-2.325a5.687,5.687,0,0,0,5.769-5.725,5.692,5.692,0,0,0-5.763-5.887,5.723,5.723,0,0,0-5.852,5.812A5.693,5.693,0,0,0-379.412,424.917Z" transform="translate(399.104 -335.28)" fill="#12263f"/>
    </g>
  </g>
</svg>
