<svg xmlns="http://www.w3.org/2000/svg" xmlns:xlink="http://www.w3.org/1999/xlink" width="83.95" height="78.554" viewBox="0 0 83.95 78.554">
  <defs>
    <clipPath id="clip-path">
      <path id="path1119" d="M0-682.665H83.95v73H0Z" transform="translate(0 682.665)"/>
    </clipPath>
  </defs>
  <g id="Grupo_1085086" data-name="Grupo 1085086" transform="translate(-184 -1136.203)">
    <g id="Grupo_995637" data-name="Grupo 995637" transform="translate(184 1136.203)">
      <path id="Trazado_771736" data-name="Trazado 771736" d="M39.277,0A39.277,39.277,0,1,1,0,39.277,39.277,39.277,0,0,1,39.277,0Z" transform="translate(0 0)" fill="#ff981e"/>
    </g>
    <g id="g1113" transform="translate(184 1821.645)">
      <g id="g1115" transform="translate(0 -682.665)">
        <g id="g1117" clip-path="url(#clip-path)">
          <g id="g1123" transform="translate(14.712 49.35)">
            <path id="path1125" d="M-290.076-60.535a3.855,3.855,0,0,0-3.375-2h-7.756a2.189,2.189,0,0,1-2.017-.861c-5.719-5.383-10.387-5.121-16.1-2.866a5.489,5.489,0,0,1-2.518.53h-2.966v14.489h4.442a3.815,3.815,0,0,1,1.435.267l14.76,3.949c5.189,1.4,7.271,2.7,12.2-.59L-273.78-60.58a3.819,3.819,0,0,0,1.2-5.113,3.837,3.837,0,0,0-5.112-1.2Z" transform="translate(324.809 67.783)" fill="#ffdcd5" fill-rule="evenodd"/>
            <g id="_123" data-name="123" transform="translate(36.12 -55.383)">
              <g id="Grupo_1085094" data-name="Grupo 1085094" transform="translate(0.463 28.963)">
                <g id="Grupo_1085088" data-name="Grupo 1085088" transform="translate(0.187 9.251)">
                  <g id="Grupo_1085087" data-name="Grupo 1085087">
                    <path id="Trazado_837970" data-name="Trazado 837970" d="M15.219,203.885a1.857,1.857,0,0,1-.367-.036s-1.208-1.168-1.208-2.064l-.16-12.017c0-.044-.135-.025-.169-.047a.123.123,0,0,0-.067-.02h-.161l-.9-.106a1.732,1.732,0,0,1,.01-3.462L13.4,186h1.822a1.849,1.849,0,0,1,1.848,1.85v14.185a1.849,1.849,0,0,1-1.848,1.85Z" transform="translate(-10.531 -186)" fill="#afefa5"/>
                  </g>
                </g>
                <path id="Trazado_837971" data-name="Trazado 837971" d="M10.4,189.7H9.348a1.85,1.85,0,0,1,0-3.7h1.48a1.849,1.849,0,0,0-1.848,1.85C8.98,188.872,9.384,189.7,10.4,189.7Z" transform="translate(-7.5 -176.749)" fill="#8ce1a4"/>
                <path id="Trazado_837972" data-name="Trazado 837972" d="M56.194,246.123v14.025a1.85,1.85,0,0,1-1.48-1.814V246.123A.124.124,0,0,0,54.59,246h1.48A.124.124,0,0,1,56.194,246.123Z" transform="translate(-51.686 -233.048)" fill="#8ce1a4"/>
                <g id="Grupo_1085090" data-name="Grupo 1085090" transform="translate(8.172 3.438)">
                  <g id="Grupo_1085089" data-name="Grupo 1085089">
                    <path id="Trazado_837973" data-name="Trazado 837973" d="M149.337,109.577h-.006l-5.68-.018-1.262-.079a1.474,1.474,0,0,1-1.389-.974,1.843,1.843,0,0,1,.133-1.916l4.929-7a4.051,4.051,0,0,0,.974-2.63,1.665,1.665,0,0,0-1.689-1.56q-.092-.009-.187-.009a1.725,1.725,0,0,0-1.693,1.383,1.85,1.85,0,0,1-1.113,1.353,5.749,5.749,0,0,1-1.051-.037,1.61,1.61,0,0,1-1.256-2.059,5.116,5.116,0,0,1,5.118-4.263c.242,0,.712-.032.712-.032a5.432,5.432,0,0,1,3.114,1.491,5.283,5.283,0,0,1,1.611,3.823c0,1.7-.7,3-1.9,4.693l-2.786,3.928a.123.123,0,0,0,.1.195l3.325.01a1.85,1.85,0,1,1-.006,3.7Z" transform="translate(-140.002 -91.737)" fill="#ffe07d"/>
                  </g>
                </g>
                <g id="Grupo_1085092" data-name="Grupo 1085092" transform="translate(7.956 3.392)">
                  <g id="Grupo_1085091" data-name="Grupo 1085091">
                    <path id="Trazado_837974" data-name="Trazado 837974" d="M137.952,95.37a1.847,1.847,0,0,0,1.115,2.067,1.858,1.858,0,0,1-2.534-2.067A5.445,5.445,0,0,1,141.873,91a5.64,5.64,0,0,1,.717.045A5.442,5.442,0,0,0,137.952,95.37Z" transform="translate(-136.499 -91)" fill="#ffd064"/>
                    <path id="Trazado_837975" data-name="Trazado 837975" d="M150.291,162.274a1.86,1.86,0,0,0,1.365,2.921l-1.271,0a1.85,1.85,0,0,1-1.512-2.918l4.787-7.01c.938-1.4,1.231-1.935,1.231-2.577a1.671,1.671,0,0,0-1.634-1.657,2.544,2.544,0,0,1,2.081,4Z" transform="translate(-147.79 -147.328)" fill="#ffd064"/>
                  </g>
                </g>
                <path id="Trazado_837976" data-name="Trazado 837976" d="M343.329,42.3a5.41,5.41,0,0,0-4.61-5.337s-.513.029-.786.029a5.157,5.157,0,0,0-5.154,4.246,1.654,1.654,0,0,0,1.307,2.073c.048.009.124.139.124.139a1.855,1.855,0,0,0,2.037-1.481,1.7,1.7,0,1,1,1.669,2.027,1.85,1.85,0,1,0,0,3.7,1.7,1.7,0,1,1-1.685,1.935,1.855,1.855,0,0,0-2.095-1.577c-.036,0-.071.011-.106.018,0,0-.386.2-.584.332a1.606,1.606,0,0,0-.642,1.7,5.35,5.35,0,0,0,1.858,3.254,4.661,4.661,0,0,0,3.25,1.361c.273,0,.805.006.805.006a5.388,5.388,0,0,0,3.274-8.884A5.364,5.364,0,0,0,343.329,42.3Z" transform="translate(-312.677 -36.902)" fill="#b2e5fb"/>
                <g id="Grupo_1085093" data-name="Grupo 1085093" transform="translate(19.859 0)">
                  <path id="Trazado_837977" data-name="Trazado 837977" d="M331.66,40.352a5.8,5.8,0,0,0,0,2.194c-.047,0-.095-.013-.142-.022a1.85,1.85,0,0,1-1.464-2.172A5.419,5.419,0,0,1,335.368,36a5.478,5.478,0,0,1,.8.059A5.417,5.417,0,0,0,331.66,40.352Z" transform="translate(-329.989 -36)" fill="#98e0f9"/>
                  <path id="Trazado_837978" data-name="Trazado 837978" d="M335.681,223.761a5.476,5.476,0,0,1-.8.059,5.409,5.409,0,0,1-5.361-4.646,1.851,1.851,0,0,1,1.476-2.07,11.075,11.075,0,0,0,.128,2.07,5.407,5.407,0,0,0,4.561,4.587Z" transform="translate(-329.499 -205.935)" fill="#98e0f9"/>
                </g>
              </g>
              <g id="Grupo_1085095" data-name="Grupo 1085095" transform="translate(0 28.501)">
                <path id="Trazado_837979" data-name="Trazado 837979" d="M5.338,178.5H2.31a2.313,2.313,0,0,0,0,4.626h.717V195a2.31,2.31,0,1,0,4.62,0v-5.7a.463.463,0,1,0-.925,0V195a1.385,1.385,0,1,1-2.77,0V182.663a.462.462,0,0,0-.463-.463H2.31a1.388,1.388,0,0,1,0-2.775H5.338a1.388,1.388,0,0,1,1.385,1.388v6.322a.463.463,0,1,0,.925,0v-6.322A2.314,2.314,0,0,0,5.338,178.5Z" transform="translate(0 -169.249)"/>
                <path id="Trazado_837980" data-name="Trazado 837980" d="M139.014,97.687l-2.671-.008,2.408-3.4c1.256-1.779,1.983-3.161,1.983-4.959a5.772,5.772,0,0,0-1.467-3.859.463.463,0,1,0-.689.617,4.848,4.848,0,0,1,1.231,3.242c0,1.561-.637,2.759-1.813,4.425l-2.923,4.122a.463.463,0,0,0,.376.73l3.563.011a1.39,1.39,0,0,1,.986.41,1.375,1.375,0,0,1,.4.982,1.4,1.4,0,0,1-1.4,1.383l-6.951-.022a1.392,1.392,0,0,1-1.236-.752,1.377,1.377,0,0,1,.1-1.435l0-.007,4.788-7.013c.931-1.384,1.31-2.028,1.31-2.835A2.133,2.133,0,0,0,134.83,87.2a2.189,2.189,0,0,0-2.147,1.756,1.4,1.4,0,0,1-2.53.5,1.373,1.373,0,0,1-.209-1.038,4.981,4.981,0,0,1,4.886-4,5.054,5.054,0,0,1,2.169.479.463.463,0,1,0,.394-.837,5.973,5.973,0,0,0-2.563-.567,5.909,5.909,0,0,0-5.793,4.743,2.313,2.313,0,0,0,1.83,2.716,2.322,2.322,0,0,0,2.724-1.823,1.261,1.261,0,0,1,1.239-1.01,1.218,1.218,0,0,1,1.263,1.2c0,.486-.226.941-1.15,2.316l-4.784,7.007a2.312,2.312,0,0,0,1.89,3.644l6.951.022h.007a2.321,2.321,0,0,0,2.321-2.306,2.317,2.317,0,0,0-2.314-2.32Z" transform="translate(-121.037 -80.11)"/>
                <path id="Trazado_837981" data-name="Trazado 837981" d="M325.695,41.756a2.164,2.164,0,1,0,2.143-2.462,1.388,1.388,0,1,1,0-2.775,2.159,2.159,0,1,0-2.123-2.579,1.4,1.4,0,0,1-2.526.5,1.374,1.374,0,0,1-.209-1.039,4.956,4.956,0,0,1,7.294-3.34.463.463,0,0,0,.456-.805,5.881,5.881,0,0,0-8.657,3.966,2.313,2.313,0,0,0,1.828,2.715,2.321,2.321,0,0,0,2.722-1.823,1.239,1.239,0,1,1,1.216,1.475,2.313,2.313,0,1,0,0,4.626,1.233,1.233,0,1,1-1.227,1.408,2.321,2.321,0,0,0-4.146-1.074,2.293,2.293,0,0,0-.446,1.714A5.864,5.864,0,0,0,323,44.784a.463.463,0,0,0,.76-.527,4.934,4.934,0,0,1-.83-2.118,1.389,1.389,0,0,1,1.187-1.566A1.393,1.393,0,0,1,325.695,41.756Z" transform="translate(-302.137 -28.501)"/>
                <path id="Trazado_837982" data-name="Trazado 837982" d="M371.7,66.564A5.789,5.789,0,0,0,370.483,63a.463.463,0,1,0-.733.564,4.91,4.91,0,0,1-.2,6.239.463.463,0,0,0,0,.61,4.942,4.942,0,0,1-6.366,7.417.463.463,0,1,0-.492.784,5.863,5.863,0,0,0,7.8-8.506,5.839,5.839,0,0,0,1.2-3.546Z" transform="translate(-340.119 -60.705)"/>
              </g>
            </g>
          </g>
          <g id="g1127" transform="translate(4.293 48.798)">
            <path id="path1129" d="M-87.015-142.713v-14.728a2.368,2.368,0,0,0-2.36-2.36h-5.7a2.367,2.367,0,0,0-2.356,2.348v14.99a2.367,2.367,0,0,0,2.356,2.344h5.7a2.368,2.368,0,0,0,2.36-2.356Z" transform="translate(97.434 159.801)" fill="#128166" fill-rule="evenodd"/>
          </g>
          <g id="g1139" transform="translate(4.293 48.798)">
            <path id="path1141" d="M-19.678,0h5.7a2.368,2.368,0,0,1,2.36,2.36V17.327a2.368,2.368,0,0,1-2.36,2.356h-5.7a2.364,2.364,0,0,1-2.356-2.356V2.36A2.365,2.365,0,0,1-19.678,0Z" transform="translate(22.035)" fill="none" stroke="#000" stroke-linecap="round" stroke-linejoin="round" stroke-miterlimit="10" stroke-width="1.2"/>
          </g>
          <g id="g1143" transform="translate(14.712 49.35)">
            <path id="path1145" d="M0-17.094H2.967a5.491,5.491,0,0,0,2.518-.529c5.715-2.255,10.383-2.518,16.1,2.866A2.189,2.189,0,0,0,23.6-13.9h7.756a3.86,3.86,0,0,1,3.848,3.848,3.859,3.859,0,0,1-3.848,3.844H18.789" transform="translate(0 19.14)" fill="none" stroke="#000" stroke-linecap="round" stroke-linejoin="round" stroke-miterlimit="10" stroke-width="1.2"/>
          </g>
          <g id="Grupo_1085096" data-name="Grupo 1085096">
            <g id="g1131" transform="translate(6.826 1.426)">
              <path id="path1133" d="M-344.62-151.927a19.291,19.291,0,0,0-2.51-6.054l1.309-1.31a1.776,1.776,0,0,0,0-2.5l-3.508-3.5a1.768,1.768,0,0,0-2.5,0l-1.31,1.309a19.218,19.218,0,0,0-6.054-2.514v-1.847a1.775,1.775,0,0,0-1.77-1.77h-4.955a1.775,1.775,0,0,0-1.77,1.77v1.847a19.281,19.281,0,0,0-6.058,2.514l-1.309-1.309a1.768,1.768,0,0,0-2.5,0l-3.5,3.5a1.776,1.776,0,0,0,0,2.5l1.309,1.31a19.2,19.2,0,0,0-2.51,6.054h-1.851a1.775,1.775,0,0,0-1.77,1.77v4.959a1.778,1.778,0,0,0,1.77,1.77h1.851a19.2,19.2,0,0,0,2.51,6.054l-1.309,1.31a1.776,1.776,0,0,0,0,2.5l3.5,3.5a1.768,1.768,0,0,0,2.5,0l1.309-1.309a19.182,19.182,0,0,0,6.058,2.51v-8.989a11.246,11.246,0,0,1-7.335-10.512,11.217,11.217,0,0,1,4.915-9.259c3.108-2.122,2.506,1.233,2.506,1.8v6.729a4.475,4.475,0,0,0,4.163,4.45,4.471,4.471,0,0,0,4.159-4.45v-6.729c0-.566-.6-3.92,2.506-1.8a11.217,11.217,0,0,1,4.915,9.259,11.248,11.248,0,0,1-7.331,10.512v8.989a19.12,19.12,0,0,0,6.054-2.51l1.31,1.309a1.768,1.768,0,0,0,2.5,0l3.508-3.5a1.776,1.776,0,0,0,0-2.5l-1.309-1.31a19.291,19.291,0,0,0,2.51-6.054h1.847A1.778,1.778,0,0,0-341-145.2v-4.959a1.775,1.775,0,0,0-1.77-1.77Z" transform="translate(385.884 170.118)" fill="#c7d5ea" fill-rule="evenodd"/>
            </g>
            <g id="g1135" transform="translate(17.685 13.23)">
              <path id="path1137" d="M-132.212-246.007V-255a11.248,11.248,0,0,0,7.331-10.512,11.217,11.217,0,0,0-4.915-9.259c-3.1-2.122-2.506,1.233-2.506,1.8v6.729a4.471,4.471,0,0,1-4.159,4.45,4.475,4.475,0,0,1-4.163-4.45v-6.729c0-.566.6-3.92-2.506-1.8a11.217,11.217,0,0,0-4.915,9.259A11.246,11.246,0,0,0-140.707-255v10.84a1.775,1.775,0,0,0,1.77,1.77h4.955a1.775,1.775,0,0,0,1.77-1.77Z" transform="translate(148.042 275.463)" fill="#13ca43" fill-rule="evenodd"/>
            </g>
            <g id="g1147" transform="translate(6.826 1.426)">
              <path id="path1149" d="M-222.906-344.6a19.117,19.117,0,0,0,6.054-2.51l1.309,1.31a1.768,1.768,0,0,0,2.5,0l3.508-3.5a1.776,1.776,0,0,0,0-2.5l-1.309-1.31a19.294,19.294,0,0,0,2.51-6.054h1.847a1.778,1.778,0,0,0,1.77-1.77V-365.9a1.775,1.775,0,0,0-1.77-1.77h-1.847a19.293,19.293,0,0,0-2.51-6.054l1.309-1.309a1.776,1.776,0,0,0,0-2.5l-3.508-3.5a1.768,1.768,0,0,0-2.5,0l-1.309,1.31a19.218,19.218,0,0,0-6.054-2.514v-1.847a1.775,1.775,0,0,0-1.77-1.77h-4.955a1.775,1.775,0,0,0-1.77,1.77v1.847a19.279,19.279,0,0,0-6.058,2.514l-1.309-1.31a1.768,1.768,0,0,0-2.5,0l-3.5,3.5a1.776,1.776,0,0,0,0,2.5l1.309,1.309a19.2,19.2,0,0,0-2.51,6.054h-1.851a1.775,1.775,0,0,0-1.77,1.77v4.959a1.778,1.778,0,0,0,1.77,1.77h1.851a19.2,19.2,0,0,0,2.51,6.054l-1.309,1.31a1.776,1.776,0,0,0,0,2.5l3.5,3.5a1.768,1.768,0,0,0,2.5,0l1.309-1.31a19.178,19.178,0,0,0,6.058,2.51v1.851a1.775,1.775,0,0,0,1.77,1.77h4.955a1.775,1.775,0,0,0,1.77-1.77Z" transform="translate(249.597 385.858)" fill="none" stroke="#000" stroke-linecap="round" stroke-linejoin="round" stroke-miterlimit="10" stroke-width="1.2"/>
            </g>
            <g id="g1151" transform="translate(17.685 13.23)">
              <path id="path1153" d="M-132.212-246.007V-255a11.248,11.248,0,0,0,7.331-10.512,11.217,11.217,0,0,0-4.915-9.259c-3.1-2.122-2.506,1.233-2.506,1.8v6.729a4.471,4.471,0,0,1-4.159,4.45,4.475,4.475,0,0,1-4.163-4.45v-6.729c0-.566.6-3.92-2.506-1.8a11.217,11.217,0,0,0-4.915,9.259A11.246,11.246,0,0,0-140.707-255v8.989" transform="translate(148.042 275.463)" fill="none" stroke="#000" stroke-linecap="round" stroke-linejoin="round" stroke-miterlimit="10" stroke-width="1.2"/>
            </g>
          </g>
          <g id="g1155" transform="translate(14.712 49.747)">
            <path id="path1157" d="M-297.771-148.289l-2.817,2.009c-4.931,3.286-7.012,1.992-12.2.59l-14.76-3.949a3.816,3.816,0,0,0-1.435-.267h-4.442m34.733-9.288,12.387-6.362a3.837,3.837,0,0,1,5.112,1.2,3.819,3.819,0,0,1-1.2,5.113l-4.943,3.52m-5.21,3.71,0,0" transform="translate(333.426 166.045)" fill="none" stroke="#000" stroke-linecap="round" stroke-linejoin="round" stroke-miterlimit="10" stroke-width="1.2"/>
          </g>
        </g>
      </g>
    </g>
  </g>
</svg>
