<svg xmlns="http://www.w3.org/2000/svg" xmlns:xlink="http://www.w3.org/1999/xlink" width="60.313" height="64.949" viewBox="0 0 60.313 64.949">
  <defs>
    <filter id="Trazado_771226" x="0" y="0" width="60.313" height="64.949" filterUnits="userSpaceOnUse">
      <feOffset dy="3" input="SourceAlpha"/>
      <feGaussianBlur stdDeviation="3" result="blur"/>
      <feFlood flood-opacity="0.161"/>
      <feComposite operator="in" in2="blur"/>
      <feComposite in="SourceGraphic"/>
    </filter>
  </defs>
  <g id="Grupo_1098662" data-name="Grupo 1098662" transform="translate(-831 -936.917)">
    <g id="Grupo_1071655" data-name="Grupo 1071655" transform="translate(841 944)">
      <g transform="matrix(1, 0, 0, 1, -10, -7.08)" filter="url(#Trazado_771226)">
        <path id="Trazado_771226-2" data-name="Trazado 771226" d="M447.517,279.136V264.064a7.732,7.732,0,0,0-3.773-6.655l-12.36-7.329a7.582,7.582,0,0,0-7.5-.14l-12.665,6.885a7.728,7.728,0,0,0-4.02,6.795v15.21a7.733,7.733,0,0,0,3.68,6.6l11.847,7.255a7.583,7.583,0,0,0,7.5.242l13.177-6.949A7.727,7.727,0,0,0,447.517,279.136Z" transform="translate(-397.2 -241.94)" fill="#2ec49f" stroke="#fff" stroke-miterlimit="10" stroke-width="2"/>
      </g>
    </g>
    <g id="persona_1_" data-name="persona (1)" transform="translate(845.28 946.979)">
      <g id="Icons" transform="translate(0.581 0.592)">
        <path id="Trazado_838516" data-name="Trazado 838516" d="M21.4,47.1,23.5,45l2.1,2.1-.933,1.4H22.333Z" transform="translate(-9.503 -19.343)" fill="#f5f5f5"/>
        <path id="Trazado_838517" data-name="Trazado 838517" d="M7.641,46.391l2.548,5.522H1.582A.583.583,0,0,1,1,51.295c.093-2.2.671-4.729,1.738-5.8,1.749-1.749,7.592-3.5,7.592-3.5a.259.259,0,0,0,.047.058l-1.207,1.7L7.7,45.808a.583.583,0,0,0-.058.583Z" transform="translate(-0.998 -18.092)" fill="#607d8b"/>
        <path id="Trazado_838518" data-name="Trazado 838518" d="M11.16,45.808l1.469-2.053,1.207-1.7A.259.259,0,0,1,13.79,42s-.942.282-2.183.733l-.727,1.022L9.411,45.808a.583.583,0,0,0-.058.583L11.9,51.913H13.65L11.1,46.391a.583.583,0,0,1,.058-.583Z" transform="translate(-4.459 -18.092)" fill="#37474f"/>
        <path id="Trazado_838519" data-name="Trazado 838519" d="M26.33,42s-1.166,1.749-4.665,1.749c-3.114,0-4.379-1.388-4.618-1.691A.259.259,0,0,1,17,42Z" transform="translate(-7.669 -18.092)" fill="#f5f5f5"/>
        <path id="Trazado_838520" data-name="Trazado 838520" d="M42.409,51.32a.583.583,0,0,1-.583.618H33.394l2.548-5.522a.583.583,0,0,0-.058-.583l-1.539-2.158L33.19,42.06c.816.251,5.872,1.854,7.481,3.464,1.067,1.067,1.644,3.592,1.738,5.8Z" transform="translate(-14.419 -18.117)" fill="#607d8b"/>
        <path id="Trazado_838521" data-name="Trazado 838521" d="M40.671,45.524c-1.609-1.609-6.665-3.213-7.481-3.464l.562.785c1.82.672,4.168,1.674,5.17,2.678,1.067,1.067,1.644,3.592,1.738,5.8a.583.583,0,0,1-.583.618h1.749a.583.583,0,0,0,.583-.618C42.316,49.116,41.738,46.591,40.671,45.524Z" transform="translate(-14.419 -18.117)" fill="#37474f"/>
        <path id="Trazado_838522" data-name="Trazado 838522" d="M30.93,43.65l-2.6,2.6a.588.588,0,0,1-.828,0l-2.5-2.5c3.5,0,4.665-1.749,4.665-1.749s.041.012.111.035Z" transform="translate(-11.004 -18.092)" fill="#f5f5f5"/>
        <path id="Trazado_838523" data-name="Trazado 838523" d="M31.235,42.035c-.07-.023-.111-.035-.111-.035a3.372,3.372,0,0,1-1.033.882l.549.769L28.5,45.79l.461.461a.588.588,0,0,0,.828,0l2.6-2.6Z" transform="translate(-12.463 -18.092)" fill="#cfd8dc"/>
        <path id="Trazado_838524" data-name="Trazado 838524" d="M33.111,42.035C33.041,42.012,33,42,33,42h.087Z" transform="translate(-14.339 -18.092)" fill="none"/>
        <path id="Trazado_838525" data-name="Trazado 838525" d="M20.835,43.791l-2.5,2.5a.588.588,0,0,1-.828,0l-2.5-2.5,1.207-1.7c.239.3,1.5,1.691,4.618,1.691Z" transform="translate(-6.84 -18.134)" fill="#f5f5f5"/>
        <path id="Trazado_838526" data-name="Trazado 838526" d="M16.626,42.1l-.636.893a7.077,7.077,0,0,0,3.5.8l-2.041,2.041.461.461a.588.588,0,0,0,.828,0l2.5-2.5C18.13,43.791,16.865,42.4,16.626,42.1Z" transform="translate(-7.248 -18.134)" fill="#cfd8dc"/>
        <path id="Trazado_838527" data-name="Trazado 838527" d="M26.363,42S25.2,43.749,21.7,43.749c-3.114,0-4.379-1.388-4.618-1.691L17.121,42Z" transform="translate(-7.703 -18.092)" fill="#f5f5f5"/>
        <path id="Trazado_838528" data-name="Trazado 838528" d="M27.234,47.571l-2.548,5.522H14.9l-2.548-5.522a.583.583,0,0,1,.058-.583l1.469-2.053,2.5,2.5a.588.588,0,0,0,.828,0l.4-.4.933,1.4h2.332l.933-1.4.4.4a.588.588,0,0,0,.828,0l2.6-2.6,1.539,2.158A.583.583,0,0,1,27.234,47.571Z" transform="translate(-5.71 -19.272)" fill="#f5f5f5"/>
        <path id="Trazado_838529" data-name="Trazado 838529" d="M34.779,46.988,33.24,44.83l-1.021,1.021.811,1.136a.583.583,0,0,1,.058.583L30.54,53.093h1.749l2.548-5.522A.583.583,0,0,0,34.779,46.988Z" transform="translate(-13.314 -19.272)" fill="#cfd8dc"/>
        <path id="Trazado_838530" data-name="Trazado 838530" d="M25.6,47.1l-.933,1.4H22.333L21.4,47.1,23.5,45Z" transform="translate(-9.503 -19.343)" fill="#f5f5f5"/>
        <path id="Trazado_838531" data-name="Trazado 838531" d="M25.6,47.1l-.933,1.4H22.333L21.4,47.1,23.5,45Z" transform="translate(-9.503 -19.343)" fill="#02a9f4"/>
        <path id="Trazado_838532" data-name="Trazado 838532" d="M24.375,45l-.875.875L24.725,47.1l-.933,1.4h1.749l.933-1.4Z" transform="translate(-10.379 -19.343)" fill="#0377bc"/>
        <path id="Trazado_838533" data-name="Trazado 838533" d="M25.454,55.665,25.028,51H22.7l-.426,4.665Z" transform="translate(-9.866 -21.844)" fill="#02a9f4"/>
        <path id="Trazado_838534" data-name="Trazado 838534" d="M25.749,51H24l.426,4.665h1.749Z" transform="translate(-10.587 -21.844)" fill="#0377bc"/>
        <path id="Trazado_838535" data-name="Trazado 838535" d="M26.33,39.382s-1.166,1.749-4.665,1.749c-3.114,0-4.379-1.388-4.618-1.691A.259.259,0,0,1,17,39.382a8.929,8.929,0,0,0,.729-3.662H25.6a8.929,8.929,0,0,0,.729,3.662Z" transform="translate(-7.669 -15.474)" fill="#ffe0b2"/>
        <path id="Trazado_838536" data-name="Trazado 838536" d="M28.307,35.72H26.558a8.929,8.929,0,0,0,.729,3.662s-.975,1.449-3.8,1.707c.277.025.567.043.88.043,3.5,0,4.665-1.749,4.665-1.749a8.929,8.929,0,0,1-.729-3.662Z" transform="translate(-10.375 -15.474)" fill="#dfc49c"/>
        <path id="Trazado_838537" data-name="Trazado 838537" d="M22.584,5.039a7.4,7.4,0,0,0-3.837-1.05A7.306,7.306,0,0,0,13.8,5.867,6.139,6.139,0,0,0,11.749,10.4v3A2.326,2.326,0,0,0,10,15.658v.006a2.332,2.332,0,0,0,2.332,2.327v1.271a2.337,2.337,0,0,0,.8,1.761l3.207,2.8a2.32,2.32,0,0,0,1.534.577h1.749a2.32,2.32,0,0,0,1.534-.577l3.207-2.8a2.323,2.323,0,0,0,.706-1.1Z" transform="translate(-4.751 -2.246)" fill="#ffe0b2"/>
        <path id="Trazado_838538" data-name="Trazado 838538" d="M28.212,5.04a7.4,7.4,0,0,0-3.837-1.05,7.717,7.717,0,0,0-.867.054,7.306,7.306,0,0,1,2.955,1l2.484,14.881a2.323,2.323,0,0,1-.706,1.1l-3.207,2.8A2.32,2.32,0,0,1,23.5,24.4h1.749a2.32,2.32,0,0,0,1.534-.577l3.207-2.8a2.322,2.322,0,0,0,.706-1.1Z" transform="translate(-10.379 -2.246)" fill="#dfc49c"/>
        <circle id="Elipse_10538" data-name="Elipse 10538" cx="9.33" cy="9.33" r="9.33" transform="translate(15.162)" fill="#607d8b"/>
        <path id="Trazado_838539" data-name="Trazado 838539" d="M42.375,1c-.3,0-.587.017-.875.044a9.326,9.326,0,0,1,0,18.571c.288.027.58.044.875.044a9.33,9.33,0,1,0,0-18.66Z" transform="translate(-17.883 -1)" fill="#37474f"/>
        <circle id="Elipse_10539" data-name="Elipse 10539" cx="6.997" cy="6.997" r="6.997" transform="translate(17.494 2.332)" fill="#02a9f4"/>
        <path id="Trazado_838540" data-name="Trazado 838540" d="M42.375,5a6.986,6.986,0,0,0-.875.058,6.991,6.991,0,0,1,0,13.873A7,7,0,1,0,42.375,5Z" transform="translate(-17.883 -2.667)" fill="#0377bc"/>
        <path id="Trazado_838541" data-name="Trazado 838541" d="M53.121,43.735a1.749,1.749,0,0,1-1.606-1.054l-2.277-5.263a1.749,1.749,0,1,1,3.211-1.391l2.274,5.263a1.749,1.749,0,0,1-1.6,2.446Z" transform="translate(-21.048 -15.163)" fill="#607d8b"/>
        <path id="Trazado_838542" data-name="Trazado 838542" d="M55.356,41.29l-2.274-5.263a1.749,1.749,0,0,0-2.3-.91,1.609,1.609,0,0,0-.175.1,1.734,1.734,0,0,1,.727.811l2.274,5.263a1.744,1.744,0,0,1-.735,2.2,1.746,1.746,0,0,0,2.485-2.2Z" transform="translate(-21.679 -15.163)" fill="#37474f"/>
        <path id="Trazado_838543" data-name="Trazado 838543" d="M47.48,31.7l1.1,2.542,2.146-.927-1.1-2.542Z" transform="translate(-20.376 -13.411)" fill="#607d8b"/>
      </g>
      <g id="Icons_copy" data-name="Icons copy" transform="translate(-0.002 0.021)">
        <path id="Trazado_838549" data-name="Trazado 838549" d="M1.165,35H27.989a1.15,1.15,0,0,0,.839-.358,1.186,1.186,0,0,0,.327-.867c-.09-2.158-.641-4.917-1.908-6.185-1.637-1.633-6.389-3.193-7.567-3.562A8.408,8.408,0,0,1,19.1,21.1l1.478-1.293a2.957,2.957,0,0,0,.615-.764,9.781,9.781,0,0,0,6.154.519l.816,1.888a2.308,2.308,0,0,0,.072,1.633l2.277,5.263a2.332,2.332,0,0,0,2.141,1.4,2.309,2.309,0,0,0,.926-.193,2.332,2.332,0,0,0,1.214-3.067l-2.274-5.264a2.311,2.311,0,0,0-1.137-1.166l-.816-1.888a9.9,9.9,0,1,0-12.232-15.5,8.022,8.022,0,0,0-3.757-.92A7.867,7.867,0,0,0,9.232,3.783,6.692,6.692,0,0,0,7,8.75v2.588a2.912,2.912,0,0,0,.583,5.523v.746a2.921,2.921,0,0,0,1,2.2L10.054,21.1a8.408,8.408,0,0,1-.579,2.925c-1.178.369-5.93,1.924-7.567,3.562C.641,28.854.09,31.614,0,33.771a1.187,1.187,0,0,0,.327.868,1.15,1.15,0,0,0,.84.357Zm14.266-5.831H13.723l-.494-.742,1.349-1.349,1.349,1.349Zm-1.488,1.166h1.268l.319,3.494H13.624Zm2.4-.432.432-.648a1.155,1.155,0,0,0,1.542-.087L20.383,27.1l1.108,1.547L19.1,33.826H16.7Zm2.83-4.493.525.732-2.2,2.2L15.9,26.746a6.254,6.254,0,0,0,3.274-1.34ZM11.662,28.34l-2.2-2.2.525-.732a6.247,6.247,0,0,0,3.274,1.341ZM8.773,27.1l2.064,2.064a1.163,1.163,0,0,0,1.542.087l.432.648-.359,3.924h-2.4L7.67,28.647Zm19.216,6.729H20.382l2.166-4.694a1.166,1.166,0,0,0-.117-1.166l-1.683-2.358c1.969.694,4.665,1.8,5.67,2.8C27.259,29.247,27.888,31.421,27.989,33.829Zm5.735-6.881a1.166,1.166,0,0,1-.606,1.534,1.185,1.185,0,0,1-1.534-.6l-2.277-5.266a1.166,1.166,0,1,1,2.14-.928Zm-3.7-7.094a2.1,2.1,0,0,0-1.075.466l-.476-1.1a9.89,9.89,0,0,0,1.075-.466ZM25.073,1.175a8.747,8.747,0,1,1-8.747,8.747,8.747,8.747,0,0,1,8.747-8.747ZM8.746,17.607V16.336a.583.583,0,0,0-.583-.583,1.745,1.745,0,0,1-.44-3.435.583.583,0,0,0,.44-.565v-3a5.54,5.54,0,0,1,1.858-4.107,6.706,6.706,0,0,1,4.556-1.724,6.881,6.881,0,0,1,2.9.641,9.888,9.888,0,0,0,2.673,14.956,1.8,1.8,0,0,1-.345.413L16.6,21.734a1.743,1.743,0,0,1-1.15.433H13.7a1.744,1.744,0,0,1-1.15-.433l-3.207-2.8a1.755,1.755,0,0,1-.6-1.322Zm3.039,5a2.906,2.906,0,0,0,1.918.722h1.749a2.908,2.908,0,0,0,1.918-.722l.628-.55a9.252,9.252,0,0,0,.567,2.329,5.51,5.51,0,0,1-3.988,1.275,5.518,5.518,0,0,1-3.988-1.274,9.261,9.261,0,0,0,.567-2.33Zm-9.052,5.8c1-1,3.7-2.106,5.67-2.8l-1.68,2.353a1.166,1.166,0,0,0-.117,1.17l2.163,4.688-7.6,0C1.266,31.421,1.9,29.247,2.733,28.411Z" transform="translate(0.002 -0.021)"/>
        <path id="Trazado_838550" data-name="Trazado 838550" d="M37.58,19.161A7.58,7.58,0,1,0,30,11.58,7.58,7.58,0,0,0,37.58,19.161Zm0-13.995a6.414,6.414,0,1,1-6.414,6.414A6.414,6.414,0,0,1,37.58,5.166Z" transform="translate(-12.506 -1.68)"/>
        <g id="Grupo_1098831" data-name="Grupo 1098831" transform="translate(21.576 5.236)">
          <path id="Trazado_838551" data-name="Trazado 838551" d="M37.583,10.749A.583.583,0,0,0,38,10.579L38.579,10a.583.583,0,1,0-.825-.825l-.583.583a.583.583,0,0,0,.412,1Z" transform="translate(-37 -9)" fill="#f5f5f5"/>
          <path id="Trazado_838552" data-name="Trazado 838552" d="M38.171,13.911a.583.583,0,0,0,.825,0L41.911,11a.583.583,0,1,0-.825-.825l-2.916,2.916A.583.583,0,0,0,38.171,13.911Z" transform="translate(-37.417 -9.417)" fill="#f5f5f5"/>
        </g>
      </g>
    </g>
  </g>
</svg>
