<svg xmlns="http://www.w3.org/2000/svg" width="78.554" height="78.554" viewBox="0 0 78.554 78.554">
  <g id="Grupo_1071813" data-name="Grupo 1071813" transform="translate(-184 -1136.203)">
    <g id="Grupo_995637" data-name="Grupo 995637" transform="translate(184 1136.203)">
      <path id="Trazado_771736" data-name="Trazado 771736" d="M39.277,0A39.277,39.277,0,1,1,0,39.277,39.277,39.277,0,0,1,39.277,0Z" transform="translate(0 0)" fill="#ff981e"/>
    </g>
    <g id="servidor-en-la-nube_1_" data-name="servidor-en-la-nube (1)" transform="translate(180.547 1132.231)">
      <path id="Trazado_771748" data-name="Trazado 771748" d="M27.453,75.868a16.61,16.61,0,0,1,31.66-6.848c10.65-9,24.024,2.12,17.659,13.527a8.11,8.11,0,0,1,0,16.22H27.453a11.45,11.45,0,0,1,0-22.9Z" transform="translate(-7.712 -44.391)" fill="#2dcffc" fill-rule="evenodd"/>
      <path id="Trazado_771749" data-name="Trazado 771749" d="M82.425,117.023l-.124,0H32.981a11.469,11.469,0,0,1-9.736-5.444c-2.419-6.331.717-14.462,9.652-14.462.188-17.549,21.369-22.751,28.792-6.848,10.65-9,24.024,2.12,17.659,13.527,9.539,0,9.794,10.83,3.076,13.225Z" transform="translate(-13.241 -62.648)" fill="#66deff" fill-rule="evenodd"/>
      <path id="Trazado_771750" data-name="Trazado 771750" d="M388.524,91.435a2.527,2.527,0,1,1-3.574,0A2.527,2.527,0,0,1,388.524,91.435Z" transform="translate(-323.082 -71.167)" fill="#f9ac00" fill-rule="evenodd"/>
      <path id="Trazado_771751" data-name="Trazado 771751" d="M385.787,96.667a2.528,2.528,0,1,1,.836-.555A2.519,2.519,0,0,1,385.787,96.667Z" transform="translate(-323.082 -72.27)" fill="#fdc72e" fill-rule="evenodd"/>
      <path id="Trazado_771752" data-name="Trazado 771752" d="M156.264,262.065h28.625v8.551H156.264Z" transform="translate(-127.846 -217.945)" fill="#2f51c3"/>
      <path id="Trazado_771816" data-name="Trazado 771816" d="M5.081,0H29.467a5.081,5.081,0,1,1,0,10.161H5.081A5.081,5.081,0,0,1,5.081,0Z" transform="translate(25.457 51.541)" fill="#6774af"/>
      <path id="Trazado_771815" data-name="Trazado 771815" d="M5.081,0H29.467a5.081,5.081,0,1,1,0,10.161H5.081A5.081,5.081,0,0,1,5.081,0Z" transform="translate(25.457 36.28)" fill="#6774af"/>
      <path id="Trazado_771753" data-name="Trazado 771753" d="M187.408,236.42a1.291,1.291,0,1,1,0-2.583h.1a1.291,1.291,0,1,1,0,2.583Z" transform="translate(-153.415 -193.768)" fill="#ff6161" fill-rule="evenodd"/>
      <path id="Trazado_771754" data-name="Trazado 771754" d="M295.781,236.42a1.291,1.291,0,0,1,0-2.583h5.811a1.291,1.291,0,1,1,0,2.583Z" transform="translate(-246.237 -193.768)" fill="#96ff96" fill-rule="evenodd"/>
      <path id="Trazado_771755" data-name="Trazado 771755" d="M160.312,236.42a1.291,1.291,0,1,1,0-2.583h.1a1.291,1.291,0,1,1,0,2.583Z" transform="translate(-130.206 -193.768)" fill="#fcdb35" fill-rule="evenodd"/>
      <path id="Trazado_771756" data-name="Trazado 771756" d="M136.97,313.782h29.447a1.349,1.349,0,0,1,1.345,1.345v.523h-28.4a1.349,1.349,0,0,0-1.345,1.345v3.736a1.349,1.349,0,0,0,1.345,1.345h28.4v.523a1.349,1.349,0,0,1-1.345,1.345H136.97a1.349,1.349,0,0,1-1.345-1.345v-7.471a1.349,1.349,0,0,1,1.345-1.345Z" transform="translate(-110.168 -262.241)" fill="#7986bf" fill-rule="evenodd"/>
      <path id="Trazado_771757" data-name="Trazado 771757" d="M225.262,433.131h6.221a1.357,1.357,0,0,1,1.356,1.357v6.221a1.357,1.357,0,0,1-1.357,1.357h-6.221a1.357,1.357,0,0,1-1.356-1.357v-6.221A1.357,1.357,0,0,1,225.262,433.131Z" transform="translate(-185.78 -364.464)" fill="#2dcffc"/>
      <rect id="Rectángulo_381954" data-name="Rectángulo 381954" width="6.809" height="6.9" rx="3.404" transform="translate(38.125 68.667)" fill="#66deff"/>
      <g id="Grupo_1071822" data-name="Grupo 1071822" transform="translate(6.999 7.605)">
        <path id="Trazado_771758" data-name="Trazado 771758" d="M187.408,342.77a1.291,1.291,0,1,1,0-2.583h.1a1.291,1.291,0,1,1,0,2.583Z" transform="translate(-160.414 -292.462)" fill="#ff6161" fill-rule="evenodd"/>
        <path id="Trazado_771759" data-name="Trazado 771759" d="M295.781,342.77a1.291,1.291,0,0,1,0-2.583h5.811a1.291,1.291,0,1,1,0,2.583Z" transform="translate(-253.236 -292.462)" fill="#96ff96" fill-rule="evenodd"/>
        <path id="Trazado_771760" data-name="Trazado 771760" d="M160.312,342.77a1.291,1.291,0,1,1,0-2.583h.1a1.291,1.291,0,1,1,0,2.583Z" transform="translate(-137.205 -292.462)" fill="#fcdb35" fill-rule="evenodd"/>
        <path id="Trazado_771761" data-name="Trazado 771761" d="M136.97,207.432h29.447a1.349,1.349,0,0,1,1.345,1.345v.523h-28.4a1.349,1.349,0,0,0-1.345,1.345v3.736a1.349,1.349,0,0,0,1.345,1.345h28.4v.523a1.349,1.349,0,0,1-1.345,1.345H136.97a1.349,1.349,0,0,1-1.345-1.345v-7.471a1.349,1.349,0,0,1,1.345-1.345Z" transform="translate(-117.167 -178.757)" fill="#7986bf" fill-rule="evenodd"/>
        <path id="Trazado_771762" data-name="Trazado 771762" d="M350.207,207.432h2.411a1.349,1.349,0,0,1,1.345,1.345v7.471a1.349,1.349,0,0,1-1.345,1.345h-2.411a1.349,1.349,0,0,0,1.345-1.345v-7.471A1.349,1.349,0,0,0,350.207,207.432Z" transform="translate(-300.957 -178.757)" fill="#495586" fill-rule="evenodd"/>
        <path id="Trazado_771763" data-name="Trazado 771763" d="M350.208,313.781h2.411a1.349,1.349,0,0,1,1.345,1.345V322.6a1.349,1.349,0,0,1-1.345,1.345h-2.411a1.349,1.349,0,0,0,1.345-1.345v-7.471A1.349,1.349,0,0,0,350.208,313.781Z" transform="translate(-300.958 -269.845)" fill="#495586" fill-rule="evenodd"/>
        <path id="Trazado_771764" data-name="Trazado 771764" d="M34.1,40.07h-.1a1.291,1.291,0,1,0,0,2.583h.1a1.291,1.291,0,1,0,0-2.583Zm-3.889,0h-.1a1.291,1.291,0,0,0,0,2.583h.1a1.291,1.291,0,1,0,0-2.583Zm25.148,0h-5.81a1.291,1.291,0,1,0,0,2.583h5.81a1.291,1.291,0,1,0,0-2.583Zm0,15.261h-5.81a1.292,1.292,0,0,0,0,2.583h5.81a1.292,1.292,0,0,0,0-2.583Zm-25.146,0h-.1a1.292,1.292,0,0,0,0,2.583h.1a1.292,1.292,0,0,0,0-2.583Zm3.887,0h-.1a1.292,1.292,0,1,0,0,2.583h.1a1.292,1.292,0,1,0,0-2.583Zm11.67,14.693a.067.067,0,0,0-.064-.064H39.481a.069.069,0,0,0-.066.064v6.222a.069.069,0,0,0,.066.064H45.7a.067.067,0,0,0,.064-.064ZM26.8,60.411a.058.058,0,0,1-.054-.053V52.886a.058.058,0,0,1,.054-.053H58.66a.059.059,0,0,1,.053.053v7.472a.058.058,0,0,1-.053.053H26.8Zm2.908-12.678v2.517H55.751V47.733ZM58.66,45.15H26.8a.058.058,0,0,1-.054-.054V37.625a.058.058,0,0,1,.054-.053H58.66a.058.058,0,0,1,.053.053V45.1a.058.058,0,0,1-.053.054Zm-34.5,7.935H19.74a10.158,10.158,0,0,1,0-20.317,1.292,1.292,0,0,0,1.291-1.278,15.319,15.319,0,0,1,29.2-6.316,1.29,1.29,0,0,0,2,.44,11.41,11.41,0,0,1,7.648-2.985A3.816,3.816,0,0,0,66.1,24.992c3.013,2.608,4.728,7.352,1.837,12.534a1.292,1.292,0,0,0,1.127,1.921,6.819,6.819,0,0,1,0,13.637H61.3v-.2A2.639,2.639,0,0,0,58.66,50.25h-.326V47.733h.326A2.639,2.639,0,0,0,61.3,45.1V37.625a2.639,2.639,0,0,0-2.635-2.636H26.8a2.64,2.64,0,0,0-2.637,2.636V45.1A2.64,2.64,0,0,0,26.8,47.733h.324V50.25H26.8a2.64,2.64,0,0,0-2.637,2.636v.2ZM62.781,22.93a1.236,1.236,0,1,0,0-1.747A1.229,1.229,0,0,0,62.781,22.93ZM76.6,73.135a1.292,1.292,0,0,1-1.291,1.292H48.35v1.82A2.651,2.651,0,0,1,45.7,78.893H39.481a2.651,2.651,0,0,1-2.649-2.647v-1.82H10.149a1.292,1.292,0,1,1,0-2.583H36.832v-1.82a2.651,2.651,0,0,1,2.649-2.647H41.3V62.994H26.8a2.64,2.64,0,0,1-2.637-2.636V55.669H19.74A12.742,12.742,0,0,1,18.5,30.245a17.9,17.9,0,0,1,33.328-7.575,13.716,13.716,0,0,1,8.563-2.6,3.84,3.84,0,0,1,.559-.712,3.817,3.817,0,0,1,6.458,3.371,12.084,12.084,0,0,1,4.22,6.476,12.484,12.484,0,0,1-.618,7.865,9.4,9.4,0,0,1-1.954,18.6H61.3v4.689a2.639,2.639,0,0,1-2.635,2.636H43.882v4.383H45.7a2.651,2.651,0,0,1,2.648,2.647v1.82H75.311A1.292,1.292,0,0,1,76.6,73.135ZM62.22,15.475a7.315,7.315,0,0,1,6.063,1.954,7.314,7.314,0,0,1,1.953,6.062,1.291,1.291,0,0,0,1.152,1.417c.045,0,.089.007.134.007a1.29,1.29,0,0,0,1.283-1.16A9.556,9.556,0,0,0,61.956,12.906a1.291,1.291,0,1,0,.264,2.569Zm.535-5.21a11.564,11.564,0,0,1,9.585,3.106,11.56,11.56,0,0,1,3.105,9.584A1.291,1.291,0,0,0,76.6,24.372a1.274,1.274,0,0,0,.135.007,1.292,1.292,0,0,0,1.283-1.16,14.1,14.1,0,0,0-3.848-11.674A14.094,14.094,0,0,0,62.492,7.7a1.291,1.291,0,1,0,.264,2.569ZM24.272,30.81a1.327,1.327,0,0,0,.2.016,1.29,1.29,0,0,0,1.272-1.091,10.545,10.545,0,0,1,11.185-8.928A1.291,1.291,0,0,0,37.1,18.23,13.183,13.183,0,0,0,23.2,29.334a1.293,1.293,0,0,0,1.077,1.477Z" transform="translate(-6.999 -7.605)" fill="#021047" fill-rule="evenodd"/>
      </g>
    </g>
  </g>
</svg>
