<svg xmlns="http://www.w3.org/2000/svg" width="78.554" height="78.554" viewBox="0 0 78.554 78.554">
  <g id="Grupo_1085083" data-name="Grupo 1085083" transform="translate(-184 -1136.203)">
    <g id="Grupo_995637" data-name="Grupo 995637" transform="translate(184 1136.203)">
      <path id="Trazado_771736" data-name="Trazado 771736" d="M39.277,0A39.277,39.277,0,1,1,0,39.277,39.277,39.277,0,0,1,39.277,0Z" transform="translate(0 0)" fill="#ff981e"/>
    </g>
    <g id="soporte-tecnico_3_" data-name="soporte-tecnico (3)" transform="translate(189.092 1141.055)">
      <path id="Trazado_837953" data-name="Trazado 837953" d="M157.054,247.914l6.517-6.121-2.587-.481a3.084,3.084,0,0,1-2.147-2.973v-5.676h-12.1v5.676a3.084,3.084,0,0,1-2.147,2.973l-2.587.481,6.517,6.121a6.235,6.235,0,0,0,8.537,0Zm0,0" transform="translate(-121.87 -201.051)" fill="#ffe7cf"/>
      <path id="Trazado_837954" data-name="Trazado 837954" d="M220.6,240.794a3.084,3.084,0,0,0,2.147,2.973l3.029.931,2.357.657,3.791-3.561-2.587-.481a3.084,3.084,0,0,1-2.147-2.973v-5.676H220.6Zm0,0" transform="translate(-189.817 -201.152)" fill="#efd5bd"/>
      <path id="Trazado_837955" data-name="Trazado 837955" d="M139.743,23.544h-.8v-3.7a10.907,10.907,0,0,0-3.693-8.287,11.98,11.98,0,0,0-16.011,0,10.9,10.9,0,0,0-3.693,8.287v3.7h-.8a2.117,2.117,0,0,0-2.117,2.117v2.346a2.117,2.117,0,0,0,2.117,2.117h.8a10.883,10.883,0,0,0,3.69,8.039,11.98,11.98,0,0,0,16.011,0,10.883,10.883,0,0,0,3.69-8.039h.8a2.117,2.117,0,0,0,2.117-2.117V25.661A2.117,2.117,0,0,0,139.743,23.544Zm0,0" transform="translate(-96.388 -7.385)" fill="#ffe7cf"/>
      <path id="Trazado_837956" data-name="Trazado 837956" d="M215.365,23.544h-.8v-3.7a10.907,10.907,0,0,0-3.693-8.287A11.872,11.872,0,0,0,199.59,8.966a12.559,12.559,0,0,1,4.727,2.594,10.907,10.907,0,0,1,3.693,8.287v2.761l0,7.517a10.886,10.886,0,0,1-3.69,8.039,12.567,12.567,0,0,1-4.727,2.594,11.871,11.871,0,0,0,11.284-2.594,10.884,10.884,0,0,0,3.69-8.039h.8a2.117,2.117,0,0,0,2.117-2.117V25.661a2.117,2.117,0,0,0-2.117-2.117Zm0,0" transform="translate(-171.476 -7.385)" fill="#efd5bd"/>
      <path id="Trazado_837957" data-name="Trazado 837957" d="M45.921,294.083s-5.331,7.106-8.224,7.106-8.224-7.106-8.224-7.106a1.387,1.387,0,0,0-1.14-.2l-12.148,3.175a8.42,8.42,0,0,0-6.277,6.523L7.535,316.607a2.331,2.331,0,0,0,2.4,2.665H65.463a2.331,2.331,0,0,0,2.4-2.665l-2.372-13.026a8.422,8.422,0,0,0-6.277-6.523l-12.148-3.175a1.388,1.388,0,0,0-1.141.2Zm0,0" transform="translate(-6.519 -253.427)" fill="#13ca43"/>
      <path id="Trazado_837958" data-name="Trazado 837958" d="M283.961,316.607l-2.225-13.026a8.208,8.208,0,0,0-5.886-6.523l-11.392-3.175a1.235,1.235,0,0,0-1.069.2,43.607,43.607,0,0,1-3.075,3.814l10.361,2.887a5.926,5.926,0,0,1,4.25,4.711l2.354,13.776h4.435a2.28,2.28,0,0,0,2.248-2.664Zm0,0" transform="translate(-222.618 -253.427)" fill="#0c9430"/>
      <path id="Trazado_837959" data-name="Trazado 837959" d="M123.766,293.24l7.649,7.256-4.856,1.654a3.1,3.1,0,0,1-3.335-.893l-5.8-6.617,5.643-1.573a.728.728,0,0,1,.7.173Zm0,0" transform="translate(-100.98 -253.44)" fill="#baced8"/>
      <path id="Trazado_837960" data-name="Trazado 837960" d="M232.387,293.24l-7.649,7.256,4.856,1.654a3.1,3.1,0,0,0,3.335-.893l5.8-6.617-5.643-1.573a.729.729,0,0,0-.7.173Zm0,0" transform="translate(-193.264 -253.44)" fill="#baced8"/>
      <path id="Trazado_837961" data-name="Trazado 837961" d="M334.112,337.9h-.758a1.041,1.041,0,0,1-.987-.715,9.092,9.092,0,0,0-.495-1.2,1.043,1.043,0,0,1,.191-1.205l.536-.536a1.038,1.038,0,0,0,0-1.469l-1.613-1.613a1.039,1.039,0,0,0-1.469,0l-.536.536a1.042,1.042,0,0,1-1.2.191,9.076,9.076,0,0,0-1.2-.495,1.041,1.041,0,0,1-.715-.987v-.758a1.039,1.039,0,0,0-1.039-1.039h-2.281a1.039,1.039,0,0,0-1.039,1.039v.758a1.041,1.041,0,0,1-.715.987,9.022,9.022,0,0,0-1.2.495,1.043,1.043,0,0,1-1.205-.191l-.536-.536a1.039,1.039,0,0,0-1.469,0l-1.613,1.613a1.039,1.039,0,0,0,0,1.469l.536.536a1.043,1.043,0,0,1,.191,1.205,9.022,9.022,0,0,0-.495,1.2,1.041,1.041,0,0,1-.987.715h-.758a1.039,1.039,0,0,0-1.039,1.039v2.281a1.039,1.039,0,0,0,1.039,1.039h.758a1.041,1.041,0,0,1,.987.715,9.078,9.078,0,0,0,.495,1.2,1.042,1.042,0,0,1-.191,1.2l-.536.536a1.039,1.039,0,0,0,0,1.469l1.613,1.613a1.038,1.038,0,0,0,1.469,0l.536-.536a1.043,1.043,0,0,1,1.205-.191,9.092,9.092,0,0,0,1.2.495,1.041,1.041,0,0,1,.715.986v.758a1.039,1.039,0,0,0,1.039,1.039h2.281a1.039,1.039,0,0,0,1.039-1.039v-.758a1.041,1.041,0,0,1,.715-.986,9.147,9.147,0,0,0,1.2-.495,1.042,1.042,0,0,1,1.2.191l.536.536a1.038,1.038,0,0,0,1.469,0l1.613-1.613a1.038,1.038,0,0,0,0-1.469l-.536-.536a1.042,1.042,0,0,1-.191-1.2,9.149,9.149,0,0,0,.495-1.2,1.041,1.041,0,0,1,.987-.715h.758a1.039,1.039,0,0,0,1.039-1.039v-2.281A1.039,1.039,0,0,0,334.112,337.9Zm-10.425,5.964a3.785,3.785,0,1,1,3.785-3.785A3.785,3.785,0,0,1,323.687,343.866Zm0,0" transform="translate(-267.762 -283.673)" fill="#e1effb"/>
      <path id="Trazado_837962" data-name="Trazado 837962" d="M143.878,9.384l-7.3-1.675a8.633,8.633,0,0,0-3.931.016l-6.851,1.63a5.736,5.736,0,0,0-4.407,5.58v6.486h26.945V14.974a5.735,5.735,0,0,0-4.453-5.59Zm0,0" transform="translate(-103.982 -6.514)" fill="#0c9430"/>
      <path id="Trazado_837963" data-name="Trazado 837963" d="M210.583,9.384l-7.3-1.675a8.641,8.641,0,0,0-3.931.016l-1.259.3,5.925,1.359a5.735,5.735,0,0,1,4.453,5.59v6.448h6.568V14.974a5.735,5.735,0,0,0-4.453-5.59Zm0,0" transform="translate(-170.229 -6.514)" fill="#05681f"/>
      <path id="Trazado_837964" data-name="Trazado 837964" d="M145.125,100.96a34.428,34.428,0,0,0-20.532,0,2.181,2.181,0,0,1-2.742-1.524l-.465-1.728a37.593,37.593,0,0,1,26.945,0q-.232.864-.465,1.728a2.181,2.181,0,0,1-2.742,1.524Zm0,0" transform="translate(-103.981 -82.37)" fill="#05681f"/>
      <path id="Trazado_837965" data-name="Trazado 837965" d="M125.439,410.546h-7.455a.558.558,0,0,1-.558-.558v-2.567a.558.558,0,0,1,.558-.558h7.455a.558.558,0,0,1,.558.558v2.567A.558.558,0,0,1,125.439,410.546Zm0,0" transform="translate(-101.089 -352.054)" fill="#ffb123"/>
      <path id="Trazado_837966" data-name="Trazado 837966" d="M396.139,337.9h-.758a1.041,1.041,0,0,1-.987-.715,9.088,9.088,0,0,0-.495-1.2,1.042,1.042,0,0,1,.191-1.205l.536-.536a1.038,1.038,0,0,0,0-1.469l-1.613-1.613a1.039,1.039,0,0,0-1.469,0l-.536.536a1.042,1.042,0,0,1-1.2.191,9.076,9.076,0,0,0-1.2-.495,1.041,1.041,0,0,1-.715-.987v-.758a1.039,1.039,0,0,0-1.039-1.039h-2.281a1.039,1.039,0,0,0-1.026.875,11.468,11.468,0,0,1,0,21.176,1.039,1.039,0,0,0,1.026.875h2.281a1.039,1.039,0,0,0,1.039-1.039v-.758a1.041,1.041,0,0,1,.715-.986,9.147,9.147,0,0,0,1.2-.495,1.042,1.042,0,0,1,1.2.191l.536.536a1.038,1.038,0,0,0,1.469,0l1.613-1.613a1.038,1.038,0,0,0,0-1.469l-.536-.536a1.041,1.041,0,0,1-.191-1.2,9.145,9.145,0,0,0,.495-1.2,1.041,1.041,0,0,1,.987-.715h.758a1.039,1.039,0,0,0,1.039-1.039v-2.281A1.039,1.039,0,0,0,396.139,337.9Zm0,0" transform="translate(-329.788 -283.673)" fill="#baced8"/>
      <path id="Trazado_837967" data-name="Trazado 837967" d="M66.233,52.758h-.8a.067.067,0,0,1-.063-.048,10.305,10.305,0,0,0-.58-1.365.066.066,0,0,1,.009-.079l.567-.553a2.044,2.044,0,0,0,0-2.942l-1.706-1.664a2.173,2.173,0,0,0-3.018,0l-.567.553a.069.069,0,0,1-.08.008,10.955,10.955,0,0,0-1.4-.565.066.066,0,0,1-.049-.061v-.782a2.11,2.11,0,0,0-2.134-2.08h-.886a9.782,9.782,0,0,0-2.894-1.318l-12.516-3.4a1.857,1.857,0,0,0-1.187.075,2.435,2.435,0,0,1-.485-1.395V33.763a15.433,15.433,0,0,0,1.709-1.248,12.063,12.063,0,0,0,4.2-8.051A3.235,3.235,0,0,0,47.5,21.273v-2.42a3.15,3.15,0,0,0-1.4-2.624l.162-.588a.978.978,0,0,0,.035-.282V10.8a1.035,1.035,0,0,0-2.069,0V13.95a41.634,41.634,0,0,0-26.444,0V8.688A4.918,4.918,0,0,1,21.65,3.913L28.9,2.231a8.356,8.356,0,0,1,3.688-.015l7.728,1.728a5,5,0,0,1,3.385,2.6A1.047,1.047,0,0,0,45.087,7a1,1,0,0,0,.467-1.352,7.054,7.054,0,0,0-4.776-3.672L33.05.25a10.481,10.481,0,0,0-4.63.019L21.171,1.951a6.94,6.94,0,0,0-5.459,6.737v6.671a.969.969,0,0,0,.008.147.03.03,0,0,0,0,.007l0,.015c0,.005,0,.011,0,.016v0a1.061,1.061,0,0,0,.025.11l.158.57A3.15,3.15,0,0,0,14.5,18.854v2.42a3.235,3.235,0,0,0,3.148,3.191,12.063,12.063,0,0,0,4.2,8.051,15.559,15.559,0,0,0,1.709,1.249v3.378a2.435,2.435,0,0,1-.485,1.395,1.857,1.857,0,0,0-1.187-.075l-12.516,3.4a9.605,9.605,0,0,0-6.971,7.531l-.522,2.979a1.011,1.011,0,0,0,.845,1.164,1.046,1.046,0,0,0,.175.015,1.028,1.028,0,0,0,1.019-.839l.522-2.979a7.562,7.562,0,0,1,5.487-5.928L15.851,42.2l5.707,6.348.036.039.009.01.031.033,0,.006.036.037.009.009.031.032.007.006.037.037.008.007.031.03.009.008.038.035.005.006.033.029.011.009.038.034,0,0,.037.032.011.009.035.029,0,0,.039.032.011.009.031.025.01.008.039.03.011.008.03.023.013.01.039.028.01.007.032.022.013.009.04.028.007,0,.034.023.015.009.032.02.011.008.038.024.017.01.028.017.015.009.039.023.016.009.027.016.017.01.038.022.018.011.025.014.02.011.03.016.026.014.026.013.022.011.022.011.036.017.023.011.024.011.022.009L23,49.6l.028.013.026.012.016.007.027.012.01,0,.054.022.016.006.027.011.017.007.048.018.014.005.03.011.011,0,.06.021.006,0,.032.011.011,0,.1.032.009,0,.1.029.009,0,.106.027.005,0,.035.008h0l.071.016h0l.036.007h.005l.109.02.008,0,.108.017h.007l.11.015h0l.037,0h0l.075.007h0l.038,0h0l.112.008h.007l.108,0h.011l.106,0H24.8c.124,0,.248-.005.372-.016h0l.079-.007c.078-.008.156-.018.233-.03h.006l.032-.005.009,0,.031-.005.01,0,.029-.005.013,0,.027-.005.014,0,.027-.006.013,0,.029-.006.009,0,.1-.022.017,0,.023-.006.019,0,.022-.006.019,0,.022-.006.021-.006.02-.006.02-.006.02-.006.023-.007.018-.005.024-.007.018-.005.026-.008.015,0,.041-.014,4.8-1.6,4.8,1.6.042.014.012,0,.029.009.016,0,.026.008.017,0,.024.007.018.005.022.006.02.005.021.006.022.006.019.005.022.005.021.005.02.005.016,0,.1.022.009,0,.028.006.013,0,.025.005.017,0,.023,0,.018,0,.023,0,.018,0,.024,0,.016,0,.025,0,.016,0,.026,0,.01,0,.1.014h.012l.026,0,.016,0,.024,0,.017,0,.024,0,.018,0,.023,0,.019,0,.022,0,.019,0,.023,0h.018l.023,0h.041l.032,0h.306l.046,0h.006l.053,0h.008l.047,0h.008l.107-.008h.007l.107-.011h.006l.107-.014h.006l.051-.008h0l.055-.009h0L38,49.914h0l.107-.021h0l.105-.024.006,0,.105-.026,0,0,.05-.014h0l.052-.015h0l.049-.015,0,0,.1-.033,0,0,.1-.035.008,0,.1-.037.007,0,.045-.018,0,0,.05-.02,0,0,.044-.018.008,0,.047-.022,0,0,.043-.019.01,0,.092-.045.011-.006.043-.022h0l.045-.024.011-.006.038-.02.007,0,.044-.024.012-.007.034-.019.012-.007.042-.025.01-.006.033-.02.013-.008.041-.026.006,0,.038-.024.011-.007.038-.026,0,0,.04-.028.013-.009.03-.022.012-.008.038-.028.013-.01.029-.022.012-.009.038-.029.012-.01.027-.022.014-.012.037-.03.009-.007.03-.025.014-.011.032-.028.009-.008.033-.03.013-.012.03-.027.009-.007L40.2,48.8l.013-.013.025-.024.012-.012.035-.034.01-.009.027-.027.012-.012.034-.036.005-.006.03-.032.01-.011.035-.038L46.154,42.2l5.918,1.608c.105.028.209.059.312.092a2.041,2.041,0,0,0-.524,1.364v.782a.066.066,0,0,1-.049.061,10.807,10.807,0,0,0-1.4.565.07.07,0,0,1-.08-.008l-.567-.553a2.175,2.175,0,0,0-3.017,0l-1.706,1.664a2.045,2.045,0,0,0,0,2.942l.567.553a.065.065,0,0,1,.009.079,10.316,10.316,0,0,0-.58,1.365.066.066,0,0,1-.063.048h-.8a2.11,2.11,0,0,0-2.134,2.08v2.353a2.11,2.11,0,0,0,2.134,2.08h.8a.067.067,0,0,1,.063.048,10.268,10.268,0,0,0,.58,1.365.066.066,0,0,1-.009.079l-.567.553a2.046,2.046,0,0,0,0,2.942l.5.483H3.451A1.392,1.392,0,0,1,2.4,64.265a1.318,1.318,0,0,1-.3-1.093L3.1,57.43a1.011,1.011,0,0,0-.845-1.164,1.032,1.032,0,0,0-1.194.824L.053,62.833a3.293,3.293,0,0,0,.763,2.733,3.478,3.478,0,0,0,2.635,1.193h48.41v.01a2.11,2.11,0,0,0,2.134,2.08h2.413a2.11,2.11,0,0,0,2.134-2.08v-.782a.066.066,0,0,1,.049-.061,10.863,10.863,0,0,0,1.4-.565.069.069,0,0,1,.081.008l.567.553a2.173,2.173,0,0,0,3.018,0l1.706-1.664a2.044,2.044,0,0,0,0-2.942l-.567-.553a.065.065,0,0,1-.009-.078,10.237,10.237,0,0,0,.58-1.366.068.068,0,0,1,.063-.048h.8a2.11,2.11,0,0,0,2.134-2.08V54.839a2.11,2.11,0,0,0-2.134-2.08ZM31,13.812a40.224,40.224,0,0,1,13.011,2.2l-.245.889a1.243,1.243,0,0,1-.618.769,1.279,1.279,0,0,1-.981.1,38.285,38.285,0,0,0-22.12-.063l-.214.064a1.282,1.282,0,0,1-.981-.1,1.337,1.337,0,0,1-.188-.123l-.049-.04-.047-.043a1.232,1.232,0,0,1-.334-.562l-.032-.116-.078-.283v0l-.134-.487A40.224,40.224,0,0,1,31,13.812Zm-7.8,17.175a10.116,10.116,0,0,1-3.545-7.551,1.022,1.022,0,0,0-1.034-.986H17.78a1.192,1.192,0,0,1-1.206-1.176v-2.42a1.138,1.138,0,0,1,.1-.475l.006.01.012.016.013.02.014.019.016.023.021.028.012.017.015.019.013.017.015.019.013.017.016.019.013.016.018.021.013.015.026.031.012.014.018.02.014.016.016.017.015.017.017.018.014.015.022.023.01.01.03.03.016.016.017.016.017.016.016.015.017.016.017.015.017.015.019.017.031.027.016.014.02.017.015.013.019.016.017.013.019.016.015.012.022.016.014.011.042.032.013.01.023.016.015.01.023.016.015.01.024.016.013.009.025.017.008,0,.064.04h0l.027.017.012.007.027.016.012.007.028.016.01.005.068.038.047.025h0l.045.023,0,0,.045.022h0l.094.044,0,0,.041.018.008,0,.041.017.006,0,.092.036.012,0,.034.013.013,0,.035.012.012,0,.045.015.011,0,.034.011.018.006.029.008.018,0,.031.009.015,0,.044.012.017,0,.029.007.021,0,.026.006.021,0,.025.005.022,0,.042.008.022,0,.024,0,.024,0,.023,0,.023,0,.025,0,.031,0,.032,0,.025,0,.022,0,.026,0,.02,0,.026,0,.02,0,.048,0,.018,0,.026,0h.189q.161,0,.322-.016h0l.122-.014h0l.039-.006.041-.006h0l.038-.006h0l.038-.007h0l.039-.007h0l.034-.007.007,0,.077-.017.006,0,.032-.008.009,0,.075-.019.009,0,.029-.008.01,0,.037-.011a36.125,36.125,0,0,1,18.074-.778l.345.075.163.037.262.06.3.071.2.048.328.083q.354.091.708.19.37.1.74.214a3.377,3.377,0,0,0,2.589-.263l.041-.023.014-.008.028-.016.015-.008.027-.015.015-.009.028-.017.012-.007.08-.051.011-.007.028-.019.013-.009.027-.018.012-.009.027-.019.011-.008.038-.028h0l.036-.027.01-.008.026-.02.012-.01.024-.02.012-.01.025-.02.011-.009.07-.061.011-.009.024-.022.012-.011.022-.021.012-.012.024-.023.009-.009.033-.033,0,0,.03-.031.01-.011.022-.024.011-.011.021-.023.01-.012.023-.026.008-.009.03-.035,0,0,.026-.031.009-.011.02-.025.009-.012.02-.025.009-.012.021-.028.006-.008.027-.037,0,0,.023-.033.008-.012.018-.026,0-.006a1.139,1.139,0,0,1,.1.475v2.42a1.192,1.192,0,0,1-1.206,1.176h-.848a1.022,1.022,0,0,0-1.034.987,10.116,10.116,0,0,1-3.545,7.55A13.138,13.138,0,0,1,36.932,32.3l-.05.026a11.991,11.991,0,0,1-5.77,1.579h-.02l-.089,0-.089,0h-.02a11.988,11.988,0,0,1-5.77-1.579l-.05-.027a13.156,13.156,0,0,1-1.866-1.313Zm2.325,16.861a2.281,2.281,0,0,1-2.417-.63L18.062,41.6l4.244-1.153,6.743,6.236Zm-.871-8.007a4.442,4.442,0,0,0,.975-2.7v-2.3a14.1,14.1,0,0,0,5.092,1.078h0l.079,0h.012l.07,0h.018l.085,0h.023l.085,0h.017l.07,0H31.2l.079,0a14.1,14.1,0,0,0,5.092-1.078v2.3a4.441,4.441,0,0,0,.974,2.7L31,45.707Zm14.232,7.377a2.28,2.28,0,0,1-2.417.63L32.957,46.68,39.7,40.444,43.944,41.6ZM66.3,57.192a.064.064,0,0,1-.065.063h-.8a2.131,2.131,0,0,0-2.025,1.428,8.219,8.219,0,0,1-.468,1.1,2.043,2.043,0,0,0,.4,2.407l.567.553a.062.062,0,0,1,0,.089L62.194,64.5a.062.062,0,0,1-.046.019A.061.061,0,0,1,62.1,64.5l-.567-.553a2.177,2.177,0,0,0-2.469-.387,8.725,8.725,0,0,1-1.129.456,2.085,2.085,0,0,0-1.465,1.975v.782a.064.064,0,0,1-.065.063H53.995a.063.063,0,0,1-.065-.063v-.782a2.086,2.086,0,0,0-1.465-1.975,8.723,8.723,0,0,1-1.129-.455,2.191,2.191,0,0,0-.962-.222,2.157,2.157,0,0,0-1.507.608L48.3,64.5a.066.066,0,0,1-.091,0L46.5,62.832a.062.062,0,0,1,0-.089l.567-.553a2.043,2.043,0,0,0,.4-2.408,8.241,8.241,0,0,1-.467-1.1,2.132,2.132,0,0,0-2.026-1.428h-.8a.064.064,0,0,1-.065-.063V54.839a.064.064,0,0,1,.065-.063h.8A2.13,2.13,0,0,0,47,53.348a8.338,8.338,0,0,1,.468-1.1,2.043,2.043,0,0,0-.4-2.407l-.567-.553a.062.062,0,0,1,0-.089l1.707-1.664a.065.065,0,0,1,.091,0l.567.553a2.177,2.177,0,0,0,2.469.387,8.681,8.681,0,0,1,1.129-.456,2.085,2.085,0,0,0,1.465-1.975v-.782a.064.064,0,0,1,.065-.063h2.413a.064.064,0,0,1,.065.063v.782a2.086,2.086,0,0,0,1.465,1.975,8.785,8.785,0,0,1,1.129.455,2.176,2.176,0,0,0,2.469-.386l.567-.553a.062.062,0,0,1,.045-.018.06.06,0,0,1,.046.018L63.9,49.2a.062.062,0,0,1,0,.089l-.567.553a2.043,2.043,0,0,0-.4,2.407,8.232,8.232,0,0,1,.468,1.1,2.131,2.131,0,0,0,2.026,1.427h.8a.064.064,0,0,1,.065.063v2.353Zm0,0" transform="translate(0)"/>
      <path id="Trazado_837968" data-name="Trazado 837968" d="M368.391,380.02a4.763,4.763,0,1,0,4.763,4.763A4.769,4.769,0,0,0,368.391,380.02Zm0,7.571a2.808,2.808,0,1,1,2.808-2.808A2.811,2.811,0,0,1,368.391,387.591Zm0,0" transform="translate(-312.466 -328.375)"/>
      <path id="Trazado_837969" data-name="Trazado 837969" d="M118.916,405a1.537,1.537,0,0,0,1.536-1.536V400.9a1.538,1.538,0,0,0-1.536-1.536h-7.455a1.538,1.538,0,0,0-1.536,1.536v2.567A1.538,1.538,0,0,0,111.461,405Zm-7.036-3.683H118.5v1.728h-6.616Zm0,0" transform="translate(-94.597 -345.197)"/>
    </g>
  </g>
</svg>
