<svg xmlns="http://www.w3.org/2000/svg" xmlns:xlink="http://www.w3.org/1999/xlink" width="60.313" height="64.949" viewBox="0 0 60.313 64.949">
  <defs>
    <filter id="Trazado_771226" x="0" y="0" width="60.313" height="64.949" filterUnits="userSpaceOnUse">
      <feOffset dy="3" input="SourceAlpha"/>
      <feGaussianBlur stdDeviation="3" result="blur"/>
      <feFlood flood-opacity="0.161"/>
      <feComposite operator="in" in2="blur"/>
      <feComposite in="SourceGraphic"/>
    </filter>
  </defs>
  <g id="Grupo_1098796" data-name="Grupo 1098796" transform="translate(-831 -936.917)">
    <g id="Grupo_1071655" data-name="Grupo 1071655" transform="translate(841 944)">
      <g transform="matrix(1, 0, 0, 1, -10, -7.08)" filter="url(#Trazado_771226)">
        <path id="Trazado_771226-2" data-name="Trazado 771226" d="M447.517,279.136V264.064a7.732,7.732,0,0,0-3.773-6.655l-12.36-7.329a7.582,7.582,0,0,0-7.5-.14l-12.665,6.885a7.728,7.728,0,0,0-4.02,6.795v15.21a7.733,7.733,0,0,0,3.68,6.6l11.847,7.255a7.583,7.583,0,0,0,7.5.242l13.177-6.949A7.727,7.727,0,0,0,447.517,279.136Z" transform="translate(-397.2 -241.94)" fill="#2ec49f" stroke="#fff" stroke-miterlimit="10" stroke-width="2"/>
      </g>
    </g>
    <g id="layer2" transform="translate(842.644 946.359)">
      <path id="path6751" d="M33.762,5.821a1.794,1.794,0,0,1,1.8,1.8V27.4a1.794,1.794,0,0,1-1.8,1.8H2.891A2.121,2.121,0,0,1,.808,27.251c0-7.829-.014-13.637-.014-21.43" transform="translate(0.335 6.697)" fill="#e4eff8"/>
      <path id="path6753" d="M35.484,27.359a1.794,1.794,0,0,1-1.8,1.8H2.814A2.191,2.191,0,0,1,.855,27.8a2,2,0,0,0,.76.157H32.486a1.794,1.794,0,0,0,1.8-1.8V6.37a1.783,1.783,0,0,0-.083-.516,1.789,1.789,0,0,1,1.282,1.715Z" transform="translate(0.413 6.739)" fill="#c4dcf0"/>
      <path id="path6755" d="M.794,6.367a2.4,2.4,0,0,1,4.8,0V25.549a1.794,1.794,0,0,1-1.8,1.8h-.9a2.093,2.093,0,0,0-2.1,2.1Z" transform="translate(0.335 4.353)" fill="#0068dc"/>
      <path id="path6757" d="M5.589,25.432a1.794,1.794,0,0,1-1.8,1.8h-.9a2.093,2.093,0,0,0-2.1,2.1v-3.09a2.088,2.088,0,0,1,.9-.207h.9a1.794,1.794,0,0,0,1.8-1.8V5.046a2.392,2.392,0,0,0-.214-.985A2.389,2.389,0,0,1,5.589,6.245Z" transform="translate(0.335 4.47)" fill="#3588cb"/>
      <path id="path6759" d="M12.187,11.782a1.2,1.2,0,1,1-1.2-1.2A1.2,1.2,0,0,1,12.187,11.782Z" transform="translate(11.72 12.725)" fill="#ff5151"/>
      <path id="path6761" d="M18.355,7.987A7.193,7.193,0,1,1,11.162.794a7.193,7.193,0,0,1,7.193,7.193Z" transform="translate(4.353 0.335)" fill="#ffca28"/>
      <path id="path6763" d="M10.289.794a7.193,7.193,0,0,0-5.63,2.729A7.187,7.187,0,0,1,14.72,13.65,7.191,7.191,0,0,0,10.289.794Z" transform="translate(5.226 0.335)" fill="#ecb200"/>
      <path id="path6765" d="M9.012,9.666a1.2,1.2,0,1,1-1.2-1.2A1.2,1.2,0,0,1,9.012,9.666Z" transform="translate(7.702 10.046)" fill="#ff5151"/>
      <path id="path6767" d="M13.3,7.408h2.4a.6.6,0,0,1,.6.6v1.8a.6.6,0,0,1-.6.6H13.3a.6.6,0,0,1-.6-.6v-1.8A.6.6,0,0,1,13.3,7.408Z" transform="translate(15.404 8.706)" fill="#549ad4"/>
      <path id="path6769" d="M13.3,7.408a.6.6,0,0,0-.6.6v1.8a.6.6,0,0,0,.6.6h2.4a.6.6,0,0,0,.6-.6v-.6H14.5a.6.6,0,0,1-.6-.6v-1.2Z" transform="translate(15.404 8.706)" fill="#3588cb"/>
      <path id="path6771" d="M13.494,2.618l5.994,3-5.994,2.4" transform="translate(16.408 2.644)" fill="#ff5151"/>
      <g id="Grupo_1098845" data-name="Grupo 1098845" transform="translate(14.316 5.261)">
        <path id="path6773" d="M13.494,2.618V8.013l1.2-.48V3.217Z" transform="translate(2.092 -2.618)" fill="#ff2929"/>
        <path id="path6775" d="M10.6,10.614a1.2,1.2,0,1,0,1.564,1.358A1.191,1.191,0,0,1,10.6,10.614Z" transform="translate(-2.596 7.502)" fill="#ff2929"/>
        <path id="path6777" d="M7.425,8.5A1.2,1.2,0,1,0,8.989,9.856,1.191,1.191,0,0,1,7.425,8.5Z" transform="translate(-6.615 4.824)" fill="#ff2929"/>
      </g>
      <path id="path6779" d="M7.722,8.322a7.734,7.734,0,0,0,.882,3.6H6.526v-1.2a3,3,0,0,0-6,0V33.8a2.693,2.693,0,0,0,2.7,2.7H34.1a2.4,2.4,0,0,0,2.4-2.4V14.317a2.392,2.392,0,0,0-2.4-2.4H30.5v-.858l5.62-2.248a.6.6,0,0,0,.044-1.089L30.5,4.89V4.724a.6.6,0,1,0-1.2,0v7.2H22.423a7.791,7.791,0,1,0-14.7-3.6ZM29.894.529a.6.6,0,0,0-.592.606v.6a.6.6,0,0,0,1.2,0v-.6a.6.6,0,0,0-.606-.606Zm-14.376,1.2a6.593,6.593,0,1,1-6.6,6.593,6.595,6.595,0,0,1,6.6-6.593ZM26.655,2.954l.424.425a.6.6,0,0,0,.85-.849L27.5,2.105a.571.571,0,0,0-.419-.175A.6.6,0,0,0,26.655,2.954Zm5.65-.849-.425.425a.6.6,0,0,0,.85.849l.425-.425a.6.6,0,0,0-.445-1.023.576.576,0,0,0-.405.174ZM14.915,4.127V8.322a.6.6,0,0,0,.178.425l1.8,1.8a.6.6,0,0,0,.85-.845L16.115,8.074V4.127a.6.6,0,0,0-1.2,0ZM30.5,6.233,34.434,8.2,30.5,9.771ZM3.525,8.919a1.8,1.8,0,0,1,1.8,1.8V29.9a1.2,1.2,0,0,1-1.2,1.2h-.9a2.694,2.694,0,0,0-1.5.448V10.721a1.8,1.8,0,0,1,1.8-1.8Zm3,4.2H9.373a7.795,7.795,0,0,0,12.285,0H29.3v2.4h-.6a1.2,1.2,0,0,0-1.2,1.2v1.8a.6.6,0,1,0,0,1.2H28.67l-4.737,3.478a1.794,1.794,0,0,0-2.421-.027L17.268,20.1a1.759,1.759,0,0,0,.046-.39,1.8,1.8,0,1,0-3.6,0,1.743,1.743,0,0,0,.064.445L7.954,24.632a.6.6,0,1,0,.735.947l5.756-4.423a1.8,1.8,0,0,0,2.185-.033l4.3,3.1a1.963,1.963,0,0,0-.02.284,1.8,1.8,0,0,0,3.6,0,1.682,1.682,0,0,0-.018-.24l6.2-4.557H32.3a.6.6,0,0,0,0-1.2v-1.8a1.2,1.2,0,0,0-1.2-1.2h-.6v-2.4h3.6a1.192,1.192,0,0,1,1.2,1.2V34.1a1.2,1.2,0,0,1-1.2,1.2H3.229a1.5,1.5,0,1,1,0-3h.9a2.4,2.4,0,0,0,2.4-2.4Zm14.983,3.593a.6.6,0,0,0-.425,1.027l.477.474-.477.477a.6.6,0,0,0,.85.845l.474-.474.477.474a.6.6,0,1,0,.845-.845l-.474-.477.474-.474a.6.6,0,0,0-.428-1.027.606.606,0,0,0-.417.177l-.477.477-.474-.477a.584.584,0,0,0-.425-.177Zm7.2,0h2.4v1.8H28.7ZM15.518,19.11a.6.6,0,0,1,.6.6.6.6,0,0,1-.6.6.6.6,0,1,1,0-1.2Zm14.987,3.6a.6.6,0,0,0-.43,1.022l.477.477-.477.475a.6.6,0,1,0,.85.85l.474-.477.477.477a.6.6,0,0,0,.845-.85l-.471-.475.475-.477a.6.6,0,0,0-.443-1.022.583.583,0,0,0-.407.177l-.477.475-.474-.475a.574.574,0,0,0-.42-.177Zm-7.8,1.2a.6.6,0,1,1-.6.6A.6.6,0,0,1,22.707,23.906ZM11.313,26.3a.6.6,0,0,0-.328.1l-1.8,1.2a.6.6,0,1,0,.664,1l1.465-.979,1.469.979a.6.6,0,0,0,.663,0l1.465-.979,1.466.979a.6.6,0,0,0,.667,0l1.465-.979,1.465.979a.6.6,0,1,0,.664-1l-1.8-1.2a.6.6,0,0,0-.664,0l-1.465.978L15.247,26.4a.6.6,0,0,0-.664,0l-1.465.978L11.649,26.4a.6.6,0,0,0-.336-.1Zm14.992,2.4a.6.6,0,1,0,0,1.2h.6a.6.6,0,1,0,0-1.2Zm3,0a.6.6,0,1,0,0,1.2h.6a.6.6,0,1,0,0-1.2Zm3,0a.6.6,0,1,0,0,1.2h.6a.6.6,0,1,0,0-1.2Zm-20.986.6a.6.6,0,0,0-.328.1L9.19,30.6a.6.6,0,1,0,.664,1l1.465-.978,1.469.978a.6.6,0,0,0,.663,0l1.465-.978,1.466.978a.6.6,0,0,0,.667,0l1.465-.978,1.465.978a.6.6,0,1,0,.664-1l-1.8-1.194a.6.6,0,0,0-.664,0l-1.465.973L15.247,29.4a.6.6,0,0,0-.664,0l-1.465.973L11.649,29.4a.6.6,0,0,0-.336-.1Z" transform="translate(0 0)"/>
    </g>
  </g>
</svg>
