<svg xmlns="http://www.w3.org/2000/svg" xmlns:xlink="http://www.w3.org/1999/xlink" width="60.313" height="64.949" viewBox="0 0 60.313 64.949">
  <defs>
    <filter id="Trazado_771226" x="0" y="0" width="60.313" height="64.949" filterUnits="userSpaceOnUse">
      <feOffset dy="3" input="SourceAlpha"/>
      <feGaussianBlur stdDeviation="3" result="blur"/>
      <feFlood flood-opacity="0.161"/>
      <feComposite operator="in" in2="blur"/>
      <feComposite in="SourceGraphic"/>
    </filter>
  </defs>
  <g id="Grupo_1098678" data-name="Grupo 1098678" transform="translate(-831 -936.917)">
    <g id="Grupo_1071655" data-name="Grupo 1071655" transform="translate(841 944)">
      <g transform="matrix(1, 0, 0, 1, -10, -7.08)" filter="url(#Trazado_771226)">
        <path id="Trazado_771226-2" data-name="Trazado 771226" d="M447.517,279.136V264.064a7.732,7.732,0,0,0-3.773-6.655l-12.36-7.329a7.582,7.582,0,0,0-7.5-.14l-12.665,6.885a7.728,7.728,0,0,0-4.02,6.795v15.21a7.733,7.733,0,0,0,3.68,6.6l11.847,7.255a7.583,7.583,0,0,0,7.5.242l13.177-6.949A7.727,7.727,0,0,0,447.517,279.136Z" transform="translate(-397.2 -241.94)" fill="#2ec49f" stroke="#fff" stroke-miterlimit="10" stroke-width="2"/>
      </g>
    </g>
    <g id="gracias" transform="translate(840.567 945.981)">
      <path id="Trazado_838605" data-name="Trazado 838605" d="M33.3,42.87a3.891,3.891,0,0,1-1.4-2.99v-.447H24.975v.447a3.891,3.891,0,0,1-1.4,2.989l2.555,2.557h4.619Z" transform="translate(-7.85 -16.243)" fill="#cf8b76"/>
      <path id="Trazado_838606" data-name="Trazado 838606" d="M32.977,43.337a3.886,3.886,0,0,1-1.391-2.8c-.076.046-.15.094-.231.137a6.62,6.62,0,0,1-5.637.388.27.27,0,0,0-.363.195l-.007.027a3.856,3.856,0,0,1-1.971,2.422l-.577.307,1.654,2.309,1.522.256s1.16-.39,1.837-.685h2.609l1.471-1.471.366.163s.516-.273.572-.315.462-.712.462-.712Z" transform="translate(-7.523 -16.71)" fill="#f1b79d"/>
      <path id="Trazado_838607" data-name="Trazado 838607" d="M6,55.393V50.972a4.659,4.659,0,0,1,3.611-4.54l5.067-1.17L25.34,45.8a6.985,6.985,0,0,0,.6-.535L26.208,45l6.2,1.432a4.659,4.659,0,0,1,3.611,4.54v4.421Z" transform="translate(-0.423 -18.596)" fill="#0056bf"/>
      <path id="Trazado_838608" data-name="Trazado 838608" d="M37.714,50.972a4.659,4.659,0,0,0-3.612-4.54L27.9,45l-.268.268a6.911,6.911,0,0,1-.6.535l-10.661-.541L11.3,46.432a4.613,4.613,0,0,0-.883.312A4.655,4.655,0,0,0,10,48.662a4.421,4.421,0,0,0,4.421,4.421H37.714Z" transform="translate(-2.113 -18.596)" fill="#0068dc"/>
      <path id="Trazado_838609" data-name="Trazado 838609" d="M34.321,10.386v1.36a57.383,57.383,0,0,1-.4,6.813H17.4a57.374,57.374,0,0,1-.4-6.813v-.524Z" transform="translate(-5.072 -3.967)" fill="#4c4c4c"/>
      <g id="Grupo_1098846" data-name="Grupo 1098846" transform="translate(11.351 8.903)">
        <path id="Trazado_838610" data-name="Trazado 838610" d="M18.309,23.813a2.309,2.309,0,0,0,0,4.619h.212" transform="translate(-16 -18.544)" fill="#cf8b76"/>
        <path id="Trazado_838611" data-name="Trazado 838611" d="M43.844,23.813a2.309,2.309,0,0,1,0,4.619h-.212" transform="translate(-27.678 -18.544)" fill="#cf8b76"/>
        <path id="Trazado_838612" data-name="Trazado 838612" d="M33.049,14.873l.035.07a7.333,7.333,0,0,1,.774,3.282v4.619A7.159,7.159,0,0,1,30.175,29.1a6.683,6.683,0,0,1-6.494,0A7.159,7.159,0,0,1,20,22.843V18.224a7.334,7.334,0,0,1,.775-3.283l.127-.254" transform="translate(-17.691 -14.688)" fill="#cf8b76"/>
      </g>
      <path id="Trazado_838613" data-name="Trazado 838613" d="M25.682,29.114a6.67,6.67,0,0,0,2.669.8,6.67,6.67,0,0,0,2.669-.8A7.159,7.159,0,0,0,34.7,22.857V18.238a7.334,7.334,0,0,0-.775-3.283l-.034-.069-11-.167-.118.237A7.333,7.333,0,0,0,22,18.238v4.619a7.159,7.159,0,0,0,3.682,6.257Z" transform="translate(-7.185 -5.798)" fill="#f1b79d"/>
      <path id="Trazado_838614" data-name="Trazado 838614" d="M17.494,3.269a2.964,2.964,0,0,0,.031,5.164,16.209,16.209,0,0,0,7.872,2.04h1.735a9.1,9.1,0,0,0,4.068-.96,5.926,5.926,0,0,0,3.276-5.3V2.968l-.758.758a1.358,1.358,0,0,1-.959.4A4.958,4.958,0,0,1,30.543,3.6a16.921,16.921,0,0,0-7.564-1.786,11.048,11.048,0,0,0-5.485,1.456Z" transform="translate(-4.649 -0.344)" fill="#212121"/>
      <path id="Trazado_838615" data-name="Trazado 838615" d="M33.6,4.122A4.958,4.958,0,0,1,31.388,3.6a16.921,16.921,0,0,0-7.564-1.786,11.052,11.052,0,0,0-5.449,1.436,2.957,2.957,0,0,0,1.149,4.03A16.209,16.209,0,0,0,27.4,9.319h1.735a9.1,9.1,0,0,0,4.068-.96,5.91,5.91,0,0,0,.917-.583,6.011,6.011,0,0,0,.36-.513,5.925,5.925,0,0,0,.844-3.049V2.968l-.758.758a1.358,1.358,0,0,1-.959.4Z" transform="translate(-5.494 -0.344)" fill="#383838"/>
      <path id="Trazado_838616" data-name="Trazado 838616" d="M32.176,30.038a1.075,1.075,0,0,0-.115,0c.021-.226.031-.449.031-.668a1.647,1.647,0,0,0-1.648-1.646h-.089v-.193a1.541,1.541,0,0,0-2.855-.808,1.874,1.874,0,0,0-2.57,1.266l-.816,3.271a3.7,3.7,0,0,0-.617-.822,1.406,1.406,0,0,0-.986-.4,1.386,1.386,0,0,0-1.228.751,7.153,7.153,0,0,0,2.942,3.09,6.683,6.683,0,0,0,6.492,0,7.155,7.155,0,0,0,2.891-2.99,1.64,1.64,0,0,0-1.432-.85Z" transform="translate(-6.882 -10.562)" fill="#b77968"/>
      <path id="Trazado_838617" data-name="Trazado 838617" d="M48,59h1.155v2.309H48Z" transform="translate(-18.173 -24.512)" fill="#004a9d"/>
      <path id="Trazado_838618" data-name="Trazado 838618" d="M14,59h1.155v2.309H14Z" transform="translate(-3.804 -24.512)" fill="#004a9d"/>
      <path id="Trazado_838619" data-name="Trazado 838619" d="M32.28,32.11a5,5,0,0,1-.173,1.3l-1.547,5.8-.993,2.165a4.41,4.41,0,0,1-1.149.987,4.5,4.5,0,0,0-1.882,2.263l-1.184,3.158H19l2.309-5.2V40.857l-.895-2.234a3.637,3.637,0,0,1-.26-1.357,3.572,3.572,0,0,1,.11-.889l.468-1.871v-2.65a.816.816,0,0,1,1.391-.577,3.13,3.13,0,0,1,.918,2.211v1.016l1.484-5.947a1.3,1.3,0,0,1,2.3-.456l.081-.352a.965.965,0,0,1,1.905.214,8.111,8.111,0,0,1-.069,1.055l.006,0a1.07,1.07,0,0,1,1.8.785,7.053,7.053,0,0,1-.127,1.311l-.075.37a1.07,1.07,0,0,1,1.934.629Z" transform="translate(-5.917 -10.989)" fill="#cf8b76"/>
      <path id="Trazado_838620" data-name="Trazado 838620" d="M27.262,42.364a4.41,4.41,0,0,0,1.149-.987l.993-2.165,2.278-8.054a1.05,1.05,0,0,0-.471-.115,1.072,1.072,0,0,0-.866.439l.075-.37a7.053,7.053,0,0,0,.127-1.311,1.07,1.07,0,0,0-1.8-.785l-.006.006a8.117,8.117,0,0,0,.069-1.057.965.965,0,0,0-1.905-.214l-.081.352a1.3,1.3,0,0,0-2.3.456l-1.484,5.947V33.49a3.13,3.13,0,0,0-.918-2.211.816.816,0,0,0-1.391.577v2.65l-.468,1.871a3.572,3.572,0,0,0-.11.889,3.638,3.638,0,0,0,.26,1.357l.895,2.234V42.59L19,47.786h5.2l1.184-3.158a4.5,4.5,0,0,1,1.882-2.263Z" transform="translate(-5.917 -10.989)" fill="#f1b79d"/>
      <path id="Trazado_838621" data-name="Trazado 838621" d="M34.152,36.619l-1.136-.207,1.016-5.595c.027-.144.048-.289.064-.428l1.148.127c-.019.17-.044.34-.076.51Z" transform="translate(-11.84 -12.421)" fill="#cf8b76"/>
      <path id="Trazado_838622" data-name="Trazado 838622" d="M0,0H6.571V1.155H0Z" transform="translate(18.87 23.403) rotate(-76.992)" fill="#cf8b76"/>
      <path id="Trazado_838623" data-name="Trazado 838623" d="M0,0H4.852V1.155H0Z" transform="matrix(0.196, -0.981, 0.981, 0.196, 22.914, 25.121)" fill="#cf8b76"/>
      <path id="Trazado_838624" data-name="Trazado 838624" d="M33,46.732a6.236,6.236,0,0,1,3.126,3.6l.338,1.014-1.732.577L38.2,54.238,39.928,50.2l-1.732.577-.029-.207A7.39,7.39,0,0,0,34.155,45Z" transform="translate(-11.834 -18.596)" fill="#8abf00"/>
      <path id="Trazado_838625" data-name="Trazado 838625" d="M38.521,50.774l-.029-.207A7.39,7.39,0,0,0,34.479,45l-.711,1.067a9.18,9.18,0,0,1,4.753,8.038v.133L40.253,50.2Z" transform="translate(-12.158 -18.596)" fill="#a5d400"/>
      <path id="Trazado_838626" data-name="Trazado 838626" d="M48,59h1.155v2.309H48Z" transform="translate(-18.173 -24.512)"/>
      <path id="Trazado_838627" data-name="Trazado 838627" d="M36.178,32.376a5.238,5.238,0,0,0-4.058-5.1l-6.205-1.432H25.88l.871-3.265a5.645,5.645,0,0,0,.182-1.337,7.708,7.708,0,0,0,.816-1.786,2.866,2.866,0,0,0,1.7-4.993,58.3,58.3,0,0,0,.376-6.572V6.64A6.5,6.5,0,0,0,30.4,3.978V2.732a.577.577,0,0,0-.986-.408l-.758.758a.785.785,0,0,1-.551.228,4.4,4.4,0,0,1-1.959-.462A17.582,17.582,0,0,0,18.328,1a11.639,11.639,0,0,0-5.769,1.532,3.526,3.526,0,0,0-1.207,5v.356a58.3,58.3,0,0,0,.377,6.572,2.866,2.866,0,0,0,1.7,4.993,7.725,7.725,0,0,0,.808,1.771v2.223l-.451,1.8a4.24,4.24,0,0,0-.122.96L9.059,27.273A5.237,5.237,0,0,0,5,32.376V36.8H6.155V32.376A4.082,4.082,0,0,1,9.319,28.4l4.487-1.035a4.226,4.226,0,0,0,.157.487l.852,2.129v1.5l-2.26,5.084,1.055.469,2.309-5.2a.577.577,0,0,0,.05-.237V29.869a.577.577,0,0,0-.041-.214l-.894-2.233a3.07,3.07,0,0,1-.22-1.144,3.112,3.112,0,0,1,.092-.751l.468-1.872a.568.568,0,0,0,.017-.137V20.87A.248.248,0,0,1,15.8,20.7a2.531,2.531,0,0,1,.747,1.8v1.015a.577.577,0,0,0,1.137.14l1.487-5.947a.718.718,0,0,1,.7-.544.711.711,0,0,1,.4.131l-1.4,6.09,1.126.26,1.559-6.758a.387.387,0,0,1,.765.087,7.96,7.96,0,0,1-.128,1.419l-1.017,5.6,1.136.207,1.017-5.6c.014-.077.02-.156.032-.235a.487.487,0,0,1,.693.447,6.138,6.138,0,0,1-.115,1.2L22.91,25.134l1.132.226.917-4.586a.488.488,0,0,1,.333-.144.494.494,0,0,1,.493.493,4.463,4.463,0,0,1-.151,1.155L24.345,27.11a7.945,7.945,0,0,0-1.766-1.22.577.577,0,0,0-.738.2l-1.155,1.732a.577.577,0,0,0,.222.837,5.615,5.615,0,0,1,2,1.674,3.863,3.863,0,0,1-.7.555,5.065,5.065,0,0,0-2.126,2.553L18.893,36.6l1.082.4,1.185-3.161a3.9,3.9,0,0,1,1.64-1.968,5.081,5.081,0,0,0,.716-.523,5.871,5.871,0,0,1,.231.577l.156.467-1.184.4a.577.577,0,0,0-.138,1.028l3.464,2.309a.581.581,0,0,0,.318.093.594.594,0,0,0,.165-.024.577.577,0,0,0,.366-.326l1.732-4.042a.577.577,0,0,0-.713-.775l-1.09.363A7.953,7.953,0,0,0,25.277,28.1l.153-.573c.168-.141.337-.282.495-.44l.042-.043L31.86,28.4a4.082,4.082,0,0,1,3.163,3.978V36.8h1.155ZM28.019,18.238a7.79,7.79,0,0,0,.076-1.072v-2.2a1.721,1.721,0,0,1-.076,3.275Zm.076-4.478V12.547a7.949,7.949,0,0,0-.658-3.125,6.48,6.48,0,0,0,1.227-1.039c-.016,1.819-.121,3.648-.311,5.459a2.325,2.325,0,0,0-.259-.083ZM13.131,3.535a10.493,10.493,0,0,1,5.2-1.38A16.418,16.418,0,0,1,25.635,3.88a5.568,5.568,0,0,0,2.476.584,1.95,1.95,0,0,0,1.139-.371,5.348,5.348,0,0,1-2.955,4.667,8.564,8.564,0,0,1-3.812.9H20.748a15.67,15.67,0,0,1-7.592-1.967,2.387,2.387,0,0,1-.025-4.157Zm-.614,5.117c.027.016.05.036.078.051.391.217.792.412,1.2.6a7.949,7.949,0,0,0-.711,3.248V13.76c-.089.018-.173.053-.259.08-.181-1.72-.283-3.457-.307-5.188Zm-.589,7.937a1.732,1.732,0,0,1,1.155-1.626v2.2a7.79,7.79,0,0,0,.076,1.072A1.728,1.728,0,0,1,11.928,16.589Zm13.364,2.887c-.04,0-.078.011-.115.014.021-.225.033-.45.033-.676a1.65,1.65,0,0,0-1.65-1.648c-.032,0-.062.007-.094.009,0-.066.009-.132.009-.2a1.541,1.541,0,0,0-2.86-.8,1.853,1.853,0,0,0-2.568,1.253L17.235,20.7a3.737,3.737,0,0,0-.617-.815,1.408,1.408,0,0,0-.986-.408,1.381,1.381,0,0,0-.852.3,6.564,6.564,0,0,1-.542-2.608V12.547a6.792,6.792,0,0,1,.621-2.808,16.819,16.819,0,0,0,5.889,1.076h1.735a9.73,9.73,0,0,0,3.938-.841,6.8,6.8,0,0,1,.52,2.573v4.619a6.561,6.561,0,0,1-.586,2.71,1.632,1.632,0,0,0-1.062-.4Zm.5,12.784a.579.579,0,0,0,.754.467l.513-.173-.953,2.222L24.2,33.506l.612-.2a.577.577,0,0,0,.365-.73l-.338-1.015a6.761,6.761,0,0,0-2.848-3.62l.516-.774a6.818,6.818,0,0,1,3.253,4.888Z" transform="translate(0 0)"/>
      <path id="Trazado_838628" data-name="Trazado 838628" d="M14,59h1.155v2.309H14Z" transform="translate(-3.804 -24.512)"/>
    </g>
  </g>
</svg>
