<svg xmlns="http://www.w3.org/2000/svg" xmlns:xlink="http://www.w3.org/1999/xlink" width="60.313" height="64.949" viewBox="0 0 60.313 64.949">
  <defs>
    <filter id="Trazado_771226" x="0" y="0" width="60.313" height="64.949" filterUnits="userSpaceOnUse">
      <feOffset dy="3" input="SourceAlpha"/>
      <feGaussianBlur stdDeviation="3" result="blur"/>
      <feFlood flood-opacity="0.161"/>
      <feComposite operator="in" in2="blur"/>
      <feComposite in="SourceGraphic"/>
    </filter>
  </defs>
  <g id="Grupo_1098679" data-name="Grupo 1098679" transform="translate(-831 -936.917)">
    <g id="Grupo_1071655" data-name="Grupo 1071655" transform="translate(841 944)">
      <g transform="matrix(1, 0, 0, 1, -10, -7.08)" filter="url(#Trazado_771226)">
        <path id="Trazado_771226-2" data-name="Trazado 771226" d="M447.517,279.136V264.064a7.732,7.732,0,0,0-3.773-6.655l-12.36-7.329a7.582,7.582,0,0,0-7.5-.14l-12.665,6.885a7.728,7.728,0,0,0-4.02,6.795v15.21a7.733,7.733,0,0,0,3.68,6.6l11.847,7.255a7.583,7.583,0,0,0,7.5.242l13.177-6.949A7.727,7.727,0,0,0,447.517,279.136Z" transform="translate(-397.2 -241.94)" fill="#2ec49f" stroke="#fff" stroke-miterlimit="10" stroke-width="2"/>
      </g>
    </g>
    <g id="Page-1" transform="translate(841.742 949.962)">
      <g id="_003---Dictionary" data-name="003---Dictionary" transform="translate(0.011)">
        <g id="Icons" transform="translate(0.641 0.647)">
          <path id="Shape" d="M29.117,42.882v3.882H23.941a7.138,7.138,0,0,1-5.176-1.805,7.138,7.138,0,0,1-5.176,1.805H1.942a1.941,1.941,0,0,1-1.9-2.323,1.98,1.98,0,0,1,1.9-1.559H13.588c2.3,0,2.97-.861,3.261-2.258A2,2,0,0,1,18.758,39h.006a.955.955,0,0,1,.136.006,1.909,1.909,0,0,1,1.165.492,1.951,1.951,0,0,1,.6,1.061c.285,1.436.938,2.323,3.274,2.323Z" transform="translate(-0.001 -13.765)" fill="#91562d"/>
          <path id="Shape-2" data-name="Shape" d="M27.835,39.5a1.951,1.951,0,0,1,.6,1.061c.285,1.436.938,2.323,3.274,2.323h1.941c-2.336,0-2.989-.886-3.274-2.323a1.951,1.951,0,0,0-.6-1.061,1.909,1.909,0,0,0-1.165-.492A.955.955,0,0,0,28.475,39h-.006a1.853,1.853,0,0,0-.955.269,1.841,1.841,0,0,1,.321.23Z" transform="translate(-9.712 -13.765)" fill="#6d4122"/>
          <path id="Rectangle-path" d="M42,45h1.941v3.882H42Z" transform="translate(-14.825 -15.883)" fill="#6d4122"/>
          <path id="Shape-3" data-name="Shape" d="M55.529,46.941a1.941,1.941,0,0,1-1.941,1.941H51V45h2.588A1.941,1.941,0,0,1,55.529,46.941Z" transform="translate(-18.002 -15.883)" fill="#91562d"/>
          <path id="Shape-4" data-name="Shape" d="M55.313,45.569A1.937,1.937,0,0,0,53.941,45H52a1.941,1.941,0,0,1,0,3.882h1.941a1.941,1.941,0,0,0,1.372-3.313Z" transform="translate(-18.355 -15.883)" fill="#6d4122"/>
          <path id="Shape-5" data-name="Shape" d="M39.353,35.493v5.2H34.176c-2.336,0-2.989-.886-3.274-2.323a1.951,1.951,0,0,0-.6-1.061,1.909,1.909,0,0,0-1.165-.492A.956.956,0,0,0,29,36.806V34.218L31.051,33.2a3.882,3.882,0,0,1,3.623.078l3.151,1.747A3.788,3.788,0,0,0,39.353,35.493Z" transform="translate(-10.237 -11.572)" fill="#f5f5f5"/>
          <path id="Shape-6" data-name="Shape" d="M39.366,35.022l-3.151-1.747a3.882,3.882,0,0,0-2.85-.362,3.886,3.886,0,0,1,.909.362l3.151,1.747a3.788,3.788,0,0,0,1.527.472v5.2h1.941v-5.2A3.788,3.788,0,0,1,39.366,35.022Z" transform="translate(-11.778 -11.574)" fill="#cfd8dc"/>
          <path id="Shape-7" data-name="Shape" d="M19.443,34.218v2.588h-.006a2,2,0,0,0-1.909,1.624c-.291,1.4-.958,2.258-3.261,2.258H2.62a6.113,6.113,0,0,0-.615-4.219.643.643,0,0,1,.563-.958H8.734a3.857,3.857,0,0,0,1.883-.492l3.151-1.747a3.882,3.882,0,0,1,3.623-.078Z" transform="translate(-0.68 -11.572)" fill="#f5f5f5"/>
          <path id="Shape-8" data-name="Shape" d="M54.2,37.958a6.077,6.077,0,0,0-.615,4.219H51V37h2.64a.643.643,0,0,1,.563.958Z" transform="translate(-18.002 -13.06)" fill="#f5f5f5"/>
          <path id="Shape-9" data-name="Shape" d="M53.917,37H51.976a.643.643,0,0,1,.563.958,6.077,6.077,0,0,0-.615,4.219h1.941a6.077,6.077,0,0,1,.615-4.219A.643.643,0,0,0,53.917,37Z" transform="translate(-18.28 -13.06)" fill="#cfd8dc"/>
          <path id="Shape-10" data-name="Shape" d="M48.882,36.647V47.86a.635.635,0,0,1-.291.537L46,50.125a.647.647,0,0,1-1-.537V36.628A.647.647,0,0,1,45.647,36h2.588a.647.647,0,0,1,.647.647Z" transform="translate(-15.884 -12.707)" fill="#f44335"/>
          <path id="Shape-11" data-name="Shape" d="M48.235,36H46.294a.647.647,0,0,1,.647.647V47.86a.635.635,0,0,1-.291.537L45,49.5v.089a.647.647,0,0,0,1,.537L48.591,48.4a.635.635,0,0,0,.291-.537V36.647A.647.647,0,0,0,48.235,36Z" transform="translate(-15.884 -12.707)" fill="#c81e1e"/>
          <path id="Shape-12" data-name="Shape" d="M35.764,2.588V14.235a2.588,2.588,0,0,1-2.588,2.588H24.385a.647.647,0,0,0-.457.19L21.339,19.6a.652.652,0,0,1-.919,0l-2.588-2.588a.647.647,0,0,0-.454-.19H8.588A2.588,2.588,0,0,1,6,14.235V2.588A2.588,2.588,0,0,1,8.588,0H33.175A2.588,2.588,0,0,1,35.764,2.588Z" transform="translate(-2.119)" fill="#ffdc00"/>
          <g id="Grupo_1098847" data-name="Grupo 1098847" transform="translate(17.793)">
            <path id="Shape-13" data-name="Shape" d="M29.575,26.19,27.5,28.265l.511.511a.652.652,0,0,0,.919,0l2.588-2.588A.647.647,0,0,1,31.974,26H30.032A.647.647,0,0,0,29.575,26.19Z" transform="translate(-27.5 -9.177)" fill="#fec108"/>
            <path id="Shape-14" data-name="Shape" d="M46.941,0H45a2.588,2.588,0,0,1,2.588,2.588V14.235A2.588,2.588,0,0,1,45,16.823h1.941a2.588,2.588,0,0,0,2.588-2.588V2.588A2.588,2.588,0,0,0,46.941,0Z" transform="translate(-33.677)" fill="#fec108"/>
          </g>
        </g>
        <g id="Layer_11">
          <path id="Shape-15" data-name="Shape" d="M36.8,40.753a5.4,5.4,0,0,1,.615-3.326,1.294,1.294,0,0,0-1.13-1.915H34.117A1.29,1.29,0,0,0,33,34.865H30.415a1.294,1.294,0,0,0-1.055.549,3.181,3.181,0,0,1-.8-.313L25.4,33.354a4.521,4.521,0,0,0-4.226-.091l-1.763.879-1.761-.878a4.521,4.521,0,0,0-4.228.091L10.272,35.1a3.2,3.2,0,0,1-1.566.41H2.54a1.291,1.291,0,0,0-1.128,1.919,5.418,5.418,0,0,1,.61,3.339,2.579,2.579,0,0,0,.57,5.095H14.239a8.082,8.082,0,0,0,5.176-1.594,8.082,8.082,0,0,0,5.176,1.594h4.529V49.1a1.294,1.294,0,0,0,2.012,1.077L33.72,48.45a1.294,1.294,0,0,0,.577-1.077V45.864h1.941a2.588,2.588,0,0,0,.567-5.112Zm-1.315-.065H34.3V36.806l1.99,0A6.649,6.649,0,0,0,35.489,40.688ZM21.757,34.42a3.228,3.228,0,0,1,3.019.065l3.148,1.747a4.492,4.492,0,0,0,1.2.453v4H24.591c-2.118,0-2.43-.747-2.639-1.8a2.594,2.594,0,0,0-.8-1.417,2.519,2.519,0,0,0-1.09-.588V35.265ZM8.707,36.806a4.5,4.5,0,0,0,2.2-.573l3.151-1.747a3.235,3.235,0,0,1,3.021-.065l1.693.844V36.9a2.666,2.666,0,0,0-1.9,2.045c-.206.988-.53,1.743-2.628,1.743H3.339a6.624,6.624,0,0,0-.8-3.882ZM24.591,44.57a6.589,6.589,0,0,1-4.729-1.625.647.647,0,0,0-.894,0,6.589,6.589,0,0,1-4.729,1.625H2.592a1.294,1.294,0,0,1-1.266-1.557,1.325,1.325,0,0,1,1.266-1.031H14.239c2.325,0,3.489-.829,3.9-2.776A1.359,1.359,0,0,1,19.409,38.1l.1,0a1.264,1.264,0,0,1,.776.324,1.3,1.3,0,0,1,.4.712c.393,1.992,1.561,2.842,3.906,2.842h4.529V44.57ZM30.415,49.1V36.159H33V47.373Zm5.823-4.529H34.3V41.982h1.941a1.294,1.294,0,1,1,0,2.588Z" transform="translate(-0.011 -11.571)"/>
          <path id="Shape-16" data-name="Shape" d="M9.235,18.117h8.791l2.588,2.588a1.3,1.3,0,0,0,1.834,0l2.588-2.588h8.787a3.239,3.239,0,0,0,3.235-3.235V3.235A3.239,3.239,0,0,0,33.823,0H9.235A3.239,3.239,0,0,0,6,3.235V14.882A3.239,3.239,0,0,0,9.235,18.117ZM7.294,3.235A1.941,1.941,0,0,1,9.235,1.294H33.823a1.941,1.941,0,0,1,1.941,1.941V14.882a1.941,1.941,0,0,1-1.941,1.941H25.032a1.285,1.285,0,0,0-.915.379L21.529,19.79,18.941,17.2a1.285,1.285,0,0,0-.915-.379H9.235a1.941,1.941,0,0,1-1.941-1.941Z" transform="translate(-2.125)"/>
          <path id="Shape-17" data-name="Shape" d="M17.389,15.417a.647.647,0,0,0,.852-.333l.4-.906h2.551l.4.906a.647.647,0,1,0,1.185-.518L20.506,9.39a.647.647,0,0,0-1.185,0l-2.265,5.176a.647.647,0,0,0,.333.851Zm2.523-4.151.712,1.618H19.2Z" transform="translate(-6.008 -3.177)"/>
          <path id="Shape-18" data-name="Shape" d="M27.647,15.47h1.941a1.933,1.933,0,0,0,1.436-3.235A1.933,1.933,0,0,0,29.588,9H27.647A.647.647,0,0,0,27,9.647v5.176a.647.647,0,0,0,.647.647Zm1.941-1.294H28.294V12.882h1.294a.647.647,0,1,1,0,1.294Zm-1.294-3.882h1.294a.647.647,0,1,1,0,1.294H28.294Z" transform="translate(-9.537 -3.177)"/>
          <path id="Shape-19" data-name="Shape" d="M37.588,15.47a2.593,2.593,0,0,0,2.441-1.726.647.647,0,0,0-1.22-.431,1.294,1.294,0,0,1-2.514-.432V11.587a1.294,1.294,0,0,1,2.514-.432.647.647,0,0,0,1.22-.431A2.588,2.588,0,0,0,35,11.587v1.294A2.588,2.588,0,0,0,37.588,15.47Z" transform="translate(-12.361 -3.176)"/>
        </g>
      </g>
    </g>
  </g>
</svg>
