<svg xmlns="http://www.w3.org/2000/svg" width="78.554" height="78.554" viewBox="0 0 78.554 78.554">
  <g id="Grupo_1085084" data-name="Grupo 1085084" transform="translate(-184 -1136.203)">
    <g id="Grupo_995637" data-name="Grupo 995637" transform="translate(184 1136.203)">
      <path id="Trazado_771736" data-name="Trazado 771736" d="M39.277,0A39.277,39.277,0,1,1,0,39.277,39.277,39.277,0,0,1,39.277,0Z" transform="translate(0 0)" fill="#ff981e"/>
    </g>
    <g id="lista-de-verificacion_1_" data-name="lista-de-verificacion (1)" transform="translate(170.959 1143.472)">
      <g id="XMLID_00000075148128393195638110000005103602256009292983_" transform="translate(21.52 1.071)">
        <g id="Grupo_1085098" data-name="Grupo 1085098" transform="translate(0)">
          <path id="Trazado_837983" data-name="Trazado 837983" d="M283.179,257.095a16.633,16.633,0,1,1-19.84,24.669,16.422,16.422,0,0,1-1.8-3.638,16.632,16.632,0,0,1,14.239-22.062c.483-.043.966-.064,1.459-.064A16.568,16.568,0,0,1,283.179,257.095Zm2.833,8.777a2.39,2.39,0,1,0-4.088-2.479l-7.179,11.857a14.787,14.787,0,0,0-2.886-2.6,2.389,2.389,0,1,0-2.7,3.938,10.271,10.271,0,0,1,3.5,4.153,2.4,2.4,0,0,0,2.039,1.373.523.523,0,0,0,.129.011,2.4,2.4,0,0,0,2.049-1.159Z" transform="translate(-229.463 -222.736)" fill="#13ca43"/>
          <path id="Trazado_837984" data-name="Trazado 837984" d="M333.7,302.879a2.4,2.4,0,0,1,.8,3.283l-9.142,15.1a2.4,2.4,0,0,1-2.049,1.159.522.522,0,0,1-.129-.011,2.4,2.4,0,0,1-2.039-1.374,10.271,10.271,0,0,0-3.5-4.153,2.389,2.389,0,1,1,2.7-3.938,14.785,14.785,0,0,1,2.886,2.6l7.179-11.857A2.391,2.391,0,0,1,333.7,302.879Z" transform="translate(-277.96 -263.026)" fill="#adfdc2"/>
          <path id="Trazado_837985" data-name="Trazado 837985" d="M381.244,42.16a196.54,196.54,0,0,1-.043,28.79c-.021.333-.054.665-.075.987a16.567,16.567,0,0,0-5.945-1.095c-.494,0-.977.021-1.459.064.139-1.438.268-2.9.376-4.389a196.189,196.189,0,0,0,.311-24.261Q377.853,42.224,381.244,42.16Z" transform="translate(-327.41 -37.578)" fill="#e0e0e0"/>
          <path id="Trazado_837986" data-name="Trazado 837986" d="M75.441,12.678A196.2,196.2,0,0,1,75.13,36.94c-.107,1.492-.236,2.951-.376,4.389A16.632,16.632,0,0,0,60.515,63.39c-7.919-.858-11.567-2.726-18.124-3.1a37.622,37.622,0,0,0-5.333.064,43.5,43.5,0,0,0-8.616,1.577,190.986,190.986,0,0,0,5.151-26.74A191.138,191.138,0,0,0,34.9,8q9.818.241,20,.29,10.317.032,20.259-.15c.107,1.47.2,2.983.279,4.539Zm-30.8,9.207c.064-1.363.118-2.715.172-4.078a34.825,34.825,0,0,1-3.959.054c-.011,1.459-.021,2.919-.032,4.367,1.2.064,2.189.032,3.4.032a.326.326,0,0,0,.418-.376Zm-1.577,9.743c.054-1.363.107-2.726.172-4.078a37.742,37.742,0,0,1-3.97.054c-.011,1.459-.021,2.908-.032,4.367,1.213.064,2.189.021,3.4.032a.455.455,0,0,0,.354-.107A.484.484,0,0,0,43.067,31.628Zm-.976,9.732c.064-1.352.118-2.715.172-4.078a35.014,35.014,0,0,1-3.97.054l-.032,4.378c1.213.054,2.2.021,3.4.021a.44.44,0,0,0,.365-.107A.435.435,0,0,0,42.091,41.361ZM41.125,51.1c.054-1.363.107-2.715.172-4.078a35.048,35.048,0,0,1-3.97.054c-.011,1.459-.021,2.919-.032,4.367,1.213.064,2.189.032,3.4.032a.455.455,0,0,0,.354-.107A.461.461,0,0,0,41.125,51.1Z" transform="translate(-28.442 -8)" fill="#ebf5f7"/>
          <g id="Grupo_1085097" data-name="Grupo 1085097" transform="translate(7.103 9.808)">
            <path id="Trazado_837987" data-name="Trazado 837987" d="M106.372,400.521a16.422,16.422,0,0,0,1.8,3.638c-4.646-.912-7.919-2.028-12.823-2.307A41.48,41.48,0,0,0,81.4,403.493c.515-1.921,1.03-3.917,1.513-6.009a37.62,37.62,0,0,1,5.333-.064C94.8,397.8,98.453,399.663,106.372,400.521Z" transform="translate(-81.402 -354.939)" fill="#e0e0e0"/>
            <path id="Trazado_837988" data-name="Trazado 837988" d="M124.754,81.12c-.054,1.363-.107,2.715-.172,4.078a.326.326,0,0,1-.418.376c-1.213,0-2.2.032-3.4-.032.011-1.449.021-2.908.032-4.367A34.824,34.824,0,0,0,124.754,81.12Z" transform="translate(-115.483 -81.12)" fill="#13ca43"/>
            <path id="Trazado_837989" data-name="Trazado 837989" d="M112.924,153.76c-.064,1.352-.118,2.715-.172,4.078a.484.484,0,0,1-.075.268.455.455,0,0,1-.354.107c-1.213-.011-2.189.032-3.4-.032.011-1.459.021-2.908.032-4.367A37.746,37.746,0,0,0,112.924,153.76Z" transform="translate(-105.231 -144.017)" fill="#13ca43"/>
            <path id="Trazado_837990" data-name="Trazado 837990" d="M105.644,226.32c-.054,1.363-.107,2.726-.172,4.078a.435.435,0,0,1-.064.268.44.44,0,0,1-.365.107c-1.2,0-2.189.032-3.4-.021q.016-2.189.032-4.378A35.011,35.011,0,0,0,105.644,226.32Z" transform="translate(-98.927 -206.844)" fill="#13ca43"/>
            <path id="Trazado_837991" data-name="Trazado 837991" d="M98.444,298.96c-.064,1.363-.118,2.715-.172,4.078a.461.461,0,0,1-.075.268.455.455,0,0,1-.354.107c-1.213,0-2.189.032-3.4-.032.011-1.449.021-2.908.032-4.367A35.044,35.044,0,0,0,98.444,298.96Z" transform="translate(-92.693 -269.741)" fill="#13ca43"/>
          </g>
        </g>
      </g>
      <g id="Grupo_1085099" data-name="Grupo 1085099" transform="translate(20.448 -0.003)">
        <path id="Trazado_837992" data-name="Trazado 837992" d="M101.927,152.305c.576.027,1.1.035,1.624.035.261,0,.52,0,.785,0,.333,0,.676,0,1.046,0a1.468,1.468,0,0,0,1.177-.488,1.451,1.451,0,0,0,.322-.916l.172-4.076a1.071,1.071,0,0,0-.312-.8,1.056,1.056,0,0,0-.8-.314l-.772.034a26.932,26.932,0,0,1-3.075.023,1.073,1.073,0,0,0-1.152,1.061l-.035,4.372A1.073,1.073,0,0,0,101.927,152.305Zm1.151-4.331c.6,0,1.195-.018,1.781-.044l-.1,2.257-.442,0c-.425,0-.836.005-1.262,0Z" transform="translate(-90.113 -126.186)" fill="#12263f"/>
        <path id="Trazado_837993" data-name="Trazado 837993" d="M94.686,224.921c.576.027,1.1.035,1.623.035.261,0,.52,0,.785,0l1.047,0a1.38,1.38,0,0,0,1.5-1.4l.172-4.075a1.074,1.074,0,0,0-.312-.8,1.062,1.062,0,0,0-.8-.314l-.77.034a26.707,26.707,0,0,1-3.077.022,1.053,1.053,0,0,0-.807.3,1.112,1.112,0,0,0-.346.8l-.034,4.339A1.073,1.073,0,0,0,94.686,224.921Zm1.149-4.33q.9,0,1.782-.044l-.1,2.256-.443,0c-.425,0-.838.007-1.261,0Z" transform="translate(-83.844 -189.063)" fill="#12263f"/>
        <path id="Trazado_837994" data-name="Trazado 837994" d="M89.059,297.554c.268,0,.534,0,.807,0l1.018,0a1.381,1.381,0,0,0,1.507-1.4l.171-4.076a1.071,1.071,0,0,0-.312-.8,1.029,1.029,0,0,0-.8-.314l-.772.034a26.442,26.442,0,0,1-3.075.023,1.073,1.073,0,0,0-1.152,1.061l-.035,4.372a1.074,1.074,0,0,0,1.023,1.08C88.013,297.548,88.538,297.554,89.059,297.554Zm-.473-4.364c.6,0,1.195-.018,1.781-.044l-.094,2.257-.423,0c-.432,0-.849.005-1.282,0Z" transform="translate(-77.566 -251.922)" fill="#12263f"/>
        <path id="Trazado_837995" data-name="Trazado 837995" d="M113.748,79.693c.582.027,1.112.035,1.639.035.264,0,.528,0,.8,0l1.01,0a1.641,1.641,0,0,0,1.183-.486,1.461,1.461,0,0,0,.324-.918l.172-4.075a1.074,1.074,0,0,0-.312-.8,1.05,1.05,0,0,0-.8-.314l-.77.034a26.472,26.472,0,0,1-3.077.022,1.073,1.073,0,0,0-1.153,1.062l-.034,4.373A1.073,1.073,0,0,0,113.748,79.693Zm1.149-4.33c.6,0,1.195-.018,1.782-.044l-.1,2.257-.415,0c-.435,0-.856,0-1.289,0Z" transform="translate(-100.349 -63.314)" fill="#12263f"/>
        <path id="Trazado_837996" data-name="Trazado 837996" d="M175.179,81.737q4.112.068,8.191.068c4.361,0,8.675-.059,12.9-.175a1.073,1.073,0,0,0-.028-2.146h-.03c-6.819.189-13.879.224-20.993.107H175.2a1.073,1.073,0,0,0-.018,2.146Z" transform="translate(-153.511 -68.823)" fill="#12263f"/>
        <path id="Trazado_837997" data-name="Trazado 837997" d="M173.876,112.476q3.816.058,7.631.058c4.527,0,9.034-.061,13.466-.183a1.073,1.073,0,0,0-.028-2.146h-.03c-6.89.192-13.957.235-21,.126h-.017a1.073,1.073,0,0,0-.017,2.146Z" transform="translate(-152.382 -95.422)" fill="#12263f"/>
        <path id="Trazado_837998" data-name="Trazado 837998" d="M172.131,143.253q4.038.072,8.139.072c4.3,0,8.639-.06,12.96-.179A1.073,1.073,0,0,0,193.2,141h-.03c-7.031.195-14.1.231-21,.107h-.019a1.073,1.073,0,0,0-.019,2.146Z" transform="translate(-150.873 -122.087)" fill="#12263f"/>
        <path id="Trazado_837999" data-name="Trazado 837999" d="M169.821,174.789q3.895.064,7.788.064c4.473,0,8.928-.064,13.311-.191a1.073,1.073,0,0,0-.03-2.146h-.032c-6.892.2-13.96.242-21,.127h-.018a1.073,1.073,0,0,0-.018,2.146Z" transform="translate(-148.872 -149.376)" fill="#12263f"/>
        <path id="Trazado_838000" data-name="Trazado 838000" d="M167.065,206.392q3.766.057,7.509.058c4.591,0,9.139-.065,13.59-.194a1.074,1.074,0,0,0,1.042-1.1,1.1,1.1,0,0,0-1.1-1.042c-6.836.2-13.905.244-21,.136h-.017a1.073,1.073,0,0,0-.017,2.146Z" transform="translate(-146.484 -176.732)" fill="#12263f"/>
        <path id="Trazado_838001" data-name="Trazado 838001" d="M163.737,237.977q3.634.055,7.317.056c4.576,0,9.191-.065,13.788-.192a1.073,1.073,0,0,0-.028-2.146h-.03c-7.032.2-14.1.241-21.013.136h-.017a1.073,1.073,0,0,0-.017,2.146Z" transform="translate(-143.603 -204.081)" fill="#12263f"/>
        <path id="Trazado_838002" data-name="Trazado 838002" d="M327.33,295.04a3.458,3.458,0,0,0-4.755,1.168l-6.445,10.645a16.1,16.1,0,0,0-2.1-1.717,3.462,3.462,0,0,0-3.921,5.706,9.228,9.228,0,0,1,3.142,3.718,3.458,3.458,0,0,0,2.957,2l.183,0a3.479,3.479,0,0,0,2.961-1.668l9.143-15.106a3.464,3.464,0,0,0-1.167-4.752Zm-.668,3.642-9.143,15.106a1.324,1.324,0,0,1-1.125.633h-.072a1.313,1.313,0,0,1-1.121-.761,11.37,11.37,0,0,0-3.872-4.585,1.315,1.315,0,0,1,1.489-2.169,13.924,13.924,0,0,1,2.686,2.411,1.091,1.091,0,0,0,.9.371,1.076,1.076,0,0,0,.83-.515l7.177-11.855a1.315,1.315,0,0,1,2.25,1.363Z" transform="translate(-269.961 -255.031)" fill="#12263f"/>
        <path id="Trazado_838003" data-name="Trazado 838003" d="M76.364,34.746l.017-.225a198.423,198.423,0,0,0,.043-28.946,1.117,1.117,0,0,0-1.09-1q-2.882.055-5.8.083c-.066-1.2-.14-2.382-.224-3.53a1.073,1.073,0,0,0-1.07-.994h-.021c-6.364.124-12.981.177-20.235.15C41.631.267,35.1.173,28.006,0a1.058,1.058,0,0,0-.784.313,1.075,1.075,0,0,0-.315.785,190.808,190.808,0,0,1-1.3,27.039,190.953,190.953,0,0,1-5.121,26.59,1.073,1.073,0,0,0,1.331,1.309,43.477,43.477,0,0,1,6.928-1.386c-.333,1.372-.708,2.836-1.156,4.507a1.073,1.073,0,0,0,1.331,1.31,40.715,40.715,0,0,1,13.594-1.6A48.437,48.437,0,0,1,51.261,60.3c1.111.254,2.268.516,3.507.767a17.695,17.695,0,1,0,21.6-26.317ZM27.737,28.389A192.956,192.956,0,0,0,29.075,2.171c6.675.157,12.87.243,18.9.262,6.882.028,13.2-.021,19.263-.131q.118,1.712.206,3.5a195.978,195.978,0,0,1-.233,23.069,1.064,1.064,0,0,0,.983,1.138,1.08,1.08,0,0,0,1.158-1,198.427,198.427,0,0,0,.272-22.2Q72,6.781,74.355,6.744a196.226,196.226,0,0,1-.092,27.241A17.506,17.506,0,0,0,60.3,35.744c-6.757.191-13.544.242-20.177.147h-.015a1.073,1.073,0,0,0-.015,2.146q3.3.047,6.642.046c3.515,0,7.055-.051,10.594-.128a17.836,17.836,0,0,0-1.9,2.028c-5.346.1-10.681.109-15.865.017a1.073,1.073,0,1,0-.038,2.146c2.489.044,5.013.066,7.556.066,2.279,0,4.58-.033,6.879-.068a17.618,17.618,0,0,0-1.044,2.1c-4.65.072-9.354.074-14-.006a1.086,1.086,0,0,0-1.092,1.054,1.073,1.073,0,0,0,1.054,1.092c2.452.042,4.922.063,7.391.063,1.981,0,3.958-.023,5.931-.05a17.118,17.118,0,0,0-.087,8.8c-2.945-.4-5.269-.924-7.521-1.439a51.053,51.053,0,0,0-9.066-1.471,38.749,38.749,0,0,0-5.478.065,43.821,43.821,0,0,0-7.028,1.139,192.9,192.9,0,0,0,4.711-25.1ZM51.742,58.2a50.813,50.813,0,0,0-9.106-1.484,42.206,42.206,0,0,0-12.5,1.2c.325-1.246.6-2.373.861-3.466a36.852,36.852,0,0,1,4.416-.025,49.443,49.443,0,0,1,8.711,1.422,78.059,78.059,0,0,0,8.713,1.6c.15.378.316.747.49,1.112C52.787,58.443,52.257,58.323,51.742,58.2Zm17.55,8.321A15.559,15.559,0,1,1,84.851,50.967,15.577,15.577,0,0,1,69.292,66.526Z" transform="translate(-20.448 0.003)" fill="#12263f"/>
      </g>
    </g>
  </g>
</svg>
