<svg xmlns="http://www.w3.org/2000/svg" width="78.554" height="78.554" viewBox="0 0 78.554 78.554">
  <g id="Grupo_1071813" data-name="Grupo 1071813" transform="translate(-184 -1136.203)">
    <g id="Grupo_995637" data-name="Grupo 995637" transform="translate(184 1136.203)">
      <path id="Trazado_771736" data-name="Trazado 771736" d="M39.277,0A39.277,39.277,0,1,1,0,39.277,39.277,39.277,0,0,1,39.277,0Z" transform="translate(0 0)" fill="#ff981e"/>
    </g>
    <g id="meta" transform="translate(187.727 1127.047)">
      <g id="Grupo_1098817" data-name="Grupo 1098817" transform="translate(1.046 12.046)">
        <path id="Trazado_838349" data-name="Trazado 838349" d="M328.358,74.366h-7.845a.279.279,0,0,1-.232-.433l2.4-3.595a.279.279,0,0,0,0-.309l-2.4-3.595a.279.279,0,0,1,.232-.434h8.542v7.669A.7.7,0,0,1,328.358,74.366Z" transform="translate(-276.63 -59.377)" fill="#ff318e"/>
        <path id="Trazado_838350" data-name="Trazado 838350" d="M376.881,47.366H369.2a.7.7,0,0,1-.7-.7V39.7a.7.7,0,0,1,.7-.7h7.683Z" transform="translate(-318.166 -36.142)" fill="#ff529d"/>
        <path id="Trazado_838351" data-name="Trazado 838351" d="M55.919,396.049H44.888l.157-11.059a.558.558,0,0,1,.558-.558l4.041-.932h6.274l2.263,6.64Z" transform="translate(-39.675 -332.608)" fill="#ff529d"/>
        <path id="Trazado_838352" data-name="Trazado 838352" d="M42,383.5v12.549H36V384.058a.558.558,0,0,1,.558-.558Z" transform="translate(-32.026 -332.608)" fill="#ff318e"/>
        <path id="Trazado_838353" data-name="Trazado 838353" d="M143.919,348.717H132.888l.157-18.728a.558.558,0,0,1,.558-.558l4.041-.932h6.274l1.8,9.585Z" transform="translate(-115.405 -285.277)" fill="#2baef7"/>
        <path id="Trazado_838354" data-name="Trazado 838354" d="M130,328.5v20.217h-6V329.058a.558.558,0,0,1,.558-.558Z" transform="translate(-107.756 -285.277)" fill="#21a1e8"/>
        <path id="Trazado_838355" data-name="Trazado 838355" d="M231.919,301.386H220.888l.157-26.4a.558.558,0,0,1,.558-.558l4.041-.932h6.274l3.549,14.419Z" transform="translate(-191.135 -237.946)" fill="#3fe0c1"/>
        <path id="Trazado_838356" data-name="Trazado 838356" d="M218,273.5v27.886h-6V274.058a.558.558,0,0,1,.558-.558Z" transform="translate(-183.487 -237.946)" fill="#20d1a2"/>
        <path id="Trazado_838357" data-name="Trazado 838357" d="M319.919,254.054H308.888l.157-34.065a.558.558,0,0,1,.558-.558l4.041-.932h6.274l2.617,18.938Z" transform="translate(-266.866 -190.614)" fill="#ffe97b"/>
        <path id="Trazado_838358" data-name="Trazado 838358" d="M306,218.5v35.554h-6v-35a.558.558,0,0,1,.558-.558Z" transform="translate(-259.217 -190.614)" fill="#ffde2e"/>
        <path id="Trazado_838359" data-name="Trazado 838359" d="M422.265,40.443H418.5V20.382a1.882,1.882,0,1,1,3.765,0Z" transform="translate(-361.195 -18.5)" fill="#e8edf2"/>
        <path id="Trazado_838360" data-name="Trazado 838360" d="M407.919,206.723H396.888l.157-41.733a.558.558,0,0,1,.558-.558l4.041-.932h5.717a.558.558,0,0,1,.558.558Z" transform="translate(-342.596 -143.283)" fill="#66deff"/>
        <path id="Trazado_838361" data-name="Trazado 838361" d="M394,163.5v43.223h-6V164.058a.558.558,0,0,1,.558-.558Z" transform="translate(-334.947 -143.283)" fill="#0cb2e0"/>
        <path id="Trazado_838362" data-name="Trazado 838362" d="M78.527,467.683H13.762l-3.045-.423a.558.558,0,0,1-.558-.558l.052-2.415a.558.558,0,0,1,.558-.558l2.993-.23H78.527a.558.558,0,0,1,.558.558v3.067A.558.558,0,0,1,78.527,467.683Z" transform="translate(-9.788 -401.454)" fill="#f5f8f9"/>
        <path id="Trazado_838363" data-name="Trazado 838363" d="M11.474,463.5v4.183H8.058a.558.558,0,0,1-.558-.558v-3.067a.558.558,0,0,1,.558-.558Z" transform="translate(-7.5 -401.454)" fill="#e8edf2"/>
      </g>
      <path id="Trazado_838364" data-name="Trazado 838364" d="M70.342,73.046H67.414V50.909a1.046,1.046,0,0,0-2.091,0V73.046H55.144V33.309H65.323V46.029a1.046,1.046,0,1,0,2.091,0V32.263a1.046,1.046,0,0,0-1.046-1.046H63.161V13.928a2.927,2.927,0,0,0-5.853-.07H52.077A1.745,1.745,0,0,0,50.334,15.6v2.022H44.408a1.046,1.046,0,0,0-.87,1.626l2.4,3.6-2.4,3.6a1.046,1.046,0,0,0,.87,1.626h8.366a1.745,1.745,0,0,0,1.743-1.743V24.315h2.789v6.9H54.1a1.046,1.046,0,0,0-1.046,1.046v6.623H41.829a1.046,1.046,0,0,0-1.046,1.046v6.623H29.559A1.046,1.046,0,0,0,28.513,47.6v6.623H17.289a1.046,1.046,0,0,0-1.046,1.046v6.623H5.019a1.046,1.046,0,0,0-1.046,1.046V73.046H1.046A1.046,1.046,0,0,0,0,74.092v4.183A1.046,1.046,0,0,0,1.046,79.32h69.3a1.046,1.046,0,0,0,1.046-1.046V74.092A1.046,1.046,0,0,0,70.342,73.046ZM52.425,25.989H46.362l1.7-2.557a1.045,1.045,0,0,0,0-1.16l-1.7-2.557h3.972v2.858a1.745,1.745,0,0,0,1.743,1.743h.349Zm0-3.765V15.95h4.88v6.274Zm6.971-8.3a.837.837,0,1,1,1.673,0V31.217H59.4ZM30.6,48.646H40.783v4.465a1.046,1.046,0,1,0,2.091,0V40.977H53.053V73.046H42.875V57.991a1.046,1.046,0,0,0-2.091,0V73.046H30.6ZM6.065,63.983H16.244v9.063H6.065ZM69.3,77.229H2.091V75.137H21.054a1.046,1.046,0,1,0,0-2.091H18.335V56.314H28.513V73.046H25.934a1.046,1.046,0,1,0,0,2.091H69.3Z" fill="#12263f"/>
    </g>
  </g>
</svg>
