<svg xmlns="http://www.w3.org/2000/svg" width="78.554" height="78.554" viewBox="0 0 78.554 78.554">
  <g id="Grupo_1071819" data-name="Grupo 1071819" transform="translate(-184 -1136.203)">
    <g id="Grupo_995637" data-name="Grupo 995637" transform="translate(184 1136.203)">
      <path id="Trazado_771736" data-name="Trazado 771736" d="M39.277,0A39.277,39.277,0,1,1,0,39.277,39.277,39.277,0,0,1,39.277,0Z" transform="translate(0 0)" fill="#ff981e"/>
    </g>
    <g id="diagrama-de-flujo" transform="translate(191.725 1117.073)">
      <g id="Grupo_1071834" data-name="Grupo 1071834" transform="translate(0.924 31.552)">
        <g id="Grupo_1071833" data-name="Grupo 1071833" transform="translate(0 0)">
          <g id="Grupo_1071829" data-name="Grupo 1071829">
            <g id="Grupo_1071827" data-name="Grupo 1071827" transform="translate(0 0.395)">
              <g id="Grupo_1071826" data-name="Grupo 1071826">
                <g id="Grupo_1071825" data-name="Grupo 1071825">
                  <path id="Trazado_771765" data-name="Trazado 771765" d="M9.349,94.631A1.849,1.849,0,0,1,7.5,92.782V48.853l1.232-5.687a1.849,1.849,0,0,1,1.849-1.849l54.236.381c1.021,0,2.7.828,2.7,1.361V90.216c0,1.509-1.83,4.05-2.851,4.05l-1.118.364Z" transform="translate(-7.5 -41.317)" fill="#f9f7f8"/>
                </g>
              </g>
            </g>
            <path id="Trazado_771766" data-name="Trazado 771766" d="M68.269,40.409v5.23l-3.282.393L7.5,46.044V39.963a1.849,1.849,0,0,1,1.849-1.849H63.224l2.879.128A2.438,2.438,0,0,1,68.269,40.409Z" transform="translate(-7.5 -38.114)" fill="#64ddfe"/>
            <g id="Grupo_1071828" data-name="Grupo 1071828" transform="translate(55.724)">
              <path id="Trazado_771767" data-name="Trazado 771767" d="M465.987,93.7l1.509,1.067v43.942a1.849,1.849,0,0,1-1.849,1.849h-3.353l.39-.231a2.128,2.128,0,0,0,1.044-1.831l.012-9.989-.461-7.086.461-8.22-.012-18.433Z" transform="translate(-461.965 -86.848)" fill="#efedef"/>
              <path id="Trazado_771768" data-name="Trazado 771768" d="M465.153,39.963v6.069h-3.768V40.51a2.421,2.421,0,0,0-1.271-2.13l-.492-.266H463.3A1.849,1.849,0,0,1,465.153,39.963Z" transform="translate(-459.622 -38.114)" fill="#30a2c2"/>
            </g>
          </g>
          <g id="Grupo_1071832" data-name="Grupo 1071832" transform="translate(4.284 13.742)">
            <g id="Grupo_1071831" data-name="Grupo 1071831">
              <path id="Trazado_771769" data-name="Trazado 771769" d="M195.847,259.338l-1.5-1.255-2.859-2.859a.246.246,0,0,1,0-.349l4.36-4.36a.246.246,0,0,1,.349,0l2.859,2.859,1.255,1.5a.246.246,0,0,1,0,.349l-4.114,4.114A.246.246,0,0,1,195.847,259.338Z" transform="translate(-173.031 -238.016)" fill="#0c91d8"/>
              <path id="Trazado_771770" data-name="Trazado 771770" d="M220.689,275.009l-1.6-1.6a.246.246,0,0,1,0,.349l-4.36,4.36a.246.246,0,0,1-.349,0l1.6,1.6a.246.246,0,0,0,.349,0l4.36-4.36A.246.246,0,0,0,220.689,275.009Z" transform="translate(-193.165 -258.149)" fill="#1583bd"/>
              <g id="Grupo_1071830" data-name="Grupo 1071830">
                <path id="Trazado_771771" data-name="Trazado 771771" d="M214.3,165.419l-2.219.246h-15.38a.5.5,0,0,1-.5-.5v-4.7a.5.5,0,0,1,.5-.5h15.38l2.219.246a.5.5,0,0,1,.5.5v4.2A.5.5,0,0,1,214.3,165.419Z" transform="translate(-177.235 -158.7)" fill="#bd50b6"/>
                <path id="Trazado_771772" data-name="Trazado 771772" d="M325.733,159.649h-2.712a.5.5,0,0,1,.5.5v4.7a.5.5,0,0,1-.5.5h2.712a.5.5,0,0,0,.5-.5v-4.7A.5.5,0,0,0,325.733,159.649Z" transform="translate(-288.418 -158.412)" fill="#993693"/>
                <path id="Trazado_771773" data-name="Trazado 771773" d="M50.135,153.732a3.519,3.519,0,0,1-3.752,3.752,3.822,3.822,0,0,1-3.875-2.343,4.125,4.125,0,0,1,5.284-5.284,3.822,3.822,0,0,1,2.343,3.875Z" transform="translate(-42.261 -149.61)" fill="#fce459"/>
                <path id="Trazado_771774" data-name="Trazado 771774" d="M49.551,151.616a4.124,4.124,0,0,1-5.284,5.284,4.122,4.122,0,1,0,5.284-5.284Z" transform="translate(-44.02 -151.369)" fill="#f9d608"/>
                <path id="Trazado_771775" data-name="Trazado 771775" d="M333.37,363.271a3.519,3.519,0,0,1-3.752,3.752,3.822,3.822,0,0,1-3.875-2.343,4.124,4.124,0,0,1,5.284-5.284A3.822,3.822,0,0,1,333.37,363.271Z" transform="translate(-290.588 -333.324)" fill="#fce459"/>
                <path id="Trazado_771776" data-name="Trazado 771776" d="M332.785,361.155a4.124,4.124,0,0,1-5.284,5.284,4.122,4.122,0,1,0,5.284-5.284Z" transform="translate(-292.346 -335.082)" fill="#f9d608"/>
                <path id="Trazado_771777" data-name="Trazado 771777" d="M130.394,359.626h4.353l2.342.246a.592.592,0,0,1,.592.592v6.448a.592.592,0,0,1-.592.592l-2.342.246h-4.353a.592.592,0,0,1-.592-.592v-6.941A.592.592,0,0,1,130.394,359.626Z" transform="translate(-119.013 -333.742)" fill="#bbec6c"/>
                <path id="Trazado_771778" data-name="Trazado 771778" d="M170.76,359.626h-2.835a.592.592,0,0,1,.592.592v6.941a.592.592,0,0,1-.592.592h2.835a.592.592,0,0,0,.592-.592v-6.941A.592.592,0,0,0,170.76,359.626Z" transform="translate(-152.437 -333.742)" fill="#a2e62e"/>
              </g>
            </g>
          </g>
        </g>
      </g>
      <g id="Grupo_1071836" data-name="Grupo 1071836" transform="translate(0 30.63)">
        <path id="Trazado_771779" data-name="Trazado 771779" d="M156.123,324.01a.924.924,0,0,0-.924.924V340.47a1.087,1.087,0,0,1-1.086,1.086H108.074a.924.924,0,1,0,0,1.849h46.038a2.938,2.938,0,0,0,2.935-2.935V324.934A.924.924,0,0,0,156.123,324.01Z" transform="translate(-93.944 -287.851)"/>
        <path id="Trazado_771780" data-name="Trazado 771780" d="M60.169,30.63H21.445a.924.924,0,1,0,0,1.849H60.169a1.087,1.087,0,0,1,1.086,1.086v4.91H1.849v-4.91a1.087,1.087,0,0,1,1.086-1.086h14.2a.924.924,0,1,0,0-1.849H2.935A2.938,2.938,0,0,0,0,33.565V83.249a2.938,2.938,0,0,0,2.935,2.935H9.817a.924.924,0,1,0,0-1.849H2.935a1.087,1.087,0,0,1-1.086-1.086V40.323H61.255V63.4a.924.924,0,1,0,1.849,0V33.565A2.938,2.938,0,0,0,60.169,30.63Z" transform="translate(0 -30.63)"/>
        <path id="Trazado_771781" data-name="Trazado 771781" d="M207.975,152.48H190.131a1.423,1.423,0,0,0-1.421,1.421V158.6a1.423,1.423,0,0,0,1.421,1.421h9.255a.924.924,0,0,0,0-1.849h-8.827v-3.839h16.989v3.839H203.7a.924.924,0,0,0,0,1.849h4.275A1.423,1.423,0,0,0,209.4,158.6v-1.423h2.351a1.1,1.1,0,0,1,1.1,1.1v8.872a1.1,1.1,0,0,1-1.1,1.1h-7.686l.613-.613a.924.924,0,1,0-1.307-1.307l-2.191,2.191a.924.924,0,0,0,0,1.307l2.191,2.191a.924.924,0,1,0,1.307-1.307l-.613-.613h7.686a2.948,2.948,0,0,0,2.945-2.945v-3.512h6.623a1.108,1.108,0,0,1,1.107,1.107v15.306a1.108,1.108,0,0,1-1.107,1.107h-1.973l.613-.613a.924.924,0,1,0-1.307-1.307l-2.191,2.191a.924.924,0,0,0,0,1.307l2.191,2.191a.924.924,0,1,0,1.307-1.307l-.613-.613h1.973a2.959,2.959,0,0,0,2.956-2.956V164.736a2.959,2.959,0,0,0-2.956-2.956h-6.623v-3.512a2.948,2.948,0,0,0-2.945-2.945H209.4V153.9a1.423,1.423,0,0,0-1.421-1.421Z" transform="translate(-165.452 -137.462)"/>
        <path id="Trazado_771782" data-name="Trazado 771782" d="M39.808,142.11a5.046,5.046,0,1,0,4.96,5.971H49.1l-.613.613A.924.924,0,1,0,49.8,150l2.191-2.191a.924.924,0,0,0,0-1.307L49.8,144.312a.924.924,0,0,0-1.307,1.307l.613.613H44.768a5.054,5.054,0,0,0-4.96-4.122Zm0,8.244a3.2,3.2,0,1,1,3.2-3.2A3.2,3.2,0,0,1,39.808,150.354Z" transform="translate(-30.478 -128.37)"/>
        <path id="Trazado_771783" data-name="Trazado 771783" d="M323.042,351.649a5.046,5.046,0,1,0,5.046,5.046A5.052,5.052,0,0,0,323.042,351.649Zm0,8.244a3.2,3.2,0,1,1,3.2-3.2A3.2,3.2,0,0,1,323.042,359.893Z" transform="translate(-278.803 -312.084)"/>
        <path id="Trazado_771784" data-name="Trazado 771784" d="M51.611,263.5a.924.924,0,0,0,1.307,0l2.191-2.191a.924.924,0,0,0,0-1.307l-2.191-2.191a.924.924,0,1,0-1.307,1.307l.613.613H50.585a1.1,1.1,0,0,1-1.1-1.1v-8.872a1.1,1.1,0,0,1,1.1-1.1h14.29l4.167,4.167v6.9H66.818V257.19a1.519,1.519,0,0,0-1.517-1.517H58.36a1.519,1.519,0,0,0-1.517,1.517v6.941a1.519,1.519,0,0,0,1.517,1.517H65.3a1.519,1.519,0,0,0,1.517-1.517v-2.546h9.515l-.613.613a.924.924,0,0,0,1.307,1.307l2.191-2.191a.924.924,0,0,0,0-1.307l-2.191-2.191a.924.924,0,1,0-1.307,1.307l.613.613h-5.44v-6.9l4.438-4.438a.925.925,0,0,0,0-1.307l-4.709-4.709a.924.924,0,0,0-1.307,0l-4.438,4.438H50.585a2.948,2.948,0,0,0-2.945,2.945v8.872a2.948,2.948,0,0,0,2.945,2.945h1.638l-.613.613a.924.924,0,0,0,0,1.307Zm13.358.294H58.691v-6.277h6.277Zm5-19.453,3.4,3.4-3.4,3.4-3.4-3.4Z" transform="translate(-41.769 -216.049)"/>
        <g id="Grupo_1071835" data-name="Grupo 1071835" transform="translate(4.261 3.922)">
          <circle id="Elipse_6001" data-name="Elipse 6001" cx="0.924" cy="0.924" r="0.924"/>
          <circle id="Elipse_6002" data-name="Elipse 6002" cx="0.924" cy="0.924" r="0.924" transform="translate(4.205)"/>
          <circle id="Elipse_6003" data-name="Elipse 6003" cx="0.924" cy="0.924" r="0.924" transform="translate(8.411)"/>
        </g>
      </g>
    </g>
  </g>
</svg>
