<svg xmlns="http://www.w3.org/2000/svg" width="78.554" height="78.554" viewBox="0 0 78.554 78.554">
  <g id="Grupo_1098619" data-name="Grupo 1098619" transform="translate(-184 -1136.203)">
    <g id="Grupo_995637" data-name="Grupo 995637" transform="translate(184 1136.203)">
      <path id="Trazado_771736" data-name="Trazado 771736" d="M39.277,0A39.277,39.277,0,1,1,0,39.277,39.277,39.277,0,0,1,39.277,0Z" transform="translate(0 0)" fill="#ff981e"/>
    </g>
    <g id="portafolio" transform="translate(155.773 1134.825)">
      <g id="Grupo_1098818" data-name="Grupo 1098818" transform="translate(38.561 7.5)">
        <rect id="Rectángulo_387818" data-name="Rectángulo 387818" width="45.739" height="62.371" transform="translate(4.158 0)" fill="#f2fbff"/>
        <path id="Trazado_838388" data-name="Trazado 838388" d="M111.35,7.5V33.913h-1.3l-4.1,4.172-22.815.009-4.068-4.169-9.444,0V69.873h45.739V7.5Z" transform="translate(-65.469 -7.502)" fill="#dff6fd"/>
        <rect id="Rectángulo_387819" data-name="Rectángulo 387819" width="4.158" height="58.213" transform="translate(49.897 4.158)" fill="#c8effe"/>
        <path id="Trazado_838389" data-name="Trazado 838389" d="M96.777,224.766l-12.509,0-4.1,4.172-25.066.01-4.068-4.169-12.474,0v37.423H96.777Z" transform="translate(-38.564 -195.682)" fill="#918291"/>
        <path id="Trazado_838390" data-name="Trazado 838390" d="M442.374,224.768v37.444h4.158V224.766Z" transform="translate(-388.319 -195.682)" fill="#867885"/>
        <rect id="Rectángulo_387820" data-name="Rectángulo 387820" width="12.497" height="12.497" transform="translate(29.084 8.316)" fill="#7bb1ff"/>
        <path id="Trazado_838391" data-name="Trazado 838391" d="M183.6,318.127v6.307a2.008,2.008,0,0,1-2.008,2.008H168.98a2.008,2.008,0,0,1-2.008-2.008v-6.307h-4.158v8.316a4.158,4.158,0,0,0,4.158,4.158H183.6a4.158,4.158,0,0,0,4.158-4.158v-8.316Z" transform="translate(-146.182 -276.546)" fill="#f2fbff"/>
      </g>
      <g id="Grupo_1098819" data-name="Grupo 1098819" transform="translate(38.56 7.5)">
        <path id="Trazado_838392" data-name="Trazado 838392" d="M69.63,17.512V7.5h45.738V36.587" transform="translate(-65.471 -7.5)" fill="none" stroke="#000" stroke-linecap="round" stroke-linejoin="round" stroke-miterlimit="10" stroke-width="1.2"/>
        <line id="Línea_1812" data-name="Línea 1812" y1="14.72" transform="translate(4.159 14.386)" fill="none" stroke="#000" stroke-linecap="round" stroke-linejoin="round" stroke-miterlimit="10" stroke-width="1.2"/>
        <path id="Trazado_838393" data-name="Trazado 838393" d="M411.31,63.489V38.56h4.158V63.488" transform="translate(-361.413 -34.402)" fill="none" stroke="#000" stroke-linecap="round" stroke-linejoin="round" stroke-miterlimit="10" stroke-width="1.2"/>
        <path id="Trazado_838394" data-name="Trazado 838394" d="M96.774,237.757v24.458H38.56V224.793l12.475-.005,4.068,4.169,25.067-.009,4.095-4.173,12.51,0v8.611" transform="translate(-38.56 -195.686)" fill="none" stroke="#000" stroke-linecap="round" stroke-linejoin="round" stroke-miterlimit="10" stroke-width="1.2"/>
        <rect id="Rectángulo_387821" data-name="Rectángulo 387821" width="12.497" height="12.497" transform="translate(29.084 8.317)" fill="none" stroke="#000" stroke-linecap="round" stroke-linejoin="round" stroke-miterlimit="10" stroke-width="1.2"/>
        <line id="Línea_1813" data-name="Línea 1813" x1="10.395" transform="translate(12.475 8.317)" fill="none" stroke="#000" stroke-linecap="round" stroke-linejoin="round" stroke-miterlimit="10" stroke-width="1.2"/>
        <line id="Línea_1814" data-name="Línea 1814" x1="10.395" transform="translate(12.475 12.475)" fill="none" stroke="#000" stroke-linecap="round" stroke-linejoin="round" stroke-miterlimit="10" stroke-width="1.2"/>
        <line id="Línea_1815" data-name="Línea 1815" x1="8.316" transform="translate(12.475 16.633)" fill="none" stroke="#000" stroke-linecap="round" stroke-linejoin="round" stroke-miterlimit="10" stroke-width="1.2"/>
        <path id="Trazado_838395" data-name="Trazado 838395" d="M177.449,330.6H183.6a4.159,4.159,0,0,0,4.159-4.158V318.13H183.6v6.308a2.008,2.008,0,0,1-2.008,2.008H168.977a2.008,2.008,0,0,1-2.008-2.008V318.13H162.81v8.315a4.159,4.159,0,0,0,4.159,4.158h6.1" transform="translate(-146.178 -276.548)" fill="none" stroke="#000" stroke-linecap="round" stroke-linejoin="round" stroke-miterlimit="10" stroke-width="1.2"/>
      </g>
    </g>
  </g>
</svg>
