<svg xmlns="http://www.w3.org/2000/svg" xmlns:xlink="http://www.w3.org/1999/xlink" width="60.313" height="64.949" viewBox="0 0 60.313 64.949">
  <defs>
    <filter id="Trazado_771226" x="0" y="0" width="60.313" height="64.949" filterUnits="userSpaceOnUse">
      <feOffset dy="3" input="SourceAlpha"/>
      <feGaussianBlur stdDeviation="3" result="blur"/>
      <feFlood flood-opacity="0.161"/>
      <feComposite operator="in" in2="blur"/>
      <feComposite in="SourceGraphic"/>
    </filter>
  </defs>
  <g id="Grupo_1071745" data-name="Grupo 1071745" transform="translate(-831 -936.917)">
    <g id="Grupo_1071655" data-name="Grupo 1071655" transform="translate(841 944)">
      <g transform="matrix(1, 0, 0, 1, -10, -7.08)" filter="url(#Trazado_771226)">
        <path id="Trazado_771226-2" data-name="Trazado 771226" d="M447.517,279.136V264.064a7.732,7.732,0,0,0-3.773-6.655l-12.36-7.329a7.582,7.582,0,0,0-7.5-.14l-12.665,6.885a7.728,7.728,0,0,0-4.02,6.795v15.21a7.733,7.733,0,0,0,3.68,6.6l11.847,7.255a7.583,7.583,0,0,0,7.5.242l13.177-6.949A7.727,7.727,0,0,0,447.517,279.136Z" transform="translate(-397.2 -241.94)" fill="#2ec49f" stroke="#fff" stroke-miterlimit="10" stroke-width="2"/>
      </g>
    </g>
    <g id="Page-1" transform="translate(846.016 945.861)">
      <g id="_090---Person-Speaking" data-name="090---Person-Speaking" transform="translate(0 0)">
        <g id="Icons" transform="translate(0.633 0.641)">
          <path id="Shape" d="M17.02,44.032c1.69,1.791,5.387,4.368,12.887,5-.025-.766-.032-1.6.006-2.412-7.235-.684-10.495-3.646-11.824-5.431a5.818,5.818,0,0,1-1,2.753C17.071,43.969,17.045,44,17.02,44.032Z" transform="translate(-14.099 -15.75)" fill="#ff9801"/>
          <path id="Shape-2" data-name="Shape" d="M17.1,43.943a5.818,5.818,0,0,0,1-2.753,10.248,10.248,0,0,0,1.508,1.6A4.4,4.4,0,0,1,19,43.943c-.019.025-.044.057-.07.089,1.539,1.632,4.755,3.911,10.985,4.782,0,.072,0,.148,0,.218-7.5-.633-11.2-3.209-12.887-5C17.055,44,17.081,43.969,17.1,43.943Z" transform="translate(-14.109 -15.75)" fill="#f57c00"/>
          <path id="Shape-3" data-name="Shape" d="M3.511,19.78a9.224,9.224,0,0,1,.7,4.76c-.076.627-.127,1.272-.222,1.9,1.329,1.785,4.589,4.747,11.824,5.431.095-2.272.506-4.488,1.671-5.133a41.616,41.616,0,0,0,4.443,1.342,1.393,1.393,0,0,0,1.639-1.019c.437-1.26-.165-1.6.025-2.355.133-.519.627-.646,1.013-.924.31-.222-.551-1.26-.551-1.26a3.582,3.582,0,0,0,1.114-.323c.222-.19-.089-.506-.373-1.1a1.382,1.382,0,0,1-.095-.829c.1-.551.937-.76,1.342-1.063.855-.639.9-.785-1.329-3.2a2.953,2.953,0,0,1-1.133-2.089c0-.892,1.108-.892,1.108-2.158A18.655,18.655,0,0,0,23.4,7.209a9.252,9.252,0,0,0-1.937-3.171,9.025,9.025,0,0,0-4.747-2.31C10.284.24,7.056,1.057,3.391,3.943A7.951,7.951,0,0,0,.517,8.076,15.177,15.177,0,0,0,0,12.279c.057,3.754,2.443,5.07,3.507,7.5Z" transform="translate(-0.002 -0.999)" fill="#ffe0b2"/>
          <path id="Shape-4" data-name="Shape" d="M17,12.282a15.177,15.177,0,0,1,.513-4.2,7.951,7.951,0,0,1,2.874-4.133,11.912,11.912,0,0,1,8.893-2.909A11.963,11.963,0,0,0,22.29,3.948a7.951,7.951,0,0,0-2.874,4.133,15.177,15.177,0,0,0-.515,4.2c.057,3.754,2.443,5.07,3.507,7.5a9.224,9.224,0,0,1,.7,4.76c-.076.627-.127,1.272-.222,1.9,1.207,1.621,4.017,4.207,9.938,5.182,0,.083-.009.166-.013.249-7.235-.684-10.495-3.646-11.824-5.431.095-.627.146-1.272.222-1.9a9.224,9.224,0,0,0-.7-4.76c-1.063-2.431-3.45-3.747-3.507-7.5Z" transform="translate(-17 -1.002)" fill="#dfc49c"/>
          <path id="Shape-5" data-name="Shape" d="M16.728,53.421a.625.625,0,0,0,.627.69H32.091a.633.633,0,0,0,.627-.7c-.063-.627-.146-1.608-.19-2.734-7.5-.633-11.2-3.209-12.887-5a20.925,20.925,0,0,0-2.912,7.741Z" transform="translate(-16.719 -17.398)" fill="#ffdc00"/>
          <path id="Shape-6" data-name="Shape" d="M38.366,45.68a11.259,11.259,0,0,0,1.227,1.113,21.345,21.345,0,0,0-2.24,6.629.625.625,0,0,0,.627.69h-1.9a.625.625,0,0,1-.627-.69A20.925,20.925,0,0,1,38.366,45.68Z" transform="translate(-35.445 -17.398)" fill="#fec108"/>
          <g id="Grupo_1098826" data-name="Grupo 1098826" transform="translate(2.535 2.532)">
            <path id="Shape-7" data-name="Shape" d="M23.633,11.963a.633.633,0,0,0,.623-.529c.567-3.392,4.254-5.168,7.605-5.168a.633.633,0,1,0,0-1.266c-3.884,0-8.172,2.139-8.853,6.226a.633.633,0,0,0,.52.728A.587.587,0,0,0,23.633,11.963Z" transform="translate(-23 -5)" fill="#f5f5f5"/>
            <ellipse id="Oval" cx="0.633" cy="0.633" rx="0.633" ry="0.633" transform="translate(0 8.229)" fill="#f5f5f5"/>
          </g>
        </g>
        <g id="Icons_copy">
          <path id="Shape-8" data-name="Shape" d="M12.314,34.094a.633.633,0,0,1,.871.206,3.085,3.085,0,0,1,0,3.2.633.633,0,1,1-1.076-.665,1.824,1.824,0,0,0,0-1.867.633.633,0,0,1,.205-.871Z" transform="translate(16.754 -13.103)"/>
          <path id="Shape-9" data-name="Shape" d="M8.256,30.128a.633.633,0,0,1,.886.132,6.963,6.963,0,0,1,0,8.35.633.633,0,1,1-1.013-.76,5.7,5.7,0,0,0,0-6.841.633.633,0,0,1,.127-.881Z" transform="translate(22.383 -11.636)"/>
          <path id="Shape-10" data-name="Shape" d="M4.127,28.013a.633.633,0,1,1,1.013-.76,10.128,10.128,0,0,1,0,12.153.633.633,0,0,1-1.013-.76,8.862,8.862,0,0,0,0-10.634Z" transform="translate(28.285 -10.534)"/>
          <path id="Shape-11" data-name="Shape" d="M1.139,40.2a.633.633,0,0,1-1.013-.76,12.027,12.027,0,0,0,0-14.432.633.633,0,1,1,1.013-.76A13.293,13.293,0,0,1,1.139,40.2Z" transform="translate(34.184 -9.433)"/>
          <path id="Shape-12" data-name="Shape" d="M19.12,29.441a7.126,7.126,0,0,0,1.025-3.652c.025-.234.051-.462.076-.7a8.491,8.491,0,0,0-.658-4.431,11.224,11.224,0,0,0-1.336-2.12,8.933,8.933,0,0,1-2.222-5.627,15.68,15.68,0,0,1,.538-4.38,8.584,8.584,0,0,1,3.1-4.462C23.7.875,27.2.286,33.495,1.736a9.738,9.738,0,0,1,5.064,2.494,9.821,9.821,0,0,1,2.07,3.386l.089.234a16.462,16.462,0,0,1,1.241,4.538,2.248,2.248,0,0,1-.817,1.747c-.247.234-.291.291-.291.418a2.122,2.122,0,0,0,.8,1.481l.165.171c1.532,1.652,2.1,2.342,2.038,3.045a1.577,1.577,0,0,1-.791,1.089,3.687,3.687,0,0,1-.551.323,1.972,1.972,0,0,0-.551.348.792.792,0,0,0,.051.443c.07.158.152.291.215.411.19.342.551.975,0,1.437a1.529,1.529,0,0,1-.487.26,1.381,1.381,0,0,1,.2.81.784.784,0,0,1-.323.557c-.12.082-.241.152-.367.228-.285.158-.373.222-.4.335a.949.949,0,0,0,.044.513A3.038,3.038,0,0,1,40.8,27.9a2.026,2.026,0,0,1-2.361,1.431,39.75,39.75,0,0,1-4.216-1.26c-1.076.981-1.45,4.627-.956,9.514a1.282,1.282,0,0,1-.323.975,1.266,1.266,0,0,1-.937.418H17.271a1.254,1.254,0,0,1-.943-.424,1.239,1.239,0,0,1-.316-.968,21.287,21.287,0,0,1,3.108-8.14Zm13.837-1.81c-.12-.044-.234-.082-.342-.12-.392-.139-.684-.241-.829-.285-2.241-.709-3.367-1.747-3.336-3.083a.658.658,0,0,1,.652-.62.625.625,0,0,1,.614.646c-.006.4.3,1.171,2.456,1.848.152.051.456.158.861.3.361.127.8.285,1.291.449h.006a40.494,40.494,0,0,0,4.361,1.323.774.774,0,0,0,.911-.6,1.772,1.772,0,0,0,.051-1.19,2.223,2.223,0,0,1-.038-1.12,1.772,1.772,0,0,1,.962-1.1,4.767,4.767,0,0,0-.373-.519.633.633,0,0,1-.1-.633.626.626,0,0,1,.5-.4c.158-.025.342-.057.487-.095-.07-.127-.152-.272-.228-.43a2,2,0,0,1-.146-1.222c.127-.684.753-1.006,1.215-1.241a2.6,2.6,0,0,0,.367-.209,3.528,3.528,0,0,0,.279-.222,13.973,13.973,0,0,0-1.7-2.038l-.152-.158a3.323,3.323,0,0,1-1.146-2.355,1.745,1.745,0,0,1,.677-1.329,1.013,1.013,0,0,0,.43-.836,17.476,17.476,0,0,0-1.158-4.1l-.089-.241A8.576,8.576,0,0,0,37.634,5.1,8.457,8.457,0,0,0,33.21,2.97c-6.627-1.525-9.5-.494-12.792,2.1a7.279,7.279,0,0,0-2.652,3.817,14.236,14.236,0,0,0-.494,4.013,7.659,7.659,0,0,0,1.975,4.893,12.272,12.272,0,0,1,1.475,2.367,9.8,9.8,0,0,1,.753,5.089c-.025.222-.051.449-.07.677-.038.323-.07.646-.114.968,1.279,1.614,4.26,4.152,10.558,4.9a8.91,8.91,0,0,1,1.108-4.159Zm-12.577,2.2c1.57,1.494,4.937,3.7,11.413,4.374-.006-.38-.006-.766,0-1.152-5.887-.677-9.128-2.867-10.811-4.608a5.715,5.715,0,0,1-.6,1.386Zm11.628,7.874c-.07-.665-.133-1.424-.171-2.222-6.494-.646-10.153-2.728-12.166-4.576a20.934,20.934,0,0,0-2.4,6.8Z" transform="translate(-16.003 -0.986)"/>
        </g>
      </g>
    </g>
  </g>
</svg>
