<svg xmlns="http://www.w3.org/2000/svg" xmlns:xlink="http://www.w3.org/1999/xlink" width="60.313" height="64.949" viewBox="0 0 60.313 64.949">
  <defs>
    <filter id="Trazado_771226" x="0" y="0" width="60.313" height="64.949" filterUnits="userSpaceOnUse">
      <feOffset dy="3" input="SourceAlpha"/>
      <feGaussianBlur stdDeviation="3" result="blur"/>
      <feFlood flood-opacity="0.161"/>
      <feComposite operator="in" in2="blur"/>
      <feComposite in="SourceGraphic"/>
    </filter>
  </defs>
  <g id="Grupo_1098657" data-name="Grupo 1098657" transform="translate(-831 -936.917)">
    <g id="Grupo_1071655" data-name="Grupo 1071655" transform="translate(841 944)">
      <g transform="matrix(1, 0, 0, 1, -10, -7.08)" filter="url(#Trazado_771226)">
        <path id="Trazado_771226-2" data-name="Trazado 771226" d="M447.517,279.136V264.064a7.732,7.732,0,0,0-3.773-6.655l-12.36-7.329a7.582,7.582,0,0,0-7.5-.14l-12.665,6.885a7.728,7.728,0,0,0-4.02,6.795v15.21a7.733,7.733,0,0,0,3.68,6.6l11.847,7.255a7.583,7.583,0,0,0,7.5.242l13.177-6.949A7.727,7.727,0,0,0,447.517,279.136Z" transform="translate(-397.2 -241.94)" fill="#2ec49f" stroke="#fff" stroke-miterlimit="10" stroke-width="2"/>
      </g>
    </g>
    <g id="Page-1" transform="translate(846.087 948.929)">
      <g id="_002---Pen-and-Paper" data-name="002---Pen-and-Paper" transform="translate(0 0)">
        <path id="Shape" d="M25.469,2.138V32.867a1.142,1.142,0,0,1-1.138,1.138H2.138A1.142,1.142,0,0,1,1,32.867V9.439a1.132,1.132,0,0,1,.193-.632l.376.159H7.26A1.707,1.707,0,0,0,8.967,7.26V1.569l-.336-.233A1.142,1.142,0,0,1,9.439,1H24.331a1.142,1.142,0,0,1,1.138,1.138Z" transform="translate(-0.431 -0.431)" fill="#f5f5f5"/>
        <path id="Shape-2" data-name="Shape" d="M40.707,1H39a1.142,1.142,0,0,1,1.138,1.138V32.867A1.142,1.142,0,0,1,39,34.005h1.707a1.142,1.142,0,0,0,1.138-1.138V2.138A1.142,1.142,0,0,0,40.707,1Z" transform="translate(-16.807 -0.431)" fill="#cfd8dc"/>
        <path id="Shape-3" data-name="Shape" d="M9.113,1.823V7.514A1.707,1.707,0,0,1,7.406,9.221H1.716L1.34,9.062a1.073,1.073,0,0,1,.142-.176l7.3-7.3Z" transform="translate(-0.577 -0.685)" fill="#cfd8dc"/>
        <path id="Shape-4" data-name="Shape" d="M52.776,23.049,49.5,25.319,46.26,20.636l3.278-2.265a1.707,1.707,0,0,1,2.373.432l1.3,1.872a1.707,1.707,0,0,1-.432,2.373Z" transform="translate(-19.936 -7.787)" fill="#e91e63"/>
        <path id="Shape-5" data-name="Shape" d="M55.242,20.68l-1.3-1.872a1.7,1.7,0,0,0-2.253-.5,1.678,1.678,0,0,1,.546.5l1.3,1.872a1.707,1.707,0,0,1-.432,2.373l-2.123,1.471.553.8,3.278-2.271a1.707,1.707,0,0,0,.432-2.37Z" transform="translate(-21.969 -7.791)" fill="#ad1457"/>
        <path id="Shape-6" data-name="Shape" d="M36.834,30.1l-11.148,7.7a.574.574,0,0,1-.131.068l-.051-.142-3.044-4.4-.159-.051a.609.609,0,0,1,.148-.148L33.6,25.42Z" transform="translate(-9.61 -10.955)" fill="#f44335"/>
        <path id="Shape-7" data-name="Shape" d="M35.675,25.42l-1.155.8L37.205,30.1,27.124,37.071l.459.664.051.142a.574.574,0,0,0,.131-.068l11.148-7.7Z" transform="translate(-11.689 -10.955)" fill="#c81e1e"/>
        <path id="Rectangle-path" d="M0,0H2.843V5.693H0Z" transform="translate(23.987 14.481) rotate(-34.612)" fill="#ffdc00"/>
        <path id="Shape-8" data-name="Shape" d="M45.385,22.58l-1.155.8,2.686,3.885-1.184.818.552.8,2.339-1.616Z" transform="translate(-19.061 -9.731)" fill="#fec108"/>
        <path id="Shape-9" data-name="Shape" d="M24.021,43.828c-.017.006-.034.011-.057.017l-3.494.848-.028-.108-1.6-2.316-.1-.068,2.026-2.97.159.051,3.044,4.4Z" transform="translate(-8.076 -16.906)" fill="#ffe0b2"/>
        <path id="Shape-10" data-name="Shape" d="M24.908,43.686l-3.044-4.4L21.7,39.23l-.786,1.153,2.283,3.3.051.142c-.017.006-.034.011-.057.017l-1.992.484.178.256.028.108,3.494-.848c.023-.006.04-.011.057-.017Z" transform="translate(-9.015 -16.906)" fill="#dfc49c"/>
        <path id="Shape-11" data-name="Shape" d="M19.226,46.942l-2.669.649a.569.569,0,0,1-.6-.876L17.5,44.45l.1.068,1.6,2.316Z" transform="translate(-6.832 -19.156)" fill="#545c60"/>
        <g id="Grupo_1098827" data-name="Grupo 1098827">
          <path id="Shape-12" data-name="Shape" d="M1.707,34.143H23.9a1.707,1.707,0,0,0,1.707-1.707v-9.1a.569.569,0,1,0-1.138,0v9.1a.569.569,0,0,1-.569.569H1.707a.569.569,0,0,1-.569-.569V9.1H6.829A2.276,2.276,0,0,0,9.1,6.829V1.138H23.9a.569.569,0,0,1,.569.569v9.1a.569.569,0,0,0,1.138,0v-9.1A1.707,1.707,0,0,0,23.9,0H9.008A1.7,1.7,0,0,0,7.8.5L.5,7.8A1.7,1.7,0,0,0,0,9.008V32.436a1.707,1.707,0,0,0,1.707,1.707Zm6.26-32.2V6.829A1.138,1.138,0,0,1,6.829,7.967H1.943Z" transform="translate(0 0)"/>
          <path id="Shape-13" data-name="Shape" d="M6,20.569a.569.569,0,0,0,.569.569H24.21a.569.569,0,1,0,0-1.138H6.569A.569.569,0,0,0,6,20.569Z" transform="translate(-2.586 -8.619)"/>
          <path id="Shape-14" data-name="Shape" d="M6.569,26.138H20.1A.569.569,0,0,0,20.1,25H6.569a.569.569,0,1,0,0,1.138Z" transform="translate(-2.586 -10.774)"/>
          <path id="Shape-15" data-name="Shape" d="M6.569,31.138h9.406a.569.569,0,1,0,0-1.138H6.569a.569.569,0,0,0,0,1.138Z" transform="translate(-2.586 -12.928)"/>
          <path id="Shape-16" data-name="Shape" d="M6.569,40.138h4.279a.569.569,0,0,0,0-1.138H6.569a.569.569,0,0,0,0,1.138Z" transform="translate(-2.586 -16.807)"/>
          <path id="Shape-17" data-name="Shape" d="M6.569,45.138H8.908a.569.569,0,0,0,0-1.138H6.569a.569.569,0,0,0,0,1.138Z" transform="translate(-2.586 -18.962)"/>
          <path id="Shape-18" data-name="Shape" d="M26.247,21.354,15.1,29.063a1.138,1.138,0,0,0-.293.3L11.235,34.6a1.138,1.138,0,0,0-.2.642H6.569a.569.569,0,1,0,0,1.138h5.6a1.151,1.151,0,0,0,.273-.033L18.6,34.849a1.124,1.124,0,0,0,.381-.171l11.143-7.707,2.34-1.618,3.276-2.265a2.279,2.279,0,0,0,.578-3.167l-1.3-1.872a2.276,2.276,0,0,0-3.167-.578l-3.276,2.266ZM28.766,21l2.59,3.744-1.4.972-2.589-3.744Zm.249,5.363-10.3,7.122-2.59-3.744,10.3-7.121ZM15.341,30.595l2.294,3.318-2.371.575-1.3-1.876ZM13.28,33.617l.8,1.159-1.905.463ZM32.51,18.406a1.138,1.138,0,0,1,1.584.289l1.295,1.872A1.138,1.138,0,0,1,35.1,22.15L32.29,24.093,29.7,20.349Z" transform="translate(-2.586 -7.355)"/>
          <path id="Shape-19" data-name="Shape" d="M35.845,48.569v2.276H33.569a.569.569,0,0,0,0,1.138h2.845a.569.569,0,0,0,.569-.569V48.569a.569.569,0,0,0-1.138,0Z" transform="translate(-14.221 -20.685)"/>
          <path id="Shape-20" data-name="Shape" d="M35.121,5H30.569a.569.569,0,1,0,0,1.138h4.552a.569.569,0,0,0,0-1.138Z" transform="translate(-12.928 -2.155)"/>
          <path id="Shape-21" data-name="Shape" d="M36.414,9H33.569a.569.569,0,1,0,0,1.138h2.845a.569.569,0,1,0,0-1.138Z" transform="translate(-14.221 -3.879)"/>
        </g>
      </g>
    </g>
  </g>
</svg>
