<svg xmlns="http://www.w3.org/2000/svg" width="611" height="151.785" viewBox="0 0 611 151.785">
  <g id="Grupo_1098914" data-name="Grupo 1098914" transform="translate(8506 6999.68)">
    <path id="Trazado_838848" data-name="Trazado 838848" d="M0,0H611V151.785H0Z" transform="translate(-8506 -6999.68)" fill="#c2e6dd" opacity="0.997"/>
    <g id="Grupo_1074618" data-name="Grupo 1074618" transform="translate(-8409.874 -6983.68)">
      <g id="Grupo_1074617" data-name="Grupo 1074617">
        <path id="Trazado_821971" data-name="Trazado 821971" d="M138.021,0a25.4,25.4,0,0,0-25.374,25.374V37.8a1.533,1.533,0,0,0,1.533,1.532h8.506a1.532,1.532,0,0,0,1.532-1.532V25.374a13.8,13.8,0,1,1,27.6,0V37.8a1.533,1.533,0,0,0,1.533,1.532h8.506a1.532,1.532,0,0,0,1.532-1.532V25.374A25.4,25.4,0,0,0,138.021,0Zm22.31,36.266h-5.442V25.374a16.867,16.867,0,1,0-33.733,0V36.266h-5.442V25.374a22.309,22.309,0,1,1,44.618,0Z" transform="translate(-112.647)" fill="#12263f"/>
      </g>
    </g>
    <g id="Grupo_1074620" data-name="Grupo 1074620" transform="translate(-8418.452 -6947.414)">
      <g id="Grupo_1074619" data-name="Grupo 1074619">
        <path id="Trazado_821972" data-name="Trazado 821972" d="M125.5,204.89H70.765a6.59,6.59,0,0,0-6.582,6.582v41.194a6.59,6.59,0,0,0,6.582,6.582H125.5a6.59,6.59,0,0,0,6.582-6.583V211.472A6.59,6.59,0,0,0,125.5,204.89Zm3.518,47.777a3.522,3.522,0,0,1-3.518,3.518H70.765a3.522,3.522,0,0,1-3.518-3.518V211.472a3.522,3.522,0,0,1,3.518-3.518H125.5a3.522,3.522,0,0,1,3.518,3.518Z" transform="translate(-64.183 -204.89)" fill="#12263f"/>
      </g>
    </g>
    <g id="Grupo_1074622" data-name="Grupo 1074622" transform="translate(-8392.484 -6932.295)">
      <g id="Grupo_1074621" data-name="Grupo 1074621">
        <path id="Trazado_821973" data-name="Trazado 821973" d="M224.026,304.374a7.984,7.984,0,1,0-10.305,0L212,312.581a1.532,1.532,0,0,0,1.5,1.847h10.751a1.532,1.532,0,0,0,1.5-1.847Zm-2.524-1.94a1.533,1.533,0,0,0-.677,1.607l1.536,7.322h-6.977l1.537-7.321a1.532,1.532,0,0,0-.677-1.607,4.92,4.92,0,1,1,5.257,0Z" transform="translate(-210.889 -290.307)" fill="#12263f"/>
      </g>
    </g>
    <path id="Trazado_838849" data-name="Trazado 838849" d="M3.149-1.765H7.815V0H.952V-10.664h2.2ZM8.606-4.036a4.7,4.7,0,0,1,.454-2.1,3.324,3.324,0,0,1,1.307-1.428,3.814,3.814,0,0,1,1.981-.505,3.609,3.609,0,0,1,2.618.981A3.939,3.939,0,0,1,16.1-4.424l.015.542A4.142,4.142,0,0,1,15.1-.956a3.539,3.539,0,0,1-2.732,1.1,3.556,3.556,0,0,1-2.736-1.1A4.215,4.215,0,0,1,8.606-3.94Zm2.117.15a2.962,2.962,0,0,0,.425,1.727,1.4,1.4,0,0,0,1.216.6,1.4,1.4,0,0,0,1.2-.591A3.241,3.241,0,0,0,14-4.039a2.933,2.933,0,0,0-.432-1.716,1.4,1.4,0,0,0-1.216-.609,1.382,1.382,0,0,0-1.2.605A3.3,3.3,0,0,0,10.723-3.885Zm9.99,2.325a1.388,1.388,0,0,0,.952-.322,1.129,1.129,0,0,0,.381-.857h1.985a2.715,2.715,0,0,1-.439,1.476,2.9,2.9,0,0,1-1.183,1.04,3.7,3.7,0,0,1-1.659.37,3.44,3.44,0,0,1-2.681-1.08,4.275,4.275,0,0,1-.981-2.985v-.139a4.226,4.226,0,0,1,.974-2.922,3.4,3.4,0,0,1,2.673-1.091,3.333,3.333,0,0,1,2.384.846,3,3,0,0,1,.912,2.252H22.046a1.455,1.455,0,0,0-.381-1.005,1.27,1.27,0,0,0-.967-.387,1.275,1.275,0,0,0-1.117.539A3.125,3.125,0,0,0,19.2-4.076v.22A3.164,3.164,0,0,0,19.578-2.1,1.291,1.291,0,0,0,20.713-1.56Zm7.4-1.619-.762.762V0H25.239V-11.25h2.117v6.233l.41-.527,2.029-2.38h2.542l-2.864,3.3L32.585,0H30.154Zm9.25-.535H33.245V-5.42h4.124ZM41.3,0H39.177V-7.925H41.3ZM39.053-9.976a1.042,1.042,0,0,1,.319-.784,1.2,1.2,0,0,1,.868-.308,1.2,1.2,0,0,1,.864.308,1.036,1.036,0,0,1,.322.784,1.039,1.039,0,0,1-.326.791,1.2,1.2,0,0,1-.861.308,1.2,1.2,0,0,1-.861-.308A1.039,1.039,0,0,1,39.053-9.976Zm5.94,2.051.066.916a2.767,2.767,0,0,1,2.278-1.062,2.3,2.3,0,0,1,1.875.74,3.451,3.451,0,0,1,.63,2.212V0H47.725V-5.068a1.373,1.373,0,0,0-.293-.978,1.312,1.312,0,0,0-.974-.3,1.456,1.456,0,0,0-1.34.762V0H43V-7.925ZM58.477-1.56a1.388,1.388,0,0,0,.952-.322,1.129,1.129,0,0,0,.381-.857h1.985a2.715,2.715,0,0,1-.439,1.476,2.9,2.9,0,0,1-1.183,1.04,3.7,3.7,0,0,1-1.659.37,3.44,3.44,0,0,1-2.681-1.08,4.275,4.275,0,0,1-.981-2.985v-.139a4.226,4.226,0,0,1,.974-2.922A3.4,3.4,0,0,1,58.5-8.071a3.333,3.333,0,0,1,2.384.846,3,3,0,0,1,.912,2.252H59.81a1.455,1.455,0,0,0-.381-1.005,1.27,1.27,0,0,0-.967-.387,1.275,1.275,0,0,0-1.117.539,3.125,3.125,0,0,0-.377,1.749v.22A3.164,3.164,0,0,0,57.341-2.1,1.291,1.291,0,0,0,58.477-1.56Zm4.2-2.476a4.7,4.7,0,0,1,.454-2.1,3.324,3.324,0,0,1,1.307-1.428,3.814,3.814,0,0,1,1.981-.505,3.609,3.609,0,0,1,2.618.981,3.939,3.939,0,0,1,1.132,2.666l.015.542A4.142,4.142,0,0,1,69.163-.956a3.539,3.539,0,0,1-2.732,1.1A3.556,3.556,0,0,1,63.7-.952,4.215,4.215,0,0,1,62.673-3.94Zm2.117.15a2.962,2.962,0,0,0,.425,1.727,1.4,1.4,0,0,0,1.216.6,1.4,1.4,0,0,0,1.2-.591,3.241,3.241,0,0,0,.432-1.889,2.933,2.933,0,0,0-.432-1.716,1.4,1.4,0,0,0-1.216-.609,1.382,1.382,0,0,0-1.2.605A3.3,3.3,0,0,0,64.79-3.885Zm10.986,1.7a.682.682,0,0,0-.385-.612,4.368,4.368,0,0,0-1.234-.4q-2.827-.593-2.827-2.4a2.178,2.178,0,0,1,.875-1.761,3.531,3.531,0,0,1,2.289-.707,3.8,3.8,0,0,1,2.413.71,2.239,2.239,0,0,1,.9,1.846H75.7a1.024,1.024,0,0,0-.293-.751,1.24,1.24,0,0,0-.916-.3,1.267,1.267,0,0,0-.828.242.763.763,0,0,0-.293.615.652.652,0,0,0,.333.568,3.428,3.428,0,0,0,1.124.374,9.183,9.183,0,0,1,1.333.355,2.19,2.19,0,0,1,1.677,2.131A2.067,2.067,0,0,1,76.9-.524a4.013,4.013,0,0,1-2.4.67,4.191,4.191,0,0,1-1.769-.355,2.968,2.968,0,0,1-1.212-.974,2.263,2.263,0,0,1-.439-1.337h2.007a1.105,1.105,0,0,0,.417.864,1.656,1.656,0,0,0,1.04.3,1.533,1.533,0,0,0,.919-.231A.718.718,0,0,0,75.776-2.19Zm5.955-7.683v1.948h1.355v1.553H81.731v3.955a.944.944,0,0,0,.168.63.846.846,0,0,0,.645.19,3.376,3.376,0,0,0,.623-.051v1.6a4.358,4.358,0,0,1-1.282.19A2.021,2.021,0,0,1,79.614-2.1v-4.27H78.457V-7.925h1.157V-9.873Z" transform="translate(-8426 -6867.315)" fill="#12263f"/>
    <path id="Trazado_838850" data-name="Trazado 838850" d="M17.6-12.749H2.324v-4.033H17.6Zm0,7.4H2.324V-9.382H17.6Z" transform="translate(-8325.669 -6901.68)" fill="#12263f"/>
    <path id="Trazado_838851" data-name="Trazado 838851" d="M11.5-8.665H1.88v-3.982H11.5Z" transform="translate(-8114.669 -6901.68)" fill="#12263f"/>
    <g id="Grupo_1074626" data-name="Grupo 1074626" transform="translate(-8256.749 -6905.822)">
      <g id="Grupo_1074625" data-name="Grupo 1074625" transform="translate(0 0)">
        <path id="Trazado_821977" data-name="Trazado 821977" d="M90.262,344.692H90.24a2.045,2.045,0,1,0,.022,0Z" transform="translate(-88.218 -344.692)" fill="#12263f"/>
      </g>
    </g>
    <g id="Grupo_1074628" data-name="Grupo 1074628" transform="translate(-8239.361 -6905.822)">
      <g id="Grupo_1074627" data-name="Grupo 1074627" transform="translate(0 0)">
        <path id="Trazado_821978" data-name="Trazado 821978" d="M154.391,344.692h-.022a2.044,2.044,0,1,0,.022,0Z" transform="translate(-152.347 -344.692)" fill="#12263f"/>
      </g>
    </g>
    <g id="Grupo_1074630" data-name="Grupo 1074630" transform="translate(-8167.635 -6905.822)">
      <g id="Grupo_1074629" data-name="Grupo 1074629" transform="translate(0 0)">
        <path id="Trazado_821979" data-name="Trazado 821979" d="M418.923,344.692H418.9a2.044,2.044,0,1,0,.022,0Z" transform="translate(-416.879 -344.692)" fill="#12263f"/>
      </g>
    </g>
    <g id="Grupo_1074632" data-name="Grupo 1074632" transform="translate(-8280.669 -6966.68)">
      <g id="Grupo_1074631" data-name="Grupo 1074631">
        <path id="Trazado_821980" data-name="Trazado 821980" d="M136.956,156.516l-2.734-2.734-5.508-16.525a2.033,2.033,0,0,0-.616-3.971H108.4v-8.833a4.212,4.212,0,0,0-4.207-4.207H4.207A4.212,4.212,0,0,0,0,124.452v47.817a4.212,4.212,0,0,0,4.207,4.207H6.52v4.486a4.212,4.212,0,0,0,4.207,4.207H15.41a10.72,10.72,0,0,0,19.226,4.24,10.721,10.721,0,0,0,19.226-4.24h50.663a10.727,10.727,0,0,0,21.259-2.034c0-.047,0-.092,0-.139h8.838a4.212,4.212,0,0,0,4.207-4.207V161.028A6.337,6.337,0,0,0,136.956,156.516ZM15.41,181.1H10.728a.14.14,0,0,1-.14-.14v-4.486h6.953A10.686,10.686,0,0,0,15.41,181.1ZM25.942,189.8a6.66,6.66,0,0,1-.041-13.32h.084a6.66,6.66,0,0,1-.042,13.32Zm17.388,0a6.66,6.66,0,0,1-.042-13.32h.084a6.66,6.66,0,0,1-.042,13.32Zm61.194-8.694H53.862a10.684,10.684,0,0,0-2.131-4.626H91.148a2.034,2.034,0,1,0,0-4.067H4.207a.14.14,0,0,1-.14-.14V124.452a.14.14,0,0,1,.14-.14h99.982a.14.14,0,0,1,.14.14V172.41H99.843a2.034,2.034,0,1,0,0,4.067h6.813A10.683,10.683,0,0,0,104.525,181.1Zm25.823-26.082H117.23a.14.14,0,0,1-.14-.14v-8.834h10.266ZM115.057,189.8a6.66,6.66,0,0,1-.041-13.32h.056a6.66,6.66,0,0,1-.014,13.321Zm19.7-11.006a.14.14,0,0,1-.14.14h-9.694a10.743,10.743,0,0,0-9.868-6.522H108.4V137.493h0a.14.14,0,0,1,.14-.14h15.922L126,141.979H115.057a2.034,2.034,0,0,0-2.034,2.034V154.88a4.212,4.212,0,0,0,4.207,4.207h16.546l.3.3a2.3,2.3,0,0,1,.678,1.636v4.861h-2.313a2.034,2.034,0,1,0,0,4.067h2.313Z" transform="translate(0 -120.245)" fill="#12263f"/>
      </g>
    </g>
    <g id="Grupo_1074634" data-name="Grupo 1074634" transform="translate(-8271.975 -6923.209)">
      <g id="Grupo_1074633" data-name="Grupo 1074633">
        <path id="Trazado_821981" data-name="Trazado 821981" d="M121.038,280.567H34.1a2.034,2.034,0,1,0,0,4.067h86.941a2.034,2.034,0,0,0,0-4.067Z" transform="translate(-32.064 -280.567)" fill="#12263f"/>
      </g>
    </g>
    <path id="Trazado_838852" data-name="Trazado 838852" d="M3.823-10.664,6.563-2.93l2.725-7.734h2.886V0h-2.2V-2.915l.22-5.032L7.31,0H5.8L2.93-7.939l.22,5.024V0H.952V-10.664ZM16.187,0H14.063V-7.925h2.124ZM13.938-9.976a1.042,1.042,0,0,1,.319-.784,1.2,1.2,0,0,1,.868-.308,1.2,1.2,0,0,1,.864.308,1.036,1.036,0,0,1,.322.784,1.039,1.039,0,0,1-.326.791,1.2,1.2,0,0,1-.861.308,1.2,1.2,0,0,1-.861-.308A1.039,1.039,0,0,1,13.938-9.976Zm3.684,5.955a4.644,4.644,0,0,1,.868-2.937,2.812,2.812,0,0,1,2.34-1.113,2.466,2.466,0,0,1,2.029.894l.088-.747h1.919V-.264a3.387,3.387,0,0,1-.472,1.809,3.034,3.034,0,0,1-1.329,1.172,4.673,4.673,0,0,1-2.007.4,4.346,4.346,0,0,1-1.7-.348,3.016,3.016,0,0,1-1.252-.9L19.043.586a2.48,2.48,0,0,0,1.919.886,1.815,1.815,0,0,0,1.311-.45,1.69,1.69,0,0,0,.469-1.278V-.681a2.448,2.448,0,0,1-1.926.828A2.8,2.8,0,0,1,18.5-.97a4.643,4.643,0,0,1-.883-2.963Zm2.117.158a2.892,2.892,0,0,0,.432,1.691,1.375,1.375,0,0,0,1.187.612,1.47,1.47,0,0,0,1.384-.726V-5.624a1.466,1.466,0,0,0-1.37-.726,1.383,1.383,0,0,0-1.2.624A3.26,3.26,0,0,0,19.739-3.863ZM30.945-5.94A5.751,5.751,0,0,0,30.183-6a1.55,1.55,0,0,0-1.575.813V0H26.492V-7.925h2l.059.945a1.961,1.961,0,0,1,1.765-1.091,2.218,2.218,0,0,1,.659.1ZM36.335,0a2.351,2.351,0,0,1-.212-.71,2.561,2.561,0,0,1-2,.857,2.814,2.814,0,0,1-1.93-.674,2.167,2.167,0,0,1-.765-1.7,2.24,2.24,0,0,1,.934-1.934,4.608,4.608,0,0,1,2.7-.681h.974V-5.3a1.306,1.306,0,0,0-.282-.879,1.109,1.109,0,0,0-.89-.33,1.261,1.261,0,0,0-.839.256.871.871,0,0,0-.3.7H31.6a2.126,2.126,0,0,1,.425-1.274,2.808,2.808,0,0,1,1.2-.919,4.378,4.378,0,0,1,1.743-.333,3.459,3.459,0,0,1,2.325.736,2.575,2.575,0,0,1,.861,2.069v3.435a3.789,3.789,0,0,0,.315,1.707V0Zm-1.75-1.472a1.823,1.823,0,0,0,.864-.209,1.371,1.371,0,0,0,.586-.56V-3.6h-.791q-1.589,0-1.692,1.1l-.007.125a.847.847,0,0,0,.278.652A1.081,1.081,0,0,0,34.585-1.472Zm7.734-8.4v1.948h1.355v1.553H42.319v3.955a.944.944,0,0,0,.168.63.846.846,0,0,0,.645.19,3.376,3.376,0,0,0,.623-.051v1.6a4.358,4.358,0,0,1-1.282.19A2.021,2.021,0,0,1,40.2-2.1v-4.27H39.045V-7.925H40.2V-9.873ZM47.087,0H44.963V-7.925h2.124ZM44.839-9.976a1.042,1.042,0,0,1,.319-.784,1.2,1.2,0,0,1,.868-.308,1.2,1.2,0,0,1,.864.308,1.036,1.036,0,0,1,.322.784,1.039,1.039,0,0,1-.326.791,1.2,1.2,0,0,1-.861.308,1.2,1.2,0,0,1-.861-.308A1.039,1.039,0,0,1,44.839-9.976ZM48.5-4.036a4.7,4.7,0,0,1,.454-2.1,3.324,3.324,0,0,1,1.307-1.428,3.814,3.814,0,0,1,1.981-.505,3.609,3.609,0,0,1,2.618.981,3.939,3.939,0,0,1,1.132,2.666l.015.542A4.142,4.142,0,0,1,54.99-.956a3.539,3.539,0,0,1-2.732,1.1,3.556,3.556,0,0,1-2.736-1.1A4.215,4.215,0,0,1,48.5-3.94Zm2.117.15a2.962,2.962,0,0,0,.425,1.727,1.4,1.4,0,0,0,1.216.6,1.4,1.4,0,0,0,1.2-.591,3.241,3.241,0,0,0,.432-1.889,2.933,2.933,0,0,0-.432-1.716,1.4,1.4,0,0,0-1.216-.609,1.382,1.382,0,0,0-1.2.605A3.3,3.3,0,0,0,50.618-3.885ZM59.26-7.925l.066.916A2.767,2.767,0,0,1,61.6-8.071a2.3,2.3,0,0,1,1.875.74,3.451,3.451,0,0,1,.63,2.212V0H61.992V-5.068a1.373,1.373,0,0,0-.293-.978,1.312,1.312,0,0,0-.974-.3,1.456,1.456,0,0,0-1.34.762V0H57.268V-7.925ZM72.744-1.56a1.388,1.388,0,0,0,.952-.322,1.129,1.129,0,0,0,.381-.857h1.985a2.715,2.715,0,0,1-.439,1.476A2.9,2.9,0,0,1,74.44-.223a3.7,3.7,0,0,1-1.659.37A3.44,3.44,0,0,1,70.1-.934a4.275,4.275,0,0,1-.981-2.985v-.139a4.226,4.226,0,0,1,.974-2.922,3.4,3.4,0,0,1,2.673-1.091,3.333,3.333,0,0,1,2.384.846,3,3,0,0,1,.912,2.252H74.077A1.455,1.455,0,0,0,73.7-5.978a1.27,1.27,0,0,0-.967-.387,1.275,1.275,0,0,0-1.117.539,3.125,3.125,0,0,0-.377,1.749v.22A3.164,3.164,0,0,0,71.609-2.1,1.291,1.291,0,0,0,72.744-1.56Zm4.2-2.476a4.7,4.7,0,0,1,.454-2.1A3.324,3.324,0,0,1,78.7-7.566a3.814,3.814,0,0,1,1.981-.505A3.609,3.609,0,0,1,83.3-7.09a3.939,3.939,0,0,1,1.132,2.666l.015.542A4.142,4.142,0,0,1,83.43-.956,3.539,3.539,0,0,1,80.7.146a3.556,3.556,0,0,1-2.736-1.1A4.215,4.215,0,0,1,76.941-3.94Zm2.117.15a2.962,2.962,0,0,0,.425,1.727,1.4,1.4,0,0,0,1.216.6,1.4,1.4,0,0,0,1.2-.591,3.241,3.241,0,0,0,.432-1.889A2.933,2.933,0,0,0,81.9-5.756a1.4,1.4,0,0,0-1.216-.609,1.382,1.382,0,0,0-1.2.605A3.3,3.3,0,0,0,79.058-3.885Zm10.986,1.7a.682.682,0,0,0-.385-.612,4.368,4.368,0,0,0-1.234-.4Q85.6-3.794,85.6-5.6a2.178,2.178,0,0,1,.875-1.761,3.531,3.531,0,0,1,2.289-.707,3.8,3.8,0,0,1,2.413.71,2.239,2.239,0,0,1,.9,1.846H89.963a1.024,1.024,0,0,0-.293-.751,1.24,1.24,0,0,0-.916-.3,1.267,1.267,0,0,0-.828.242.763.763,0,0,0-.293.615.652.652,0,0,0,.333.568,3.428,3.428,0,0,0,1.124.374,9.183,9.183,0,0,1,1.333.355A2.19,2.19,0,0,1,92.1-2.278a2.067,2.067,0,0,1-.93,1.754,4.013,4.013,0,0,1-2.4.67A4.191,4.191,0,0,1,87-.209a2.968,2.968,0,0,1-1.212-.974,2.263,2.263,0,0,1-.439-1.337h2.007a1.105,1.105,0,0,0,.417.864,1.656,1.656,0,0,0,1.04.3,1.533,1.533,0,0,0,.919-.231A.718.718,0,0,0,90.044-2.19ZM96-9.873v1.948h1.355v1.553H96v3.955a.944.944,0,0,0,.168.63.846.846,0,0,0,.645.19,3.376,3.376,0,0,0,.623-.051v1.6a4.358,4.358,0,0,1-1.282.19A2.021,2.021,0,0,1,93.882-2.1v-4.27H92.725V-7.925h1.157V-9.873Z" transform="translate(-8260.256 -6867.315)" fill="#12263f"/>
    <path id="Trazado_838853" data-name="Trazado 838853" d="M9.712-5.09a6.438,6.438,0,0,1-.557,2.761A4.192,4.192,0,0,1,7.562-.5,4.407,4.407,0,0,1,5.186.146,4.437,4.437,0,0,1,2.82-.491a4.233,4.233,0,0,1-1.611-1.82A6.253,6.253,0,0,1,.63-5.032v-.527A6.4,6.4,0,0,1,1.2-8.331,4.226,4.226,0,0,1,2.8-10.17a4.412,4.412,0,0,1,2.369-.641,4.412,4.412,0,0,1,2.369.641,4.226,4.226,0,0,1,1.6,1.838,6.386,6.386,0,0,1,.568,2.765ZM7.485-5.574a4.488,4.488,0,0,0-.6-2.549,1.957,1.957,0,0,0-1.714-.872,1.958,1.958,0,0,0-1.707.861A4.436,4.436,0,0,0,2.856-5.61v.52a4.544,4.544,0,0,0,.6,2.534,1.952,1.952,0,0,0,1.729.9,1.935,1.935,0,0,0,1.7-.868,4.517,4.517,0,0,0,.6-2.531ZM18.3-3.889a4.753,4.753,0,0,1-.831,2.933,2.665,2.665,0,0,1-2.245,1.1,2.469,2.469,0,0,1-1.941-.835V3.047H11.169V-7.925h1.963l.073.776a2.488,2.488,0,0,1,2.007-.923A2.683,2.683,0,0,1,17.49-6.987,4.882,4.882,0,0,1,18.3-4Zm-2.117-.154a3.119,3.119,0,0,0-.392-1.707,1.276,1.276,0,0,0-1.139-.6,1.386,1.386,0,0,0-1.37.762v3.245a1.41,1.41,0,0,0,1.384.784Q16.187-1.56,16.187-4.043Zm10.562.154a4.753,4.753,0,0,1-.831,2.933,2.665,2.665,0,0,1-2.245,1.1,2.469,2.469,0,0,1-1.941-.835V3.047H19.614V-7.925h1.963l.073.776a2.488,2.488,0,0,1,2.007-.923,2.683,2.683,0,0,1,2.278,1.084A4.882,4.882,0,0,1,26.748-4Zm-2.117-.154A3.119,3.119,0,0,0,24.24-5.75a1.276,1.276,0,0,0-1.139-.6,1.386,1.386,0,0,0-1.37.762v3.245a1.41,1.41,0,0,0,1.384.784Q24.631-1.56,24.631-4.043Zm3.1.007a4.7,4.7,0,0,1,.454-2.1,3.324,3.324,0,0,1,1.307-1.428,3.814,3.814,0,0,1,1.981-.505,3.609,3.609,0,0,1,2.618.981,3.939,3.939,0,0,1,1.132,2.666l.015.542A4.142,4.142,0,0,1,34.219-.956a3.539,3.539,0,0,1-2.732,1.1,3.556,3.556,0,0,1-2.736-1.1A4.215,4.215,0,0,1,27.729-3.94Zm2.117.15a2.962,2.962,0,0,0,.425,1.727,1.4,1.4,0,0,0,1.216.6,1.4,1.4,0,0,0,1.2-.591,3.241,3.241,0,0,0,.432-1.889,2.933,2.933,0,0,0-.432-1.716,1.4,1.4,0,0,0-1.216-.609,1.382,1.382,0,0,0-1.2.605A3.3,3.3,0,0,0,29.846-3.885ZM40.994-5.94A5.751,5.751,0,0,0,40.232-6a1.55,1.55,0,0,0-1.575.813V0H36.541V-7.925h2l.059.945a1.961,1.961,0,0,1,1.765-1.091,2.218,2.218,0,0,1,.659.1Zm3.918-3.933v1.948h1.355v1.553H44.912v3.955a.944.944,0,0,0,.168.63.846.846,0,0,0,.645.19,3.376,3.376,0,0,0,.623-.051v1.6a4.358,4.358,0,0,1-1.282.19A2.021,2.021,0,0,1,42.8-2.1v-4.27H41.638V-7.925H42.8V-9.873Zm7.28,9.067a2.654,2.654,0,0,1-2.168.952A2.5,2.5,0,0,1,48.08-.586,3.127,3.127,0,0,1,47.4-2.732V-7.925h2.117V-2.8q0,1.239,1.128,1.239a1.528,1.528,0,0,0,1.479-.748V-7.925h2.124V0H52.251Zm5.6-7.119.066.916a2.767,2.767,0,0,1,2.278-1.062,2.3,2.3,0,0,1,1.875.74,3.451,3.451,0,0,1,.63,2.212V0H60.52V-5.068a1.373,1.373,0,0,0-.293-.978,1.312,1.312,0,0,0-.974-.3,1.456,1.456,0,0,0-1.34.762V0H55.8V-7.925ZM66.475,0H64.351V-7.925h2.124ZM64.226-9.976a1.042,1.042,0,0,1,.319-.784,1.2,1.2,0,0,1,.868-.308,1.2,1.2,0,0,1,.864.308,1.036,1.036,0,0,1,.322.784,1.039,1.039,0,0,1-.326.791,1.2,1.2,0,0,1-.861.308,1.2,1.2,0,0,1-.861-.308A1.039,1.039,0,0,1,64.226-9.976Zm6.526.1v1.948h1.355v1.553H70.752v3.955a.944.944,0,0,0,.168.63.846.846,0,0,0,.645.19,3.376,3.376,0,0,0,.623-.051v1.6a4.358,4.358,0,0,1-1.282.19A2.021,2.021,0,0,1,68.635-2.1v-4.27H67.478V-7.925h1.157V-9.873ZM76.245-3,77.71-7.925H79.98L76.794,1.23l-.176.417A2.416,2.416,0,0,1,74.275,3.2a3.33,3.33,0,0,1-.937-.139v-1.6l.322.007a1.741,1.741,0,0,0,.9-.183,1.2,1.2,0,0,0,.465-.608l.249-.652L72.5-7.925h2.278Zm8-1.025a4.644,4.644,0,0,1,.868-2.937,2.812,2.812,0,0,1,2.34-1.113,2.466,2.466,0,0,1,2.029.894l.088-.747h1.919V-.264a3.387,3.387,0,0,1-.472,1.809,3.034,3.034,0,0,1-1.329,1.172,4.673,4.673,0,0,1-2.007.4,4.346,4.346,0,0,1-1.7-.348,3.016,3.016,0,0,1-1.252-.9L85.664.586a2.48,2.48,0,0,0,1.919.886,1.815,1.815,0,0,0,1.311-.45,1.69,1.69,0,0,0,.469-1.278V-.681a2.448,2.448,0,0,1-1.926.828A2.8,2.8,0,0,1,85.126-.97a4.643,4.643,0,0,1-.883-2.963Zm2.117.158a2.892,2.892,0,0,0,.432,1.691,1.375,1.375,0,0,0,1.187.612,1.47,1.47,0,0,0,1.384-.726V-5.624a1.466,1.466,0,0,0-1.37-.726,1.383,1.383,0,0,0-1.2.624A3.26,3.26,0,0,0,86.36-3.863ZM97.705,0a2.351,2.351,0,0,1-.212-.71,2.561,2.561,0,0,1-2,.857,2.814,2.814,0,0,1-1.93-.674,2.167,2.167,0,0,1-.765-1.7,2.24,2.24,0,0,1,.934-1.934,4.608,4.608,0,0,1,2.7-.681H97.4V-5.3a1.306,1.306,0,0,0-.282-.879,1.109,1.109,0,0,0-.89-.33,1.261,1.261,0,0,0-.839.256.871.871,0,0,0-.3.7H92.974A2.126,2.126,0,0,1,93.4-6.819a2.808,2.808,0,0,1,1.2-.919,4.378,4.378,0,0,1,1.743-.333,3.459,3.459,0,0,1,2.325.736,2.575,2.575,0,0,1,.861,2.069v3.435a3.789,3.789,0,0,0,.315,1.707V0Zm-1.75-1.472a1.823,1.823,0,0,0,.864-.209,1.371,1.371,0,0,0,.586-.56V-3.6h-.791q-1.589,0-1.692,1.1l-.007.125a.847.847,0,0,0,.278.652A1.081,1.081,0,0,0,95.955-1.472ZM103.389,0h-2.124V-7.925h2.124ZM101.14-9.976a1.042,1.042,0,0,1,.319-.784,1.2,1.2,0,0,1,.868-.308,1.2,1.2,0,0,1,.864.308,1.036,1.036,0,0,1,.322.784,1.039,1.039,0,0,1-.326.791,1.2,1.2,0,0,1-.861.308,1.2,1.2,0,0,1-.861-.308A1.039,1.039,0,0,1,101.14-9.976Zm5.94,2.051.066.916a2.767,2.767,0,0,1,2.278-1.062,2.3,2.3,0,0,1,1.875.74,3.451,3.451,0,0,1,.63,2.212V0h-2.117V-5.068a1.373,1.373,0,0,0-.293-.978,1.312,1.312,0,0,0-.974-.3,1.456,1.456,0,0,0-1.34.762V0h-2.117V-7.925Z" transform="translate(-8088.263 -6867.315)" fill="#12263f"/>
    <g id="Grupo_1074636" data-name="Grupo 1074636" transform="translate(-8070.589 -6954.595)">
      <g id="Grupo_1074635" data-name="Grupo 1074635">
        <path id="Trazado_821982" data-name="Trazado 821982" d="M93.647,204.876h-3.7v-53.69a4.537,4.537,0,0,0-4.532-4.532H77.152a4.537,4.537,0,0,0-4.532,4.532v53.69H63.231V175.512A4.537,4.537,0,0,0,58.7,170.98H50.434a4.537,4.537,0,0,0-4.532,4.532v29.364H36.513V189.668a4.537,4.537,0,0,0-4.532-4.532H23.716a4.537,4.537,0,0,0-4.532,4.532v15.207h-3.9a1.686,1.686,0,1,0,0,3.372h78.36a1.686,1.686,0,1,0,0-3.372Zm-60.506,0H22.556V189.668a1.161,1.161,0,0,1,1.16-1.16h8.265a1.161,1.161,0,0,1,1.16,1.16v15.207Zm26.718,0H49.274V175.512a1.161,1.161,0,0,1,1.16-1.16H58.7a1.162,1.162,0,0,1,1.16,1.16Zm26.718,0H75.992v-53.69a1.161,1.161,0,0,1,1.16-1.16h8.265a1.161,1.161,0,0,1,1.16,1.16v53.69Z" transform="translate(-13.601 -146.654)" fill="#12263f"/>
      </g>
    </g>
    <g id="Grupo_1074638" data-name="Grupo 1074638" transform="translate(-8068.986 -6969.68)">
      <g id="Grupo_1074637" data-name="Grupo 1074637">
        <path id="Trazado_821983" data-name="Trazado 821983" d="M161.235,1.773A1.68,1.68,0,0,0,159.466,0c-.027,0-.054,0-.082,0h-10.2a1.686,1.686,0,1,0,0,3.372h6.3L138.816,20.038l-6.285-6.285a1.686,1.686,0,0,0-2.384,0L99.84,44.061a1.686,1.686,0,0,0,2.384,2.384l29.115-29.115,6.285,6.285a1.686,1.686,0,0,0,2.384,0L157.867,5.756v5.7a1.686,1.686,0,1,0,3.372,0v-9.6C161.239,1.827,161.236,1.8,161.235,1.773Z" transform="translate(-99.346)" fill="#12263f"/>
      </g>
    </g>
    <g id="Grupo_1074640" data-name="Grupo 1074640" transform="translate(-8074.669 -6920.23)">
      <g id="Grupo_1074639" data-name="Grupo 1074639" transform="translate(0)">
        <circle id="Elipse_10495" data-name="Elipse 10495" cx="1.686" cy="1.686" r="1.686" fill="#12263f"/>
      </g>
    </g>
  </g>
</svg>
