<svg xmlns="http://www.w3.org/2000/svg" xmlns:xlink="http://www.w3.org/1999/xlink" width="126.936" height="138.992" viewBox="0 0 126.936 138.992">
  <defs>
    <filter id="Trazado_771252" x="0" y="0" width="126.936" height="138.992" filterUnits="userSpaceOnUse">
      <feOffset dy="3" input="SourceAlpha"/>
      <feGaussianBlur stdDeviation="3" result="blur"/>
      <feFlood flood-opacity="0.161"/>
      <feComposite operator="in" in2="blur"/>
      <feComposite in="SourceGraphic"/>
    </filter>
  </defs>
  <g id="Grupo_1098715" data-name="Grupo 1098715" transform="translate(-207 -3915.694)">
    <g id="Grupo_1098494" data-name="Grupo 1098494">
      <g id="Grupo_58634" data-name="Grupo 58634" transform="translate(-178 2758.687)">
        <g transform="matrix(1, 0, 0, 1, 385, 1157.01)" filter="url(#Trazado_771252)">
          <path id="Trazado_771252-2" data-name="Trazado 771252" d="M512.14,327.414V288.183a20.125,20.125,0,0,0-9.822-17.322l-32.173-19.076a19.736,19.736,0,0,0-19.511-.365L417.669,269.34A20.117,20.117,0,0,0,407.2,287.027V326.62a20.13,20.13,0,0,0,9.58,17.175l30.839,18.884a19.738,19.738,0,0,0,19.533.63l34.3-18.089A20.113,20.113,0,0,0,512.14,327.414Z" transform="translate(-396.2 -240.81)" fill="#2ec49f" stroke="#fff" stroke-miterlimit="10" stroke-width="4"/>
        </g>
      </g>
    </g>
    <g id="productividad" transform="translate(218.12 3946.511)">
      <g id="Grupo_1098802" data-name="Grupo 1098802" transform="translate(21.144 1.045)">
        <path id="Trazado_838290" data-name="Trazado 838290" d="M307.743,50.975V76.121a4.445,4.445,0,0,1-4.446,4.444H288.414a4.445,4.445,0,0,1-4.444-4.444V50.975l12.083-.642Z" transform="translate(-248.24 -44.363)" fill="#e6f3ff"/>
        <path id="Trazado_838291" data-name="Trazado 838291" d="M408.162,48.815V73.961a4.445,4.445,0,0,1-4.446,4.444H400.65a4.445,4.445,0,0,0,4.446-4.444V48.815l1.429-.992Z" transform="translate(-348.658 -42.203)" fill="#cbe2ff"/>
        <path id="Trazado_838292" data-name="Trazado 838292" d="M307.743,11.944v2.167H283.97V11.944A4.445,4.445,0,0,1,288.414,7.5H303.3A4.445,4.445,0,0,1,307.743,11.944Z" transform="translate(-248.24 -7.5)" fill="#528fd8"/>
        <g id="Grupo_1098801" data-name="Grupo 1098801" transform="translate(39.934 0)">
          <path id="Trazado_838293" data-name="Trazado 838293" d="M408.162,11.944v2.167H405.1V11.944A4.445,4.445,0,0,0,400.65,7.5h3.066A4.445,4.445,0,0,1,408.162,11.944Z" transform="translate(-388.592 -7.5)" fill="#0473ce"/>
          <path id="Trazado_838294" data-name="Trazado 838294" d="M314.133,87.362h4.133v4.133h-4.133Z" transform="translate(-314.133 -76.232)" fill="#528fd8"/>
          <path id="Trazado_838295" data-name="Trazado 838295" d="M314.133,149.438h4.133v4.133h-4.133Z" transform="translate(-314.133 -129.656)" fill="#528fd8"/>
        </g>
        <path id="Trazado_838299" data-name="Trazado 838299" d="M50.487,223.861a3.739,3.739,0,0,0-.376,1.636v3.052l-8.307.994-8.307-.994V222.81a6.433,6.433,0,0,0-1.224-3.775L30.4,216.445a14.7,14.7,0,0,1-2.8-8.628V194.509a2.814,2.814,0,0,1,1.079-2.206,2.638,2.638,0,0,1,1.674-.566,2.7,2.7,0,0,1,2.648,2.7l1.408,12.526a6.328,6.328,0,0,0,5.484,5.568,3.649,3.649,0,0,1-.648-2.077v-7.211a2.3,2.3,0,0,1,.577-1.523,2.156,2.156,0,0,1,1.5-.736,2.206,2.206,0,0,1,2.309,1.858l.683,4.332a4.1,4.1,0,0,0,1.15,2.258l3.2,3.2c.089.091.177.181.263.273A9.784,9.784,0,0,1,50.487,223.861Z" transform="translate(-27.6 -166.06)" fill="#ffcebf"/>
        <path id="Trazado_838300" data-name="Trazado 838300" d="M46.554,212.533c-5.268,0-8.429-2.637-8.759-5.568l-1.408-12.526A2.7,2.7,0,0,0,35.34,192.3a2.638,2.638,0,0,1,1.674-.566,2.7,2.7,0,0,1,2.648,2.7l1.408,12.526A6.328,6.328,0,0,0,46.554,212.533Z" transform="translate(-34.261 -166.06)" fill="#ffb09e"/>
        <path id="Trazado_838301" data-name="Trazado 838301" d="M125.956,280.951a3.739,3.739,0,0,0-.376,1.636v3.052l-1.608.715-1.667-.715v-3.052a3.739,3.739,0,0,1,.376-1.636A9.784,9.784,0,0,0,121.118,270c-.086-.092-.174-.183-.263-.273l-3.2-3.2a4.1,4.1,0,0,1-1.15-2.258l-.683-4.332a2.212,2.212,0,0,0-.531-1.122,2.157,2.157,0,0,1,1.5-.736,2.206,2.206,0,0,1,2.309,1.858l.683,4.332a4.1,4.1,0,0,0,1.15,2.258l3.2,3.2c.089.091.177.181.263.273A9.784,9.784,0,0,1,125.956,280.951Z" transform="translate(-103.069 -223.15)" fill="#ffb09e"/>
        <path id="Trazado_838302" data-name="Trazado 838302" d="M336.841,194.509v13.307a14.7,14.7,0,0,1-2.8,8.628l-1.876,2.589a6.433,6.433,0,0,0-1.224,3.775v5.739l-8.307.994-8.307-.994V225.5a3.738,3.738,0,0,0-.376-1.636,9.784,9.784,0,0,1,1.562-10.954c.086-.092.174-.183.263-.273l3.2-3.2a4.1,4.1,0,0,0,1.15-2.258l.683-4.332a2.206,2.206,0,0,1,2.309-1.858,2.243,2.243,0,0,1,2.074,2.259v7.211a3.649,3.649,0,0,1-.648,2.077,6.328,6.328,0,0,0,5.484-5.568l1.408-12.526a2.7,2.7,0,0,1,2.648-2.7A2.759,2.759,0,0,1,336.841,194.509Z" transform="translate(-273.177 -166.06)" fill="#ffcebf"/>
        <path id="Trazado_838303" data-name="Trazado 838303" d="M428.037,194.509v13.307a14.7,14.7,0,0,1-2.8,8.628l-1.876,2.589a6.434,6.434,0,0,0-1.224,3.775v5.739l-1.539.994-1.692-.994V222.81a6.433,6.433,0,0,1,1.224-3.775l1.876-2.589a14.7,14.7,0,0,0,2.8-8.628V194.509a2.813,2.813,0,0,0-1.1-2.223,2.676,2.676,0,0,1,1.579-.549,2.759,2.759,0,0,1,2.753,2.772Z" transform="translate(-364.374 -166.06)" fill="#ffb09e"/>
        <path id="Trazado_838304" data-name="Trazado 838304" d="M57.45,455.87H77.537v6.778H57.45Z" transform="translate(-53.29 -393.381)" fill="#ddeafb"/>
        <path id="Trazado_838305" data-name="Trazado 838305" d="M177.58,455.87h3.345v6.778H177.58Z" transform="translate(-156.677 -393.381)" fill="#cbe2ff"/>
        <path id="Trazado_838306" data-name="Trazado 838306" d="M310.42,455.87h20.087v6.778H310.42Z" transform="translate(-271.004 -393.381)" fill="#ddeafb"/>
        <path id="Trazado_838307" data-name="Trazado 838307" d="M431.05,455.87h3.275v6.778H431.05Z" transform="translate(-374.822 -393.381)" fill="#cbe2ff"/>
        <path id="Trazado_838308" data-name="Trazado 838308" d="M202.277,211.654v-1.447a1.307,1.307,0,0,0-.963-1.261l-1.151-.314a1.305,1.305,0,0,1-.862-.76l0-.012a1.305,1.305,0,0,1,.071-1.149l.592-1.036a1.307,1.307,0,0,0-.211-1.573l-1.024-1.024a1.307,1.307,0,0,0-1.573-.211l-1.036.592a1.306,1.306,0,0,1-1.15.071l-.012,0a1.3,1.3,0,0,1-.76-.862l-.314-1.151a1.307,1.307,0,0,0-1.261-.963h-1.447a1.307,1.307,0,0,0-1.261.963l-.314,1.151a1.305,1.305,0,0,1-.76.862l-.012,0a1.305,1.305,0,0,1-1.15-.071l-1.036-.592a1.307,1.307,0,0,0-1.573.211l-1.023,1.024a1.307,1.307,0,0,0-.211,1.573l.592,1.036a1.306,1.306,0,0,1,.071,1.149l0,.012a1.305,1.305,0,0,1-.862.76l-1.151.314a1.307,1.307,0,0,0-.963,1.261v1.447a1.307,1.307,0,0,0,.963,1.261l1.151.314a1.305,1.305,0,0,1,.862.76l0,.012a1.305,1.305,0,0,1-.071,1.15l-.592,1.036a1.307,1.307,0,0,0,.211,1.573l1.023,1.024a1.307,1.307,0,0,0,1.573.211l1.036-.592a1.306,1.306,0,0,1,1.15-.071l.012,0a1.3,1.3,0,0,1,.76.862l.314,1.151a1.307,1.307,0,0,0,1.261.963h1.447a1.307,1.307,0,0,0,1.261-.963l.314-1.151a1.305,1.305,0,0,1,.76-.862l.012,0a1.305,1.305,0,0,1,1.15.071l1.036.592a1.307,1.307,0,0,0,1.573-.211l1.024-1.024a1.307,1.307,0,0,0,.211-1.573l-.592-1.036A1.307,1.307,0,0,1,199.3,214l0-.012a1.305,1.305,0,0,1,.862-.76l1.151-.314A1.307,1.307,0,0,0,202.277,211.654Z" transform="translate(-160.063 -173.644)" fill="#e6f3ff"/>
        <path id="Trazado_838309" data-name="Trazado 838309" d="M235.826,250.968a3.9,3.9,0,1,1-3.9-3.9A3.9,3.9,0,0,1,235.826,250.968Z" transform="translate(-200.096 -213.681)" fill="#5793ce"/>
        <path id="Trazado_838310" data-name="Trazado 838310" d="M250.431,250.968A3.9,3.9,0,0,1,245,254.551a3.9,3.9,0,0,0,0-7.168,3.9,3.9,0,0,1,5.431,3.585Z" transform="translate(-214.701 -213.681)" fill="#2b3990"/>
      </g>
      <g id="Grupo_1098803" data-name="Grupo 1098803" transform="translate(20.098 0)">
        <path id="Trazado_838311" data-name="Trazado 838311" d="M45.39,221.871H44.7a7.754,7.754,0,0,1,.271-3.185,10.981,10.981,0,0,0,.73-7.693,1.045,1.045,0,0,0-2.017.55,8.892,8.892,0,0,1-.594,6.228,9.207,9.207,0,0,0-.482,4.1H28.085v-4.693c0-2.813-1.745-4.835-3.3-6.979a13.575,13.575,0,0,1-2.6-8.015V188.878c0-2.266,3.072-2.126,3.317.045l1.407,12.527a7.348,7.348,0,0,0,5.947,6.416c.083.1,2.723,2.748,2.723,2.748a1.045,1.045,0,1,0,1.478-1.478s-2.672-2.7-2.76-2.823a2.644,2.644,0,0,1-.466-1.489v-7.212a1.163,1.163,0,0,1,2.3-.238l.683,4.332a5.116,5.116,0,0,0,1.444,2.834l3.2,3.2a1.045,1.045,0,0,0,1.478-1.478l-3.2-3.2a3.038,3.038,0,0,1-.857-1.682l-.683-4.334a3.25,3.25,0,0,0-6.46.566v7.212h0q0,.238.023.472a5.268,5.268,0,0,1-2.777-4.08l-1.4-12.473c-.082-4.819-7.491-4.692-7.491.134v13.306a15.653,15.653,0,0,0,3,9.241c1.257,1.735,2.9,3.476,2.9,5.753v4.693H25.3a1.045,1.045,0,0,0-1.045,1.045v6.778a1.045,1.045,0,0,0,1.045,1.045H45.39a1.045,1.045,0,0,0,1.045-1.045v-6.778a1.045,1.045,0,0,0-1.045-1.045Zm-1.045,6.778h-18v-4.687h18Z" transform="translate(-20.098 -159.382)" fill="#21257c"/>
        <path id="Trazado_838312" data-name="Trazado 838312" d="M217.155,26.749a3.717,3.717,0,0,0-3-1.049V5.49A5.5,5.5,0,0,0,208.661,0H193.777a5.5,5.5,0,0,0-5.49,5.49v9.17a1.045,1.045,0,0,0,2.091,0V8.7H212.06V26.65a3.745,3.745,0,0,0-1.239,2.711l-.733,6.528c-1.186.549-2.838.313-4.1.313a3.284,3.284,0,0,0-5.149,0h-4.444a2.35,2.35,0,0,0-1.264-.864l-1.151-.314a.277.277,0,0,1-.163-.394l.591-1.036a2.358,2.358,0,0,0-.38-2.83L193,29.74a2.358,2.358,0,0,0-2.625-.482V19.651a1.045,1.045,0,0,0-2.091,0v8.606a2.359,2.359,0,0,0-2.129-1.352H184.71a2.358,2.358,0,0,0-2.27,1.733l-.314,1.151a.277.277,0,0,1-.394.163L180.7,29.36a2.358,2.358,0,0,0-2.83.38l-1.024,1.024a2.358,2.358,0,0,0-.38,2.83l.592,1.036a.276.276,0,0,1-.163.394l-1.151.314a2.358,2.358,0,0,0-1.733,2.27v1.448a2.358,2.358,0,0,0,1.733,2.269l1.151.314a.277.277,0,0,1,.164.395l-.592,1.036a2.358,2.358,0,0,0,.38,2.83l1.024,1.024a2.358,2.358,0,0,0,2.83.38l1.036-.592a.277.277,0,0,1,.394.163l.314,1.151a2.358,2.358,0,0,0,2.27,1.733h1.448a2.358,2.358,0,0,0,2.27-1.733l.314-1.151a.277.277,0,0,1,.395-.163l1.036.591a2.357,2.357,0,0,0,2.83-.379l1.023-1.024a2.358,2.358,0,0,0,.38-2.83l-.592-1.036a.277.277,0,0,1,.163-.394l1.151-.314a2.358,2.358,0,0,0,1.733-2.269v-.762h3.246l-.584,3.7c-.326,2.054-3.011,3.754-4.345,5.18a10.875,10.875,0,0,0-1.74,12.126,10.2,10.2,0,0,1,.271,3.185h-.691a1.045,1.045,0,0,0-1.045,1.045v6.778a1.045,1.045,0,0,0,1.045,1.045H197a1.045,1.045,0,1,0,0-2.091h-2.937V64.579h18v4.687H201.81a1.045,1.045,0,1,0,0,2.091h11.3a1.045,1.045,0,0,0,1.045-1.045V63.534a1.045,1.045,0,0,0-1.045-1.045h-.691V57.8c0-2.268,1.646-4.02,2.9-5.753a15.652,15.652,0,0,0,3-9.241V29.5a3.873,3.873,0,0,0-1.157-2.746ZM190.377,6.612V5.49a3.4,3.4,0,0,1,3.4-3.4h14.884a3.4,3.4,0,0,1,3.4,3.4V6.612Zm19.454,31.556-.412,3.665a5.268,5.268,0,0,1-2.777,4.081c.015-.156.023-.313.023-.472h0V38.293a15.253,15.253,0,0,0,3.165-.126Zm-15.061.888a.263.263,0,0,1-.193.253l-1.151.314A2.386,2.386,0,0,0,192,43.07l.592,1.036a.263.263,0,0,1-.042.315l-1.024,1.024a.262.262,0,0,1-.315.042l-1.036-.591a2.4,2.4,0,0,0-3.448,1.428l-.314,1.151a.263.263,0,0,1-.253.193h-1.448a.263.263,0,0,1-.253-.193l-.314-1.151A2.394,2.394,0,0,0,180.7,44.9l-1.036.592a.262.262,0,0,1-.315-.042l-1.024-1.024a.263.263,0,0,1-.042-.315l.591-1.036a2.4,2.4,0,0,0-1.428-3.448l-1.151-.314a.263.263,0,0,1-.193-.253V37.608a.263.263,0,0,1,.193-.253l1.151-.314a2.387,2.387,0,0,0,1.428-3.448l-.592-1.036a.262.262,0,0,1,.042-.315l1.024-1.024a.263.263,0,0,1,.315-.042l1.036.592a2.386,2.386,0,0,0,3.448-1.428l.314-1.151a.263.263,0,0,1,.253-.193h1.448a.262.262,0,0,1,.253.193l.314,1.151a2.432,2.432,0,0,0,3.448,1.428l1.036-.591a.263.263,0,0,1,.315.042l1.024,1.024a.263.263,0,0,1,.042.315L192,33.593a2.388,2.388,0,0,0,1.428,3.448l1.151.314a.263.263,0,0,1,.193.253v1.448Zm21.45,3.746a13.575,13.575,0,0,1-2.6,8.015c-1.55,2.14-3.3,4.174-3.3,6.979v4.693H195.8a9.15,9.15,0,0,0-.482-4.1,8.772,8.772,0,0,1,1.386-9.784c1.717-1.832,4.464-3.638,4.884-6.282l.682-4.329a1.163,1.163,0,0,1,2.305.236v7.212a2.639,2.639,0,0,1-.765,1.849l-2.462,2.463a1.045,1.045,0,1,0,1.478,1.478s2.64-2.65,2.723-2.748a7.348,7.348,0,0,0,5.947-6.416l.605-5.389c0-.012,0-.023,0-.035l.8-7.1c.247-2.189,3.317-2.341,3.317-.045V42.8Z" transform="translate(-152.557 0)" fill="#21257c"/>
        <path id="Trazado_838313" data-name="Trazado 838313" d="M225.476,239.57a4.943,4.943,0,1,0,4.943,4.943,4.949,4.949,0,0,0-4.943-4.943Zm0,7.8a2.852,2.852,0,1,1,2.852-2.852A2.856,2.856,0,0,1,225.476,247.365Z" transform="translate(-192.599 -206.181)" fill="#21257c"/>
        <path id="Trazado_838314" data-name="Trazado 838314" d="M307.678,86.085h4.133a1.045,1.045,0,0,0,1.045-1.045V80.906a1.045,1.045,0,0,0-1.045-1.045h-4.133a1.045,1.045,0,0,0-1.045,1.045v4.133A1.045,1.045,0,0,0,307.678,86.085Zm1.045-4.133h2.042v2.042h-2.042Z" transform="translate(-266.699 -68.731)" fill="#21257c"/>
        <path id="Trazado_838315" data-name="Trazado 838315" d="M306.633,147.117a1.045,1.045,0,0,0,1.045,1.045h4.133a1.045,1.045,0,0,0,1.045-1.045v-4.133a1.045,1.045,0,0,0-1.045-1.045h-4.133a1.045,1.045,0,0,0-1.045,1.045Zm2.091-3.088h2.042v2.042h-2.042Z" transform="translate(-266.699 -122.157)" fill="#21257c"/>
        <path id="Trazado_838316" data-name="Trazado 838316" d="M366.36,96.779h6.974a1.045,1.045,0,1,0,0-2.091H366.36a1.045,1.045,0,0,0,0,2.091Z" transform="translate(-317.202 -81.491)" fill="#4aa5ff"/>
        <path id="Trazado_838317" data-name="Trazado 838317" d="M366.36,144.029h6.974a1.045,1.045,0,1,0,0-2.091H366.36a1.045,1.045,0,0,0,0,2.091Z" transform="translate(-317.202 -122.156)" fill="#4aa5ff"/>
        <path id="Trazado_838318" data-name="Trazado 838318" d="M366.36,173.684h3.907a1.045,1.045,0,0,0,0-2.091H366.36a1.045,1.045,0,0,0,0,2.091Z" transform="translate(-317.202 -147.678)" fill="#4aa5ff"/>
        <g id="Grupo_1098816" data-name="Grupo 1098816" transform="translate(-452.045 -4160.934)">
          <path id="Trazado_838347" data-name="Trazado 838347" d="M133.966,125.377a10.889,10.889,0,1,1-10.89-10.889A10.89,10.89,0,0,1,133.966,125.377Zm0,0" transform="translate(346.447 4052.054)" fill="#4aa5ff"/>
          <path id="Trazado_838348" data-name="Trazado 838348" d="M189.545,159.015a.777.777,0,0,0-.275-.01,1.821,1.821,0,0,1-1.623-1.817.807.807,0,0,0-1.613,0,3.429,3.429,0,0,0,2.537,3.323v.806a.807.807,0,1,0,1.613,0v-.758a3.445,3.445,0,0,0-.706-6.816,1.831,1.831,0,1,1,1.831-1.831.807.807,0,1,0,1.613,0,3.45,3.45,0,0,0-2.738-3.371v-.734a.807.807,0,1,0-1.613,0v.784a3.443,3.443,0,0,0,.907,6.765,1.83,1.83,0,0,1,.067,3.66Zm0,0" transform="translate(280.045 4022.82)" fill="#21257c"/>
          <g id="Grupo_1098816-2" data-name="Grupo 1098816" transform="translate(457.828 4155)">
            <path id="Trazado_838343" data-name="Trazado 838343" d="M213.812,8.469V.807a.807.807,0,1,0-1.613,0V8.469a.807.807,0,1,0,1.613,0Zm0,0" transform="translate(-201.31 0)" fill="#21257c"/>
            <path id="Trazado_838344" data-name="Trazado 838344" d="M273.812,44.436V40.807a.807.807,0,0,0-1.613,0v3.629a.807.807,0,0,0,1.613,0Zm0,0" transform="translate(-255.261 -35.967)" fill="#21257c"/>
            <path id="Trazado_838345" data-name="Trazado 838345" d="M153.812,44.436V40.807a.807.807,0,1,0-1.613,0v3.629a.807.807,0,1,0,1.613,0Zm0,0" transform="translate(-147.359 -35.967)" fill="#21257c"/>
            <path id="Trazado_838346" data-name="Trazado 838346" d="M104.188,118.184a11.7,11.7,0,1,0,11.7-11.7A11.7,11.7,0,0,0,104.188,118.184Zm11.7-10.083A10.083,10.083,0,1,1,105.8,118.184,10.083,10.083,0,0,1,115.884,108.1Zm0,0" transform="translate(-104.188 -95.752)" fill="#21257c"/>
          </g>
        </g>
      </g>
    </g>
  </g>
</svg>
