<svg xmlns="http://www.w3.org/2000/svg" width="611" height="276.785" viewBox="0 0 611 276.785">
  <g id="Grupo_1098915" data-name="Grupo 1098915" transform="translate(8506 6605.68)">
    <path id="Trazado_838854" data-name="Trazado 838854" d="M0,0H611V276.785H0Z" transform="translate(-8506 -6605.68)" fill="#c2e6dd" opacity="0.997"/>
    <path id="Trazado_838855" data-name="Trazado 838855" d="M.825,0V-9.242H4.063A4.251,4.251,0,0,1,6.614-8.6a2.2,2.2,0,0,1,.87,1.888,2.088,2.088,0,0,1-.349,1.2,2.017,2.017,0,0,1-.971.759,1.951,1.951,0,0,1,1.12.717,2.121,2.121,0,0,1,.409,1.32A2.439,2.439,0,0,1,6.843-.7,3.829,3.829,0,0,1,4.418,0Zm1.9-4.024V-1.53H4.361A1.574,1.574,0,0,0,5.411-1.85a1.1,1.1,0,0,0,.378-.885A1.161,1.161,0,0,0,4.475-4.024Zm0-1.346H4.139Q5.58-5.4,5.58-6.519a1.062,1.062,0,0,0-.365-.9A1.92,1.92,0,0,0,4.063-7.7H2.729Zm9.433,5.5A3.372,3.372,0,0,1,9.7-.8a3.294,3.294,0,0,1-.949-2.469v-.178a4.149,4.149,0,0,1,.4-1.85,2.935,2.935,0,0,1,1.133-1.257A3.18,3.18,0,0,1,11.959-7a2.85,2.85,0,0,1,2.219.889,3.611,3.611,0,0,1,.809,2.52v.749H10.613a1.7,1.7,0,0,0,.536,1.079,1.621,1.621,0,0,0,1.133.406,1.98,1.98,0,0,0,1.657-.768l.9,1.009A2.754,2.754,0,0,1,13.724-.2,3.665,3.665,0,0,1,12.162.127Zm-.209-5.643a1.146,1.146,0,0,0-.885.37,1.915,1.915,0,0,0-.435,1.058h2.552v-.147a1.366,1.366,0,0,0-.33-.947A1.183,1.183,0,0,0,11.953-5.516ZM16.529,0V-5.522H15.507V-6.868h1.022v-.584a2.371,2.371,0,0,1,.663-1.793,2.569,2.569,0,0,1,1.857-.638,4.289,4.289,0,0,1,.933.127l-.019,1.422a2.339,2.339,0,0,0-.559-.057q-1.035,0-1.035.971v.552h1.365v1.346H18.37V0ZM20.4-3.5a4.073,4.073,0,0,1,.394-1.822,2.881,2.881,0,0,1,1.133-1.238A3.306,3.306,0,0,1,23.645-7a3.127,3.127,0,0,1,2.269.851A3.414,3.414,0,0,1,26.9-3.834l.013.47a3.59,3.59,0,0,1-.882,2.536,3.067,3.067,0,0,1-2.368.955,3.082,3.082,0,0,1-2.371-.952,3.653,3.653,0,0,1-.885-2.59Zm1.834.13a2.567,2.567,0,0,0,.368,1.5,1.215,1.215,0,0,0,1.054.518A1.217,1.217,0,0,0,24.7-1.864,2.809,2.809,0,0,0,25.073-3.5,2.542,2.542,0,0,0,24.7-4.988a1.217,1.217,0,0,0-1.054-.528,1.2,1.2,0,0,0-1.041.524A2.857,2.857,0,0,0,22.236-3.367ZM31.9-5.148a4.984,4.984,0,0,0-.66-.051,1.344,1.344,0,0,0-1.365.7V0H28.038V-6.868h1.733l.051.819A1.7,1.7,0,0,1,31.351-7a1.922,1.922,0,0,1,.571.083ZM35.82.127A3.372,3.372,0,0,1,33.36-.8a3.294,3.294,0,0,1-.949-2.469v-.178a4.149,4.149,0,0,1,.4-1.85,2.935,2.935,0,0,1,1.133-1.257A3.18,3.18,0,0,1,35.617-7a2.85,2.85,0,0,1,2.219.889,3.611,3.611,0,0,1,.809,2.52v.749H34.271a1.7,1.7,0,0,0,.536,1.079,1.621,1.621,0,0,0,1.133.406A1.98,1.98,0,0,0,37.6-2.12l.9,1.009A2.754,2.754,0,0,1,37.381-.2,3.665,3.665,0,0,1,35.82.127ZM35.61-5.516a1.146,1.146,0,0,0-.885.37,1.915,1.915,0,0,0-.435,1.058h2.552v-.147a1.366,1.366,0,0,0-.33-.947A1.183,1.183,0,0,0,35.61-5.516Z" transform="translate(-8337.333 -6571.68)" fill="#12263f"/>
    <path id="Trazado_838856" data-name="Trazado 838856" d="M6.043-1.9H2.7L2.069,0H.044l3.44-9.242H5.25L8.709,0H6.684ZM3.218-3.447H5.529L4.367-6.906ZM9.953,0V-5.522H8.931V-6.868H9.953v-.584a2.371,2.371,0,0,1,.663-1.793,2.569,2.569,0,0,1,1.857-.638,4.289,4.289,0,0,1,.933.127l-.019,1.422a2.339,2.339,0,0,0-.559-.057q-1.035,0-1.035.971v.552h1.365v1.346H11.794V0Zm6.354-8.557v1.688h1.174v1.346H16.307v3.428a.818.818,0,0,0,.146.546.733.733,0,0,0,.559.165,2.925,2.925,0,0,0,.54-.044v1.39A3.777,3.777,0,0,1,16.44.127a1.752,1.752,0,0,1-1.968-1.949v-3.7h-1V-6.868h1V-8.557ZM21.665.127A3.372,3.372,0,0,1,19.2-.8a3.294,3.294,0,0,1-.949-2.469v-.178a4.149,4.149,0,0,1,.4-1.85,2.935,2.935,0,0,1,1.133-1.257A3.18,3.18,0,0,1,21.461-7a2.85,2.85,0,0,1,2.219.889,3.611,3.611,0,0,1,.809,2.52v.749H20.116a1.7,1.7,0,0,0,.536,1.079,1.621,1.621,0,0,0,1.133.406,1.98,1.98,0,0,0,1.657-.768l.9,1.009A2.754,2.754,0,0,1,23.226-.2,3.665,3.665,0,0,1,21.665.127Zm-.209-5.643a1.146,1.146,0,0,0-.885.37,1.915,1.915,0,0,0-.435,1.058h2.552v-.147a1.366,1.366,0,0,0-.33-.947A1.183,1.183,0,0,0,21.455-5.516Zm7.935.368a4.984,4.984,0,0,0-.66-.051,1.344,1.344,0,0,0-1.365.7V0H25.53V-6.868h1.733l.051.819A1.7,1.7,0,0,1,28.844-7a1.922,1.922,0,0,1,.571.083Z" transform="translate(-8115.302 -6571.68)" fill="#12263f"/>
    <g id="gbVqRU.tif" transform="translate(-8382.546 -6555.941)">
      <g id="Grupo_155512" data-name="Grupo 155512">
        <path id="Trazado_197441" data-name="Trazado 197441" d="M-953.461,4764.263q-15.129,0-30.259,0c-.4,0-.8.006-1.192-.026a1.721,1.721,0,0,1-1.731-1.51,1.7,1.7,0,0,1,1.507-1.607,7,7,0,0,1,1.187-.053q30.638,0,61.277,0a5.4,5.4,0,0,1,1.491.142,1.426,1.426,0,0,1,1.156,1.687,1.555,1.555,0,0,1-1.554,1.326,11.74,11.74,0,0,1-1.3.038Q-938.169,4764.264-953.461,4764.263Z" transform="translate(986.644 -4735.351)" fill="#12263f"/>
        <path id="Trazado_197442" data-name="Trazado 197442" d="M-961.784,4800.792q-11.334,0-22.669,0a7.561,7.561,0,0,1-.893-.029,1.562,1.562,0,0,1-1.3-1.6,1.677,1.677,0,0,1,1.129-1.7,3.628,3.628,0,0,1,.889-.058q22.954,0,45.907,0a2.9,2.9,0,0,1,1.117.15,1.571,1.571,0,0,1,.867,1.79,1.4,1.4,0,0,1-1.164,1.409,6.281,6.281,0,0,1-.973.04Q-950.328,4800.793-961.784,4800.792Z" transform="translate(986.644 -4761.97)" fill="#12263f"/>
        <path id="Trazado_197443" data-name="Trazado 197443" d="M-968.6,4830.835h-16.454a4.63,4.63,0,0,1-.648-.025c-.536-.077-.923-.685-.941-1.451a1.548,1.548,0,0,1,.819-1.54,2.2,2.2,0,0,1,.646-.051q16.66,0,33.322,0a1.716,1.716,0,0,1,.811.138,1.532,1.532,0,0,1,.629,1.617c-.064.744-.358,1.177-.845,1.272a3.633,3.633,0,0,1-.706.036Q-960.283,4830.836-968.6,4830.835Z" transform="translate(986.643 -4783.402)" fill="#12263f"/>
        <path id="Trazado_197444" data-name="Trazado 197444" d="M-977.107,4680.012c-.431,0-.866.035-1.294-.007a2.339,2.339,0,0,1-2.265-2.33,2.362,2.362,0,0,1,2.1-2.5,14.55,14.55,0,0,1,2.873-.034,2.4,2.4,0,0,1,2.341,2.435,2.378,2.378,0,0,1-2.455,2.449c-.429.03-.863,0-1.295,0Z" transform="translate(982.395 -4675.086)" fill="#12263f"/>
        <path id="Trazado_197445" data-name="Trazado 197445" d="M-899.206,4677.549a2.455,2.455,0,0,1-2.368,2.535,2.422,2.422,0,0,1-2.558-2.33,2.518,2.518,0,0,1,2.354-2.563A2.514,2.514,0,0,1-899.206,4677.549Z" transform="translate(927.975 -4675.159)" fill="#12263f"/>
        <path id="Trazado_197446" data-name="Trazado 197446" d="M-933.367,4677.692a2.384,2.384,0,0,1-2.482,2.419,2.473,2.473,0,0,1-2.437-2.351,2.573,2.573,0,0,1,2.442-2.532A2.485,2.485,0,0,1-933.367,4677.692Z" transform="translate(952.259 -4675.187)" fill="#12263f"/>
      </g>
    </g>
    <path id="Trazado_197448" data-name="Trazado 197448" d="M-784.979,4931.383h25.924l5.051-5.052-5.147-5.146h-26.02l4.718,4.718Z" transform="translate(-7539.16 -11406.016)" fill="none" stroke="#12263f" stroke-linejoin="round" stroke-width="1.5"/>
    <path id="Trazado_197449" data-name="Trazado 197449" d="M-886.574,4931.383h25.924l5.051-5.052-5.147-5.146h-26.02l4.718,4.718Z" transform="translate(-7466.921 -11406.016)" fill="none" stroke="#12263f" stroke-linejoin="round" stroke-width="1.5"/>
    <path id="Trazado_197450" data-name="Trazado 197450" d="M-988.169,4931.383h25.925l5.051-5.052-5.147-5.146h-26.02l4.718,4.718Z" transform="translate(-7394.682 -11406.016)" fill="none" stroke="#12263f" stroke-linejoin="round" stroke-width="1.5"/>
    <g id="Grupo_1074611" data-name="Grupo 1074611" transform="translate(-8825.553 -11242.986)">
      <path id="Trazado_197451" data-name="Trazado 197451" d="M-634.8,4913.921v12.594a31.109,31.109,0,0,0,21.078,0l-.274-12.594" transform="translate(1179.475 -157.865)" fill="none" stroke="#12263f" stroke-linejoin="round" stroke-width="2"/>
      <ellipse id="Elipse_5993" data-name="Elipse 5993" cx="10.402" cy="3.832" rx="10.402" ry="3.832" transform="translate(544.67 4752.224)" fill="none" stroke="#12263f" stroke-linejoin="round" stroke-width="2"/>
    </g>
    <g id="Grupo_1074649" data-name="Grupo 1074649" transform="translate(-8602.553 -11242.986)">
      <path id="Trazado_197451-2" data-name="Trazado 197451" d="M-634.8,4913.921v12.594a31.109,31.109,0,0,0,21.078,0l-.274-12.594" transform="translate(1179.475 -157.865)" fill="none" stroke="#12263f" stroke-linejoin="round" stroke-width="2"/>
      <ellipse id="Elipse_5993-2" data-name="Elipse 5993" cx="10.402" cy="3.832" rx="10.402" ry="3.832" transform="translate(544.67 4752.224)" fill="none" stroke="#12263f" stroke-linejoin="round" stroke-width="2"/>
    </g>
    <g id="Grupo_1074607" data-name="Grupo 1074607" transform="translate(-8825.553 -11242.986)">
      <path id="Trazado_197452" data-name="Trazado 197452" d="M-706.488,4801.779l10.585-11.315,5.475,3.285,4.38-5.11,5.11.73,7.664-8.395" transform="translate(1230.446 -63.334)" fill="none" stroke="#12263f" stroke-linejoin="round" stroke-width="3"/>
      <g id="Rectángulo_376411" data-name="Rectángulo 376411" transform="translate(518.574 4710.017)" fill="none" stroke="#12263f" stroke-width="2">
        <rect width="47" height="33" rx="4" stroke="none"/>
        <rect x="1" y="1" width="45" height="31" rx="3" fill="none"/>
      </g>
    </g>
    <path id="Trazado_197436" data-name="Trazado 197436" d="M-10419.125-6917.625h36.843" transform="translate(1989.125 403.139)" fill="none" stroke="#12263f" stroke-width="3"/>
    <path id="Trazado_821989" data-name="Trazado 821989" d="M-10419.125-6917.625h36.843" transform="translate(2395.356 403.139)" fill="none" stroke="#12263f" stroke-width="3"/>
    <path id="Trazado_197437" data-name="Trazado 197437" d="M0,0H42.069" transform="translate(-8319.333 -6416.27) rotate(-90)" fill="none" stroke="#12263f" stroke-width="3"/>
    <path id="Trazado_197439" data-name="Trazado 197439" d="M-10419.125-6917.625h77.105" transform="translate(2171.072 403.139)" fill="none" stroke="#12263f" stroke-width="3"/>
    <g id="Grupo_1074613" data-name="Grupo 1074613" transform="translate(-8825.553 -11239.986)">
      <g id="Rectángulo_46384" data-name="Rectángulo 46384" transform="translate(462.388 4823.717)" fill="none" stroke="#12263f" stroke-width="2.5">
        <rect width="87.664" height="67.064" rx="5" stroke="none"/>
        <rect x="1.25" y="1.25" width="85.164" height="64.564" rx="3.75" fill="none"/>
      </g>
      <g id="Grupo_1074588" data-name="Grupo 1074588" transform="translate(474.703 4832.822)">
        <path id="Trazado_197441-2" data-name="Trazado 197441" d="M-10088.652-6500.5h64.543" transform="translate(10088.94 6500.5)" fill="none" stroke="#12263f" stroke-width="2"/>
        <path id="Trazado_197443-2" data-name="Trazado 197443" d="M-10088.652-6500.5h64.543" transform="translate(10088.94 6513.792)" fill="none" stroke="#12263f" stroke-width="2"/>
        <path id="Trazado_197445-2" data-name="Trazado 197445" d="M-10088.652-6500.5h64.543" transform="translate(10088.652 6525.928)" fill="none" stroke="#12263f" stroke-width="2"/>
        <path id="Trazado_197447" data-name="Trazado 197447" d="M-10088.652-6500.5h64.543" transform="translate(10088.652 6536.908)" fill="none" stroke="#12263f" stroke-width="2"/>
        <path id="Trazado_197449-2" data-name="Trazado 197449" d="M-10088.652-6500.5h64.543" transform="translate(10088.94 6507.146)" fill="none" stroke="#12263f" stroke-width="2"/>
        <path id="Trazado_197451-3" data-name="Trazado 197451" d="M-10088.652-6500.5h64.543" transform="translate(10088.94 6520.438)" fill="none" stroke="#12263f" stroke-width="2"/>
        <path id="Trazado_197453" data-name="Trazado 197453" d="M-10088.652-6500.5h64.543" transform="translate(10088.94 6531.418)" fill="none" stroke="#12263f" stroke-width="2"/>
      </g>
      <g id="Grupo_1074589" data-name="Grupo 1074589" transform="translate(500.703 4873.51)">
        <g id="Elipse_5993-3" data-name="Elipse 5993" fill="none" stroke="#12263f" stroke-width="1">
          <circle cx="5.941" cy="5.941" r="5.941" stroke="none"/>
          <circle cx="5.941" cy="5.941" r="5.441" fill="none"/>
        </g>
        <g id="Elipse_5995" data-name="Elipse 5995" transform="translate(3.127 3.127)" fill="#12263f" stroke="#12263f" stroke-width="1">
          <circle cx="2.814" cy="2.814" r="2.814" stroke="none"/>
          <circle cx="2.814" cy="2.814" r="2.314" fill="none"/>
        </g>
      </g>
    </g>
    <path id="Trazado_838857" data-name="Trazado 838857" d="M4.247-3.383H2.729V0H.825V-9.242H4.259a3.882,3.882,0,0,1,2.526.73,2.519,2.519,0,0,1,.889,2.063,2.843,2.843,0,0,1-.409,1.577A2.792,2.792,0,0,1,6.024-3.866l2,3.777V0H5.979ZM2.729-4.926H4.266a1.573,1.573,0,0,0,1.111-.365A1.3,1.3,0,0,0,5.77-6.3,1.4,1.4,0,0,0,5.4-7.325,1.543,1.543,0,0,0,4.259-7.7H2.729ZM12.162.127A3.372,3.372,0,0,1,9.7-.8a3.294,3.294,0,0,1-.949-2.469v-.178a4.149,4.149,0,0,1,.4-1.85,2.935,2.935,0,0,1,1.133-1.257A3.18,3.18,0,0,1,11.959-7a2.85,2.85,0,0,1,2.219.889,3.611,3.611,0,0,1,.809,2.52v.749H10.613a1.7,1.7,0,0,0,.536,1.079,1.621,1.621,0,0,0,1.133.406,1.98,1.98,0,0,0,1.657-.768l.9,1.009A2.754,2.754,0,0,1,13.724-.2,3.665,3.665,0,0,1,12.162.127Zm-.209-5.643a1.146,1.146,0,0,0-.885.37,1.915,1.915,0,0,0-.435,1.058h2.552v-.147a1.366,1.366,0,0,0-.33-.947A1.183,1.183,0,0,0,11.953-5.516Zm6.271-3.041v1.688H19.4v1.346H18.224v3.428a.818.818,0,0,0,.146.546.733.733,0,0,0,.559.165,2.925,2.925,0,0,0,.54-.044v1.39a3.777,3.777,0,0,1-1.111.165A1.752,1.752,0,0,1,16.39-1.822v-3.7h-1V-6.868h1V-8.557ZM22.356,0H20.516V-6.868h1.841ZM20.408-8.646a.9.9,0,0,1,.276-.679,1.037,1.037,0,0,1,.752-.267,1.04,1.04,0,0,1,.749.267.9.9,0,0,1,.279.679.9.9,0,0,1-.282.686,1.042,1.042,0,0,1-.746.267,1.042,1.042,0,0,1-.746-.267A.9.9,0,0,1,20.408-8.646Zm7.319,3.5a4.984,4.984,0,0,0-.66-.051,1.344,1.344,0,0,0-1.365.7V0H23.867V-6.868H25.6l.051.819A1.7,1.7,0,0,1,27.181-7a1.922,1.922,0,0,1,.571.083ZM31.649.127A3.372,3.372,0,0,1,29.19-.8a3.294,3.294,0,0,1-.949-2.469v-.178a4.149,4.149,0,0,1,.4-1.85,2.935,2.935,0,0,1,1.133-1.257A3.18,3.18,0,0,1,31.446-7a2.85,2.85,0,0,1,2.219.889,3.611,3.611,0,0,1,.809,2.52v.749H30.1a1.7,1.7,0,0,0,.536,1.079,1.621,1.621,0,0,0,1.133.406,1.98,1.98,0,0,0,1.657-.768l.9,1.009A2.754,2.754,0,0,1,33.211-.2,3.665,3.665,0,0,1,31.649.127ZM31.44-5.516a1.146,1.146,0,0,0-.885.37,1.915,1.915,0,0,0-.435,1.058h2.552v-.147a1.366,1.366,0,0,0-.33-.947A1.183,1.183,0,0,0,31.44-5.516Z" transform="translate(-8225.836 -6493.41)" fill="#12263f"/>
    <g id="Trazado_838858" data-name="Trazado 838858" transform="translate(-8392.979 -6565.985)" fill="none">
      <path d="M11,0H136a11,11,0,0,1,11,11V99a11,11,0,0,1-11,11H11A11,11,0,0,1,0,99V11A11,11,0,0,1,11,0Z" stroke="none"/>
      <path d="M 11 3 C 6.588790893554688 3 3 6.588790893554688 3 11 L 3 99 C 3 103.4112091064453 6.588790893554688 107 11 107 L 136 107 C 140.4112091064453 107 144 103.4112091064453 144 99 L 144 11 C 144 6.588790893554688 140.4112091064453 3 136 3 L 11 3 M 11 0 L 136 0 C 142.0751190185547 0 147 4.924850463867188 147 11 L 147 99 C 147 105.0751266479492 142.0751190185547 110 136 110 L 11 110 C 4.924850463867188 110 0 105.0751266479492 0 99 L 0 11 C 0 4.924850463867188 4.924850463867188 0 11 0 Z" stroke="none" fill="#12263f"/>
    </g>
    <path id="Trazado_821950" data-name="Trazado 821950" d="M4061.071-8379.466h144.3" transform="translate(-12452.494 1836.015)" fill="none" stroke="#12263f" stroke-width="3"/>
    <g id="gbVqRU.tif-2" data-name="gbVqRU.tif" transform="translate(-8160.515 -6555.941)">
      <g id="Grupo_155512-2" data-name="Grupo 155512">
        <path id="Trazado_197441-3" data-name="Trazado 197441" d="M-953.461,4764.263q-15.129,0-30.259,0c-.4,0-.8.006-1.192-.026a1.721,1.721,0,0,1-1.731-1.51,1.7,1.7,0,0,1,1.507-1.607,7,7,0,0,1,1.187-.053q30.638,0,61.277,0a5.4,5.4,0,0,1,1.491.142,1.426,1.426,0,0,1,1.156,1.687,1.555,1.555,0,0,1-1.554,1.326,11.74,11.74,0,0,1-1.3.038Q-938.169,4764.264-953.461,4764.263Z" transform="translate(986.644 -4735.351)" fill="#12263f"/>
        <path id="Trazado_197442-2" data-name="Trazado 197442" d="M-961.784,4800.792q-11.334,0-22.669,0a7.561,7.561,0,0,1-.893-.029,1.562,1.562,0,0,1-1.3-1.6,1.677,1.677,0,0,1,1.129-1.7,3.628,3.628,0,0,1,.889-.058q22.954,0,45.907,0a2.9,2.9,0,0,1,1.117.15,1.571,1.571,0,0,1,.867,1.79,1.4,1.4,0,0,1-1.164,1.409,6.281,6.281,0,0,1-.973.04Q-950.328,4800.793-961.784,4800.792Z" transform="translate(986.644 -4761.97)" fill="#12263f"/>
        <path id="Trazado_197443-3" data-name="Trazado 197443" d="M-968.6,4830.835h-16.454a4.63,4.63,0,0,1-.648-.025c-.536-.077-.923-.685-.941-1.451a1.548,1.548,0,0,1,.819-1.54,2.2,2.2,0,0,1,.646-.051q16.66,0,33.322,0a1.716,1.716,0,0,1,.811.138,1.532,1.532,0,0,1,.629,1.617c-.064.744-.358,1.177-.845,1.272a3.633,3.633,0,0,1-.706.036Q-960.283,4830.836-968.6,4830.835Z" transform="translate(986.643 -4783.402)" fill="#12263f"/>
        <path id="Trazado_197444-2" data-name="Trazado 197444" d="M-977.107,4680.012c-.431,0-.866.035-1.294-.007a2.339,2.339,0,0,1-2.265-2.33,2.362,2.362,0,0,1,2.1-2.5,14.55,14.55,0,0,1,2.873-.034,2.4,2.4,0,0,1,2.341,2.435,2.378,2.378,0,0,1-2.455,2.449c-.429.03-.863,0-1.295,0Z" transform="translate(982.395 -4675.086)" fill="#12263f"/>
        <path id="Trazado_197445-3" data-name="Trazado 197445" d="M-899.206,4677.549a2.455,2.455,0,0,1-2.368,2.535,2.422,2.422,0,0,1-2.558-2.33,2.518,2.518,0,0,1,2.354-2.563A2.514,2.514,0,0,1-899.206,4677.549Z" transform="translate(927.975 -4675.159)" fill="#12263f"/>
        <path id="Trazado_197446-2" data-name="Trazado 197446" d="M-933.367,4677.692a2.384,2.384,0,0,1-2.482,2.419,2.473,2.473,0,0,1-2.437-2.351,2.573,2.573,0,0,1,2.442-2.532A2.485,2.485,0,0,1-933.367,4677.692Z" transform="translate(952.259 -4675.187)" fill="#12263f"/>
      </g>
    </g>
    <path id="Trazado_821984" data-name="Trazado 821984" d="M-784.979,4931.383h25.924l5.051-5.052-5.147-5.146h-26.02l4.718,4.718Z" transform="translate(-7317.129 -11406.016)" fill="none" stroke="#12263f" stroke-linejoin="round" stroke-width="1.5"/>
    <path id="Trazado_821985" data-name="Trazado 821985" d="M-886.574,4931.383h25.924l5.051-5.052-5.147-5.146h-26.02l4.718,4.718Z" transform="translate(-7244.89 -11406.016)" fill="none" stroke="#12263f" stroke-linejoin="round" stroke-width="1.5"/>
    <path id="Trazado_821988" data-name="Trazado 821988" d="M-988.169,4931.383h25.925l5.051-5.052-5.147-5.146h-26.02l4.718,4.718Z" transform="translate(-7172.65 -11406.016)" fill="none" stroke="#12263f" stroke-linejoin="round" stroke-width="1.5"/>
    <g id="Grupo_1074643" data-name="Grupo 1074643" transform="translate(-8603.521 -11242.986)">
      <path id="Trazado_197452-2" data-name="Trazado 197452" d="M-706.488,4801.779l10.585-11.315,5.475,3.285,4.38-5.11,5.11.73,7.664-8.395" transform="translate(1230.446 -63.334)" fill="none" stroke="#12263f" stroke-linejoin="round" stroke-width="3"/>
      <g id="Rectángulo_376411-2" data-name="Rectángulo 376411" transform="translate(518.574 4710.017)" fill="none" stroke="#12263f" stroke-width="2">
        <rect width="47" height="33" rx="4" stroke="none"/>
        <rect x="1" y="1" width="45" height="31" rx="3" fill="none"/>
      </g>
    </g>
    <path id="Trazado_821986" data-name="Trazado 821986" d="M0,0H42.069" transform="translate(-8097.302 -6416.27) rotate(-90)" fill="none" stroke="#12263f" stroke-width="3"/>
    <g id="Grupo_1074642" data-name="Grupo 1074642" transform="translate(-8603.521 -11239.986)">
      <g id="Rectángulo_46384-2" data-name="Rectángulo 46384" transform="translate(462.388 4823.717)" fill="none" stroke="#12263f" stroke-width="2.5">
        <rect width="87.664" height="67.064" rx="5" stroke="none"/>
        <rect x="1.25" y="1.25" width="85.164" height="64.564" rx="3.75" fill="none"/>
      </g>
      <g id="Grupo_1074588-2" data-name="Grupo 1074588" transform="translate(474.703 4832.822)">
        <path id="Trazado_197441-4" data-name="Trazado 197441" d="M-10088.652-6500.5h64.543" transform="translate(10088.94 6500.5)" fill="none" stroke="#12263f" stroke-width="2"/>
        <path id="Trazado_197443-4" data-name="Trazado 197443" d="M-10088.652-6500.5h64.543" transform="translate(10088.94 6513.792)" fill="none" stroke="#12263f" stroke-width="2"/>
        <path id="Trazado_197445-4" data-name="Trazado 197445" d="M-10088.652-6500.5h64.543" transform="translate(10088.652 6525.928)" fill="none" stroke="#12263f" stroke-width="2"/>
        <path id="Trazado_197447-2" data-name="Trazado 197447" d="M-10088.652-6500.5h64.543" transform="translate(10088.652 6536.908)" fill="none" stroke="#12263f" stroke-width="2"/>
        <path id="Trazado_197449-3" data-name="Trazado 197449" d="M-10088.652-6500.5h64.543" transform="translate(10088.94 6507.146)" fill="none" stroke="#12263f" stroke-width="2"/>
        <path id="Trazado_197451-4" data-name="Trazado 197451" d="M-10088.652-6500.5h64.543" transform="translate(10088.94 6520.438)" fill="none" stroke="#12263f" stroke-width="2"/>
        <path id="Trazado_197453-2" data-name="Trazado 197453" d="M-10088.652-6500.5h64.543" transform="translate(10088.94 6531.418)" fill="none" stroke="#12263f" stroke-width="2"/>
      </g>
      <g id="Grupo_1074589-2" data-name="Grupo 1074589" transform="translate(500.703 4873.51)">
        <g id="Elipse_5993-4" data-name="Elipse 5993" fill="none" stroke="#12263f" stroke-width="1">
          <circle cx="5.941" cy="5.941" r="5.941" stroke="none"/>
          <circle cx="5.941" cy="5.941" r="5.441" fill="none"/>
        </g>
        <g id="Elipse_5995-2" data-name="Elipse 5995" transform="translate(3.127 3.127)" fill="#12263f" stroke="#12263f" stroke-width="1">
          <circle cx="2.814" cy="2.814" r="2.814" stroke="none"/>
          <circle cx="2.814" cy="2.814" r="2.314" fill="none"/>
        </g>
      </g>
    </g>
    <g id="Trazado_838859" data-name="Trazado 838859" transform="translate(-8170.947 -6565.985)" fill="none">
      <path d="M11,0H136a11,11,0,0,1,11,11V99a11,11,0,0,1-11,11H11A11,11,0,0,1,0,99V11A11,11,0,0,1,11,0Z" stroke="none"/>
      <path d="M 11 3 C 6.588790893554688 3 3 6.588790893554688 3 11 L 3 99 C 3 103.4112091064453 6.588790893554688 107 11 107 L 136 107 C 140.4112091064453 107 144 103.4112091064453 144 99 L 144 11 C 144 6.588790893554688 140.4112091064453 3 136 3 L 11 3 M 11 0 L 136 0 C 142.0751190185547 0 147 4.924850463867188 147 11 L 147 99 C 147 105.0751266479492 142.0751190185547 110 136 110 L 11 110 C 4.924850463867188 110 0 105.0751266479492 0 99 L 0 11 C 0 4.924850463867188 4.924850463867188 0 11 0 Z" stroke="none" fill="#12263f"/>
    </g>
    <path id="Trazado_821987" data-name="Trazado 821987" d="M4061.071-8379.466h144.3" transform="translate(-12230.463 1836.015)" fill="none" stroke="#12263f" stroke-width="3"/>
    <g id="Grupo_1074646" data-name="Grupo 1074646" transform="translate(-8839.155 -12084.426)">
      <g id="Rectángulo_376436" data-name="Rectángulo 376436" transform="translate(774 5508.354)" fill="#e4e9eb" stroke="#12263f" stroke-width="2.5">
        <rect width="43.603" height="23.478" rx="11.739" stroke="none"/>
        <rect x="1.25" y="1.25" width="41.103" height="20.978" rx="10.489" fill="none"/>
      </g>
      <g id="Trazado_821991" data-name="Trazado 821991" transform="translate(796.64 5505.839)" fill="#e4e9eb">
        <path d="M 13.83544921875 26.4208984375 C 10.4737491607666 26.4208984375 7.313269138336182 25.11178970336914 4.9361891746521 22.73470878601074 C 2.559109210968018 20.35762977600098 1.249999165534973 17.1971492767334 1.249999165534973 13.83544921875 C 1.249999165534973 10.4737491607666 2.559109210968018 7.313269138336182 4.9361891746521 4.9361891746521 C 7.313269138336182 2.559109210968018 10.4737491607666 1.249999165534973 13.83544921875 1.249999165534973 C 17.1971492767334 1.249999165534973 20.35762977600098 2.559109210968018 22.73470878601074 4.9361891746521 C 25.11178970336914 7.313269138336182 26.4208984375 10.4737491607666 26.4208984375 13.83544921875 C 26.4208984375 17.1971492767334 25.11178970336914 20.35762977600098 22.73470878601074 22.73470878601074 C 20.35762977600098 25.11178970336914 17.1971492767334 26.4208984375 13.83544921875 26.4208984375 Z" stroke="none"/>
        <path d="M 13.83544921875 2.5 C 10.80764007568359 2.5 7.9610595703125 3.679088592529297 5.820079803466797 5.820079803466797 C 3.679088592529297 7.9610595703125 2.5 10.80764007568359 2.5 13.83544921875 C 2.5 16.86325836181641 3.679088592529297 19.7098388671875 5.820079803466797 21.8508186340332 C 7.9610595703125 23.9918098449707 10.80764007568359 25.1708984375 13.83544921875 25.1708984375 C 16.86325836181641 25.1708984375 19.7098388671875 23.9918098449707 21.8508186340332 21.8508186340332 C 23.9918098449707 19.7098388671875 25.1708984375 16.86325836181641 25.1708984375 13.83544921875 C 25.1708984375 10.80764007568359 23.9918098449707 7.9610595703125 21.8508186340332 5.820079803466797 C 19.7098388671875 3.679088592529297 16.86325836181641 2.5 13.83544921875 2.5 M 13.83544921875 0 C 21.47655868530273 0 27.6708984375 6.194339752197266 27.6708984375 13.83544921875 C 27.6708984375 21.47655868530273 21.47655868530273 27.6708984375 13.83544921875 27.6708984375 C 6.194339752197266 27.6708984375 0 21.47655868530273 0 13.83544921875 C 0 6.194339752197266 6.194339752197266 0 13.83544921875 0 Z" stroke="none" fill="#12263f"/>
      </g>
      <g id="Grupo_1074645" data-name="Grupo 1074645" transform="translate(804.919 5511.96)">
        <g id="Elipse_10497" data-name="Elipse 10497" transform="translate(0 1.988)" fill="#e4e9eb" stroke="#12263f" stroke-width="2">
          <circle cx="5.825" cy="5.825" r="5.825" stroke="none"/>
          <circle cx="5.825" cy="5.825" r="4.825" fill="none"/>
        </g>
        <path id="Trazado_821990" data-name="Trazado 821990" d="M-9935-6639.1v5.568" transform="translate(9940.825 6639.102)" fill="none" stroke="#12263f" stroke-width="2"/>
      </g>
      <text id="Off" transform="translate(782.155 5523.335)" fill="#12263f" font-size="8" font-family="Roboto-Bold, Roboto" font-weight="700"><tspan x="0" y="0">Off</tspan></text>
    </g>
    <path id="Trazado_838860" data-name="Trazado 838860" d="M9.7,0l9.7,16.457H0Z" transform="translate(-7970.469 -6524.182) rotate(90)" fill="#12263f"/>
  </g>
</svg>
