<svg xmlns="http://www.w3.org/2000/svg" width="611" height="271.785" viewBox="0 0 611 271.785">
  <g id="Grupo_1098916" data-name="Grupo 1098916" transform="translate(8506 6140.178)">
    <path id="Trazado_838861" data-name="Trazado 838861" d="M0,0H611V271.785H0Z" transform="translate(-8506 -6140.178)" fill="#c2e6dd" opacity="0.997"/>
    <g id="gbVqRU.tif" transform="translate(-8399.546 -6093.439)">
      <g id="Grupo_155512" data-name="Grupo 155512">
        <path id="Trazado_197441" data-name="Trazado 197441" d="M-953.461,4764.263q-15.129,0-30.259,0c-.4,0-.8.006-1.192-.026a1.721,1.721,0,0,1-1.731-1.51,1.7,1.7,0,0,1,1.507-1.607,7,7,0,0,1,1.187-.053q30.638,0,61.277,0a5.4,5.4,0,0,1,1.491.142,1.426,1.426,0,0,1,1.156,1.687,1.555,1.555,0,0,1-1.554,1.326,11.74,11.74,0,0,1-1.3.038Q-938.169,4764.264-953.461,4764.263Z" transform="translate(986.644 -4735.351)" fill="#12263f"/>
        <path id="Trazado_197442" data-name="Trazado 197442" d="M-961.784,4800.792q-11.334,0-22.669,0a7.561,7.561,0,0,1-.893-.029,1.562,1.562,0,0,1-1.3-1.6,1.677,1.677,0,0,1,1.129-1.7,3.628,3.628,0,0,1,.889-.058q22.954,0,45.907,0a2.9,2.9,0,0,1,1.117.15,1.571,1.571,0,0,1,.867,1.79,1.4,1.4,0,0,1-1.164,1.409,6.281,6.281,0,0,1-.973.04Q-950.328,4800.793-961.784,4800.792Z" transform="translate(986.644 -4761.97)" fill="#12263f"/>
        <path id="Trazado_197443" data-name="Trazado 197443" d="M-968.6,4830.835h-16.454a4.63,4.63,0,0,1-.648-.025c-.536-.077-.923-.685-.941-1.451a1.548,1.548,0,0,1,.819-1.54,2.2,2.2,0,0,1,.646-.051q16.66,0,33.322,0a1.716,1.716,0,0,1,.811.138,1.532,1.532,0,0,1,.629,1.617c-.064.744-.358,1.177-.845,1.272a3.633,3.633,0,0,1-.706.036Q-960.283,4830.836-968.6,4830.835Z" transform="translate(986.643 -4783.402)" fill="#12263f"/>
        <path id="Trazado_197444" data-name="Trazado 197444" d="M-977.107,4680.012c-.431,0-.866.035-1.294-.007a2.339,2.339,0,0,1-2.265-2.33,2.362,2.362,0,0,1,2.1-2.5,14.55,14.55,0,0,1,2.873-.034,2.4,2.4,0,0,1,2.341,2.435,2.378,2.378,0,0,1-2.455,2.449c-.429.03-.863,0-1.295,0Z" transform="translate(982.395 -4675.086)" fill="#12263f"/>
        <path id="Trazado_197445" data-name="Trazado 197445" d="M-899.206,4677.549a2.455,2.455,0,0,1-2.368,2.535,2.422,2.422,0,0,1-2.558-2.33,2.518,2.518,0,0,1,2.354-2.563A2.514,2.514,0,0,1-899.206,4677.549Z" transform="translate(927.975 -4675.159)" fill="#12263f"/>
        <path id="Trazado_197446" data-name="Trazado 197446" d="M-933.367,4677.692a2.384,2.384,0,0,1-2.482,2.419,2.473,2.473,0,0,1-2.437-2.351,2.573,2.573,0,0,1,2.442-2.532A2.485,2.485,0,0,1-933.367,4677.692Z" transform="translate(952.259 -4675.187)" fill="#12263f"/>
      </g>
    </g>
    <path id="Trazado_197448" data-name="Trazado 197448" d="M-784.979,4931.383h25.924l5.051-5.052-5.147-5.146h-26.02l4.718,4.718Z" transform="translate(-7556.16 -10943.514)" fill="none" stroke="#12263f" stroke-linejoin="round" stroke-width="1.5"/>
    <path id="Trazado_197449" data-name="Trazado 197449" d="M-886.574,4931.383h25.924l5.051-5.052-5.147-5.146h-26.02l4.718,4.718Z" transform="translate(-7483.921 -10943.514)" fill="none" stroke="#12263f" stroke-linejoin="round" stroke-width="1.5"/>
    <path id="Trazado_197450" data-name="Trazado 197450" d="M-988.169,4931.383h25.925l5.051-5.052-5.147-5.146h-26.02l4.718,4.718Z" transform="translate(-7411.682 -10943.514)" fill="none" stroke="#12263f" stroke-linejoin="round" stroke-width="1.5"/>
    <g id="Grupo_1074611" data-name="Grupo 1074611" transform="translate(-8842.553 -10780.484)">
      <path id="Trazado_197451" data-name="Trazado 197451" d="M-634.8,4913.921v12.594a31.109,31.109,0,0,0,21.078,0l-.274-12.594" transform="translate(1179.475 -157.865)" fill="none" stroke="#12263f" stroke-linejoin="round" stroke-width="2"/>
      <ellipse id="Elipse_5993" data-name="Elipse 5993" cx="10.402" cy="3.832" rx="10.402" ry="3.832" transform="translate(544.67 4752.224)" fill="none" stroke="#12263f" stroke-linejoin="round" stroke-width="2"/>
    </g>
    <g id="Grupo_1074650" data-name="Grupo 1074650" transform="translate(-8620.553 -10780.484)">
      <path id="Trazado_197451-2" data-name="Trazado 197451" d="M-634.8,4913.921v12.594a31.109,31.109,0,0,0,21.078,0l-.274-12.594" transform="translate(1179.475 -157.865)" fill="none" stroke="#12263f" stroke-linejoin="round" stroke-width="2"/>
      <ellipse id="Elipse_5993-2" data-name="Elipse 5993" cx="10.402" cy="3.832" rx="10.402" ry="3.832" transform="translate(544.67 4752.224)" fill="none" stroke="#12263f" stroke-linejoin="round" stroke-width="2"/>
    </g>
    <g id="Grupo_1074607" data-name="Grupo 1074607" transform="translate(-8842.553 -10780.484)">
      <path id="Trazado_197452" data-name="Trazado 197452" d="M-706.488,4801.779l10.585-11.315,5.475,3.285,4.38-5.11,5.11.73,7.664-8.395" transform="translate(1230.446 -63.334)" fill="none" stroke="#12263f" stroke-linejoin="round" stroke-width="3"/>
      <g id="Rect치ngulo_376411" data-name="Rect치ngulo 376411" transform="translate(518.574 4710.017)" fill="none" stroke="#12263f" stroke-width="2">
        <rect width="47" height="33" rx="4" stroke="none"/>
        <rect x="1" y="1" width="45" height="31" rx="3" fill="none"/>
      </g>
    </g>
    <path id="Trazado_197436" data-name="Trazado 197436" d="M-10419.125-6917.625h36.843" transform="translate(1972.125 865.641)" fill="none" stroke="#12263f" stroke-width="3"/>
    <path id="Trazado_821989" data-name="Trazado 821989" d="M-10419.125-6917.625h36.843" transform="translate(2378.356 865.641)" fill="none" stroke="#12263f" stroke-width="3"/>
    <path id="Trazado_197437" data-name="Trazado 197437" d="M0,0H42.069" transform="translate(-8336.333 -5953.768) rotate(-90)" fill="none" stroke="#12263f" stroke-width="3"/>
    <path id="Trazado_197439" data-name="Trazado 197439" d="M-10419.125-6917.625h77.105" transform="translate(2154.072 865.641)" fill="none" stroke="#12263f" stroke-width="3"/>
    <g id="Grupo_1074613" data-name="Grupo 1074613" transform="translate(-8842.553 -10777.484)">
      <g id="Rect치ngulo_46384" data-name="Rect치ngulo 46384" transform="translate(462.388 4823.717)" fill="none" stroke="#12263f" stroke-width="2.5">
        <rect width="87.664" height="67.064" rx="5" stroke="none"/>
        <rect x="1.25" y="1.25" width="85.164" height="64.564" rx="3.75" fill="none"/>
      </g>
      <g id="Grupo_1074588" data-name="Grupo 1074588" transform="translate(474.703 4832.822)">
        <path id="Trazado_197441-2" data-name="Trazado 197441" d="M-10088.652-6500.5h64.543" transform="translate(10088.94 6500.5)" fill="none" stroke="#12263f" stroke-width="2"/>
        <path id="Trazado_197443-2" data-name="Trazado 197443" d="M-10088.652-6500.5h64.543" transform="translate(10088.94 6513.792)" fill="none" stroke="#12263f" stroke-width="2"/>
        <path id="Trazado_197445-2" data-name="Trazado 197445" d="M-10088.652-6500.5h64.543" transform="translate(10088.652 6525.928)" fill="none" stroke="#12263f" stroke-width="2"/>
        <path id="Trazado_197447" data-name="Trazado 197447" d="M-10088.652-6500.5h64.543" transform="translate(10088.652 6536.908)" fill="none" stroke="#12263f" stroke-width="2"/>
        <path id="Trazado_197449-2" data-name="Trazado 197449" d="M-10088.652-6500.5h64.543" transform="translate(10088.94 6507.146)" fill="none" stroke="#12263f" stroke-width="2"/>
        <path id="Trazado_197451-3" data-name="Trazado 197451" d="M-10088.652-6500.5h64.543" transform="translate(10088.94 6520.438)" fill="none" stroke="#12263f" stroke-width="2"/>
        <path id="Trazado_197453" data-name="Trazado 197453" d="M-10088.652-6500.5h64.543" transform="translate(10088.94 6531.418)" fill="none" stroke="#12263f" stroke-width="2"/>
      </g>
      <g id="Grupo_1074589" data-name="Grupo 1074589" transform="translate(500.703 4873.51)">
        <g id="Elipse_5993-3" data-name="Elipse 5993" fill="none" stroke="#12263f" stroke-width="1">
          <circle cx="5.941" cy="5.941" r="5.941" stroke="none"/>
          <circle cx="5.941" cy="5.941" r="5.441" fill="none"/>
        </g>
        <g id="Elipse_5995" data-name="Elipse 5995" transform="translate(3.127 3.127)" fill="#12263f" stroke="#12263f" stroke-width="1">
          <circle cx="2.814" cy="2.814" r="2.814" stroke="none"/>
          <circle cx="2.814" cy="2.814" r="2.314" fill="none"/>
        </g>
      </g>
    </g>
    <path id="Trazado_838862" data-name="Trazado 838862" d="M.825,0V-9.242H4.063A4.251,4.251,0,0,1,6.614-8.6a2.2,2.2,0,0,1,.87,1.888,2.088,2.088,0,0,1-.349,1.2,2.017,2.017,0,0,1-.971.759,1.951,1.951,0,0,1,1.12.717,2.121,2.121,0,0,1,.409,1.32A2.439,2.439,0,0,1,6.843-.7,3.829,3.829,0,0,1,4.418,0Zm1.9-4.024V-1.53H4.361A1.574,1.574,0,0,0,5.411-1.85a1.1,1.1,0,0,0,.378-.885A1.161,1.161,0,0,0,4.475-4.024Zm0-1.346H4.139Q5.58-5.4,5.58-6.519a1.062,1.062,0,0,0-.365-.9A1.92,1.92,0,0,0,4.063-7.7H2.729Zm9.433,5.5A3.372,3.372,0,0,1,9.7-.8a3.294,3.294,0,0,1-.949-2.469v-.178a4.149,4.149,0,0,1,.4-1.85,2.935,2.935,0,0,1,1.133-1.257A3.18,3.18,0,0,1,11.959-7a2.85,2.85,0,0,1,2.219.889,3.611,3.611,0,0,1,.809,2.52v.749H10.613a1.7,1.7,0,0,0,.536,1.079,1.621,1.621,0,0,0,1.133.406,1.98,1.98,0,0,0,1.657-.768l.9,1.009A2.754,2.754,0,0,1,13.724-.2,3.665,3.665,0,0,1,12.162.127Zm-.209-5.643a1.146,1.146,0,0,0-.885.37,1.915,1.915,0,0,0-.435,1.058h2.552v-.147a1.366,1.366,0,0,0-.33-.947A1.183,1.183,0,0,0,11.953-5.516ZM16.529,0V-5.522H15.507V-6.868h1.022v-.584a2.371,2.371,0,0,1,.663-1.793,2.569,2.569,0,0,1,1.857-.638,4.289,4.289,0,0,1,.933.127l-.019,1.422a2.339,2.339,0,0,0-.559-.057q-1.035,0-1.035.971v.552h1.365v1.346H18.37V0ZM20.4-3.5a4.073,4.073,0,0,1,.394-1.822,2.881,2.881,0,0,1,1.133-1.238A3.306,3.306,0,0,1,23.645-7a3.127,3.127,0,0,1,2.269.851A3.414,3.414,0,0,1,26.9-3.834l.013.47a3.59,3.59,0,0,1-.882,2.536,3.067,3.067,0,0,1-2.368.955,3.082,3.082,0,0,1-2.371-.952,3.653,3.653,0,0,1-.885-2.59Zm1.834.13a2.567,2.567,0,0,0,.368,1.5,1.215,1.215,0,0,0,1.054.518A1.217,1.217,0,0,0,24.7-1.864,2.809,2.809,0,0,0,25.073-3.5,2.542,2.542,0,0,0,24.7-4.988a1.217,1.217,0,0,0-1.054-.528,1.2,1.2,0,0,0-1.041.524A2.857,2.857,0,0,0,22.236-3.367ZM31.9-5.148a4.984,4.984,0,0,0-.66-.051,1.344,1.344,0,0,0-1.365.7V0H28.038V-6.868h1.733l.051.819A1.7,1.7,0,0,1,31.351-7a1.922,1.922,0,0,1,.571.083ZM35.82.127A3.372,3.372,0,0,1,33.36-.8a3.294,3.294,0,0,1-.949-2.469v-.178a4.149,4.149,0,0,1,.4-1.85,2.935,2.935,0,0,1,1.133-1.257A3.18,3.18,0,0,1,35.617-7a2.85,2.85,0,0,1,2.219.889,3.611,3.611,0,0,1,.809,2.52v.749H34.271a1.7,1.7,0,0,0,.536,1.079,1.621,1.621,0,0,0,1.133.406A1.98,1.98,0,0,0,37.6-2.12l.9,1.009A2.754,2.754,0,0,1,37.381-.2,3.665,3.665,0,0,1,35.82.127ZM35.61-5.516a1.146,1.146,0,0,0-.885.37,1.915,1.915,0,0,0-.435,1.058h2.552v-.147a1.366,1.366,0,0,0-.33-.947A1.183,1.183,0,0,0,35.61-5.516Z" transform="translate(-8356 -6109.178)" fill="#12263f"/>
    <path id="Trazado_838863" data-name="Trazado 838863" d="M4.247-3.383H2.729V0H.825V-9.242H4.259a3.882,3.882,0,0,1,2.526.73,2.519,2.519,0,0,1,.889,2.063,2.843,2.843,0,0,1-.409,1.577A2.792,2.792,0,0,1,6.024-3.866l2,3.777V0H5.979ZM2.729-4.926H4.266a1.573,1.573,0,0,0,1.111-.365A1.3,1.3,0,0,0,5.77-6.3,1.4,1.4,0,0,0,5.4-7.325,1.543,1.543,0,0,0,4.259-7.7H2.729ZM12.162.127A3.372,3.372,0,0,1,9.7-.8a3.294,3.294,0,0,1-.949-2.469v-.178a4.149,4.149,0,0,1,.4-1.85,2.935,2.935,0,0,1,1.133-1.257A3.18,3.18,0,0,1,11.959-7a2.85,2.85,0,0,1,2.219.889,3.611,3.611,0,0,1,.809,2.52v.749H10.613a1.7,1.7,0,0,0,.536,1.079,1.621,1.621,0,0,0,1.133.406,1.98,1.98,0,0,0,1.657-.768l.9,1.009A2.754,2.754,0,0,1,13.724-.2,3.665,3.665,0,0,1,12.162.127Zm-.209-5.643a1.146,1.146,0,0,0-.885.37,1.915,1.915,0,0,0-.435,1.058h2.552v-.147a1.366,1.366,0,0,0-.33-.947A1.183,1.183,0,0,0,11.953-5.516Zm6.271-3.041v1.688H19.4v1.346H18.224v3.428a.818.818,0,0,0,.146.546.733.733,0,0,0,.559.165,2.925,2.925,0,0,0,.54-.044v1.39a3.777,3.777,0,0,1-1.111.165A1.752,1.752,0,0,1,16.39-1.822v-3.7h-1V-6.868h1V-8.557ZM24.4,0a2.037,2.037,0,0,1-.184-.616,2.22,2.22,0,0,1-1.733.743,2.439,2.439,0,0,1-1.673-.584,1.878,1.878,0,0,1-.663-1.473,1.941,1.941,0,0,1,.809-1.676A3.994,3.994,0,0,1,23.3-4.2h.844v-.394a1.132,1.132,0,0,0-.244-.762.961.961,0,0,0-.771-.286,1.093,1.093,0,0,0-.727.222.755.755,0,0,0-.263.609H20.3a1.843,1.843,0,0,1,.368-1.1,2.434,2.434,0,0,1,1.041-.8A3.794,3.794,0,0,1,23.22-7a3,3,0,0,1,2.015.638,2.232,2.232,0,0,1,.746,1.793v2.977a3.284,3.284,0,0,0,.273,1.479V0ZM22.883-1.276a1.58,1.58,0,0,0,.749-.181,1.188,1.188,0,0,0,.508-.486V-3.123h-.686q-1.377,0-1.466.952l-.006.108a.734.734,0,0,0,.241.565A.937.937,0,0,0,22.883-1.276ZM29.326,0H27.485V-6.868h1.841ZM27.377-8.646a.9.9,0,0,1,.276-.679,1.037,1.037,0,0,1,.752-.267,1.04,1.04,0,0,1,.749.267.9.9,0,0,1,.279.679.9.9,0,0,1-.282.686,1.042,1.042,0,0,1-.746.267,1.042,1.042,0,0,1-.746-.267A.9.9,0,0,1,27.377-8.646Zm5.148,1.777.057.793A2.4,2.4,0,0,1,34.557-7a1.993,1.993,0,0,1,1.625.641,2.991,2.991,0,0,1,.546,1.917V0H34.893V-4.393a1.19,1.19,0,0,0-.254-.847,1.137,1.137,0,0,0-.844-.263,1.262,1.262,0,0,0-1.162.66V0H30.8V-6.868Z" transform="translate(-8242.836 -6030.908)" fill="#12263f"/>
    <g id="Trazado_838864" data-name="Trazado 838864" transform="translate(-8410 -6103.483)" fill="none">
      <path d="M11,0H136a11,11,0,0,1,11,11V99a11,11,0,0,1-11,11H11A11,11,0,0,1,0,99V11A11,11,0,0,1,11,0Z" stroke="none"/>
      <path d="M 11 3 C 6.588790893554688 3 3 6.588790893554688 3 11 L 3 99 C 3 103.4112091064453 6.588790893554688 107 11 107 L 136 107 C 140.4112091064453 107 144 103.4112091064453 144 99 L 144 11 C 144 6.588790893554688 140.4112091064453 3 136 3 L 11 3 M 11 0 L 136 0 C 142.0751190185547 0 147 4.924850463867188 147 11 L 147 99 C 147 105.0751266479492 142.0751190185547 110 136 110 L 11 110 C 4.924850463867188 110 0 105.0751266479492 0 99 L 0 11 C 0 4.924850463867188 4.924850463867188 0 11 0 Z" stroke="none" fill="#12263f"/>
    </g>
    <path id="Trazado_821950" data-name="Trazado 821950" d="M4061.071-8379.466h144.3" transform="translate(-12469.494 2298.517)" fill="none" stroke="#12263f" stroke-width="3"/>
    <path id="Trazado_197441-3" data-name="Trazado 197441" d="M-953.461,4764.263q-15.129,0-30.259,0c-.4,0-.8.006-1.192-.026a1.721,1.721,0,0,1-1.731-1.51,1.7,1.7,0,0,1,1.507-1.607,7,7,0,0,1,1.187-.053q30.638,0,61.277,0a5.4,5.4,0,0,1,1.491.142,1.426,1.426,0,0,1,1.156,1.687,1.555,1.555,0,0,1-1.554,1.326,11.74,11.74,0,0,1-1.3.038Q-938.169,4764.264-953.461,4764.263Z" transform="translate(-7190.871 -10828.791)" fill="#12263f"/>
    <path id="Trazado_197442-2" data-name="Trazado 197442" d="M-961.784,4800.792q-11.334,0-22.669,0a7.561,7.561,0,0,1-.893-.029,1.562,1.562,0,0,1-1.3-1.6,1.677,1.677,0,0,1,1.129-1.7,3.628,3.628,0,0,1,.889-.058q22.954,0,45.907,0a2.9,2.9,0,0,1,1.117.15,1.571,1.571,0,0,1,.867,1.79,1.4,1.4,0,0,1-1.164,1.409,6.281,6.281,0,0,1-.973.04Q-950.328,4800.793-961.784,4800.792Z" transform="translate(-7190.871 -10855.41)" fill="#12263f"/>
    <path id="Trazado_197443-3" data-name="Trazado 197443" d="M-968.6,4830.835h-16.454a4.63,4.63,0,0,1-.648-.025c-.536-.077-.923-.685-.941-1.451a1.548,1.548,0,0,1,.819-1.54,2.2,2.2,0,0,1,.646-.051q16.66,0,33.322,0a1.716,1.716,0,0,1,.811.138,1.532,1.532,0,0,1,.629,1.617c-.064.744-.358,1.177-.845,1.272a3.633,3.633,0,0,1-.706.036Q-960.283,4830.836-968.6,4830.835Z" transform="translate(-7190.871 -10876.842)" fill="#12263f"/>
    <path id="Trazado_197444-2" data-name="Trazado 197444" d="M-977.107,4680.012c-.431,0-.866.035-1.294-.007a2.339,2.339,0,0,1-2.265-2.33,2.362,2.362,0,0,1,2.1-2.5,14.55,14.55,0,0,1,2.873-.034,2.4,2.4,0,0,1,2.341,2.435,2.378,2.378,0,0,1-2.455,2.449c-.429.03-.863,0-1.295,0Z" transform="translate(-7195.12 -10768.525)" fill="#12263f"/>
    <path id="Trazado_197445-3" data-name="Trazado 197445" d="M-899.206,4677.549a2.455,2.455,0,0,1-2.368,2.535,2.422,2.422,0,0,1-2.558-2.33,2.518,2.518,0,0,1,2.354-2.563A2.514,2.514,0,0,1-899.206,4677.549Z" transform="translate(-7249.54 -10768.598)" fill="#12263f"/>
    <path id="Trazado_197446-2" data-name="Trazado 197446" d="M-933.367,4677.692a2.384,2.384,0,0,1-2.482,2.419,2.473,2.473,0,0,1-2.437-2.351,2.573,2.573,0,0,1,2.442-2.532A2.485,2.485,0,0,1-933.367,4677.692Z" transform="translate(-7225.255 -10768.627)" fill="#12263f"/>
    <path id="Trazado_821984" data-name="Trazado 821984" d="M-784.979,4931.383h25.924l5.051-5.052-5.147-5.146h-26.02l4.718,4.718Z" transform="translate(-7334.129 -10943.514)" fill="none" stroke="#12263f" stroke-linejoin="round" stroke-width="1.5"/>
    <path id="Trazado_821985" data-name="Trazado 821985" d="M-886.574,4931.383h25.924l5.051-5.052-5.147-5.146h-26.02l4.718,4.718Z" transform="translate(-7261.89 -10943.514)" fill="none" stroke="#12263f" stroke-linejoin="round" stroke-width="1.5"/>
    <path id="Trazado_821988" data-name="Trazado 821988" d="M-988.169,4931.383h25.925l5.051-5.052-5.147-5.146h-26.02l4.718,4.718Z" transform="translate(-7189.65 -10943.514)" fill="none" stroke="#12263f" stroke-linejoin="round" stroke-width="1.5"/>
    <path id="Trazado_197452-2" data-name="Trazado 197452" d="M-706.488,4801.779l10.585-11.315,5.475,3.285,4.38-5.11,5.11.73,7.664-8.395" transform="translate(-7390.076 -10843.818)" fill="none" stroke="#12263f" stroke-linejoin="round" stroke-width="3"/>
    <g id="Trazado_838865" data-name="Trazado 838865" transform="translate(-8101.947 -6070.468)" fill="none">
      <path d="M4,0H43a4,4,0,0,1,4,4V29a4,4,0,0,1-4,4H4a4,4,0,0,1-4-4V4A4,4,0,0,1,4,0Z" stroke="none"/>
      <path d="M 4 2 C 2.897201538085938 2 2 2.897199630737305 2 4 L 2 29 C 2 30.1028003692627 2.897201538085938 31 4 31 L 43 31 C 44.10279846191406 31 45 30.1028003692627 45 29 L 45 4 C 45 2.897199630737305 44.10279846191406 2 43 2 L 4 2 M 4 0 L 43 0 C 45.20914077758789 0 47 1.790859222412109 47 4 L 47 29 C 47 31.20914077758789 45.20914077758789 33 43 33 L 4 33 C 1.790859222412109 33 0 31.20914077758789 0 29 L 0 4 C 0 1.790859222412109 1.790859222412109 0 4 0 Z" stroke="none" fill="#12263f"/>
    </g>
    <path id="Trazado_821986" data-name="Trazado 821986" d="M0,0H42.069" transform="translate(-8114.302 -5953.768) rotate(-90)" fill="none" stroke="#12263f" stroke-width="3"/>
    <g id="Trazado_838866" data-name="Trazado 838866" transform="translate(-8158.134 -5953.768)" fill="none">
      <path d="M5,0H82.664a5,5,0,0,1,5,5V62.064a5,5,0,0,1-5,5H5a5,5,0,0,1-5-5V5A5,5,0,0,1,5,0Z" stroke="none"/>
      <path d="M 5 2.499992370605469 C 3.621490478515625 2.499992370605469 2.5 3.621490478515625 2.5 4.999996185302734 L 2.5 62.06375503540039 C 2.5 63.4422607421875 3.621490478515625 64.56375885009766 5 64.56375885009766 L 82.66357421875 64.56375885009766 C 84.04208374023438 64.56375885009766 85.16357421875 63.4422607421875 85.16357421875 62.06375503540039 L 85.16357421875 4.999996185302734 C 85.16357421875 3.621490478515625 84.04208374023438 2.499992370605469 82.66357421875 2.499992370605469 L 5 2.499992370605469 M 5 -7.62939453125e-06 L 82.66357421875 -7.62939453125e-06 C 85.42498779296875 -7.62939453125e-06 87.66357421875 2.238578796386719 87.66357421875 4.999996185302734 L 87.66357421875 62.06375503540039 C 87.66357421875 64.82517242431641 85.42498779296875 67.06375885009766 82.66357421875 67.06375885009766 L 5 67.06375885009766 C 2.238571166992188 67.06375885009766 0 64.82517242431641 0 62.06375503540039 L 0 4.999996185302734 C 0 2.238578796386719 2.238571166992188 -7.62939453125e-06 5 -7.62939453125e-06 Z" stroke="none" fill="#12263f"/>
    </g>
    <path id="Trazado_197441-4" data-name="Trazado 197441" d="M-10088.652-6500.5h64.543" transform="translate(1943.121 555.838)" fill="none" stroke="#12263f" stroke-width="2"/>
    <path id="Trazado_197443-4" data-name="Trazado 197443" d="M-10088.652-6500.5h64.543" transform="translate(1943.121 569.13)" fill="none" stroke="#12263f" stroke-width="2"/>
    <path id="Trazado_197445-4" data-name="Trazado 197445" d="M-10088.652-6500.5h64.543" transform="translate(1942.834 581.266)" fill="none" stroke="#12263f" stroke-width="2"/>
    <path id="Trazado_197447-2" data-name="Trazado 197447" d="M-10088.652-6500.5h64.543" transform="translate(1942.834 592.246)" fill="none" stroke="#12263f" stroke-width="2"/>
    <path id="Trazado_197449-3" data-name="Trazado 197449" d="M-10088.652-6500.5h64.543" transform="translate(1943.121 562.484)" fill="none" stroke="#12263f" stroke-width="2"/>
    <path id="Trazado_197451-4" data-name="Trazado 197451" d="M-10088.652-6500.5h64.543" transform="translate(1943.121 575.775)" fill="none" stroke="#12263f" stroke-width="2"/>
    <path id="Trazado_197453-2" data-name="Trazado 197453" d="M-10088.652-6500.5h64.543" transform="translate(1943.121 586.756)" fill="none" stroke="#12263f" stroke-width="2"/>
    <g id="Trazado_838867" data-name="Trazado 838867" transform="translate(-8119.819 -5903.975)" fill="none">
      <path d="M5.941,0A5.941,5.941,0,1,1,0,5.941,5.941,5.941,0,0,1,5.941,0Z" stroke="none"/>
      <path d="M 5.941489219665527 0.9999990463256836 C 3.216739654541016 0.9999990463256836 0.9999990463256836 3.216739654541016 0.9999990463256836 5.941489219665527 C 0.9999990463256836 8.666238784790039 3.216739654541016 10.88297939300537 5.941489219665527 10.88297939300537 C 8.666238784790039 10.88297939300537 10.88297939300537 8.666238784790039 10.88297939300537 5.941489219665527 C 10.88297939300537 3.216739654541016 8.666238784790039 0.9999990463256836 5.941489219665527 0.9999990463256836 M 5.941489219665527 -9.5367431640625e-07 C 9.222879409790039 -9.5367431640625e-07 11.88297939300537 2.660099029541016 11.88297939300537 5.941489219665527 C 11.88297939300537 9.222879409790039 9.222879409790039 11.88297939300537 5.941489219665527 11.88297939300537 C 2.660099029541016 11.88297939300537 -9.5367431640625e-07 9.222879409790039 -9.5367431640625e-07 5.941489219665527 C -9.5367431640625e-07 2.660099029541016 2.660099029541016 -9.5367431640625e-07 5.941489219665527 -9.5367431640625e-07 Z" stroke="none" fill="#12263f"/>
    </g>
    <g id="Trazado_838868" data-name="Trazado 838868" transform="translate(-8116.692 -5900.848)" fill="#12263f">
      <path d="M 2.814389705657959 5.128779888153076 C 1.538229703903198 5.128779888153076 0.4999997019767761 4.090549468994141 0.4999997019767761 2.814389705657959 C 0.4999997019767761 1.538229703903198 1.538229703903198 0.4999997019767761 2.814389705657959 0.4999997019767761 C 4.090549468994141 0.4999997019767761 5.128779888153076 1.538229703903198 5.128779888153076 2.814389705657959 C 5.128779888153076 4.090549468994141 4.090549468994141 5.128779888153076 2.814389705657959 5.128779888153076 Z" stroke="none"/>
      <path d="M 2.814389705657959 0.9999995231628418 C 1.813929796218872 0.9999995231628418 0.9999995231628418 1.813929796218872 0.9999995231628418 2.814389705657959 C 0.9999995231628418 3.814849853515625 1.813929796218872 4.628779888153076 2.814389705657959 4.628779888153076 C 3.814849853515625 4.628779888153076 4.628779888153076 3.814849853515625 4.628779888153076 2.814389705657959 C 4.628779888153076 1.813929796218872 3.814849853515625 0.9999995231628418 2.814389705657959 0.9999995231628418 M 2.814389705657959 -4.76837158203125e-07 C 4.368729591369629 -4.76837158203125e-07 5.628779888153076 1.260049819946289 5.628779888153076 2.814389705657959 C 5.628779888153076 4.368729591369629 4.368729591369629 5.628779888153076 2.814389705657959 5.628779888153076 C 1.260049819946289 5.628779888153076 -4.76837158203125e-07 4.368729591369629 -4.76837158203125e-07 2.814389705657959 C -4.76837158203125e-07 1.260049819946289 1.260049819946289 -4.76837158203125e-07 2.814389705657959 -4.76837158203125e-07 Z" stroke="none" fill="#12263f"/>
    </g>
    <path id="Trazado_838869" data-name="Trazado 838869" d="M6.043-1.9H2.7L2.069,0H.044l3.44-9.242H5.25L8.709,0H6.684ZM3.218-3.447H5.529L4.367-6.906ZM9.953,0V-5.522H8.931V-6.868H9.953v-.584a2.371,2.371,0,0,1,.663-1.793,2.569,2.569,0,0,1,1.857-.638,4.289,4.289,0,0,1,.933.127l-.019,1.422a2.339,2.339,0,0,0-.559-.057q-1.035,0-1.035.971v.552h1.365v1.346H11.794V0Zm6.354-8.557v1.688h1.174v1.346H16.307v3.428a.818.818,0,0,0,.146.546.733.733,0,0,0,.559.165,2.925,2.925,0,0,0,.54-.044v1.39A3.777,3.777,0,0,1,16.44.127a1.752,1.752,0,0,1-1.968-1.949v-3.7h-1V-6.868h1V-8.557ZM21.665.127A3.372,3.372,0,0,1,19.2-.8a3.294,3.294,0,0,1-.949-2.469v-.178a4.149,4.149,0,0,1,.4-1.85,2.935,2.935,0,0,1,1.133-1.257A3.18,3.18,0,0,1,21.461-7a2.85,2.85,0,0,1,2.219.889,3.611,3.611,0,0,1,.809,2.52v.749H20.116a1.7,1.7,0,0,0,.536,1.079,1.621,1.621,0,0,0,1.133.406,1.98,1.98,0,0,0,1.657-.768l.9,1.009A2.754,2.754,0,0,1,23.226-.2,3.665,3.665,0,0,1,21.665.127Zm-.209-5.643a1.146,1.146,0,0,0-.885.37,1.915,1.915,0,0,0-.435,1.058h2.552v-.147a1.366,1.366,0,0,0-.33-.947A1.183,1.183,0,0,0,21.455-5.516Zm7.935.368a4.984,4.984,0,0,0-.66-.051,1.344,1.344,0,0,0-1.365.7V0H25.53V-6.868h1.733l.051.819A1.7,1.7,0,0,1,28.844-7a1.922,1.922,0,0,1,.571.083Z" transform="translate(-8129 -6109.178)" fill="#12263f"/>
    <g id="Trazado_838870" data-name="Trazado 838870" transform="translate(-8188 -6103.483)" fill="none">
      <path d="M11,0H136a11,11,0,0,1,11,11V99a11,11,0,0,1-11,11H11A11,11,0,0,1,0,99V11A11,11,0,0,1,11,0Z" stroke="none"/>
      <path d="M 11 3 C 6.588790893554688 3 3 6.588790893554688 3 11 L 3 99 C 3 103.4112091064453 6.588790893554688 107 11 107 L 136 107 C 140.4112091064453 107 144 103.4112091064453 144 99 L 144 11 C 144 6.588790893554688 140.4112091064453 3 136 3 L 11 3 M 11 0 L 136 0 C 142.0751190185547 0 147 4.924850463867188 147 11 L 147 99 C 147 105.0751266479492 142.0751190185547 110 136 110 L 11 110 C 4.924850463867188 110 0 105.0751266479492 0 99 L 0 11 C 0 4.924850463867188 4.924850463867188 0 11 0 Z" stroke="none" fill="#12263f"/>
    </g>
    <path id="Trazado_821987" data-name="Trazado 821987" d="M4061.071-8379.466h144.3" transform="translate(-12247.463 2298.517)" fill="none" stroke="#12263f" stroke-width="3"/>
    <path id="Trazado_838871" data-name="Trazado 838871" d="M9.7,0l9.7,16.457H0Z" transform="translate(-7987.469 -6061.68) rotate(90)" fill="#12263f"/>
    <g id="Jh8W0t" transform="translate(-8030.852 -6111.581)">
      <g id="Grupo_155516" data-name="Grupo 155516">
        <path id="Trazado_197486" data-name="Trazado 197486" d="M-1399.06,4854.5a24.654,24.654,0,0,1-2.391.678c-3.788.68-7.643-1.54-8.943-5.939a10.874,10.874,0,0,1,2.3-10.639,8.76,8.76,0,0,1,6.271-3.188c.1-.008.2-.023.3-.039.014,0,.026-.023.048-.044-.121-.6-.287-1.2-.358-1.82a7.872,7.872,0,0,1,1.863-6.139,11.437,11.437,0,0,1,5.493-3.638,14.284,14.284,0,0,1,8.3-.181,20.859,20.859,0,0,1,3.011,1.223.463.463,0,0,0,.661-.128,11.559,11.559,0,0,1,5.168-3.5,13.458,13.458,0,0,1,7.242-.363,15.363,15.363,0,0,1,6.744,3.4.777.777,0,0,0,.67.145,18.891,18.891,0,0,1,6.64-1.261,8.926,8.926,0,0,1,5.464,1.724,7.28,7.28,0,0,1,2.739,5.893c.007.233,0,.468,0,.748.674-.105,1.3-.248,1.926-.294,2.514-.186,4.346,1.635,4.288,4.528-.015.742-.077,1.483-.115,2.2.8.171,1.627.276,2.419.528a8.085,8.085,0,0,1,5.58,5.593,8.868,8.868,0,0,1-.394,6.281,11.181,11.181,0,0,1-7.064,6.428,10.276,10.276,0,0,1-4.778.366c-.4-.059-.542.087-.662.548a8.346,8.346,0,0,1-5.2,6,12.181,12.181,0,0,1-7.761.3,19.119,19.119,0,0,1-5.727-2.656.642.642,0,0,0-.622.025,16.511,16.511,0,0,1-13.641,2.724,11.321,11.321,0,0,1-6.788-4.306c-.177-.235-.316-.268-.562-.115a8,8,0,0,1-4.891,1.27,8.1,8.1,0,0,1-7.044-5.917C-1398.927,4854.792-1399,4854.654-1399.06,4854.5Zm8.449-30.985a12.88,12.88,0,0,0-6.544,2,9.469,9.469,0,0,0-3.705,4.113,6.8,6.8,0,0,0-.353,4.936c.288.939.119,1.238-.7,1.335-.2.023-.4.068-.6.1-3.636.622-6.174,2.9-7.465,6.93a9.49,9.49,0,0,0,2.3,9.9,7.033,7.033,0,0,0,7.785,1.416c.965-.367,1.107-.29,1.5.791a7.775,7.775,0,0,0,6.882,5.358,8.084,8.084,0,0,0,4.262-1.155.819.819,0,0,1,1.273.227,9.9,9.9,0,0,0,3.483,2.923,14.414,14.414,0,0,0,8.441,1.474,16.827,16.827,0,0,0,7.95-3.021,1.183,1.183,0,0,1,1.041.043c.657.309,1.258.773,1.9,1.117a13.846,13.846,0,0,0,9.247,1.7,8.21,8.21,0,0,0,6.974-6.542c.147-.579.511-.606.926-.576a16.126,16.126,0,0,0,1.876.1,10.557,10.557,0,0,0,9.23-5.8,8.4,8.4,0,0,0-1.386-10.228,8.9,8.9,0,0,0-5.063-2.237c-.721-.092-.848-.341-.772-1.16a13.64,13.64,0,0,0,.056-2.365,3.323,3.323,0,0,0-2.628-3.162,8.946,8.946,0,0,0-2.417.085c-.915.139-1.112.015-1.127-1.048,0-.158,0-.317-.011-.476a6.777,6.777,0,0,0-2.546-5.089,8.345,8.345,0,0,0-5.02-1.66,15.658,15.658,0,0,0-6.25,1.105,1.625,1.625,0,0,1-2.009-.447,3.353,3.353,0,0,0-.587-.468,14.12,14.12,0,0,0-6.366-2.635,12.018,12.018,0,0,0-11.118,3.823.919.919,0,0,1-1.249.225A14.593,14.593,0,0,0-1390.611,4823.517Z" transform="translate(1410.911 -4820.458)" fill="#12263f" stroke="#12263f" stroke-width="2"/>
      </g>
    </g>
    <g id="Trazado_838872" data-name="Trazado 838872" transform="translate(-8036.352 -6082.081)" fill="none">
      <path d="M5.5,0A5.5,5.5,0,1,1,0,5.5,5.5,5.5,0,0,1,5.5,0Z" stroke="none"/>
      <path d="M 5.5 2 C 3.570089817047119 2 2 3.570089817047119 2 5.5 C 2 7.429909706115723 3.570089817047119 9 5.5 9 C 7.429909706115723 9 9 7.429909706115723 9 5.5 C 9 3.570089817047119 7.429909706115723 2 5.5 2 M 5.5 0 C 8.537569999694824 0 11 2.462430000305176 11 5.5 C 11 8.537569999694824 8.537569999694824 11 5.5 11 C 2.462430000305176 11 0 8.537569999694824 0 5.5 C 0 2.462430000305176 2.462430000305176 0 5.5 0 Z" stroke="none" fill="#12263f"/>
    </g>
    <g id="Trazado_838873" data-name="Trazado 838873" transform="translate(-8042 -6076.081)" fill="none">
      <path d="M4,0A4,4,0,1,1,0,4,4,4,0,0,1,4,0Z" stroke="none"/>
      <path d="M 4 2 C 2.897200107574463 2 2 2.897200107574463 2 4 C 2 5.102799892425537 2.897200107574463 6 4 6 C 5.102799892425537 6 6 5.102799892425537 6 4 C 6 2.897200107574463 5.102799892425537 2 4 2 M 4 0 C 6.209139823913574 0 8 1.790860176086426 8 4 C 8 6.209139823913574 6.209139823913574 8 4 8 C 1.790860176086426 8 0 6.209139823913574 0 4 C 0 1.790860176086426 1.790860176086426 0 4 0 Z" stroke="none" fill="#12263f"/>
    </g>
    <path id="Trazado_838874" data-name="Trazado 838874" d="M2.625-1.412h4.3V0H.428V-1.031L4.646-7.107H.434V-8.531h6.4v1.008Zm7.242.047h3.1V0H7.705V-1.031l2.982-3.943H7.793V-6.34h5.08v1Zm6.105,0h3.1V0H13.811V-1.031l2.982-3.943H13.9V-6.34h5.08v1Zm6.105,0h3.1V0H19.916V-1.031L22.9-4.975H20V-6.34h5.08v1Zm6.105,0h3.1V0H26.021V-1.031L29-4.975H26.109V-6.34h5.08v1Zm6.105,0h3.1V0H32.127V-1.031l2.982-3.943H32.215V-6.34h5.08v1Zm6.105,0h3.1V0H38.232V-1.031l2.982-3.943H38.32V-6.34H43.4v1Z" transform="translate(-8012 -6083.581)" fill="#12263f"/>
  </g>
</svg>
