<svg xmlns="http://www.w3.org/2000/svg" width="611" height="263.502" viewBox="0 0 611 263.502">
  <g id="Grupo_1098913" data-name="Grupo 1098913" transform="translate(-370 -3761.7)">
    <path id="Trazado_838837" data-name="Trazado 838837" d="M0,0H611V263.5H0Z" transform="translate(370 3761.7)" fill="#c2e6dd"/>
    <g id="gbVqRU.tif" transform="translate(498.455 3806.593)">
      <g id="Grupo_155512" data-name="Grupo 155512">
        <path id="Trazado_197441" data-name="Trazado 197441" d="M-953.461,4764.263q-15.129,0-30.259,0c-.4,0-.8.006-1.192-.026a1.721,1.721,0,0,1-1.731-1.51,1.7,1.7,0,0,1,1.507-1.607,7,7,0,0,1,1.187-.053q30.638,0,61.277,0a5.4,5.4,0,0,1,1.491.142,1.426,1.426,0,0,1,1.156,1.687,1.555,1.555,0,0,1-1.554,1.326,11.74,11.74,0,0,1-1.3.038Q-938.169,4764.264-953.461,4764.263Z" transform="translate(986.644 -4735.351)" fill="#12263f"/>
        <path id="Trazado_197442" data-name="Trazado 197442" d="M-961.784,4800.792q-11.334,0-22.669,0a7.561,7.561,0,0,1-.893-.029,1.562,1.562,0,0,1-1.3-1.6,1.677,1.677,0,0,1,1.129-1.7,3.628,3.628,0,0,1,.889-.058q22.954,0,45.907,0a2.9,2.9,0,0,1,1.117.15,1.571,1.571,0,0,1,.867,1.79,1.4,1.4,0,0,1-1.164,1.409,6.281,6.281,0,0,1-.973.04Q-950.328,4800.793-961.784,4800.792Z" transform="translate(986.644 -4761.97)" fill="#12263f"/>
        <path id="Trazado_197443" data-name="Trazado 197443" d="M-968.6,4830.835h-16.454a4.63,4.63,0,0,1-.648-.025c-.536-.077-.923-.685-.941-1.451a1.548,1.548,0,0,1,.819-1.54,2.2,2.2,0,0,1,.646-.051q16.66,0,33.322,0a1.716,1.716,0,0,1,.811.138,1.532,1.532,0,0,1,.629,1.617c-.064.744-.358,1.177-.845,1.272a3.633,3.633,0,0,1-.706.036Q-960.283,4830.836-968.6,4830.835Z" transform="translate(986.643 -4783.402)" fill="#12263f"/>
        <path id="Trazado_197444" data-name="Trazado 197444" d="M-977.107,4680.012c-.431,0-.866.035-1.294-.007a2.339,2.339,0,0,1-2.265-2.33,2.362,2.362,0,0,1,2.1-2.5,14.55,14.55,0,0,1,2.873-.034,2.4,2.4,0,0,1,2.341,2.435,2.378,2.378,0,0,1-2.455,2.449c-.429.03-.863,0-1.295,0Z" transform="translate(982.395 -4675.086)" fill="#12263f"/>
        <path id="Trazado_197445" data-name="Trazado 197445" d="M-899.206,4677.549a2.455,2.455,0,0,1-2.368,2.535,2.422,2.422,0,0,1-2.558-2.33,2.518,2.518,0,0,1,2.354-2.563A2.514,2.514,0,0,1-899.206,4677.549Z" transform="translate(927.975 -4675.159)" fill="#12263f"/>
        <path id="Trazado_197446" data-name="Trazado 197446" d="M-933.367,4677.692a2.384,2.384,0,0,1-2.482,2.419,2.473,2.473,0,0,1-2.437-2.351,2.573,2.573,0,0,1,2.442-2.532A2.485,2.485,0,0,1-933.367,4677.692Z" transform="translate(952.259 -4675.187)" fill="#12263f"/>
      </g>
    </g>
    <path id="Trazado_197448" data-name="Trazado 197448" d="M-784.979,4931.383h25.924l5.051-5.052-5.147-5.146h-26.02l4.718,4.718Z" transform="translate(1341.84 -1043.482)" fill="none" stroke="#12263f" stroke-linejoin="round" stroke-width="1.5"/>
    <path id="Trazado_197449" data-name="Trazado 197449" d="M-886.574,4931.383h25.924l5.051-5.052-5.147-5.146h-26.02l4.718,4.718Z" transform="translate(1414.079 -1043.482)" fill="none" stroke="#12263f" stroke-linejoin="round" stroke-width="1.5"/>
    <path id="Trazado_197450" data-name="Trazado 197450" d="M-988.169,4931.383h25.925l5.051-5.052-5.147-5.146h-26.02l4.718,4.718Z" transform="translate(1486.318 -1043.482)" fill="none" stroke="#12263f" stroke-linejoin="round" stroke-width="1.5"/>
    <path id="Trazado_197451" data-name="Trazado 197451" d="M-634.8,4913.921v12.594a31.109,31.109,0,0,0,21.078,0l-.274-12.594" transform="translate(1234.922 -1038.318)" fill="none" stroke="#12263f" stroke-linejoin="round" stroke-width="2"/>
    <path id="Trazado_197452" data-name="Trazado 197452" d="M-706.488,4801.779l10.585-11.315,5.475,3.285,4.38-5.11,5.11.73,7.664-8.395" transform="translate(1285.893 -943.785)" fill="none" stroke="#12263f" stroke-linejoin="round" stroke-width="3"/>
    <path id="Trazado_838838" data-name="Trazado 838838" d="M10.4,0c5.745,0,10.4,1.716,10.4,3.832S16.147,7.665,10.4,7.665,0,5.949,0,3.832,4.657,0,10.4,0Z" transform="translate(600.118 3871.771)" fill="none" stroke="#12263f" stroke-width="2"/>
    <path id="Trazado_197527" data-name="Trazado 197527" d="M-784.979,4931.383h25.924l5.051-5.052-5.147-5.146h-26.02l4.718,4.718Z" transform="translate(1524.918 -1063.193)" fill="none" stroke="#12263f" stroke-linejoin="round" stroke-width="1.5"/>
    <path id="Trazado_197528" data-name="Trazado 197528" d="M-886.574,4931.383h25.924l5.051-5.052-5.147-5.146h-26.02l4.718,4.718Z" transform="translate(1640.285 -1076.365)" fill="none" stroke="#12263f" stroke-linejoin="round" stroke-width="1.5"/>
    <path id="Trazado_197529" data-name="Trazado 197529" d="M-988.169,4931.383h25.925l5.051-5.052-5.147-5.146h-26.02l4.718,4.718Z" transform="translate(1712.524 -1076.365)" fill="none" stroke="#12263f" stroke-linejoin="round" stroke-width="1.5"/>
    <g id="Trazado_838839" data-name="Trazado 838839" transform="translate(574.021 3829.564)" fill="none">
      <path d="M4,0H43a4,4,0,0,1,4,4V29a4,4,0,0,1-4,4H4a4,4,0,0,1-4-4V4A4,4,0,0,1,4,0Z" stroke="none"/>
      <path d="M 4 2 C 2.897201538085938 2 2 2.897199630737305 2 4 L 2 29 C 2 30.1028003692627 2.897201538085938 31 4 31 L 43 31 C 44.10279846191406 31 45 30.1028003692627 45 29 L 45 4 C 45 2.897199630737305 44.10279846191406 2 43 2 L 4 2 M 4 0 L 43 0 C 45.20914077758789 0 47 1.790859222412109 47 4 L 47 29 C 47 31.20914077758789 45.20914077758789 33 43 33 L 4 33 C 1.790859222412109 33 0 31.20914077758789 0 29 L 0 4 C 0 1.790859222412109 1.790859222412109 0 4 0 Z" stroke="none" fill="#12263f"/>
    </g>
    <path id="Trazado_197436" data-name="Trazado 197436" d="M-10419.125-6917.625h36.843" transform="translate(10870.125 10765.674)" fill="none" stroke="#12263f" stroke-width="3"/>
    <path id="Trazado_197437" data-name="Trazado 197437" d="M0,0H41.1" transform="translate(561.667 3945.296) rotate(-90)" fill="none" stroke="#12263f" stroke-width="3"/>
    <path id="Trazado_197439" data-name="Trazado 197439" d="M-10419.125-6917.625h69.958" transform="translate(11052.072 10765.674)" fill="none" stroke="#12263f" stroke-width="3"/>
    <path id="Trazado_197440" data-name="Trazado 197440" d="M-10419.125-6917.625h28.931" transform="translate(11274.83 10765.674)" fill="none" stroke="#12263f" stroke-width="3"/>
    <path id="Trazado_838840" data-name="Trazado 838840" d="M9.694,0l9.694,16.261H0Z" transform="translate(899.044 3838.318) rotate(90)" fill="#12263f"/>
    <g id="Trazado_838841" data-name="Trazado 838841" transform="translate(517.835 3943.265)" fill="none">
      <path d="M5,0H82.664a5,5,0,0,1,5,5V62.064a5,5,0,0,1-5,5H5a5,5,0,0,1-5-5V5A5,5,0,0,1,5,0Z" stroke="none"/>
      <path d="M 5 2.499992370605469 C 3.621490478515625 2.499992370605469 2.5 3.621490478515625 2.5 4.999996185302734 L 2.5 62.06375503540039 C 2.5 63.4422607421875 3.621490478515625 64.56375885009766 5 64.56375885009766 L 82.66357421875 64.56375885009766 C 84.04208374023438 64.56375885009766 85.16357421875 63.4422607421875 85.16357421875 62.06375503540039 L 85.16357421875 4.999996185302734 C 85.16357421875 3.621490478515625 84.04208374023438 2.499992370605469 82.66357421875 2.499992370605469 L 5 2.499992370605469 M 5 -7.62939453125e-06 L 82.66357421875 -7.62939453125e-06 C 85.42498779296875 -7.62939453125e-06 87.66357421875 2.238578796386719 87.66357421875 4.999996185302734 L 87.66357421875 62.06375503540039 C 87.66357421875 64.82517242431641 85.42498779296875 67.06375885009766 82.66357421875 67.06375885009766 L 5 67.06375885009766 C 2.238571166992188 67.06375885009766 0 64.82517242431641 0 62.06375503540039 L 0 4.999996185302734 C 0 2.238578796386719 2.238571166992188 -7.62939453125e-06 5 -7.62939453125e-06 Z" stroke="none" fill="#12263f"/>
    </g>
    <g id="Grupo_1074588" data-name="Grupo 1074588" transform="translate(530.15 3952.37)">
      <path id="Trazado_197441-2" data-name="Trazado 197441" d="M-10088.652-6500.5h64.543" transform="translate(10088.94 6500.5)" fill="none" stroke="#12263f" stroke-width="2"/>
      <path id="Trazado_197443-2" data-name="Trazado 197443" d="M-10088.652-6500.5h64.543" transform="translate(10088.94 6513.792)" fill="none" stroke="#12263f" stroke-width="2"/>
      <path id="Trazado_197445-2" data-name="Trazado 197445" d="M-10088.652-6500.5h64.543" transform="translate(10088.652 6525.928)" fill="none" stroke="#12263f" stroke-width="2"/>
      <path id="Trazado_197447" data-name="Trazado 197447" d="M-10088.652-6500.5h64.543" transform="translate(10088.652 6536.908)" fill="none" stroke="#12263f" stroke-width="2"/>
      <path id="Trazado_197449-2" data-name="Trazado 197449" d="M-10088.652-6500.5h64.543" transform="translate(10088.94 6507.146)" fill="none" stroke="#12263f" stroke-width="2"/>
      <path id="Trazado_197451-2" data-name="Trazado 197451" d="M-10088.652-6500.5h64.543" transform="translate(10088.94 6520.438)" fill="none" stroke="#12263f" stroke-width="2"/>
      <path id="Trazado_197453" data-name="Trazado 197453" d="M-10088.652-6500.5h64.543" transform="translate(10088.94 6531.418)" fill="none" stroke="#12263f" stroke-width="2"/>
    </g>
    <g id="Grupo_1074589" data-name="Grupo 1074589" transform="translate(556.15 3993.058)">
      <g id="Elipse_5993" data-name="Elipse 5993" fill="none" stroke="#12263f" stroke-width="1">
        <circle cx="5.941" cy="5.941" r="5.941" stroke="none"/>
        <circle cx="5.941" cy="5.941" r="5.441" fill="none"/>
      </g>
      <g id="Elipse_5995" data-name="Elipse 5995" transform="translate(3.127 3.127)" fill="#12263f" stroke="#12263f" stroke-width="1">
        <circle cx="2.814" cy="2.814" r="2.814" stroke="none"/>
        <circle cx="2.814" cy="2.814" r="2.314" fill="none"/>
      </g>
    </g>
    <path id="Trazado_197455" data-name="Trazado 197455" d="M-708.49,4769.306c-1.748,0-3.5.006-5.243,0-1.3-.005-1.807-.517-1.811-1.82-.006-1.665-.008-13.847,0-15.51.006-1.166.492-1.727,1.64-1.735,3.662-.026,19.011-.025,22.672,0a1.438,1.438,0,0,1,1.611,1.6c.043,1.774.045,14.07,0,15.843-.03,1.133-.6,1.611-1.772,1.616C-693.2,4769.312-706.687,4769.306-708.49,4769.306Zm15.935-16.119h-20.079V4766.4h20.079Z" transform="translate(1455.456 -932.58)" fill="#12263f" stroke="rgba(0,0,0,0)" stroke-width="4"/>
    <path id="Trazado_197456" data-name="Trazado 197456" d="M-706.488,4792.995l6.116-6.536,3.163,1.9,2.531-2.953,2.953.424,4.429-4.852" transform="translate(1447.908 -958.201)" fill="none" stroke="#12263f" stroke-linejoin="round" stroke-width="2"/>
    <path id="Trazado_197457" data-name="Trazado 197457" d="M-634.8,4913.921v12.594a31.109,31.109,0,0,0,21.078,0l-.274-12.594" transform="translate(1456.428 -1067.342)" fill="none" stroke="#12263f" stroke-linejoin="round" stroke-width="2"/>
    <path id="Trazado_838842" data-name="Trazado 838842" d="M10.4,0c5.745,0,10.4,1.716,10.4,3.832S16.147,7.665,10.4,7.665,0,5.949,0,3.832,4.657,0,10.4,0Z" transform="translate(821.624 3842.747)" fill="none" stroke="#12263f" stroke-width="2"/>
    <g id="Jh8W0t" transform="translate(702.906 3798.904)">
      <g id="Grupo_155516" data-name="Grupo 155516">
        <path id="Trazado_197486" data-name="Trazado 197486" d="M-1387.324,4888.216c-1.639.473-3.179,1.063-4.759,1.348-7.539,1.354-15.212-3.065-17.8-11.82-2.4-8.121-.492-15.191,4.57-21.175a17.44,17.44,0,0,1,12.482-6.345c.2-.014.4-.046.6-.075.028-.005.052-.048.095-.089-.241-1.2-.572-2.4-.714-3.624a15.664,15.664,0,0,1,3.707-12.217,22.748,22.748,0,0,1,10.932-7.242,28.434,28.434,0,0,1,16.513-.359,41.577,41.577,0,0,1,5.993,2.434.921.921,0,0,0,1.316-.256,23.015,23.015,0,0,1,10.286-6.957,26.778,26.778,0,0,1,14.414-.724,30.592,30.592,0,0,1,13.422,6.764,1.544,1.544,0,0,0,1.333.287,37.631,37.631,0,0,1,13.216-2.509,17.767,17.767,0,0,1,10.875,3.431c3.6,2.772,5.3,6.76,5.451,11.728.014.465,0,.93,0,1.489,1.342-.211,2.583-.493,3.834-.586,5-.372,8.65,3.253,8.534,9.012-.029,1.477-.152,2.951-.229,4.384,1.594.339,3.238.55,4.814,1.052a16.09,16.09,0,0,1,11.1,11.133,17.652,17.652,0,0,1-.783,12.5,22.258,22.258,0,0,1-14.06,12.792,20.46,20.46,0,0,1-9.51.728c-.795-.115-1.079.173-1.317,1.091a16.611,16.611,0,0,1-10.35,11.935c-5.083,2.043-10.236,1.932-15.446.605a38.082,38.082,0,0,1-11.4-5.286,1.28,1.28,0,0,0-1.238.049,32.864,32.864,0,0,1-27.148,5.422,22.536,22.536,0,0,1-13.511-8.569c-.352-.467-.628-.533-1.118-.231a15.9,15.9,0,0,1-9.734,2.526c-6.037-.461-11.747-4.581-14.02-11.774C-1387.06,4888.792-1387.2,4888.518-1387.324,4888.216Zm16.816-61.668a25.62,25.62,0,0,0-13.024,3.969,18.865,18.865,0,0,0-7.374,8.186,13.529,13.529,0,0,0-.7,9.826c.572,1.87.236,2.463-1.4,2.657-.4.048-.8.137-1.2.205-7.236,1.238-12.288,5.768-14.859,13.792-2.333,7.281-.528,15.035,4.57,19.711,4.675,4.288,9.921,4.94,15.494,2.818,1.92-.73,2.2-.575,2.98,1.573,2.26,6.263,7.877,10.617,13.7,10.663a16.069,16.069,0,0,0,8.483-2.3,1.631,1.631,0,0,1,2.534.452,19.734,19.734,0,0,0,6.932,5.817,28.676,28.676,0,0,0,16.8,2.933,33.477,33.477,0,0,0,15.822-6.01,2.356,2.356,0,0,1,2.072.083c1.307.615,2.5,1.541,3.79,2.226,5.863,3.117,11.979,4.594,18.405,3.377,6.693-1.266,11.82-4.951,13.879-13.02.294-1.152,1.018-1.207,1.843-1.148a31.943,31.943,0,0,0,3.734.207c7.72-.35,14.059-3.841,18.37-11.536,3.665-6.54,2.876-15.2-2.758-20.355a17.7,17.7,0,0,0-10.077-4.452c-1.434-.184-1.688-.679-1.536-2.309a27.132,27.132,0,0,0,.111-4.706c-.267-3.244-2.477-5.954-5.23-6.293a17.776,17.776,0,0,0-4.811.17c-1.821.276-2.213.029-2.243-2.085,0-.315,0-.633-.023-.946a13.488,13.488,0,0,0-5.066-10.129,16.609,16.609,0,0,0-9.99-3.3,31.156,31.156,0,0,0-12.438,2.2,3.234,3.234,0,0,1-4-.889,6.727,6.727,0,0,0-1.168-.932,28.113,28.113,0,0,0-12.671-5.244c-8.29-1.108-15.837.791-22.128,7.609a1.827,1.827,0,0,1-2.486.449A29.029,29.029,0,0,0-1370.509,4826.548Z" transform="translate(1410.911 -4820.458)" fill="#12263f" stroke="#12263f" stroke-width="2"/>
      </g>
    </g>
    <path id="Trazado_838843" data-name="Trazado 838843" d="M.825,0V-9.242H4.063A4.251,4.251,0,0,1,6.614-8.6a2.2,2.2,0,0,1,.87,1.888,2.088,2.088,0,0,1-.349,1.2,2.017,2.017,0,0,1-.971.759,1.951,1.951,0,0,1,1.12.717,2.121,2.121,0,0,1,.409,1.32A2.439,2.439,0,0,1,6.843-.7,3.829,3.829,0,0,1,4.418,0Zm1.9-4.024V-1.53H4.361A1.574,1.574,0,0,0,5.411-1.85a1.1,1.1,0,0,0,.378-.885A1.161,1.161,0,0,0,4.475-4.024Zm0-1.346H4.139Q5.58-5.4,5.58-6.519a1.062,1.062,0,0,0-.365-.9A1.92,1.92,0,0,0,4.063-7.7H2.729Zm9.433,5.5A3.372,3.372,0,0,1,9.7-.8a3.294,3.294,0,0,1-.949-2.469v-.178a4.149,4.149,0,0,1,.4-1.85,2.935,2.935,0,0,1,1.133-1.257A3.18,3.18,0,0,1,11.959-7a2.85,2.85,0,0,1,2.219.889,3.611,3.611,0,0,1,.809,2.52v.749H10.613a1.7,1.7,0,0,0,.536,1.079,1.621,1.621,0,0,0,1.133.406,1.98,1.98,0,0,0,1.657-.768l.9,1.009A2.754,2.754,0,0,1,13.724-.2,3.665,3.665,0,0,1,12.162.127Zm-.209-5.643a1.146,1.146,0,0,0-.885.37,1.915,1.915,0,0,0-.435,1.058h2.552v-.147a1.366,1.366,0,0,0-.33-.947A1.183,1.183,0,0,0,11.953-5.516ZM16.529,0V-5.522H15.507V-6.868h1.022v-.584a2.371,2.371,0,0,1,.663-1.793,2.569,2.569,0,0,1,1.857-.638,4.289,4.289,0,0,1,.933.127l-.019,1.422a2.339,2.339,0,0,0-.559-.057q-1.035,0-1.035.971v.552h1.365v1.346H18.37V0ZM20.4-3.5a4.073,4.073,0,0,1,.394-1.822,2.881,2.881,0,0,1,1.133-1.238A3.306,3.306,0,0,1,23.645-7a3.127,3.127,0,0,1,2.269.851A3.414,3.414,0,0,1,26.9-3.834l.013.47a3.59,3.59,0,0,1-.882,2.536,3.067,3.067,0,0,1-2.368.955,3.082,3.082,0,0,1-2.371-.952,3.653,3.653,0,0,1-.885-2.59Zm1.834.13a2.567,2.567,0,0,0,.368,1.5,1.215,1.215,0,0,0,1.054.518A1.217,1.217,0,0,0,24.7-1.864,2.809,2.809,0,0,0,25.073-3.5,2.542,2.542,0,0,0,24.7-4.988a1.217,1.217,0,0,0-1.054-.528,1.2,1.2,0,0,0-1.041.524A2.857,2.857,0,0,0,22.236-3.367ZM31.9-5.148a4.984,4.984,0,0,0-.66-.051,1.344,1.344,0,0,0-1.365.7V0H28.038V-6.868h1.733l.051.819A1.7,1.7,0,0,1,31.351-7a1.922,1.922,0,0,1,.571.083ZM35.82.127A3.372,3.372,0,0,1,33.36-.8a3.294,3.294,0,0,1-.949-2.469v-.178a4.149,4.149,0,0,1,.4-1.85,2.935,2.935,0,0,1,1.133-1.257A3.18,3.18,0,0,1,35.617-7a2.85,2.85,0,0,1,2.219.889,3.611,3.611,0,0,1,.809,2.52v.749H34.271a1.7,1.7,0,0,0,.536,1.079,1.621,1.621,0,0,0,1.133.406A1.98,1.98,0,0,0,37.6-2.12l.9,1.009A2.754,2.754,0,0,1,37.381-.2,3.665,3.665,0,0,1,35.82.127ZM35.61-5.516a1.146,1.146,0,0,0-.885.37,1.915,1.915,0,0,0-.435,1.058h2.552v-.147a1.366,1.366,0,0,0-.33-.947A1.183,1.183,0,0,0,35.61-5.516Z" transform="translate(543.667 3789.7)" fill="#12263f"/>
    <path id="Trazado_838844" data-name="Trazado 838844" d="M6.043-1.9H2.7L2.069,0H.044l3.44-9.242H5.25L8.709,0H6.684ZM3.218-3.447H5.529L4.367-6.906ZM9.953,0V-5.522H8.931V-6.868H9.953v-.584a2.371,2.371,0,0,1,.663-1.793,2.569,2.569,0,0,1,1.857-.638,4.289,4.289,0,0,1,.933.127l-.019,1.422a2.339,2.339,0,0,0-.559-.057q-1.035,0-1.035.971v.552h1.365v1.346H11.794V0Zm6.354-8.557v1.688h1.174v1.346H16.307v3.428a.818.818,0,0,0,.146.546.733.733,0,0,0,.559.165,2.925,2.925,0,0,0,.54-.044v1.39A3.777,3.777,0,0,1,16.44.127a1.752,1.752,0,0,1-1.968-1.949v-3.7h-1V-6.868h1V-8.557ZM21.665.127A3.372,3.372,0,0,1,19.2-.8a3.294,3.294,0,0,1-.949-2.469v-.178a4.149,4.149,0,0,1,.4-1.85,2.935,2.935,0,0,1,1.133-1.257A3.18,3.18,0,0,1,21.461-7a2.85,2.85,0,0,1,2.219.889,3.611,3.611,0,0,1,.809,2.52v.749H20.116a1.7,1.7,0,0,0,.536,1.079,1.621,1.621,0,0,0,1.133.406,1.98,1.98,0,0,0,1.657-.768l.9,1.009A2.754,2.754,0,0,1,23.226-.2,3.665,3.665,0,0,1,21.665.127Zm-.209-5.643a1.146,1.146,0,0,0-.885.37,1.915,1.915,0,0,0-.435,1.058h2.552v-.147a1.366,1.366,0,0,0-.33-.947A1.183,1.183,0,0,0,21.455-5.516Zm7.935.368a4.984,4.984,0,0,0-.66-.051,1.344,1.344,0,0,0-1.365.7V0H25.53V-6.868h1.733l.051.819A1.7,1.7,0,0,1,28.844-7a1.922,1.922,0,0,1,.571.083Z" transform="translate(772.704 3789.7)" fill="#12263f"/>
    <path id="Trazado_838845" data-name="Trazado 838845" d="M5.618-2.425a.977.977,0,0,0-.381-.828,5,5,0,0,0-1.371-.609A9.72,9.72,0,0,1,2.3-4.494,2.562,2.562,0,0,1,.724-6.786a2.232,2.232,0,0,1,.422-1.336,2.753,2.753,0,0,1,1.212-.917,4.563,4.563,0,0,1,1.774-.33A4.154,4.154,0,0,1,5.9-9.01,2.81,2.81,0,0,1,7.1-8a2.649,2.649,0,0,1,.428,1.485h-1.9a1.246,1.246,0,0,0-.4-.987A1.644,1.644,0,0,0,4.1-7.852a1.756,1.756,0,0,0-1.085.3.931.931,0,0,0-.387.778.892.892,0,0,0,.454.755,5.128,5.128,0,0,0,1.336.571A5.773,5.773,0,0,1,6.786-4.24a2.415,2.415,0,0,1,.743,1.8A2.224,2.224,0,0,1,6.621-.555,3.974,3.974,0,0,1,4.177.127a4.719,4.719,0,0,1-1.942-.39A3.074,3.074,0,0,1,.9-1.333a2.739,2.739,0,0,1-.46-1.574H2.349q0,1.53,1.828,1.53a1.778,1.778,0,0,0,1.06-.276A.9.9,0,0,0,5.618-2.425ZM12.676,0a2.037,2.037,0,0,1-.184-.616,2.22,2.22,0,0,1-1.733.743A2.439,2.439,0,0,1,9.087-.457,1.878,1.878,0,0,1,8.423-1.93a1.941,1.941,0,0,1,.809-1.676,3.994,3.994,0,0,1,2.339-.59h.844v-.394a1.132,1.132,0,0,0-.244-.762.961.961,0,0,0-.771-.286,1.093,1.093,0,0,0-.727.222.755.755,0,0,0-.263.609H8.576a1.843,1.843,0,0,1,.368-1.1,2.434,2.434,0,0,1,1.041-.8A3.794,3.794,0,0,1,11.5-7a3,3,0,0,1,2.015.638,2.232,2.232,0,0,1,.746,1.793v2.977A3.284,3.284,0,0,0,14.53-.108V0ZM11.159-1.276a1.58,1.58,0,0,0,.749-.181,1.188,1.188,0,0,0,.508-.486V-3.123H11.73q-1.377,0-1.466.952l-.006.108A.734.734,0,0,0,10.5-1.5.937.937,0,0,0,11.159-1.276ZM19.646,0a2.037,2.037,0,0,1-.184-.616,2.22,2.22,0,0,1-1.733.743,2.439,2.439,0,0,1-1.673-.584,1.878,1.878,0,0,1-.663-1.473A1.941,1.941,0,0,1,16.2-3.605a3.994,3.994,0,0,1,2.339-.59h.844v-.394a1.132,1.132,0,0,0-.244-.762.961.961,0,0,0-.771-.286,1.093,1.093,0,0,0-.727.222.755.755,0,0,0-.263.609H15.545a1.843,1.843,0,0,1,.368-1.1,2.434,2.434,0,0,1,1.041-.8A3.794,3.794,0,0,1,18.465-7a3,3,0,0,1,2.015.638,2.232,2.232,0,0,1,.746,1.793v2.977A3.284,3.284,0,0,0,21.5-.108V0ZM18.129-1.276a1.58,1.58,0,0,0,.749-.181,1.188,1.188,0,0,0,.508-.486V-3.123H18.7q-1.377,0-1.466.952l-.006.108a.734.734,0,0,0,.241.565A.937.937,0,0,0,18.129-1.276Zm9.42-1.149a.977.977,0,0,0-.381-.828A5,5,0,0,0,25.8-3.863a9.72,9.72,0,0,1-1.568-.632,2.562,2.562,0,0,1-1.574-2.292,2.232,2.232,0,0,1,.422-1.336,2.753,2.753,0,0,1,1.212-.917,4.563,4.563,0,0,1,1.774-.33,4.154,4.154,0,0,1,1.765.359A2.81,2.81,0,0,1,29.031-8a2.649,2.649,0,0,1,.428,1.485h-1.9a1.246,1.246,0,0,0-.4-.987,1.644,1.644,0,0,0-1.124-.352,1.756,1.756,0,0,0-1.085.3.931.931,0,0,0-.387.778.892.892,0,0,0,.454.755,5.128,5.128,0,0,0,1.336.571A5.773,5.773,0,0,1,28.717-4.24a2.415,2.415,0,0,1,.743,1.8,2.224,2.224,0,0,1-.908,1.882,3.974,3.974,0,0,1-2.444.682,4.719,4.719,0,0,1-1.942-.39,3.074,3.074,0,0,1-1.336-1.07,2.739,2.739,0,0,1-.46-1.574H24.28q0,1.53,1.828,1.53a1.778,1.778,0,0,0,1.06-.276A.9.9,0,0,0,27.549-2.425Z" transform="translate(784.686 3835.773)" fill="#12263f"/>
    <path id="Trazado_838846" data-name="Trazado 838846" d="M4.247-3.383H2.729V0H.825V-9.242H4.259a3.882,3.882,0,0,1,2.526.73,2.519,2.519,0,0,1,.889,2.063,2.843,2.843,0,0,1-.409,1.577A2.792,2.792,0,0,1,6.024-3.866l2,3.777V0H5.979ZM2.729-4.926H4.266a1.573,1.573,0,0,0,1.111-.365A1.3,1.3,0,0,0,5.77-6.3,1.4,1.4,0,0,0,5.4-7.325,1.543,1.543,0,0,0,4.259-7.7H2.729ZM12.162.127A3.372,3.372,0,0,1,9.7-.8a3.294,3.294,0,0,1-.949-2.469v-.178a4.149,4.149,0,0,1,.4-1.85,2.935,2.935,0,0,1,1.133-1.257A3.18,3.18,0,0,1,11.959-7a2.85,2.85,0,0,1,2.219.889,3.611,3.611,0,0,1,.809,2.52v.749H10.613a1.7,1.7,0,0,0,.536,1.079,1.621,1.621,0,0,0,1.133.406,1.98,1.98,0,0,0,1.657-.768l.9,1.009A2.754,2.754,0,0,1,13.724-.2,3.665,3.665,0,0,1,12.162.127Zm-.209-5.643a1.146,1.146,0,0,0-.885.37,1.915,1.915,0,0,0-.435,1.058h2.552v-.147a1.366,1.366,0,0,0-.33-.947A1.183,1.183,0,0,0,11.953-5.516ZM22.21-3.371a4.119,4.119,0,0,1-.72,2.542,2.31,2.31,0,0,1-1.946.955A2.14,2.14,0,0,1,17.862-.6V2.641H16.028V-6.868h1.7l.063.673A2.156,2.156,0,0,1,19.532-7a2.326,2.326,0,0,1,1.974.939,4.231,4.231,0,0,1,.7,2.59ZM20.376-3.5a2.7,2.7,0,0,0-.34-1.479,1.106,1.106,0,0,0-.987-.521,1.2,1.2,0,0,0-1.187.66v2.812a1.222,1.222,0,0,0,1.2.679Q20.376-1.352,20.376-3.5ZM27.46-.7a2.3,2.3,0,0,1-1.879.825A2.17,2.17,0,0,1,23.9-.508a2.71,2.71,0,0,1-.594-1.86v-4.5h1.834v4.442q0,1.074.978,1.074A1.325,1.325,0,0,0,27.4-2V-6.868h1.841V0H27.511Zm7.021-4.45a4.984,4.984,0,0,0-.66-.051,1.344,1.344,0,0,0-1.365.7V0H30.621V-6.868h1.733l.051.819A1.7,1.7,0,0,1,33.935-7a1.922,1.922,0,0,1,.571.083Zm3.618,3.8a1.2,1.2,0,0,0,.825-.279.979.979,0,0,0,.33-.743h1.72a2.353,2.353,0,0,1-.381,1.279,2.513,2.513,0,0,1-1.025.9A3.208,3.208,0,0,1,38.13.127a2.982,2.982,0,0,1-2.323-.936A3.705,3.705,0,0,1,34.957-3.4v-.121A3.663,3.663,0,0,1,35.8-6.049,2.947,2.947,0,0,1,38.118-7a2.889,2.889,0,0,1,2.066.733,2.6,2.6,0,0,1,.79,1.952h-1.72a1.261,1.261,0,0,0-.33-.871,1.1,1.1,0,0,0-.838-.335,1.1,1.1,0,0,0-.968.467,2.708,2.708,0,0,0-.327,1.516v.191a2.742,2.742,0,0,0,.324,1.526A1.119,1.119,0,0,0,38.1-1.352Zm5.713-4.767A2.29,2.29,0,0,1,45.646-7q2.234,0,2.266,2.6V0H46.078V-4.348a1.276,1.276,0,0,0-.254-.873,1.089,1.089,0,0,0-.844-.282,1.249,1.249,0,0,0-1.168.622V0H41.977V-9.75h1.834ZM53.276,0a2.037,2.037,0,0,1-.184-.616,2.22,2.22,0,0,1-1.733.743,2.439,2.439,0,0,1-1.673-.584,1.878,1.878,0,0,1-.663-1.473,1.941,1.941,0,0,1,.809-1.676,3.994,3.994,0,0,1,2.339-.59h.844v-.394a1.132,1.132,0,0,0-.244-.762A.961.961,0,0,0,52-5.637a1.093,1.093,0,0,0-.727.222.755.755,0,0,0-.263.609H49.175a1.843,1.843,0,0,1,.368-1.1,2.434,2.434,0,0,1,1.041-.8A3.794,3.794,0,0,1,52.1-7a3,3,0,0,1,2.015.638,2.232,2.232,0,0,1,.746,1.793v2.977a3.284,3.284,0,0,0,.273,1.479V0ZM51.759-1.276a1.58,1.58,0,0,0,.749-.181,1.188,1.188,0,0,0,.508-.486V-3.123H52.33q-1.377,0-1.466.952l-.006.108A.734.734,0,0,0,51.1-1.5.937.937,0,0,0,51.759-1.276ZM59.985-1.9a.591.591,0,0,0-.333-.53,3.785,3.785,0,0,0-1.07-.346q-2.45-.514-2.45-2.082a1.887,1.887,0,0,1,.759-1.527A3.06,3.06,0,0,1,58.875-7a3.293,3.293,0,0,1,2.092.616,1.94,1.94,0,0,1,.784,1.6H59.916a.888.888,0,0,0-.254-.651,1.075,1.075,0,0,0-.793-.257,1.1,1.1,0,0,0-.717.209.661.661,0,0,0-.254.533.565.565,0,0,0,.289.492,2.971,2.971,0,0,0,.974.324,7.959,7.959,0,0,1,1.155.308,1.9,1.9,0,0,1,1.454,1.847,1.792,1.792,0,0,1-.806,1.52,3.478,3.478,0,0,1-2.082.581,3.632,3.632,0,0,1-1.533-.308A2.572,2.572,0,0,1,56.3-1.025a1.962,1.962,0,0,1-.381-1.158h1.739a.958.958,0,0,0,.362.749,1.435,1.435,0,0,0,.9.26,1.328,1.328,0,0,0,.8-.2A.622.622,0,0,0,59.985-1.9ZM66.111.127A3.372,3.372,0,0,1,63.651-.8,3.294,3.294,0,0,1,62.7-3.269v-.178a4.149,4.149,0,0,1,.4-1.85,2.935,2.935,0,0,1,1.133-1.257A3.18,3.18,0,0,1,65.908-7a2.85,2.85,0,0,1,2.219.889,3.611,3.611,0,0,1,.809,2.52v.749H64.562A1.7,1.7,0,0,0,65.1-1.758a1.621,1.621,0,0,0,1.133.406,1.98,1.98,0,0,0,1.657-.768l.9,1.009A2.754,2.754,0,0,1,67.672-.2,3.665,3.665,0,0,1,66.111.127ZM65.9-5.516a1.146,1.146,0,0,0-.885.37,1.915,1.915,0,0,0-.435,1.058h2.552v-.147a1.366,1.366,0,0,0-.33-.947A1.183,1.183,0,0,0,65.9-5.516Z" transform="translate(638.906 3830.793)" fill="#12263f"/>
    <path id="Trazado_197530" data-name="Trazado 197530" d="M-972.021,4763.155h-13.335a4.281,4.281,0,0,1-.525-.018.984.984,0,0,1-.763-1.028,1.078,1.078,0,0,1,.664-1.092,1.993,1.993,0,0,1,.523-.037c9,0,11.247-.118,20.248-.115a1.572,1.572,0,0,1,.657.1,1.034,1.034,0,0,1,.51,1.147c-.052.527-.29.833-.685.9a3.2,3.2,0,0,1-.572.027C-969.791,4763.038-967.528,4763.155-972.021,4763.155Z" transform="translate(1775.042 -901.725)" fill="#12263f"/>
    <path id="Trazado_197531" data-name="Trazado 197531" d="M-975.689,4798.967h-9.99a3.3,3.3,0,0,1-.393-.014.715.715,0,0,1-.572-.742.775.775,0,0,1,.5-.787,1.461,1.461,0,0,1,.392-.027q10.115,0,20.231,0a1.2,1.2,0,0,1,.492.07.738.738,0,0,1,.382.828c-.039.38-.218.6-.513.65a2.734,2.734,0,0,1-.429.02Z" transform="translate(1775.042 -933.516)" fill="#12263f"/>
    <path id="Trazado_197532" data-name="Trazado 197532" d="M-978.691,4829.337q-3.626,0-7.251,0a1.743,1.743,0,0,1-.286-.012c-.236-.04-.407-.352-.415-.742a.826.826,0,0,1,.361-.789.873.873,0,0,1,.285-.025q7.342,0,14.684,0a.674.674,0,0,1,.357.07.845.845,0,0,1,.277.828c-.028.381-.158.6-.372.651a1.332,1.332,0,0,1-.311.018Q-975.027,4829.338-978.691,4829.337Z" transform="translate(1775.042 -960.018)" fill="#12263f"/>
    <g id="Trazado_838847" data-name="Trazado 838847" transform="translate(488.021 3796.549)" fill="none">
      <path d="M11,0H136a11,11,0,0,1,11,11V99a11,11,0,0,1-11,11H11A11,11,0,0,1,0,99V11A11,11,0,0,1,11,0Z" stroke="none"/>
      <path d="M 11 3 C 6.588790893554688 3 3 6.588790893554688 3 11 L 3 99 C 3 103.4112091064453 6.588790893554688 107 11 107 L 136 107 C 140.4112091064453 107 144 103.4112091064453 144 99 L 144 11 C 144 6.588790893554688 140.4112091064453 3 136 3 L 11 3 M 11 0 L 136 0 C 142.0751190185547 0 147 4.924850463867188 147 11 L 147 99 C 147 105.0751266479492 142.0751190185547 110 136 110 L 11 110 C 4.924850463867188 110 0 105.0751266479492 0 99 L 0 11 C 0 4.924850463867188 4.924850463867188 0 11 0 Z" stroke="none" fill="#12263f"/>
    </g>
    <path id="Trazado_821950" data-name="Trazado 821950" d="M4061.071-8379.466h144.3" transform="translate(-3571.494 12198.549)" fill="none" stroke="#12263f" stroke-width="3"/>
  </g>
</svg>
